<?xml version="1.0" encoding="UTF-8" standalone="no"?><svg xmlns="http://www.w3.org/2000/svg" xmlns:xlink="http://www.w3.org/1999/xlink" contentScriptType="application/ecmascript" contentStyleType="text/css" height="684px" preserveAspectRatio="none" style="width:581px;height:684px;background:#FFFFFF;" version="1.1" viewBox="0 0 581 684" width="581px" zoomAndPan="magnify"><defs><filter height="300%" id="f6pkw7jh73l8l" width="300%" x="-1" y="-1"><feGaussianBlur result="blurOut" stdDeviation="2.0"/><feColorMatrix in="blurOut" result="blurOut2" type="matrix" values="0 0 0 0 0 0 0 0 0 0 0 0 0 0 0 0 0 0 .4 0"/><feOffset dx="4.0" dy="4.0" in="blurOut2" result="blurOut3"/><feBlend in="SourceGraphic" in2="blurOut3" mode="normal"/></filter></defs><g><!--MD5=[019a73386217e12d5bb8e34bf0b46b9e]
class FleetManager--><rect codeLine="2" fill="#FEFECE" filter="url(#f6pkw7jh73l8l)" height="48" id="FleetManager" style="stroke:#A80036;stroke-width:1.5;" width="107" x="325" y="7"/><ellipse cx="340" cy="23" fill="#ADD1B2" rx="11" ry="11" style="stroke:#A80036;stroke-width:1.0;"/><path d="M342,19.5 Q342.2031,19 342.4375,18.75 Q342.6719,18.5 342.9375,18.5 Q343.4063,18.5 343.7031,18.7813 Q344,19.0625 344,19.7188 L344,21.2813 Q344,21.9375 343.7188,22.2188 Q343.4375,22.5 343,22.5 Q342.6094,22.5 342.3594,22.3281 Q342.1094,22.1563 342,21.7031 Q341.9531,21.3906 341.7813,21.2188 Q341.4688,20.8906 340.9063,20.7031 Q340.3438,20.5 339.7813,20.5 Q339.0781,20.5 338.4844,20.7813 Q337.9063,21.0625 337.4531,21.6875 Q337,22.3125 337,23.1719 L337,24.0938 Q337,25.125 337.8438,25.8125 Q338.6875,26.5 340.1875,26.5 Q341.0781,26.5 341.7031,26.2969 Q342.0625,26.1875 342.4688,25.8281 Q342.7344,25.625 342.875,25.5625 Q343.0156,25.5 343.1875,25.5 Q343.5156,25.5 343.75,25.7656 Q344,26.0156 344,26.375 Q344,26.7188 343.6563,27.125 Q343.1563,27.7188 342.3594,28.0469 Q341.3125,28.5 340.0313,28.5 Q338.5313,28.5 337.3281,27.9063 Q336.3594,27.4375 335.6719,26.4219 Q335,25.4063 335,24.2031 L335,23.1094 Q335,21.8594 335.5938,20.7656 Q336.2031,19.6719 337.25,19.0938 Q338.3125,18.5 339.5,18.5 Q340.2188,18.5 340.8438,18.75 Q341.4688,19 342,19.5 Z " fill="#000000"/><text fill="#000000" font-family="sans-serif" font-size="12" lengthAdjust="spacing" textLength="75" x="354" y="27.9102">FleetManager</text><line style="stroke:#A80036;stroke-width:1.5;" x1="326" x2="431" y1="39" y2="39"/><line style="stroke:#A80036;stroke-width:1.5;" x1="326" x2="431" y1="47" y2="47"/><!--MD5=[3fd616f346a44cd59a91eb10b19e157c]
class User--><rect codeLine="6" fill="#FEFECE" filter="url(#f6pkw7jh73l8l)" height="48" id="User" style="stroke:#A80036;stroke-width:1.5;" width="59" x="495" y="154"/><ellipse cx="510" cy="170" fill="#ADD1B2" rx="11" ry="11" style="stroke:#A80036;stroke-width:1.0;"/><path d="M512,166.5 Q512.2031,166 512.4375,165.75 Q512.6719,165.5 512.9375,165.5 Q513.4063,165.5 513.7031,165.7813 Q514,166.0625 514,166.7188 L514,168.2813 Q514,168.9375 513.7188,169.2188 Q513.4375,169.5 513,169.5 Q512.6094,169.5 512.3594,169.3281 Q512.1094,169.1563 512,168.7031 Q511.9531,168.3906 511.7813,168.2188 Q511.4688,167.8906 510.9063,167.7031 Q510.3438,167.5 509.7813,167.5 Q509.0781,167.5 508.4844,167.7813 Q507.9063,168.0625 507.4531,168.6875 Q507,169.3125 507,170.1719 L507,171.0938 Q507,172.125 507.8438,172.8125 Q508.6875,173.5 510.1875,173.5 Q511.0781,173.5 511.7031,173.2969 Q512.0625,173.1875 512.4688,172.8281 Q512.7344,172.625 512.875,172.5625 Q513.0156,172.5 513.1875,172.5 Q513.5156,172.5 513.75,172.7656 Q514,173.0156 514,173.375 Q514,173.7188 513.6563,174.125 Q513.1563,174.7188 512.3594,175.0469 Q511.3125,175.5 510.0313,175.5 Q508.5313,175.5 507.3281,174.9063 Q506.3594,174.4375 505.6719,173.4219 Q505,172.4063 505,171.2031 L505,170.1094 Q505,168.8594 505.5938,167.7656 Q506.2031,166.6719 507.25,166.0938 Q508.3125,165.5 509.5,165.5 Q510.2188,165.5 510.8438,165.75 Q511.4688,166 512,166.5 Z " fill="#000000"/><text fill="#000000" font-family="sans-serif" font-size="12" lengthAdjust="spacing" textLength="27" x="524" y="174.9102">User</text><line style="stroke:#A80036;stroke-width:1.5;" x1="496" x2="553" y1="186" y2="186"/><line style="stroke:#A80036;stroke-width:1.5;" x1="496" x2="553" y1="194" y2="194"/><!--MD5=[45d42ff7800d812d5f83c7d3273eb427]
class UserRole--><rect codeLine="10" fill="#FEFECE" filter="url(#f6pkw7jh73l8l)" height="48" id="UserRole" style="stroke:#A80036;stroke-width:1.5;" width="85" x="482" y="335.5"/><ellipse cx="497" cy="351.5" fill="#ADD1B2" rx="11" ry="11" style="stroke:#A80036;stroke-width:1.0;"/><path d="M499,348 Q499.2031,347.5 499.4375,347.25 Q499.6719,347 499.9375,347 Q500.4063,347 500.7031,347.2813 Q501,347.5625 501,348.2188 L501,349.7813 Q501,350.4375 500.7188,350.7188 Q500.4375,351 500,351 Q499.6094,351 499.3594,350.8281 Q499.1094,350.6563 499,350.2031 Q498.9531,349.8906 498.7813,349.7188 Q498.4688,349.3906 497.9063,349.2031 Q497.3438,349 496.7813,349 Q496.0781,349 495.4844,349.2813 Q494.9063,349.5625 494.4531,350.1875 Q494,350.8125 494,351.6719 L494,352.5938 Q494,353.625 494.8438,354.3125 Q495.6875,355 497.1875,355 Q498.0781,355 498.7031,354.7969 Q499.0625,354.6875 499.4688,354.3281 Q499.7344,354.125 499.875,354.0625 Q500.0156,354 500.1875,354 Q500.5156,354 500.75,354.2656 Q501,354.5156 501,354.875 Q501,355.2188 500.6563,355.625 Q500.1563,356.2188 499.3594,356.5469 Q498.3125,357 497.0313,357 Q495.5313,357 494.3281,356.4063 Q493.3594,355.9375 492.6719,354.9219 Q492,353.9063 492,352.7031 L492,351.6094 Q492,350.3594 492.5938,349.2656 Q493.2031,348.1719 494.25,347.5938 Q495.3125,347 496.5,347 Q497.2188,347 497.8438,347.25 Q498.4688,347.5 499,348 Z " fill="#000000"/><text fill="#000000" font-family="sans-serif" font-size="12" lengthAdjust="spacing" textLength="53" x="511" y="356.4102">UserRole</text><line style="stroke:#A80036;stroke-width:1.5;" x1="483" x2="566" y1="367.5" y2="367.5"/><line style="stroke:#A80036;stroke-width:1.5;" x1="483" x2="566" y1="375.5" y2="375.5"/><!--MD5=[02e4b9b7573f1156f41e60aa5b4e25a4]
class Company--><rect codeLine="14" fill="#FEFECE" filter="url(#f6pkw7jh73l8l)" height="48" id="Company" style="stroke:#A80036;stroke-width:1.5;" width="85" x="193" y="496"/><ellipse cx="208" cy="512" fill="#ADD1B2" rx="11" ry="11" style="stroke:#A80036;stroke-width:1.0;"/><path d="M210,508.5 Q210.2031,508 210.4375,507.75 Q210.6719,507.5 210.9375,507.5 Q211.4063,507.5 211.7031,507.7813 Q212,508.0625 212,508.7188 L212,510.2813 Q212,510.9375 211.7188,511.2188 Q211.4375,511.5 211,511.5 Q210.6094,511.5 210.3594,511.3281 Q210.1094,511.1563 210,510.7031 Q209.9531,510.3906 209.7813,510.2188 Q209.4688,509.8906 208.9063,509.7031 Q208.3438,509.5 207.7813,509.5 Q207.0781,509.5 206.4844,509.7813 Q205.9063,510.0625 205.4531,510.6875 Q205,511.3125 205,512.1719 L205,513.0938 Q205,514.125 205.8438,514.8125 Q206.6875,515.5 208.1875,515.5 Q209.0781,515.5 209.7031,515.2969 Q210.0625,515.1875 210.4688,514.8281 Q210.7344,514.625 210.875,514.5625 Q211.0156,514.5 211.1875,514.5 Q211.5156,514.5 211.75,514.7656 Q212,515.0156 212,515.375 Q212,515.7188 211.6563,516.125 Q211.1563,516.7188 210.3594,517.0469 Q209.3125,517.5 208.0313,517.5 Q206.5313,517.5 205.3281,516.9063 Q204.3594,516.4375 203.6719,515.4219 Q203,514.4063 203,513.2031 L203,512.1094 Q203,510.8594 203.5938,509.7656 Q204.2031,508.6719 205.25,508.0938 Q206.3125,507.5 207.5,507.5 Q208.2188,507.5 208.8438,507.75 Q209.4688,508 210,508.5 Z " fill="#000000"/><text fill="#000000" font-family="sans-serif" font-size="12" lengthAdjust="spacing" textLength="53" x="222" y="516.9102">Company</text><line style="stroke:#A80036;stroke-width:1.5;" x1="194" x2="277" y1="528" y2="528"/><line style="stroke:#A80036;stroke-width:1.5;" x1="194" x2="277" y1="536" y2="536"/><!--MD5=[9b29a461bff83f712e3f1fb6efd8ad65]
class GetAverageOccupancyRatePeriodUI--><rect codeLine="18" fill="#FEFECE" filter="url(#f6pkw7jh73l8l)" height="89.5078" id="GetAverageOccupancyRatePeriodUI" style="stroke:#A80036;stroke-width:1.5;" width="453" x="7" y="133"/><ellipse cx="130.75" cy="149" fill="#ADD1B2" rx="11" ry="11" style="stroke:#A80036;stroke-width:1.0;"/><path d="M132.75,145.5 Q132.9531,145 133.1875,144.75 Q133.4219,144.5 133.6875,144.5 Q134.1563,144.5 134.4531,144.7813 Q134.75,145.0625 134.75,145.7188 L134.75,147.2813 Q134.75,147.9375 134.4688,148.2188 Q134.1875,148.5 133.75,148.5 Q133.3594,148.5 133.1094,148.3281 Q132.8594,148.1563 132.75,147.7031 Q132.7031,147.3906 132.5313,147.2188 Q132.2188,146.8906 131.6563,146.7031 Q131.0938,146.5 130.5313,146.5 Q129.8281,146.5 129.2344,146.7813 Q128.6563,147.0625 128.2031,147.6875 Q127.75,148.3125 127.75,149.1719 L127.75,150.0938 Q127.75,151.125 128.5938,151.8125 Q129.4375,152.5 130.9375,152.5 Q131.8281,152.5 132.4531,152.2969 Q132.8125,152.1875 133.2188,151.8281 Q133.4844,151.625 133.625,151.5625 Q133.7656,151.5 133.9375,151.5 Q134.2656,151.5 134.5,151.7656 Q134.75,152.0156 134.75,152.375 Q134.75,152.7188 134.4063,153.125 Q133.9063,153.7188 133.1094,154.0469 Q132.0625,154.5 130.7813,154.5 Q129.2813,154.5 128.0781,153.9063 Q127.1094,153.4375 126.4219,152.4219 Q125.75,151.4063 125.75,150.2031 L125.75,149.1094 Q125.75,147.8594 126.3438,146.7656 Q126.9531,145.6719 128,145.0938 Q129.0625,144.5 130.25,144.5 Q130.9688,144.5 131.5938,144.75 Q132.2188,145 132.75,145.5 Z " fill="#000000"/><text fill="#000000" font-family="sans-serif" font-size="12" lengthAdjust="spacing" textLength="197" x="151.25" y="153.9102">GetAverageOccupancyRatePeriodUI</text><line style="stroke:#A80036;stroke-width:1.5;" x1="8" x2="459" y1="165" y2="165"/><rect fill="none" height="6" style="stroke:#C82930;stroke-width:1.0;" width="6" x="15" y="173"/><text fill="#000000" font-family="sans-serif" font-size="11" lengthAdjust="spacing" textLength="427" x="27" y="180.4189">GetAverageOccupancyRatePeriodController getAverageOccupancyRatePeriodController</text><line style="stroke:#A80036;stroke-width:1.5;" x1="8" x2="459" y1="186.8359" y2="186.8359"/><ellipse cx="18" cy="197.8359" fill="#84BE84" rx="3" ry="3" style="stroke:#038048;stroke-width:1.0;"/><text fill="#000000" font-family="sans-serif" font-size="11" lengthAdjust="spacing" textLength="184" x="27" y="202.2549">GetAverageOccupancyRatePeriodUI()</text><ellipse cx="18" cy="211.6719" fill="#84BE84" rx="3" ry="3" style="stroke:#038048;stroke-width:1.0;"/><text fill="#000000" font-family="sans-serif" font-size="11" lengthAdjust="spacing" textLength="24" x="27" y="216.0908">run()</text><!--MD5=[6dc582bc20cf00826bbe0056c1de5894]
class GetAverageOccupancyRatePeriodController--><rect codeLine="24" fill="#FEFECE" filter="url(#f6pkw7jh73l8l)" height="117.1797" id="GetAverageOccupancyRatePeriodController" style="stroke:#A80036;stroke-width:1.5;" width="339" x="66" y="301"/><ellipse cx="111.75" cy="317" fill="#ADD1B2" rx="11" ry="11" style="stroke:#A80036;stroke-width:1.0;"/><path d="M113.75,313.5 Q113.9531,313 114.1875,312.75 Q114.4219,312.5 114.6875,312.5 Q115.1563,312.5 115.4531,312.7813 Q115.75,313.0625 115.75,313.7188 L115.75,315.2813 Q115.75,315.9375 115.4688,316.2188 Q115.1875,316.5 114.75,316.5 Q114.3594,316.5 114.1094,316.3281 Q113.8594,316.1563 113.75,315.7031 Q113.7031,315.3906 113.5313,315.2188 Q113.2188,314.8906 112.6563,314.7031 Q112.0938,314.5 111.5313,314.5 Q110.8281,314.5 110.2344,314.7813 Q109.6563,315.0625 109.2031,315.6875 Q108.75,316.3125 108.75,317.1719 L108.75,318.0938 Q108.75,319.125 109.5938,319.8125 Q110.4375,320.5 111.9375,320.5 Q112.8281,320.5 113.4531,320.2969 Q113.8125,320.1875 114.2188,319.8281 Q114.4844,319.625 114.625,319.5625 Q114.7656,319.5 114.9375,319.5 Q115.2656,319.5 115.5,319.7656 Q115.75,320.0156 115.75,320.375 Q115.75,320.7188 115.4063,321.125 Q114.9063,321.7188 114.1094,322.0469 Q113.0625,322.5 111.7813,322.5 Q110.2813,322.5 109.0781,321.9063 Q108.1094,321.4375 107.4219,320.4219 Q106.75,319.4063 106.75,318.2031 L106.75,317.1094 Q106.75,315.8594 107.3438,314.7656 Q107.9531,313.6719 109,313.0938 Q110.0625,312.5 111.25,312.5 Q111.9688,312.5 112.5938,312.75 Q113.2188,313 113.75,313.5 Z " fill="#000000"/><text fill="#000000" font-family="sans-serif" font-size="12" lengthAdjust="spacing" textLength="239" x="132.25" y="321.9102">GetAverageOccupancyRatePeriodController</text><line style="stroke:#A80036;stroke-width:1.5;" x1="67" x2="404" y1="333" y2="333"/><rect fill="none" height="6" style="stroke:#C82930;stroke-width:1.0;" width="6" x="74" y="341"/><text fill="#000000" font-family="sans-serif" font-size="11" lengthAdjust="spacing" textLength="92" x="86" y="348.4189">Company company</text><line style="stroke:#A80036;stroke-width:1.5;" x1="67" x2="404" y1="354.8359" y2="354.8359"/><ellipse cx="77" cy="365.8359" fill="#84BE84" rx="3" ry="3" style="stroke:#038048;stroke-width:1.0;"/><text fill="#000000" font-family="sans-serif" font-size="11" lengthAdjust="spacing" textLength="221" x="86" y="370.2549">GetAverageOccupancyRatePeriodController()</text><ellipse cx="77" cy="379.6719" fill="#84BE84" rx="3" ry="3" style="stroke:#038048;stroke-width:1.0;"/><text fill="#000000" font-family="sans-serif" font-size="11" lengthAdjust="spacing" textLength="313" x="86" y="384.0908">GetAverageOccupancyRatePeriodController(Company company)</text><ellipse cx="77" cy="393.5078" fill="#84BE84" rx="3" ry="3" style="stroke:#038048;stroke-width:1.0;"/><text fill="#000000" font-family="sans-serif" font-size="11" lengthAdjust="spacing" textLength="219" x="86" y="397.9268">getAverageOccupancyRatePeriodController()</text><ellipse cx="77" cy="407.3438" fill="#84BE84" rx="3" ry="3" style="stroke:#038048;stroke-width:1.0;"/><text fill="#000000" font-family="sans-serif" font-size="11" lengthAdjust="spacing" textLength="68" x="86" y="411.7627">getCompany()</text><!--MD5=[837d3612090b426002fd1342fcbe6b88]
class DataBase--><rect fill="#FEFECE" filter="url(#f6pkw7jh73l8l)" height="48" id="DataBase" style="stroke:#A80036;stroke-width:1.5;" width="87" x="192" y="622"/><ellipse cx="207" cy="638" fill="#ADD1B2" rx="11" ry="11" style="stroke:#A80036;stroke-width:1.0;"/><path d="M209,634.5 Q209.2031,634 209.4375,633.75 Q209.6719,633.5 209.9375,633.5 Q210.4063,633.5 210.7031,633.7813 Q211,634.0625 211,634.7188 L211,636.2813 Q211,636.9375 210.7188,637.2188 Q210.4375,637.5 210,637.5 Q209.6094,637.5 209.3594,637.3281 Q209.1094,637.1563 209,636.7031 Q208.9531,636.3906 208.7813,636.2188 Q208.4688,635.8906 207.9063,635.7031 Q207.3438,635.5 206.7813,635.5 Q206.0781,635.5 205.4844,635.7813 Q204.9063,636.0625 204.4531,636.6875 Q204,637.3125 204,638.1719 L204,639.0938 Q204,640.125 204.8438,640.8125 Q205.6875,641.5 207.1875,641.5 Q208.0781,641.5 208.7031,641.2969 Q209.0625,641.1875 209.4688,640.8281 Q209.7344,640.625 209.875,640.5625 Q210.0156,640.5 210.1875,640.5 Q210.5156,640.5 210.75,640.7656 Q211,641.0156 211,641.375 Q211,641.7188 210.6563,642.125 Q210.1563,642.7188 209.3594,643.0469 Q208.3125,643.5 207.0313,643.5 Q205.5313,643.5 204.3281,642.9063 Q203.3594,642.4375 202.6719,641.4219 Q202,640.4063 202,639.2031 L202,638.1094 Q202,636.8594 202.5938,635.7656 Q203.2031,634.6719 204.25,634.0938 Q205.3125,633.5 206.5,633.5 Q207.2188,633.5 207.8438,633.75 Q208.4688,634 209,634.5 Z " fill="#000000"/><text fill="#000000" font-family="sans-serif" font-size="12" lengthAdjust="spacing" textLength="55" x="221" y="642.9102">DataBase</text><line style="stroke:#A80036;stroke-width:1.5;" x1="193" x2="278" y1="654" y2="654"/><line style="stroke:#A80036;stroke-width:1.5;" x1="193" x2="278" y1="662" y2="662"/><!--MD5=[89614c390fe446157c57b2a1bfe3d852]
link FleetManager to GetAverageOccupancyRatePeriodUI--><path codeLine="32" d="M355.2,55.3 C335.29,75.21 306,104.5 281.14,129.36 " fill="none" id="FleetManager-to-GetAverageOccupancyRatePeriodUI" style="stroke:#A80036;stroke-width:1.0;"/><polygon fill="#A80036" points="277.5,133,286.6924,129.4645,281.0355,129.4645,281.0355,123.8076,277.5,133" style="stroke:#A80036;stroke-width:1.0;"/><text fill="#000000" font-family="sans-serif" font-size="13" lengthAdjust="spacing" textLength="44" x="323.5" y="99.4951">Access</text><!--MD5=[74add054952d7cd32379dd623ebd5b9b]
link GetAverageOccupancyRatePeriodUI to GetAverageOccupancyRatePeriodController--><path codeLine="33" d="M199.19,223.08 C191.46,237.85 186.56,254.72 190.5,271 C192.5,279.25 195.41,287.59 198.82,295.68 " fill="none" id="GetAverageOccupancyRatePeriodUI-to-GetAverageOccupancyRatePeriodController" style="stroke:#A80036;stroke-width:1.0;"/><polygon fill="#A80036" points="201,300.68,201.0573,290.8313,198.9959,296.0992,193.728,294.0379,201,300.68" style="stroke:#A80036;stroke-width:1.0;"/><text fill="#000000" font-family="sans-serif" font-size="13" lengthAdjust="spacing" textLength="82" x="191.5" y="267.4951">Connects with</text><!--MD5=[1047ea5fb88e24d850070896cf92eaae]
reverse link GetAverageOccupancyRatePeriodUI to GetAverageOccupancyRatePeriodController--><path codeLine="36" d="M268.17,227.82 C272.42,235.9 276.1,244.45 278.5,253 C282.93,268.81 279.97,285.46 273.94,300.74 " fill="none" id="GetAverageOccupancyRatePeriodUI-backto-GetAverageOccupancyRatePeriodController" style="stroke:#A80036;stroke-width:1.0;"/><polygon fill="#A80036" points="265.75,223.38,266.5481,233.1965,268.1443,227.7695,273.5713,229.3657,265.75,223.38" style="stroke:#A80036;stroke-width:1.0;"/><text fill="#000000" font-family="sans-serif" font-size="13" lengthAdjust="spacing" textLength="69" x="282.5" y="267.4951">Returns Info</text><!--MD5=[02b4be5268fe12dde2ec161c58bf6185]
link FleetManager to User--><path codeLine="34" d="M401.96,55.3 C428.03,81.19 470.07,122.95 497.5,150.18 " fill="none" id="FleetManager-to-User" style="stroke:#A80036;stroke-width:1.0;"/><polygon fill="#A80036" points="501.1,153.76,497.5459,144.5748,497.5573,150.2316,491.9005,150.243,501.1,153.76" style="stroke:#A80036;stroke-width:1.0;"/><text fill="#000000" font-family="sans-serif" font-size="13" lengthAdjust="spacing" textLength="21" x="447.5" y="99.4951">is a</text><!--MD5=[1f12d177c84922ed4f166f09ee62ceaa]
link User to UserRole--><path codeLine="35" d="M524.5,202.1 C524.5,234.95 524.5,295.09 524.5,330.46 " fill="none" id="User-to-UserRole" style="stroke:#A80036;stroke-width:1.0;"/><polygon fill="#A80036" points="524.5,335.49,528.5,326.49,524.5,330.49,520.5,326.49,524.5,335.49" style="stroke:#A80036;stroke-width:1.0;"/><text fill="#000000" font-family="sans-serif" font-size="13" lengthAdjust="spacing" textLength="21" x="525.5" y="267.4951">has</text><!--MD5=[9bb5d5bcecadf32e2e950b9d1d7d01e4]
link GetAverageOccupancyRatePeriodController to Company--><path codeLine="37" d="M184.87,418.35 C178.99,427.74 173.89,437.76 170.5,448 C164.79,465.26 175.67,480.67 190.07,492.69 " fill="none" id="GetAverageOccupancyRatePeriodController-to-Company" style="stroke:#A80036;stroke-width:1.0;"/><polygon fill="#A80036" points="194.21,495.98,189.6576,487.2464,190.2973,492.867,184.6767,493.5067,194.21,495.98" style="stroke:#A80036;stroke-width:1.0;"/><text fill="#000000" font-family="sans-serif" font-size="13" lengthAdjust="spacing" textLength="82" x="171.5" y="462.4951">Connects with</text><!--MD5=[9096472be34aaecfdfac0fc91bc65650]
link Company to GetAverageOccupancyRatePeriodController--><path codeLine="38" d="M247.95,495.94 C252.19,486.88 256.38,476.21 258.5,466 C261.37,452.19 260.56,437.38 257.99,423.35 " fill="none" id="Company-to-GetAverageOccupancyRatePeriodController" style="stroke:#A80036;stroke-width:1.0;"/><polygon fill="#A80036" points="256.97,418.22,254.8181,427.8309,257.9533,423.1224,262.6619,426.2576,256.97,418.22" style="stroke:#A80036;stroke-width:1.0;"/><text fill="#000000" font-family="sans-serif" font-size="13" lengthAdjust="spacing" textLength="69" x="261.5" y="462.4951">Returns Info</text><!--MD5=[28fa5ca211853e28b35503d2b875b2be]
link Company to DataBase--><path codeLine="39" d="M235.5,544.03 C235.5,564.52 235.5,594.56 235.5,616.55 " fill="none" id="Company-to-DataBase" style="stroke:#A80036;stroke-width:1.0;"/><polygon fill="#A80036" points="235.5,621.67,239.5,612.67,235.5,616.67,231.5,612.67,235.5,621.67" style="stroke:#A80036;stroke-width:1.0;"/><text fill="#000000" font-family="sans-serif" font-size="13" lengthAdjust="spacing" textLength="55" x="236.5" y="588.4951">Connects</text><!--MD5=[e9d86aed57350743c99090398a6bf4ef]
@startuml

class FleetManager{

}

class User{

}

class UserRole{

}

class Company{

}

class GetAverageOccupancyRatePeriodUI{
    -GetAverageOccupancyRatePeriodController getAverageOccupancyRatePeriodController
    +GetAverageOccupancyRatePeriodUI()
    +run()
}

class GetAverageOccupancyRatePeriodController{
    -Company company
    +GetAverageOccupancyRatePeriodController()
    +GetAverageOccupancyRatePeriodController(Company company)
    +getAverageOccupancyRatePeriodController()
    +getCompany()
}

FleetManager - -> GetAverageOccupancyRatePeriodUI : Access
GetAverageOccupancyRatePeriodUI -down-> GetAverageOccupancyRatePeriodController : Connects with
FleetManager - -> User : is a
User - -> UserRole : has
GetAverageOccupancyRatePeriodController -up-> GetAverageOccupancyRatePeriodUI : Returns Info
GetAverageOccupancyRatePeriodController - -> Company : Connects with
Company - -> GetAverageOccupancyRatePeriodController : Returns Info
Company - -> DataBase : Connects

@enduml

PlantUML version 1.2021.11(Sat Oct 02 14:26:11 BST 2021)
(GPL source distribution)
Java Runtime: OpenJDK Runtime Environment
JVM: OpenJDK 64-Bit Server VM
Default Encoding: Cp1252
Language: pt
Country: PT
--></g></svg>