<?xml version="1.0" encoding="UTF-8" standalone="no"?><svg xmlns="http://www.w3.org/2000/svg" xmlns:xlink="http://www.w3.org/1999/xlink" contentScriptType="application/ecmascript" contentStyleType="text/css" height="541px" preserveAspectRatio="none" style="width:1397px;height:541px;background:#FFFFFF;" version="1.1" viewBox="0 0 1397 541" width="1397px" zoomAndPan="magnify"><defs><filter height="300%" id="f1hn9hw33ep8qm" width="300%" x="-1" y="-1"><feGaussianBlur result="blurOut" stdDeviation="2.0"/><feColorMatrix in="blurOut" result="blurOut2" type="matrix" values="0 0 0 0 0 0 0 0 0 0 0 0 0 0 0 0 0 0 .4 0"/><feOffset dx="4.0" dy="4.0" in="blurOut2" result="blurOut3"/><feBlend in="SourceGraphic" in2="blurOut3" mode="normal"/></filter></defs><g><line style="stroke:#A80036;stroke-width:1.0;stroke-dasharray:5.0,5.0;" x1="52" x2="52" y1="89.6094" y2="456.3828"/><line style="stroke:#A80036;stroke-width:1.0;stroke-dasharray:5.0,5.0;" x1="279" x2="279" y1="89.6094" y2="456.3828"/><line style="stroke:#A80036;stroke-width:1.0;stroke-dasharray:5.0,5.0;" x1="620" x2="620" y1="89.6094" y2="456.3828"/><line style="stroke:#A80036;stroke-width:1.0;stroke-dasharray:5.0,5.0;" x1="813" x2="813" y1="89.6094" y2="456.3828"/><line style="stroke:#A80036;stroke-width:1.0;stroke-dasharray:5.0,5.0;" x1="1096" x2="1096" y1="89.6094" y2="456.3828"/><line style="stroke:#A80036;stroke-width:1.0;stroke-dasharray:5.0,5.0;" x1="1362" x2="1362" y1="328.5234" y2="456.3828"/><text fill="#000000" font-family="sans-serif" font-size="14" lengthAdjust="spacing" textLength="88" x="5" y="86.5332">FleetManager</text><ellipse cx="52" cy="15" fill="#FF0000" filter="url(#f1hn9hw33ep8qm)" rx="8" ry="8" style="stroke:#A80036;stroke-width:2.0;"/><path d="M52,23 L52,50 M39,31 L65,31 M52,50 L39,65 M52,50 L65,65 " fill="none" filter="url(#f1hn9hw33ep8qm)" style="stroke:#A80036;stroke-width:2.0;"/><text fill="#000000" font-family="sans-serif" font-size="14" lengthAdjust="spacing" textLength="88" x="5" y="469.916">FleetManager</text><ellipse cx="52" cy="482.9922" fill="#FF0000" filter="url(#f1hn9hw33ep8qm)" rx="8" ry="8" style="stroke:#A80036;stroke-width:2.0;"/><path d="M52,490.9922 L52,517.9922 M39,498.9922 L65,498.9922 M52,517.9922 L39,532.9922 M52,517.9922 L65,532.9922 " fill="none" filter="url(#f1hn9hw33ep8qm)" style="stroke:#A80036;stroke-width:2.0;"/><rect fill="#FEFECE" filter="url(#f1hn9hw33ep8qm)" height="31.6094" style="stroke:#A80036;stroke-width:1.5;" width="60" x="247" y="53"/><text fill="#000000" font-family="sans-serif" font-size="14" lengthAdjust="spacing" textLength="46" x="254" y="74.5332">System</text><rect fill="#FEFECE" filter="url(#f1hn9hw33ep8qm)" height="31.6094" style="stroke:#A80036;stroke-width:1.5;" width="60" x="247" y="455.3828"/><text fill="#000000" font-family="sans-serif" font-size="14" lengthAdjust="spacing" textLength="46" x="254" y="476.916">System</text><rect fill="#FEFECE" filter="url(#f1hn9hw33ep8qm)" height="31.6094" style="stroke:#A80036;stroke-width:1.5;" width="114" x="561" y="53"/><text fill="#000000" font-family="sans-serif" font-size="14" lengthAdjust="spacing" textLength="100" x="568" y="74.5332">FleetManagerUI</text><rect fill="#FEFECE" filter="url(#f1hn9hw33ep8qm)" height="31.6094" style="stroke:#A80036;stroke-width:1.5;" width="114" x="561" y="455.3828"/><text fill="#000000" font-family="sans-serif" font-size="14" lengthAdjust="spacing" textLength="100" x="568" y="476.916">FleetManagerUI</text><rect fill="#FEFECE" filter="url(#f1hn9hw33ep8qm)" height="31.6094" style="stroke:#A80036;stroke-width:1.5;" width="244" x="689" y="53"/><text fill="#000000" font-family="sans-serif" font-size="14" lengthAdjust="spacing" textLength="230" x="696" y="74.5332">GetAverageOccupancyRatePeriodUI</text><rect fill="#FEFECE" filter="url(#f1hn9hw33ep8qm)" height="31.6094" style="stroke:#A80036;stroke-width:1.5;" width="244" x="689" y="455.3828"/><text fill="#000000" font-family="sans-serif" font-size="14" lengthAdjust="spacing" textLength="230" x="696" y="476.916">GetAverageOccupancyRatePeriodUI</text><rect fill="#FEFECE" filter="url(#f1hn9hw33ep8qm)" height="31.6094" style="stroke:#A80036;stroke-width:1.5;" width="294" x="947" y="53"/><text fill="#000000" font-family="sans-serif" font-size="14" lengthAdjust="spacing" textLength="280" x="954" y="74.5332">GetAverageOccupancyRatePeriodController</text><rect fill="#FEFECE" filter="url(#f1hn9hw33ep8qm)" height="31.6094" style="stroke:#A80036;stroke-width:1.5;" width="294" x="947" y="455.3828"/><text fill="#000000" font-family="sans-serif" font-size="14" lengthAdjust="spacing" textLength="280" x="954" y="476.916">GetAverageOccupancyRatePeriodController</text><text fill="#000000" font-family="sans-serif" font-size="14" lengthAdjust="spacing" textLength="62" x="1328" y="469.916">DataBase</text><path d="M1344,482.9922 C1344,472.9922 1362,472.9922 1362,472.9922 C1362,472.9922 1380,472.9922 1380,482.9922 L1380,508.9922 C1380,518.9922 1362,518.9922 1362,518.9922 C1362,518.9922 1344,518.9922 1344,508.9922 L1344,482.9922 " fill="#FEFECE" filter="url(#f1hn9hw33ep8qm)" style="stroke:#000000;stroke-width:1.5;"/><path d="M1344,482.9922 C1344,492.9922 1362,492.9922 1362,492.9922 C1362,492.9922 1380,492.9922 1380,482.9922 " fill="none" style="stroke:#000000;stroke-width:1.5;"/><polygon fill="#A80036" points="63,117.9609,53,121.9609,63,125.9609,59,121.9609" style="stroke:#A80036;stroke-width:1.0;"/><line style="stroke:#A80036;stroke-width:1.0;stroke-dasharray:2.0,2.0;" x1="57" x2="278" y1="121.9609" y2="121.9609"/><text fill="#000000" font-family="sans-serif" font-size="13" font-weight="bold" lengthAdjust="spacing" textLength="7" x="69" y="117.1045">1</text><text fill="#000000" font-family="sans-serif" font-size="13" lengthAdjust="spacing" textLength="135" x="80" y="117.1045">Authentication Request</text><polygon fill="#A80036" points="267,148.3125,277,152.3125,267,156.3125,271,152.3125" style="stroke:#A80036;stroke-width:1.0;"/><line style="stroke:#A80036;stroke-width:1.0;" x1="52" x2="273" y1="152.3125" y2="152.3125"/><text fill="#000000" font-family="sans-serif" font-size="13" font-weight="bold" lengthAdjust="spacing" textLength="7" x="59" y="147.4561">2</text><text fill="#000000" font-family="sans-serif" font-size="13" lengthAdjust="spacing" textLength="192" x="70" y="147.4561">Another authentication Response</text><polygon fill="#A80036" points="63,178.6641,53,182.6641,63,186.6641,59,182.6641" style="stroke:#A80036;stroke-width:1.0;"/><line style="stroke:#A80036;stroke-width:1.0;stroke-dasharray:2.0,2.0;" x1="57" x2="278" y1="182.6641" y2="182.6641"/><text fill="#000000" font-family="sans-serif" font-size="13" font-weight="bold" lengthAdjust="spacing" textLength="7" x="69" y="177.8076">3</text><text fill="#000000" font-family="sans-serif" font-size="13" lengthAdjust="spacing" textLength="149" x="80" y="177.8076">Authentication successful</text><polygon fill="#A80036" points="608,209.0156,618,213.0156,608,217.0156,612,213.0156" style="stroke:#A80036;stroke-width:1.0;"/><line style="stroke:#A80036;stroke-width:1.0;stroke-dasharray:2.0,2.0;" x1="52" x2="614" y1="213.0156" y2="213.0156"/><text fill="#000000" font-family="sans-serif" font-size="13" font-weight="bold" lengthAdjust="spacing" textLength="7" x="59" y="208.1592">4</text><text fill="#000000" font-family="sans-serif" font-size="13" lengthAdjust="spacing" textLength="533" x="70" y="208.1592">I want to know the average occupancy rate per manifest of a given ship during a given period.</text><polygon fill="#A80036" points="801,239.3672,811,243.3672,801,247.3672,805,243.3672" style="stroke:#A80036;stroke-width:1.0;"/><line style="stroke:#A80036;stroke-width:1.0;stroke-dasharray:2.0,2.0;" x1="620" x2="807" y1="243.3672" y2="243.3672"/><text fill="#000000" font-family="sans-serif" font-size="13" font-weight="bold" lengthAdjust="spacing" textLength="7" x="627" y="238.5107">5</text><text fill="#000000" font-family="sans-serif" font-size="13" lengthAdjust="spacing" textLength="55" x="638" y="238.5107">Connects</text><polygon fill="#A80036" points="1084,269.7188,1094,273.7188,1084,277.7188,1088,273.7188" style="stroke:#A80036;stroke-width:1.0;"/><line style="stroke:#A80036;stroke-width:1.0;stroke-dasharray:2.0,2.0;" x1="813" x2="1090" y1="273.7188" y2="273.7188"/><text fill="#000000" font-family="sans-serif" font-size="13" font-weight="bold" lengthAdjust="spacing" textLength="7" x="820" y="268.8623">6</text><text fill="#000000" font-family="sans-serif" font-size="13" lengthAdjust="spacing" textLength="92" x="831" y="268.8623">asks for the info</text><polygon fill="#A80036" points="1316,300.0703,1326,304.0703,1316,308.0703,1320,304.0703" style="stroke:#A80036;stroke-width:1.0;"/><line style="stroke:#A80036;stroke-width:1.0;stroke-dasharray:2.0,2.0;" x1="1096" x2="1322" y1="304.0703" y2="304.0703"/><text fill="#000000" font-family="sans-serif" font-size="13" font-weight="bold" lengthAdjust="spacing" textLength="7" x="1103" y="299.2139">7</text><text fill="#000000" font-family="sans-serif" font-size="13" lengthAdjust="spacing" textLength="197" x="1114" y="299.2139">getShipIdleDaysOfYearController()</text><text fill="#000000" font-family="sans-serif" font-size="14" lengthAdjust="spacing" textLength="62" x="1328" y="342.252">DataBase</text><path d="M1344,291.7188 C1344,281.7188 1362,281.7188 1362,281.7188 C1362,281.7188 1380,281.7188 1380,291.7188 L1380,317.7188 C1380,327.7188 1362,327.7188 1362,327.7188 C1362,327.7188 1344,327.7188 1344,317.7188 L1344,291.7188 " fill="#FEFECE" filter="url(#f1hn9hw33ep8qm)" style="stroke:#000000;stroke-width:1.5;"/><path d="M1344,291.7188 C1344,301.7188 1362,301.7188 1362,301.7188 C1362,301.7188 1380,301.7188 1380,291.7188 " fill="none" style="stroke:#000000;stroke-width:1.5;"/><polygon fill="#A80036" points="1107,373.6797,1097,377.6797,1107,381.6797,1103,377.6797" style="stroke:#A80036;stroke-width:1.0;"/><line style="stroke:#A80036;stroke-width:1.0;stroke-dasharray:2.0,2.0;" x1="1101" x2="1361" y1="377.6797" y2="377.6797"/><text fill="#000000" font-family="sans-serif" font-size="13" font-weight="bold" lengthAdjust="spacing" textLength="7" x="1113" y="372.8232">8</text><text fill="#000000" font-family="sans-serif" font-size="13" lengthAdjust="spacing" textLength="38" x="1124" y="372.8232">double</text><polygon fill="#A80036" points="824,404.0313,814,408.0313,824,412.0313,820,408.0313" style="stroke:#A80036;stroke-width:1.0;"/><line style="stroke:#A80036;stroke-width:1.0;stroke-dasharray:2.0,2.0;" x1="818" x2="1095" y1="408.0313" y2="408.0313"/><text fill="#000000" font-family="sans-serif" font-size="13" font-weight="bold" lengthAdjust="spacing" textLength="7" x="830" y="403.1748">9</text><text fill="#000000" font-family="sans-serif" font-size="13" lengthAdjust="spacing" textLength="38" x="841" y="403.1748">double</text><polygon fill="#A80036" points="63,434.3828,53,438.3828,63,442.3828,59,438.3828" style="stroke:#A80036;stroke-width:1.0;"/><line style="stroke:#A80036;stroke-width:1.0;stroke-dasharray:2.0,2.0;" x1="57" x2="812" y1="438.3828" y2="438.3828"/><text fill="#000000" font-family="sans-serif" font-size="13" font-weight="bold" lengthAdjust="spacing" textLength="14" x="69" y="433.5264">10</text><text fill="#000000" font-family="sans-serif" font-size="13" lengthAdjust="spacing" textLength="173" x="87" y="433.5264">Delivers the information asked</text><!--MD5=[f9af62f40af715729917389478166d2a]
@startuml

autonumber

actor FleetManager #red

System - -> FleetManager: Authentication Request
FleetManager -> System : Another authentication Response
System - -> FleetManager : Authentication successful
FleetManager - -> FleetManagerUI : I want to know the average occupancy rate per manifest of a given ship during a given period.
FleetManagerUI - -> GetAverageOccupancyRatePeriodUI : Connects
GetAverageOccupancyRatePeriodUI - -> GetAverageOccupancyRatePeriodController : asks for the info
database       "DataBase"              as db
GetAverageOccupancyRatePeriodController - -> db** : getShipIdleDaysOfYearController()
db - -> GetAverageOccupancyRatePeriodController : double
GetAverageOccupancyRatePeriodController - -> GetAverageOccupancyRatePeriodUI : double
GetAverageOccupancyRatePeriodUI - -> FleetManager : Delivers the information asked

@enduml

PlantUML version 1.2021.11(Sat Oct 02 14:26:11 BST 2021)
(GPL source distribution)
Java Runtime: OpenJDK Runtime Environment
JVM: OpenJDK 64-Bit Server VM
Default Encoding: Cp1252
Language: pt
Country: PT
--></g></svg>