<?xml version="1.0" encoding="UTF-8" standalone="no"?><svg xmlns="http://www.w3.org/2000/svg" xmlns:xlink="http://www.w3.org/1999/xlink" contentScriptType="application/ecmascript" contentStyleType="text/css" height="778px" preserveAspectRatio="none" style="width:1009px;height:778px;background:#FFFFFF;" version="1.1" viewBox="0 0 1009 778" width="1009px" zoomAndPan="magnify"><defs><filter height="300%" id="fd2znztdi3hpu" width="300%" x="-1" y="-1"><feGaussianBlur result="blurOut" stdDeviation="2.0"/><feColorMatrix in="blurOut" result="blurOut2" type="matrix" values="0 0 0 0 0 0 0 0 0 0 0 0 0 0 0 0 0 0 .4 0"/><feOffset dx="4.0" dy="4.0" in="blurOut2" result="blurOut3"/><feBlend in="SourceGraphic" in2="blurOut3" mode="normal"/></filter></defs><g><!--MD5=[e6b394b930674b2255938b8afe6bb7b4]
class ShipCaptain--><rect codeLine="2" fill="#FEFECE" filter="url(#fd2znztdi3hpu)" height="48" id="ShipCaptain" style="stroke:#A80036;stroke-width:1.5;" width="100" x="511.5" y="7"/><ellipse cx="526.5" cy="23" fill="#ADD1B2" rx="11" ry="11" style="stroke:#A80036;stroke-width:1.0;"/><path d="M528.5,19.5 Q528.7031,19 528.9375,18.75 Q529.1719,18.5 529.4375,18.5 Q529.9063,18.5 530.2031,18.7813 Q530.5,19.0625 530.5,19.7188 L530.5,21.2813 Q530.5,21.9375 530.2188,22.2188 Q529.9375,22.5 529.5,22.5 Q529.1094,22.5 528.8594,22.3281 Q528.6094,22.1563 528.5,21.7031 Q528.4531,21.3906 528.2813,21.2188 Q527.9688,20.8906 527.4063,20.7031 Q526.8438,20.5 526.2813,20.5 Q525.5781,20.5 524.9844,20.7813 Q524.4063,21.0625 523.9531,21.6875 Q523.5,22.3125 523.5,23.1719 L523.5,24.0938 Q523.5,25.125 524.3438,25.8125 Q525.1875,26.5 526.6875,26.5 Q527.5781,26.5 528.2031,26.2969 Q528.5625,26.1875 528.9688,25.8281 Q529.2344,25.625 529.375,25.5625 Q529.5156,25.5 529.6875,25.5 Q530.0156,25.5 530.25,25.7656 Q530.5,26.0156 530.5,26.375 Q530.5,26.7188 530.1563,27.125 Q529.6563,27.7188 528.8594,28.0469 Q527.8125,28.5 526.5313,28.5 Q525.0313,28.5 523.8281,27.9063 Q522.8594,27.4375 522.1719,26.4219 Q521.5,25.4063 521.5,24.2031 L521.5,23.1094 Q521.5,21.8594 522.0938,20.7656 Q522.7031,19.6719 523.75,19.0938 Q524.8125,18.5 526,18.5 Q526.7188,18.5 527.3438,18.75 Q527.9688,19 528.5,19.5 Z " fill="#000000"/><text fill="#000000" font-family="sans-serif" font-size="12" lengthAdjust="spacing" textLength="68" x="540.5" y="27.9102">ShipCaptain</text><line style="stroke:#A80036;stroke-width:1.5;" x1="512.5" x2="610.5" y1="39" y2="39"/><line style="stroke:#A80036;stroke-width:1.5;" x1="512.5" x2="610.5" y1="47" y2="47"/><!--MD5=[3fd616f346a44cd59a91eb10b19e157c]
class User--><rect codeLine="6" fill="#FEFECE" filter="url(#fd2znztdi3hpu)" height="89.5078" id="User" style="stroke:#A80036;stroke-width:1.5;" width="107" x="887" y="146.5"/><ellipse cx="923.6" cy="162.5" fill="#ADD1B2" rx="11" ry="11" style="stroke:#A80036;stroke-width:1.0;"/><path d="M925.6,159 Q925.8031,158.5 926.0375,158.25 Q926.2719,158 926.5375,158 Q927.0063,158 927.3031,158.2813 Q927.6,158.5625 927.6,159.2188 L927.6,160.7813 Q927.6,161.4375 927.3188,161.7188 Q927.0375,162 926.6,162 Q926.2094,162 925.9594,161.8281 Q925.7094,161.6563 925.6,161.2031 Q925.5531,160.8906 925.3813,160.7188 Q925.0688,160.3906 924.5063,160.2031 Q923.9438,160 923.3813,160 Q922.6781,160 922.0844,160.2813 Q921.5063,160.5625 921.0531,161.1875 Q920.6,161.8125 920.6,162.6719 L920.6,163.5938 Q920.6,164.625 921.4438,165.3125 Q922.2875,166 923.7875,166 Q924.6781,166 925.3031,165.7969 Q925.6625,165.6875 926.0688,165.3281 Q926.3344,165.125 926.475,165.0625 Q926.6156,165 926.7875,165 Q927.1156,165 927.35,165.2656 Q927.6,165.5156 927.6,165.875 Q927.6,166.2188 927.2563,166.625 Q926.7563,167.2188 925.9594,167.5469 Q924.9125,168 923.6313,168 Q922.1313,168 920.9281,167.4063 Q919.9594,166.9375 919.2719,165.9219 Q918.6,164.9063 918.6,163.7031 L918.6,162.6094 Q918.6,161.3594 919.1938,160.2656 Q919.8031,159.1719 920.85,158.5938 Q921.9125,158 923.1,158 Q923.8188,158 924.4438,158.25 Q925.0688,158.5 925.6,159 Z " fill="#000000"/><text fill="#000000" font-family="sans-serif" font-size="12" lengthAdjust="spacing" textLength="27" x="942.4" y="167.4102">User</text><line style="stroke:#A80036;stroke-width:1.5;" x1="888" x2="993" y1="178.5" y2="178.5"/><rect fill="none" height="6" style="stroke:#C82930;stroke-width:1.0;" width="6" x="895" y="186.5"/><text fill="#000000" font-family="sans-serif" font-size="11" lengthAdjust="spacing" textLength="48" x="907" y="193.9189">String id &lt;</text><text fill="#000000" font-family="sans-serif" font-size="11" font-weight="bold" lengthAdjust="spacing" textLength="20" x="955" y="193.9189">PK&gt;</text><rect fill="none" height="6" style="stroke:#C82930;stroke-width:1.0;" width="6" x="895" y="200.3359"/><text fill="#000000" font-family="sans-serif" font-size="11" lengthAdjust="spacing" textLength="81" x="907" y="207.7549">String password</text><rect fill="none" height="6" style="stroke:#C82930;stroke-width:1.0;" width="6" x="895" y="214.1719"/><text fill="#000000" font-family="sans-serif" font-size="11" lengthAdjust="spacing" textLength="65" x="907" y="221.5908">UserRole role</text><line style="stroke:#A80036;stroke-width:1.5;" x1="888" x2="993" y1="228.0078" y2="228.0078"/><!--MD5=[45d42ff7800d812d5f83c7d3273eb427]
class UserRole--><rect codeLine="12" fill="#FEFECE" filter="url(#fd2znztdi3hpu)" height="75.6719" id="UserRole" style="stroke:#A80036;stroke-width:1.5;" width="110" x="885.5" y="390"/><ellipse cx="911.75" cy="406" fill="#ADD1B2" rx="11" ry="11" style="stroke:#A80036;stroke-width:1.0;"/><path d="M913.75,402.5 Q913.9531,402 914.1875,401.75 Q914.4219,401.5 914.6875,401.5 Q915.1563,401.5 915.4531,401.7813 Q915.75,402.0625 915.75,402.7188 L915.75,404.2813 Q915.75,404.9375 915.4688,405.2188 Q915.1875,405.5 914.75,405.5 Q914.3594,405.5 914.1094,405.3281 Q913.8594,405.1563 913.75,404.7031 Q913.7031,404.3906 913.5313,404.2188 Q913.2188,403.8906 912.6563,403.7031 Q912.0938,403.5 911.5313,403.5 Q910.8281,403.5 910.2344,403.7813 Q909.6563,404.0625 909.2031,404.6875 Q908.75,405.3125 908.75,406.1719 L908.75,407.0938 Q908.75,408.125 909.5938,408.8125 Q910.4375,409.5 911.9375,409.5 Q912.8281,409.5 913.4531,409.2969 Q913.8125,409.1875 914.2188,408.8281 Q914.4844,408.625 914.625,408.5625 Q914.7656,408.5 914.9375,408.5 Q915.2656,408.5 915.5,408.7656 Q915.75,409.0156 915.75,409.375 Q915.75,409.7188 915.4063,410.125 Q914.9063,410.7188 914.1094,411.0469 Q913.0625,411.5 911.7813,411.5 Q910.2813,411.5 909.0781,410.9063 Q908.1094,410.4375 907.4219,409.4219 Q906.75,408.4063 906.75,407.2031 L906.75,406.1094 Q906.75,404.8594 907.3438,403.7656 Q907.9531,402.6719 909,402.0938 Q910.0625,401.5 911.25,401.5 Q911.9688,401.5 912.5938,401.75 Q913.2188,402 913.75,402.5 Z " fill="#000000"/><text fill="#000000" font-family="sans-serif" font-size="12" lengthAdjust="spacing" textLength="53" x="928.25" y="410.9102">UserRole</text><line style="stroke:#A80036;stroke-width:1.5;" x1="886.5" x2="994.5" y1="422" y2="422"/><rect fill="none" height="6" style="stroke:#C82930;stroke-width:1.0;" width="6" x="893.5" y="430"/><text fill="#000000" font-family="sans-serif" font-size="11" lengthAdjust="spacing" textLength="48" x="905.5" y="437.4189">String id &lt;</text><text fill="#000000" font-family="sans-serif" font-size="11" font-weight="bold" lengthAdjust="spacing" textLength="20" x="953.5" y="437.4189">PK&gt;</text><rect fill="none" height="6" style="stroke:#C82930;stroke-width:1.0;" width="6" x="893.5" y="443.8359"/><text fill="#000000" font-family="sans-serif" font-size="11" lengthAdjust="spacing" textLength="84" x="905.5" y="451.2549">String description</text><line style="stroke:#A80036;stroke-width:1.5;" x1="886.5" x2="994.5" y1="457.6719" y2="457.6719"/><!--MD5=[1673ef75da7d55e0cf252096bedca4b7]
class GetShipOccupancyRateUI--><rect codeLine="17" fill="#FEFECE" filter="url(#fd2znztdi3hpu)" height="103.3438" id="GetShipOccupancyRateUI" style="stroke:#A80036;stroke-width:1.5;" width="351" x="7" y="140"/><ellipse cx="107.25" cy="156" fill="#ADD1B2" rx="11" ry="11" style="stroke:#A80036;stroke-width:1.0;"/><path d="M109.25,152.5 Q109.4531,152 109.6875,151.75 Q109.9219,151.5 110.1875,151.5 Q110.6563,151.5 110.9531,151.7813 Q111.25,152.0625 111.25,152.7188 L111.25,154.2813 Q111.25,154.9375 110.9688,155.2188 Q110.6875,155.5 110.25,155.5 Q109.8594,155.5 109.6094,155.3281 Q109.3594,155.1563 109.25,154.7031 Q109.2031,154.3906 109.0313,154.2188 Q108.7188,153.8906 108.1563,153.7031 Q107.5938,153.5 107.0313,153.5 Q106.3281,153.5 105.7344,153.7813 Q105.1563,154.0625 104.7031,154.6875 Q104.25,155.3125 104.25,156.1719 L104.25,157.0938 Q104.25,158.125 105.0938,158.8125 Q105.9375,159.5 107.4375,159.5 Q108.3281,159.5 108.9531,159.2969 Q109.3125,159.1875 109.7188,158.8281 Q109.9844,158.625 110.125,158.5625 Q110.2656,158.5 110.4375,158.5 Q110.7656,158.5 111,158.7656 Q111.25,159.0156 111.25,159.375 Q111.25,159.7188 110.9063,160.125 Q110.4063,160.7188 109.6094,161.0469 Q108.5625,161.5 107.2813,161.5 Q105.7813,161.5 104.5781,160.9063 Q103.6094,160.4375 102.9219,159.4219 Q102.25,158.4063 102.25,157.2031 L102.25,156.1094 Q102.25,154.8594 102.8438,153.7656 Q103.4531,152.6719 104.5,152.0938 Q105.5625,151.5 106.75,151.5 Q107.4688,151.5 108.0938,151.75 Q108.7188,152 109.25,152.5 Z " fill="#000000"/><text fill="#000000" font-family="sans-serif" font-size="12" lengthAdjust="spacing" textLength="142" x="127.75" y="160.9102">GetShipOccupancyRateUI</text><line style="stroke:#A80036;stroke-width:1.5;" x1="8" x2="357" y1="172" y2="172"/><rect fill="none" height="6" style="stroke:#C82930;stroke-width:1.0;" width="6" x="15" y="180"/><text fill="#000000" font-family="sans-serif" font-size="11" lengthAdjust="spacing" textLength="325" x="27" y="187.4189">GetShipOccupancyRateController getShipOccupancyRateController</text><rect fill="none" height="6" style="stroke:#C82930;stroke-width:1.0;" width="6" x="15" y="193.8359"/><text fill="#000000" font-family="sans-serif" font-size="11" lengthAdjust="spacing" textLength="52" x="27" y="201.2549">Scanner in</text><line style="stroke:#A80036;stroke-width:1.5;" x1="8" x2="357" y1="207.6719" y2="207.6719"/><ellipse cx="18" cy="218.6719" fill="#84BE84" rx="3" ry="3" style="stroke:#038048;stroke-width:1.0;"/><text fill="#000000" font-family="sans-serif" font-size="11" lengthAdjust="spacing" textLength="24" x="27" y="223.0908">run()</text><ellipse cx="18" cy="232.5078" fill="#84BE84" rx="3" ry="3" style="stroke:#038048;stroke-width:1.0;"/><text fill="#000000" font-family="sans-serif" font-size="11" lengthAdjust="spacing" textLength="96" x="27" y="236.9268">formatter(String str)</text><!--MD5=[8ec914af3953690c73f5d482a4b40226]
class GetShipOccupancyRateController--><rect codeLine="24" fill="#FEFECE" filter="url(#fd2znztdi3hpu)" height="117.1797" id="GetShipOccupancyRateController" style="stroke:#A80036;stroke-width:1.5;" width="375" x="477" y="133"/><ellipse cx="568.25" cy="149" fill="#ADD1B2" rx="11" ry="11" style="stroke:#A80036;stroke-width:1.0;"/><path d="M570.25,145.5 Q570.4531,145 570.6875,144.75 Q570.9219,144.5 571.1875,144.5 Q571.6563,144.5 571.9531,144.7813 Q572.25,145.0625 572.25,145.7188 L572.25,147.2813 Q572.25,147.9375 571.9688,148.2188 Q571.6875,148.5 571.25,148.5 Q570.8594,148.5 570.6094,148.3281 Q570.3594,148.1563 570.25,147.7031 Q570.2031,147.3906 570.0313,147.2188 Q569.7188,146.8906 569.1563,146.7031 Q568.5938,146.5 568.0313,146.5 Q567.3281,146.5 566.7344,146.7813 Q566.1563,147.0625 565.7031,147.6875 Q565.25,148.3125 565.25,149.1719 L565.25,150.0938 Q565.25,151.125 566.0938,151.8125 Q566.9375,152.5 568.4375,152.5 Q569.3281,152.5 569.9531,152.2969 Q570.3125,152.1875 570.7188,151.8281 Q570.9844,151.625 571.125,151.5625 Q571.2656,151.5 571.4375,151.5 Q571.7656,151.5 572,151.7656 Q572.25,152.0156 572.25,152.375 Q572.25,152.7188 571.9063,153.125 Q571.4063,153.7188 570.6094,154.0469 Q569.5625,154.5 568.2813,154.5 Q566.7813,154.5 565.5781,153.9063 Q564.6094,153.4375 563.9219,152.4219 Q563.25,151.4063 563.25,150.2031 L563.25,149.1094 Q563.25,147.8594 563.8438,146.7656 Q564.4531,145.6719 565.5,145.0938 Q566.5625,144.5 567.75,144.5 Q568.4688,144.5 569.0938,144.75 Q569.7188,145 570.25,145.5 Z " fill="#000000"/><text fill="#000000" font-family="sans-serif" font-size="12" lengthAdjust="spacing" textLength="184" x="588.75" y="153.9102">GetShipOccupancyRateController</text><line style="stroke:#A80036;stroke-width:1.5;" x1="478" x2="851" y1="165" y2="165"/><rect fill="none" height="6" style="stroke:#C82930;stroke-width:1.0;" width="6" x="485" y="173"/><text fill="#000000" font-family="sans-serif" font-size="11" lengthAdjust="spacing" textLength="92" x="497" y="180.4189">Company company</text><line style="stroke:#A80036;stroke-width:1.5;" x1="478" x2="851" y1="186.8359" y2="186.8359"/><ellipse cx="488" cy="197.8359" fill="#84BE84" rx="3" ry="3" style="stroke:#038048;stroke-width:1.0;"/><text fill="#000000" font-family="sans-serif" font-size="11" lengthAdjust="spacing" textLength="262" x="497" y="202.2549">GetShipOccupancyRateController(Company company)</text><ellipse cx="488" cy="211.6719" fill="#84BE84" rx="3" ry="3" style="stroke:#038048;stroke-width:1.0;"/><text fill="#000000" font-family="sans-serif" font-size="11" lengthAdjust="spacing" textLength="170" x="497" y="216.0908">GetShipOccupancyRateController()</text><ellipse cx="488" cy="225.5078" fill="#84BE84" rx="3" ry="3" style="stroke:#038048;stroke-width:1.0;"/><text fill="#000000" font-family="sans-serif" font-size="11" lengthAdjust="spacing" textLength="349" x="497" y="229.9268">getShipOccupancyRateController(int shipMMSI, LocalDateTime dateTime)</text><ellipse cx="488" cy="239.3438" fill="#84BE84" rx="3" ry="3" style="stroke:#038048;stroke-width:1.0;"/><text fill="#000000" font-family="sans-serif" font-size="11" lengthAdjust="spacing" textLength="68" x="497" y="243.7627">getCompany()</text><!--MD5=[76562047389981627aea27c31a97aff5]
class CargoManifest--><rect codeLine="33" fill="#FEFECE" filter="url(#fd2znztdi3hpu)" height="61.8359" id="CargoManifest" style="stroke:#A80036;stroke-width:1.5;" width="132" x="453.5" y="397"/><ellipse cx="477.5" cy="413" fill="#ADD1B2" rx="11" ry="11" style="stroke:#A80036;stroke-width:1.0;"/><path d="M479.5,409.5 Q479.7031,409 479.9375,408.75 Q480.1719,408.5 480.4375,408.5 Q480.9063,408.5 481.2031,408.7813 Q481.5,409.0625 481.5,409.7188 L481.5,411.2813 Q481.5,411.9375 481.2188,412.2188 Q480.9375,412.5 480.5,412.5 Q480.1094,412.5 479.8594,412.3281 Q479.6094,412.1563 479.5,411.7031 Q479.4531,411.3906 479.2813,411.2188 Q478.9688,410.8906 478.4063,410.7031 Q477.8438,410.5 477.2813,410.5 Q476.5781,410.5 475.9844,410.7813 Q475.4063,411.0625 474.9531,411.6875 Q474.5,412.3125 474.5,413.1719 L474.5,414.0938 Q474.5,415.125 475.3438,415.8125 Q476.1875,416.5 477.6875,416.5 Q478.5781,416.5 479.2031,416.2969 Q479.5625,416.1875 479.9688,415.8281 Q480.2344,415.625 480.375,415.5625 Q480.5156,415.5 480.6875,415.5 Q481.0156,415.5 481.25,415.7656 Q481.5,416.0156 481.5,416.375 Q481.5,416.7188 481.1563,417.125 Q480.6563,417.7188 479.8594,418.0469 Q478.8125,418.5 477.5313,418.5 Q476.0313,418.5 474.8281,417.9063 Q473.8594,417.4375 473.1719,416.4219 Q472.5,415.4063 472.5,414.2031 L472.5,413.1094 Q472.5,411.8594 473.0938,410.7656 Q473.7031,409.6719 474.75,409.0938 Q475.8125,408.5 477,408.5 Q477.7188,408.5 478.3438,408.75 Q478.9688,409 479.5,409.5 Z " fill="#000000"/><text fill="#000000" font-family="sans-serif" font-size="12" lengthAdjust="spacing" textLength="80" x="493.5" y="417.9102">CargoManifest</text><line style="stroke:#A80036;stroke-width:1.5;" x1="454.5" x2="584.5" y1="429" y2="429"/><text fill="#000000" font-family="sans-serif" font-size="11" lengthAdjust="spacing" textLength="120" x="459.5" y="444.4189">HashMap&lt;Container, int&gt;</text><line style="stroke:#A80036;stroke-width:1.5;" x1="454.5" x2="584.5" y1="450.8359" y2="450.8359"/><!--MD5=[0dc7f2ddb409b58bcf52b12238c25399]
class Ship--><rect codeLine="37" fill="#FEFECE" filter="url(#fd2znztdi3hpu)" height="200.1953" id="Ship" style="stroke:#A80036;stroke-width:1.5;" width="159" x="227" y="328"/><ellipse cx="289.75" cy="344" fill="#ADD1B2" rx="11" ry="11" style="stroke:#A80036;stroke-width:1.0;"/><path d="M291.75,340.5 Q291.9531,340 292.1875,339.75 Q292.4219,339.5 292.6875,339.5 Q293.1563,339.5 293.4531,339.7813 Q293.75,340.0625 293.75,340.7188 L293.75,342.2813 Q293.75,342.9375 293.4688,343.2188 Q293.1875,343.5 292.75,343.5 Q292.3594,343.5 292.1094,343.3281 Q291.8594,343.1563 291.75,342.7031 Q291.7031,342.3906 291.5313,342.2188 Q291.2188,341.8906 290.6563,341.7031 Q290.0938,341.5 289.5313,341.5 Q288.8281,341.5 288.2344,341.7813 Q287.6563,342.0625 287.2031,342.6875 Q286.75,343.3125 286.75,344.1719 L286.75,345.0938 Q286.75,346.125 287.5938,346.8125 Q288.4375,347.5 289.9375,347.5 Q290.8281,347.5 291.4531,347.2969 Q291.8125,347.1875 292.2188,346.8281 Q292.4844,346.625 292.625,346.5625 Q292.7656,346.5 292.9375,346.5 Q293.2656,346.5 293.5,346.7656 Q293.75,347.0156 293.75,347.375 Q293.75,347.7188 293.4063,348.125 Q292.9063,348.7188 292.1094,349.0469 Q291.0625,349.5 289.7813,349.5 Q288.2813,349.5 287.0781,348.9063 Q286.1094,348.4375 285.4219,347.4219 Q284.75,346.4063 284.75,345.2031 L284.75,344.1094 Q284.75,342.8594 285.3438,341.7656 Q285.9531,340.6719 287,340.0938 Q288.0625,339.5 289.25,339.5 Q289.9688,339.5 290.5938,339.75 Q291.2188,340 291.75,340.5 Z " fill="#000000"/><text fill="#000000" font-family="sans-serif" font-size="12" lengthAdjust="spacing" textLength="25" x="310.25" y="348.9102">Ship</text><line style="stroke:#A80036;stroke-width:1.5;" x1="228" x2="385" y1="360" y2="360"/><rect fill="none" height="6" style="stroke:#C82930;stroke-width:1.0;" width="6" x="235" y="368"/><text fill="#000000" font-family="sans-serif" font-size="11" lengthAdjust="spacing" textLength="48" x="247" y="375.4189">int MMSI &lt;</text><text fill="#000000" font-family="sans-serif" font-size="11" font-weight="bold" lengthAdjust="spacing" textLength="20" x="295" y="375.4189">PK&gt;</text><rect fill="none" height="6" style="stroke:#C82930;stroke-width:1.0;" width="6" x="235" y="381.8359"/><text fill="#000000" font-family="sans-serif" font-size="11" lengthAdjust="spacing" textLength="57" x="247" y="389.2549">String name</text><rect fill="none" height="6" style="stroke:#C82930;stroke-width:1.0;" width="6" x="235" y="395.6719"/><text fill="#000000" font-family="sans-serif" font-size="11" lengthAdjust="spacing" textLength="32" x="247" y="403.0908">int IMO</text><rect fill="none" height="6" style="stroke:#C82930;stroke-width:1.0;" width="6" x="235" y="409.5078"/><text fill="#000000" font-family="sans-serif" font-size="11" lengthAdjust="spacing" textLength="133" x="247" y="416.9268">int numberEnergyGenerator</text><rect fill="none" height="6" style="stroke:#C82930;stroke-width:1.0;" width="6" x="235" y="423.3438"/><text fill="#000000" font-family="sans-serif" font-size="11" lengthAdjust="spacing" textLength="78" x="247" y="430.7627">int powerOutput</text><rect fill="none" height="6" style="stroke:#C82930;stroke-width:1.0;" width="6" x="235" y="437.1797"/><text fill="#000000" font-family="sans-serif" font-size="11" lengthAdjust="spacing" textLength="68" x="247" y="444.5986">String callSign</text><rect fill="none" height="6" style="stroke:#C82930;stroke-width:1.0;" width="6" x="235" y="451.0156"/><text fill="#000000" font-family="sans-serif" font-size="11" lengthAdjust="spacing" textLength="70" x="247" y="458.4346">int vesselType</text><rect fill="none" height="6" style="stroke:#C82930;stroke-width:1.0;" width="6" x="235" y="464.8516"/><text fill="#000000" font-family="sans-serif" font-size="11" lengthAdjust="spacing" textLength="64" x="247" y="472.2705">double length</text><rect fill="none" height="6" style="stroke:#C82930;stroke-width:1.0;" width="6" x="235" y="478.6875"/><text fill="#000000" font-family="sans-serif" font-size="11" lengthAdjust="spacing" textLength="62" x="247" y="486.1064">double width</text><rect fill="none" height="6" style="stroke:#C82930;stroke-width:1.0;" width="6" x="235" y="492.5234"/><text fill="#000000" font-family="sans-serif" font-size="11" lengthAdjust="spacing" textLength="100" x="247" y="499.9424">int maximumCapacity</text><rect fill="none" height="6" style="stroke:#C82930;stroke-width:1.0;" width="6" x="235" y="506.3594"/><text fill="#000000" font-family="sans-serif" font-size="11" lengthAdjust="spacing" textLength="58" x="247" y="513.7783">double draft</text><line style="stroke:#A80036;stroke-width:1.5;" x1="228" x2="385" y1="520.1953" y2="520.1953"/><!--MD5=[e9a58730c562b34349daa605d1ed6662]
class Container--><rect codeLine="52" fill="#FEFECE" filter="url(#fd2znztdi3hpu)" height="158.6875" id="Container" style="stroke:#A80036;stroke-width:1.5;" width="150" x="337.5" y="606"/><ellipse cx="381.3" cy="622" fill="#ADD1B2" rx="11" ry="11" style="stroke:#A80036;stroke-width:1.0;"/><path d="M383.3,618.5 Q383.5031,618 383.7375,617.75 Q383.9719,617.5 384.2375,617.5 Q384.7063,617.5 385.0031,617.7813 Q385.3,618.0625 385.3,618.7188 L385.3,620.2813 Q385.3,620.9375 385.0188,621.2188 Q384.7375,621.5 384.3,621.5 Q383.9094,621.5 383.6594,621.3281 Q383.4094,621.1563 383.3,620.7031 Q383.2531,620.3906 383.0813,620.2188 Q382.7688,619.8906 382.2063,619.7031 Q381.6438,619.5 381.0813,619.5 Q380.3781,619.5 379.7844,619.7813 Q379.2063,620.0625 378.7531,620.6875 Q378.3,621.3125 378.3,622.1719 L378.3,623.0938 Q378.3,624.125 379.1438,624.8125 Q379.9875,625.5 381.4875,625.5 Q382.3781,625.5 383.0031,625.2969 Q383.3625,625.1875 383.7688,624.8281 Q384.0344,624.625 384.175,624.5625 Q384.3156,624.5 384.4875,624.5 Q384.8156,624.5 385.05,624.7656 Q385.3,625.0156 385.3,625.375 Q385.3,625.7188 384.9563,626.125 Q384.4563,626.7188 383.6594,627.0469 Q382.6125,627.5 381.3313,627.5 Q379.8313,627.5 378.6281,626.9063 Q377.6594,626.4375 376.9719,625.4219 Q376.3,624.4063 376.3,623.2031 L376.3,622.1094 Q376.3,620.8594 376.8938,619.7656 Q377.5031,618.6719 378.55,618.0938 Q379.6125,617.5 380.8,617.5 Q381.5188,617.5 382.1438,617.75 Q382.7688,618 383.3,618.5 Z " fill="#000000"/><text fill="#000000" font-family="sans-serif" font-size="12" lengthAdjust="spacing" textLength="54" x="401.7" y="626.9102">Container</text><line style="stroke:#A80036;stroke-width:1.5;" x1="338.5" x2="486.5" y1="638" y2="638"/><rect fill="none" height="6" style="stroke:#C82930;stroke-width:1.0;" width="6" x="345.5" y="646"/><text fill="#000000" font-family="sans-serif" font-size="11" lengthAdjust="spacing" textLength="94" x="357.5" y="653.4189">String containerID &lt;</text><text fill="#000000" font-family="sans-serif" font-size="11" font-weight="bold" lengthAdjust="spacing" textLength="20" x="451.5" y="653.4189">PK&gt;</text><rect fill="none" height="6" style="stroke:#C82930;stroke-width:1.0;" width="6" x="345.5" y="659.8359"/><text fill="#000000" font-family="sans-serif" font-size="11" lengthAdjust="spacing" textLength="63" x="357.5" y="667.2549">int checkDigit</text><rect fill="none" height="6" style="stroke:#C82930;stroke-width:1.0;" width="6" x="345.5" y="673.6719"/><text fill="#000000" font-family="sans-serif" font-size="11" lengthAdjust="spacing" textLength="48" x="357.5" y="681.0908">String ISO</text><rect fill="none" height="6" style="stroke:#C82930;stroke-width:1.0;" width="6" x="345.5" y="687.5078"/><text fill="#000000" font-family="sans-serif" font-size="11" lengthAdjust="spacing" textLength="42" x="357.5" y="694.9268">int gross</text><rect fill="none" height="6" style="stroke:#C82930;stroke-width:1.0;" width="6" x="345.5" y="701.3438"/><text fill="#000000" font-family="sans-serif" font-size="11" lengthAdjust="spacing" textLength="33" x="357.5" y="708.7627">int tare</text><rect fill="none" height="6" style="stroke:#C82930;stroke-width:1.0;" width="6" x="345.5" y="715.1797"/><text fill="#000000" font-family="sans-serif" font-size="11" lengthAdjust="spacing" textLength="52" x="357.5" y="722.5986">int payload</text><rect fill="none" height="6" style="stroke:#C82930;stroke-width:1.0;" width="6" x="345.5" y="729.0156"/><text fill="#000000" font-family="sans-serif" font-size="11" lengthAdjust="spacing" textLength="70" x="357.5" y="736.4346">int maxVolume</text><rect fill="none" height="6" style="stroke:#C82930;stroke-width:1.0;" width="6" x="345.5" y="742.8516"/><text fill="#000000" font-family="sans-serif" font-size="11" lengthAdjust="spacing" textLength="124" x="357.5" y="750.2705">int repairRecommendation</text><line style="stroke:#A80036;stroke-width:1.5;" x1="338.5" x2="486.5" y1="756.6875" y2="756.6875"/><!--MD5=[837d3612090b426002fd1342fcbe6b88]
class DataBase--><rect fill="#FEFECE" filter="url(#fd2znztdi3hpu)" height="48" id="DataBase" style="stroke:#A80036;stroke-width:1.5;" width="87" x="621" y="404"/><ellipse cx="636" cy="420" fill="#ADD1B2" rx="11" ry="11" style="stroke:#A80036;stroke-width:1.0;"/><path d="M638,416.5 Q638.2031,416 638.4375,415.75 Q638.6719,415.5 638.9375,415.5 Q639.4063,415.5 639.7031,415.7813 Q640,416.0625 640,416.7188 L640,418.2813 Q640,418.9375 639.7188,419.2188 Q639.4375,419.5 639,419.5 Q638.6094,419.5 638.3594,419.3281 Q638.1094,419.1563 638,418.7031 Q637.9531,418.3906 637.7813,418.2188 Q637.4688,417.8906 636.9063,417.7031 Q636.3438,417.5 635.7813,417.5 Q635.0781,417.5 634.4844,417.7813 Q633.9063,418.0625 633.4531,418.6875 Q633,419.3125 633,420.1719 L633,421.0938 Q633,422.125 633.8438,422.8125 Q634.6875,423.5 636.1875,423.5 Q637.0781,423.5 637.7031,423.2969 Q638.0625,423.1875 638.4688,422.8281 Q638.7344,422.625 638.875,422.5625 Q639.0156,422.5 639.1875,422.5 Q639.5156,422.5 639.75,422.7656 Q640,423.0156 640,423.375 Q640,423.7188 639.6563,424.125 Q639.1563,424.7188 638.3594,425.0469 Q637.3125,425.5 636.0313,425.5 Q634.5313,425.5 633.3281,424.9063 Q632.3594,424.4375 631.6719,423.4219 Q631,422.4063 631,421.2031 L631,420.1094 Q631,418.8594 631.5938,417.7656 Q632.2031,416.6719 633.25,416.0938 Q634.3125,415.5 635.5,415.5 Q636.2188,415.5 636.8438,415.75 Q637.4688,416 638,416.5 Z " fill="#000000"/><text fill="#000000" font-family="sans-serif" font-size="12" lengthAdjust="spacing" textLength="55" x="650" y="424.9102">DataBase</text><line style="stroke:#A80036;stroke-width:1.5;" x1="622" x2="707" y1="436" y2="436"/><line style="stroke:#A80036;stroke-width:1.5;" x1="622" x2="707" y1="444" y2="444"/><!--MD5=[cf7745c15f65aedd7b72c3e933ea997e]
link ShipCaptain to GetShipOccupancyRateUI--><path codeLine="65" d="M511.17,53.05 C459.65,74.59 377.55,108.93 308.29,137.89 " fill="none" id="ShipCaptain-to-GetShipOccupancyRateUI" style="stroke:#A80036;stroke-width:1.0;"/><polygon fill="#A80036" points="303.33,139.97,313.1764,140.19,307.9433,138.0419,310.0914,132.8087,303.33,139.97" style="stroke:#A80036;stroke-width:1.0;"/><text fill="#000000" font-family="sans-serif" font-size="13" lengthAdjust="spacing" textLength="44" x="429.5" y="99.4951">Access</text><!--MD5=[74296fc1242d08ad22e2aa706efa32be]
link GetShipOccupancyRateUI to GetShipOccupancyRateController--><path codeLine="66" d="M358.22,191.5 C395.17,191.5 434.33,191.5 471.86,191.5 " fill="none" id="GetShipOccupancyRateUI-to-GetShipOccupancyRateController" style="stroke:#A80036;stroke-width:1.0;"/><polygon fill="#A80036" points="476.91,191.5,467.91,187.5,471.91,191.5,467.91,195.5,476.91,191.5" style="stroke:#A80036;stroke-width:1.0;"/><text fill="#000000" font-family="sans-serif" font-size="13" lengthAdjust="spacing" textLength="82" x="376.5" y="184.9951">Connects with</text><!--MD5=[7b8c8bac600fccf47932413961aee02d]
link GetShipOccupancyRateController to DataBase--><path codeLine="67" d="M664.5,250.17 C664.5,297.34 664.5,362.05 664.5,398.68 " fill="none" id="GetShipOccupancyRateController-to-DataBase" style="stroke:#A80036;stroke-width:1.0;"/><polygon fill="#A80036" points="664.5,403.88,668.5,394.88,664.5,398.88,660.5,394.88,664.5,403.88" style="stroke:#A80036;stroke-width:1.0;"/><text fill="#000000" font-family="sans-serif" font-size="13" lengthAdjust="spacing" textLength="82" x="665.5" y="294.4951">Connects with</text><!--MD5=[a88d1600473797baadc9095ef802067d]
reverse link Ship to DataBase--><path codeLine="68" d="M390.76,351.44 C420.47,330.13 455.61,310.69 492,303 C541.26,292.59 562.33,297.65 602.5,328 C628.25,347.46 645.83,380.99 655.52,403.81 " fill="none" id="Ship-backto-DataBase" style="stroke:#A80036;stroke-width:1.0;"/><polygon fill="#A80036" points="386.41,354.6,396.0404,352.5374,390.4524,351.6574,391.3324,346.0694,386.41,354.6" style="stroke:#A80036;stroke-width:1.0;"/><text fill="#000000" font-family="sans-serif" font-size="13" lengthAdjust="spacing" textLength="21" x="493" y="294.4951">has</text><!--MD5=[a93f71c337684849482b0ec5675aa7db]
link CargoManifest to Container--><path codeLine="69" d="M506.91,459.06 C492.35,493.82 467.77,552.51 447.34,601.3 " fill="none" id="CargoManifest-to-Container" style="stroke:#A80036;stroke-width:1.0;"/><polygon fill="#A80036" points="445.38,605.99,452.5413,599.2286,447.3081,601.3767,445.16,596.1436,445.38,605.99" style="stroke:#A80036;stroke-width:1.0;"/><text fill="#000000" font-family="sans-serif" font-size="13" lengthAdjust="spacing" textLength="21" x="464.5" y="572.4951">has</text><!--MD5=[1455ab4c2639af2370608c1bbf2a9850]
link Ship to CargoManifest--><path codeLine="70" d="M386.12,428 C406.49,428 428.26,428 448.18,428 " fill="none" id="Ship-to-CargoManifest" style="stroke:#A80036;stroke-width:1.0;"/><polygon fill="#A80036" points="453.21,428,444.21,424,448.21,428,444.21,432,453.21,428" style="stroke:#A80036;stroke-width:1.0;"/><text fill="#000000" font-family="sans-serif" font-size="13" lengthAdjust="spacing" textLength="31" x="404.25" y="421.4951">loads</text><!--MD5=[ba54223a31981c52d18c1dd571f5520c]
link Ship to Container--><path codeLine="71" d="M347.63,528.15 C357.67,552.35 368.31,577.99 378,601.35 " fill="none" id="Ship-to-Container" style="stroke:#A80036;stroke-width:1.0;"/><polygon fill="#A80036" points="379.93,605.99,380.1759,596.1442,378.014,601.3717,372.7866,599.2098,379.93,605.99" style="stroke:#A80036;stroke-width:1.0;"/><text fill="#000000" font-family="sans-serif" font-size="13" lengthAdjust="spacing" textLength="21" x="367.5" y="572.4951">has</text><!--MD5=[6d5256cef43917af70b6f3fc43e64a4c]
link ShipCaptain to User--><path codeLine="72" d="M611.77,42.53 C674.68,57.02 784.5,86.7 869.5,133 C875.16,136.08 880.81,139.64 886.32,143.43 " fill="none" id="ShipCaptain-to-User" style="stroke:#A80036;stroke-width:1.0;"/><polygon fill="#A80036" points="890.5,146.38,885.4563,137.9206,886.416,143.4955,880.8411,144.4551,890.5,146.38" style="stroke:#A80036;stroke-width:1.0;"/><text fill="#000000" font-family="sans-serif" font-size="13" lengthAdjust="spacing" textLength="21" x="807.5" y="99.4951">is a</text><!--MD5=[1f12d177c84922ed4f166f09ee62ceaa]
link User to UserRole--><path codeLine="73" d="M940.5,236.61 C940.5,278.98 940.5,342.56 940.5,384.41 " fill="none" id="User-to-UserRole" style="stroke:#A80036;stroke-width:1.0;"/><polygon fill="#A80036" points="940.5,389.66,944.5,380.66,940.5,384.66,936.5,380.66,940.5,389.66" style="stroke:#A80036;stroke-width:1.0;"/><text fill="#000000" font-family="sans-serif" font-size="13" lengthAdjust="spacing" textLength="21" x="941.5" y="294.4951">has</text><!--MD5=[38e27bd4d655269a85d768f4d9ad7f5b]
@startuml

class ShipCaptain{

}

class User{
    -String id <<b>PK>
    -String password
    -UserRole role
}

class UserRole{
    -String id <<b>PK>
    -String description
}

class GetShipOccupancyRateUI{
    -GetShipOccupancyRateController getShipOccupancyRateController
    -Scanner in
    +run()
    +formatter(String str)
}

class GetShipOccupancyRateController{
    -Company company
    +GetShipOccupancyRateController(Company company)
    +GetShipOccupancyRateController()
    +getShipOccupancyRateController(int shipMMSI, LocalDateTime dateTime)
    +getCompany()

}

class CargoManifest{
    HashMap<Container, int>
}

class Ship {

    -int MMSI <<b>PK>
    -String name
    -int IMO
    -int numberEnergyGenerator
    -int powerOutput
    -String callSign
    -int vesselType
    -double length
    -double width
    -int maximumCapacity
    -double draft
}

class Container {

    -String containerID <<b>PK>
    -int checkDigit
    -String ISO
    -int gross
    -int tare
    -int payload
    -int maxVolume
    -int repairRecommendation

}

ShipCaptain - -> GetShipOccupancyRateUI : Access
GetShipOccupancyRateUI -right-> GetShipOccupancyRateController : Connects with
GetShipOccupancyRateController - -> DataBase : Connects with
DataBase -left-> Ship : has
CargoManifest - -> Container : has
Ship -right-> CargoManifest : loads
Ship - -> Container : has
ShipCaptain - -> User : is a
User - -> UserRole : has

@enduml

PlantUML version 1.2021.11(Sat Oct 02 14:26:11 BST 2021)
(GPL source distribution)
Java Runtime: OpenJDK Runtime Environment
JVM: OpenJDK 64-Bit Server VM
Default Encoding: Cp1252
Language: pt
Country: PT
--></g></svg>