<?xml version="1.0" encoding="UTF-8" standalone="no"?><svg xmlns="http://www.w3.org/2000/svg" xmlns:xlink="http://www.w3.org/1999/xlink" contentScriptType="application/ecmascript" contentStyleType="text/css" height="633px" preserveAspectRatio="none" style="width:1713px;height:633px;background:#FFFFFF;" version="1.1" viewBox="0 0 1713 633" width="1713px" zoomAndPan="magnify"><defs><filter height="300%" id="fw8sk7n1bdd1u" width="300%" x="-1" y="-1"><feGaussianBlur result="blurOut" stdDeviation="2.0"/><feColorMatrix in="blurOut" result="blurOut2" type="matrix" values="0 0 0 0 0 0 0 0 0 0 0 0 0 0 0 0 0 0 .4 0"/><feOffset dx="4.0" dy="4.0" in="blurOut2" result="blurOut3"/><feBlend in="SourceGraphic" in2="blurOut3" mode="normal"/></filter></defs><g><line style="stroke:#A80036;stroke-width:1.0;stroke-dasharray:5.0,5.0;" x1="46" x2="46" y1="89.6094" y2="547.4375"/><line style="stroke:#A80036;stroke-width:1.0;stroke-dasharray:5.0,5.0;" x1="273.5" x2="273.5" y1="89.6094" y2="547.4375"/><line style="stroke:#A80036;stroke-width:1.0;stroke-dasharray:5.0,5.0;" x1="457" x2="457" y1="89.6094" y2="547.4375"/><line style="stroke:#A80036;stroke-width:1.0;stroke-dasharray:5.0,5.0;" x1="937.5" x2="937.5" y1="89.6094" y2="547.4375"/><line style="stroke:#A80036;stroke-width:1.0;stroke-dasharray:5.0,5.0;" x1="1518.5" x2="1518.5" y1="89.6094" y2="547.4375"/><line style="stroke:#A80036;stroke-width:1.0;stroke-dasharray:5.0,5.0;" x1="1678.5" x2="1678.5" y1="419.5781" y2="547.4375"/><text fill="#000000" font-family="sans-serif" font-size="14" lengthAdjust="spacing" textLength="77" x="5" y="86.5332">ShipCaptain</text><ellipse cx="46.5" cy="15" fill="#FF0000" filter="url(#fw8sk7n1bdd1u)" rx="8" ry="8" style="stroke:#A80036;stroke-width:2.0;"/><path d="M46.5,23 L46.5,50 M33.5,31 L59.5,31 M46.5,50 L33.5,65 M46.5,50 L59.5,65 " fill="none" filter="url(#fw8sk7n1bdd1u)" style="stroke:#A80036;stroke-width:2.0;"/><text fill="#000000" font-family="sans-serif" font-size="14" lengthAdjust="spacing" textLength="77" x="5" y="560.9707">ShipCaptain</text><ellipse cx="46.5" cy="574.0469" fill="#FF0000" filter="url(#fw8sk7n1bdd1u)" rx="8" ry="8" style="stroke:#A80036;stroke-width:2.0;"/><path d="M46.5,582.0469 L46.5,609.0469 M33.5,590.0469 L59.5,590.0469 M46.5,609.0469 L33.5,624.0469 M46.5,609.0469 L59.5,624.0469 " fill="none" filter="url(#fw8sk7n1bdd1u)" style="stroke:#A80036;stroke-width:2.0;"/><rect fill="#FEFECE" filter="url(#fw8sk7n1bdd1u)" height="31.6094" style="stroke:#A80036;stroke-width:1.5;" width="60" x="241.5" y="53"/><text fill="#000000" font-family="sans-serif" font-size="14" lengthAdjust="spacing" textLength="46" x="248.5" y="74.5332">System</text><rect fill="#FEFECE" filter="url(#fw8sk7n1bdd1u)" height="31.6094" style="stroke:#A80036;stroke-width:1.5;" width="60" x="241.5" y="546.4375"/><text fill="#000000" font-family="sans-serif" font-size="14" lengthAdjust="spacing" textLength="46" x="248.5" y="567.9707">System</text><rect fill="#FEFECE" filter="url(#fw8sk7n1bdd1u)" height="31.6094" style="stroke:#A80036;stroke-width:1.5;" width="103" x="404" y="53"/><text fill="#000000" font-family="sans-serif" font-size="14" lengthAdjust="spacing" textLength="89" x="411" y="74.5332">ShipCaptainUI</text><rect fill="#FEFECE" filter="url(#fw8sk7n1bdd1u)" height="31.6094" style="stroke:#A80036;stroke-width:1.5;" width="103" x="404" y="546.4375"/><text fill="#000000" font-family="sans-serif" font-size="14" lengthAdjust="spacing" textLength="89" x="411" y="567.9707">ShipCaptainUI</text><rect fill="#FEFECE" filter="url(#fw8sk7n1bdd1u)" height="31.6094" style="stroke:#A80036;stroke-width:1.5;" width="178" x="846.5" y="53"/><text fill="#000000" font-family="sans-serif" font-size="14" lengthAdjust="spacing" textLength="164" x="853.5" y="74.5332">GetShipOccupancyRateUI</text><rect fill="#FEFECE" filter="url(#fw8sk7n1bdd1u)" height="31.6094" style="stroke:#A80036;stroke-width:1.5;" width="178" x="846.5" y="546.4375"/><text fill="#000000" font-family="sans-serif" font-size="14" lengthAdjust="spacing" textLength="164" x="853.5" y="567.9707">GetShipOccupancyRateUI</text><rect fill="#FEFECE" filter="url(#fw8sk7n1bdd1u)" height="31.6094" style="stroke:#A80036;stroke-width:1.5;" width="228" x="1402.5" y="53"/><text fill="#000000" font-family="sans-serif" font-size="14" lengthAdjust="spacing" textLength="214" x="1409.5" y="74.5332">GetShipOccupancyRateController</text><rect fill="#FEFECE" filter="url(#fw8sk7n1bdd1u)" height="31.6094" style="stroke:#A80036;stroke-width:1.5;" width="228" x="1402.5" y="546.4375"/><text fill="#000000" font-family="sans-serif" font-size="14" lengthAdjust="spacing" textLength="214" x="1409.5" y="567.9707">GetShipOccupancyRateController</text><text fill="#000000" font-family="sans-serif" font-size="14" lengthAdjust="spacing" textLength="62" x="1644.5" y="560.9707">DataBase</text><path d="M1660.5,574.0469 C1660.5,564.0469 1678.5,564.0469 1678.5,564.0469 C1678.5,564.0469 1696.5,564.0469 1696.5,574.0469 L1696.5,600.0469 C1696.5,610.0469 1678.5,610.0469 1678.5,610.0469 C1678.5,610.0469 1660.5,610.0469 1660.5,600.0469 L1660.5,574.0469 " fill="#FEFECE" filter="url(#fw8sk7n1bdd1u)" style="stroke:#000000;stroke-width:1.5;"/><path d="M1660.5,574.0469 C1660.5,584.0469 1678.5,584.0469 1678.5,584.0469 C1678.5,584.0469 1696.5,584.0469 1696.5,574.0469 " fill="none" style="stroke:#000000;stroke-width:1.5;"/><polygon fill="#A80036" points="57.5,117.9609,47.5,121.9609,57.5,125.9609,53.5,121.9609" style="stroke:#A80036;stroke-width:1.0;"/><line style="stroke:#A80036;stroke-width:1.0;stroke-dasharray:2.0,2.0;" x1="51.5" x2="272.5" y1="121.9609" y2="121.9609"/><text fill="#000000" font-family="sans-serif" font-size="13" font-weight="bold" lengthAdjust="spacing" textLength="7" x="63.5" y="117.1045">1</text><text fill="#000000" font-family="sans-serif" font-size="13" lengthAdjust="spacing" textLength="135" x="74.5" y="117.1045">Authentication Request</text><polygon fill="#A80036" points="261.5,148.3125,271.5,152.3125,261.5,156.3125,265.5,152.3125" style="stroke:#A80036;stroke-width:1.0;"/><line style="stroke:#A80036;stroke-width:1.0;" x1="46.5" x2="267.5" y1="152.3125" y2="152.3125"/><text fill="#000000" font-family="sans-serif" font-size="13" font-weight="bold" lengthAdjust="spacing" textLength="7" x="53.5" y="147.4561">2</text><text fill="#000000" font-family="sans-serif" font-size="13" lengthAdjust="spacing" textLength="192" x="64.5" y="147.4561">Another authentication Response</text><polygon fill="#A80036" points="445.5,178.6641,455.5,182.6641,445.5,186.6641,449.5,182.6641" style="stroke:#A80036;stroke-width:1.0;"/><line style="stroke:#A80036;stroke-width:1.0;stroke-dasharray:2.0,2.0;" x1="273.5" x2="451.5" y1="182.6641" y2="182.6641"/><text fill="#000000" font-family="sans-serif" font-size="13" font-weight="bold" lengthAdjust="spacing" textLength="7" x="280.5" y="177.8076">3</text><text fill="#000000" font-family="sans-serif" font-size="13" lengthAdjust="spacing" textLength="149" x="291.5" y="177.8076">Authentication successful</text><polygon fill="#A80036" points="925.5,209.0156,935.5,213.0156,925.5,217.0156,929.5,213.0156" style="stroke:#A80036;stroke-width:1.0;"/><line style="stroke:#A80036;stroke-width:1.0;stroke-dasharray:2.0,2.0;" x1="457.5" x2="931.5" y1="213.0156" y2="213.0156"/><text fill="#000000" font-family="sans-serif" font-size="13" font-weight="bold" lengthAdjust="spacing" textLength="7" x="464.5" y="208.1592">4</text><text fill="#000000" font-family="sans-serif" font-size="13" lengthAdjust="spacing" textLength="445" x="475.5" y="208.1592">Asks for the occupancy rate (percentage) of a given ship at a certain moment</text><polygon fill="#A80036" points="57.5,239.3672,47.5,243.3672,57.5,247.3672,53.5,243.3672" style="stroke:#A80036;stroke-width:1.0;"/><line style="stroke:#A80036;stroke-width:1.0;stroke-dasharray:2.0,2.0;" x1="51.5" x2="936.5" y1="243.3672" y2="243.3672"/><text fill="#000000" font-family="sans-serif" font-size="13" font-weight="bold" lengthAdjust="spacing" textLength="7" x="63.5" y="238.5107">5</text><text fill="#000000" font-family="sans-serif" font-size="13" lengthAdjust="spacing" textLength="205" x="74.5" y="238.5107">Asks for the Ship MMSI or CallSign</text><polygon fill="#A80036" points="925.5,269.7188,935.5,273.7188,925.5,277.7188,929.5,273.7188" style="stroke:#A80036;stroke-width:1.0;"/><line style="stroke:#A80036;stroke-width:1.0;stroke-dasharray:2.0,2.0;" x1="46.5" x2="931.5" y1="273.7188" y2="273.7188"/><text fill="#000000" font-family="sans-serif" font-size="13" font-weight="bold" lengthAdjust="spacing" textLength="7" x="53.5" y="268.8623">6</text><text fill="#000000" font-family="sans-serif" font-size="13" lengthAdjust="spacing" textLength="90" x="64.5" y="268.8623">Inserts the data</text><polygon fill="#A80036" points="57.5,300.0703,47.5,304.0703,57.5,308.0703,53.5,304.0703" style="stroke:#A80036;stroke-width:1.0;"/><line style="stroke:#A80036;stroke-width:1.0;stroke-dasharray:2.0,2.0;" x1="51.5" x2="936.5" y1="304.0703" y2="304.0703"/><text fill="#000000" font-family="sans-serif" font-size="13" font-weight="bold" lengthAdjust="spacing" textLength="7" x="63.5" y="299.2139">7</text><text fill="#000000" font-family="sans-serif" font-size="13" lengthAdjust="spacing" textLength="286" x="74.5" y="299.2139">Ask for the Date of the moment he wants to know</text><polygon fill="#A80036" points="925.5,330.4219,935.5,334.4219,925.5,338.4219,929.5,334.4219" style="stroke:#A80036;stroke-width:1.0;"/><line style="stroke:#A80036;stroke-width:1.0;stroke-dasharray:2.0,2.0;" x1="46.5" x2="931.5" y1="334.4219" y2="334.4219"/><text fill="#000000" font-family="sans-serif" font-size="13" font-weight="bold" lengthAdjust="spacing" textLength="7" x="53.5" y="329.5654">8</text><text fill="#000000" font-family="sans-serif" font-size="13" lengthAdjust="spacing" textLength="90" x="64.5" y="329.5654">Inserts the data</text><polygon fill="#A80036" points="1506.5,360.7734,1516.5,364.7734,1506.5,368.7734,1510.5,364.7734" style="stroke:#A80036;stroke-width:1.0;"/><line style="stroke:#A80036;stroke-width:1.0;stroke-dasharray:2.0,2.0;" x1="937.5" x2="1512.5" y1="364.7734" y2="364.7734"/><text fill="#000000" font-family="sans-serif" font-size="13" font-weight="bold" lengthAdjust="spacing" textLength="7" x="944.5" y="359.917">9</text><text fill="#000000" font-family="sans-serif" font-size="13" lengthAdjust="spacing" textLength="546" x="955.5" y="359.917">getShipOccupancyRateController.getShipOccupancyRateController(shipMMSI, formatter(date))</text><polygon fill="#A80036" points="1632.5,391.125,1642.5,395.125,1632.5,399.125,1636.5,395.125" style="stroke:#A80036;stroke-width:1.0;"/><line style="stroke:#A80036;stroke-width:1.0;" x1="1518.5" x2="1638.5" y1="395.125" y2="395.125"/><text fill="#000000" font-family="sans-serif" font-size="13" font-weight="bold" lengthAdjust="spacing" textLength="14" x="1525.5" y="390.2686">10</text><text fill="#000000" font-family="sans-serif" font-size="13" lengthAdjust="spacing" textLength="62" x="1543.5" y="390.2686">SQL script</text><text fill="#000000" font-family="sans-serif" font-size="14" lengthAdjust="spacing" textLength="62" x="1644.5" y="433.3066">DataBase</text><path d="M1660.5,382.7734 C1660.5,372.7734 1678.5,372.7734 1678.5,372.7734 C1678.5,372.7734 1696.5,372.7734 1696.5,382.7734 L1696.5,408.7734 C1696.5,418.7734 1678.5,418.7734 1678.5,418.7734 C1678.5,418.7734 1660.5,418.7734 1660.5,408.7734 L1660.5,382.7734 " fill="#FEFECE" filter="url(#fw8sk7n1bdd1u)" style="stroke:#000000;stroke-width:1.5;"/><path d="M1660.5,382.7734 C1660.5,392.7734 1678.5,392.7734 1678.5,392.7734 C1678.5,392.7734 1696.5,392.7734 1696.5,382.7734 " fill="none" style="stroke:#000000;stroke-width:1.5;"/><polygon fill="#A80036" points="1529.5,464.7344,1519.5,468.7344,1529.5,472.7344,1525.5,468.7344" style="stroke:#A80036;stroke-width:1.0;"/><line style="stroke:#A80036;stroke-width:1.0;" x1="1523.5" x2="1677.5" y1="468.7344" y2="468.7344"/><text fill="#000000" font-family="sans-serif" font-size="13" font-weight="bold" lengthAdjust="spacing" textLength="14" x="1535.5" y="463.8779">11</text><text fill="#000000" font-family="sans-serif" font-size="13" lengthAdjust="spacing" textLength="32" x="1553.5" y="463.8779">result</text><polygon fill="#A80036" points="948.5,495.0859,938.5,499.0859,948.5,503.0859,944.5,499.0859" style="stroke:#A80036;stroke-width:1.0;"/><line style="stroke:#A80036;stroke-width:1.0;" x1="942.5" x2="1517.5" y1="499.0859" y2="499.0859"/><text fill="#000000" font-family="sans-serif" font-size="13" font-weight="bold" lengthAdjust="spacing" textLength="14" x="954.5" y="494.2295">12</text><text fill="#000000" font-family="sans-serif" font-size="13" lengthAdjust="spacing" textLength="32" x="972.5" y="494.2295">result</text><polygon fill="#A80036" points="57.5,525.4375,47.5,529.4375,57.5,533.4375,53.5,529.4375" style="stroke:#A80036;stroke-width:1.0;"/><line style="stroke:#A80036;stroke-width:1.0;" x1="51.5" x2="936.5" y1="529.4375" y2="529.4375"/><text fill="#000000" font-family="sans-serif" font-size="13" font-weight="bold" lengthAdjust="spacing" textLength="14" x="63.5" y="524.5811">13</text><text fill="#000000" font-family="sans-serif" font-size="13" lengthAdjust="spacing" textLength="97" x="81.5" y="524.5811">Shows the result</text><!--MD5=[66fa72689649b3587982980c85c3ccd8]
@startuml

autonumber

actor ShipCaptain #red


System - -> ShipCaptain: Authentication Request
ShipCaptain -> System : Another authentication Response
System - -> ShipCaptainUI : Authentication successful
ShipCaptainUI - -> GetShipOccupancyRateUI : Asks for the occupancy rate (percentage) of a given ship at a certain moment
GetShipOccupancyRateUI - -> ShipCaptain : Asks for the Ship MMSI or CallSign
ShipCaptain - -> GetShipOccupancyRateUI : Inserts the data
GetShipOccupancyRateUI - -> ShipCaptain : Ask for the Date of the moment he wants to know
ShipCaptain - -> GetShipOccupancyRateUI : Inserts the data
GetShipOccupancyRateUI - -> GetShipOccupancyRateController : getShipOccupancyRateController.getShipOccupancyRateController(shipMMSI, formatter(date))
database       "DataBase"              as db
GetShipOccupancyRateController -> db** : SQL script
db -> GetShipOccupancyRateController : result
GetShipOccupancyRateController -> GetShipOccupancyRateUI : result
GetShipOccupancyRateUI -> ShipCaptain : Shows the result

@enduml

PlantUML version 1.2021.11(Sat Oct 02 14:26:11 BST 2021)
(GPL source distribution)
Java Runtime: OpenJDK Runtime Environment
JVM: OpenJDK 64-Bit Server VM
Default Encoding: Cp1252
Language: pt
Country: PT
--></g></svg>