<?xml version="1.0" encoding="UTF-8" standalone="no"?><svg xmlns="http://www.w3.org/2000/svg" xmlns:xlink="http://www.w3.org/1999/xlink" contentScriptType="application/ecmascript" contentStyleType="text/css" height="527px" preserveAspectRatio="none" style="width:898px;height:527px;background:#FFFFFF;" version="1.1" viewBox="0 0 898 527" width="898px" zoomAndPan="magnify"><defs><filter height="300%" id="f1472o6z0a2t2t" width="300%" x="-1" y="-1"><feGaussianBlur result="blurOut" stdDeviation="2.0"/><feColorMatrix in="blurOut" result="blurOut2" type="matrix" values="0 0 0 0 0 0 0 0 0 0 0 0 0 0 0 0 0 0 .4 0"/><feOffset dx="4.0" dy="4.0" in="blurOut2" result="blurOut3"/><feBlend in="SourceGraphic" in2="blurOut3" mode="normal"/></filter></defs><g><line style="stroke:#A80036;stroke-width:1.0;stroke-dasharray:5.0,5.0;" x1="49" x2="49" y1="89.6094" y2="442.3828"/><line style="stroke:#A80036;stroke-width:1.0;stroke-dasharray:5.0,5.0;" x1="276" x2="276" y1="89.6094" y2="442.3828"/><line style="stroke:#A80036;stroke-width:1.0;stroke-dasharray:5.0,5.0;" x1="508.5" x2="508.5" y1="89.6094" y2="442.3828"/><line style="stroke:#A80036;stroke-width:1.0;stroke-dasharray:5.0,5.0;" x1="674.5" x2="674.5" y1="89.6094" y2="442.3828"/><line style="stroke:#A80036;stroke-width:1.0;stroke-dasharray:5.0,5.0;" x1="863" x2="863" y1="314.5234" y2="442.3828"/><text fill="#000000" font-family="sans-serif" font-size="14" lengthAdjust="spacing" textLength="82" x="5" y="86.5332">PortManager</text><ellipse cx="49" cy="15" fill="#FF0000" filter="url(#f1472o6z0a2t2t)" rx="8" ry="8" style="stroke:#A80036;stroke-width:2.0;"/><path d="M49,23 L49,50 M36,31 L62,31 M49,50 L36,65 M49,50 L62,65 " fill="none" filter="url(#f1472o6z0a2t2t)" style="stroke:#A80036;stroke-width:2.0;"/><text fill="#000000" font-family="sans-serif" font-size="14" lengthAdjust="spacing" textLength="82" x="5" y="455.916">PortManager</text><ellipse cx="49" cy="468.9922" fill="#FF0000" filter="url(#f1472o6z0a2t2t)" rx="8" ry="8" style="stroke:#A80036;stroke-width:2.0;"/><path d="M49,476.9922 L49,503.9922 M36,484.9922 L62,484.9922 M49,503.9922 L36,518.9922 M49,503.9922 L62,518.9922 " fill="none" filter="url(#f1472o6z0a2t2t)" style="stroke:#A80036;stroke-width:2.0;"/><rect fill="#FEFECE" filter="url(#f1472o6z0a2t2t)" height="31.6094" style="stroke:#A80036;stroke-width:1.5;" width="60" x="244" y="53"/><text fill="#000000" font-family="sans-serif" font-size="14" lengthAdjust="spacing" textLength="46" x="251" y="74.5332">System</text><rect fill="#FEFECE" filter="url(#f1472o6z0a2t2t)" height="31.6094" style="stroke:#A80036;stroke-width:1.5;" width="60" x="244" y="441.3828"/><text fill="#000000" font-family="sans-serif" font-size="14" lengthAdjust="spacing" textLength="46" x="251" y="462.916">System</text><rect fill="#FEFECE" filter="url(#f1472o6z0a2t2t)" height="31.6094" style="stroke:#A80036;stroke-width:1.5;" width="127" x="443.5" y="53"/><text fill="#000000" font-family="sans-serif" font-size="14" lengthAdjust="spacing" textLength="113" x="450.5" y="74.5332">OccupancyRateUI</text><rect fill="#FEFECE" filter="url(#f1472o6z0a2t2t)" height="31.6094" style="stroke:#A80036;stroke-width:1.5;" width="127" x="443.5" y="441.3828"/><text fill="#000000" font-family="sans-serif" font-size="14" lengthAdjust="spacing" textLength="113" x="450.5" y="462.916">OccupancyRateUI</text><rect fill="#FEFECE" filter="url(#f1472o6z0a2t2t)" height="31.6094" style="stroke:#A80036;stroke-width:1.5;" width="177" x="584.5" y="53"/><text fill="#000000" font-family="sans-serif" font-size="14" lengthAdjust="spacing" textLength="163" x="591.5" y="74.5332">OccupancyRateController</text><rect fill="#FEFECE" filter="url(#f1472o6z0a2t2t)" height="31.6094" style="stroke:#A80036;stroke-width:1.5;" width="177" x="584.5" y="441.3828"/><text fill="#000000" font-family="sans-serif" font-size="14" lengthAdjust="spacing" textLength="163" x="591.5" y="462.916">OccupancyRateController</text><text fill="#000000" font-family="sans-serif" font-size="14" lengthAdjust="spacing" textLength="62" x="829" y="455.916">DataBase</text><path d="M845,468.9922 C845,458.9922 863,458.9922 863,458.9922 C863,458.9922 881,458.9922 881,468.9922 L881,494.9922 C881,504.9922 863,504.9922 863,504.9922 C863,504.9922 845,504.9922 845,494.9922 L845,468.9922 " fill="#FEFECE" filter="url(#f1472o6z0a2t2t)" style="stroke:#000000;stroke-width:1.5;"/><path d="M845,468.9922 C845,478.9922 863,478.9922 863,478.9922 C863,478.9922 881,478.9922 881,468.9922 " fill="none" style="stroke:#000000;stroke-width:1.5;"/><polygon fill="#A80036" points="60,117.9609,50,121.9609,60,125.9609,56,121.9609" style="stroke:#A80036;stroke-width:1.0;"/><line style="stroke:#A80036;stroke-width:1.0;stroke-dasharray:2.0,2.0;" x1="54" x2="275" y1="121.9609" y2="121.9609"/><text fill="#000000" font-family="sans-serif" font-size="13" font-weight="bold" lengthAdjust="spacing" textLength="7" x="66" y="117.1045">1</text><text fill="#000000" font-family="sans-serif" font-size="13" lengthAdjust="spacing" textLength="135" x="77" y="117.1045">Authentication Request</text><polygon fill="#A80036" points="264,148.3125,274,152.3125,264,156.3125,268,152.3125" style="stroke:#A80036;stroke-width:1.0;"/><line style="stroke:#A80036;stroke-width:1.0;" x1="49" x2="270" y1="152.3125" y2="152.3125"/><text fill="#000000" font-family="sans-serif" font-size="13" font-weight="bold" lengthAdjust="spacing" textLength="7" x="56" y="147.4561">2</text><text fill="#000000" font-family="sans-serif" font-size="13" lengthAdjust="spacing" textLength="192" x="67" y="147.4561">Another authentication Response</text><polygon fill="#A80036" points="60,178.6641,50,182.6641,60,186.6641,56,182.6641" style="stroke:#A80036;stroke-width:1.0;"/><line style="stroke:#A80036;stroke-width:1.0;stroke-dasharray:2.0,2.0;" x1="54" x2="275" y1="182.6641" y2="182.6641"/><text fill="#000000" font-family="sans-serif" font-size="13" font-weight="bold" lengthAdjust="spacing" textLength="7" x="66" y="177.8076">3</text><text fill="#000000" font-family="sans-serif" font-size="13" lengthAdjust="spacing" textLength="149" x="77" y="177.8076">Authentication successful</text><polygon fill="#A80036" points="497,225.3672,507,229.3672,497,233.3672,501,229.3672" style="stroke:#A80036;stroke-width:1.0;"/><line style="stroke:#A80036;stroke-width:1.0;stroke-dasharray:2.0,2.0;" x1="49" x2="503" y1="229.3672" y2="229.3672"/><text fill="#000000" font-family="sans-serif" font-size="13" font-weight="bold" lengthAdjust="spacing" textLength="7" x="56" y="216.335">4</text><text fill="#000000" font-family="sans-serif" font-size="13" lengthAdjust="spacing" textLength="353" x="67" y="208.1592">I want to know the occupancy rate of each warehouse and an</text><text fill="#000000" font-family="sans-serif" font-size="13" lengthAdjust="spacing" textLength="421" x="71" y="224.5107">estimate of the containers leaving the warehouse during the next 30 days</text><polygon fill="#A80036" points="663,255.7188,673,259.7188,663,263.7188,667,259.7188" style="stroke:#A80036;stroke-width:1.0;"/><line style="stroke:#A80036;stroke-width:1.0;stroke-dasharray:2.0,2.0;" x1="509" x2="669" y1="259.7188" y2="259.7188"/><text fill="#000000" font-family="sans-serif" font-size="13" font-weight="bold" lengthAdjust="spacing" textLength="7" x="516" y="254.8623">5</text><text fill="#000000" font-family="sans-serif" font-size="13" lengthAdjust="spacing" textLength="119" x="527" y="254.8623">getOccupancyRate()</text><polygon fill="#A80036" points="817,286.0703,827,290.0703,817,294.0703,821,290.0703" style="stroke:#A80036;stroke-width:1.0;"/><line style="stroke:#A80036;stroke-width:1.0;stroke-dasharray:2.0,2.0;" x1="675" x2="823" y1="290.0703" y2="290.0703"/><text fill="#000000" font-family="sans-serif" font-size="13" font-weight="bold" lengthAdjust="spacing" textLength="7" x="682" y="285.2139">6</text><text fill="#000000" font-family="sans-serif" font-size="13" lengthAdjust="spacing" textLength="119" x="693" y="285.2139">getOccupancyRate()</text><text fill="#000000" font-family="sans-serif" font-size="14" lengthAdjust="spacing" textLength="62" x="829" y="328.252">DataBase</text><path d="M845,277.7188 C845,267.7188 863,267.7188 863,267.7188 C863,267.7188 881,267.7188 881,277.7188 L881,303.7188 C881,313.7188 863,313.7188 863,313.7188 C863,313.7188 845,313.7188 845,303.7188 L845,277.7188 " fill="#FEFECE" filter="url(#f1472o6z0a2t2t)" style="stroke:#000000;stroke-width:1.5;"/><path d="M845,277.7188 C845,287.7188 863,287.7188 863,287.7188 C863,287.7188 881,287.7188 881,277.7188 " fill="none" style="stroke:#000000;stroke-width:1.5;"/><polygon fill="#A80036" points="686,359.6797,676,363.6797,686,367.6797,682,363.6797" style="stroke:#A80036;stroke-width:1.0;"/><line style="stroke:#A80036;stroke-width:1.0;stroke-dasharray:2.0,2.0;" x1="680" x2="862" y1="363.6797" y2="363.6797"/><text fill="#000000" font-family="sans-serif" font-size="13" font-weight="bold" lengthAdjust="spacing" textLength="7" x="692" y="358.8232">7</text><text fill="#000000" font-family="sans-serif" font-size="13" lengthAdjust="spacing" textLength="70" x="703" y="358.8232">wanted data</text><polygon fill="#A80036" points="520,390.0313,510,394.0313,520,398.0313,516,394.0313" style="stroke:#A80036;stroke-width:1.0;"/><line style="stroke:#A80036;stroke-width:1.0;stroke-dasharray:2.0,2.0;" x1="514" x2="674" y1="394.0313" y2="394.0313"/><text fill="#000000" font-family="sans-serif" font-size="13" font-weight="bold" lengthAdjust="spacing" textLength="7" x="526" y="389.1748">8</text><text fill="#000000" font-family="sans-serif" font-size="13" lengthAdjust="spacing" textLength="70" x="537" y="389.1748">wanted data</text><polygon fill="#A80036" points="60,420.3828,50,424.3828,60,428.3828,56,424.3828" style="stroke:#A80036;stroke-width:1.0;"/><line style="stroke:#A80036;stroke-width:1.0;stroke-dasharray:2.0,2.0;" x1="54" x2="508" y1="424.3828" y2="424.3828"/><text fill="#000000" font-family="sans-serif" font-size="13" font-weight="bold" lengthAdjust="spacing" textLength="7" x="66" y="419.5264">9</text><text fill="#000000" font-family="sans-serif" font-size="13" lengthAdjust="spacing" textLength="146" x="77" y="419.5264">Displays the wanted data</text><!--MD5=[542c475e18bf3cdf0acc19529d5957f9]
@startuml
'https://plantuml.com/sequence-diagram

autonumber

actor PortManager #red

System - -> PortManager: Authentication Request
PortManager -> System : Another authentication Response
System - -> PortManager : Authentication successful
PortManager - -> OccupancyRateUI : I want to know the occupancy rate of each warehouse and an \n estimate of the containers leaving the warehouse during the next 30 days
OccupancyRateUI - -> OccupancyRateController : getOccupancyRate()
database       "DataBase"              as db
OccupancyRateController - -> db** :  getOccupancyRate()
db - -> OccupancyRateController : wanted data
OccupancyRateController - -> OccupancyRateUI : wanted data
OccupancyRateUI - -> PortManager : Displays the wanted data
@enduml

@startuml

autonumber

actor PortManager #red

System - -> PortManager: Authentication Request
PortManager -> System : Another authentication Response
System - -> PortManager : Authentication successful
PortManager - -> OccupancyRateUI : I want to know the occupancy rate of each warehouse and an \n estimate of the containers leaving the warehouse during the next 30 days
OccupancyRateUI - -> OccupancyRateController : getOccupancyRate()
database       "DataBase"              as db
OccupancyRateController - -> db** :  getOccupancyRate()
db - -> OccupancyRateController : wanted data
OccupancyRateController - -> OccupancyRateUI : wanted data
OccupancyRateUI - -> PortManager : Displays the wanted data
@enduml

PlantUML version 1.2021.11(Sat Oct 02 14:26:11 BST 2021)
(GPL source distribution)
Java Runtime: OpenJDK Runtime Environment
JVM: OpenJDK 64-Bit Server VM
Default Encoding: Cp1252
Language: pt
Country: PT
--></g></svg>