<?xml version="1.0" encoding="UTF-8" standalone="no"?><svg xmlns="http://www.w3.org/2000/svg" xmlns:xlink="http://www.w3.org/1999/xlink" contentScriptType="application/ecmascript" contentStyleType="text/css" height="547px" preserveAspectRatio="none" style="width:250px;height:547px;background:#FFFFFF;" version="1.1" viewBox="0 0 250 547" width="250px" zoomAndPan="magnify"><defs><filter height="300%" id="f16117svgt4oz5" width="300%" x="-1" y="-1"><feGaussianBlur result="blurOut" stdDeviation="2.0"/><feColorMatrix in="blurOut" result="blurOut2" type="matrix" values="0 0 0 0 0 0 0 0 0 0 0 0 0 0 0 0 0 0 .4 0"/><feOffset dx="4.0" dy="4.0" in="blurOut2" result="blurOut3"/><feBlend in="SourceGraphic" in2="blurOut3" mode="normal"/></filter></defs><g><!--MD5=[0dc7f2ddb409b58bcf52b12238c25399]
class Ship--><rect codeLine="2" fill="#FEFECE" filter="url(#f16117svgt4oz5)" height="200.1953" id="Ship" style="stroke:#A80036;stroke-width:1.5;" width="159" x="7" y="115"/><ellipse cx="69.75" cy="131" fill="#ADD1B2" rx="11" ry="11" style="stroke:#A80036;stroke-width:1.0;"/><path d="M71.75,127.5 Q71.9531,127 72.1875,126.75 Q72.4219,126.5 72.6875,126.5 Q73.1563,126.5 73.4531,126.7813 Q73.75,127.0625 73.75,127.7188 L73.75,129.2813 Q73.75,129.9375 73.4688,130.2188 Q73.1875,130.5 72.75,130.5 Q72.3594,130.5 72.1094,130.3281 Q71.8594,130.1563 71.75,129.7031 Q71.7031,129.3906 71.5313,129.2188 Q71.2188,128.8906 70.6563,128.7031 Q70.0938,128.5 69.5313,128.5 Q68.8281,128.5 68.2344,128.7813 Q67.6563,129.0625 67.2031,129.6875 Q66.75,130.3125 66.75,131.1719 L66.75,132.0938 Q66.75,133.125 67.5938,133.8125 Q68.4375,134.5 69.9375,134.5 Q70.8281,134.5 71.4531,134.2969 Q71.8125,134.1875 72.2188,133.8281 Q72.4844,133.625 72.625,133.5625 Q72.7656,133.5 72.9375,133.5 Q73.2656,133.5 73.5,133.7656 Q73.75,134.0156 73.75,134.375 Q73.75,134.7188 73.4063,135.125 Q72.9063,135.7188 72.1094,136.0469 Q71.0625,136.5 69.7813,136.5 Q68.2813,136.5 67.0781,135.9063 Q66.1094,135.4375 65.4219,134.4219 Q64.75,133.4063 64.75,132.2031 L64.75,131.1094 Q64.75,129.8594 65.3438,128.7656 Q65.9531,127.6719 67,127.0938 Q68.0625,126.5 69.25,126.5 Q69.9688,126.5 70.5938,126.75 Q71.2188,127 71.75,127.5 Z " fill="#000000"/><text fill="#000000" font-family="sans-serif" font-size="12" lengthAdjust="spacing" textLength="25" x="90.25" y="135.9102">Ship</text><line style="stroke:#A80036;stroke-width:1.5;" x1="8" x2="165" y1="147" y2="147"/><rect fill="none" height="6" style="stroke:#C82930;stroke-width:1.0;" width="6" x="15" y="155"/><text fill="#000000" font-family="sans-serif" font-size="11" lengthAdjust="spacing" textLength="48" x="27" y="162.4189">int MMSI &lt;</text><text fill="#000000" font-family="sans-serif" font-size="11" font-weight="bold" lengthAdjust="spacing" textLength="20" x="75" y="162.4189">PK&gt;</text><rect fill="none" height="6" style="stroke:#C82930;stroke-width:1.0;" width="6" x="15" y="168.8359"/><text fill="#000000" font-family="sans-serif" font-size="11" lengthAdjust="spacing" textLength="57" x="27" y="176.2549">String name</text><rect fill="none" height="6" style="stroke:#C82930;stroke-width:1.0;" width="6" x="15" y="182.6719"/><text fill="#000000" font-family="sans-serif" font-size="11" lengthAdjust="spacing" textLength="32" x="27" y="190.0908">int IMO</text><rect fill="none" height="6" style="stroke:#C82930;stroke-width:1.0;" width="6" x="15" y="196.5078"/><text fill="#000000" font-family="sans-serif" font-size="11" lengthAdjust="spacing" textLength="133" x="27" y="203.9268">int numberEnergyGenerator</text><rect fill="none" height="6" style="stroke:#C82930;stroke-width:1.0;" width="6" x="15" y="210.3438"/><text fill="#000000" font-family="sans-serif" font-size="11" lengthAdjust="spacing" textLength="78" x="27" y="217.7627">int powerOutput</text><rect fill="none" height="6" style="stroke:#C82930;stroke-width:1.0;" width="6" x="15" y="224.1797"/><text fill="#000000" font-family="sans-serif" font-size="11" lengthAdjust="spacing" textLength="68" x="27" y="231.5986">String callSign</text><rect fill="none" height="6" style="stroke:#C82930;stroke-width:1.0;" width="6" x="15" y="238.0156"/><text fill="#000000" font-family="sans-serif" font-size="11" lengthAdjust="spacing" textLength="70" x="27" y="245.4346">int vesselType</text><rect fill="none" height="6" style="stroke:#C82930;stroke-width:1.0;" width="6" x="15" y="251.8516"/><text fill="#000000" font-family="sans-serif" font-size="11" lengthAdjust="spacing" textLength="64" x="27" y="259.2705">double length</text><rect fill="none" height="6" style="stroke:#C82930;stroke-width:1.0;" width="6" x="15" y="265.6875"/><text fill="#000000" font-family="sans-serif" font-size="11" lengthAdjust="spacing" textLength="62" x="27" y="273.1064">double width</text><rect fill="none" height="6" style="stroke:#C82930;stroke-width:1.0;" width="6" x="15" y="279.5234"/><text fill="#000000" font-family="sans-serif" font-size="11" lengthAdjust="spacing" textLength="100" x="27" y="286.9424">int maximumCapacity</text><rect fill="none" height="6" style="stroke:#C82930;stroke-width:1.0;" width="6" x="15" y="293.3594"/><text fill="#000000" font-family="sans-serif" font-size="11" lengthAdjust="spacing" textLength="58" x="27" y="300.7783">double draft</text><line style="stroke:#A80036;stroke-width:1.5;" x1="8" x2="165" y1="307.1953" y2="307.1953"/><!--MD5=[42db3a3160cd97c2324f9fd4a6b0182a]
class PositionData--><rect codeLine="17" fill="#FEFECE" filter="url(#f16117svgt4oz5)" height="158.6875" id="PositionData" style="stroke:#A80036;stroke-width:1.5;" width="167" x="69" y="375"/><ellipse cx="112.8" cy="391" fill="#ADD1B2" rx="11" ry="11" style="stroke:#A80036;stroke-width:1.0;"/><path d="M114.8,387.5 Q115.0031,387 115.2375,386.75 Q115.4719,386.5 115.7375,386.5 Q116.2063,386.5 116.5031,386.7813 Q116.8,387.0625 116.8,387.7188 L116.8,389.2813 Q116.8,389.9375 116.5188,390.2188 Q116.2375,390.5 115.8,390.5 Q115.4094,390.5 115.1594,390.3281 Q114.9094,390.1563 114.8,389.7031 Q114.7531,389.3906 114.5813,389.2188 Q114.2688,388.8906 113.7063,388.7031 Q113.1438,388.5 112.5813,388.5 Q111.8781,388.5 111.2844,388.7813 Q110.7063,389.0625 110.2531,389.6875 Q109.8,390.3125 109.8,391.1719 L109.8,392.0938 Q109.8,393.125 110.6438,393.8125 Q111.4875,394.5 112.9875,394.5 Q113.8781,394.5 114.5031,394.2969 Q114.8625,394.1875 115.2688,393.8281 Q115.5344,393.625 115.675,393.5625 Q115.8156,393.5 115.9875,393.5 Q116.3156,393.5 116.55,393.7656 Q116.8,394.0156 116.8,394.375 Q116.8,394.7188 116.4563,395.125 Q115.9563,395.7188 115.1594,396.0469 Q114.1125,396.5 112.8313,396.5 Q111.3313,396.5 110.1281,395.9063 Q109.1594,395.4375 108.4719,394.4219 Q107.8,393.4063 107.8,392.2031 L107.8,391.1094 Q107.8,389.8594 108.3938,388.7656 Q109.0031,387.6719 110.05,387.0938 Q111.1125,386.5 112.3,386.5 Q113.0188,386.5 113.6438,386.75 Q114.2688,387 114.8,387.5 Z " fill="#000000"/><text fill="#000000" font-family="sans-serif" font-size="12" lengthAdjust="spacing" textLength="71" x="133.2" y="395.9102">PositionData</text><line style="stroke:#A80036;stroke-width:1.5;" x1="70" x2="235" y1="407" y2="407"/><rect fill="none" height="6" style="stroke:#C82930;stroke-width:1.0;" width="6" x="77" y="415"/><text fill="#000000" font-family="sans-serif" font-size="11" lengthAdjust="spacing" textLength="141" x="89" y="422.4189">LocalDateTime baseDateTime</text><rect fill="none" height="6" style="stroke:#C82930;stroke-width:1.0;" width="6" x="77" y="428.8359"/><text fill="#000000" font-family="sans-serif" font-size="11" lengthAdjust="spacing" textLength="69" x="89" y="436.2549">double latitude</text><rect fill="none" height="6" style="stroke:#C82930;stroke-width:1.0;" width="6" x="77" y="442.6719"/><text fill="#000000" font-family="sans-serif" font-size="11" lengthAdjust="spacing" textLength="78" x="89" y="450.0908">double longitude</text><rect fill="none" height="6" style="stroke:#C82930;stroke-width:1.0;" width="6" x="77" y="456.5078"/><text fill="#000000" font-family="sans-serif" font-size="11" lengthAdjust="spacing" textLength="53" x="89" y="463.9268">double sog</text><rect fill="none" height="6" style="stroke:#C82930;stroke-width:1.0;" width="6" x="77" y="470.3438"/><text fill="#000000" font-family="sans-serif" font-size="11" lengthAdjust="spacing" textLength="53" x="89" y="477.7627">double cog</text><rect fill="none" height="6" style="stroke:#C82930;stroke-width:1.0;" width="6" x="77" y="484.1797"/><text fill="#000000" font-family="sans-serif" font-size="11" lengthAdjust="spacing" textLength="73" x="89" y="491.5986">double heading</text><rect fill="none" height="6" style="stroke:#C82930;stroke-width:1.0;" width="6" x="77" y="498.0156"/><text fill="#000000" font-family="sans-serif" font-size="11" lengthAdjust="spacing" textLength="68" x="89" y="505.4346">String position</text><rect fill="none" height="6" style="stroke:#C82930;stroke-width:1.0;" width="6" x="77" y="511.8516"/><text fill="#000000" font-family="sans-serif" font-size="11" lengthAdjust="spacing" textLength="86" x="89" y="519.2705">String transceiver</text><line style="stroke:#A80036;stroke-width:1.5;" x1="70" x2="235" y1="525.6875" y2="525.6875"/><!--MD5=[ddaf6f62b0bc30921877ec9fb9463c9f]
class TrafficManager--><rect codeLine="28" fill="#FEFECE" filter="url(#f16117svgt4oz5)" height="48" id="TrafficManager" style="stroke:#A80036;stroke-width:1.5;" width="113" x="96" y="7"/><ellipse cx="111" cy="23" fill="#ADD1B2" rx="11" ry="11" style="stroke:#A80036;stroke-width:1.0;"/><path d="M113,19.5 Q113.2031,19 113.4375,18.75 Q113.6719,18.5 113.9375,18.5 Q114.4063,18.5 114.7031,18.7813 Q115,19.0625 115,19.7188 L115,21.2813 Q115,21.9375 114.7188,22.2188 Q114.4375,22.5 114,22.5 Q113.6094,22.5 113.3594,22.3281 Q113.1094,22.1563 113,21.7031 Q112.9531,21.3906 112.7813,21.2188 Q112.4688,20.8906 111.9063,20.7031 Q111.3438,20.5 110.7813,20.5 Q110.0781,20.5 109.4844,20.7813 Q108.9063,21.0625 108.4531,21.6875 Q108,22.3125 108,23.1719 L108,24.0938 Q108,25.125 108.8438,25.8125 Q109.6875,26.5 111.1875,26.5 Q112.0781,26.5 112.7031,26.2969 Q113.0625,26.1875 113.4688,25.8281 Q113.7344,25.625 113.875,25.5625 Q114.0156,25.5 114.1875,25.5 Q114.5156,25.5 114.75,25.7656 Q115,26.0156 115,26.375 Q115,26.7188 114.6563,27.125 Q114.1563,27.7188 113.3594,28.0469 Q112.3125,28.5 111.0313,28.5 Q109.5313,28.5 108.3281,27.9063 Q107.3594,27.4375 106.6719,26.4219 Q106,25.4063 106,24.2031 L106,23.1094 Q106,21.8594 106.5938,20.7656 Q107.2031,19.6719 108.25,19.0938 Q109.3125,18.5 110.5,18.5 Q111.2188,18.5 111.8438,18.75 Q112.4688,19 113,19.5 Z " fill="#000000"/><text fill="#000000" font-family="sans-serif" font-size="12" lengthAdjust="spacing" textLength="81" x="125" y="27.9102">TrafficManager</text><line style="stroke:#A80036;stroke-width:1.5;" x1="97" x2="208" y1="39" y2="39"/><line style="stroke:#A80036;stroke-width:1.5;" x1="97" x2="208" y1="47" y2="47"/><!--MD5=[40e2b5717560220ad35e84810a8f1b44]
link TrafficManager to Ship--><path codeLine="31" d="M144.14,55.05 C138.88,69.55 131.69,89.38 124.17,110.13 " fill="none" id="TrafficManager-to-Ship" style="stroke:#A80036;stroke-width:1.0;"/><polygon fill="#A80036" points="122.45,114.86,129.2727,107.7572,124.1507,110.1581,121.7497,105.0361,122.45,114.86" style="stroke:#A80036;stroke-width:1.0;"/><!--MD5=[1e69cd863d6f5ca5607385afe475edd4]
link TrafficManager to PositionData--><path codeLine="32" d="M163.78,55.33 C171.01,71.62 179.73,94.11 183.5,115 C199.3,202.47 193.27,226.65 183.5,315 C181.52,332.91 178.14,351.89 174.33,369.86 " fill="none" id="TrafficManager-to-PositionData" style="stroke:#A80036;stroke-width:1.0;"/><polygon fill="#A80036" points="173.24,374.9,179.0529,366.9495,174.2974,370.0131,171.2338,365.2576,173.24,374.9" style="stroke:#A80036;stroke-width:1.0;"/><!--MD5=[4ecb15d40b17a59ad1d15f6358f645dd]
reverse link Ship to PositionData--><path codeLine="33" d="M117.55,327.73 C121.98,343.67 126.46,359.78 130.66,374.9 " fill="none" id="Ship-backto-PositionData" style="stroke:#A80036;stroke-width:1.0;"/><polygon fill="#A80036" points="114.01,315,111.7646,321.8526,117.2265,326.5609,119.4719,319.7083,114.01,315" style="stroke:#A80036;stroke-width:1.0;"/><!--MD5=[add374ec44237a468bb6d5e50ba59d1f]
@startuml

class Ship {

    -int MMSI <<b>PK>
    -String name
    -int IMO
    -int numberEnergyGenerator
    -int powerOutput
    -String callSign
    -int vesselType
    -double length
    -double width
    -int maximumCapacity
    -double draft
}

class PositionData{
    -LocalDateTime baseDateTime
    -double latitude
    -double longitude
    -double sog
    -double cog
    -double heading
    -String position
    -String transceiver
}

class TrafficManager{
}

TrafficManager - -> Ship
TrafficManager - -> PositionData
Ship *- - PositionData

@enduml

PlantUML version 1.2021.11(Sat Oct 02 14:26:11 BST 2021)
(GPL source distribution)
Java Runtime: OpenJDK Runtime Environment
JVM: OpenJDK 64-Bit Server VM
Default Encoding: Cp1252
Language: pt
Country: PT
--></g></svg>