<?xml version="1.0" encoding="UTF-8" standalone="no"?><svg xmlns="http://www.w3.org/2000/svg" xmlns:xlink="http://www.w3.org/1999/xlink" contentScriptType="application/ecmascript" contentStyleType="text/css" height="1031.8px" preserveAspectRatio="none" style="width:1322px;height:1031px;background:#FFFFFF;" version="1.1" viewBox="0 0 1322 1031" width="1323px" zoomAndPan="magnify"><defs><filter height="300%" id="foef7zsl19e4k" width="300%" x="-1" y="-1"><feGaussianBlur result="blurOut" stdDeviation="2.7999999999999994"/><feColorMatrix in="blurOut" result="blurOut2" type="matrix" values="0 0 0 0 0 0 0 0 0 0 0 0 0 0 0 0 0 0 .4 0"/><feOffset dx="5.599999999999999" dy="5.599999999999999" in="blurOut2" result="blurOut3"/><feBlend in="SourceGraphic" in2="blurOut3" mode="normal"/></filter></defs><g><rect fill="#FFFFFF" filter="url(#foef7zsl19e4k)" height="42.4922" style="stroke:#A80036;stroke-width:1.3999999999999997;" width="14" x="322" y="170.7453"/><rect fill="#FFFFFF" filter="url(#foef7zsl19e4k)" height="631.4437" style="stroke:#A80036;stroke-width:1.3999999999999997;" width="14" x="322" y="255.7297"/><rect fill="#FFFFFF" filter="url(#foef7zsl19e4k)" height="276.7297" style="stroke:#A80036;stroke-width:1.3999999999999997;" width="14" x="505.4" y="333.7141"/><rect fill="#FFFFFF" filter="url(#foef7zsl19e4k)" height="49.4922" style="stroke:#A80036;stroke-width:1.3999999999999997;" width="14" x="505.4" y="724.8281"/><rect fill="#FFFFFF" filter="url(#foef7zsl19e4k)" height="42" style="stroke:#A80036;stroke-width:1.3999999999999997;" width="14" x="750.4" y="376.2062"/><rect fill="#FFFFFF" filter="url(#foef7zsl19e4k)" height="42.4922" style="stroke:#A80036;stroke-width:1.3999999999999997;" width="14" x="910.7" y="460.6984"/><rect fill="#FFFFFF" filter="url(#foef7zsl19e4k)" height="153.5844" style="stroke:#A80036;stroke-width:1.3999999999999997;" width="14" x="910.7" y="568.4437"/><rect fill="#FFFFFF" filter="url(#foef7zsl19e4k)" height="569.3516" style="stroke:#000000;stroke-width:2.7999999999999994;" width="1056.3" x="247.8" y="276.7297"/><line style="stroke:#A80036;stroke-width:1.3999999999999997;stroke-dasharray:5.0,5.0;" x1="78.4" x2="78.4" y1="125.4531" y2="912.3734"/><line style="stroke:#A80036;stroke-width:1.3999999999999997;stroke-dasharray:5.0,5.0;" x1="329" x2="329" y1="125.4531" y2="912.3734"/><line style="stroke:#A80036;stroke-width:1.3999999999999997;stroke-dasharray:5.0,5.0;" x1="512.4" x2="512.4" y1="125.4531" y2="912.3734"/><line style="stroke:#A80036;stroke-width:1.3999999999999997;stroke-dasharray:5.0,5.0;" x1="757.4" x2="757.4" y1="125.4531" y2="912.3734"/><line style="stroke:#A80036;stroke-width:1.3999999999999997;stroke-dasharray:5.0,5.0;" x1="917" x2="917" y1="125.4531" y2="912.3734"/><line style="stroke:#A80036;stroke-width:1.3999999999999997;stroke-dasharray:5.0,5.0;" x1="1124.9" x2="1124.9" y1="518.525" y2="912.3734"/><line style="stroke:#A80036;stroke-width:1.3999999999999997;stroke-dasharray:5.0,5.0;" x1="1242.5" x2="1242.5" y1="808.5547" y2="912.3734"/><text fill="#000000" font-family="sans-serif" font-size="19.6" lengthAdjust="spacing" textLength="134.4" x="7" y="121.1465">TrafficManager</text><ellipse cx="78.4" cy="21" fill="#FEFECE" filter="url(#foef7zsl19e4k)" rx="11.2" ry="11.2" style="stroke:#A80036;stroke-width:2.7999999999999994;"/><path d="M78.4,32.2 L78.4,70 M60.2,43.4 L96.6,43.4 M78.4,70 L60.2,91 M78.4,70 L96.6,91 " fill="none" filter="url(#foef7zsl19e4k)" style="stroke:#A80036;stroke-width:2.7999999999999994;"/><text fill="#000000" font-family="sans-serif" font-size="19.6" lengthAdjust="spacing" textLength="134.4" x="7" y="931.3199">TrafficManager</text><ellipse cx="78.4" cy="949.6266" fill="#FEFECE" filter="url(#foef7zsl19e4k)" rx="11.2" ry="11.2" style="stroke:#A80036;stroke-width:2.7999999999999994;"/><path d="M78.4,960.8266 L78.4,998.6266 M60.2,972.0266 L96.6,972.0266 M78.4,998.6266 L60.2,1019.6266 M78.4,998.6266 L96.6,1019.6266 " fill="none" filter="url(#foef7zsl19e4k)" style="stroke:#A80036;stroke-width:2.7999999999999994;"/><rect fill="#FEFECE" filter="url(#foef7zsl19e4k)" height="44.2531" style="stroke:#A80036;stroke-width:2.0999999999999996;" width="128.8" x="261.8" y="74.2"/><text fill="#000000" font-family="sans-serif" font-size="19.6" lengthAdjust="spacing" textLength="109.2" x="271.6" y="104.3465">:importFileUI</text><rect fill="#FEFECE" filter="url(#foef7zsl19e4k)" height="44.2531" style="stroke:#A80036;stroke-width:2.0999999999999996;" width="128.8" x="261.8" y="910.9734"/><text fill="#000000" font-family="sans-serif" font-size="19.6" lengthAdjust="spacing" textLength="109.2" x="271.6" y="941.1199">:importFileUI</text><rect fill="#FEFECE" filter="url(#foef7zsl19e4k)" height="44.2531" style="stroke:#A80036;stroke-width:2.0999999999999996;" width="198.8" x="410.2" y="74.2"/><text fill="#000000" font-family="sans-serif" font-size="19.6" lengthAdjust="spacing" textLength="179.2" x="420" y="104.3465">:importFileController</text><rect fill="#FEFECE" filter="url(#foef7zsl19e4k)" height="44.2531" style="stroke:#A80036;stroke-width:2.0999999999999996;" width="198.8" x="410.2" y="910.9734"/><text fill="#000000" font-family="sans-serif" font-size="19.6" lengthAdjust="spacing" textLength="179.2" x="420" y="941.1199">:importFileController</text><rect fill="#FEFECE" filter="url(#foef7zsl19e4k)" height="44.2531" style="stroke:#A80036;stroke-width:2.0999999999999996;" width="109.2" x="700" y="74.2"/><text fill="#000000" font-family="sans-serif" font-size="19.6" lengthAdjust="spacing" textLength="89.6" x="709.8" y="104.3465">:Company</text><rect fill="#FEFECE" filter="url(#foef7zsl19e4k)" height="44.2531" style="stroke:#A80036;stroke-width:2.0999999999999996;" width="109.2" x="700" y="910.9734"/><text fill="#000000" font-family="sans-serif" font-size="19.6" lengthAdjust="spacing" textLength="89.6" x="709.8" y="941.1199">:Company</text><rect fill="#FEFECE" filter="url(#foef7zsl19e4k)" height="44.2531" style="stroke:#A80036;stroke-width:2.0999999999999996;" width="172.2" x="828.8" y="74.2"/><text fill="#000000" font-family="sans-serif" font-size="19.6" lengthAdjust="spacing" textLength="152.6" x="838.6" y="104.3465">import: importFile</text><rect fill="#FEFECE" filter="url(#foef7zsl19e4k)" height="44.2531" style="stroke:#A80036;stroke-width:2.0999999999999996;" width="172.2" x="828.8" y="910.9734"/><text fill="#000000" font-family="sans-serif" font-size="19.6" lengthAdjust="spacing" textLength="152.6" x="838.6" y="941.1199">import: importFile</text><rect fill="#FEFECE" filter="url(#foef7zsl19e4k)" height="44.2531" style="stroke:#A80036;stroke-width:2.0999999999999996;" width="106.4" x="1068.9" y="910.9734"/><text fill="#000000" font-family="sans-serif" font-size="19.6" lengthAdjust="spacing" textLength="86.8" x="1078.7" y="941.1199">ship: Ship</text><text fill="#000000" font-family="sans-serif" font-size="19.6" lengthAdjust="spacing" textLength="86.8" x="1194.9" y="931.3199">DataBase</text><path d="M1217.3,949.6266 C1217.3,935.6266 1242.5,935.6266 1242.5,935.6266 C1242.5,935.6266 1267.7,935.6266 1267.7,949.6266 L1267.7,986.0266 C1267.7,1000.0266 1242.5,1000.0266 1242.5,1000.0266 C1242.5,1000.0266 1217.3,1000.0266 1217.3,986.0266 L1217.3,949.6266 " fill="#FEFECE" filter="url(#foef7zsl19e4k)" style="stroke:#000000;stroke-width:2.0999999999999996;"/><path d="M1217.3,949.6266 C1217.3,963.6266 1242.5,963.6266 1242.5,963.6266 C1242.5,963.6266 1267.7,963.6266 1267.7,949.6266 " fill="none" style="stroke:#000000;stroke-width:2.0999999999999996;"/><rect fill="#FFFFFF" filter="url(#foef7zsl19e4k)" height="42.4922" style="stroke:#A80036;stroke-width:1.3999999999999997;" width="14" x="322" y="170.7453"/><rect fill="#FFFFFF" filter="url(#foef7zsl19e4k)" height="631.4437" style="stroke:#A80036;stroke-width:1.3999999999999997;" width="14" x="322" y="255.7297"/><rect fill="#FFFFFF" filter="url(#foef7zsl19e4k)" height="276.7297" style="stroke:#A80036;stroke-width:1.3999999999999997;" width="14" x="505.4" y="333.7141"/><rect fill="#FFFFFF" filter="url(#foef7zsl19e4k)" height="49.4922" style="stroke:#A80036;stroke-width:1.3999999999999997;" width="14" x="505.4" y="724.8281"/><rect fill="#FFFFFF" filter="url(#foef7zsl19e4k)" height="42" style="stroke:#A80036;stroke-width:1.3999999999999997;" width="14" x="750.4" y="376.2062"/><rect fill="#FFFFFF" filter="url(#foef7zsl19e4k)" height="42.4922" style="stroke:#A80036;stroke-width:1.3999999999999997;" width="14" x="910.7" y="460.6984"/><rect fill="#FFFFFF" filter="url(#foef7zsl19e4k)" height="153.5844" style="stroke:#A80036;stroke-width:1.3999999999999997;" width="14" x="910.7" y="568.4437"/><polygon fill="#A80036" points="305.2,165.1453,319.2,170.7453,305.2,176.3453,310.8,170.7453" style="stroke:#A80036;stroke-width:1.3999999999999997;"/><line style="stroke:#A80036;stroke-width:1.3999999999999997;" x1="78.4" x2="313.6" y1="170.7453" y2="170.7453"/><text fill="#000000" font-family="sans-serif" font-size="18.2" font-weight="bold" lengthAdjust="spacing" textLength="9.8" x="88.2" y="163.9463">1</text><text fill="#000000" font-family="sans-serif" font-size="18.2" lengthAdjust="spacing" textLength="201.6" x="103.6" y="163.9463">Import text file with ships</text><polygon fill="#A80036" points="93.8,207.6375,79.8,213.2375,93.8,218.8375,88.2,213.2375" style="stroke:#A80036;stroke-width:1.3999999999999997;"/><line style="stroke:#A80036;stroke-width:1.3999999999999997;stroke-dasharray:2.0,2.0;" x1="85.4" x2="327.6" y1="213.2375" y2="213.2375"/><text fill="#000000" font-family="sans-serif" font-size="18.2" font-weight="bold" lengthAdjust="spacing" textLength="9.8" x="102.2" y="206.4385">2</text><text fill="#000000" font-family="sans-serif" font-size="18.2" lengthAdjust="spacing" textLength="131.6" x="117.6" y="206.4385">Request text file</text><polygon fill="#A80036" points="305.2,250.1297,319.2,255.7297,305.2,261.3297,310.8,255.7297" style="stroke:#A80036;stroke-width:1.3999999999999997;"/><line style="stroke:#A80036;stroke-width:1.3999999999999997;" x1="78.4" x2="313.6" y1="255.7297" y2="255.7297"/><text fill="#000000" font-family="sans-serif" font-size="18.2" font-weight="bold" lengthAdjust="spacing" textLength="9.8" x="88.2" y="248.9307">3</text><text fill="#000000" font-family="sans-serif" font-size="18.2" lengthAdjust="spacing" textLength="126" x="103.6" y="248.9307">Choose text file</text><path d="M247.8,276.7297 L350,276.7297 L350,287.9297 L336,301.9297 L247.8,301.9297 L247.8,276.7297 " fill="#EEEEEE" style="stroke:#000000;stroke-width:1.3999999999999997;"/><rect fill="none" height="569.3516" style="stroke:#000000;stroke-width:2.7999999999999994;" width="1056.3" x="247.8" y="276.7297"/><text fill="#000000" font-family="sans-serif" font-size="18.2" font-weight="bold" lengthAdjust="spacing" textLength="39.2" x="268.8" y="297.0229">loop</text><text fill="#000000" font-family="sans-serif" font-size="15.4" font-weight="bold" lengthAdjust="spacing" textLength="120.4" x="371" y="295.5162">[txt_size times]</text><polygon fill="#A80036" points="488.6,328.1141,502.6,333.7141,488.6,339.3141,494.2,333.7141" style="stroke:#A80036;stroke-width:1.3999999999999997;"/><line style="stroke:#A80036;stroke-width:1.3999999999999997;" x1="336" x2="497" y1="333.7141" y2="333.7141"/><text fill="#000000" font-family="sans-serif" font-size="18.2" font-weight="bold" lengthAdjust="spacing" textLength="9.8" x="345.8" y="326.915">4</text><text fill="#000000" font-family="sans-serif" font-size="18.2" lengthAdjust="spacing" textLength="124.6" x="361.2" y="326.915">newShip(........)</text><polygon fill="#A80036" points="733.6,370.6062,747.6,376.2062,733.6,381.8062,739.2,376.2062" style="stroke:#A80036;stroke-width:1.3999999999999997;"/><line style="stroke:#A80036;stroke-width:1.3999999999999997;" x1="519.4" x2="742" y1="376.2062" y2="376.2062"/><text fill="#000000" font-family="sans-serif" font-size="18.2" font-weight="bold" lengthAdjust="spacing" textLength="9.8" x="529.2" y="369.4072">5</text><text fill="#000000" font-family="sans-serif" font-size="18.2" lengthAdjust="spacing" textLength="189" x="544.6" y="369.4072">import = getImportFile()</text><polygon fill="#A80036" points="893.9,455.0984,907.9,460.6984,893.9,466.2984,899.5,460.6984" style="stroke:#A80036;stroke-width:1.3999999999999997;"/><line style="stroke:#A80036;stroke-width:1.3999999999999997;" x1="519.4" x2="902.3" y1="460.6984" y2="460.6984"/><text fill="#000000" font-family="sans-serif" font-size="18.2" font-weight="bold" lengthAdjust="spacing" textLength="9.8" x="529.2" y="453.8994">6</text><text fill="#000000" font-family="sans-serif" font-size="18.2" lengthAdjust="spacing" textLength="169.4" x="544.6" y="453.8994">ship = newShip(......)</text><polygon fill="#A80036" points="1052.1,497.5906,1066.1,503.1906,1052.1,508.7906,1057.7,503.1906" style="stroke:#A80036;stroke-width:1.3999999999999997;"/><line style="stroke:#A80036;stroke-width:1.3999999999999997;" x1="917.7" x2="1060.5" y1="503.1906" y2="503.1906"/><text fill="#000000" font-family="sans-serif" font-size="18.2" font-weight="bold" lengthAdjust="spacing" textLength="9.8" x="927.5" y="496.3916">7</text><text fill="#000000" font-family="sans-serif" font-size="18.2" lengthAdjust="spacing" textLength="95.2" x="942.9" y="496.3916">create(......)</text><rect fill="#FEFECE" filter="url(#foef7zsl19e4k)" height="44.2531" style="stroke:#A80036;stroke-width:2.0999999999999996;" width="106.4" x="1068.9" y="471.8984"/><text fill="#000000" font-family="sans-serif" font-size="19.6" lengthAdjust="spacing" textLength="86.8" x="1078.7" y="502.0449">ship: Ship</text><polygon fill="#A80036" points="893.9,562.8437,907.9,568.4437,893.9,574.0437,899.5,568.4437" style="stroke:#A80036;stroke-width:1.3999999999999997;"/><line style="stroke:#A80036;stroke-width:1.3999999999999997;" x1="519.4" x2="902.3" y1="568.4437" y2="568.4437"/><text fill="#000000" font-family="sans-serif" font-size="18.2" font-weight="bold" lengthAdjust="spacing" textLength="9.8" x="529.2" y="561.6447">8</text><text fill="#000000" font-family="sans-serif" font-size="18.2" lengthAdjust="spacing" textLength="126" x="544.6" y="561.6447">registShip(ship)</text><line style="stroke:#A80036;stroke-width:1.3999999999999997;" x1="924.7" x2="983.5" y1="652.9359" y2="652.9359"/><line style="stroke:#A80036;stroke-width:1.3999999999999997;" x1="983.5" x2="983.5" y1="652.9359" y2="671.1359"/><line style="stroke:#A80036;stroke-width:1.3999999999999997;" x1="926.1" x2="983.5" y1="671.1359" y2="671.1359"/><polygon fill="#A80036" points="940.1,665.5359,926.1,671.1359,940.1,676.7359,934.5,671.1359" style="stroke:#A80036;stroke-width:1.3999999999999997;"/><text fill="#000000" font-family="sans-serif" font-size="18.2" font-weight="bold" lengthAdjust="spacing" textLength="9.8" x="934.5" y="646.1369">9</text><text fill="#000000" font-family="sans-serif" font-size="18.2" lengthAdjust="spacing" textLength="141.4" x="949.9" y="646.1369">validateShip(ship)</text><line style="stroke:#A80036;stroke-width:1.3999999999999997;" x1="931.7" x2="990.5" y1="713.6281" y2="713.6281"/><line style="stroke:#A80036;stroke-width:1.3999999999999997;" x1="990.5" x2="990.5" y1="713.6281" y2="731.8281"/><line style="stroke:#A80036;stroke-width:1.3999999999999997;" x1="933.1" x2="990.5" y1="731.8281" y2="731.8281"/><polygon fill="#A80036" points="947.1,726.2281,933.1,731.8281,947.1,737.4281,941.5,731.8281" style="stroke:#A80036;stroke-width:1.3999999999999997;"/><text fill="#000000" font-family="sans-serif" font-size="18.2" font-weight="bold" lengthAdjust="spacing" textLength="19.6" x="941.5" y="706.8291">10</text><text fill="#000000" font-family="sans-serif" font-size="18.2" lengthAdjust="spacing" textLength="110.6" x="966.7" y="706.8291">addShip(ship)</text><polygon fill="#A80036" points="1178.1,768.7203,1192.1,774.3203,1178.1,779.9203,1183.7,774.3203" style="stroke:#A80036;stroke-width:1.3999999999999997;"/><line style="stroke:#A80036;stroke-width:1.3999999999999997;" x1="512.4" x2="1186.5" y1="774.3203" y2="774.3203"/><text fill="#000000" font-family="sans-serif" font-size="18.2" font-weight="bold" lengthAdjust="spacing" textLength="19.6" x="522.2" y="767.5213">11</text><text fill="#000000" font-family="sans-serif" font-size="18.2" lengthAdjust="spacing" textLength="81.2" x="547.4" y="767.5213">save(ship)</text><text fill="#000000" font-family="sans-serif" font-size="19.6" lengthAdjust="spacing" textLength="86.8" x="1194.9" y="827.7746">DataBase</text><path d="M1217.3,757.0281 C1217.3,743.0281 1242.5,743.0281 1242.5,743.0281 C1242.5,743.0281 1267.7,743.0281 1267.7,757.0281 L1267.7,793.4281 C1267.7,807.4281 1242.5,807.4281 1242.5,807.4281 C1242.5,807.4281 1217.3,807.4281 1217.3,793.4281 L1217.3,757.0281 " fill="#FEFECE" filter="url(#foef7zsl19e4k)" style="stroke:#000000;stroke-width:2.0999999999999996;"/><path d="M1217.3,757.0281 C1217.3,771.0281 1242.5,771.0281 1242.5,771.0281 C1242.5,771.0281 1267.7,771.0281 1267.7,757.0281 " fill="none" style="stroke:#000000;stroke-width:2.0999999999999996;"/><polygon fill="#A80036" points="93.8,881.5734,79.8,887.1734,93.8,892.7734,88.2,887.1734" style="stroke:#A80036;stroke-width:1.3999999999999997;"/><line style="stroke:#A80036;stroke-width:1.3999999999999997;stroke-dasharray:2.0,2.0;" x1="85.4" x2="327.6" y1="887.1734" y2="887.1734"/><text fill="#000000" font-family="sans-serif" font-size="18.2" font-weight="bold" lengthAdjust="spacing" textLength="19.6" x="102.2" y="880.3744">12</text><text fill="#000000" font-family="sans-serif" font-size="18.2" lengthAdjust="spacing" textLength="170.8" x="127.4" y="880.3744">Operation successful</text><!--MD5=[05cfc652e5ba8056ccb1089eb36e8255]
@startuml

autonumber

actor       TrafficManager             as TM
participant    ":importFileUI"         as UI
participant    ":ImportFileController" as CTRL
participant    ":Company"              as Company
participant    "import: importFile"    as Model
participant    "ship: Ship"            as Ship
database       "DataBase"              as db

TM -> UI : Import text file with ships
activate UI
UI - -> TM: Request text file
deactivate UI

TM -> UI : Choose text file
activate UI
loop txt_size times
    UI -> CTRL : newShip(........)
    activate CTRL
    CTRL -> Company : import = getImportFile()
    activate Company
    deactivate Company

    CTRL -> Model : ship = newShip(......)
    activate Model
    Model -> Ship ** : create(......)
    deactivate Model

    CTRL -> Model : registShip(ship)
    activate Model

    deactivate CTRL

    Model -> Model : validateShip(ship)
    Model -> Model : addShip(ship)
    deactivate Model

    activate CTRL

    CTRL -> db ** : save(ship)

    deactivate CTRL


end

UI - -> TM : Operation successful
deactivate UI








@enduml

PlantUML version 1.2021.11(Sat Oct 02 14:26:11 BST 2021)
(GPL source distribution)
Java Runtime: OpenJDK Runtime Environment
JVM: OpenJDK 64-Bit Server VM
Default Encoding: Cp1252
Language: pt
Country: PT
--></g></svg>