<?xml version="1.0" encoding="UTF-8" standalone="no"?><svg xmlns="http://www.w3.org/2000/svg" xmlns:xlink="http://www.w3.org/1999/xlink" contentScriptType="application/ecmascript" contentStyleType="text/css" height="92px" preserveAspectRatio="none" style="width:295px;height:92px;background:#FFFFFF;" version="1.1" viewBox="0 0 295 92" width="295px" zoomAndPan="magnify"><defs><filter height="300%" id="f1amghl4xvrljw" width="300%" x="-1" y="-1"><feGaussianBlur result="blurOut" stdDeviation="2.0"/><feColorMatrix in="blurOut" result="blurOut2" type="matrix" values="0 0 0 0 0 0 0 0 0 0 0 0 0 0 0 0 0 0 .4 0"/><feOffset dx="4.0" dy="4.0" in="blurOut2" result="blurOut3"/><feBlend in="SourceGraphic" in2="blurOut3" mode="normal"/></filter></defs><g><!--MD5=[0df76b11901060285841ae4a7fa8110c]
entity Syst--><ellipse cx="265" cy="14" fill="#FEFECE" filter="url(#f1amghl4xvrljw)" rx="8" ry="8" style="stroke:#A80036;stroke-width:1.5;"/><path d="M265,22 L265,49 M252,30 L278,30 M265,49 L252,64 M265,49 L278,64 " fill="none" filter="url(#f1amghl4xvrljw)" style="stroke:#A80036;stroke-width:1.5;"/><text fill="#000000" font-family="sans-serif" font-size="14" lengthAdjust="spacing" textLength="46" x="242" y="84.0332">System</text><!--MD5=[c6ddddda358f072e4f19aa798de5fbe9]
entity TM--><ellipse cx="56" cy="14" fill="#FEFECE" filter="url(#f1amghl4xvrljw)" rx="8" ry="8" style="stroke:#A80036;stroke-width:1.5;"/><path d="M56,22 L56,49 M43,30 L69,30 M56,49 L43,64 M56,49 L69,64 " fill="none" filter="url(#f1amghl4xvrljw)" style="stroke:#A80036;stroke-width:1.5;"/><text fill="#000000" font-family="sans-serif" font-size="14" lengthAdjust="spacing" textLength="100" x="6" y="84.0332">Traffic Manager</text><ellipse cx="174.1985" cy="45.9517" fill="#FEFECE" filter="url(#f1amghl4xvrljw)" rx="32.6985" ry="15.4517" style="stroke:#A80036;stroke-width:1.5;"/><text fill="#000000" font-family="sans-serif" font-size="14" lengthAdjust="spacing" textLength="30" x="159.1985" y="49.6802">Start</text><!--MD5=[4ed5c9ed286af3dad982c9d63704cd86]
link TM to Start--><path d="M106.24,46 C116.23,46 126.23,46 136.22,46 " fill="none" id="TM-to-Start" style="stroke:#A80036;stroke-width:1.0;"/><polygon fill="#A80036" points="141.44,46,132.44,42,136.44,46,132.44,50,141.44,46" style="stroke:#A80036;stroke-width:1.0;"/><!--MD5=[2df965e348d4b960d232d95bd4ab0184]
@startuml
'https://plantuml.com/use-case-diagram

:System: as Syst
:Traffic Manager: as TM

TM -> (Start)



@enduml

@startuml

:System: as Syst
:Traffic Manager: as TM

TM -> (Start)



@enduml

PlantUML version 1.2021.11(Sat Oct 02 14:26:11 BST 2021)
(GPL source distribution)
Java Runtime: OpenJDK Runtime Environment
JVM: OpenJDK 64-Bit Server VM
Default Encoding: Cp1252
Language: pt
Country: PT
--></g></svg>