<?xml version="1.0" encoding="UTF-8" standalone="no"?><svg xmlns="http://www.w3.org/2000/svg" xmlns:xlink="http://www.w3.org/1999/xlink" contentScriptType="application/ecmascript" contentStyleType="text/css" height="329px" preserveAspectRatio="none" style="width:180px;height:329px;background:#FFFFFF;" version="1.1" viewBox="0 0 180 329" width="180px" zoomAndPan="magnify"><defs><filter height="300%" id="f19bxb7wwmqpre" width="300%" x="-1" y="-1"><feGaussianBlur result="blurOut" stdDeviation="2.0"/><feColorMatrix in="blurOut" result="blurOut2" type="matrix" values="0 0 0 0 0 0 0 0 0 0 0 0 0 0 0 0 0 0 .4 0"/><feOffset dx="4.0" dy="4.0" in="blurOut2" result="blurOut3"/><feBlend in="SourceGraphic" in2="blurOut3" mode="normal"/></filter></defs><g><!--MD5=[0dc7f2ddb409b58bcf52b12238c25399]
class Ship--><rect codeLine="2" fill="#FEFECE" filter="url(#f19bxb7wwmqpre)" height="200.1953" id="Ship" style="stroke:#A80036;stroke-width:1.5;" width="159" x="7" y="115"/><ellipse cx="69.75" cy="131" fill="#ADD1B2" rx="11" ry="11" style="stroke:#A80036;stroke-width:1.0;"/><path d="M71.75,127.5 Q71.9531,127 72.1875,126.75 Q72.4219,126.5 72.6875,126.5 Q73.1563,126.5 73.4531,126.7813 Q73.75,127.0625 73.75,127.7188 L73.75,129.2813 Q73.75,129.9375 73.4688,130.2188 Q73.1875,130.5 72.75,130.5 Q72.3594,130.5 72.1094,130.3281 Q71.8594,130.1563 71.75,129.7031 Q71.7031,129.3906 71.5313,129.2188 Q71.2188,128.8906 70.6563,128.7031 Q70.0938,128.5 69.5313,128.5 Q68.8281,128.5 68.2344,128.7813 Q67.6563,129.0625 67.2031,129.6875 Q66.75,130.3125 66.75,131.1719 L66.75,132.0938 Q66.75,133.125 67.5938,133.8125 Q68.4375,134.5 69.9375,134.5 Q70.8281,134.5 71.4531,134.2969 Q71.8125,134.1875 72.2188,133.8281 Q72.4844,133.625 72.625,133.5625 Q72.7656,133.5 72.9375,133.5 Q73.2656,133.5 73.5,133.7656 Q73.75,134.0156 73.75,134.375 Q73.75,134.7188 73.4063,135.125 Q72.9063,135.7188 72.1094,136.0469 Q71.0625,136.5 69.7813,136.5 Q68.2813,136.5 67.0781,135.9063 Q66.1094,135.4375 65.4219,134.4219 Q64.75,133.4063 64.75,132.2031 L64.75,131.1094 Q64.75,129.8594 65.3438,128.7656 Q65.9531,127.6719 67,127.0938 Q68.0625,126.5 69.25,126.5 Q69.9688,126.5 70.5938,126.75 Q71.2188,127 71.75,127.5 Z " fill="#000000"/><text fill="#000000" font-family="sans-serif" font-size="12" lengthAdjust="spacing" textLength="25" x="90.25" y="135.9102">Ship</text><line style="stroke:#A80036;stroke-width:1.5;" x1="8" x2="165" y1="147" y2="147"/><rect fill="none" height="6" style="stroke:#C82930;stroke-width:1.0;" width="6" x="15" y="155"/><text fill="#000000" font-family="sans-serif" font-size="11" lengthAdjust="spacing" textLength="48" x="27" y="162.4189">int MMSI &lt;</text><text fill="#000000" font-family="sans-serif" font-size="11" font-weight="bold" lengthAdjust="spacing" textLength="20" x="75" y="162.4189">PK&gt;</text><rect fill="none" height="6" style="stroke:#C82930;stroke-width:1.0;" width="6" x="15" y="168.8359"/><text fill="#000000" font-family="sans-serif" font-size="11" lengthAdjust="spacing" textLength="57" x="27" y="176.2549">String name</text><rect fill="none" height="6" style="stroke:#C82930;stroke-width:1.0;" width="6" x="15" y="182.6719"/><text fill="#000000" font-family="sans-serif" font-size="11" lengthAdjust="spacing" textLength="32" x="27" y="190.0908">int IMO</text><rect fill="none" height="6" style="stroke:#C82930;stroke-width:1.0;" width="6" x="15" y="196.5078"/><text fill="#000000" font-family="sans-serif" font-size="11" lengthAdjust="spacing" textLength="133" x="27" y="203.9268">int numberEnergyGenerator</text><rect fill="none" height="6" style="stroke:#C82930;stroke-width:1.0;" width="6" x="15" y="210.3438"/><text fill="#000000" font-family="sans-serif" font-size="11" lengthAdjust="spacing" textLength="78" x="27" y="217.7627">int powerOutput</text><rect fill="none" height="6" style="stroke:#C82930;stroke-width:1.0;" width="6" x="15" y="224.1797"/><text fill="#000000" font-family="sans-serif" font-size="11" lengthAdjust="spacing" textLength="68" x="27" y="231.5986">String callSign</text><rect fill="none" height="6" style="stroke:#C82930;stroke-width:1.0;" width="6" x="15" y="238.0156"/><text fill="#000000" font-family="sans-serif" font-size="11" lengthAdjust="spacing" textLength="70" x="27" y="245.4346">int vesselType</text><rect fill="none" height="6" style="stroke:#C82930;stroke-width:1.0;" width="6" x="15" y="251.8516"/><text fill="#000000" font-family="sans-serif" font-size="11" lengthAdjust="spacing" textLength="64" x="27" y="259.2705">double length</text><rect fill="none" height="6" style="stroke:#C82930;stroke-width:1.0;" width="6" x="15" y="265.6875"/><text fill="#000000" font-family="sans-serif" font-size="11" lengthAdjust="spacing" textLength="62" x="27" y="273.1064">double width</text><rect fill="none" height="6" style="stroke:#C82930;stroke-width:1.0;" width="6" x="15" y="279.5234"/><text fill="#000000" font-family="sans-serif" font-size="11" lengthAdjust="spacing" textLength="100" x="27" y="286.9424">int maximumCapacity</text><rect fill="none" height="6" style="stroke:#C82930;stroke-width:1.0;" width="6" x="15" y="293.3594"/><text fill="#000000" font-family="sans-serif" font-size="11" lengthAdjust="spacing" textLength="58" x="27" y="300.7783">double draft</text><line style="stroke:#A80036;stroke-width:1.5;" x1="8" x2="165" y1="307.1953" y2="307.1953"/><!--MD5=[ddaf6f62b0bc30921877ec9fb9463c9f]
class TrafficManager--><rect codeLine="17" fill="#FEFECE" filter="url(#f19bxb7wwmqpre)" height="48" id="TrafficManager" style="stroke:#A80036;stroke-width:1.5;" width="113" x="30" y="7"/><ellipse cx="45" cy="23" fill="#ADD1B2" rx="11" ry="11" style="stroke:#A80036;stroke-width:1.0;"/><path d="M47,19.5 Q47.2031,19 47.4375,18.75 Q47.6719,18.5 47.9375,18.5 Q48.4063,18.5 48.7031,18.7813 Q49,19.0625 49,19.7188 L49,21.2813 Q49,21.9375 48.7188,22.2188 Q48.4375,22.5 48,22.5 Q47.6094,22.5 47.3594,22.3281 Q47.1094,22.1563 47,21.7031 Q46.9531,21.3906 46.7813,21.2188 Q46.4688,20.8906 45.9063,20.7031 Q45.3438,20.5 44.7813,20.5 Q44.0781,20.5 43.4844,20.7813 Q42.9063,21.0625 42.4531,21.6875 Q42,22.3125 42,23.1719 L42,24.0938 Q42,25.125 42.8438,25.8125 Q43.6875,26.5 45.1875,26.5 Q46.0781,26.5 46.7031,26.2969 Q47.0625,26.1875 47.4688,25.8281 Q47.7344,25.625 47.875,25.5625 Q48.0156,25.5 48.1875,25.5 Q48.5156,25.5 48.75,25.7656 Q49,26.0156 49,26.375 Q49,26.7188 48.6563,27.125 Q48.1563,27.7188 47.3594,28.0469 Q46.3125,28.5 45.0313,28.5 Q43.5313,28.5 42.3281,27.9063 Q41.3594,27.4375 40.6719,26.4219 Q40,25.4063 40,24.2031 L40,23.1094 Q40,21.8594 40.5938,20.7656 Q41.2031,19.6719 42.25,19.0938 Q43.3125,18.5 44.5,18.5 Q45.2188,18.5 45.8438,18.75 Q46.4688,19 47,19.5 Z " fill="#000000"/><text fill="#000000" font-family="sans-serif" font-size="12" lengthAdjust="spacing" textLength="81" x="59" y="27.9102">TrafficManager</text><line style="stroke:#A80036;stroke-width:1.5;" x1="31" x2="142" y1="39" y2="39"/><line style="stroke:#A80036;stroke-width:1.5;" x1="31" x2="142" y1="47" y2="47"/><!--MD5=[40e2b5717560220ad35e84810a8f1b44]
link TrafficManager to Ship--><path codeLine="20" d="M86.5,55.05 C86.5,69.42 86.5,89.05 86.5,109.61 " fill="none" id="TrafficManager-to-Ship" style="stroke:#A80036;stroke-width:1.0;"/><polygon fill="#A80036" points="86.5,114.86,90.5,105.86,86.5,109.86,82.5,105.86,86.5,114.86" style="stroke:#A80036;stroke-width:1.0;"/><!--MD5=[53906550a38c96378bf53977cc8c852d]
@startuml

class Ship {

    -int MMSI <<b>PK>
    -String name
    -int IMO
    -int numberEnergyGenerator
    -int powerOutput
    -String callSign
    -int vesselType
    -double length
    -double width
    -int maximumCapacity
    -double draft
}

class TrafficManager{
}

TrafficManager - -> Ship

@enduml

PlantUML version 1.2021.11(Sat Oct 02 14:26:11 BST 2021)
(GPL source distribution)
Java Runtime: OpenJDK Runtime Environment
JVM: OpenJDK 64-Bit Server VM
Default Encoding: Cp1252
Language: pt
Country: PT
--></g></svg>