<?xml version="1.0" encoding="UTF-8" standalone="no"?><svg xmlns="http://www.w3.org/2000/svg" xmlns:xlink="http://www.w3.org/1999/xlink" contentScriptType="application/ecmascript" contentStyleType="text/css" height="930px" preserveAspectRatio="none" style="width:1065px;height:930px;" version="1.1" viewBox="0 0 1065 930" width="1065px" zoomAndPan="magnify"><defs><filter height="300%" id="f1i3e9eomfc8zh" width="300%" x="-1" y="-1"><feGaussianBlur result="blurOut" stdDeviation="2.0"/><feColorMatrix in="blurOut" result="blurOut2" type="matrix" values="0 0 0 0 0 0 0 0 0 0 0 0 0 0 0 0 0 0 .4 0"/><feOffset dx="4.0" dy="4.0" in="blurOut2" result="blurOut3"/><feBlend in="SourceGraphic" in2="blurOut3" mode="normal"/></filter></defs><g><!--MD5=[e6b394b930674b2255938b8afe6bb7b4]
class ShipCaptain--><rect fill="#FEFECE" filter="url(#f1i3e9eomfc8zh)" height="48" id="ShipCaptain" style="stroke: #A80036; stroke-width: 1.5;" width="100" x="649.5" y="8"/><ellipse cx="664.5" cy="24" fill="#ADD1B2" rx="11" ry="11" style="stroke: #A80036; stroke-width: 1.0;"/><path d="M666.5,20.5 Q666.7031,20 666.9375,19.75 Q667.1719,19.5 667.4375,19.5 Q667.9063,19.5 668.2031,19.7813 Q668.5,20.0625 668.5,20.7188 L668.5,22.2813 Q668.5,22.9375 668.2188,23.2188 Q667.9375,23.5 667.5,23.5 Q667.1094,23.5 666.8594,23.3281 Q666.6094,23.1563 666.5,22.7031 Q666.4531,22.3906 666.2813,22.2188 Q665.9688,21.8906 665.4063,21.7031 Q664.8438,21.5 664.2813,21.5 Q663.5781,21.5 662.9844,21.7813 Q662.4063,22.0625 661.9531,22.6875 Q661.5,23.3125 661.5,24.1719 L661.5,25.0938 Q661.5,26.125 662.3438,26.8125 Q663.1875,27.5 664.6875,27.5 Q665.5781,27.5 666.2031,27.2969 Q666.5625,27.1875 666.9688,26.8281 Q667.2344,26.625 667.375,26.5625 Q667.5156,26.5 667.6875,26.5 Q668.0156,26.5 668.25,26.7656 Q668.5,27.0156 668.5,27.375 Q668.5,27.7188 668.1563,28.125 Q667.6563,28.7188 666.8594,29.0469 Q665.8125,29.5 664.5313,29.5 Q663.0313,29.5 661.8281,28.9063 Q660.8594,28.4375 660.1719,27.4219 Q659.5,26.4063 659.5,25.2031 L659.5,24.1094 Q659.5,22.8594 660.0938,21.7656 Q660.7031,20.6719 661.75,20.0938 Q662.8125,19.5 664,19.5 Q664.7188,19.5 665.3438,19.75 Q665.9688,20 666.5,20.5 Z "/><text fill="#000000" font-family="sans-serif" font-size="12" lengthAdjust="spacingAndGlyphs" textLength="68" x="678.5" y="28.9102">ShipCaptain</text><line style="stroke: #A80036; stroke-width: 1.5;" x1="650.5" x2="748.5" y1="40" y2="40"/><line style="stroke: #A80036; stroke-width: 1.5;" x1="650.5" x2="748.5" y1="48" y2="48"/><!--MD5=[3fd616f346a44cd59a91eb10b19e157c]
class User--><rect fill="#FEFECE" filter="url(#f1i3e9eomfc8zh)" height="89.5078" id="User" style="stroke: #A80036; stroke-width: 1.5;" width="107" x="946" y="147.5"/><ellipse cx="982.6" cy="163.5" fill="#ADD1B2" rx="11" ry="11" style="stroke: #A80036; stroke-width: 1.0;"/><path d="M984.6,160 Q984.8031,159.5 985.0375,159.25 Q985.2719,159 985.5375,159 Q986.0063,159 986.3031,159.2813 Q986.6,159.5625 986.6,160.2188 L986.6,161.7813 Q986.6,162.4375 986.3188,162.7188 Q986.0375,163 985.6,163 Q985.2094,163 984.9594,162.8281 Q984.7094,162.6563 984.6,162.2031 Q984.5531,161.8906 984.3813,161.7188 Q984.0688,161.3906 983.5063,161.2031 Q982.9438,161 982.3813,161 Q981.6781,161 981.0844,161.2813 Q980.5063,161.5625 980.0531,162.1875 Q979.6,162.8125 979.6,163.6719 L979.6,164.5938 Q979.6,165.625 980.4438,166.3125 Q981.2875,167 982.7875,167 Q983.6781,167 984.3031,166.7969 Q984.6625,166.6875 985.0688,166.3281 Q985.3344,166.125 985.475,166.0625 Q985.6156,166 985.7875,166 Q986.1156,166 986.35,166.2656 Q986.6,166.5156 986.6,166.875 Q986.6,167.2188 986.2563,167.625 Q985.7563,168.2188 984.9594,168.5469 Q983.9125,169 982.6313,169 Q981.1313,169 979.9281,168.4063 Q978.9594,167.9375 978.2719,166.9219 Q977.6,165.9063 977.6,164.7031 L977.6,163.6094 Q977.6,162.3594 978.1938,161.2656 Q978.8031,160.1719 979.85,159.5938 Q980.9125,159 982.1,159 Q982.8188,159 983.4438,159.25 Q984.0688,159.5 984.6,160 Z "/><text fill="#000000" font-family="sans-serif" font-size="12" lengthAdjust="spacingAndGlyphs" textLength="27" x="1001.4" y="168.4102">User</text><line style="stroke: #A80036; stroke-width: 1.5;" x1="947" x2="1052" y1="179.5" y2="179.5"/><rect fill="none" height="6" style="stroke: #C82930; stroke-width: 1.0;" width="6" x="954" y="187.5"/><text fill="#000000" font-family="sans-serif" font-size="11" lengthAdjust="spacingAndGlyphs" textLength="48" x="966" y="194.9189">String id &lt;</text><text fill="#000000" font-family="sans-serif" font-size="11" font-weight="bold" lengthAdjust="spacingAndGlyphs" textLength="20" x="1014" y="194.9189">PK&gt;</text><rect fill="none" height="6" style="stroke: #C82930; stroke-width: 1.0;" width="6" x="954" y="201.3359"/><text fill="#000000" font-family="sans-serif" font-size="11" lengthAdjust="spacingAndGlyphs" textLength="81" x="966" y="208.7549">String password</text><rect fill="none" height="6" style="stroke: #C82930; stroke-width: 1.0;" width="6" x="954" y="215.1719"/><text fill="#000000" font-family="sans-serif" font-size="11" lengthAdjust="spacingAndGlyphs" textLength="65" x="966" y="222.5908">UserRole role</text><line style="stroke: #A80036; stroke-width: 1.5;" x1="947" x2="1052" y1="229.0078" y2="229.0078"/><!--MD5=[45d42ff7800d812d5f83c7d3273eb427]
class UserRole--><rect fill="#FEFECE" filter="url(#f1i3e9eomfc8zh)" height="75.6719" id="UserRole" style="stroke: #A80036; stroke-width: 1.5;" width="110" x="944.5" y="329"/><ellipse cx="970.75" cy="345" fill="#ADD1B2" rx="11" ry="11" style="stroke: #A80036; stroke-width: 1.0;"/><path d="M972.75,341.5 Q972.9531,341 973.1875,340.75 Q973.4219,340.5 973.6875,340.5 Q974.1563,340.5 974.4531,340.7813 Q974.75,341.0625 974.75,341.7188 L974.75,343.2813 Q974.75,343.9375 974.4688,344.2188 Q974.1875,344.5 973.75,344.5 Q973.3594,344.5 973.1094,344.3281 Q972.8594,344.1563 972.75,343.7031 Q972.7031,343.3906 972.5313,343.2188 Q972.2188,342.8906 971.6563,342.7031 Q971.0938,342.5 970.5313,342.5 Q969.8281,342.5 969.2344,342.7813 Q968.6563,343.0625 968.2031,343.6875 Q967.75,344.3125 967.75,345.1719 L967.75,346.0938 Q967.75,347.125 968.5938,347.8125 Q969.4375,348.5 970.9375,348.5 Q971.8281,348.5 972.4531,348.2969 Q972.8125,348.1875 973.2188,347.8281 Q973.4844,347.625 973.625,347.5625 Q973.7656,347.5 973.9375,347.5 Q974.2656,347.5 974.5,347.7656 Q974.75,348.0156 974.75,348.375 Q974.75,348.7188 974.4063,349.125 Q973.9063,349.7188 973.1094,350.0469 Q972.0625,350.5 970.7813,350.5 Q969.2813,350.5 968.0781,349.9063 Q967.1094,349.4375 966.4219,348.4219 Q965.75,347.4063 965.75,346.2031 L965.75,345.1094 Q965.75,343.8594 966.3438,342.7656 Q966.9531,341.6719 968,341.0938 Q969.0625,340.5 970.25,340.5 Q970.9688,340.5 971.5938,340.75 Q972.2188,341 972.75,341.5 Z "/><text fill="#000000" font-family="sans-serif" font-size="12" lengthAdjust="spacingAndGlyphs" textLength="53" x="987.25" y="349.9102">UserRole</text><line style="stroke: #A80036; stroke-width: 1.5;" x1="945.5" x2="1053.5" y1="361" y2="361"/><rect fill="none" height="6" style="stroke: #C82930; stroke-width: 1.0;" width="6" x="952.5" y="369"/><text fill="#000000" font-family="sans-serif" font-size="11" lengthAdjust="spacingAndGlyphs" textLength="48" x="964.5" y="376.4189">String id &lt;</text><text fill="#000000" font-family="sans-serif" font-size="11" font-weight="bold" lengthAdjust="spacingAndGlyphs" textLength="20" x="1012.5" y="376.4189">PK&gt;</text><rect fill="none" height="6" style="stroke: #C82930; stroke-width: 1.0;" width="6" x="952.5" y="382.8359"/><text fill="#000000" font-family="sans-serif" font-size="11" lengthAdjust="spacingAndGlyphs" textLength="84" x="964.5" y="390.2549">String description</text><line style="stroke: #A80036; stroke-width: 1.5;" x1="945.5" x2="1053.5" y1="396.6719" y2="396.6719"/><!--MD5=[345c02184d4fb42ecc6f0c6bc93aebcb]
class GetOccupancyRateCargoManifestUI--><rect fill="#FEFECE" filter="url(#f1i3e9eomfc8zh)" height="89.5078" id="GetOccupancyRateCargoManifestUI" style="stroke: #A80036; stroke-width: 1.5;" width="449" x="6" y="147.5"/><ellipse cx="127.75" cy="163.5" fill="#ADD1B2" rx="11" ry="11" style="stroke: #A80036; stroke-width: 1.0;"/><path d="M129.75,160 Q129.9531,159.5 130.1875,159.25 Q130.4219,159 130.6875,159 Q131.1563,159 131.4531,159.2813 Q131.75,159.5625 131.75,160.2188 L131.75,161.7813 Q131.75,162.4375 131.4688,162.7188 Q131.1875,163 130.75,163 Q130.3594,163 130.1094,162.8281 Q129.8594,162.6563 129.75,162.2031 Q129.7031,161.8906 129.5313,161.7188 Q129.2188,161.3906 128.6563,161.2031 Q128.0938,161 127.5313,161 Q126.8281,161 126.2344,161.2813 Q125.6563,161.5625 125.2031,162.1875 Q124.75,162.8125 124.75,163.6719 L124.75,164.5938 Q124.75,165.625 125.5938,166.3125 Q126.4375,167 127.9375,167 Q128.8281,167 129.4531,166.7969 Q129.8125,166.6875 130.2188,166.3281 Q130.4844,166.125 130.625,166.0625 Q130.7656,166 130.9375,166 Q131.2656,166 131.5,166.2656 Q131.75,166.5156 131.75,166.875 Q131.75,167.2188 131.4063,167.625 Q130.9063,168.2188 130.1094,168.5469 Q129.0625,169 127.7813,169 Q126.2813,169 125.0781,168.4063 Q124.1094,167.9375 123.4219,166.9219 Q122.75,165.9063 122.75,164.7031 L122.75,163.6094 Q122.75,162.3594 123.3438,161.2656 Q123.9531,160.1719 125,159.5938 Q126.0625,159 127.25,159 Q127.9688,159 128.5938,159.25 Q129.2188,159.5 129.75,160 Z "/><text fill="#000000" font-family="sans-serif" font-size="12" lengthAdjust="spacingAndGlyphs" textLength="197" x="148.25" y="168.4102">GetOccupancyRateCargoManifestUI</text><line style="stroke: #A80036; stroke-width: 1.5;" x1="7" x2="454" y1="179.5" y2="179.5"/><rect fill="none" height="6" style="stroke: #C82930; stroke-width: 1.0;" width="6" x="14" y="187.5"/><text fill="#000000" font-family="sans-serif" font-size="11" lengthAdjust="spacingAndGlyphs" textLength="423" x="26" y="194.9189">GetOccupancyRateCargoManifestController getOccupancyRateCargoManifestController</text><rect fill="none" height="6" style="stroke: #C82930; stroke-width: 1.0;" width="6" x="14" y="201.3359"/><text fill="#000000" font-family="sans-serif" font-size="11" lengthAdjust="spacingAndGlyphs" textLength="52" x="26" y="208.7549">Scanner in</text><line style="stroke: #A80036; stroke-width: 1.5;" x1="7" x2="454" y1="215.1719" y2="215.1719"/><ellipse cx="17" cy="226.1719" fill="#84BE84" rx="3" ry="3" style="stroke: #038048; stroke-width: 1.0;"/><text fill="#000000" font-family="sans-serif" font-size="11" lengthAdjust="spacingAndGlyphs" textLength="24" x="26" y="230.5908">run()</text><!--MD5=[a6ca51e166e99d957f9adc257bf3e57b]
class GetOccupancyRateCargoManifestController--><rect fill="#FEFECE" filter="url(#f1i3e9eomfc8zh)" height="117.1797" id="GetOccupancyRateCargoManifestController" style="stroke: #A80036; stroke-width: 1.5;" width="337" x="574" y="134"/><ellipse cx="618.75" cy="150" fill="#ADD1B2" rx="11" ry="11" style="stroke: #A80036; stroke-width: 1.0;"/><path d="M620.75,146.5 Q620.9531,146 621.1875,145.75 Q621.4219,145.5 621.6875,145.5 Q622.1563,145.5 622.4531,145.7813 Q622.75,146.0625 622.75,146.7188 L622.75,148.2813 Q622.75,148.9375 622.4688,149.2188 Q622.1875,149.5 621.75,149.5 Q621.3594,149.5 621.1094,149.3281 Q620.8594,149.1563 620.75,148.7031 Q620.7031,148.3906 620.5313,148.2188 Q620.2188,147.8906 619.6563,147.7031 Q619.0938,147.5 618.5313,147.5 Q617.8281,147.5 617.2344,147.7813 Q616.6563,148.0625 616.2031,148.6875 Q615.75,149.3125 615.75,150.1719 L615.75,151.0938 Q615.75,152.125 616.5938,152.8125 Q617.4375,153.5 618.9375,153.5 Q619.8281,153.5 620.4531,153.2969 Q620.8125,153.1875 621.2188,152.8281 Q621.4844,152.625 621.625,152.5625 Q621.7656,152.5 621.9375,152.5 Q622.2656,152.5 622.5,152.7656 Q622.75,153.0156 622.75,153.375 Q622.75,153.7188 622.4063,154.125 Q621.9063,154.7188 621.1094,155.0469 Q620.0625,155.5 618.7813,155.5 Q617.2813,155.5 616.0781,154.9063 Q615.1094,154.4375 614.4219,153.4219 Q613.75,152.4063 613.75,151.2031 L613.75,150.1094 Q613.75,148.8594 614.3438,147.7656 Q614.9531,146.6719 616,146.0938 Q617.0625,145.5 618.25,145.5 Q618.9688,145.5 619.5938,145.75 Q620.2188,146 620.75,146.5 Z "/><text fill="#000000" font-family="sans-serif" font-size="12" lengthAdjust="spacingAndGlyphs" textLength="239" x="639.25" y="154.9102">GetOccupancyRateCargoManifestController</text><line style="stroke: #A80036; stroke-width: 1.5;" x1="575" x2="910" y1="166" y2="166"/><rect fill="none" height="6" style="stroke: #C82930; stroke-width: 1.0;" width="6" x="582" y="174"/><text fill="#000000" font-family="sans-serif" font-size="11" lengthAdjust="spacingAndGlyphs" textLength="92" x="594" y="181.4189">Company company</text><line style="stroke: #A80036; stroke-width: 1.5;" x1="575" x2="910" y1="187.8359" y2="187.8359"/><ellipse cx="585" cy="198.8359" fill="#84BE84" rx="3" ry="3" style="stroke: #038048; stroke-width: 1.0;"/><text fill="#000000" font-family="sans-serif" font-size="11" lengthAdjust="spacingAndGlyphs" textLength="311" x="594" y="203.2549">GetOccupancyRateCargoManifestController(Company company)</text><ellipse cx="585" cy="212.6719" fill="#84BE84" rx="3" ry="3" style="stroke: #038048; stroke-width: 1.0;"/><text fill="#000000" font-family="sans-serif" font-size="11" lengthAdjust="spacingAndGlyphs" textLength="219" x="594" y="217.0908">GetOccupancyRateCargoManifestController()</text><ellipse cx="585" cy="226.5078" fill="#84BE84" rx="3" ry="3" style="stroke: #038048; stroke-width: 1.0;"/><text fill="#000000" font-family="sans-serif" font-size="11" lengthAdjust="spacingAndGlyphs" textLength="217" x="594" y="230.9268">getOccupancyRateCargoManifestController()</text><ellipse cx="585" cy="240.3438" fill="#84BE84" rx="3" ry="3" style="stroke: #038048; stroke-width: 1.0;"/><text fill="#000000" font-family="sans-serif" font-size="11" lengthAdjust="spacingAndGlyphs" textLength="68" x="594" y="244.7627">getCompany()</text><!--MD5=[02e4b9b7573f1156f41e60aa5b4e25a4]
class Company--><rect fill="#FEFECE" filter="url(#f1i3e9eomfc8zh)" height="61.8359" id="Company" style="stroke: #A80036; stroke-width: 1.5;" width="146" x="669.5" y="336"/><ellipse cx="711.95" cy="352" fill="#ADD1B2" rx="11" ry="11" style="stroke: #A80036; stroke-width: 1.0;"/><path d="M713.95,348.5 Q714.1531,348 714.3875,347.75 Q714.6219,347.5 714.8875,347.5 Q715.3563,347.5 715.6531,347.7813 Q715.95,348.0625 715.95,348.7188 L715.95,350.2813 Q715.95,350.9375 715.6688,351.2188 Q715.3875,351.5 714.95,351.5 Q714.5594,351.5 714.3094,351.3281 Q714.0594,351.1563 713.95,350.7031 Q713.9031,350.3906 713.7313,350.2188 Q713.4188,349.8906 712.8563,349.7031 Q712.2938,349.5 711.7313,349.5 Q711.0281,349.5 710.4344,349.7813 Q709.8563,350.0625 709.4031,350.6875 Q708.95,351.3125 708.95,352.1719 L708.95,353.0938 Q708.95,354.125 709.7938,354.8125 Q710.6375,355.5 712.1375,355.5 Q713.0281,355.5 713.6531,355.2969 Q714.0125,355.1875 714.4188,354.8281 Q714.6844,354.625 714.825,354.5625 Q714.9656,354.5 715.1375,354.5 Q715.4656,354.5 715.7,354.7656 Q715.95,355.0156 715.95,355.375 Q715.95,355.7188 715.6063,356.125 Q715.1063,356.7188 714.3094,357.0469 Q713.2625,357.5 711.9813,357.5 Q710.4813,357.5 709.2781,356.9063 Q708.3094,356.4375 707.6219,355.4219 Q706.95,354.4063 706.95,353.2031 L706.95,352.1094 Q706.95,350.8594 707.5438,349.7656 Q708.1531,348.6719 709.2,348.0938 Q710.2625,347.5 711.45,347.5 Q712.1688,347.5 712.7938,347.75 Q713.4188,348 713.95,348.5 Z "/><text fill="#000000" font-family="sans-serif" font-size="12" lengthAdjust="spacingAndGlyphs" textLength="53" x="732.05" y="356.9102">Company</text><line style="stroke: #A80036; stroke-width: 1.5;" x1="670.5" x2="814.5" y1="368" y2="368"/><rect fill="none" height="6" style="stroke: #C82930; stroke-width: 1.0;" width="6" x="677.5" y="376"/><text fill="#000000" font-family="sans-serif" font-size="11" lengthAdjust="spacingAndGlyphs" textLength="120" x="689.5" y="383.4189">TreeofShips treeOfShips</text><line style="stroke: #A80036; stroke-width: 1.5;" x1="670.5" x2="814.5" y1="389.8359" y2="389.8359"/><!--MD5=[0003d580da2a3d2e6b7d7be223cc3085]
class TreeofShips--><rect fill="#FEFECE" filter="url(#f1i3e9eomfc8zh)" height="48" id="TreeofShips" style="stroke: #A80036; stroke-width: 1.5;" width="99" x="513" y="343"/><ellipse cx="528" cy="359" fill="#ADD1B2" rx="11" ry="11" style="stroke: #A80036; stroke-width: 1.0;"/><path d="M530,355.5 Q530.2031,355 530.4375,354.75 Q530.6719,354.5 530.9375,354.5 Q531.4063,354.5 531.7031,354.7813 Q532,355.0625 532,355.7188 L532,357.2813 Q532,357.9375 531.7188,358.2188 Q531.4375,358.5 531,358.5 Q530.6094,358.5 530.3594,358.3281 Q530.1094,358.1563 530,357.7031 Q529.9531,357.3906 529.7813,357.2188 Q529.4688,356.8906 528.9063,356.7031 Q528.3438,356.5 527.7813,356.5 Q527.0781,356.5 526.4844,356.7813 Q525.9063,357.0625 525.4531,357.6875 Q525,358.3125 525,359.1719 L525,360.0938 Q525,361.125 525.8438,361.8125 Q526.6875,362.5 528.1875,362.5 Q529.0781,362.5 529.7031,362.2969 Q530.0625,362.1875 530.4688,361.8281 Q530.7344,361.625 530.875,361.5625 Q531.0156,361.5 531.1875,361.5 Q531.5156,361.5 531.75,361.7656 Q532,362.0156 532,362.375 Q532,362.7188 531.6563,363.125 Q531.1563,363.7188 530.3594,364.0469 Q529.3125,364.5 528.0313,364.5 Q526.5313,364.5 525.3281,363.9063 Q524.3594,363.4375 523.6719,362.4219 Q523,361.4063 523,360.2031 L523,359.1094 Q523,357.8594 523.5938,356.7656 Q524.2031,355.6719 525.25,355.0938 Q526.3125,354.5 527.5,354.5 Q528.2188,354.5 528.8438,354.75 Q529.4688,355 530,355.5 Z "/><text fill="#000000" font-family="sans-serif" font-size="12" lengthAdjust="spacingAndGlyphs" textLength="67" x="542" y="363.9102">TreeofShips</text><line style="stroke: #A80036; stroke-width: 1.5;" x1="514" x2="611" y1="375" y2="375"/><line style="stroke: #A80036; stroke-width: 1.5;" x1="514" x2="611" y1="383" y2="383"/><!--MD5=[76562047389981627aea27c31a97aff5]
class CargoManifest--><rect fill="#FEFECE" filter="url(#f1i3e9eomfc8zh)" height="61.8359" id="CargoManifest" style="stroke: #A80036; stroke-width: 1.5;" width="132" x="709.5" y="552"/><ellipse cx="733.5" cy="568" fill="#ADD1B2" rx="11" ry="11" style="stroke: #A80036; stroke-width: 1.0;"/><path d="M735.5,564.5 Q735.7031,564 735.9375,563.75 Q736.1719,563.5 736.4375,563.5 Q736.9063,563.5 737.2031,563.7813 Q737.5,564.0625 737.5,564.7188 L737.5,566.2813 Q737.5,566.9375 737.2188,567.2188 Q736.9375,567.5 736.5,567.5 Q736.1094,567.5 735.8594,567.3281 Q735.6094,567.1563 735.5,566.7031 Q735.4531,566.3906 735.2813,566.2188 Q734.9688,565.8906 734.4063,565.7031 Q733.8438,565.5 733.2813,565.5 Q732.5781,565.5 731.9844,565.7813 Q731.4063,566.0625 730.9531,566.6875 Q730.5,567.3125 730.5,568.1719 L730.5,569.0938 Q730.5,570.125 731.3438,570.8125 Q732.1875,571.5 733.6875,571.5 Q734.5781,571.5 735.2031,571.2969 Q735.5625,571.1875 735.9688,570.8281 Q736.2344,570.625 736.375,570.5625 Q736.5156,570.5 736.6875,570.5 Q737.0156,570.5 737.25,570.7656 Q737.5,571.0156 737.5,571.375 Q737.5,571.7188 737.1563,572.125 Q736.6563,572.7188 735.8594,573.0469 Q734.8125,573.5 733.5313,573.5 Q732.0313,573.5 730.8281,572.9063 Q729.8594,572.4375 729.1719,571.4219 Q728.5,570.4063 728.5,569.2031 L728.5,568.1094 Q728.5,566.8594 729.0938,565.7656 Q729.7031,564.6719 730.75,564.0938 Q731.8125,563.5 733,563.5 Q733.7188,563.5 734.3438,563.75 Q734.9688,564 735.5,564.5 Z "/><text fill="#000000" font-family="sans-serif" font-size="12" lengthAdjust="spacingAndGlyphs" textLength="80" x="749.5" y="572.9102">CargoManifest</text><line style="stroke: #A80036; stroke-width: 1.5;" x1="710.5" x2="840.5" y1="584" y2="584"/><text fill="#000000" font-family="sans-serif" font-size="11" lengthAdjust="spacingAndGlyphs" textLength="120" x="715.5" y="599.4189">HashMap&lt;Container, int&gt;</text><line style="stroke: #A80036; stroke-width: 1.5;" x1="710.5" x2="840.5" y1="605.8359" y2="605.8359"/><!--MD5=[0dc7f2ddb409b58bcf52b12238c25399]
class Ship--><rect fill="#FEFECE" filter="url(#f1i3e9eomfc8zh)" height="200.1953" id="Ship" style="stroke: #A80036; stroke-width: 1.5;" width="159" x="483" y="483"/><ellipse cx="545.75" cy="499" fill="#ADD1B2" rx="11" ry="11" style="stroke: #A80036; stroke-width: 1.0;"/><path d="M547.75,495.5 Q547.9531,495 548.1875,494.75 Q548.4219,494.5 548.6875,494.5 Q549.1563,494.5 549.4531,494.7813 Q549.75,495.0625 549.75,495.7188 L549.75,497.2813 Q549.75,497.9375 549.4688,498.2188 Q549.1875,498.5 548.75,498.5 Q548.3594,498.5 548.1094,498.3281 Q547.8594,498.1563 547.75,497.7031 Q547.7031,497.3906 547.5313,497.2188 Q547.2188,496.8906 546.6563,496.7031 Q546.0938,496.5 545.5313,496.5 Q544.8281,496.5 544.2344,496.7813 Q543.6563,497.0625 543.2031,497.6875 Q542.75,498.3125 542.75,499.1719 L542.75,500.0938 Q542.75,501.125 543.5938,501.8125 Q544.4375,502.5 545.9375,502.5 Q546.8281,502.5 547.4531,502.2969 Q547.8125,502.1875 548.2188,501.8281 Q548.4844,501.625 548.625,501.5625 Q548.7656,501.5 548.9375,501.5 Q549.2656,501.5 549.5,501.7656 Q549.75,502.0156 549.75,502.375 Q549.75,502.7188 549.4063,503.125 Q548.9063,503.7188 548.1094,504.0469 Q547.0625,504.5 545.7813,504.5 Q544.2813,504.5 543.0781,503.9063 Q542.1094,503.4375 541.4219,502.4219 Q540.75,501.4063 540.75,500.2031 L540.75,499.1094 Q540.75,497.8594 541.3438,496.7656 Q541.9531,495.6719 543,495.0938 Q544.0625,494.5 545.25,494.5 Q545.9688,494.5 546.5938,494.75 Q547.2188,495 547.75,495.5 Z "/><text fill="#000000" font-family="sans-serif" font-size="12" lengthAdjust="spacingAndGlyphs" textLength="25" x="566.25" y="503.9102">Ship</text><line style="stroke: #A80036; stroke-width: 1.5;" x1="484" x2="641" y1="515" y2="515"/><rect fill="none" height="6" style="stroke: #C82930; stroke-width: 1.0;" width="6" x="491" y="523"/><text fill="#000000" font-family="sans-serif" font-size="11" lengthAdjust="spacingAndGlyphs" textLength="48" x="503" y="530.4189">int MMSI &lt;</text><text fill="#000000" font-family="sans-serif" font-size="11" font-weight="bold" lengthAdjust="spacingAndGlyphs" textLength="20" x="551" y="530.4189">PK&gt;</text><rect fill="none" height="6" style="stroke: #C82930; stroke-width: 1.0;" width="6" x="491" y="536.8359"/><text fill="#000000" font-family="sans-serif" font-size="11" lengthAdjust="spacingAndGlyphs" textLength="57" x="503" y="544.2549">String name</text><rect fill="none" height="6" style="stroke: #C82930; stroke-width: 1.0;" width="6" x="491" y="550.6719"/><text fill="#000000" font-family="sans-serif" font-size="11" lengthAdjust="spacingAndGlyphs" textLength="32" x="503" y="558.0908">int IMO</text><rect fill="none" height="6" style="stroke: #C82930; stroke-width: 1.0;" width="6" x="491" y="564.5078"/><text fill="#000000" font-family="sans-serif" font-size="11" lengthAdjust="spacingAndGlyphs" textLength="133" x="503" y="571.9268">int numberEnergyGenerator</text><rect fill="none" height="6" style="stroke: #C82930; stroke-width: 1.0;" width="6" x="491" y="578.3438"/><text fill="#000000" font-family="sans-serif" font-size="11" lengthAdjust="spacingAndGlyphs" textLength="78" x="503" y="585.7627">int powerOutput</text><rect fill="none" height="6" style="stroke: #C82930; stroke-width: 1.0;" width="6" x="491" y="592.1797"/><text fill="#000000" font-family="sans-serif" font-size="11" lengthAdjust="spacingAndGlyphs" textLength="68" x="503" y="599.5986">String callSign</text><rect fill="none" height="6" style="stroke: #C82930; stroke-width: 1.0;" width="6" x="491" y="606.0156"/><text fill="#000000" font-family="sans-serif" font-size="11" lengthAdjust="spacingAndGlyphs" textLength="70" x="503" y="613.4346">int vesselType</text><rect fill="none" height="6" style="stroke: #C82930; stroke-width: 1.0;" width="6" x="491" y="619.8516"/><text fill="#000000" font-family="sans-serif" font-size="11" lengthAdjust="spacingAndGlyphs" textLength="64" x="503" y="627.2705">double length</text><rect fill="none" height="6" style="stroke: #C82930; stroke-width: 1.0;" width="6" x="491" y="633.6875"/><text fill="#000000" font-family="sans-serif" font-size="11" lengthAdjust="spacingAndGlyphs" textLength="62" x="503" y="641.1064">double width</text><rect fill="none" height="6" style="stroke: #C82930; stroke-width: 1.0;" width="6" x="491" y="647.5234"/><text fill="#000000" font-family="sans-serif" font-size="11" lengthAdjust="spacingAndGlyphs" textLength="100" x="503" y="654.9424">int maximumCapacity</text><rect fill="none" height="6" style="stroke: #C82930; stroke-width: 1.0;" width="6" x="491" y="661.3594"/><text fill="#000000" font-family="sans-serif" font-size="11" lengthAdjust="spacingAndGlyphs" textLength="58" x="503" y="668.7783">double draft</text><line style="stroke: #A80036; stroke-width: 1.5;" x1="484" x2="641" y1="675.1953" y2="675.1953"/><!--MD5=[e9a58730c562b34349daa605d1ed6662]
class Container--><rect fill="#FEFECE" filter="url(#f1i3e9eomfc8zh)" height="158.6875" id="Container" style="stroke: #A80036; stroke-width: 1.5;" width="150" x="612.5" y="761"/><ellipse cx="656.3" cy="777" fill="#ADD1B2" rx="11" ry="11" style="stroke: #A80036; stroke-width: 1.0;"/><path d="M658.3,773.5 Q658.5031,773 658.7375,772.75 Q658.9719,772.5 659.2375,772.5 Q659.7063,772.5 660.0031,772.7813 Q660.3,773.0625 660.3,773.7188 L660.3,775.2813 Q660.3,775.9375 660.0188,776.2188 Q659.7375,776.5 659.3,776.5 Q658.9094,776.5 658.6594,776.3281 Q658.4094,776.1563 658.3,775.7031 Q658.2531,775.3906 658.0813,775.2188 Q657.7688,774.8906 657.2063,774.7031 Q656.6438,774.5 656.0813,774.5 Q655.3781,774.5 654.7844,774.7813 Q654.2063,775.0625 653.7531,775.6875 Q653.3,776.3125 653.3,777.1719 L653.3,778.0938 Q653.3,779.125 654.1438,779.8125 Q654.9875,780.5 656.4875,780.5 Q657.3781,780.5 658.0031,780.2969 Q658.3625,780.1875 658.7688,779.8281 Q659.0344,779.625 659.175,779.5625 Q659.3156,779.5 659.4875,779.5 Q659.8156,779.5 660.05,779.7656 Q660.3,780.0156 660.3,780.375 Q660.3,780.7188 659.9563,781.125 Q659.4563,781.7188 658.6594,782.0469 Q657.6125,782.5 656.3313,782.5 Q654.8313,782.5 653.6281,781.9063 Q652.6594,781.4375 651.9719,780.4219 Q651.3,779.4063 651.3,778.2031 L651.3,777.1094 Q651.3,775.8594 651.8938,774.7656 Q652.5031,773.6719 653.55,773.0938 Q654.6125,772.5 655.8,772.5 Q656.5188,772.5 657.1438,772.75 Q657.7688,773 658.3,773.5 Z "/><text fill="#000000" font-family="sans-serif" font-size="12" lengthAdjust="spacingAndGlyphs" textLength="54" x="676.7" y="781.9102">Container</text><line style="stroke: #A80036; stroke-width: 1.5;" x1="613.5" x2="761.5" y1="793" y2="793"/><rect fill="none" height="6" style="stroke: #C82930; stroke-width: 1.0;" width="6" x="620.5" y="801"/><text fill="#000000" font-family="sans-serif" font-size="11" lengthAdjust="spacingAndGlyphs" textLength="94" x="632.5" y="808.4189">String containerID &lt;</text><text fill="#000000" font-family="sans-serif" font-size="11" font-weight="bold" lengthAdjust="spacingAndGlyphs" textLength="20" x="726.5" y="808.4189">PK&gt;</text><rect fill="none" height="6" style="stroke: #C82930; stroke-width: 1.0;" width="6" x="620.5" y="814.8359"/><text fill="#000000" font-family="sans-serif" font-size="11" lengthAdjust="spacingAndGlyphs" textLength="63" x="632.5" y="822.2549">int checkDigit</text><rect fill="none" height="6" style="stroke: #C82930; stroke-width: 1.0;" width="6" x="620.5" y="828.6719"/><text fill="#000000" font-family="sans-serif" font-size="11" lengthAdjust="spacingAndGlyphs" textLength="48" x="632.5" y="836.0908">String ISO</text><rect fill="none" height="6" style="stroke: #C82930; stroke-width: 1.0;" width="6" x="620.5" y="842.5078"/><text fill="#000000" font-family="sans-serif" font-size="11" lengthAdjust="spacingAndGlyphs" textLength="42" x="632.5" y="849.9268">int gross</text><rect fill="none" height="6" style="stroke: #C82930; stroke-width: 1.0;" width="6" x="620.5" y="856.3438"/><text fill="#000000" font-family="sans-serif" font-size="11" lengthAdjust="spacingAndGlyphs" textLength="33" x="632.5" y="863.7627">int tare</text><rect fill="none" height="6" style="stroke: #C82930; stroke-width: 1.0;" width="6" x="620.5" y="870.1797"/><text fill="#000000" font-family="sans-serif" font-size="11" lengthAdjust="spacingAndGlyphs" textLength="52" x="632.5" y="877.5986">int payload</text><rect fill="none" height="6" style="stroke: #C82930; stroke-width: 1.0;" width="6" x="620.5" y="884.0156"/><text fill="#000000" font-family="sans-serif" font-size="11" lengthAdjust="spacingAndGlyphs" textLength="70" x="632.5" y="891.4346">int maxVolume</text><rect fill="none" height="6" style="stroke: #C82930; stroke-width: 1.0;" width="6" x="620.5" y="897.8516"/><text fill="#000000" font-family="sans-serif" font-size="11" lengthAdjust="spacingAndGlyphs" textLength="124" x="632.5" y="905.2705">int repairRecommendation</text><line style="stroke: #A80036; stroke-width: 1.5;" x1="613.5" x2="761.5" y1="911.6875" y2="911.6875"/><!--MD5=[fe56831ad837302bd9419341a712f7d0]
link ShipCaptain to GetOccupancyRateCargoManifestUI--><path d="M649.309,49.962 C582.15,72.659 460.507,113.769 365.558,145.857 " fill="none" id="ShipCaptain-&gt;GetOccupancyRateCargoManifestUI" style="stroke: #A80036; stroke-width: 1.0;"/><polygon fill="#A80036" points="360.773,147.474,370.58,148.3811,365.5097,145.8727,368.018,140.8024,360.773,147.474" style="stroke: #A80036; stroke-width: 1.0;"/><text fill="#000000" font-family="sans-serif" font-size="13" lengthAdjust="spacingAndGlyphs" textLength="44" x="535.5" y="100.4951">Access</text><!--MD5=[ca1683eade944f4565d68dfb537fd96b]
link GetOccupancyRateCargoManifestUI to GetOccupancyRateCargoManifestController--><path d="M455.071,192.5 C493.1,192.5 532.07,192.5 568.553,192.5 " fill="none" id="GetOccupancyRateCargoManifestUI-&gt;GetOccupancyRateCargoManifestController" style="stroke: #A80036; stroke-width: 1.0;"/><polygon fill="#A80036" points="573.917,192.5,564.917,188.5,568.917,192.5,564.917,196.5,573.917,192.5" style="stroke: #A80036; stroke-width: 1.0;"/><text fill="#000000" font-family="sans-serif" font-size="13" lengthAdjust="spacingAndGlyphs" textLength="82" x="473.5" y="185.9951">Connects with</text><!--MD5=[a42d7fe56bddebb75c785b42b902aa35]
link GetOccupancyRateCargoManifestController to Company--><path d="M742.5,251.42 C742.5,277.626 742.5,307.759 742.5,330.544 " fill="none" id="GetOccupancyRateCargoManifestController-&gt;Company" style="stroke: #A80036; stroke-width: 1.0;"/><polygon fill="#A80036" points="742.5,335.582,746.5,326.582,742.5,330.582,738.5,326.582,742.5,335.582" style="stroke: #A80036; stroke-width: 1.0;"/><text fill="#000000" font-family="sans-serif" font-size="13" lengthAdjust="spacingAndGlyphs" textLength="82" x="743.5" y="295.4951">Connects with</text><!--MD5=[89c71bb3df60bb9a940e5eaaa9a35664]
reverse link TreeofShips to Company--><path d="M617.204,367 C633.652,367 651.968,367 669.407,367 " fill="none" id="TreeofShips&lt;-Company" style="stroke: #A80036; stroke-width: 1.0;"/><polygon fill="#A80036" points="612.162,367,621.162,371,617.162,367,621.162,363,612.162,367" style="stroke: #A80036; stroke-width: 1.0;"/><text fill="#000000" font-family="sans-serif" font-size="13" lengthAdjust="spacingAndGlyphs" textLength="21" x="630.25" y="360.4951">has</text><!--MD5=[39ef296938e48b288ce6816c57f91dfc]
link TreeofShips to Ship--><path d="M562.5,391.309 C562.5,412.492 562.5,445.308 562.5,477.782 " fill="none" id="TreeofShips-&gt;Ship" style="stroke: #A80036; stroke-width: 1.0;"/><polygon fill="#A80036" points="562.5,482.989,566.5,473.989,562.5,477.989,558.5,473.989,562.5,482.989" style="stroke: #A80036; stroke-width: 1.0;"/><text fill="#000000" font-family="sans-serif" font-size="13" lengthAdjust="spacingAndGlyphs" textLength="21" x="563.5" y="449.4951">has</text><!--MD5=[a93f71c337684849482b0ec5675aa7db]
link CargoManifest to Container--><path d="M765.147,614.06 C753.199,648.749 733.041,707.275 716.259,756.001 " fill="none" id="CargoManifest-&gt;Container" style="stroke: #A80036; stroke-width: 1.0;"/><polygon fill="#A80036" points="714.542,760.985,721.2554,753.7787,716.1706,756.2577,713.6917,751.1729,714.542,760.985" style="stroke: #A80036; stroke-width: 1.0;"/><text fill="#000000" font-family="sans-serif" font-size="13" lengthAdjust="spacingAndGlyphs" textLength="21" x="730.5" y="727.4951">has</text><!--MD5=[1455ab4c2639af2370608c1bbf2a9850]
link Ship to CargoManifest--><path d="M642.116,583 C662.486,583 684.261,583 704.184,583 " fill="none" id="Ship-&gt;CargoManifest" style="stroke: #A80036; stroke-width: 1.0;"/><polygon fill="#A80036" points="709.208,583,700.208,579,704.208,583,700.208,587,709.208,583" style="stroke: #A80036; stroke-width: 1.0;"/><text fill="#000000" font-family="sans-serif" font-size="13" lengthAdjust="spacingAndGlyphs" textLength="31" x="660.25" y="576.4951">loads</text><!--MD5=[ba54223a31981c52d18c1dd571f5520c]
link Ship to Container--><path d="M611.007,683.149 C622.845,707.346 635.389,732.986 646.82,756.35 " fill="none" id="Ship-&gt;Container" style="stroke: #A80036; stroke-width: 1.0;"/><polygon fill="#A80036" points="649.09,760.991,648.7283,751.1488,646.8929,756.4996,641.5421,754.6642,649.09,760.991" style="stroke: #A80036; stroke-width: 1.0;"/><text fill="#000000" font-family="sans-serif" font-size="13" lengthAdjust="spacingAndGlyphs" textLength="21" x="633.5" y="727.4951">has</text><!--MD5=[6d5256cef43917af70b6f3fc43e64a4c]
link ShipCaptain to User--><path d="M749.629,50.684 C797.334,68.521 870.272,98.456 928.5,134 C933.683,137.164 938.903,140.667 944.034,144.338 " fill="none" id="ShipCaptain-&gt;User" style="stroke: #A80036; stroke-width: 1.0;"/><polygon fill="#A80036" points="948.32,147.456,943.3976,138.9254,944.2776,144.5134,938.6896,145.3934,948.32,147.456" style="stroke: #A80036; stroke-width: 1.0;"/><text fill="#000000" font-family="sans-serif" font-size="13" lengthAdjust="spacingAndGlyphs" textLength="21" x="868.5" y="100.4951">is a</text><!--MD5=[1f12d177c84922ed4f166f09ee62ceaa]
link User to UserRole--><path d="M999.5,237.923 C999.5,264.314 999.5,297.599 999.5,323.622 " fill="none" id="User-&gt;UserRole" style="stroke: #A80036; stroke-width: 1.0;"/><polygon fill="#A80036" points="999.5,328.726,1003.5,319.726,999.5,323.726,995.5,319.726,999.5,328.726" style="stroke: #A80036; stroke-width: 1.0;"/><text fill="#000000" font-family="sans-serif" font-size="13" lengthAdjust="spacingAndGlyphs" textLength="21" x="1000.5" y="295.4951">has</text><!--MD5=[396890c9304e5d41f985c163d0779f25]
@startuml

class ShipCaptain{

}

class User{
    -String id <<b>PK>
    -String password
    -UserRole role
}

class UserRole{
    -String id <<b>PK>
    -String description
}

class GetOccupancyRateCargoManifestUI{
    -GetOccupancyRateCargoManifestController getOccupancyRateCargoManifestController
    -Scanner in
    +run()
}

class GetOccupancyRateCargoManifestController{
    -Company company
    +GetOccupancyRateCargoManifestController(Company company)
    +GetOccupancyRateCargoManifestController()
    +getOccupancyRateCargoManifestController()
    +getCompany()

}

class Company {
    -TreeofShips treeOfShips
}

class TreeofShips{

}

class CargoManifest{
    HashMap<Container, int>
}

class Ship {

    -int MMSI <<b>PK>
    -String name
    -int IMO
    -int numberEnergyGenerator
    -int powerOutput
    -String callSign
    -int vesselType
    -double length
    -double width
    -int maximumCapacity
    -double draft
}

class Container {

    -String containerID <<b>PK>
    -int checkDigit
    -String ISO
    -int gross
    -int tare
    -int payload
    -int maxVolume
    -int repairRecommendation

}

ShipCaptain - -> GetOccupancyRateCargoManifestUI : Access
GetOccupancyRateCargoManifestUI -right-> GetOccupancyRateCargoManifestController : Connects with
GetOccupancyRateCargoManifestController - -> Company : Connects with
Company -left-> TreeofShips : has
TreeofShips - -> Ship : has
CargoManifest - -> Container : has
Ship -right-> CargoManifest : loads
Ship - -> Container : has
ShipCaptain - -> User : is a
User - -> UserRole : has

@enduml

PlantUML version 1.2020.07(Sun Apr 19 12:42:40 BST 2020)
(GPL source distribution)
Java Runtime: OpenJDK Runtime Environment
JVM: OpenJDK 64-Bit Server VM
Java Version: 11.0.6+8-b765.40
Operating System: Windows 10
Default Encoding: Cp1252
Language: pt
Country: PT
--></g></svg>