<?xml version="1.0" encoding="UTF-8" standalone="no"?><svg xmlns="http://www.w3.org/2000/svg" xmlns:xlink="http://www.w3.org/1999/xlink" contentScriptType="application/ecmascript" contentStyleType="text/css" height="573px" preserveAspectRatio="none" style="width:1405px;height:573px;" version="1.1" viewBox="0 0 1405 573" width="1405px" zoomAndPan="magnify"><defs><filter height="300%" id="fl7868uuedhed" width="300%" x="-1" y="-1"><feGaussianBlur result="blurOut" stdDeviation="2.0"/><feColorMatrix in="blurOut" result="blurOut2" type="matrix" values="0 0 0 0 0 0 0 0 0 0 0 0 0 0 0 0 0 0 .4 0"/><feOffset dx="4.0" dy="4.0" in="blurOut2" result="blurOut3"/><feBlend in="SourceGraphic" in2="blurOut3" mode="normal"/></filter></defs><g><line style="stroke: #A80036; stroke-width: 1.0; stroke-dasharray: 5.0,5.0;" x1="49" x2="49" y1="87.6094" y2="484.7344"/><line style="stroke: #A80036; stroke-width: 1.0; stroke-dasharray: 5.0,5.0;" x1="276.5" x2="276.5" y1="87.6094" y2="484.7344"/><line style="stroke: #A80036; stroke-width: 1.0; stroke-dasharray: 5.0,5.0;" x1="560" x2="560" y1="87.6094" y2="484.7344"/><line style="stroke: #A80036; stroke-width: 1.0; stroke-dasharray: 5.0,5.0;" x1="747" x2="747" y1="87.6094" y2="484.7344"/><line style="stroke: #A80036; stroke-width: 1.0; stroke-dasharray: 5.0,5.0;" x1="1039" x2="1039" y1="87.6094" y2="484.7344"/><line style="stroke: #A80036; stroke-width: 1.0; stroke-dasharray: 5.0,5.0;" x1="1365" x2="1365" y1="387.2266" y2="484.7344"/><text fill="#000000" font-family="sans-serif" font-size="14" lengthAdjust="spacingAndGlyphs" textLength="77" x="8" y="84.5332">ShipCaptian</text><ellipse cx="49.5" cy="13" fill="#FF0000" filter="url(#fl7868uuedhed)" rx="8" ry="8" style="stroke: #A80036; stroke-width: 2.0;"/><path d="M49.5,21 L49.5,48 M36.5,29 L62.5,29 M49.5,48 L36.5,63 M49.5,48 L62.5,63 " fill="none" filter="url(#fl7868uuedhed)" style="stroke: #A80036; stroke-width: 2.0;"/><text fill="#000000" font-family="sans-serif" font-size="14" lengthAdjust="spacingAndGlyphs" textLength="77" x="8" y="498.2676">ShipCaptian</text><ellipse cx="49.5" cy="511.3438" fill="#FF0000" filter="url(#fl7868uuedhed)" rx="8" ry="8" style="stroke: #A80036; stroke-width: 2.0;"/><path d="M49.5,519.3438 L49.5,546.3438 M36.5,527.3438 L62.5,527.3438 M49.5,546.3438 L36.5,561.3438 M49.5,546.3438 L62.5,561.3438 " fill="none" filter="url(#fl7868uuedhed)" style="stroke: #A80036; stroke-width: 2.0;"/><rect fill="#FEFECE" filter="url(#fl7868uuedhed)" height="31.6094" style="stroke: #A80036; stroke-width: 1.5;" width="60" x="244.5" y="51"/><text fill="#000000" font-family="sans-serif" font-size="14" lengthAdjust="spacingAndGlyphs" textLength="46" x="251.5" y="72.5332">System</text><rect fill="#FEFECE" filter="url(#fl7868uuedhed)" height="31.6094" style="stroke: #A80036; stroke-width: 1.5;" width="60" x="244.5" y="483.7344"/><text fill="#000000" font-family="sans-serif" font-size="14" lengthAdjust="spacingAndGlyphs" textLength="46" x="251.5" y="505.2676">System</text><rect fill="#FEFECE" filter="url(#fl7868uuedhed)" height="31.6094" style="stroke: #A80036; stroke-width: 1.5;" width="103" x="507" y="51"/><text fill="#000000" font-family="sans-serif" font-size="14" lengthAdjust="spacingAndGlyphs" textLength="89" x="514" y="72.5332">ShipCaptianUI</text><rect fill="#FEFECE" filter="url(#fl7868uuedhed)" height="31.6094" style="stroke: #A80036; stroke-width: 1.5;" width="103" x="507" y="483.7344"/><text fill="#000000" font-family="sans-serif" font-size="14" lengthAdjust="spacingAndGlyphs" textLength="89" x="514" y="505.2676">ShipCaptianUI</text><rect fill="#FEFECE" filter="url(#fl7868uuedhed)" height="31.6094" style="stroke: #A80036; stroke-width: 1.5;" width="242" x="624" y="51"/><text fill="#000000" font-family="sans-serif" font-size="14" lengthAdjust="spacingAndGlyphs" textLength="228" x="631" y="72.5332">GetOccupancyRateCargoManifestUI</text><rect fill="#FEFECE" filter="url(#fl7868uuedhed)" height="31.6094" style="stroke: #A80036; stroke-width: 1.5;" width="242" x="624" y="483.7344"/><text fill="#000000" font-family="sans-serif" font-size="14" lengthAdjust="spacingAndGlyphs" textLength="228" x="631" y="505.2676">GetOccupancyRateCargoManifestUI</text><rect fill="#FEFECE" filter="url(#fl7868uuedhed)" height="31.6094" style="stroke: #A80036; stroke-width: 1.5;" width="292" x="891" y="51"/><text fill="#000000" font-family="sans-serif" font-size="14" lengthAdjust="spacingAndGlyphs" textLength="278" x="898" y="72.5332">GetOccupancyRateCargoManifestController</text><rect fill="#FEFECE" filter="url(#fl7868uuedhed)" height="31.6094" style="stroke: #A80036; stroke-width: 1.5;" width="292" x="891" y="483.7344"/><text fill="#000000" font-family="sans-serif" font-size="14" lengthAdjust="spacingAndGlyphs" textLength="278" x="898" y="505.2676">GetOccupancyRateCargoManifestController</text><text fill="#000000" font-family="sans-serif" font-size="14" lengthAdjust="spacingAndGlyphs" textLength="62" x="1331" y="498.2676">DataBase</text><path d="M1347,511.3438 C1347,501.3438 1365,501.3438 1365,501.3438 C1365,501.3438 1383,501.3438 1383,511.3438 L1383,537.3438 C1383,547.3438 1365,547.3438 1365,547.3438 C1365,547.3438 1347,547.3438 1347,537.3438 L1347,511.3438 " fill="#FEFECE" filter="url(#fl7868uuedhed)" style="stroke: #000000; stroke-width: 1.5;"/><path d="M1347,511.3438 C1347,521.3438 1365,521.3438 1365,521.3438 C1365,521.3438 1383,521.3438 1383,511.3438 " fill="none" style="stroke: #000000; stroke-width: 1.5;"/><polygon fill="#A80036" points="60.5,115.9609,50.5,119.9609,60.5,123.9609,56.5,119.9609" style="stroke: #A80036; stroke-width: 1.0;"/><line style="stroke: #A80036; stroke-width: 1.0; stroke-dasharray: 2.0,2.0;" x1="54.5" x2="275.5" y1="119.9609" y2="119.9609"/><text fill="#000000" font-family="sans-serif" font-size="13" font-weight="bold" lengthAdjust="spacingAndGlyphs" textLength="7" x="66.5" y="115.1045">1</text><text fill="#000000" font-family="sans-serif" font-size="13" lengthAdjust="spacingAndGlyphs" textLength="135" x="77.5" y="115.1045">Authentication Request</text><polygon fill="#A80036" points="264.5,146.3125,274.5,150.3125,264.5,154.3125,268.5,150.3125" style="stroke: #A80036; stroke-width: 1.0;"/><line style="stroke: #A80036; stroke-width: 1.0;" x1="49.5" x2="270.5" y1="150.3125" y2="150.3125"/><text fill="#000000" font-family="sans-serif" font-size="13" font-weight="bold" lengthAdjust="spacingAndGlyphs" textLength="7" x="56.5" y="145.4561">2</text><text fill="#000000" font-family="sans-serif" font-size="13" lengthAdjust="spacingAndGlyphs" textLength="192" x="67.5" y="145.4561">Another authentication Response</text><polygon fill="#A80036" points="60.5,176.6641,50.5,180.6641,60.5,184.6641,56.5,180.6641" style="stroke: #A80036; stroke-width: 1.0;"/><line style="stroke: #A80036; stroke-width: 1.0; stroke-dasharray: 2.0,2.0;" x1="54.5" x2="275.5" y1="180.6641" y2="180.6641"/><text fill="#000000" font-family="sans-serif" font-size="13" font-weight="bold" lengthAdjust="spacingAndGlyphs" textLength="7" x="66.5" y="175.8076">3</text><text fill="#000000" font-family="sans-serif" font-size="13" lengthAdjust="spacingAndGlyphs" textLength="149" x="77.5" y="175.8076">Authentication successful</text><polygon fill="#A80036" points="548.5,207.0156,558.5,211.0156,548.5,215.0156,552.5,211.0156" style="stroke: #A80036; stroke-width: 1.0;"/><line style="stroke: #A80036; stroke-width: 1.0; stroke-dasharray: 2.0,2.0;" x1="49.5" x2="554.5" y1="211.0156" y2="211.0156"/><text fill="#000000" font-family="sans-serif" font-size="13" font-weight="bold" lengthAdjust="spacingAndGlyphs" textLength="7" x="56.5" y="206.1592">4</text><text fill="#000000" font-family="sans-serif" font-size="13" lengthAdjust="spacingAndGlyphs" textLength="476" x="67.5" y="206.1592">Asks for the occupancy rate (percentage) of a given ship for a given cargo manifest</text><polygon fill="#A80036" points="735,237.3672,745,241.3672,735,245.3672,739,241.3672" style="stroke: #A80036; stroke-width: 1.0;"/><line style="stroke: #A80036; stroke-width: 1.0; stroke-dasharray: 2.0,2.0;" x1="560.5" x2="741" y1="241.3672" y2="241.3672"/><text fill="#000000" font-family="sans-serif" font-size="13" font-weight="bold" lengthAdjust="spacingAndGlyphs" textLength="7" x="567.5" y="236.5107">5</text><text fill="#000000" font-family="sans-serif" font-size="13" lengthAdjust="spacingAndGlyphs" textLength="42" x="578.5" y="236.5107">access</text><polygon fill="#A80036" points="60.5,267.7188,50.5,271.7188,60.5,275.7188,56.5,271.7188" style="stroke: #A80036; stroke-width: 1.0;"/><line style="stroke: #A80036; stroke-width: 1.0; stroke-dasharray: 2.0,2.0;" x1="54.5" x2="746" y1="271.7188" y2="271.7188"/><text fill="#000000" font-family="sans-serif" font-size="13" font-weight="bold" lengthAdjust="spacingAndGlyphs" textLength="7" x="66.5" y="266.8623">6</text><text fill="#000000" font-family="sans-serif" font-size="13" lengthAdjust="spacingAndGlyphs" textLength="205" x="77.5" y="266.8623">Asks for the Ship MMSI or CallSign</text><polygon fill="#A80036" points="735,298.0703,745,302.0703,735,306.0703,739,302.0703" style="stroke: #A80036; stroke-width: 1.0;"/><line style="stroke: #A80036; stroke-width: 1.0; stroke-dasharray: 2.0,2.0;" x1="49.5" x2="741" y1="302.0703" y2="302.0703"/><text fill="#000000" font-family="sans-serif" font-size="13" font-weight="bold" lengthAdjust="spacingAndGlyphs" textLength="7" x="56.5" y="297.2139">7</text><text fill="#000000" font-family="sans-serif" font-size="13" lengthAdjust="spacingAndGlyphs" textLength="90" x="67.5" y="297.2139">Inserts the data</text><polygon fill="#A80036" points="1027,328.4219,1037,332.4219,1027,336.4219,1031,332.4219" style="stroke: #A80036; stroke-width: 1.0;"/><line style="stroke: #A80036; stroke-width: 1.0; stroke-dasharray: 2.0,2.0;" x1="747" x2="1033" y1="332.4219" y2="332.4219"/><text fill="#000000" font-family="sans-serif" font-size="13" font-weight="bold" lengthAdjust="spacingAndGlyphs" textLength="7" x="754" y="327.5654">8</text><text fill="#000000" font-family="sans-serif" font-size="13" lengthAdjust="spacingAndGlyphs" textLength="257" x="765" y="327.5654">getOccupancyRateCargoManifestController()</text><polygon fill="#A80036" points="1319,358.7734,1329,362.7734,1319,366.7734,1323,362.7734" style="stroke: #A80036; stroke-width: 1.0;"/><line style="stroke: #A80036; stroke-width: 1.0;" x1="1039" x2="1325" y1="362.7734" y2="362.7734"/><text fill="#000000" font-family="sans-serif" font-size="13" font-weight="bold" lengthAdjust="spacingAndGlyphs" textLength="7" x="1046" y="357.917">9</text><text fill="#000000" font-family="sans-serif" font-size="13" lengthAdjust="spacingAndGlyphs" textLength="257" x="1057" y="357.917">getOccupancyRateCargoManifestController()</text><text fill="#000000" font-family="sans-serif" font-size="14" lengthAdjust="spacingAndGlyphs" textLength="62" x="1331" y="400.9551">DataBase</text><path d="M1347,350.4219 C1347,340.4219 1365,340.4219 1365,340.4219 C1365,340.4219 1383,340.4219 1383,350.4219 L1383,376.4219 C1383,386.4219 1365,386.4219 1365,386.4219 C1365,386.4219 1347,386.4219 1347,376.4219 L1347,350.4219 " fill="#FEFECE" filter="url(#fl7868uuedhed)" style="stroke: #000000; stroke-width: 1.5;"/><path d="M1347,350.4219 C1347,360.4219 1365,360.4219 1365,360.4219 C1365,360.4219 1383,360.4219 1383,350.4219 " fill="none" style="stroke: #000000; stroke-width: 1.5;"/><polygon fill="#A80036" points="758,432.3828,748,436.3828,758,440.3828,754,436.3828" style="stroke: #A80036; stroke-width: 1.0;"/><line style="stroke: #A80036; stroke-width: 1.0; stroke-dasharray: 2.0,2.0;" x1="752" x2="1038" y1="436.3828" y2="436.3828"/><text fill="#000000" font-family="sans-serif" font-size="13" font-weight="bold" lengthAdjust="spacingAndGlyphs" textLength="14" x="764" y="431.5264">10</text><text fill="#000000" font-family="sans-serif" font-size="13" lengthAdjust="spacingAndGlyphs" textLength="32" x="782" y="431.5264">result</text><polygon fill="#A80036" points="60.5,462.7344,50.5,466.7344,60.5,470.7344,56.5,466.7344" style="stroke: #A80036; stroke-width: 1.0;"/><line style="stroke: #A80036; stroke-width: 1.0; stroke-dasharray: 2.0,2.0;" x1="54.5" x2="746" y1="466.7344" y2="466.7344"/><text fill="#000000" font-family="sans-serif" font-size="13" font-weight="bold" lengthAdjust="spacingAndGlyphs" textLength="14" x="66.5" y="461.8779">11</text><text fill="#000000" font-family="sans-serif" font-size="13" lengthAdjust="spacingAndGlyphs" textLength="467" x="84.5" y="461.8779">Shows the occupancy rate (percentage) of a given ship for a given cargo manifest</text><!--MD5=[30eea7c482f9294a78997dac9c729b28]
@startuml

autonumber

actor ShipCaptian #red


System - -> ShipCaptian: Authentication Request
ShipCaptian -> System : Another authentication Response
System - -> ShipCaptian : Authentication successful
ShipCaptian - -> ShipCaptianUI : Asks for the occupancy rate (percentage) of a given ship for a given cargo manifest
ShipCaptianUI - -> GetOccupancyRateCargoManifestUI : access
GetOccupancyRateCargoManifestUI - -> ShipCaptian : Asks for the Ship MMSI or CallSign
ShipCaptian - -> GetOccupancyRateCargoManifestUI : Inserts the data
GetOccupancyRateCargoManifestUI - -> GetOccupancyRateCargoManifestController : getOccupancyRateCargoManifestController()
database       "DataBase"              as db
GetOccupancyRateCargoManifestController -> db** : getOccupancyRateCargoManifestController()
GetOccupancyRateCargoManifestController - -> GetOccupancyRateCargoManifestUI : result
GetOccupancyRateCargoManifestUI - -> ShipCaptian : Shows the occupancy rate (percentage) of a given ship for a given cargo manifest

@enduml

PlantUML version 1.2020.07(Sun Apr 19 12:42:40 BST 2020)
(GPL source distribution)
Java Runtime: OpenJDK Runtime Environment
JVM: OpenJDK 64-Bit Server VM
Java Version: 11.0.6+8-b765.40
Operating System: Windows 10
Default Encoding: Cp1252
Language: pt
Country: PT
--></g></svg>