<?xml version="1.0" encoding="UTF-8" standalone="no"?><svg xmlns="http://www.w3.org/2000/svg" xmlns:xlink="http://www.w3.org/1999/xlink" contentScriptType="application/ecmascript" contentStyleType="text/css" height="684px" preserveAspectRatio="none" style="width:444px;height:684px;background:#FFFFFF;" version="1.1" viewBox="0 0 444 684" width="444px" zoomAndPan="magnify"><defs><filter height="300%" id="f18hltmi3cutcz" width="300%" x="-1" y="-1"><feGaussianBlur result="blurOut" stdDeviation="2.0"/><feColorMatrix in="blurOut" result="blurOut2" type="matrix" values="0 0 0 0 0 0 0 0 0 0 0 0 0 0 0 0 0 0 .4 0"/><feOffset dx="4.0" dy="4.0" in="blurOut2" result="blurOut3"/><feBlend in="SourceGraphic" in2="blurOut3" mode="normal"/></filter></defs><g><!--MD5=[ddaf6f62b0bc30921877ec9fb9463c9f]
class TrafficManager--><rect codeLine="2" fill="#FEFECE" filter="url(#f18hltmi3cutcz)" height="48" id="TrafficManager" style="stroke:#A80036;stroke-width:1.5;" width="113" x="224" y="7"/><ellipse cx="239" cy="23" fill="#ADD1B2" rx="11" ry="11" style="stroke:#A80036;stroke-width:1.0;"/><path d="M241,19.5 Q241.2031,19 241.4375,18.75 Q241.6719,18.5 241.9375,18.5 Q242.4063,18.5 242.7031,18.7813 Q243,19.0625 243,19.7188 L243,21.2813 Q243,21.9375 242.7188,22.2188 Q242.4375,22.5 242,22.5 Q241.6094,22.5 241.3594,22.3281 Q241.1094,22.1563 241,21.7031 Q240.9531,21.3906 240.7813,21.2188 Q240.4688,20.8906 239.9063,20.7031 Q239.3438,20.5 238.7813,20.5 Q238.0781,20.5 237.4844,20.7813 Q236.9063,21.0625 236.4531,21.6875 Q236,22.3125 236,23.1719 L236,24.0938 Q236,25.125 236.8438,25.8125 Q237.6875,26.5 239.1875,26.5 Q240.0781,26.5 240.7031,26.2969 Q241.0625,26.1875 241.4688,25.8281 Q241.7344,25.625 241.875,25.5625 Q242.0156,25.5 242.1875,25.5 Q242.5156,25.5 242.75,25.7656 Q243,26.0156 243,26.375 Q243,26.7188 242.6563,27.125 Q242.1563,27.7188 241.3594,28.0469 Q240.3125,28.5 239.0313,28.5 Q237.5313,28.5 236.3281,27.9063 Q235.3594,27.4375 234.6719,26.4219 Q234,25.4063 234,24.2031 L234,23.1094 Q234,21.8594 234.5938,20.7656 Q235.2031,19.6719 236.25,19.0938 Q237.3125,18.5 238.5,18.5 Q239.2188,18.5 239.8438,18.75 Q240.4688,19 241,19.5 Z " fill="#000000"/><text fill="#000000" font-family="sans-serif" font-size="12" lengthAdjust="spacing" textLength="81" x="253" y="27.9102">TrafficManager</text><line style="stroke:#A80036;stroke-width:1.5;" x1="225" x2="336" y1="39" y2="39"/><line style="stroke:#A80036;stroke-width:1.5;" x1="225" x2="336" y1="47" y2="47"/><!--MD5=[3fd616f346a44cd59a91eb10b19e157c]
class User--><rect codeLine="6" fill="#FEFECE" filter="url(#f18hltmi3cutcz)" height="48" id="User" style="stroke:#A80036;stroke-width:1.5;" width="59" x="358" y="154"/><ellipse cx="373" cy="170" fill="#ADD1B2" rx="11" ry="11" style="stroke:#A80036;stroke-width:1.0;"/><path d="M375,166.5 Q375.2031,166 375.4375,165.75 Q375.6719,165.5 375.9375,165.5 Q376.4063,165.5 376.7031,165.7813 Q377,166.0625 377,166.7188 L377,168.2813 Q377,168.9375 376.7188,169.2188 Q376.4375,169.5 376,169.5 Q375.6094,169.5 375.3594,169.3281 Q375.1094,169.1563 375,168.7031 Q374.9531,168.3906 374.7813,168.2188 Q374.4688,167.8906 373.9063,167.7031 Q373.3438,167.5 372.7813,167.5 Q372.0781,167.5 371.4844,167.7813 Q370.9063,168.0625 370.4531,168.6875 Q370,169.3125 370,170.1719 L370,171.0938 Q370,172.125 370.8438,172.8125 Q371.6875,173.5 373.1875,173.5 Q374.0781,173.5 374.7031,173.2969 Q375.0625,173.1875 375.4688,172.8281 Q375.7344,172.625 375.875,172.5625 Q376.0156,172.5 376.1875,172.5 Q376.5156,172.5 376.75,172.7656 Q377,173.0156 377,173.375 Q377,173.7188 376.6563,174.125 Q376.1563,174.7188 375.3594,175.0469 Q374.3125,175.5 373.0313,175.5 Q371.5313,175.5 370.3281,174.9063 Q369.3594,174.4375 368.6719,173.4219 Q368,172.4063 368,171.2031 L368,170.1094 Q368,168.8594 368.5938,167.7656 Q369.2031,166.6719 370.25,166.0938 Q371.3125,165.5 372.5,165.5 Q373.2188,165.5 373.8438,165.75 Q374.4688,166 375,166.5 Z " fill="#000000"/><text fill="#000000" font-family="sans-serif" font-size="12" lengthAdjust="spacing" textLength="27" x="387" y="174.9102">User</text><line style="stroke:#A80036;stroke-width:1.5;" x1="359" x2="416" y1="186" y2="186"/><line style="stroke:#A80036;stroke-width:1.5;" x1="359" x2="416" y1="194" y2="194"/><!--MD5=[45d42ff7800d812d5f83c7d3273eb427]
class UserRole--><rect codeLine="10" fill="#FEFECE" filter="url(#f18hltmi3cutcz)" height="48" id="UserRole" style="stroke:#A80036;stroke-width:1.5;" width="85" x="345" y="335.5"/><ellipse cx="360" cy="351.5" fill="#ADD1B2" rx="11" ry="11" style="stroke:#A80036;stroke-width:1.0;"/><path d="M362,348 Q362.2031,347.5 362.4375,347.25 Q362.6719,347 362.9375,347 Q363.4063,347 363.7031,347.2813 Q364,347.5625 364,348.2188 L364,349.7813 Q364,350.4375 363.7188,350.7188 Q363.4375,351 363,351 Q362.6094,351 362.3594,350.8281 Q362.1094,350.6563 362,350.2031 Q361.9531,349.8906 361.7813,349.7188 Q361.4688,349.3906 360.9063,349.2031 Q360.3438,349 359.7813,349 Q359.0781,349 358.4844,349.2813 Q357.9063,349.5625 357.4531,350.1875 Q357,350.8125 357,351.6719 L357,352.5938 Q357,353.625 357.8438,354.3125 Q358.6875,355 360.1875,355 Q361.0781,355 361.7031,354.7969 Q362.0625,354.6875 362.4688,354.3281 Q362.7344,354.125 362.875,354.0625 Q363.0156,354 363.1875,354 Q363.5156,354 363.75,354.2656 Q364,354.5156 364,354.875 Q364,355.2188 363.6563,355.625 Q363.1563,356.2188 362.3594,356.5469 Q361.3125,357 360.0313,357 Q358.5313,357 357.3281,356.4063 Q356.3594,355.9375 355.6719,354.9219 Q355,353.9063 355,352.7031 L355,351.6094 Q355,350.3594 355.5938,349.2656 Q356.2031,348.1719 357.25,347.5938 Q358.3125,347 359.5,347 Q360.2188,347 360.8438,347.25 Q361.4688,347.5 362,348 Z " fill="#000000"/><text fill="#000000" font-family="sans-serif" font-size="12" lengthAdjust="spacing" textLength="53" x="374" y="356.4102">UserRole</text><line style="stroke:#A80036;stroke-width:1.5;" x1="346" x2="429" y1="367.5" y2="367.5"/><line style="stroke:#A80036;stroke-width:1.5;" x1="346" x2="429" y1="375.5" y2="375.5"/><!--MD5=[02e4b9b7573f1156f41e60aa5b4e25a4]
class Company--><rect codeLine="14" fill="#FEFECE" filter="url(#f18hltmi3cutcz)" height="48" id="Company" style="stroke:#A80036;stroke-width:1.5;" width="85" x="114" y="496"/><ellipse cx="129" cy="512" fill="#ADD1B2" rx="11" ry="11" style="stroke:#A80036;stroke-width:1.0;"/><path d="M131,508.5 Q131.2031,508 131.4375,507.75 Q131.6719,507.5 131.9375,507.5 Q132.4063,507.5 132.7031,507.7813 Q133,508.0625 133,508.7188 L133,510.2813 Q133,510.9375 132.7188,511.2188 Q132.4375,511.5 132,511.5 Q131.6094,511.5 131.3594,511.3281 Q131.1094,511.1563 131,510.7031 Q130.9531,510.3906 130.7813,510.2188 Q130.4688,509.8906 129.9063,509.7031 Q129.3438,509.5 128.7813,509.5 Q128.0781,509.5 127.4844,509.7813 Q126.9063,510.0625 126.4531,510.6875 Q126,511.3125 126,512.1719 L126,513.0938 Q126,514.125 126.8438,514.8125 Q127.6875,515.5 129.1875,515.5 Q130.0781,515.5 130.7031,515.2969 Q131.0625,515.1875 131.4688,514.8281 Q131.7344,514.625 131.875,514.5625 Q132.0156,514.5 132.1875,514.5 Q132.5156,514.5 132.75,514.7656 Q133,515.0156 133,515.375 Q133,515.7188 132.6563,516.125 Q132.1563,516.7188 131.3594,517.0469 Q130.3125,517.5 129.0313,517.5 Q127.5313,517.5 126.3281,516.9063 Q125.3594,516.4375 124.6719,515.4219 Q124,514.4063 124,513.2031 L124,512.1094 Q124,510.8594 124.5938,509.7656 Q125.2031,508.6719 126.25,508.0938 Q127.3125,507.5 128.5,507.5 Q129.2188,507.5 129.8438,507.75 Q130.4688,508 131,508.5 Z " fill="#000000"/><text fill="#000000" font-family="sans-serif" font-size="12" lengthAdjust="spacing" textLength="53" x="143" y="516.9102">Company</text><line style="stroke:#A80036;stroke-width:1.5;" x1="115" x2="198" y1="528" y2="528"/><line style="stroke:#A80036;stroke-width:1.5;" x1="115" x2="198" y1="536" y2="536"/><!--MD5=[2837d68f8473c9cac87b1b3f82be1c33]
class TopClosenessByContinentUI--><rect codeLine="18" fill="#FEFECE" filter="url(#f18hltmi3cutcz)" height="89.5078" id="TopClosenessByContinentUI" style="stroke:#A80036;stroke-width:1.5;" width="298" x="24.5" y="133"/><ellipse cx="89.25" cy="149" fill="#ADD1B2" rx="11" ry="11" style="stroke:#A80036;stroke-width:1.0;"/><path d="M91.25,145.5 Q91.4531,145 91.6875,144.75 Q91.9219,144.5 92.1875,144.5 Q92.6563,144.5 92.9531,144.7813 Q93.25,145.0625 93.25,145.7188 L93.25,147.2813 Q93.25,147.9375 92.9688,148.2188 Q92.6875,148.5 92.25,148.5 Q91.8594,148.5 91.6094,148.3281 Q91.3594,148.1563 91.25,147.7031 Q91.2031,147.3906 91.0313,147.2188 Q90.7188,146.8906 90.1563,146.7031 Q89.5938,146.5 89.0313,146.5 Q88.3281,146.5 87.7344,146.7813 Q87.1563,147.0625 86.7031,147.6875 Q86.25,148.3125 86.25,149.1719 L86.25,150.0938 Q86.25,151.125 87.0938,151.8125 Q87.9375,152.5 89.4375,152.5 Q90.3281,152.5 90.9531,152.2969 Q91.3125,152.1875 91.7188,151.8281 Q91.9844,151.625 92.125,151.5625 Q92.2656,151.5 92.4375,151.5 Q92.7656,151.5 93,151.7656 Q93.25,152.0156 93.25,152.375 Q93.25,152.7188 92.9063,153.125 Q92.4063,153.7188 91.6094,154.0469 Q90.5625,154.5 89.2813,154.5 Q87.7813,154.5 86.5781,153.9063 Q85.6094,153.4375 84.9219,152.4219 Q84.25,151.4063 84.25,150.2031 L84.25,149.1094 Q84.25,147.8594 84.8438,146.7656 Q85.4531,145.6719 86.5,145.0938 Q87.5625,144.5 88.75,144.5 Q89.4688,144.5 90.0938,144.75 Q90.7188,145 91.25,145.5 Z " fill="#000000"/><text fill="#000000" font-family="sans-serif" font-size="12" lengthAdjust="spacing" textLength="160" x="109.75" y="153.9102">TopClosenessByContinentUI</text><line style="stroke:#A80036;stroke-width:1.5;" x1="25.5" x2="321.5" y1="165" y2="165"/><rect fill="none" height="6" style="stroke:#C82930;stroke-width:1.0;" width="6" x="32.5" y="173"/><text fill="#000000" font-family="sans-serif" font-size="11" lengthAdjust="spacing" textLength="272" x="44.5" y="180.4189">TopClosenessByContinentUI topClosenessByContinentUI</text><line style="stroke:#A80036;stroke-width:1.5;" x1="25.5" x2="321.5" y1="186.8359" y2="186.8359"/><ellipse cx="35.5" cy="197.8359" fill="#84BE84" rx="3" ry="3" style="stroke:#038048;stroke-width:1.0;"/><text fill="#000000" font-family="sans-serif" font-size="11" lengthAdjust="spacing" textLength="144" x="44.5" y="202.2549">TopClosenessByContinentUI()</text><ellipse cx="35.5" cy="211.6719" fill="#84BE84" rx="3" ry="3" style="stroke:#038048;stroke-width:1.0;"/><text fill="#000000" font-family="sans-serif" font-size="11" lengthAdjust="spacing" textLength="24" x="44.5" y="216.0908">run()</text><!--MD5=[66decd9464ed3e2f0f4c638ea5f8888c]
class TopClosenessByContinentController--><rect codeLine="24" fill="#FEFECE" filter="url(#f18hltmi3cutcz)" height="117.1797" id="TopClosenessByContinentController" style="stroke:#A80036;stroke-width:1.5;" width="299" x="7" y="301"/><ellipse cx="51.25" cy="317" fill="#ADD1B2" rx="11" ry="11" style="stroke:#A80036;stroke-width:1.0;"/><path d="M53.25,313.5 Q53.4531,313 53.6875,312.75 Q53.9219,312.5 54.1875,312.5 Q54.6563,312.5 54.9531,312.7813 Q55.25,313.0625 55.25,313.7188 L55.25,315.2813 Q55.25,315.9375 54.9688,316.2188 Q54.6875,316.5 54.25,316.5 Q53.8594,316.5 53.6094,316.3281 Q53.3594,316.1563 53.25,315.7031 Q53.2031,315.3906 53.0313,315.2188 Q52.7188,314.8906 52.1563,314.7031 Q51.5938,314.5 51.0313,314.5 Q50.3281,314.5 49.7344,314.7813 Q49.1563,315.0625 48.7031,315.6875 Q48.25,316.3125 48.25,317.1719 L48.25,318.0938 Q48.25,319.125 49.0938,319.8125 Q49.9375,320.5 51.4375,320.5 Q52.3281,320.5 52.9531,320.2969 Q53.3125,320.1875 53.7188,319.8281 Q53.9844,319.625 54.125,319.5625 Q54.2656,319.5 54.4375,319.5 Q54.7656,319.5 55,319.7656 Q55.25,320.0156 55.25,320.375 Q55.25,320.7188 54.9063,321.125 Q54.4063,321.7188 53.6094,322.0469 Q52.5625,322.5 51.2813,322.5 Q49.7813,322.5 48.5781,321.9063 Q47.6094,321.4375 46.9219,320.4219 Q46.25,319.4063 46.25,318.2031 L46.25,317.1094 Q46.25,315.8594 46.8438,314.7656 Q47.4531,313.6719 48.5,313.0938 Q49.5625,312.5 50.75,312.5 Q51.4688,312.5 52.0938,312.75 Q52.7188,313 53.25,313.5 Z " fill="#000000"/><text fill="#000000" font-family="sans-serif" font-size="12" lengthAdjust="spacing" textLength="202" x="71.75" y="321.9102">TopClosenessByContinentController</text><line style="stroke:#A80036;stroke-width:1.5;" x1="8" x2="305" y1="333" y2="333"/><rect fill="none" height="6" style="stroke:#C82930;stroke-width:1.0;" width="6" x="15" y="341"/><text fill="#000000" font-family="sans-serif" font-size="11" lengthAdjust="spacing" textLength="92" x="27" y="348.4189">Company company</text><line style="stroke:#A80036;stroke-width:1.5;" x1="8" x2="305" y1="354.8359" y2="354.8359"/><ellipse cx="18" cy="365.8359" fill="#84BE84" rx="3" ry="3" style="stroke:#038048;stroke-width:1.0;"/><text fill="#000000" font-family="sans-serif" font-size="11" lengthAdjust="spacing" textLength="181" x="27" y="370.2549">TopClosenessByContinentController()</text><ellipse cx="18" cy="379.6719" fill="#84BE84" rx="3" ry="3" style="stroke:#038048;stroke-width:1.0;"/><text fill="#000000" font-family="sans-serif" font-size="11" lengthAdjust="spacing" textLength="273" x="27" y="384.0908">TopClosenessByContinentController(Company company)</text><ellipse cx="18" cy="393.5078" fill="#84BE84" rx="3" ry="3" style="stroke:#038048;stroke-width:1.0;"/><text fill="#000000" font-family="sans-serif" font-size="11" lengthAdjust="spacing" textLength="178" x="27" y="397.9268">topClosenessByContinentController()</text><ellipse cx="18" cy="407.3438" fill="#84BE84" rx="3" ry="3" style="stroke:#038048;stroke-width:1.0;"/><text fill="#000000" font-family="sans-serif" font-size="11" lengthAdjust="spacing" textLength="68" x="27" y="411.7627">getCompany()</text><!--MD5=[4a4be67e9f0cb57c34989a64583ea874]
class GraphGenerator--><rect codeLine="32" fill="#FEFECE" filter="url(#f18hltmi3cutcz)" height="48" id="GraphGenerator" style="stroke:#A80036;stroke-width:1.5;" width="121" x="27" y="622"/><ellipse cx="42" cy="638" fill="#ADD1B2" rx="11" ry="11" style="stroke:#A80036;stroke-width:1.0;"/><path d="M44,634.5 Q44.2031,634 44.4375,633.75 Q44.6719,633.5 44.9375,633.5 Q45.4063,633.5 45.7031,633.7813 Q46,634.0625 46,634.7188 L46,636.2813 Q46,636.9375 45.7188,637.2188 Q45.4375,637.5 45,637.5 Q44.6094,637.5 44.3594,637.3281 Q44.1094,637.1563 44,636.7031 Q43.9531,636.3906 43.7813,636.2188 Q43.4688,635.8906 42.9063,635.7031 Q42.3438,635.5 41.7813,635.5 Q41.0781,635.5 40.4844,635.7813 Q39.9063,636.0625 39.4531,636.6875 Q39,637.3125 39,638.1719 L39,639.0938 Q39,640.125 39.8438,640.8125 Q40.6875,641.5 42.1875,641.5 Q43.0781,641.5 43.7031,641.2969 Q44.0625,641.1875 44.4688,640.8281 Q44.7344,640.625 44.875,640.5625 Q45.0156,640.5 45.1875,640.5 Q45.5156,640.5 45.75,640.7656 Q46,641.0156 46,641.375 Q46,641.7188 45.6563,642.125 Q45.1563,642.7188 44.3594,643.0469 Q43.3125,643.5 42.0313,643.5 Q40.5313,643.5 39.3281,642.9063 Q38.3594,642.4375 37.6719,641.4219 Q37,640.4063 37,639.2031 L37,638.1094 Q37,636.8594 37.5938,635.7656 Q38.2031,634.6719 39.25,634.0938 Q40.3125,633.5 41.5,633.5 Q42.2188,633.5 42.8438,633.75 Q43.4688,634 44,634.5 Z " fill="#000000"/><text fill="#000000" font-family="sans-serif" font-size="12" lengthAdjust="spacing" textLength="89" x="56" y="642.9102">GraphGenerator</text><line style="stroke:#A80036;stroke-width:1.5;" x1="28" x2="147" y1="654" y2="654"/><line style="stroke:#A80036;stroke-width:1.5;" x1="28" x2="147" y1="662" y2="662"/><!--MD5=[837d3612090b426002fd1342fcbe6b88]
class DataBase--><rect fill="#FEFECE" filter="url(#f18hltmi3cutcz)" height="48" id="DataBase" style="stroke:#A80036;stroke-width:1.5;" width="87" x="183" y="622"/><ellipse cx="198" cy="638" fill="#ADD1B2" rx="11" ry="11" style="stroke:#A80036;stroke-width:1.0;"/><path d="M200,634.5 Q200.2031,634 200.4375,633.75 Q200.6719,633.5 200.9375,633.5 Q201.4063,633.5 201.7031,633.7813 Q202,634.0625 202,634.7188 L202,636.2813 Q202,636.9375 201.7188,637.2188 Q201.4375,637.5 201,637.5 Q200.6094,637.5 200.3594,637.3281 Q200.1094,637.1563 200,636.7031 Q199.9531,636.3906 199.7813,636.2188 Q199.4688,635.8906 198.9063,635.7031 Q198.3438,635.5 197.7813,635.5 Q197.0781,635.5 196.4844,635.7813 Q195.9063,636.0625 195.4531,636.6875 Q195,637.3125 195,638.1719 L195,639.0938 Q195,640.125 195.8438,640.8125 Q196.6875,641.5 198.1875,641.5 Q199.0781,641.5 199.7031,641.2969 Q200.0625,641.1875 200.4688,640.8281 Q200.7344,640.625 200.875,640.5625 Q201.0156,640.5 201.1875,640.5 Q201.5156,640.5 201.75,640.7656 Q202,641.0156 202,641.375 Q202,641.7188 201.6563,642.125 Q201.1563,642.7188 200.3594,643.0469 Q199.3125,643.5 198.0313,643.5 Q196.5313,643.5 195.3281,642.9063 Q194.3594,642.4375 193.6719,641.4219 Q193,640.4063 193,639.2031 L193,638.1094 Q193,636.8594 193.5938,635.7656 Q194.2031,634.6719 195.25,634.0938 Q196.3125,633.5 197.5,633.5 Q198.2188,633.5 198.8438,633.75 Q199.4688,634 200,634.5 Z " fill="#000000"/><text fill="#000000" font-family="sans-serif" font-size="12" lengthAdjust="spacing" textLength="55" x="212" y="642.9102">DataBase</text><line style="stroke:#A80036;stroke-width:1.5;" x1="184" x2="269" y1="654" y2="654"/><line style="stroke:#A80036;stroke-width:1.5;" x1="184" x2="269" y1="662" y2="662"/><!--MD5=[532d001eff109058bbedd4757ec299ae]
link TrafficManager to TopClosenessByContinentUI--><path codeLine="35" d="M263.31,55.3 C248.73,75.05 227.35,104.03 209.11,128.75 " fill="none" id="TrafficManager-to-TopClosenessByContinentUI" style="stroke:#A80036;stroke-width:1.0;"/><polygon fill="#A80036" points="205.97,133,214.5314,128.1314,208.9379,128.9762,208.0932,123.3827,205.97,133" style="stroke:#A80036;stroke-width:1.0;"/><text fill="#000000" font-family="sans-serif" font-size="13" lengthAdjust="spacing" textLength="44" x="241.5" y="99.4951">Access</text><!--MD5=[ec4f13e004143b764be4b50e270005cc]
link TopClosenessByContinentUI to TopClosenessByContinentController--><path codeLine="36" d="M117.84,223.21 C109.96,232.17 103.02,242.2 98.5,253 C92.52,267.29 94.87,282.15 101.22,296.05 " fill="none" id="TopClosenessByContinentUI-to-TopClosenessByContinentController" style="stroke:#A80036;stroke-width:1.0;"/><polygon fill="#A80036" points="103.52,300.73,103.1231,290.8891,101.3068,296.2465,95.9495,294.4303,103.52,300.73" style="stroke:#A80036;stroke-width:1.0;"/><text fill="#000000" font-family="sans-serif" font-size="13" lengthAdjust="spacing" textLength="82" x="99.5" y="267.4951">Connects with</text><!--MD5=[76fa9c90dc7e6055ded5f1266c78bc90]
reverse link TopClosenessByContinentUI to TopClosenessByContinentController--><path codeLine="39" d="M186.01,228.11 C188.04,242 188.81,257.11 186.5,271 C184.86,280.82 182.26,291.02 179.25,300.83 " fill="none" id="TopClosenessByContinentUI-backto-TopClosenessByContinentController" style="stroke:#A80036;stroke-width:1.0;"/><polygon fill="#A80036" points="185.21,223.06,182.6768,232.5775,185.9972,227.9976,190.577,231.318,185.21,223.06" style="stroke:#A80036;stroke-width:1.0;"/><text fill="#000000" font-family="sans-serif" font-size="13" lengthAdjust="spacing" textLength="69" x="189.5" y="267.4951">Returns Info</text><!--MD5=[d09fe284dff54f56f1e17acf5f33d2d7]
link TrafficManager to User--><path codeLine="37" d="M297.69,55.3 C316.64,80.98 347.11,122.27 367.22,149.51 " fill="none" id="TrafficManager-to-User" style="stroke:#A80036;stroke-width:1.0;"/><polygon fill="#A80036" points="370.35,153.76,368.2268,144.1427,367.3821,149.7362,361.7886,148.8914,370.35,153.76" style="stroke:#A80036;stroke-width:1.0;"/><text fill="#000000" font-family="sans-serif" font-size="13" lengthAdjust="spacing" textLength="21" x="332.5" y="99.4951">is a</text><!--MD5=[1f12d177c84922ed4f166f09ee62ceaa]
link User to UserRole--><path codeLine="38" d="M387.5,202.1 C387.5,234.95 387.5,295.09 387.5,330.46 " fill="none" id="User-to-UserRole" style="stroke:#A80036;stroke-width:1.0;"/><polygon fill="#A80036" points="387.5,335.49,391.5,326.49,387.5,330.49,383.5,326.49,387.5,335.49" style="stroke:#A80036;stroke-width:1.0;"/><text fill="#000000" font-family="sans-serif" font-size="13" lengthAdjust="spacing" textLength="21" x="388.5" y="267.4951">has</text><!--MD5=[135791e3eb6c84a032597966bfb44d5e]
link TopClosenessByContinentController to Company--><path codeLine="40" d="M105.87,418.35 C99.99,427.74 94.89,437.76 91.5,448 C85.79,465.26 96.67,480.67 111.07,492.69 " fill="none" id="TopClosenessByContinentController-to-Company" style="stroke:#A80036;stroke-width:1.0;"/><polygon fill="#A80036" points="115.21,495.98,110.6576,487.2464,111.2973,492.867,105.6767,493.5067,115.21,495.98" style="stroke:#A80036;stroke-width:1.0;"/><text fill="#000000" font-family="sans-serif" font-size="13" lengthAdjust="spacing" textLength="82" x="92.5" y="462.4951">Connects with</text><!--MD5=[999a125a540d4524b49af7c4f21a2ce8]
link Company to TopClosenessByContinentController--><path codeLine="41" d="M168.95,495.94 C173.19,486.88 177.38,476.21 179.5,466 C182.37,452.19 181.56,437.38 178.99,423.35 " fill="none" id="Company-to-TopClosenessByContinentController" style="stroke:#A80036;stroke-width:1.0;"/><polygon fill="#A80036" points="177.97,418.22,175.8181,427.8309,178.9533,423.1224,183.6619,426.2576,177.97,418.22" style="stroke:#A80036;stroke-width:1.0;"/><text fill="#000000" font-family="sans-serif" font-size="13" lengthAdjust="spacing" textLength="69" x="182.5" y="462.4951">Returns Info</text><!--MD5=[35c8e59b1ea7335c6def1d8c5c8dc4f1]
link Company to GraphGenerator--><path codeLine="42" d="M113.86,543.08 C102.56,551.17 91.77,561.49 85.5,574 C79.01,586.94 78.89,602.95 80.67,616.49 " fill="none" id="Company-to-GraphGenerator" style="stroke:#A80036;stroke-width:1.0;"/><polygon fill="#A80036" points="81.47,621.73,84.088,612.2355,80.7269,616.7855,76.1768,613.4244,81.47,621.73" style="stroke:#A80036;stroke-width:1.0;"/><text fill="#000000" font-family="sans-serif" font-size="13" lengthAdjust="spacing" textLength="96" x="86.5" y="588.4951">Generates graph</text><!--MD5=[28fa5ca211853e28b35503d2b875b2be]
link Company to DataBase--><path codeLine="43" d="M170.22,544.14 C175.65,553.39 181.93,564.17 187.5,574 C195.53,588.16 204.27,604.04 211.44,617.18 " fill="none" id="Company-to-DataBase" style="stroke:#A80036;stroke-width:1.0;"/><polygon fill="#A80036" points="214.01,621.89,213.1985,612.0746,211.6097,617.5038,206.1806,615.9151,214.01,621.89" style="stroke:#A80036;stroke-width:1.0;"/><text fill="#000000" font-family="sans-serif" font-size="13" lengthAdjust="spacing" textLength="55" x="198.5" y="588.4951">Connects</text><!--MD5=[21e76528a0b16198ea0a70fa2ee8dd01]
@startuml

class TrafficManager{

}

class User{

}

class UserRole{

}

class Company{

}

class TopClosenessByContinentUI{
    -TopClosenessByContinentUI topClosenessByContinentUI
    +TopClosenessByContinentUI()
    +run()
}

class TopClosenessByContinentController{
    -Company company
    +TopClosenessByContinentController()
    +TopClosenessByContinentController(Company company)
    +topClosenessByContinentController()
    +getCompany()
}

class GraphGenerator{
}

TrafficManager - -> TopClosenessByContinentUI : Access
TopClosenessByContinentUI -down-> TopClosenessByContinentController : Connects with
TrafficManager - -> User : is a
User - -> UserRole : has
TopClosenessByContinentController -up-> TopClosenessByContinentUI : Returns Info
TopClosenessByContinentController - -> Company : Connects with
Company - -> TopClosenessByContinentController : Returns Info
Company - -> GraphGenerator : Generates graph
Company - -> DataBase : Connects

@enduml

PlantUML version 1.2021.11(Sat Oct 02 14:26:11 BST 2021)
(GPL source distribution)
Java Runtime: OpenJDK Runtime Environment
JVM: OpenJDK 64-Bit Server VM
Default Encoding: Cp1252
Language: pt
Country: PT
--></g></svg>