<?xml version="1.0" encoding="UTF-8" standalone="no"?><svg xmlns="http://www.w3.org/2000/svg" xmlns:xlink="http://www.w3.org/1999/xlink" contentScriptType="application/ecmascript" contentStyleType="text/css" height="407px" preserveAspectRatio="none" style="width:670px;height:407px;background:#FFFFFF;" version="1.1" viewBox="0 0 670 407" width="670px" zoomAndPan="magnify"><defs><filter height="300%" id="f1ov8piwybbu3g" width="300%" x="-1" y="-1"><feGaussianBlur result="blurOut" stdDeviation="2.0"/><feColorMatrix in="blurOut" result="blurOut2" type="matrix" values="0 0 0 0 0 0 0 0 0 0 0 0 0 0 0 0 0 0 .4 0"/><feOffset dx="4.0" dy="4.0" in="blurOut2" result="blurOut3"/><feBlend in="SourceGraphic" in2="blurOut3" mode="normal"/></filter></defs><g><line style="stroke:#A80036;stroke-width:1.0;stroke-dasharray:5.0,5.0;" x1="56" x2="56" y1="89.6094" y2="322.0703"/><line style="stroke:#A80036;stroke-width:1.0;stroke-dasharray:5.0,5.0;" x1="628" x2="628" y1="89.6094" y2="322.0703"/><text fill="#000000" font-family="sans-serif" font-size="14" lengthAdjust="spacing" textLength="96" x="5" y="86.5332">TrafficManager</text><ellipse cx="56" cy="15" fill="#FF0000" filter="url(#f1ov8piwybbu3g)" rx="8" ry="8" style="stroke:#A80036;stroke-width:2.0;"/><path d="M56,23 L56,50 M43,31 L69,31 M56,50 L43,65 M56,50 L69,65 " fill="none" filter="url(#f1ov8piwybbu3g)" style="stroke:#A80036;stroke-width:2.0;"/><text fill="#000000" font-family="sans-serif" font-size="14" lengthAdjust="spacing" textLength="96" x="5" y="335.6035">TrafficManager</text><ellipse cx="56" cy="348.6797" fill="#FF0000" filter="url(#f1ov8piwybbu3g)" rx="8" ry="8" style="stroke:#A80036;stroke-width:2.0;"/><path d="M56,356.6797 L56,383.6797 M43,364.6797 L69,364.6797 M56,383.6797 L43,398.6797 M56,383.6797 L69,398.6797 " fill="none" filter="url(#f1ov8piwybbu3g)" style="stroke:#A80036;stroke-width:2.0;"/><rect fill="#FEFECE" filter="url(#f1ov8piwybbu3g)" height="31.6094" style="stroke:#A80036;stroke-width:1.5;" width="60" x="596" y="53"/><text fill="#000000" font-family="sans-serif" font-size="14" lengthAdjust="spacing" textLength="46" x="603" y="74.5332">System</text><rect fill="#FEFECE" filter="url(#f1ov8piwybbu3g)" height="31.6094" style="stroke:#A80036;stroke-width:1.5;" width="60" x="596" y="321.0703"/><text fill="#000000" font-family="sans-serif" font-size="14" lengthAdjust="spacing" textLength="46" x="603" y="342.6035">System</text><polygon fill="#A80036" points="67,117.9609,57,121.9609,67,125.9609,63,121.9609" style="stroke:#A80036;stroke-width:1.0;"/><line style="stroke:#A80036;stroke-width:1.0;stroke-dasharray:2.0,2.0;" x1="61" x2="627" y1="121.9609" y2="121.9609"/><text fill="#000000" font-family="sans-serif" font-size="13" font-weight="bold" lengthAdjust="spacing" textLength="7" x="73" y="117.1045">1</text><text fill="#000000" font-family="sans-serif" font-size="13" lengthAdjust="spacing" textLength="135" x="84" y="117.1045">Authentication Request</text><polygon fill="#A80036" points="616,148.3125,626,152.3125,616,156.3125,620,152.3125" style="stroke:#A80036;stroke-width:1.0;"/><line style="stroke:#A80036;stroke-width:1.0;" x1="56" x2="622" y1="152.3125" y2="152.3125"/><text fill="#000000" font-family="sans-serif" font-size="13" font-weight="bold" lengthAdjust="spacing" textLength="7" x="63" y="147.4561">2</text><text fill="#000000" font-family="sans-serif" font-size="13" lengthAdjust="spacing" textLength="192" x="74" y="147.4561">Another authentication Response</text><polygon fill="#A80036" points="67,178.6641,57,182.6641,67,186.6641,63,182.6641" style="stroke:#A80036;stroke-width:1.0;"/><line style="stroke:#A80036;stroke-width:1.0;stroke-dasharray:2.0,2.0;" x1="61" x2="627" y1="182.6641" y2="182.6641"/><text fill="#000000" font-family="sans-serif" font-size="13" font-weight="bold" lengthAdjust="spacing" textLength="7" x="73" y="177.8076">3</text><text fill="#000000" font-family="sans-serif" font-size="13" lengthAdjust="spacing" textLength="149" x="84" y="177.8076">Authentication successful</text><polygon fill="#A80036" points="616,209.0156,626,213.0156,616,217.0156,620,213.0156" style="stroke:#A80036;stroke-width:1.0;"/><line style="stroke:#A80036;stroke-width:1.0;stroke-dasharray:2.0,2.0;" x1="56" x2="622" y1="213.0156" y2="213.0156"/><text fill="#000000" font-family="sans-serif" font-size="13" font-weight="bold" lengthAdjust="spacing" textLength="7" x="63" y="208.1592">4</text><text fill="#000000" font-family="sans-serif" font-size="13" lengthAdjust="spacing" textLength="537" x="74" y="208.1592">Asks to know which places (cities or ports) are closest to all other places (closeness places)</text><polygon fill="#A80036" points="67,239.3672,57,243.3672,67,247.3672,63,243.3672" style="stroke:#A80036;stroke-width:1.0;"/><line style="stroke:#A80036;stroke-width:1.0;stroke-dasharray:2.0,2.0;" x1="61" x2="627" y1="243.3672" y2="243.3672"/><text fill="#000000" font-family="sans-serif" font-size="13" font-weight="bold" lengthAdjust="spacing" textLength="7" x="73" y="238.5107">5</text><text fill="#000000" font-family="sans-serif" font-size="13" lengthAdjust="spacing" textLength="302" x="84" y="238.5107">Asks for how much places wants to show on the top</text><polygon fill="#A80036" points="616,269.7188,626,273.7188,616,277.7188,620,273.7188" style="stroke:#A80036;stroke-width:1.0;"/><line style="stroke:#A80036;stroke-width:1.0;stroke-dasharray:2.0,2.0;" x1="56" x2="622" y1="273.7188" y2="273.7188"/><text fill="#000000" font-family="sans-serif" font-size="13" font-weight="bold" lengthAdjust="spacing" textLength="7" x="63" y="268.8623">6</text><text fill="#000000" font-family="sans-serif" font-size="13" lengthAdjust="spacing" textLength="95" x="74" y="268.8623">Inserts the TopN</text><polygon fill="#A80036" points="67,300.0703,57,304.0703,67,308.0703,63,304.0703" style="stroke:#A80036;stroke-width:1.0;"/><line style="stroke:#A80036;stroke-width:1.0;stroke-dasharray:2.0,2.0;" x1="61" x2="627" y1="304.0703" y2="304.0703"/><text fill="#000000" font-family="sans-serif" font-size="13" font-weight="bold" lengthAdjust="spacing" textLength="7" x="73" y="299.2139">7</text><text fill="#000000" font-family="sans-serif" font-size="13" lengthAdjust="spacing" textLength="292" x="84" y="299.2139">Shows all the TopN Closeness locals by Continent</text><!--MD5=[cf7a14ee3018c0aa832ddaa168ba00c5]
@startuml
autonumber

actor TrafficManager #red

System - -> TrafficManager: Authentication Request
TrafficManager -> System : Another authentication Response
System - -> TrafficManager : Authentication successful
TrafficManager - -> System : Asks to know which places (cities or ports) are closest to all other places (closeness places)
System - -> TrafficManager : Asks for how much places wants to show on the top
TrafficManager - -> System : Inserts the TopN
System - -> TrafficManager : Shows all the TopN Closeness locals by Continent

@enduml

PlantUML version 1.2021.11(Sat Oct 02 14:26:11 BST 2021)
(GPL source distribution)
Java Runtime: OpenJDK Runtime Environment
JVM: OpenJDK 64-Bit Server VM
Default Encoding: Cp1252
Language: pt
Country: PT
--></g></svg>