<?xml version="1.0" encoding="UTF-8" standalone="no"?><svg xmlns="http://www.w3.org/2000/svg" xmlns:xlink="http://www.w3.org/1999/xlink" contentScriptType="application/ecmascript" contentStyleType="text/css" height="1001px" preserveAspectRatio="none" style="width:614px;height:1001px;background:#FFFFFF;" version="1.1" viewBox="0 0 614 1001" width="614px" zoomAndPan="magnify"><defs><filter height="300%" id="f1odbi08ro9ycc" width="300%" x="-1" y="-1"><feGaussianBlur result="blurOut" stdDeviation="2.0"/><feColorMatrix in="blurOut" result="blurOut2" type="matrix" values="0 0 0 0 0 0 0 0 0 0 0 0 0 0 0 0 0 0 .4 0"/><feOffset dx="4.0" dy="4.0" in="blurOut2" result="blurOut3"/><feBlend in="SourceGraphic" in2="blurOut3" mode="normal"/></filter></defs><g><!--MD5=[ace34b5772f711d4dfedc035b0332395]
class GetShipPositionByDateController--><rect codeLine="2" fill="#FEFECE" filter="url(#f1odbi08ro9ycc)" height="103.3438" id="GetShipPositionByDateController" style="stroke:#A80036;stroke-width:1.5;" width="310" x="7" y="202"/><ellipse cx="66.75" cy="218" fill="#ADD1B2" rx="11" ry="11" style="stroke:#A80036;stroke-width:1.0;"/><path d="M68.75,214.5 Q68.9531,214 69.1875,213.75 Q69.4219,213.5 69.6875,213.5 Q70.1563,213.5 70.4531,213.7813 Q70.75,214.0625 70.75,214.7188 L70.75,216.2813 Q70.75,216.9375 70.4688,217.2188 Q70.1875,217.5 69.75,217.5 Q69.3594,217.5 69.1094,217.3281 Q68.8594,217.1563 68.75,216.7031 Q68.7031,216.3906 68.5313,216.2188 Q68.2188,215.8906 67.6563,215.7031 Q67.0938,215.5 66.5313,215.5 Q65.8281,215.5 65.2344,215.7813 Q64.6563,216.0625 64.2031,216.6875 Q63.75,217.3125 63.75,218.1719 L63.75,219.0938 Q63.75,220.125 64.5938,220.8125 Q65.4375,221.5 66.9375,221.5 Q67.8281,221.5 68.4531,221.2969 Q68.8125,221.1875 69.2188,220.8281 Q69.4844,220.625 69.625,220.5625 Q69.7656,220.5 69.9375,220.5 Q70.2656,220.5 70.5,220.7656 Q70.75,221.0156 70.75,221.375 Q70.75,221.7188 70.4063,222.125 Q69.9063,222.7188 69.1094,223.0469 Q68.0625,223.5 66.7813,223.5 Q65.2813,223.5 64.0781,222.9063 Q63.1094,222.4375 62.4219,221.4219 Q61.75,220.4063 61.75,219.2031 L61.75,218.1094 Q61.75,216.8594 62.3438,215.7656 Q62.9531,214.6719 64,214.0938 Q65.0625,213.5 66.25,213.5 Q66.9688,213.5 67.5938,213.75 Q68.2188,214 68.75,214.5 Z " fill="#000000"/><text fill="#000000" font-family="sans-serif" font-size="12" lengthAdjust="spacing" textLength="182" x="87.25" y="222.9102">GetShipPositionByDateController</text><line style="stroke:#A80036;stroke-width:1.5;" x1="8" x2="316" y1="234" y2="234"/><rect fill="none" height="6" style="stroke:#C82930;stroke-width:1.0;" width="6" x="15" y="242"/><text fill="#000000" font-family="sans-serif" font-size="11" lengthAdjust="spacing" textLength="92" x="27" y="249.4189">Company company</text><line style="stroke:#A80036;stroke-width:1.5;" x1="8" x2="316" y1="255.8359" y2="255.8359"/><ellipse cx="18" cy="266.8359" fill="#84BE84" rx="3" ry="3" style="stroke:#038048;stroke-width:1.0;"/><text fill="#000000" font-family="sans-serif" font-size="11" lengthAdjust="spacing" textLength="164" x="27" y="271.2549">GetShipPositionByDateController()</text><ellipse cx="18" cy="280.6719" fill="#84BE84" rx="3" ry="3" style="stroke:#038048;stroke-width:1.0;"/><text fill="#000000" font-family="sans-serif" font-size="11" lengthAdjust="spacing" textLength="256" x="27" y="285.0908">GetShipPositionByDateController(Company company)</text><ellipse cx="18" cy="294.5078" fill="#84BE84" rx="3" ry="3" style="stroke:#038048;stroke-width:1.0;"/><text fill="#000000" font-family="sans-serif" font-size="11" lengthAdjust="spacing" textLength="284" x="27" y="298.9268">getShipPositionMessagesOrderByDateController(Ship ship)</text><!--MD5=[cb380dd3e981b7ba18ffe921bddbe343]
class GetShipPositionByDateUI--><rect codeLine="9" fill="#FEFECE" filter="url(#f1odbi08ro9ycc)" height="117.1797" id="GetShipPositionByDateUI" style="stroke:#A80036;stroke-width:1.5;" width="339" x="149.5" y="7"/><ellipse cx="244.75" cy="23" fill="#ADD1B2" rx="11" ry="11" style="stroke:#A80036;stroke-width:1.0;"/><path d="M246.75,19.5 Q246.9531,19 247.1875,18.75 Q247.4219,18.5 247.6875,18.5 Q248.1563,18.5 248.4531,18.7813 Q248.75,19.0625 248.75,19.7188 L248.75,21.2813 Q248.75,21.9375 248.4688,22.2188 Q248.1875,22.5 247.75,22.5 Q247.3594,22.5 247.1094,22.3281 Q246.8594,22.1563 246.75,21.7031 Q246.7031,21.3906 246.5313,21.2188 Q246.2188,20.8906 245.6563,20.7031 Q245.0938,20.5 244.5313,20.5 Q243.8281,20.5 243.2344,20.7813 Q242.6563,21.0625 242.2031,21.6875 Q241.75,22.3125 241.75,23.1719 L241.75,24.0938 Q241.75,25.125 242.5938,25.8125 Q243.4375,26.5 244.9375,26.5 Q245.8281,26.5 246.4531,26.2969 Q246.8125,26.1875 247.2188,25.8281 Q247.4844,25.625 247.625,25.5625 Q247.7656,25.5 247.9375,25.5 Q248.2656,25.5 248.5,25.7656 Q248.75,26.0156 248.75,26.375 Q248.75,26.7188 248.4063,27.125 Q247.9063,27.7188 247.1094,28.0469 Q246.0625,28.5 244.7813,28.5 Q243.2813,28.5 242.0781,27.9063 Q241.1094,27.4375 240.4219,26.4219 Q239.75,25.4063 239.75,24.2031 L239.75,23.1094 Q239.75,21.8594 240.3438,20.7656 Q240.9531,19.6719 242,19.0938 Q243.0625,18.5 244.25,18.5 Q244.9688,18.5 245.5938,18.75 Q246.2188,19 246.75,19.5 Z " fill="#000000"/><text fill="#000000" font-family="sans-serif" font-size="12" lengthAdjust="spacing" textLength="140" x="265.25" y="27.9102">GetShipPositionByDateUI</text><line style="stroke:#A80036;stroke-width:1.5;" x1="150.5" x2="487.5" y1="39" y2="39"/><rect fill="none" height="6" style="stroke:#C82930;stroke-width:1.0;" width="6" x="157.5" y="47"/><text fill="#000000" font-family="sans-serif" font-size="11" lengthAdjust="spacing" textLength="199" x="169.5" y="54.4189">ApplicationController applicationController</text><rect fill="none" height="6" style="stroke:#C82930;stroke-width:1.0;" width="6" x="157.5" y="60.8359"/><text fill="#000000" font-family="sans-serif" font-size="11" lengthAdjust="spacing" textLength="313" x="169.5" y="68.2549">GetShipPositionByDateController getShipPositionByDateController</text><rect fill="none" height="6" style="stroke:#C82930;stroke-width:1.0;" width="6" x="157.5" y="74.6719"/><text fill="#000000" font-family="sans-serif" font-size="11" lengthAdjust="spacing" textLength="245" x="169.5" y="82.0908">GetShipByCodeController getShipByCodeController</text><line style="stroke:#A80036;stroke-width:1.5;" x1="150.5" x2="487.5" y1="88.5078" y2="88.5078"/><ellipse cx="160.5" cy="99.5078" fill="#84BE84" rx="3" ry="3" style="stroke:#038048;stroke-width:1.0;"/><text fill="#000000" font-family="sans-serif" font-size="11" lengthAdjust="spacing" textLength="127" x="169.5" y="103.9268">GetShipPositionByDateUI()</text><ellipse cx="160.5" cy="113.3438" fill="#84BE84" rx="3" ry="3" style="stroke:#038048;stroke-width:1.0;"/><text fill="#000000" font-family="sans-serif" font-size="11" lengthAdjust="spacing" textLength="194" x="169.5" y="117.7627">getShipPositionMessagesOrderByDate()</text><!--MD5=[2755c6d30ce8486e65ca96ad5c09f23f]
class GetShipByCodeController--><rect codeLine="18" fill="#FEFECE" filter="url(#f1odbi08ro9ycc)" height="103.3438" id="GetShipByCodeController" style="stroke:#A80036;stroke-width:1.5;" width="248" x="352" y="202"/><ellipse cx="401.25" cy="218" fill="#ADD1B2" rx="11" ry="11" style="stroke:#A80036;stroke-width:1.0;"/><path d="M403.25,214.5 Q403.4531,214 403.6875,213.75 Q403.9219,213.5 404.1875,213.5 Q404.6563,213.5 404.9531,213.7813 Q405.25,214.0625 405.25,214.7188 L405.25,216.2813 Q405.25,216.9375 404.9688,217.2188 Q404.6875,217.5 404.25,217.5 Q403.8594,217.5 403.6094,217.3281 Q403.3594,217.1563 403.25,216.7031 Q403.2031,216.3906 403.0313,216.2188 Q402.7188,215.8906 402.1563,215.7031 Q401.5938,215.5 401.0313,215.5 Q400.3281,215.5 399.7344,215.7813 Q399.1563,216.0625 398.7031,216.6875 Q398.25,217.3125 398.25,218.1719 L398.25,219.0938 Q398.25,220.125 399.0938,220.8125 Q399.9375,221.5 401.4375,221.5 Q402.3281,221.5 402.9531,221.2969 Q403.3125,221.1875 403.7188,220.8281 Q403.9844,220.625 404.125,220.5625 Q404.2656,220.5 404.4375,220.5 Q404.7656,220.5 405,220.7656 Q405.25,221.0156 405.25,221.375 Q405.25,221.7188 404.9063,222.125 Q404.4063,222.7188 403.6094,223.0469 Q402.5625,223.5 401.2813,223.5 Q399.7813,223.5 398.5781,222.9063 Q397.6094,222.4375 396.9219,221.4219 Q396.25,220.4063 396.25,219.2031 L396.25,218.1094 Q396.25,216.8594 396.8438,215.7656 Q397.4531,214.6719 398.5,214.0938 Q399.5625,213.5 400.75,213.5 Q401.4688,213.5 402.0938,213.75 Q402.7188,214 403.25,214.5 Z " fill="#000000"/><text fill="#000000" font-family="sans-serif" font-size="12" lengthAdjust="spacing" textLength="141" x="421.75" y="222.9102">GetShipByCodeController</text><line style="stroke:#A80036;stroke-width:1.5;" x1="353" x2="599" y1="234" y2="234"/><rect fill="none" height="6" style="stroke:#C82930;stroke-width:1.0;" width="6" x="360" y="242"/><text fill="#000000" font-family="sans-serif" font-size="11" lengthAdjust="spacing" textLength="92" x="372" y="249.4189">Company company</text><line style="stroke:#A80036;stroke-width:1.5;" x1="353" x2="599" y1="255.8359" y2="255.8359"/><ellipse cx="363" cy="266.8359" fill="#84BE84" rx="3" ry="3" style="stroke:#038048;stroke-width:1.0;"/><text fill="#000000" font-family="sans-serif" font-size="11" lengthAdjust="spacing" textLength="130" x="372" y="271.2549">GetShipByCodeController()</text><ellipse cx="363" cy="280.6719" fill="#84BE84" rx="3" ry="3" style="stroke:#038048;stroke-width:1.0;"/><text fill="#000000" font-family="sans-serif" font-size="11" lengthAdjust="spacing" textLength="222" x="372" y="285.0908">GetShipByCodeController(Company company)</text><ellipse cx="363" cy="294.5078" fill="#84BE84" rx="3" ry="3" style="stroke:#038048;stroke-width:1.0;"/><text fill="#000000" font-family="sans-serif" font-size="11" lengthAdjust="spacing" textLength="137" x="372" y="298.9268">getShipByCode(String code)</text><!--MD5=[0dc7f2ddb409b58bcf52b12238c25399]
class Ship--><rect codeLine="25" fill="#FEFECE" filter="url(#f1odbi08ro9ycc)" height="186.3594" id="Ship" style="stroke:#A80036;stroke-width:1.5;" width="212" x="295" y="537"/><ellipse cx="384.25" cy="553" fill="#ADD1B2" rx="11" ry="11" style="stroke:#A80036;stroke-width:1.0;"/><path d="M386.25,549.5 Q386.4531,549 386.6875,548.75 Q386.9219,548.5 387.1875,548.5 Q387.6563,548.5 387.9531,548.7813 Q388.25,549.0625 388.25,549.7188 L388.25,551.2813 Q388.25,551.9375 387.9688,552.2188 Q387.6875,552.5 387.25,552.5 Q386.8594,552.5 386.6094,552.3281 Q386.3594,552.1563 386.25,551.7031 Q386.2031,551.3906 386.0313,551.2188 Q385.7188,550.8906 385.1563,550.7031 Q384.5938,550.5 384.0313,550.5 Q383.3281,550.5 382.7344,550.7813 Q382.1563,551.0625 381.7031,551.6875 Q381.25,552.3125 381.25,553.1719 L381.25,554.0938 Q381.25,555.125 382.0938,555.8125 Q382.9375,556.5 384.4375,556.5 Q385.3281,556.5 385.9531,556.2969 Q386.3125,556.1875 386.7188,555.8281 Q386.9844,555.625 387.125,555.5625 Q387.2656,555.5 387.4375,555.5 Q387.7656,555.5 388,555.7656 Q388.25,556.0156 388.25,556.375 Q388.25,556.7188 387.9063,557.125 Q387.4063,557.7188 386.6094,558.0469 Q385.5625,558.5 384.2813,558.5 Q382.7813,558.5 381.5781,557.9063 Q380.6094,557.4375 379.9219,556.4219 Q379.25,555.4063 379.25,554.2031 L379.25,553.1094 Q379.25,551.8594 379.8438,550.7656 Q380.4531,549.6719 381.5,549.0938 Q382.5625,548.5 383.75,548.5 Q384.4688,548.5 385.0938,548.75 Q385.7188,549 386.25,549.5 Z " fill="#000000"/><text fill="#000000" font-family="sans-serif" font-size="12" lengthAdjust="spacing" textLength="25" x="404.75" y="557.9102">Ship</text><line style="stroke:#A80036;stroke-width:1.5;" x1="296" x2="506" y1="569" y2="569"/><rect fill="none" height="6" style="stroke:#C82930;stroke-width:1.0;" width="6" x="303" y="577"/><text fill="#000000" font-family="sans-serif" font-size="11" lengthAdjust="spacing" textLength="48" x="315" y="584.4189">int MMSI &lt;</text><text fill="#000000" font-family="sans-serif" font-size="11" font-weight="bold" lengthAdjust="spacing" textLength="20" x="363" y="584.4189">PK&gt;</text><rect fill="none" height="6" style="stroke:#C82930;stroke-width:1.0;" width="6" x="303" y="590.8359"/><text fill="#000000" font-family="sans-serif" font-size="11" lengthAdjust="spacing" textLength="66" x="315" y="598.2549">String name &lt;</text><text fill="#000000" font-family="sans-serif" font-size="11" font-weight="bold" lengthAdjust="spacing" textLength="20" x="381" y="598.2549">PK&gt;</text><rect fill="none" height="6" style="stroke:#C82930;stroke-width:1.0;" width="6" x="303" y="604.6719"/><text fill="#000000" font-family="sans-serif" font-size="11" lengthAdjust="spacing" textLength="58" x="315" y="612.0908">String IMO &lt;</text><text fill="#000000" font-family="sans-serif" font-size="11" font-weight="bold" lengthAdjust="spacing" textLength="20" x="373" y="612.0908">PK&gt;</text><rect fill="none" height="6" style="stroke:#C82930;stroke-width:1.0;" width="6" x="303" y="618.5078"/><text fill="#000000" font-family="sans-serif" font-size="11" lengthAdjust="spacing" textLength="68" x="315" y="625.9268">String callSign</text><rect fill="none" height="6" style="stroke:#C82930;stroke-width:1.0;" width="6" x="303" y="632.3438"/><text fill="#000000" font-family="sans-serif" font-size="11" lengthAdjust="spacing" textLength="70" x="315" y="639.7627">int vesselType</text><rect fill="none" height="6" style="stroke:#C82930;stroke-width:1.0;" width="6" x="303" y="646.1797"/><text fill="#000000" font-family="sans-serif" font-size="11" lengthAdjust="spacing" textLength="64" x="315" y="653.5986">double length</text><rect fill="none" height="6" style="stroke:#C82930;stroke-width:1.0;" width="6" x="303" y="660.0156"/><text fill="#000000" font-family="sans-serif" font-size="11" lengthAdjust="spacing" textLength="62" x="315" y="667.4346">double width</text><rect fill="none" height="6" style="stroke:#C82930;stroke-width:1.0;" width="6" x="303" y="673.8516"/><text fill="#000000" font-family="sans-serif" font-size="11" lengthAdjust="spacing" textLength="58" x="315" y="681.2705">double draft</text><rect fill="none" height="6" style="stroke:#C82930;stroke-width:1.0;" width="6" x="303" y="687.6875"/><text fill="#000000" font-family="sans-serif" font-size="11" lengthAdjust="spacing" textLength="186" x="315" y="695.1064">TreeOfPositionData treeOfPositionData</text><line style="stroke:#A80036;stroke-width:1.5;" x1="296" x2="506" y1="701.5234" y2="701.5234"/><ellipse cx="306" cy="712.5234" fill="#84BE84" rx="3" ry="3" style="stroke:#038048;stroke-width:1.0;"/><text fill="#000000" font-family="sans-serif" font-size="11" lengthAdjust="spacing" textLength="44" x="315" y="716.9424">tostring()</text><!--MD5=[42db3a3160cd97c2324f9fd4a6b0182a]
class PositionData--><rect codeLine="39" fill="#FEFECE" filter="url(#f1odbi08ro9ycc)" height="186.3594" id="PositionData" style="stroke:#A80036;stroke-width:1.5;" width="170" x="82" y="801"/><ellipse cx="127.25" cy="817" fill="#ADD1B2" rx="11" ry="11" style="stroke:#A80036;stroke-width:1.0;"/><path d="M129.25,813.5 Q129.4531,813 129.6875,812.75 Q129.9219,812.5 130.1875,812.5 Q130.6563,812.5 130.9531,812.7813 Q131.25,813.0625 131.25,813.7188 L131.25,815.2813 Q131.25,815.9375 130.9688,816.2188 Q130.6875,816.5 130.25,816.5 Q129.8594,816.5 129.6094,816.3281 Q129.3594,816.1563 129.25,815.7031 Q129.2031,815.3906 129.0313,815.2188 Q128.7188,814.8906 128.1563,814.7031 Q127.5938,814.5 127.0313,814.5 Q126.3281,814.5 125.7344,814.7813 Q125.1563,815.0625 124.7031,815.6875 Q124.25,816.3125 124.25,817.1719 L124.25,818.0938 Q124.25,819.125 125.0938,819.8125 Q125.9375,820.5 127.4375,820.5 Q128.3281,820.5 128.9531,820.2969 Q129.3125,820.1875 129.7188,819.8281 Q129.9844,819.625 130.125,819.5625 Q130.2656,819.5 130.4375,819.5 Q130.7656,819.5 131,819.7656 Q131.25,820.0156 131.25,820.375 Q131.25,820.7188 130.9063,821.125 Q130.4063,821.7188 129.6094,822.0469 Q128.5625,822.5 127.2813,822.5 Q125.7813,822.5 124.5781,821.9063 Q123.6094,821.4375 122.9219,820.4219 Q122.25,819.4063 122.25,818.2031 L122.25,817.1094 Q122.25,815.8594 122.8438,814.7656 Q123.4531,813.6719 124.5,813.0938 Q125.5625,812.5 126.75,812.5 Q127.4688,812.5 128.0938,812.75 Q128.7188,813 129.25,813.5 Z " fill="#000000"/><text fill="#000000" font-family="sans-serif" font-size="12" lengthAdjust="spacing" textLength="71" x="147.75" y="821.9102">PositionData</text><line style="stroke:#A80036;stroke-width:1.5;" x1="83" x2="251" y1="833" y2="833"/><rect fill="none" height="6" style="stroke:#C82930;stroke-width:1.0;" width="6" x="90" y="841"/><text fill="#000000" font-family="sans-serif" font-size="11" lengthAdjust="spacing" textLength="144" x="102" y="848.4189">LocalDateTime baseDateTime;</text><rect fill="none" height="6" style="stroke:#C82930;stroke-width:1.0;" width="6" x="90" y="854.8359"/><text fill="#000000" font-family="sans-serif" font-size="11" lengthAdjust="spacing" textLength="72" x="102" y="862.2549">double latitude;</text><rect fill="none" height="6" style="stroke:#C82930;stroke-width:1.0;" width="6" x="90" y="868.6719"/><text fill="#000000" font-family="sans-serif" font-size="11" lengthAdjust="spacing" textLength="81" x="102" y="876.0908">double longitude;</text><rect fill="none" height="6" style="stroke:#C82930;stroke-width:1.0;" width="6" x="90" y="882.5078"/><text fill="#000000" font-family="sans-serif" font-size="11" lengthAdjust="spacing" textLength="56" x="102" y="889.9268">double sog;</text><rect fill="none" height="6" style="stroke:#C82930;stroke-width:1.0;" width="6" x="90" y="896.3438"/><text fill="#000000" font-family="sans-serif" font-size="11" lengthAdjust="spacing" textLength="56" x="102" y="903.7627">double cog;</text><rect fill="none" height="6" style="stroke:#C82930;stroke-width:1.0;" width="6" x="90" y="910.1797"/><text fill="#000000" font-family="sans-serif" font-size="11" lengthAdjust="spacing" textLength="76" x="102" y="917.5986">double heading;</text><rect fill="none" height="6" style="stroke:#C82930;stroke-width:1.0;" width="6" x="90" y="924.0156"/><text fill="#000000" font-family="sans-serif" font-size="11" lengthAdjust="spacing" textLength="71" x="102" y="931.4346">String position;</text><rect fill="none" height="6" style="stroke:#C82930;stroke-width:1.0;" width="6" x="90" y="937.8516"/><text fill="#000000" font-family="sans-serif" font-size="11" lengthAdjust="spacing" textLength="89" x="102" y="945.2705">String transceiver;</text><line style="stroke:#A80036;stroke-width:1.5;" x1="83" x2="251" y1="951.6875" y2="951.6875"/><ellipse cx="93" cy="962.6875" fill="#84BE84" rx="3" ry="3" style="stroke:#038048;stroke-width:1.0;"/><text fill="#000000" font-family="sans-serif" font-size="11" lengthAdjust="spacing" textLength="44" x="102" y="967.1064">tostring()</text><ellipse cx="93" cy="976.5234" fill="#84BE84" rx="3" ry="3" style="stroke:#038048;stroke-width:1.0;"/><text fill="#000000" font-family="sans-serif" font-size="11" lengthAdjust="spacing" textLength="62" x="102" y="980.9424">compareTo()</text><!--MD5=[02e4b9b7573f1156f41e60aa5b4e25a4]
class Company--><rect codeLine="53" fill="#FEFECE" filter="url(#f1odbi08ro9ycc)" height="75.6719" id="Company" style="stroke:#A80036;stroke-width:1.5;" width="264" x="30" y="383"/><ellipse cx="131.25" cy="399" fill="#ADD1B2" rx="11" ry="11" style="stroke:#A80036;stroke-width:1.0;"/><path d="M133.25,395.5 Q133.4531,395 133.6875,394.75 Q133.9219,394.5 134.1875,394.5 Q134.6563,394.5 134.9531,394.7813 Q135.25,395.0625 135.25,395.7188 L135.25,397.2813 Q135.25,397.9375 134.9688,398.2188 Q134.6875,398.5 134.25,398.5 Q133.8594,398.5 133.6094,398.3281 Q133.3594,398.1563 133.25,397.7031 Q133.2031,397.3906 133.0313,397.2188 Q132.7188,396.8906 132.1563,396.7031 Q131.5938,396.5 131.0313,396.5 Q130.3281,396.5 129.7344,396.7813 Q129.1563,397.0625 128.7031,397.6875 Q128.25,398.3125 128.25,399.1719 L128.25,400.0938 Q128.25,401.125 129.0938,401.8125 Q129.9375,402.5 131.4375,402.5 Q132.3281,402.5 132.9531,402.2969 Q133.3125,402.1875 133.7188,401.8281 Q133.9844,401.625 134.125,401.5625 Q134.2656,401.5 134.4375,401.5 Q134.7656,401.5 135,401.7656 Q135.25,402.0156 135.25,402.375 Q135.25,402.7188 134.9063,403.125 Q134.4063,403.7188 133.6094,404.0469 Q132.5625,404.5 131.2813,404.5 Q129.7813,404.5 128.5781,403.9063 Q127.6094,403.4375 126.9219,402.4219 Q126.25,401.4063 126.25,400.2031 L126.25,399.1094 Q126.25,397.8594 126.8438,396.7656 Q127.4531,395.6719 128.5,395.0938 Q129.5625,394.5 130.75,394.5 Q131.4688,394.5 132.0938,394.75 Q132.7188,395 133.25,395.5 Z " fill="#000000"/><text fill="#000000" font-family="sans-serif" font-size="12" lengthAdjust="spacing" textLength="53" x="151.75" y="403.9102">Company</text><line style="stroke:#A80036;stroke-width:1.5;" x1="31" x2="293" y1="415" y2="415"/><rect fill="none" height="6" style="stroke:#C82930;stroke-width:1.0;" width="6" x="38" y="423"/><text fill="#000000" font-family="sans-serif" font-size="11" lengthAdjust="spacing" textLength="120" x="50" y="430.4189">TreeofShips treeOfShips</text><line style="stroke:#A80036;stroke-width:1.5;" x1="31" x2="293" y1="436.8359" y2="436.8359"/><ellipse cx="41" cy="447.8359" fill="#84BE84" rx="3" ry="3" style="stroke:#038048;stroke-width:1.0;"/><text fill="#000000" font-family="sans-serif" font-size="11" lengthAdjust="spacing" textLength="238" x="50" y="452.2549">getShipPositionMessagesOrderByDate(Ship ship)</text><!--MD5=[0003d580da2a3d2e6b7d7be223cc3085]
class TreeofShips--><rect codeLine="58" fill="#FEFECE" filter="url(#f1odbi08ro9ycc)" height="48" id="TreeofShips" style="stroke:#A80036;stroke-width:1.5;" width="99" x="351.5" y="397"/><ellipse cx="366.5" cy="413" fill="#ADD1B2" rx="11" ry="11" style="stroke:#A80036;stroke-width:1.0;"/><path d="M368.5,409.5 Q368.7031,409 368.9375,408.75 Q369.1719,408.5 369.4375,408.5 Q369.9063,408.5 370.2031,408.7813 Q370.5,409.0625 370.5,409.7188 L370.5,411.2813 Q370.5,411.9375 370.2188,412.2188 Q369.9375,412.5 369.5,412.5 Q369.1094,412.5 368.8594,412.3281 Q368.6094,412.1563 368.5,411.7031 Q368.4531,411.3906 368.2813,411.2188 Q367.9688,410.8906 367.4063,410.7031 Q366.8438,410.5 366.2813,410.5 Q365.5781,410.5 364.9844,410.7813 Q364.4063,411.0625 363.9531,411.6875 Q363.5,412.3125 363.5,413.1719 L363.5,414.0938 Q363.5,415.125 364.3438,415.8125 Q365.1875,416.5 366.6875,416.5 Q367.5781,416.5 368.2031,416.2969 Q368.5625,416.1875 368.9688,415.8281 Q369.2344,415.625 369.375,415.5625 Q369.5156,415.5 369.6875,415.5 Q370.0156,415.5 370.25,415.7656 Q370.5,416.0156 370.5,416.375 Q370.5,416.7188 370.1563,417.125 Q369.6563,417.7188 368.8594,418.0469 Q367.8125,418.5 366.5313,418.5 Q365.0313,418.5 363.8281,417.9063 Q362.8594,417.4375 362.1719,416.4219 Q361.5,415.4063 361.5,414.2031 L361.5,413.1094 Q361.5,411.8594 362.0938,410.7656 Q362.7031,409.6719 363.75,409.0938 Q364.8125,408.5 366,408.5 Q366.7188,408.5 367.3438,408.75 Q367.9688,409 368.5,409.5 Z " fill="#000000"/><text fill="#000000" font-family="sans-serif" font-size="12" lengthAdjust="spacing" textLength="67" x="380.5" y="417.9102">TreeofShips</text><line style="stroke:#A80036;stroke-width:1.5;" x1="352.5" x2="449.5" y1="429" y2="429"/><line style="stroke:#A80036;stroke-width:1.5;" x1="352.5" x2="449.5" y1="437" y2="437"/><!--MD5=[1c12ee3ff2c78ada21afb4c7c72952f3]
class TreeOfPositionData--><rect codeLine="62" fill="#FEFECE" filter="url(#f1odbi08ro9ycc)" height="48" id="TreeOfPositionData" style="stroke:#A80036;stroke-width:1.5;" width="140" x="97" y="606"/><ellipse cx="112" cy="622" fill="#ADD1B2" rx="11" ry="11" style="stroke:#A80036;stroke-width:1.0;"/><path d="M114,618.5 Q114.2031,618 114.4375,617.75 Q114.6719,617.5 114.9375,617.5 Q115.4063,617.5 115.7031,617.7813 Q116,618.0625 116,618.7188 L116,620.2813 Q116,620.9375 115.7188,621.2188 Q115.4375,621.5 115,621.5 Q114.6094,621.5 114.3594,621.3281 Q114.1094,621.1563 114,620.7031 Q113.9531,620.3906 113.7813,620.2188 Q113.4688,619.8906 112.9063,619.7031 Q112.3438,619.5 111.7813,619.5 Q111.0781,619.5 110.4844,619.7813 Q109.9063,620.0625 109.4531,620.6875 Q109,621.3125 109,622.1719 L109,623.0938 Q109,624.125 109.8438,624.8125 Q110.6875,625.5 112.1875,625.5 Q113.0781,625.5 113.7031,625.2969 Q114.0625,625.1875 114.4688,624.8281 Q114.7344,624.625 114.875,624.5625 Q115.0156,624.5 115.1875,624.5 Q115.5156,624.5 115.75,624.7656 Q116,625.0156 116,625.375 Q116,625.7188 115.6563,626.125 Q115.1563,626.7188 114.3594,627.0469 Q113.3125,627.5 112.0313,627.5 Q110.5313,627.5 109.3281,626.9063 Q108.3594,626.4375 107.6719,625.4219 Q107,624.4063 107,623.2031 L107,622.1094 Q107,620.8594 107.5938,619.7656 Q108.2031,618.6719 109.25,618.0938 Q110.3125,617.5 111.5,617.5 Q112.2188,617.5 112.8438,617.75 Q113.4688,618 114,618.5 Z " fill="#000000"/><text fill="#000000" font-family="sans-serif" font-size="12" lengthAdjust="spacing" textLength="108" x="126" y="626.9102">TreeOfPositionData</text><line style="stroke:#A80036;stroke-width:1.5;" x1="98" x2="236" y1="638" y2="638"/><line style="stroke:#A80036;stroke-width:1.5;" x1="98" x2="236" y1="646" y2="646"/><!--MD5=[4e0ec81eba162fe3050f48f97e6495eb]
link Company to TreeofShips--><path codeLine="66" d="M294.08,421 C312.41,421 330.35,421 346.13,421 " fill="none" id="Company-to-TreeofShips" style="stroke:#A80036;stroke-width:1.0;"/><polygon fill="#A80036" points="351.4,421,342.4,417,346.4,421,342.4,425,351.4,421" style="stroke:#A80036;stroke-width:1.0;"/><text fill="#000000" font-family="sans-serif" font-size="13" lengthAdjust="spacing" textLength="21" x="312.25" y="414.4951">has</text><!--MD5=[39ef296938e48b288ce6816c57f91dfc]
link TreeofShips to Ship--><path codeLine="67" d="M401,445.34 C401,467.76 401,503.1 401,536.82 " fill="none" id="TreeofShips-Ship" style="stroke:#A80036;stroke-width:1.0;"/><text fill="#000000" font-family="sans-serif" font-size="13" lengthAdjust="spacing" textLength="21" x="402" y="503.4951">has</text><!--MD5=[d052d51e7238f81c8558c2e463dca0ac]
reverse link TreeOfPositionData to Ship--><path codeLine="68" d="M242.36,630 C259.12,630 277.19,630 294.93,630 " fill="none" id="TreeOfPositionData-backto-Ship" style="stroke:#A80036;stroke-width:1.0;"/><polygon fill="#A80036" points="237.21,630,246.21,634,242.21,630,246.21,626,237.21,630" style="stroke:#A80036;stroke-width:1.0;"/><text fill="#000000" font-family="sans-serif" font-size="13" lengthAdjust="spacing" textLength="21" x="255.5" y="623.4951">has</text><!--MD5=[c9d6f7102c43322a35381b67a07973cc]
link TreeOfPositionData to PositionData--><path codeLine="69" d="M167,654.25 C167,687 167,748.58 167,800.99 " fill="none" id="TreeOfPositionData-PositionData" style="stroke:#A80036;stroke-width:1.0;"/><text fill="#000000" font-family="sans-serif" font-size="13" lengthAdjust="spacing" textLength="21" x="168" y="767.4951">has</text><!--MD5=[0fd59b53e7fc82016ef8de18229cd087]
link GetShipPositionByDateUI to GetShipPositionByDateController--><path codeLine="70" d="M270.4,124.08 C249.42,148.94 225.08,177.77 204.79,201.8 " fill="none" id="GetShipPositionByDateUI-GetShipPositionByDateController" style="stroke:#A80036;stroke-width:1.0;"/><text fill="#000000" font-family="sans-serif" font-size="13" lengthAdjust="spacing" textLength="45" x="242" y="168.4951">Creates</text><!--MD5=[3550a97924c36e234ace1416c8befc46]
link GetShipPositionByDateUI to GetShipByCodeController--><path codeLine="71" d="M367.6,124.08 C388.58,148.94 412.92,177.77 433.21,201.8 " fill="none" id="GetShipPositionByDateUI-GetShipByCodeController" style="stroke:#A80036;stroke-width:1.0;"/><text fill="#000000" font-family="sans-serif" font-size="13" lengthAdjust="spacing" textLength="21" x="407" y="168.4951">has</text><!--MD5=[2679d8d58dd8875467431b10e6a3828f]
link GetShipPositionByDateController to Company--><path codeLine="72" d="M162,305.05 C162,330.15 162,359.93 162,382.88 " fill="none" id="GetShipPositionByDateController-Company" style="stroke:#A80036;stroke-width:1.0;"/><text fill="#000000" font-family="sans-serif" font-size="13" lengthAdjust="spacing" textLength="53" x="163" y="349.4951">connects</text><!--MD5=[e6cf011341e42b59e2827b411e4a0c25]
@startuml

class GetShipPositionByDateController{
    -Company company
    +GetShipPositionByDateController()
    +GetShipPositionByDateController(Company company)
    +getShipPositionMessagesOrderByDateController(Ship ship)
}

class GetShipPositionByDateUI{
    -GetShipPositionByDateController getShipPositionByDateController
    -GetShipByCodeController getShipByCodeController
    +GetShipPositionByDateUI()
    +getShipPositionMessagesOrderByDate()

}

class GetShipByCodeController{
    -Company company
    +GetShipByCodeController()
    +GetShipByCodeController(Company company)
    +getShipByCode(String code)
}

class Ship {
    -int MMSI <<b>PK>
    -String name <<b>PK>
    -String IMO <<b>PK>
    -String callSign
    -int vesselType
    -double length
    -double width
    -double draft
    -TreeOfPositionData treeOfPositionData

    +tostring()
}

class PositionData{
    -LocalDateTime baseDateTime;
    -double latitude;
    -double longitude;
    -double sog;
    -double cog;
    -double heading;
    -String position;
    -String transceiver;

    +tostring()
    +compareTo()
}

class Company {
    -TreeofShips treeOfShips
    +getShipPositionMessagesOrderByDate(Ship ship)
}

class TreeofShips{

}

class TreeOfPositionData{

}

Company -right-> TreeofShips :has
TreeofShips - - Ship : has
Ship -left-> TreeOfPositionData : has
TreeOfPositionData - - PositionData :has
GetShipPositionByDateUI - - GetShipPositionByDateController : Creates
GetShipPositionByDateUI - -GetShipByCodeController : has
GetShipPositionByDateController - - Company : connects

@enduml

PlantUML version 1.2021.11(Sat Oct 02 14:26:11 BST 2021)
(GPL source distribution)
Java Runtime: OpenJDK Runtime Environment
JVM: OpenJDK 64-Bit Server VM
Default Encoding: Cp1252
Language: pt
Country: PT
--></g></svg>