<?xml version="1.0" encoding="UTF-8" standalone="no"?><svg xmlns="http://www.w3.org/2000/svg" xmlns:xlink="http://www.w3.org/1999/xlink" contentScriptType="application/ecmascript" contentStyleType="text/css" height="396px" preserveAspectRatio="none" style="width:662px;height:396px;background:#FFFFFF;" version="1.1" viewBox="0 0 662 396" width="662px" zoomAndPan="magnify"><defs><filter height="300%" id="f13pdpp1zn0e0c" width="300%" x="-1" y="-1"><feGaussianBlur result="blurOut" stdDeviation="2.0"/><feColorMatrix in="blurOut" result="blurOut2" type="matrix" values="0 0 0 0 0 0 0 0 0 0 0 0 0 0 0 0 0 0 .4 0"/><feOffset dx="4.0" dy="4.0" in="blurOut2" result="blurOut3"/><feBlend in="SourceGraphic" in2="blurOut3" mode="normal"/></filter></defs><g><!--MD5=[8b944653c655024075d894af29a33c78]
entity SC--><ellipse cx="331.5" cy="157" fill="#FEFECE" filter="url(#f13pdpp1zn0e0c)" rx="8" ry="8" style="stroke:#A80036;stroke-width:1.5;"/><path d="M331.5,165 L331.5,192 M318.5,173 L344.5,173 M331.5,192 L318.5,207 M331.5,192 L344.5,207 " fill="none" filter="url(#f13pdpp1zn0e0c)" style="stroke:#A80036;stroke-width:1.5;"/><text fill="#000000" font-family="sans-serif" font-size="14" lengthAdjust="spacing" textLength="187" x="238" y="227.0332">Ship Chief Electrical Engineer</text><ellipse cx="88.3351" cy="337.367" fill="#FEFECE" filter="url(#f13pdpp1zn0e0c)" rx="82.3351" ry="18.867" style="stroke:#A80036;stroke-width:1.5;"/><text fill="#000000" font-family="sans-serif" font-size="14" lengthAdjust="spacing" textLength="120" x="28.3351" y="341.0955">Use the application</text><ellipse cx="492.6985" cy="188.9517" fill="#FEFECE" filter="url(#f13pdpp1zn0e0c)" rx="32.6985" ry="15.4517" style="stroke:#A80036;stroke-width:1.5;"/><text fill="#000000" font-family="sans-serif" font-size="14" lengthAdjust="spacing" textLength="30" x="477.6985" y="192.6802">Start</text><ellipse cx="428.4608" cy="337.3922" fill="#FEFECE" filter="url(#f13pdpp1zn0e0c)" rx="222.4608" ry="46.8922" style="stroke:#A80036;stroke-width:1.5;"/><text fill="#000000" font-family="sans-serif" font-size="14" lengthAdjust="spacing" textLength="418" x="219.4608" y="341.1207">See the amount of energy needed per set of containers from a trip</text><!--MD5=[97ab183161fd5d1db7fba7485cf76add]
entity Admin--><ellipse cx="88.5" cy="14" fill="#FEFECE" filter="url(#f13pdpp1zn0e0c)" rx="8" ry="8" style="stroke:#A80036;stroke-width:1.5;"/><path d="M88.5,22 L88.5,49 M75.5,30 L101.5,30 M88.5,49 L75.5,64 M88.5,49 L101.5,64 " fill="none" filter="url(#f13pdpp1zn0e0c)" style="stroke:#A80036;stroke-width:1.5;"/><text fill="#000000" font-family="sans-serif" font-size="14" lengthAdjust="spacing" textLength="39" x="69" y="84.0332">Admin</text><ellipse cx="218.7256" cy="45.9451" fill="#FEFECE" filter="url(#f13pdpp1zn0e0c)" rx="75.2256" ry="17.4451" style="stroke:#A80036;stroke-width:1.5;"/><text fill="#000000" font-family="sans-serif" font-size="14" lengthAdjust="spacing" textLength="102" x="164.7256" y="50.4617">Regist new Staff</text><!--MD5=[7399037b63b331d944ce8bff64f92e6f]
link SC to Start--><path d="M425.21,189 C435.06,189 444.91,189 454.75,189 " fill="none" id="SC-to-Start" style="stroke:#A80036;stroke-width:1.0;"/><polygon fill="#A80036" points="459.9,189,450.9115,184.9743,454.9,188.9857,450.8886,192.9743,459.9,189" style="stroke:#A80036;stroke-width:1.0;"/><!--MD5=[1f58a08cc5dd49b85ffaa7505db96a07]
link SC to Use--><path d="M264.13,230.61 C217.43,258.77 157.32,295.01 120.91,316.96 " fill="none" id="SC-to-Use" style="stroke:#A80036;stroke-width:1.0;"/><polygon fill="#A80036" points="116.59,319.57,126.3636,318.3551,120.8737,316.9912,122.2376,311.5012,116.59,319.57" style="stroke:#A80036;stroke-width:1.0;"/><!--MD5=[e5613b6e8ce91425041a9e0c366a81ad]
link SC to See the amount of energy needed per set of containers from a trip--><path d="M358.52,230.81 C369.89,247.98 383.23,268.13 395.2,286.21 " fill="none" id="SC-to-See the amount of energy needed per set of containers from a trip" style="stroke:#A80036;stroke-width:1.0;"/><polygon fill="#A80036" points="398.21,290.76,396.5844,281.0462,395.453,286.5888,389.9104,285.4574,398.21,290.76" style="stroke:#A80036;stroke-width:1.0;"/><!--MD5=[eedd4bf29063d6184eb2b121c1f53f26]
link Admin to Use--><path d="M88.5,87.56 C88.5,149.12 88.5,264.16 88.5,313.29 " fill="none" id="Admin-to-Use" style="stroke:#A80036;stroke-width:1.0;"/><polygon fill="#A80036" points="88.5,318.39,92.5,309.39,88.5,313.39,84.5,309.39,88.5,318.39" style="stroke:#A80036;stroke-width:1.0;"/><!--MD5=[e7a0d0f4fa0cf58bcb7420c86b20f03c]
link Admin to Regist new Staff--><path d="M108.05,46 C118.09,46 128.14,46 138.18,46 " fill="none" id="Admin-to-Regist new Staff" style="stroke:#A80036;stroke-width:1.0;"/><polygon fill="#A80036" points="143.43,46,134.43,42,138.43,46,134.43,50,143.43,46" style="stroke:#A80036;stroke-width:1.0;"/><!--MD5=[cc26ce01dbeaae6fb52062f16b666619]
@startuml
'https://plantuml.com/use-case-diagram

:Ship Chief Electrical Engineer: as SC
(Use the application) as (Use)

SC -> (Start)
SC - -> (Use)
SC - -> (See the amount of energy needed per set of containers from a trip)

Admin - - -> (Use)
Admin -> (Regist new Staff)

@enduml

@startuml

:Ship Chief Electrical Engineer: as SC
(Use the application) as (Use)

SC -> (Start)
SC - -> (Use)
SC - -> (See the amount of energy needed per set of containers from a trip)

Admin - - -> (Use)
Admin -> (Regist new Staff)

@enduml

PlantUML version 1.2021.16(Wed Dec 08 17:25:22 GMT 2021)
(GPL source distribution)
Java Runtime: OpenJDK Runtime Environment
JVM: OpenJDK 64-Bit Server VM
Default Encoding: Cp1252
Language: pt
Country: PT
--></g></svg>