<?xml version="1.0" encoding="UTF-8" standalone="no"?><svg xmlns="http://www.w3.org/2000/svg" xmlns:xlink="http://www.w3.org/1999/xlink" contentScriptType="application/ecmascript" contentStyleType="text/css" height="697px" preserveAspectRatio="none" style="width:487px;height:697px;background:#FFFFFF;" version="1.1" viewBox="0 0 487 697" width="487px" zoomAndPan="magnify"><defs><filter height="300%" id="f1fsdqqafnw4iw" width="300%" x="-1" y="-1"><feGaussianBlur result="blurOut" stdDeviation="2.0"/><feColorMatrix in="blurOut" result="blurOut2" type="matrix" values="0 0 0 0 0 0 0 0 0 0 0 0 0 0 0 0 0 0 .4 0"/><feOffset dx="4.0" dy="4.0" in="blurOut2" result="blurOut3"/><feBlend in="SourceGraphic" in2="blurOut3" mode="normal"/></filter></defs><g><!--MD5=[4a4be67e9f0cb57c34989a64583ea874]
class GraphGenerator--><rect codeLine="2" fill="#FEFECE" filter="url(#f1fsdqqafnw4iw)" height="75.6719" id="GraphGenerator" style="stroke:#A80036;stroke-width:1.5;" width="360" x="113.5" y="608"/><ellipse cx="244.75" cy="624" fill="#ADD1B2" rx="11" ry="11" style="stroke:#A80036;stroke-width:1.0;"/><path d="M246.75,620.5 Q246.9531,620 247.1875,619.75 Q247.4219,619.5 247.6875,619.5 Q248.1563,619.5 248.4531,619.7813 Q248.75,620.0625 248.75,620.7188 L248.75,622.2813 Q248.75,622.9375 248.4688,623.2188 Q248.1875,623.5 247.75,623.5 Q247.3594,623.5 247.1094,623.3281 Q246.8594,623.1563 246.75,622.7031 Q246.7031,622.3906 246.5313,622.2188 Q246.2188,621.8906 245.6563,621.7031 Q245.0938,621.5 244.5313,621.5 Q243.8281,621.5 243.2344,621.7813 Q242.6563,622.0625 242.2031,622.6875 Q241.75,623.3125 241.75,624.1719 L241.75,625.0938 Q241.75,626.125 242.5938,626.8125 Q243.4375,627.5 244.9375,627.5 Q245.8281,627.5 246.4531,627.2969 Q246.8125,627.1875 247.2188,626.8281 Q247.4844,626.625 247.625,626.5625 Q247.7656,626.5 247.9375,626.5 Q248.2656,626.5 248.5,626.7656 Q248.75,627.0156 248.75,627.375 Q248.75,627.7188 248.4063,628.125 Q247.9063,628.7188 247.1094,629.0469 Q246.0625,629.5 244.7813,629.5 Q243.2813,629.5 242.0781,628.9063 Q241.1094,628.4375 240.4219,627.4219 Q239.75,626.4063 239.75,625.2031 L239.75,624.1094 Q239.75,622.8594 240.3438,621.7656 Q240.9531,620.6719 242,620.0938 Q243.0625,619.5 244.25,619.5 Q244.9688,619.5 245.5938,619.75 Q246.2188,620 246.75,620.5 Z " fill="#000000"/><text fill="#000000" font-family="sans-serif" font-size="12" lengthAdjust="spacing" textLength="89" x="265.25" y="628.9102">GraphGenerator</text><line style="stroke:#A80036;stroke-width:1.5;" x1="114.5" x2="472.5" y1="640" y2="640"/><rect fill="none" height="6" style="stroke:#C82930;stroke-width:1.0;" width="6" x="121.5" y="648"/><text fill="#000000" font-family="sans-serif" font-size="11" lengthAdjust="spacing" textLength="186" x="133.5" y="655.4189">Graph&lt;PortAndCapital, Double&gt; graph;</text><line style="stroke:#A80036;stroke-width:1.5;" x1="114.5" x2="472.5" y1="661.8359" y2="661.8359"/><ellipse cx="124.5" cy="672.8359" fill="#84BE84" rx="3" ry="3" style="stroke:#038048;stroke-width:1.0;"/><text fill="#000000" font-family="sans-serif" font-size="11" lengthAdjust="spacing" textLength="334" x="133.5" y="677.2549">calculateTotalEnergyForSetOfContainers(trip,operating_temperature);</text><!--MD5=[02e4b9b7573f1156f41e60aa5b4e25a4]
class Company--><rect codeLine="7" fill="#FEFECE" filter="url(#f1fsdqqafnw4iw)" height="117.1797" id="Company" style="stroke:#A80036;stroke-width:1.5;" width="330" x="128.5" y="413"/><ellipse cx="262.75" cy="429" fill="#ADD1B2" rx="11" ry="11" style="stroke:#A80036;stroke-width:1.0;"/><path d="M264.75,425.5 Q264.9531,425 265.1875,424.75 Q265.4219,424.5 265.6875,424.5 Q266.1563,424.5 266.4531,424.7813 Q266.75,425.0625 266.75,425.7188 L266.75,427.2813 Q266.75,427.9375 266.4688,428.2188 Q266.1875,428.5 265.75,428.5 Q265.3594,428.5 265.1094,428.3281 Q264.8594,428.1563 264.75,427.7031 Q264.7031,427.3906 264.5313,427.2188 Q264.2188,426.8906 263.6563,426.7031 Q263.0938,426.5 262.5313,426.5 Q261.8281,426.5 261.2344,426.7813 Q260.6563,427.0625 260.2031,427.6875 Q259.75,428.3125 259.75,429.1719 L259.75,430.0938 Q259.75,431.125 260.5938,431.8125 Q261.4375,432.5 262.9375,432.5 Q263.8281,432.5 264.4531,432.2969 Q264.8125,432.1875 265.2188,431.8281 Q265.4844,431.625 265.625,431.5625 Q265.7656,431.5 265.9375,431.5 Q266.2656,431.5 266.5,431.7656 Q266.75,432.0156 266.75,432.375 Q266.75,432.7188 266.4063,433.125 Q265.9063,433.7188 265.1094,434.0469 Q264.0625,434.5 262.7813,434.5 Q261.2813,434.5 260.0781,433.9063 Q259.1094,433.4375 258.4219,432.4219 Q257.75,431.4063 257.75,430.2031 L257.75,429.1094 Q257.75,427.8594 258.3438,426.7656 Q258.9531,425.6719 260,425.0938 Q261.0625,424.5 262.25,424.5 Q262.9688,424.5 263.5938,424.75 Q264.2188,425 264.75,425.5 Z " fill="#000000"/><text fill="#000000" font-family="sans-serif" font-size="12" lengthAdjust="spacing" textLength="53" x="283.25" y="433.9102">Company</text><line style="stroke:#A80036;stroke-width:1.5;" x1="129.5" x2="457.5" y1="445" y2="445"/><rect fill="none" height="6" style="stroke:#C82930;stroke-width:1.0;" width="6" x="136.5" y="453"/><text fill="#000000" font-family="sans-serif" font-size="11" lengthAdjust="spacing" textLength="121" x="148.5" y="460.4189">TreeOfPorts treeOfPorts;</text><rect fill="none" height="6" style="stroke:#C82930;stroke-width:1.0;" width="6" x="136.5" y="466.8359"/><text fill="#000000" font-family="sans-serif" font-size="11" lengthAdjust="spacing" textLength="127" x="148.5" y="474.2549">List&lt;Country&gt; countryList;</text><rect fill="none" height="6" style="stroke:#C82930;stroke-width:1.0;" width="6" x="136.5" y="480.6719"/><text fill="#000000" font-family="sans-serif" font-size="11" lengthAdjust="spacing" textLength="162" x="148.5" y="488.0908">GraphGenerator graphGenerator;</text><line style="stroke:#A80036;stroke-width:1.5;" x1="129.5" x2="457.5" y1="494.5078" y2="494.5078"/><ellipse cx="139.5" cy="505.5078" fill="#84BE84" rx="3" ry="3" style="stroke:#038048;stroke-width:1.0;"/><text fill="#000000" font-family="sans-serif" font-size="11" lengthAdjust="spacing" textLength="304" x="148.5" y="509.9268">generateGraph(File countries, File borders, File seaDists, int n);</text><ellipse cx="139.5" cy="519.3438" fill="#84BE84" rx="3" ry="3" style="stroke:#038048;stroke-width:1.0;"/><text fill="#000000" font-family="sans-serif" font-size="11" lengthAdjust="spacing" textLength="105" x="148.5" y="523.7627">getGraphGenerator();</text><!--MD5=[3fd616f346a44cd59a91eb10b19e157c]
class User--><rect codeLine="15" fill="#FEFECE" filter="url(#f1fsdqqafnw4iw)" height="48" id="User" style="stroke:#A80036;stroke-width:1.5;" width="59" x="56" y="140"/><ellipse cx="71" cy="156" fill="#ADD1B2" rx="11" ry="11" style="stroke:#A80036;stroke-width:1.0;"/><path d="M73,152.5 Q73.2031,152 73.4375,151.75 Q73.6719,151.5 73.9375,151.5 Q74.4063,151.5 74.7031,151.7813 Q75,152.0625 75,152.7188 L75,154.2813 Q75,154.9375 74.7188,155.2188 Q74.4375,155.5 74,155.5 Q73.6094,155.5 73.3594,155.3281 Q73.1094,155.1563 73,154.7031 Q72.9531,154.3906 72.7813,154.2188 Q72.4688,153.8906 71.9063,153.7031 Q71.3438,153.5 70.7813,153.5 Q70.0781,153.5 69.4844,153.7813 Q68.9063,154.0625 68.4531,154.6875 Q68,155.3125 68,156.1719 L68,157.0938 Q68,158.125 68.8438,158.8125 Q69.6875,159.5 71.1875,159.5 Q72.0781,159.5 72.7031,159.2969 Q73.0625,159.1875 73.4688,158.8281 Q73.7344,158.625 73.875,158.5625 Q74.0156,158.5 74.1875,158.5 Q74.5156,158.5 74.75,158.7656 Q75,159.0156 75,159.375 Q75,159.7188 74.6563,160.125 Q74.1563,160.7188 73.3594,161.0469 Q72.3125,161.5 71.0313,161.5 Q69.5313,161.5 68.3281,160.9063 Q67.3594,160.4375 66.6719,159.4219 Q66,158.4063 66,157.2031 L66,156.1094 Q66,154.8594 66.5938,153.7656 Q67.2031,152.6719 68.25,152.0938 Q69.3125,151.5 70.5,151.5 Q71.2188,151.5 71.8438,151.75 Q72.4688,152 73,152.5 Z " fill="#000000"/><text fill="#000000" font-family="sans-serif" font-size="12" lengthAdjust="spacing" textLength="27" x="85" y="160.9102">User</text><line style="stroke:#A80036;stroke-width:1.5;" x1="57" x2="114" y1="172" y2="172"/><line style="stroke:#A80036;stroke-width:1.5;" x1="57" x2="114" y1="180" y2="180"/><!--MD5=[45d42ff7800d812d5f83c7d3273eb427]
class UserRole--><rect codeLine="17" fill="#FEFECE" filter="url(#f1fsdqqafnw4iw)" height="48" id="UserRole" style="stroke:#A80036;stroke-width:1.5;" width="85" x="7" y="280"/><ellipse cx="22" cy="296" fill="#ADD1B2" rx="11" ry="11" style="stroke:#A80036;stroke-width:1.0;"/><path d="M24,292.5 Q24.2031,292 24.4375,291.75 Q24.6719,291.5 24.9375,291.5 Q25.4063,291.5 25.7031,291.7813 Q26,292.0625 26,292.7188 L26,294.2813 Q26,294.9375 25.7188,295.2188 Q25.4375,295.5 25,295.5 Q24.6094,295.5 24.3594,295.3281 Q24.1094,295.1563 24,294.7031 Q23.9531,294.3906 23.7813,294.2188 Q23.4688,293.8906 22.9063,293.7031 Q22.3438,293.5 21.7813,293.5 Q21.0781,293.5 20.4844,293.7813 Q19.9063,294.0625 19.4531,294.6875 Q19,295.3125 19,296.1719 L19,297.0938 Q19,298.125 19.8438,298.8125 Q20.6875,299.5 22.1875,299.5 Q23.0781,299.5 23.7031,299.2969 Q24.0625,299.1875 24.4688,298.8281 Q24.7344,298.625 24.875,298.5625 Q25.0156,298.5 25.1875,298.5 Q25.5156,298.5 25.75,298.7656 Q26,299.0156 26,299.375 Q26,299.7188 25.6563,300.125 Q25.1563,300.7188 24.3594,301.0469 Q23.3125,301.5 22.0313,301.5 Q20.5313,301.5 19.3281,300.9063 Q18.3594,300.4375 17.6719,299.4219 Q17,298.4063 17,297.2031 L17,296.1094 Q17,294.8594 17.5938,293.7656 Q18.2031,292.6719 19.25,292.0938 Q20.3125,291.5 21.5,291.5 Q22.2188,291.5 22.8438,291.75 Q23.4688,292 24,292.5 Z " fill="#000000"/><text fill="#000000" font-family="sans-serif" font-size="12" lengthAdjust="spacing" textLength="53" x="36" y="300.9102">UserRole</text><line style="stroke:#A80036;stroke-width:1.5;" x1="8" x2="91" y1="312" y2="312"/><line style="stroke:#A80036;stroke-width:1.5;" x1="8" x2="91" y1="320" y2="320"/><!--MD5=[cfd87cc7c64e9b546e87e1d845c182ec]
class AmountEnergySetOfContainersUI--><rect codeLine="19" fill="#FEFECE" filter="url(#f1fsdqqafnw4iw)" height="61.8359" id="AmountEnergySetOfContainersUI" style="stroke:#A80036;stroke-width:1.5;" width="215" x="168" y="133"/><ellipse cx="183" cy="149" fill="#ADD1B2" rx="11" ry="11" style="stroke:#A80036;stroke-width:1.0;"/><path d="M185,145.5 Q185.2031,145 185.4375,144.75 Q185.6719,144.5 185.9375,144.5 Q186.4063,144.5 186.7031,144.7813 Q187,145.0625 187,145.7188 L187,147.2813 Q187,147.9375 186.7188,148.2188 Q186.4375,148.5 186,148.5 Q185.6094,148.5 185.3594,148.3281 Q185.1094,148.1563 185,147.7031 Q184.9531,147.3906 184.7813,147.2188 Q184.4688,146.8906 183.9063,146.7031 Q183.3438,146.5 182.7813,146.5 Q182.0781,146.5 181.4844,146.7813 Q180.9063,147.0625 180.4531,147.6875 Q180,148.3125 180,149.1719 L180,150.0938 Q180,151.125 180.8438,151.8125 Q181.6875,152.5 183.1875,152.5 Q184.0781,152.5 184.7031,152.2969 Q185.0625,152.1875 185.4688,151.8281 Q185.7344,151.625 185.875,151.5625 Q186.0156,151.5 186.1875,151.5 Q186.5156,151.5 186.75,151.7656 Q187,152.0156 187,152.375 Q187,152.7188 186.6563,153.125 Q186.1563,153.7188 185.3594,154.0469 Q184.3125,154.5 183.0313,154.5 Q181.5313,154.5 180.3281,153.9063 Q179.3594,153.4375 178.6719,152.4219 Q178,151.4063 178,150.2031 L178,149.1094 Q178,147.8594 178.5938,146.7656 Q179.2031,145.6719 180.25,145.0938 Q181.3125,144.5 182.5,144.5 Q183.2188,144.5 183.8438,144.75 Q184.4688,145 185,145.5 Z " fill="#000000"/><text fill="#000000" font-family="sans-serif" font-size="12" lengthAdjust="spacing" textLength="183" x="197" y="153.9102">AmountEnergySetOfContainersUI</text><line style="stroke:#A80036;stroke-width:1.5;" x1="169" x2="382" y1="165" y2="165"/><rect fill="none" height="6" style="stroke:#C82930;stroke-width:1.0;" width="6" x="176" y="173"/><text fill="#000000" font-family="sans-serif" font-size="11" lengthAdjust="spacing" textLength="182" x="188" y="180.4189">ShipChiefElectricalEngineer controller;</text><line style="stroke:#A80036;stroke-width:1.5;" x1="169" x2="382" y1="186.8359" y2="186.8359"/><!--MD5=[d14076b1fa5ff6fc34e7abc31c5e1daa]
class ShipChiefElectricalEngineer--><rect codeLine="23" fill="#FEFECE" filter="url(#f1fsdqqafnw4iw)" height="48" id="ShipChiefElectricalEngineer" style="stroke:#A80036;stroke-width:1.5;" width="186" x="77.5" y="7"/><ellipse cx="92.5" cy="23" fill="#ADD1B2" rx="11" ry="11" style="stroke:#A80036;stroke-width:1.0;"/><path d="M94.5,19.5 Q94.7031,19 94.9375,18.75 Q95.1719,18.5 95.4375,18.5 Q95.9063,18.5 96.2031,18.7813 Q96.5,19.0625 96.5,19.7188 L96.5,21.2813 Q96.5,21.9375 96.2188,22.2188 Q95.9375,22.5 95.5,22.5 Q95.1094,22.5 94.8594,22.3281 Q94.6094,22.1563 94.5,21.7031 Q94.4531,21.3906 94.2813,21.2188 Q93.9688,20.8906 93.4063,20.7031 Q92.8438,20.5 92.2813,20.5 Q91.5781,20.5 90.9844,20.7813 Q90.4063,21.0625 89.9531,21.6875 Q89.5,22.3125 89.5,23.1719 L89.5,24.0938 Q89.5,25.125 90.3438,25.8125 Q91.1875,26.5 92.6875,26.5 Q93.5781,26.5 94.2031,26.2969 Q94.5625,26.1875 94.9688,25.8281 Q95.2344,25.625 95.375,25.5625 Q95.5156,25.5 95.6875,25.5 Q96.0156,25.5 96.25,25.7656 Q96.5,26.0156 96.5,26.375 Q96.5,26.7188 96.1563,27.125 Q95.6563,27.7188 94.8594,28.0469 Q93.8125,28.5 92.5313,28.5 Q91.0313,28.5 89.8281,27.9063 Q88.8594,27.4375 88.1719,26.4219 Q87.5,25.4063 87.5,24.2031 L87.5,23.1094 Q87.5,21.8594 88.0938,20.7656 Q88.7031,19.6719 89.75,19.0938 Q90.8125,18.5 92,18.5 Q92.7188,18.5 93.3438,18.75 Q93.9688,19 94.5,19.5 Z " fill="#000000"/><text fill="#000000" font-family="sans-serif" font-size="12" lengthAdjust="spacing" textLength="154" x="106.5" y="27.9102">ShipChiefElectricalEngineer</text><line style="stroke:#A80036;stroke-width:1.5;" x1="78.5" x2="262.5" y1="39" y2="39"/><line style="stroke:#A80036;stroke-width:1.5;" x1="78.5" x2="262.5" y1="47" y2="47"/><!--MD5=[f7181644c96330fc7e35d931181b894c]
class AmountEnergySetOfContainersController--><rect codeLine="25" fill="#FEFECE" filter="url(#f1fsdqqafnw4iw)" height="61.8359" id="AmountEnergySetOfContainersController" style="stroke:#A80036;stroke-width:1.5;" width="332" x="127.5" y="273"/><ellipse cx="176.75" cy="289" fill="#ADD1B2" rx="11" ry="11" style="stroke:#A80036;stroke-width:1.0;"/><path d="M178.75,285.5 Q178.9531,285 179.1875,284.75 Q179.4219,284.5 179.6875,284.5 Q180.1563,284.5 180.4531,284.7813 Q180.75,285.0625 180.75,285.7188 L180.75,287.2813 Q180.75,287.9375 180.4688,288.2188 Q180.1875,288.5 179.75,288.5 Q179.3594,288.5 179.1094,288.3281 Q178.8594,288.1563 178.75,287.7031 Q178.7031,287.3906 178.5313,287.2188 Q178.2188,286.8906 177.6563,286.7031 Q177.0938,286.5 176.5313,286.5 Q175.8281,286.5 175.2344,286.7813 Q174.6563,287.0625 174.2031,287.6875 Q173.75,288.3125 173.75,289.1719 L173.75,290.0938 Q173.75,291.125 174.5938,291.8125 Q175.4375,292.5 176.9375,292.5 Q177.8281,292.5 178.4531,292.2969 Q178.8125,292.1875 179.2188,291.8281 Q179.4844,291.625 179.625,291.5625 Q179.7656,291.5 179.9375,291.5 Q180.2656,291.5 180.5,291.7656 Q180.75,292.0156 180.75,292.375 Q180.75,292.7188 180.4063,293.125 Q179.9063,293.7188 179.1094,294.0469 Q178.0625,294.5 176.7813,294.5 Q175.2813,294.5 174.0781,293.9063 Q173.1094,293.4375 172.4219,292.4219 Q171.75,291.4063 171.75,290.2031 L171.75,289.1094 Q171.75,287.8594 172.3438,286.7656 Q172.9531,285.6719 174,285.0938 Q175.0625,284.5 176.25,284.5 Q176.9688,284.5 177.5938,284.75 Q178.2188,285 178.75,285.5 Z " fill="#000000"/><text fill="#000000" font-family="sans-serif" font-size="12" lengthAdjust="spacing" textLength="225" x="197.25" y="293.9102">AmountEnergySetOfContainersController</text><line style="stroke:#A80036;stroke-width:1.5;" x1="128.5" x2="458.5" y1="305" y2="305"/><line style="stroke:#A80036;stroke-width:1.5;" x1="128.5" x2="458.5" y1="313" y2="313"/><rect fill="#F24D5C" height="6" style="stroke:#C82930;stroke-width:1.0;" width="6" x="135.5" y="321"/><text fill="#000000" font-family="sans-serif" font-size="11" lengthAdjust="spacing" textLength="306" x="147.5" y="328.4189">getTotalEnergyForSetOfContainers(trip,operating_temperature);</text><!--MD5=[68cfd519b9d01f4f9bfebe5bdfd7fcda]
link ShipChiefElectricalEngineer to User--><path codeLine="29" d="M155.5,55.12 C140.96,77.52 118.9,111.52 103.44,135.35 " fill="none" id="ShipChiefElectricalEngineer-to-User" style="stroke:#A80036;stroke-width:1.0;"/><polygon fill="#A80036" points="100.64,139.67,108.8974,134.302,103.3639,135.4771,102.1888,129.9437,100.64,139.67" style="stroke:#A80036;stroke-width:1.0;"/><text fill="#000000" font-family="sans-serif" font-size="13" lengthAdjust="spacing" textLength="21" x="136.5" y="99.4951">is a</text><!--MD5=[1f12d177c84922ed4f166f09ee62ceaa]
link User to UserRole--><path codeLine="31" d="M79.47,188.1 C73.24,211.98 63.51,249.29 56.84,274.87 " fill="none" id="User-to-UserRole" style="stroke:#A80036;stroke-width:1.0;"/><polygon fill="#A80036" points="55.55,279.83,61.683,272.1238,56.8063,274.9904,53.9397,270.1137,55.55,279.83" style="stroke:#A80036;stroke-width:1.0;"/><text fill="#000000" font-family="sans-serif" font-size="13" lengthAdjust="spacing" textLength="32" x="71.5" y="239.4951">has a</text><!--MD5=[c9c3044845a95999584d313c85f00e23]
link ShipChiefElectricalEngineer to AmountEnergySetOfContainersUI--><path codeLine="33" d="M189.03,55.12 C205.39,75.53 229.47,105.57 248.07,128.77 " fill="none" id="ShipChiefElectricalEngineer-to-AmountEnergySetOfContainersUI" style="stroke:#A80036;stroke-width:1.0;"/><polygon fill="#A80036" points="251.23,132.73,248.7185,123.2068,248.1013,128.8298,242.4782,128.2127,251.23,132.73" style="stroke:#A80036;stroke-width:1.0;"/><text fill="#000000" font-family="sans-serif" font-size="13" lengthAdjust="spacing" textLength="42" x="226.5" y="99.4951">access</text><!--MD5=[95f99623a2a4716f8a90f7f075b10876]
link AmountEnergySetOfContainersUI to AmountEnergySetOfContainersController--><path codeLine="35" d="M279.45,195.28 C282.24,216.68 285.99,245.41 288.91,267.82 " fill="none" id="AmountEnergySetOfContainersUI-to-AmountEnergySetOfContainersController" style="stroke:#A80036;stroke-width:1.0;"/><polygon fill="#A80036" points="289.56,272.79,292.3693,263.3503,288.917,267.8315,284.4358,264.3792,289.56,272.79" style="stroke:#A80036;stroke-width:1.0;"/><text fill="#000000" font-family="sans-serif" font-size="13" lengthAdjust="spacing" textLength="80" x="286.5" y="239.4951">connects with</text><!--MD5=[70c1ca879590bcf3b39e9739e5a189e6]
link AmountEnergySetOfContainersController to Company--><path codeLine="37" d="M293.5,335.36 C293.5,355.57 293.5,382.86 293.5,407.63 " fill="none" id="AmountEnergySetOfContainersController-to-Company" style="stroke:#A80036;stroke-width:1.0;"/><polygon fill="#A80036" points="293.5,412.88,297.5,403.88,293.5,407.88,289.5,403.88,293.5,412.88" style="stroke:#A80036;stroke-width:1.0;"/><text fill="#000000" font-family="sans-serif" font-size="13" lengthAdjust="spacing" textLength="74" x="294.5" y="379.4951">calls method</text><!--MD5=[35c8e59b1ea7335c6def1d8c5c8dc4f1]
link Company to GraphGenerator--><path codeLine="39" d="M293.5,530.42 C293.5,554.07 293.5,580.92 293.5,602.68 " fill="none" id="Company-to-GraphGenerator" style="stroke:#A80036;stroke-width:1.0;"/><polygon fill="#A80036" points="293.5,607.81,297.5,598.81,293.5,602.81,289.5,598.81,293.5,607.81" style="stroke:#A80036;stroke-width:1.0;"/><text fill="#000000" font-family="sans-serif" font-size="13" lengthAdjust="spacing" textLength="108" x="294.5" y="574.4951">gets methods from</text><!--MD5=[1c2542f3e6d25e5b9199a3ff42712afa]
@startuml

class GraphGenerator{
- Graph<PortAndCapital, Double> graph;
+ calculateTotalEnergyForSetOfContainers(trip,operating_temperature);
}

class Company{
- TreeOfPorts treeOfPorts;
- List<Country> countryList;
- GraphGenerator graphGenerator;
+ generateGraph(File countries, File borders, File seaDists, int n);
+ getGraphGenerator();
}

class User

class UserRole

class AmountEnergySetOfContainersUI{
-ShipChiefElectricalEngineer controller;
}

class ShipChiefElectricalEngineer

class AmountEnergySetOfContainersController{
- getTotalEnergyForSetOfContainers(trip,operating_temperature);
}

ShipChiefElectricalEngineer -down-> User : is a

User -down-> UserRole : has a

ShipChiefElectricalEngineer -down-> AmountEnergySetOfContainersUI : access

AmountEnergySetOfContainersUI -down-> AmountEnergySetOfContainersController : connects with

AmountEnergySetOfContainersController -down-> Company : calls method

Company -down-> GraphGenerator : gets methods from


@enduml

PlantUML version 1.2021.16(Wed Dec 08 17:25:22 GMT 2021)
(GPL source distribution)
Java Runtime: OpenJDK Runtime Environment
JVM: OpenJDK 64-Bit Server VM
Default Encoding: Cp1252
Language: pt
Country: PT
--></g></svg>