<?xml version="1.0" encoding="UTF-8" standalone="no"?><svg xmlns="http://www.w3.org/2000/svg" xmlns:xlink="http://www.w3.org/1999/xlink" contentScriptType="application/ecmascript" contentStyleType="text/css" height="95px" preserveAspectRatio="none" style="width:806px;height:95px;background:#FFFFFF;" version="1.1" viewBox="0 0 806 95" width="806px" zoomAndPan="magnify"><defs><filter height="300%" id="foma2e71ymufr" width="300%" x="-1" y="-1"><feGaussianBlur result="blurOut" stdDeviation="2.0"/><feColorMatrix in="blurOut" result="blurOut2" type="matrix" values="0 0 0 0 0 0 0 0 0 0 0 0 0 0 0 0 0 0 .4 0"/><feOffset dx="4.0" dy="4.0" in="blurOut2" result="blurOut3"/><feBlend in="SourceGraphic" in2="blurOut3" mode="normal"/></filter></defs><g><!--MD5=[97ab183161fd5d1db7fba7485cf76add]
entity Admin--><ellipse cx="42.5" cy="14" fill="#FEFECE" filter="url(#foma2e71ymufr)" rx="8" ry="8" style="stroke:#A80036;stroke-width:1.5;"/><path d="M42.5,22 L42.5,49 M29.5,30 L55.5,30 M42.5,49 L29.5,64 M42.5,49 L55.5,64 " fill="none" filter="url(#foma2e71ymufr)" style="stroke:#A80036;stroke-width:1.5;"/><text fill="#000000" font-family="sans-serif" font-size="14" lengthAdjust="spacing" textLength="73" x="6" y="84.0332">Main Admin</text><!--MD5=[566a1df68487c1fb1cc09ccf1a09a80e]
entity TrafficManager--><ellipse cx="360.5" cy="14" fill="#FEFECE" filter="url(#foma2e71ymufr)" rx="8" ry="8" style="stroke:#A80036;stroke-width:1.5;"/><path d="M360.5,22 L360.5,49 M347.5,30 L373.5,30 M360.5,49 L347.5,64 M360.5,49 L373.5,64 " fill="none" filter="url(#foma2e71ymufr)" style="stroke:#A80036;stroke-width:1.5;"/><text fill="#000000" font-family="sans-serif" font-size="14" lengthAdjust="spacing" textLength="100" x="310.5" y="84.0332">Traffic Manager</text><ellipse cx="194.2827" cy="45.9565" fill="#FEFECE" filter="url(#foma2e71ymufr)" rx="80.2827" ry="18.4565" style="stroke:#A80036;stroke-width:1.5;"/><text fill="#000000" font-family="sans-serif" font-size="14" lengthAdjust="spacing" textLength="115" x="135.9192" y="49.9341">Register new Staff</text><ellipse cx="620.2551" cy="45.751" fill="#FEFECE" filter="url(#foma2e71ymufr)" rx="174.2551" ry="37.251" style="stroke:#A80036;stroke-width:1.5;"/><text fill="#000000" font-family="sans-serif" font-size="14" lengthAdjust="spacing" textLength="319" x="460.7551" y="49.4795">I wish to know the shortest path between two locals</text><!--MD5=[e7bcbf3aa4fb13a58d0248ae8793bc0d]
link Admin to Register new Staff--><path d="M79.02,46 C88.88,46 98.74,46 108.6,46 " fill="none" id="Admin-to-Register new Staff" style="stroke:#A80036;stroke-width:1.0;"/><polygon fill="#A80036" points="113.75,46,104.75,42,108.75,46,104.75,50,113.75,46" style="stroke:#A80036;stroke-width:1.0;"/><!--MD5=[a2e03398be2e75957b0cd41740c117f3]
link TrafficManager to I wish to know the shortest path between two locals--><path d="M410.52,46 C420.53,46 430.54,46 440.55,46 " fill="none" id="TrafficManager-to-I wish to know the shortest path between two locals" style="stroke:#A80036;stroke-width:1.0;"/><polygon fill="#A80036" points="445.79,46,436.79,42,440.79,46,436.79,50,445.79,46" style="stroke:#A80036;stroke-width:1.0;"/><!--MD5=[0ed248e8a68c74eedb7b15030f5ab6b2]
@startuml
'https://plantuml.com/class-diagram

:Main Admin: as Admin
:Traffic Manager: as TrafficManager

Admin -> (Register new Staff)
TrafficManager -> (I wish to know the shortest path between two locals)
@enduml

@startuml

:Main Admin: as Admin
:Traffic Manager: as TrafficManager

Admin -> (Register new Staff)
TrafficManager -> (I wish to know the shortest path between two locals)
@enduml

PlantUML version 1.2022.0(Tue Jan 11 16:16:42 GMT 2022)
(GPL source distribution)
Java Runtime: OpenJDK Runtime Environment
JVM: OpenJDK 64-Bit Server VM
Default Encoding: Cp1252
Language: pt
Country: PT
--></g></svg>