<?xml version="1.0" encoding="UTF-8" standalone="no"?><svg xmlns="http://www.w3.org/2000/svg" xmlns:xlink="http://www.w3.org/1999/xlink" contentScriptType="application/ecmascript" contentStyleType="text/css" height="444px" preserveAspectRatio="none" style="width:111px;height:444px;" version="1.1" viewBox="0 0 111 444" width="111px" zoomAndPan="magnify"><defs><filter height="300%" id="f17dq3yypgfanq" width="300%" x="-1" y="-1"><feGaussianBlur result="blurOut" stdDeviation="2.0"/><feColorMatrix in="blurOut" result="blurOut2" type="matrix" values="0 0 0 0 0 0 0 0 0 0 0 0 0 0 0 0 0 0 .4 0"/><feOffset dx="4.0" dy="4.0" in="blurOut2" result="blurOut3"/><feBlend in="SourceGraphic" in2="blurOut3" mode="normal"/></filter></defs><g><!--MD5=[fa1e3283224feb76407c84b7e90ed808]
entity Database--><path d="M8.5,144 C8.5,134 49,134 49,134 C49,134 89.5,134 89.5,144 L89.5,170.6094 C89.5,180.6094 49,180.6094 49,180.6094 C49,180.6094 8.5,180.6094 8.5,170.6094 L8.5,144 " fill="#FFFFFF" filter="url(#f17dq3yypgfanq)" style="stroke: #000000; stroke-width: 1.5;"/><path d="M8.5,144 C8.5,154 49,154 49,154 C49,154 89.5,154 89.5,144 " fill="none" style="stroke: #000000; stroke-width: 1.5;"/><text fill="#000000" font-family="sans-serif" font-size="14" lengthAdjust="spacingAndGlyphs" textLength="61" x="18.5" y="172.5332">Database</text><!--MD5=[a0e14dc1c5f22798a4d68a7546a0e1d4]
class PortStaff--><rect fill="#FEFECE" filter="url(#f17dq3yypgfanq)" height="48" id="PortStaff" style="stroke: #A80036; stroke-width: 1.5;" width="78" x="10" y="8"/><ellipse cx="25" cy="24" fill="#ADD1B2" rx="11" ry="11" style="stroke: #A80036; stroke-width: 1.0;"/><path d="M27,20.5 Q27.2031,20 27.4375,19.75 Q27.6719,19.5 27.9375,19.5 Q28.4063,19.5 28.7031,19.7813 Q29,20.0625 29,20.7188 L29,22.2813 Q29,22.9375 28.7188,23.2188 Q28.4375,23.5 28,23.5 Q27.6094,23.5 27.3594,23.3281 Q27.1094,23.1563 27,22.7031 Q26.9531,22.3906 26.7813,22.2188 Q26.4688,21.8906 25.9063,21.7031 Q25.3438,21.5 24.7813,21.5 Q24.0781,21.5 23.4844,21.7813 Q22.9063,22.0625 22.4531,22.6875 Q22,23.3125 22,24.1719 L22,25.0938 Q22,26.125 22.8438,26.8125 Q23.6875,27.5 25.1875,27.5 Q26.0781,27.5 26.7031,27.2969 Q27.0625,27.1875 27.4688,26.8281 Q27.7344,26.625 27.875,26.5625 Q28.0156,26.5 28.1875,26.5 Q28.5156,26.5 28.75,26.7656 Q29,27.0156 29,27.375 Q29,27.7188 28.6563,28.125 Q28.1563,28.7188 27.3594,29.0469 Q26.3125,29.5 25.0313,29.5 Q23.5313,29.5 22.3281,28.9063 Q21.3594,28.4375 20.6719,27.4219 Q20,26.4063 20,25.2031 L20,24.1094 Q20,22.8594 20.5938,21.7656 Q21.2031,20.6719 22.25,20.0938 Q23.3125,19.5 24.5,19.5 Q25.2188,19.5 25.8438,19.75 Q26.4688,20 27,20.5 Z "/><text fill="#000000" font-family="sans-serif" font-size="12" lengthAdjust="spacingAndGlyphs" textLength="46" x="39" y="28.9102">PortStaff</text><line style="stroke: #A80036; stroke-width: 1.5;" x1="11" x2="87" y1="40" y2="40"/><line style="stroke: #A80036; stroke-width: 1.5;" x1="11" x2="87" y1="48" y2="48"/><!--MD5=[0dc7f2ddb409b58bcf52b12238c25399]
class Ship--><rect fill="#FEFECE" filter="url(#f17dq3yypgfanq)" height="48" id="Ship" style="stroke: #A80036; stroke-width: 1.5;" width="57" x="20.5" y="259"/><ellipse cx="35.5" cy="275" fill="#ADD1B2" rx="11" ry="11" style="stroke: #A80036; stroke-width: 1.0;"/><path d="M37.5,271.5 Q37.7031,271 37.9375,270.75 Q38.1719,270.5 38.4375,270.5 Q38.9063,270.5 39.2031,270.7813 Q39.5,271.0625 39.5,271.7188 L39.5,273.2813 Q39.5,273.9375 39.2188,274.2188 Q38.9375,274.5 38.5,274.5 Q38.1094,274.5 37.8594,274.3281 Q37.6094,274.1563 37.5,273.7031 Q37.4531,273.3906 37.2813,273.2188 Q36.9688,272.8906 36.4063,272.7031 Q35.8438,272.5 35.2813,272.5 Q34.5781,272.5 33.9844,272.7813 Q33.4063,273.0625 32.9531,273.6875 Q32.5,274.3125 32.5,275.1719 L32.5,276.0938 Q32.5,277.125 33.3438,277.8125 Q34.1875,278.5 35.6875,278.5 Q36.5781,278.5 37.2031,278.2969 Q37.5625,278.1875 37.9688,277.8281 Q38.2344,277.625 38.375,277.5625 Q38.5156,277.5 38.6875,277.5 Q39.0156,277.5 39.25,277.7656 Q39.5,278.0156 39.5,278.375 Q39.5,278.7188 39.1563,279.125 Q38.6563,279.7188 37.8594,280.0469 Q36.8125,280.5 35.5313,280.5 Q34.0313,280.5 32.8281,279.9063 Q31.8594,279.4375 31.1719,278.4219 Q30.5,277.4063 30.5,276.2031 L30.5,275.1094 Q30.5,273.8594 31.0938,272.7656 Q31.7031,271.6719 32.75,271.0938 Q33.8125,270.5 35,270.5 Q35.7188,270.5 36.3438,270.75 Q36.9688,271 37.5,271.5 Z "/><text fill="#000000" font-family="sans-serif" font-size="12" lengthAdjust="spacingAndGlyphs" textLength="25" x="49.5" y="279.9102">Ship</text><line style="stroke: #A80036; stroke-width: 1.5;" x1="21.5" x2="76.5" y1="291" y2="291"/><line style="stroke: #A80036; stroke-width: 1.5;" x1="21.5" x2="76.5" y1="299" y2="299"/><!--MD5=[e9a58730c562b34349daa605d1ed6662]
class Container--><rect fill="#FEFECE" filter="url(#f17dq3yypgfanq)" height="48" id="Container" style="stroke: #A80036; stroke-width: 1.5;" width="86" x="6" y="385"/><ellipse cx="21" cy="401" fill="#ADD1B2" rx="11" ry="11" style="stroke: #A80036; stroke-width: 1.0;"/><path d="M23,397.5 Q23.2031,397 23.4375,396.75 Q23.6719,396.5 23.9375,396.5 Q24.4063,396.5 24.7031,396.7813 Q25,397.0625 25,397.7188 L25,399.2813 Q25,399.9375 24.7188,400.2188 Q24.4375,400.5 24,400.5 Q23.6094,400.5 23.3594,400.3281 Q23.1094,400.1563 23,399.7031 Q22.9531,399.3906 22.7813,399.2188 Q22.4688,398.8906 21.9063,398.7031 Q21.3438,398.5 20.7813,398.5 Q20.0781,398.5 19.4844,398.7813 Q18.9063,399.0625 18.4531,399.6875 Q18,400.3125 18,401.1719 L18,402.0938 Q18,403.125 18.8438,403.8125 Q19.6875,404.5 21.1875,404.5 Q22.0781,404.5 22.7031,404.2969 Q23.0625,404.1875 23.4688,403.8281 Q23.7344,403.625 23.875,403.5625 Q24.0156,403.5 24.1875,403.5 Q24.5156,403.5 24.75,403.7656 Q25,404.0156 25,404.375 Q25,404.7188 24.6563,405.125 Q24.1563,405.7188 23.3594,406.0469 Q22.3125,406.5 21.0313,406.5 Q19.5313,406.5 18.3281,405.9063 Q17.3594,405.4375 16.6719,404.4219 Q16,403.4063 16,402.2031 L16,401.1094 Q16,399.8594 16.5938,398.7656 Q17.2031,397.6719 18.25,397.0938 Q19.3125,396.5 20.5,396.5 Q21.2188,396.5 21.8438,396.75 Q22.4688,397 23,397.5 Z "/><text fill="#000000" font-family="sans-serif" font-size="12" lengthAdjust="spacingAndGlyphs" textLength="54" x="35" y="405.9102">Container</text><line style="stroke: #A80036; stroke-width: 1.5;" x1="7" x2="91" y1="417" y2="417"/><line style="stroke: #A80036; stroke-width: 1.5;" x1="7" x2="91" y1="425" y2="425"/><!--MD5=[93c96dd44ebe81294219eefb5c1900a0]
link PortStaff to Database--><path d="M49,56.229 C49,76.8 49,106.866 49,128.707 " fill="none" id="PortStaff-&gt;Database" style="stroke: #A80036; stroke-width: 1.0;"/><polygon fill="#A80036" points="49,133.792,53,124.792,49,128.792,45,124.792,49,133.792" style="stroke: #A80036; stroke-width: 1.0;"/><text fill="#000000" font-family="sans-serif" font-size="13" lengthAdjust="spacingAndGlyphs" textLength="27" x="50" y="100.4951">login</text><!--MD5=[29f8014cef43abcd8187bc0c714f5977]
link Database to Ship--><path d="M49,181.152 C49,201.523 49,231.54 49,253.528 " fill="none" id="Database-&gt;Ship" style="stroke: #A80036; stroke-width: 1.0;"/><polygon fill="#A80036" points="49,258.653,53,249.653,49,253.653,45,249.653,49,258.653" style="stroke: #A80036; stroke-width: 1.0;"/><text fill="#000000" font-family="sans-serif" font-size="13" lengthAdjust="spacingAndGlyphs" textLength="49" x="50" y="225.4951">contains</text><!--MD5=[ba54223a31981c52d18c1dd571f5520c]
link Ship to Container--><path d="M49,307.033 C49,327.522 49,357.5607 49,379.5464 " fill="none" id="Ship-&gt;Container" style="stroke: #A80036; stroke-width: 1.0;"/><polygon fill="#A80036" points="49,384.6697,53,375.6697,49,379.6697,45,375.6697,49,384.6697" style="stroke: #A80036; stroke-width: 1.0;"/><text fill="#000000" font-family="sans-serif" font-size="13" lengthAdjust="spacingAndGlyphs" textLength="49" x="50" y="351.4951">contains</text><!--MD5=[db6ce2c7314a404eeafe79ccb091ebe7]
@startuml

database Database{

}

PortStaff - -> Database : login
Database - -> Ship : contains
Ship - -> Container : contains

@enduml

PlantUML version 1.2020.07(Sun Apr 19 12:42:40 BST 2020)
(GPL source distribution)
Java Runtime: OpenJDK Runtime Environment
JVM: OpenJDK 64-Bit Server VM
Java Version: 11.0.6+8-b765.40
Operating System: Windows 10
Default Encoding: Cp1252
Language: pt
Country: PT
--></g></svg>