<?xml version="1.0" encoding="UTF-8" standalone="no"?><svg xmlns="http://www.w3.org/2000/svg" xmlns:xlink="http://www.w3.org/1999/xlink" contentScriptType="application/ecmascript" contentStyleType="text/css" height="390px" preserveAspectRatio="none" style="width:1018px;height:390px;" version="1.1" viewBox="0 0 1018 390" width="1018px" zoomAndPan="magnify"><defs><filter height="300%" id="fr7g6egmwbdsq" width="300%" x="-1" y="-1"><feGaussianBlur result="blurOut" stdDeviation="2.0"/><feColorMatrix in="blurOut" result="blurOut2" type="matrix" values="0 0 0 0 0 0 0 0 0 0 0 0 0 0 0 0 0 0 .4 0"/><feOffset dx="4.0" dy="4.0" in="blurOut2" result="blurOut3"/><feBlend in="SourceGraphic" in2="blurOut3" mode="normal"/></filter></defs><g><rect fill="#FFFFFF" filter="url(#fr7g6egmwbdsq)" height="140.4063" style="stroke: #A80036; stroke-width: 1.0;" width="10" x="335.5" y="136.3125"/><rect fill="#FFFFFF" filter="url(#fr7g6egmwbdsq)" height="110.0547" style="stroke: #A80036; stroke-width: 1.0;" width="10" x="605.5" y="166.6641"/><rect fill="#FFFFFF" filter="url(#fr7g6egmwbdsq)" height="79.7031" style="stroke: #A80036; stroke-width: 1.0;" width="10" x="846.5" y="197.0156"/><line style="stroke: #A80036; stroke-width: 1.0; stroke-dasharray: 5.0,5.0;" x1="49" x2="49" y1="87.6094" y2="301.7188"/><line style="stroke: #A80036; stroke-width: 1.0; stroke-dasharray: 5.0,5.0;" x1="340" x2="340" y1="87.6094" y2="301.7188"/><line style="stroke: #A80036; stroke-width: 1.0; stroke-dasharray: 5.0,5.0;" x1="610" x2="610" y1="87.6094" y2="301.7188"/><line style="stroke: #A80036; stroke-width: 1.0; stroke-dasharray: 5.0,5.0;" x1="851.5" x2="851.5" y1="87.6094" y2="301.7188"/><text fill="#000000" font-family="sans-serif" font-size="14" lengthAdjust="spacingAndGlyphs" textLength="77" x="8" y="84.5332">ShipCaptain</text><ellipse cx="49.5" cy="13" fill="#FEFECE" filter="url(#fr7g6egmwbdsq)" rx="8" ry="8" style="stroke: #A80036; stroke-width: 2.0;"/><path d="M49.5,21 L49.5,48 M36.5,29 L62.5,29 M49.5,48 L36.5,63 M49.5,48 L62.5,63 " fill="none" filter="url(#fr7g6egmwbdsq)" style="stroke: #A80036; stroke-width: 2.0;"/><text fill="#000000" font-family="sans-serif" font-size="14" lengthAdjust="spacingAndGlyphs" textLength="77" x="8" y="315.252">ShipCaptain</text><ellipse cx="49.5" cy="328.3281" fill="#FEFECE" filter="url(#fr7g6egmwbdsq)" rx="8" ry="8" style="stroke: #A80036; stroke-width: 2.0;"/><path d="M49.5,336.3281 L49.5,363.3281 M36.5,344.3281 L62.5,344.3281 M49.5,363.3281 L36.5,378.3281 M49.5,363.3281 L62.5,378.3281 " fill="none" filter="url(#fr7g6egmwbdsq)" style="stroke: #A80036; stroke-width: 2.0;"/><rect fill="#FEFECE" filter="url(#fr7g6egmwbdsq)" height="31.6094" style="stroke: #A80036; stroke-width: 1.5;" width="231" x="223" y="51"/><text fill="#000000" font-family="sans-serif" font-size="14" lengthAdjust="spacingAndGlyphs" textLength="217" x="230" y="72.5332">:AccessToInfoContainersOnShipUI</text><rect fill="#FEFECE" filter="url(#fr7g6egmwbdsq)" height="31.6094" style="stroke: #A80036; stroke-width: 1.5;" width="231" x="223" y="300.7188"/><text fill="#000000" font-family="sans-serif" font-size="14" lengthAdjust="spacingAndGlyphs" textLength="217" x="230" y="322.252">:AccessToInfoContainersOnShipUI</text><rect fill="#FEFECE" filter="url(#fr7g6egmwbdsq)" height="31.6094" style="stroke: #A80036; stroke-width: 1.5;" width="281" x="468" y="51"/><text fill="#000000" font-family="sans-serif" font-size="14" lengthAdjust="spacingAndGlyphs" textLength="267" x="475" y="72.5332">:AccessToInfoContainersOnShipController</text><rect fill="#FEFECE" filter="url(#fr7g6egmwbdsq)" height="31.6094" style="stroke: #A80036; stroke-width: 1.5;" width="281" x="468" y="300.7188"/><text fill="#000000" font-family="sans-serif" font-size="14" lengthAdjust="spacingAndGlyphs" textLength="267" x="475" y="322.252">:AccessToInfoContainersOnShipController</text><text fill="#000000" font-family="sans-serif" font-size="14" lengthAdjust="spacingAndGlyphs" textLength="62" x="817.5" y="84.5332">DataBase</text><path d="M833.5,34 C833.5,24 851.5,24 851.5,24 C851.5,24 869.5,24 869.5,34 L869.5,60 C869.5,70 851.5,70 851.5,70 C851.5,70 833.5,70 833.5,60 L833.5,34 " fill="#FEFECE" filter="url(#fr7g6egmwbdsq)" style="stroke: #000000; stroke-width: 1.5;"/><path d="M833.5,34 C833.5,44 851.5,44 851.5,44 C851.5,44 869.5,44 869.5,34 " fill="none" style="stroke: #000000; stroke-width: 1.5;"/><text fill="#000000" font-family="sans-serif" font-size="14" lengthAdjust="spacingAndGlyphs" textLength="62" x="817.5" y="315.252">DataBase</text><path d="M833.5,328.3281 C833.5,318.3281 851.5,318.3281 851.5,318.3281 C851.5,318.3281 869.5,318.3281 869.5,328.3281 L869.5,354.3281 C869.5,364.3281 851.5,364.3281 851.5,364.3281 C851.5,364.3281 833.5,364.3281 833.5,354.3281 L833.5,328.3281 " fill="#FEFECE" filter="url(#fr7g6egmwbdsq)" style="stroke: #000000; stroke-width: 1.5;"/><path d="M833.5,328.3281 C833.5,338.3281 851.5,338.3281 851.5,338.3281 C851.5,338.3281 869.5,338.3281 869.5,328.3281 " fill="none" style="stroke: #000000; stroke-width: 1.5;"/><rect fill="#FFFFFF" filter="url(#fr7g6egmwbdsq)" height="140.4063" style="stroke: #A80036; stroke-width: 1.0;" width="10" x="335.5" y="136.3125"/><rect fill="#FFFFFF" filter="url(#fr7g6egmwbdsq)" height="110.0547" style="stroke: #A80036; stroke-width: 1.0;" width="10" x="605.5" y="166.6641"/><rect fill="#FFFFFF" filter="url(#fr7g6egmwbdsq)" height="79.7031" style="stroke: #A80036; stroke-width: 1.0;" width="10" x="846.5" y="197.0156"/><polygon fill="#A80036" points="323.5,132.3125,333.5,136.3125,323.5,140.3125,327.5,136.3125" style="stroke: #A80036; stroke-width: 1.0;"/><line style="stroke: #A80036; stroke-width: 1.0;" x1="49.5" x2="329.5" y1="136.3125" y2="136.3125"/><text fill="#000000" font-family="sans-serif" font-size="13" font-weight="bold" lengthAdjust="spacingAndGlyphs" textLength="7" x="56.5" y="123.2803">1</text><text fill="#000000" font-family="sans-serif" font-size="13" lengthAdjust="spacingAndGlyphs" textLength="252" x="67.5" y="115.1045">Get access exclusively to the information of</text><text fill="#000000" font-family="sans-serif" font-size="13" lengthAdjust="spacingAndGlyphs" textLength="240" x="67.5" y="131.4561">the containers that are loaded on my ship</text><polygon fill="#A80036" points="593.5,162.6641,603.5,166.6641,593.5,170.6641,597.5,166.6641" style="stroke: #A80036; stroke-width: 1.0;"/><line style="stroke: #A80036; stroke-width: 1.0;" x1="345.5" x2="599.5" y1="166.6641" y2="166.6641"/><text fill="#000000" font-family="sans-serif" font-size="13" font-weight="bold" lengthAdjust="spacingAndGlyphs" textLength="7" x="352.5" y="161.8076">2</text><text fill="#000000" font-family="sans-serif" font-size="13" lengthAdjust="spacingAndGlyphs" textLength="201" x="363.5" y="161.8076">accessToInfoContainersOnShip(...)</text><polygon fill="#A80036" points="834.5,193.0156,844.5,197.0156,834.5,201.0156,838.5,197.0156" style="stroke: #A80036; stroke-width: 1.0;"/><line style="stroke: #A80036; stroke-width: 1.0;" x1="615.5" x2="840.5" y1="197.0156" y2="197.0156"/><text fill="#000000" font-family="sans-serif" font-size="13" font-weight="bold" lengthAdjust="spacingAndGlyphs" textLength="7" x="622.5" y="192.1592">3</text><text fill="#000000" font-family="sans-serif" font-size="13" lengthAdjust="spacingAndGlyphs" textLength="201" x="633.5" y="192.1592">accessToInfoContainersOnShip(...)</text><line style="stroke: #A80036; stroke-width: 1.0;" x1="856.5" x2="898.5" y1="227.3672" y2="227.3672"/><line style="stroke: #A80036; stroke-width: 1.0;" x1="898.5" x2="898.5" y1="227.3672" y2="240.3672"/><line style="stroke: #A80036; stroke-width: 1.0;" x1="857.5" x2="898.5" y1="240.3672" y2="240.3672"/><polygon fill="#A80036" points="867.5,236.3672,857.5,240.3672,867.5,244.3672,863.5,240.3672" style="stroke: #A80036; stroke-width: 1.0;"/><text fill="#000000" font-family="sans-serif" font-size="13" font-weight="bold" lengthAdjust="spacingAndGlyphs" textLength="7" x="863.5" y="222.5107">4</text><text fill="#000000" font-family="sans-serif" font-size="13" lengthAdjust="spacingAndGlyphs" textLength="70" x="874.5" y="222.5107">getMyShip()</text><line style="stroke: #A80036; stroke-width: 1.0;" x1="856.5" x2="898.5" y1="275.7188" y2="275.7188"/><line style="stroke: #A80036; stroke-width: 1.0;" x1="898.5" x2="898.5" y1="275.7188" y2="288.7188"/><line style="stroke: #A80036; stroke-width: 1.0;" x1="851.5" x2="898.5" y1="288.7188" y2="288.7188"/><polygon fill="#A80036" points="861.5,284.7188,851.5,288.7188,861.5,292.7188,857.5,288.7188" style="stroke: #A80036; stroke-width: 1.0;"/><text fill="#000000" font-family="sans-serif" font-size="13" font-weight="bold" lengthAdjust="spacingAndGlyphs" textLength="7" x="863.5" y="270.8623">5</text><text fill="#000000" font-family="sans-serif" font-size="13" lengthAdjust="spacingAndGlyphs" textLength="132" x="874.5" y="270.8623">getContainersMyShip()</text><!--MD5=[dfb005063e533b140cb3ee96f97814eb]
@startuml

autonumber

actor       ShipCaptain             as Sc
participant    ":AccessToInfoContainersOnShipUI"         as UI
participant    ":AccessToInfoContainersOnShipController" as CTRL
database DataBase as db

Sc -> UI : Get access exclusively to the information of \nthe containers that are loaded on my ship
activate UI

UI -> CTRL : accessToInfoContainersOnShip(...)

activate CTRL

CTRL -> db : accessToInfoContainersOnShip(...)

activate db

db -> db : getMyShip()

db -> db : getContainersMyShip()

deactivate db

deactivate CTRL

deactivate UI
@enduml

PlantUML version 1.2020.07(Sun Apr 19 12:42:40 BST 2020)
(GPL source distribution)
Java Runtime: OpenJDK Runtime Environment
JVM: OpenJDK 64-Bit Server VM
Java Version: 11.0.6+8-b765.40
Operating System: Windows 10
Default Encoding: Cp1252
Language: pt
Country: PT
--></g></svg>