<?xml version="1.0" encoding="UTF-8" standalone="no"?><svg xmlns="http://www.w3.org/2000/svg" xmlns:xlink="http://www.w3.org/1999/xlink" contentScriptType="application/ecmascript" contentStyleType="text/css" height="395px" preserveAspectRatio="none" style="width:338px;height:395px;background:#FFFFFF;" version="1.1" viewBox="0 0 338 395" width="338px" zoomAndPan="magnify"><defs><filter height="300%" id="f1hsxfv3rde0xz" width="300%" x="-1" y="-1"><feGaussianBlur result="blurOut" stdDeviation="2.0"/><feColorMatrix in="blurOut" result="blurOut2" type="matrix" values="0 0 0 0 0 0 0 0 0 0 0 0 0 0 0 0 0 0 .4 0"/><feOffset dx="4.0" dy="4.0" in="blurOut2" result="blurOut3"/><feBlend in="SourceGraphic" in2="blurOut3" mode="normal"/></filter></defs><g><!--MD5=[e6b394b930674b2255938b8afe6bb7b4]
class ShipCaptain--><rect codeLine="3" fill="#FEFECE" filter="url(#f1hsxfv3rde0xz)" height="48" id="ShipCaptain" style="stroke:#A80036;stroke-width:1.5;" width="100" x="111" y="7"/><ellipse cx="126" cy="23" fill="#ADD1B2" rx="11" ry="11" style="stroke:#A80036;stroke-width:1.0;"/><path d="M128,19.5 Q128.2031,19 128.4375,18.75 Q128.6719,18.5 128.9375,18.5 Q129.4063,18.5 129.7031,18.7813 Q130,19.0625 130,19.7188 L130,21.2813 Q130,21.9375 129.7188,22.2188 Q129.4375,22.5 129,22.5 Q128.6094,22.5 128.3594,22.3281 Q128.1094,22.1563 128,21.7031 Q127.9531,21.3906 127.7813,21.2188 Q127.4688,20.8906 126.9063,20.7031 Q126.3438,20.5 125.7813,20.5 Q125.0781,20.5 124.4844,20.7813 Q123.9063,21.0625 123.4531,21.6875 Q123,22.3125 123,23.1719 L123,24.0938 Q123,25.125 123.8438,25.8125 Q124.6875,26.5 126.1875,26.5 Q127.0781,26.5 127.7031,26.2969 Q128.0625,26.1875 128.4688,25.8281 Q128.7344,25.625 128.875,25.5625 Q129.0156,25.5 129.1875,25.5 Q129.5156,25.5 129.75,25.7656 Q130,26.0156 130,26.375 Q130,26.7188 129.6563,27.125 Q129.1563,27.7188 128.3594,28.0469 Q127.3125,28.5 126.0313,28.5 Q124.5313,28.5 123.3281,27.9063 Q122.3594,27.4375 121.6719,26.4219 Q121,25.4063 121,24.2031 L121,23.1094 Q121,21.8594 121.5938,20.7656 Q122.2031,19.6719 123.25,19.0938 Q124.3125,18.5 125.5,18.5 Q126.2188,18.5 126.8438,18.75 Q127.4688,19 128,19.5 Z " fill="#000000"/><text fill="#000000" font-family="sans-serif" font-size="12" lengthAdjust="spacing" textLength="68" x="140" y="27.9102">ShipCaptain</text><line style="stroke:#A80036;stroke-width:1.5;" x1="112" x2="210" y1="39" y2="39"/><line style="stroke:#A80036;stroke-width:1.5;" x1="112" x2="210" y1="47" y2="47"/><!--MD5=[02e4b9b7573f1156f41e60aa5b4e25a4]
class Company--><rect codeLine="7" fill="#FEFECE" filter="url(#f1hsxfv3rde0xz)" height="48" id="Company" style="stroke:#A80036;stroke-width:1.5;" width="85" x="118.5" y="115"/><ellipse cx="133.5" cy="131" fill="#ADD1B2" rx="11" ry="11" style="stroke:#A80036;stroke-width:1.0;"/><path d="M135.5,127.5 Q135.7031,127 135.9375,126.75 Q136.1719,126.5 136.4375,126.5 Q136.9063,126.5 137.2031,126.7813 Q137.5,127.0625 137.5,127.7188 L137.5,129.2813 Q137.5,129.9375 137.2188,130.2188 Q136.9375,130.5 136.5,130.5 Q136.1094,130.5 135.8594,130.3281 Q135.6094,130.1563 135.5,129.7031 Q135.4531,129.3906 135.2813,129.2188 Q134.9688,128.8906 134.4063,128.7031 Q133.8438,128.5 133.2813,128.5 Q132.5781,128.5 131.9844,128.7813 Q131.4063,129.0625 130.9531,129.6875 Q130.5,130.3125 130.5,131.1719 L130.5,132.0938 Q130.5,133.125 131.3438,133.8125 Q132.1875,134.5 133.6875,134.5 Q134.5781,134.5 135.2031,134.2969 Q135.5625,134.1875 135.9688,133.8281 Q136.2344,133.625 136.375,133.5625 Q136.5156,133.5 136.6875,133.5 Q137.0156,133.5 137.25,133.7656 Q137.5,134.0156 137.5,134.375 Q137.5,134.7188 137.1563,135.125 Q136.6563,135.7188 135.8594,136.0469 Q134.8125,136.5 133.5313,136.5 Q132.0313,136.5 130.8281,135.9063 Q129.8594,135.4375 129.1719,134.4219 Q128.5,133.4063 128.5,132.2031 L128.5,131.1094 Q128.5,129.8594 129.0938,128.7656 Q129.7031,127.6719 130.75,127.0938 Q131.8125,126.5 133,126.5 Q133.7188,126.5 134.3438,126.75 Q134.9688,127 135.5,127.5 Z " fill="#000000"/><text fill="#000000" font-family="sans-serif" font-size="12" lengthAdjust="spacing" textLength="53" x="147.5" y="135.9102">Company</text><line style="stroke:#A80036;stroke-width:1.5;" x1="119.5" x2="202.5" y1="147" y2="147"/><line style="stroke:#A80036;stroke-width:1.5;" x1="119.5" x2="202.5" y1="155" y2="155"/><!--MD5=[76562047389981627aea27c31a97aff5]
class CargoManifest--><rect codeLine="10" fill="#FEFECE" filter="url(#f1hsxfv3rde0xz)" height="61.8359" id="CargoManifest" style="stroke:#A80036;stroke-width:1.5;" width="132" x="7" y="271.5"/><ellipse cx="31" cy="287.5" fill="#ADD1B2" rx="11" ry="11" style="stroke:#A80036;stroke-width:1.0;"/><path d="M33,284 Q33.2031,283.5 33.4375,283.25 Q33.6719,283 33.9375,283 Q34.4063,283 34.7031,283.2813 Q35,283.5625 35,284.2188 L35,285.7813 Q35,286.4375 34.7188,286.7188 Q34.4375,287 34,287 Q33.6094,287 33.3594,286.8281 Q33.1094,286.6563 33,286.2031 Q32.9531,285.8906 32.7813,285.7188 Q32.4688,285.3906 31.9063,285.2031 Q31.3438,285 30.7813,285 Q30.0781,285 29.4844,285.2813 Q28.9063,285.5625 28.4531,286.1875 Q28,286.8125 28,287.6719 L28,288.5938 Q28,289.625 28.8438,290.3125 Q29.6875,291 31.1875,291 Q32.0781,291 32.7031,290.7969 Q33.0625,290.6875 33.4688,290.3281 Q33.7344,290.125 33.875,290.0625 Q34.0156,290 34.1875,290 Q34.5156,290 34.75,290.2656 Q35,290.5156 35,290.875 Q35,291.2188 34.6563,291.625 Q34.1563,292.2188 33.3594,292.5469 Q32.3125,293 31.0313,293 Q29.5313,293 28.3281,292.4063 Q27.3594,291.9375 26.6719,290.9219 Q26,289.9063 26,288.7031 L26,287.6094 Q26,286.3594 26.5938,285.2656 Q27.2031,284.1719 28.25,283.5938 Q29.3125,283 30.5,283 Q31.2188,283 31.8438,283.25 Q32.4688,283.5 33,284 Z " fill="#000000"/><text fill="#000000" font-family="sans-serif" font-size="12" lengthAdjust="spacing" textLength="80" x="47" y="292.4102">CargoManifest</text><line style="stroke:#A80036;stroke-width:1.5;" x1="8" x2="138" y1="303.5" y2="303.5"/><text fill="#000000" font-family="sans-serif" font-size="11" lengthAdjust="spacing" textLength="120" x="13" y="318.9189">HashMap&lt;Container, int&gt;</text><line style="stroke:#A80036;stroke-width:1.5;" x1="8" x2="138" y1="325.3359" y2="325.3359"/><!--MD5=[e9a58730c562b34349daa605d1ed6662]
class Container--><rect codeLine="14" fill="#FEFECE" filter="url(#f1hsxfv3rde0xz)" height="158.6875" id="Container" style="stroke:#A80036;stroke-width:1.5;" width="150" x="174" y="223"/><ellipse cx="217.8" cy="239" fill="#ADD1B2" rx="11" ry="11" style="stroke:#A80036;stroke-width:1.0;"/><path d="M219.8,235.5 Q220.0031,235 220.2375,234.75 Q220.4719,234.5 220.7375,234.5 Q221.2063,234.5 221.5031,234.7813 Q221.8,235.0625 221.8,235.7188 L221.8,237.2813 Q221.8,237.9375 221.5188,238.2188 Q221.2375,238.5 220.8,238.5 Q220.4094,238.5 220.1594,238.3281 Q219.9094,238.1563 219.8,237.7031 Q219.7531,237.3906 219.5813,237.2188 Q219.2688,236.8906 218.7063,236.7031 Q218.1438,236.5 217.5813,236.5 Q216.8781,236.5 216.2844,236.7813 Q215.7063,237.0625 215.2531,237.6875 Q214.8,238.3125 214.8,239.1719 L214.8,240.0938 Q214.8,241.125 215.6438,241.8125 Q216.4875,242.5 217.9875,242.5 Q218.8781,242.5 219.5031,242.2969 Q219.8625,242.1875 220.2688,241.8281 Q220.5344,241.625 220.675,241.5625 Q220.8156,241.5 220.9875,241.5 Q221.3156,241.5 221.55,241.7656 Q221.8,242.0156 221.8,242.375 Q221.8,242.7188 221.4563,243.125 Q220.9563,243.7188 220.1594,244.0469 Q219.1125,244.5 217.8313,244.5 Q216.3313,244.5 215.1281,243.9063 Q214.1594,243.4375 213.4719,242.4219 Q212.8,241.4063 212.8,240.2031 L212.8,239.1094 Q212.8,237.8594 213.3938,236.7656 Q214.0031,235.6719 215.05,235.0938 Q216.1125,234.5 217.3,234.5 Q218.0188,234.5 218.6438,234.75 Q219.2688,235 219.8,235.5 Z " fill="#000000"/><text fill="#000000" font-family="sans-serif" font-size="12" lengthAdjust="spacing" textLength="54" x="238.2" y="243.9102">Container</text><line style="stroke:#A80036;stroke-width:1.5;" x1="175" x2="323" y1="255" y2="255"/><rect fill="none" height="6" style="stroke:#C82930;stroke-width:1.0;" width="6" x="182" y="263"/><text fill="#000000" font-family="sans-serif" font-size="11" lengthAdjust="spacing" textLength="94" x="194" y="270.4189">String containerID &lt;</text><text fill="#000000" font-family="sans-serif" font-size="11" font-weight="bold" lengthAdjust="spacing" textLength="20" x="288" y="270.4189">PK&gt;</text><rect fill="none" height="6" style="stroke:#C82930;stroke-width:1.0;" width="6" x="182" y="276.8359"/><text fill="#000000" font-family="sans-serif" font-size="11" lengthAdjust="spacing" textLength="63" x="194" y="284.2549">int checkDigit</text><rect fill="none" height="6" style="stroke:#C82930;stroke-width:1.0;" width="6" x="182" y="290.6719"/><text fill="#000000" font-family="sans-serif" font-size="11" lengthAdjust="spacing" textLength="48" x="194" y="298.0908">String ISO</text><rect fill="none" height="6" style="stroke:#C82930;stroke-width:1.0;" width="6" x="182" y="304.5078"/><text fill="#000000" font-family="sans-serif" font-size="11" lengthAdjust="spacing" textLength="42" x="194" y="311.9268">int gross</text><rect fill="none" height="6" style="stroke:#C82930;stroke-width:1.0;" width="6" x="182" y="318.3438"/><text fill="#000000" font-family="sans-serif" font-size="11" lengthAdjust="spacing" textLength="33" x="194" y="325.7627">int tare</text><rect fill="none" height="6" style="stroke:#C82930;stroke-width:1.0;" width="6" x="182" y="332.1797"/><text fill="#000000" font-family="sans-serif" font-size="11" lengthAdjust="spacing" textLength="52" x="194" y="339.5986">int payload</text><rect fill="none" height="6" style="stroke:#C82930;stroke-width:1.0;" width="6" x="182" y="346.0156"/><text fill="#000000" font-family="sans-serif" font-size="11" lengthAdjust="spacing" textLength="70" x="194" y="353.4346">int maxVolume</text><rect fill="none" height="6" style="stroke:#C82930;stroke-width:1.0;" width="6" x="182" y="359.8516"/><text fill="#000000" font-family="sans-serif" font-size="11" lengthAdjust="spacing" textLength="124" x="194" y="367.2705">int repairRecommendation</text><line style="stroke:#A80036;stroke-width:1.5;" x1="175" x2="323" y1="373.6875" y2="373.6875"/><!--MD5=[9a31db71f2c3551e63ef1cc9b9b88927]
link ShipCaptain to Company--><path codeLine="27" d="M161,55 C161,71 161,92.45 161,109.53 " fill="none" id="ShipCaptain-to-Company" style="stroke:#A80036;stroke-width:1.0;"/><polygon fill="#A80036" points="161,114.68,165,105.68,161,109.68,157,105.68,161,114.68" style="stroke:#A80036;stroke-width:1.0;"/><!--MD5=[31d56c2a59c24a3884ad113e84e7cd8c]
link Company to CargoManifest--><path codeLine="28" d="M148.39,163.14 C133.62,190.24 109.01,235.4 91.95,266.73 " fill="none" id="Company-to-CargoManifest" style="stroke:#A80036;stroke-width:1.0;"/><polygon fill="#A80036" points="89.49,271.24,97.2962,265.2348,91.8733,266.8445,90.2635,261.4216,89.49,271.24" style="stroke:#A80036;stroke-width:1.0;"/><!--MD5=[295d4b4de4cbb626f52b0a8946e3bb6c]
link Company to Container--><path codeLine="29" d="M173.61,163.14 C181.65,177.9 192.61,198.01 203.68,218.33 " fill="none" id="Company-to-Container" style="stroke:#A80036;stroke-width:1.0;"/><polygon fill="#A80036" points="206.19,222.94,205.3785,213.1246,203.7897,218.5538,198.3606,216.9651,206.19,222.94" style="stroke:#A80036;stroke-width:1.0;"/><!--MD5=[a93f71c337684849482b0ec5675aa7db]
link CargoManifest to Container--><path codeLine="30" d="M139.34,302.5 C149.07,302.5 158.8,302.5 168.52,302.5 " fill="none" id="CargoManifest-to-Container" style="stroke:#A80036;stroke-width:1.0;"/><polygon fill="#A80036" points="173.61,302.5,164.61,298.5,168.61,302.5,164.61,306.5,173.61,302.5" style="stroke:#A80036;stroke-width:1.0;"/><!--MD5=[cc7f9e644dd70e93e42f89e22c3d4b20]
@startuml
'https://plantuml.com/class-diagram

class ShipCaptain{

}

class Company{
}

class CargoManifest{
    HashMap<Container, int>
}

class Container {

    -String containerID <<b>PK>
    -int checkDigit
    -String ISO
    -int gross
    -int tare
    -int payload
    -int maxVolume
    -int repairRecommendation

}

ShipCaptain - -> Company
Company - -> CargoManifest
Company -> Container
CargoManifest -> Container

@enduml

@startuml

class ShipCaptain{

}

class Company{
}

class CargoManifest{
    HashMap<Container, int>
}

class Container {

    -String containerID <<b>PK>
    -int checkDigit
    -String ISO
    -int gross
    -int tare
    -int payload
    -int maxVolume
    -int repairRecommendation

}

ShipCaptain - -> Company
Company - -> CargoManifest
Company -> Container
CargoManifest -> Container

@enduml

PlantUML version 1.2021.11(Sat Oct 02 14:26:11 BST 2021)
(GPL source distribution)
Java Runtime: OpenJDK Runtime Environment
JVM: OpenJDK 64-Bit Server VM
Default Encoding: Cp1252
Language: pt
Country: PT
--></g></svg>