<?xml version="1.0" encoding="UTF-8" standalone="no"?><svg xmlns="http://www.w3.org/2000/svg" xmlns:xlink="http://www.w3.org/1999/xlink" contentScriptType="application/ecmascript" contentStyleType="text/css" height="463px" preserveAspectRatio="none" style="width:1144px;height:463px;background:#FFFFFF;" version="1.1" viewBox="0 0 1144 463" width="1144px" zoomAndPan="magnify"><defs><filter height="300%" id="f11t3wbagol1f" width="300%" x="-1" y="-1"><feGaussianBlur result="blurOut" stdDeviation="2.0"/><feColorMatrix in="blurOut" result="blurOut2" type="matrix" values="0 0 0 0 0 0 0 0 0 0 0 0 0 0 0 0 0 0 .4 0"/><feOffset dx="4.0" dy="4.0" in="blurOut2" result="blurOut3"/><feBlend in="SourceGraphic" in2="blurOut3" mode="normal"/></filter></defs><g><rect fill="#FFFFFF" filter="url(#f11t3wbagol1f)" height="238.3672" style="stroke:#A80036;stroke-width:1.0;" width="10" x="354.5" y="121.9609"/><rect fill="#FFFFFF" filter="url(#f11t3wbagol1f)" height="170.6641" style="stroke:#A80036;stroke-width:1.0;" width="10" x="609.5" y="152.3125"/><rect fill="#FFFFFF" filter="url(#f11t3wbagol1f)" height="140.3125" style="stroke:#A80036;stroke-width:1.0;" width="10" x="823.5" y="182.6641"/><line style="stroke:#A80036;stroke-width:1.0;stroke-dasharray:5.0,5.0;" x1="46" x2="46" y1="89.6094" y2="378.3281"/><line style="stroke:#A80036;stroke-width:1.0;stroke-dasharray:5.0,5.0;" x1="359.5" x2="359.5" y1="89.6094" y2="378.3281"/><line style="stroke:#A80036;stroke-width:1.0;stroke-dasharray:5.0,5.0;" x1="614.5" x2="614.5" y1="89.6094" y2="378.3281"/><line style="stroke:#A80036;stroke-width:1.0;stroke-dasharray:5.0,5.0;" x1="828.5" x2="828.5" y1="89.6094" y2="378.3281"/><line style="stroke:#A80036;stroke-width:1.0;stroke-dasharray:5.0,5.0;" x1="1109.5" x2="1109.5" y1="237.4688" y2="378.3281"/><text fill="#000000" font-family="sans-serif" font-size="14" lengthAdjust="spacing" textLength="77" x="5" y="86.5332">ShipCaptain</text><ellipse cx="46.5" cy="15" fill="#FEFECE" filter="url(#f11t3wbagol1f)" rx="8" ry="8" style="stroke:#A80036;stroke-width:2.0;"/><path d="M46.5,23 L46.5,50 M33.5,31 L59.5,31 M46.5,50 L33.5,65 M46.5,50 L59.5,65 " fill="none" filter="url(#f11t3wbagol1f)" style="stroke:#A80036;stroke-width:2.0;"/><text fill="#000000" font-family="sans-serif" font-size="14" lengthAdjust="spacing" textLength="77" x="5" y="391.8613">ShipCaptain</text><ellipse cx="46.5" cy="404.9375" fill="#FEFECE" filter="url(#f11t3wbagol1f)" rx="8" ry="8" style="stroke:#A80036;stroke-width:2.0;"/><path d="M46.5,412.9375 L46.5,439.9375 M33.5,420.9375 L59.5,420.9375 M46.5,439.9375 L33.5,454.9375 M46.5,439.9375 L59.5,454.9375 " fill="none" filter="url(#f11t3wbagol1f)" style="stroke:#A80036;stroke-width:2.0;"/><rect fill="#FEFECE" filter="url(#f11t3wbagol1f)" height="31.6094" style="stroke:#A80036;stroke-width:1.5;" width="216" x="249.5" y="53"/><text fill="#000000" font-family="sans-serif" font-size="14" lengthAdjust="spacing" textLength="202" x="256.5" y="74.5332">:getListContainerToBeLoadedUI</text><rect fill="#FEFECE" filter="url(#f11t3wbagol1f)" height="31.6094" style="stroke:#A80036;stroke-width:1.5;" width="216" x="249.5" y="377.3281"/><text fill="#000000" font-family="sans-serif" font-size="14" lengthAdjust="spacing" textLength="202" x="256.5" y="398.8613">:getListContainerToBeLoadedUI</text><rect fill="#FEFECE" filter="url(#f11t3wbagol1f)" height="31.6094" style="stroke:#A80036;stroke-width:1.5;" width="266" x="479.5" y="53"/><text fill="#000000" font-family="sans-serif" font-size="14" lengthAdjust="spacing" textLength="252" x="486.5" y="74.5332">:getListContainerToBeLoadedController</text><rect fill="#FEFECE" filter="url(#f11t3wbagol1f)" height="31.6094" style="stroke:#A80036;stroke-width:1.5;" width="266" x="479.5" y="377.3281"/><text fill="#000000" font-family="sans-serif" font-size="14" lengthAdjust="spacing" textLength="252" x="486.5" y="398.8613">:getListContainerToBeLoadedController</text><rect fill="#FEFECE" filter="url(#f11t3wbagol1f)" height="31.6094" style="stroke:#A80036;stroke-width:1.5;" width="78" x="787.5" y="53"/><text fill="#000000" font-family="sans-serif" font-size="14" lengthAdjust="spacing" textLength="64" x="794.5" y="74.5332">:Company</text><rect fill="#FEFECE" filter="url(#f11t3wbagol1f)" height="31.6094" style="stroke:#A80036;stroke-width:1.5;" width="78" x="787.5" y="377.3281"/><text fill="#000000" font-family="sans-serif" font-size="14" lengthAdjust="spacing" textLength="64" x="794.5" y="398.8613">:Company</text><text fill="#000000" font-family="sans-serif" font-size="14" lengthAdjust="spacing" textLength="62" x="1075.5" y="391.8613">DataBase</text><path d="M1091.5,404.9375 C1091.5,394.9375 1109.5,394.9375 1109.5,394.9375 C1109.5,394.9375 1127.5,394.9375 1127.5,404.9375 L1127.5,430.9375 C1127.5,440.9375 1109.5,440.9375 1109.5,440.9375 C1109.5,440.9375 1091.5,440.9375 1091.5,430.9375 L1091.5,404.9375 " fill="#FEFECE" filter="url(#f11t3wbagol1f)" style="stroke:#000000;stroke-width:1.5;"/><path d="M1091.5,404.9375 C1091.5,414.9375 1109.5,414.9375 1109.5,414.9375 C1109.5,414.9375 1127.5,414.9375 1127.5,404.9375 " fill="none" style="stroke:#000000;stroke-width:1.5;"/><rect fill="#FFFFFF" filter="url(#f11t3wbagol1f)" height="238.3672" style="stroke:#A80036;stroke-width:1.0;" width="10" x="354.5" y="121.9609"/><rect fill="#FFFFFF" filter="url(#f11t3wbagol1f)" height="170.6641" style="stroke:#A80036;stroke-width:1.0;" width="10" x="609.5" y="152.3125"/><rect fill="#FFFFFF" filter="url(#f11t3wbagol1f)" height="140.3125" style="stroke:#A80036;stroke-width:1.0;" width="10" x="823.5" y="182.6641"/><polygon fill="#A80036" points="342.5,117.9609,352.5,121.9609,342.5,125.9609,346.5,121.9609" style="stroke:#A80036;stroke-width:1.0;"/><line style="stroke:#A80036;stroke-width:1.0;" x1="46.5" x2="348.5" y1="121.9609" y2="121.9609"/><text fill="#000000" font-family="sans-serif" font-size="13" font-weight="bold" lengthAdjust="spacing" textLength="7" x="53.5" y="117.1045">1</text><text fill="#000000" font-family="sans-serif" font-size="13" lengthAdjust="spacing" textLength="278" x="64.5" y="117.1045">List of containers to be offloaded in the next port</text><polygon fill="#A80036" points="597.5,148.3125,607.5,152.3125,597.5,156.3125,601.5,152.3125" style="stroke:#A80036;stroke-width:1.0;"/><line style="stroke:#A80036;stroke-width:1.0;" x1="364.5" x2="603.5" y1="152.3125" y2="152.3125"/><text fill="#000000" font-family="sans-serif" font-size="13" font-weight="bold" lengthAdjust="spacing" textLength="7" x="371.5" y="147.4561">2</text><text fill="#000000" font-family="sans-serif" font-size="13" lengthAdjust="spacing" textLength="174" x="382.5" y="147.4561">getListContainerToBeLoaded()</text><polygon fill="#A80036" points="811.5,178.6641,821.5,182.6641,811.5,186.6641,815.5,182.6641" style="stroke:#A80036;stroke-width:1.0;"/><line style="stroke:#A80036;stroke-width:1.0;" x1="619.5" x2="817.5" y1="182.6641" y2="182.6641"/><text fill="#000000" font-family="sans-serif" font-size="13" font-weight="bold" lengthAdjust="spacing" textLength="7" x="626.5" y="177.8076">3</text><text fill="#000000" font-family="sans-serif" font-size="13" lengthAdjust="spacing" textLength="174" x="637.5" y="177.8076">getListContainerToBeLoaded()</text><polygon fill="#A80036" points="1063.5,209.0156,1073.5,213.0156,1063.5,217.0156,1067.5,213.0156" style="stroke:#A80036;stroke-width:1.0;"/><line style="stroke:#A80036;stroke-width:1.0;" x1="833.5" x2="1069.5" y1="213.0156" y2="213.0156"/><text fill="#000000" font-family="sans-serif" font-size="13" font-weight="bold" lengthAdjust="spacing" textLength="7" x="840.5" y="208.1592">4</text><text fill="#000000" font-family="sans-serif" font-size="13" lengthAdjust="spacing" textLength="207" x="851.5" y="208.1592">getShipsListContainerToBeLoaded()</text><text fill="#000000" font-family="sans-serif" font-size="14" lengthAdjust="spacing" textLength="62" x="1075.5" y="251.1973">DataBase</text><path d="M1091.5,200.6641 C1091.5,190.6641 1109.5,190.6641 1109.5,190.6641 C1109.5,190.6641 1127.5,190.6641 1127.5,200.6641 L1127.5,226.6641 C1127.5,236.6641 1109.5,236.6641 1109.5,236.6641 C1109.5,236.6641 1091.5,236.6641 1091.5,226.6641 L1091.5,200.6641 " fill="#FEFECE" filter="url(#f11t3wbagol1f)" style="stroke:#000000;stroke-width:1.5;"/><path d="M1091.5,200.6641 C1091.5,210.6641 1109.5,210.6641 1109.5,210.6641 C1109.5,210.6641 1127.5,210.6641 1127.5,200.6641 " fill="none" style="stroke:#000000;stroke-width:1.5;"/><polygon fill="#A80036" points="1097.5,282.625,1107.5,286.625,1097.5,290.625,1101.5,286.625" style="stroke:#A80036;stroke-width:1.0;"/><line style="stroke:#A80036;stroke-width:1.0;" x1="833.5" x2="1103.5" y1="286.625" y2="286.625"/><text fill="#000000" font-family="sans-serif" font-size="13" font-weight="bold" lengthAdjust="spacing" textLength="7" x="840.5" y="281.7686">5</text><text fill="#000000" font-family="sans-serif" font-size="13" lengthAdjust="spacing" textLength="205" x="851.5" y="281.7686">getPortsListContainerToBeLoaded()</text><line style="stroke:#A80036;stroke-width:1.0;" x1="833.5" x2="875.5" y1="321.9766" y2="321.9766"/><line style="stroke:#A80036;stroke-width:1.0;" x1="875.5" x2="875.5" y1="321.9766" y2="334.9766"/><line style="stroke:#A80036;stroke-width:1.0;" x1="828.5" x2="875.5" y1="334.9766" y2="334.9766"/><polygon fill="#A80036" points="838.5,330.9766,828.5,334.9766,838.5,338.9766,834.5,334.9766" style="stroke:#A80036;stroke-width:1.0;"/><text fill="#000000" font-family="sans-serif" font-size="13" font-weight="bold" lengthAdjust="spacing" textLength="7" x="840.5" y="317.1201">6</text><text fill="#000000" font-family="sans-serif" font-size="13" lengthAdjust="spacing" textLength="174" x="851.5" y="317.1201">getListContainerToBeLoaded()</text><polygon fill="#A80036" points="57.5,356.3281,47.5,360.3281,57.5,364.3281,53.5,360.3281" style="stroke:#A80036;stroke-width:1.0;"/><line style="stroke:#A80036;stroke-width:1.0;stroke-dasharray:2.0,2.0;" x1="51.5" x2="358.5" y1="360.3281" y2="360.3281"/><text fill="#000000" font-family="sans-serif" font-size="13" font-weight="bold" lengthAdjust="spacing" textLength="7" x="63.5" y="355.4717">7</text><text fill="#000000" font-family="sans-serif" font-size="13" lengthAdjust="spacing" textLength="79" x="74.5" y="355.4717">listContainers</text><!--MD5=[5a9e0bf204f6f7c61b184d94e94f181a]
@startuml
'https://plantuml.com/sequence-diagram

autonumber

actor       ShipCaptain                as SC
participant    ":getListContainerToBeLoadedUI"         as ui
participant    ":getListContainerToBeLoadedController" as ctrl
participant    ":Company"                 as company
database       "DataBase"              as db

SC -> ui : List of containers to be offloaded in the next port

activate ui

    ui -> ctrl : getListContainerToBeLoaded()

    activate ctrl

    ctrl -> company : getListContainerToBeLoaded()

    activate company

    company -> db** : getShipsListContainerToBeLoaded()

    company -> db : getPortsListContainerToBeLoaded()

    company -> company : getListContainerToBeLoaded()

    deactivate company

    deactivate ctrl


ui - -> SC : listContainers

deactivate ui
@enduml

@startuml

autonumber

actor       ShipCaptain                as SC
participant    ":getListContainerToBeLoadedUI"         as ui
participant    ":getListContainerToBeLoadedController" as ctrl
participant    ":Company"                 as company
database       "DataBase"              as db

SC -> ui : List of containers to be offloaded in the next port

activate ui

    ui -> ctrl : getListContainerToBeLoaded()

    activate ctrl

    ctrl -> company : getListContainerToBeLoaded()

    activate company

    company -> db** : getShipsListContainerToBeLoaded()

    company -> db : getPortsListContainerToBeLoaded()

    company -> company : getListContainerToBeLoaded()

    deactivate company

    deactivate ctrl


ui - -> SC : listContainers

deactivate ui
@enduml

PlantUML version 1.2021.11(Sat Oct 02 14:26:11 BST 2021)
(GPL source distribution)
Java Runtime: OpenJDK Runtime Environment
JVM: OpenJDK 64-Bit Server VM
Default Encoding: Cp1252
Language: pt
Country: PT
--></g></svg>