<?xml version="1.0" encoding="UTF-8" standalone="no"?><svg xmlns="http://www.w3.org/2000/svg" xmlns:xlink="http://www.w3.org/1999/xlink" contentScriptType="application/ecmascript" contentStyleType="text/css" height="395px" preserveAspectRatio="none" style="width:171px;height:395px;background:#FFFFFF;" version="1.1" viewBox="0 0 171 395" width="171px" zoomAndPan="magnify"><defs><filter height="300%" id="f1w7xojs2trtn2" width="300%" x="-1" y="-1"><feGaussianBlur result="blurOut" stdDeviation="2.0"/><feColorMatrix in="blurOut" result="blurOut2" type="matrix" values="0 0 0 0 0 0 0 0 0 0 0 0 0 0 0 0 0 0 .4 0"/><feOffset dx="4.0" dy="4.0" in="blurOut2" result="blurOut3"/><feBlend in="SourceGraphic" in2="blurOut3" mode="normal"/></filter></defs><g><!--MD5=[e6b394b930674b2255938b8afe6bb7b4]
class ShipCaptain--><rect codeLine="4" fill="#FEFECE" filter="url(#f1w7xojs2trtn2)" height="48" id="ShipCaptain" style="stroke:#A80036;stroke-width:1.5;" width="100" x="32" y="7"/><ellipse cx="47" cy="23" fill="#ADD1B2" rx="11" ry="11" style="stroke:#A80036;stroke-width:1.0;"/><path d="M49,19.5 Q49.2031,19 49.4375,18.75 Q49.6719,18.5 49.9375,18.5 Q50.4063,18.5 50.7031,18.7813 Q51,19.0625 51,19.7188 L51,21.2813 Q51,21.9375 50.7188,22.2188 Q50.4375,22.5 50,22.5 Q49.6094,22.5 49.3594,22.3281 Q49.1094,22.1563 49,21.7031 Q48.9531,21.3906 48.7813,21.2188 Q48.4688,20.8906 47.9063,20.7031 Q47.3438,20.5 46.7813,20.5 Q46.0781,20.5 45.4844,20.7813 Q44.9063,21.0625 44.4531,21.6875 Q44,22.3125 44,23.1719 L44,24.0938 Q44,25.125 44.8438,25.8125 Q45.6875,26.5 47.1875,26.5 Q48.0781,26.5 48.7031,26.2969 Q49.0625,26.1875 49.4688,25.8281 Q49.7344,25.625 49.875,25.5625 Q50.0156,25.5 50.1875,25.5 Q50.5156,25.5 50.75,25.7656 Q51,26.0156 51,26.375 Q51,26.7188 50.6563,27.125 Q50.1563,27.7188 49.3594,28.0469 Q48.3125,28.5 47.0313,28.5 Q45.5313,28.5 44.3281,27.9063 Q43.3594,27.4375 42.6719,26.4219 Q42,25.4063 42,24.2031 L42,23.1094 Q42,21.8594 42.5938,20.7656 Q43.2031,19.6719 44.25,19.0938 Q45.3125,18.5 46.5,18.5 Q47.2188,18.5 47.8438,18.75 Q48.4688,19 49,19.5 Z " fill="#000000"/><text fill="#000000" font-family="sans-serif" font-size="12" lengthAdjust="spacing" textLength="68" x="61" y="27.9102">ShipCaptain</text><line style="stroke:#A80036;stroke-width:1.5;" x1="33" x2="131" y1="39" y2="39"/><line style="stroke:#A80036;stroke-width:1.5;" x1="33" x2="131" y1="47" y2="47"/><!--MD5=[02e4b9b7573f1156f41e60aa5b4e25a4]
class Company--><rect codeLine="8" fill="#FEFECE" filter="url(#f1w7xojs2trtn2)" height="48" id="Company" style="stroke:#A80036;stroke-width:1.5;" width="85" x="39.5" y="115"/><ellipse cx="54.5" cy="131" fill="#ADD1B2" rx="11" ry="11" style="stroke:#A80036;stroke-width:1.0;"/><path d="M56.5,127.5 Q56.7031,127 56.9375,126.75 Q57.1719,126.5 57.4375,126.5 Q57.9063,126.5 58.2031,126.7813 Q58.5,127.0625 58.5,127.7188 L58.5,129.2813 Q58.5,129.9375 58.2188,130.2188 Q57.9375,130.5 57.5,130.5 Q57.1094,130.5 56.8594,130.3281 Q56.6094,130.1563 56.5,129.7031 Q56.4531,129.3906 56.2813,129.2188 Q55.9688,128.8906 55.4063,128.7031 Q54.8438,128.5 54.2813,128.5 Q53.5781,128.5 52.9844,128.7813 Q52.4063,129.0625 51.9531,129.6875 Q51.5,130.3125 51.5,131.1719 L51.5,132.0938 Q51.5,133.125 52.3438,133.8125 Q53.1875,134.5 54.6875,134.5 Q55.5781,134.5 56.2031,134.2969 Q56.5625,134.1875 56.9688,133.8281 Q57.2344,133.625 57.375,133.5625 Q57.5156,133.5 57.6875,133.5 Q58.0156,133.5 58.25,133.7656 Q58.5,134.0156 58.5,134.375 Q58.5,134.7188 58.1563,135.125 Q57.6563,135.7188 56.8594,136.0469 Q55.8125,136.5 54.5313,136.5 Q53.0313,136.5 51.8281,135.9063 Q50.8594,135.4375 50.1719,134.4219 Q49.5,133.4063 49.5,132.2031 L49.5,131.1094 Q49.5,129.8594 50.0938,128.7656 Q50.7031,127.6719 51.75,127.0938 Q52.8125,126.5 54,126.5 Q54.7188,126.5 55.3438,126.75 Q55.9688,127 56.5,127.5 Z " fill="#000000"/><text fill="#000000" font-family="sans-serif" font-size="12" lengthAdjust="spacing" textLength="53" x="68.5" y="135.9102">Company</text><line style="stroke:#A80036;stroke-width:1.5;" x1="40.5" x2="123.5" y1="147" y2="147"/><line style="stroke:#A80036;stroke-width:1.5;" x1="40.5" x2="123.5" y1="155" y2="155"/><!--MD5=[e9a58730c562b34349daa605d1ed6662]
class Container--><rect codeLine="10" fill="#FEFECE" filter="url(#f1w7xojs2trtn2)" height="158.6875" id="Container" style="stroke:#A80036;stroke-width:1.5;" width="150" x="7" y="223"/><ellipse cx="50.8" cy="239" fill="#ADD1B2" rx="11" ry="11" style="stroke:#A80036;stroke-width:1.0;"/><path d="M52.8,235.5 Q53.0031,235 53.2375,234.75 Q53.4719,234.5 53.7375,234.5 Q54.2063,234.5 54.5031,234.7813 Q54.8,235.0625 54.8,235.7188 L54.8,237.2813 Q54.8,237.9375 54.5188,238.2188 Q54.2375,238.5 53.8,238.5 Q53.4094,238.5 53.1594,238.3281 Q52.9094,238.1563 52.8,237.7031 Q52.7531,237.3906 52.5813,237.2188 Q52.2688,236.8906 51.7063,236.7031 Q51.1438,236.5 50.5813,236.5 Q49.8781,236.5 49.2844,236.7813 Q48.7063,237.0625 48.2531,237.6875 Q47.8,238.3125 47.8,239.1719 L47.8,240.0938 Q47.8,241.125 48.6438,241.8125 Q49.4875,242.5 50.9875,242.5 Q51.8781,242.5 52.5031,242.2969 Q52.8625,242.1875 53.2688,241.8281 Q53.5344,241.625 53.675,241.5625 Q53.8156,241.5 53.9875,241.5 Q54.3156,241.5 54.55,241.7656 Q54.8,242.0156 54.8,242.375 Q54.8,242.7188 54.4563,243.125 Q53.9563,243.7188 53.1594,244.0469 Q52.1125,244.5 50.8313,244.5 Q49.3313,244.5 48.1281,243.9063 Q47.1594,243.4375 46.4719,242.4219 Q45.8,241.4063 45.8,240.2031 L45.8,239.1094 Q45.8,237.8594 46.3938,236.7656 Q47.0031,235.6719 48.05,235.0938 Q49.1125,234.5 50.3,234.5 Q51.0188,234.5 51.6438,234.75 Q52.2688,235 52.8,235.5 Z " fill="#000000"/><text fill="#000000" font-family="sans-serif" font-size="12" lengthAdjust="spacing" textLength="54" x="71.2" y="243.9102">Container</text><line style="stroke:#A80036;stroke-width:1.5;" x1="8" x2="156" y1="255" y2="255"/><rect fill="none" height="6" style="stroke:#C82930;stroke-width:1.0;" width="6" x="15" y="263"/><text fill="#000000" font-family="sans-serif" font-size="11" lengthAdjust="spacing" textLength="94" x="27" y="270.4189">String containerID &lt;</text><text fill="#000000" font-family="sans-serif" font-size="11" font-weight="bold" lengthAdjust="spacing" textLength="20" x="121" y="270.4189">PK&gt;</text><rect fill="none" height="6" style="stroke:#C82930;stroke-width:1.0;" width="6" x="15" y="276.8359"/><text fill="#000000" font-family="sans-serif" font-size="11" lengthAdjust="spacing" textLength="63" x="27" y="284.2549">int checkDigit</text><rect fill="none" height="6" style="stroke:#C82930;stroke-width:1.0;" width="6" x="15" y="290.6719"/><text fill="#000000" font-family="sans-serif" font-size="11" lengthAdjust="spacing" textLength="48" x="27" y="298.0908">String ISO</text><rect fill="none" height="6" style="stroke:#C82930;stroke-width:1.0;" width="6" x="15" y="304.5078"/><text fill="#000000" font-family="sans-serif" font-size="11" lengthAdjust="spacing" textLength="42" x="27" y="311.9268">int gross</text><rect fill="none" height="6" style="stroke:#C82930;stroke-width:1.0;" width="6" x="15" y="318.3438"/><text fill="#000000" font-family="sans-serif" font-size="11" lengthAdjust="spacing" textLength="33" x="27" y="325.7627">int tare</text><rect fill="none" height="6" style="stroke:#C82930;stroke-width:1.0;" width="6" x="15" y="332.1797"/><text fill="#000000" font-family="sans-serif" font-size="11" lengthAdjust="spacing" textLength="52" x="27" y="339.5986">int payload</text><rect fill="none" height="6" style="stroke:#C82930;stroke-width:1.0;" width="6" x="15" y="346.0156"/><text fill="#000000" font-family="sans-serif" font-size="11" lengthAdjust="spacing" textLength="70" x="27" y="353.4346">int maxVolume</text><rect fill="none" height="6" style="stroke:#C82930;stroke-width:1.0;" width="6" x="15" y="359.8516"/><text fill="#000000" font-family="sans-serif" font-size="11" lengthAdjust="spacing" textLength="124" x="27" y="367.2705">int repairRecommendation</text><line style="stroke:#A80036;stroke-width:1.5;" x1="8" x2="156" y1="373.6875" y2="373.6875"/><!--MD5=[9a31db71f2c3551e63ef1cc9b9b88927]
link ShipCaptain to Company--><path codeLine="23" d="M82,55 C82,71 82,92.45 82,109.53 " fill="none" id="ShipCaptain-to-Company" style="stroke:#A80036;stroke-width:1.0;"/><polygon fill="#A80036" points="82,114.68,86,105.68,82,109.68,78,105.68,82,114.68" style="stroke:#A80036;stroke-width:1.0;"/><!--MD5=[295d4b4de4cbb626f52b0a8946e3bb6c]
link Company to Container--><path codeLine="24" d="M82,163.14 C82,177.77 82,197.67 82,217.82 " fill="none" id="Company-to-Container" style="stroke:#A80036;stroke-width:1.0;"/><polygon fill="#A80036" points="82,222.94,86,213.94,82,217.94,78,213.94,82,222.94" style="stroke:#A80036;stroke-width:1.0;"/><!--MD5=[49765faa1a1f5b15522cecdd1d2a9ad5]
@startuml
'https://plantuml.com/class-diagram


class ShipCaptain{

}

class Company{
}
class Container {

    -String containerID <<b>PK>
    -int checkDigit
    -String ISO
    -int gross
    -int tare
    -int payload
    -int maxVolume
    -int repairRecommendation

}

ShipCaptain - -> Company
Company - -> Container

@enduml

@startuml


class ShipCaptain{

}

class Company{
}
class Container {

    -String containerID <<b>PK>
    -int checkDigit
    -String ISO
    -int gross
    -int tare
    -int payload
    -int maxVolume
    -int repairRecommendation

}

ShipCaptain - -> Company
Company - -> Container

@enduml

PlantUML version 1.2021.11(Sat Oct 02 14:26:11 BST 2021)
(GPL source distribution)
Java Runtime: OpenJDK Runtime Environment
JVM: OpenJDK 64-Bit Server VM
Default Encoding: Cp1252
Language: pt
Country: PT
--></g></svg>