<?xml version="1.0" encoding="UTF-8" standalone="no"?><svg xmlns="http://www.w3.org/2000/svg" xmlns:xlink="http://www.w3.org/1999/xlink" contentScriptType="application/ecmascript" contentStyleType="text/css" height="92px" preserveAspectRatio="none" style="width:721px;height:92px;background:#FFFFFF;" version="1.1" viewBox="0 0 721 92" width="721px" zoomAndPan="magnify"><defs><filter height="300%" id="fm6orfqlm0d4c" width="300%" x="-1" y="-1"><feGaussianBlur result="blurOut" stdDeviation="2.0"/><feColorMatrix in="blurOut" result="blurOut2" type="matrix" values="0 0 0 0 0 0 0 0 0 0 0 0 0 0 0 0 0 0 .4 0"/><feOffset dx="4.0" dy="4.0" in="blurOut2" result="blurOut3"/><feBlend in="SourceGraphic" in2="blurOut3" mode="normal"/></filter></defs><g><!--MD5=[97ab183161fd5d1db7fba7485cf76add]
entity Admin--><ellipse cx="42.5" cy="14" fill="#FEFECE" filter="url(#fm6orfqlm0d4c)" rx="8" ry="8" style="stroke:#A80036;stroke-width:1.5;"/><path d="M42.5,22 L42.5,49 M29.5,30 L55.5,30 M42.5,49 L29.5,64 M42.5,49 L55.5,64 " fill="none" filter="url(#fm6orfqlm0d4c)" style="stroke:#A80036;stroke-width:1.5;"/><text fill="#000000" font-family="sans-serif" font-size="14" lengthAdjust="spacing" textLength="73" x="6" y="84.0332">Main Admin</text><!--MD5=[566a1df68487c1fb1cc09ccf1a09a80e]
entity TrafficManager--><ellipse cx="349.5" cy="14" fill="#FEFECE" filter="url(#fm6orfqlm0d4c)" rx="8" ry="8" style="stroke:#A80036;stroke-width:1.5;"/><path d="M349.5,22 L349.5,49 M336.5,30 L362.5,30 M349.5,49 L336.5,64 M349.5,49 L362.5,64 " fill="none" filter="url(#fm6orfqlm0d4c)" style="stroke:#A80036;stroke-width:1.5;"/><text fill="#000000" font-family="sans-serif" font-size="14" lengthAdjust="spacing" textLength="100" x="299.5" y="84.0332">Traffic Manager</text><ellipse cx="189.7256" cy="45.9451" fill="#FEFECE" filter="url(#fm6orfqlm0d4c)" rx="75.2256" ry="17.4451" style="stroke:#A80036;stroke-width:1.5;"/><text fill="#000000" font-family="sans-serif" font-size="14" lengthAdjust="spacing" textLength="102" x="135.7256" y="50.4617">Regist new Staff</text><ellipse cx="572.4086" cy="45.8817" fill="#FEFECE" filter="url(#fm6orfqlm0d4c)" rx="137.4086" ry="29.8817" style="stroke:#A80036;stroke-width:1.5;"/><text fill="#000000" font-family="sans-serif" font-size="14" lengthAdjust="spacing" textLength="186" x="474.4086" y="41.5936">I wish to colour the map using</text><text fill="#000000" font-family="sans-serif" font-size="14" lengthAdjust="spacing" textLength="165" x="488.9086" y="59.203">as few colours as possible</text><!--MD5=[e7a0d0f4fa0cf58bcb7420c86b20f03c]
link Admin to Regist new Staff--><path d="M79.25,46 C89.15,46 99.05,46 108.96,46 " fill="none" id="Admin-to-Regist new Staff" style="stroke:#A80036;stroke-width:1.0;"/><polygon fill="#A80036" points="114.13,46,105.13,42,109.13,46,105.13,50,114.13,46" style="stroke:#A80036;stroke-width:1.0;"/><!--MD5=[d7801e91f43e5823ea9815cc17b0cd96]
link TrafficManager to I wish to colour the map using \n as few colours as possible--><path d="M399.59,46 C409.56,46 419.53,46 429.5,46 " fill="none" id="TrafficManager-to-I wish to colour the map using \n as few colours as possible" style="stroke:#A80036;stroke-width:1.0;"/><polygon fill="#A80036" points="434.71,46,425.71,42,429.71,46,425.71,50,434.71,46" style="stroke:#A80036;stroke-width:1.0;"/><!--MD5=[b3352695b4c6b062b5ed7bf32d3bb247]
@startuml
'https://plantuml.com/use-case-diagram

:Main Admin: as Admin
:Traffic Manager: as TrafficManager

Admin -> (Regist new Staff)
TrafficManager -> (I wish to colour the map using \n as few colours as possible)
@enduml

@startuml

:Main Admin: as Admin
:Traffic Manager: as TrafficManager

Admin -> (Regist new Staff)
TrafficManager -> (I wish to colour the map using \n as few colours as possible)
@enduml

PlantUML version 1.2021.11(Sat Oct 02 14:26:11 BST 2021)
(GPL source distribution)
Java Runtime: OpenJDK Runtime Environment
JVM: OpenJDK 64-Bit Server VM
Default Encoding: Cp1252
Language: pt
Country: PT
--></g></svg>