<?xml version="1.0" encoding="UTF-8" standalone="no"?><svg xmlns="http://www.w3.org/2000/svg" xmlns:xlink="http://www.w3.org/1999/xlink" contentScriptType="application/ecmascript" contentStyleType="text/css" height="517px" preserveAspectRatio="none" style="width:186px;height:517px;background:#FFFFFF;" version="1.1" viewBox="0 0 186 517" width="186px" zoomAndPan="magnify"><defs><filter height="300%" id="f15gfv69sf6429" width="300%" x="-1" y="-1"><feGaussianBlur result="blurOut" stdDeviation="2.0"/><feColorMatrix in="blurOut" result="blurOut2" type="matrix" values="0 0 0 0 0 0 0 0 0 0 0 0 0 0 0 0 0 0 .4 0"/><feOffset dx="4.0" dy="4.0" in="blurOut2" result="blurOut3"/><feBlend in="SourceGraphic" in2="blurOut3" mode="normal"/></filter></defs><g><!--MD5=[ddaf6f62b0bc30921877ec9fb9463c9f]
class TrafficManager--><rect codeLine="3" fill="#FEFECE" filter="url(#f15gfv69sf6429)" height="48" id="TrafficManager" style="stroke:#A80036;stroke-width:1.5;" width="113" x="59.5" y="7"/><ellipse cx="74.5" cy="23" fill="#ADD1B2" rx="11" ry="11" style="stroke:#A80036;stroke-width:1.0;"/><path d="M76.5,19.5 Q76.7031,19 76.9375,18.75 Q77.1719,18.5 77.4375,18.5 Q77.9063,18.5 78.2031,18.7813 Q78.5,19.0625 78.5,19.7188 L78.5,21.2813 Q78.5,21.9375 78.2188,22.2188 Q77.9375,22.5 77.5,22.5 Q77.1094,22.5 76.8594,22.3281 Q76.6094,22.1563 76.5,21.7031 Q76.4531,21.3906 76.2813,21.2188 Q75.9688,20.8906 75.4063,20.7031 Q74.8438,20.5 74.2813,20.5 Q73.5781,20.5 72.9844,20.7813 Q72.4063,21.0625 71.9531,21.6875 Q71.5,22.3125 71.5,23.1719 L71.5,24.0938 Q71.5,25.125 72.3438,25.8125 Q73.1875,26.5 74.6875,26.5 Q75.5781,26.5 76.2031,26.2969 Q76.5625,26.1875 76.9688,25.8281 Q77.2344,25.625 77.375,25.5625 Q77.5156,25.5 77.6875,25.5 Q78.0156,25.5 78.25,25.7656 Q78.5,26.0156 78.5,26.375 Q78.5,26.7188 78.1563,27.125 Q77.6563,27.7188 76.8594,28.0469 Q75.8125,28.5 74.5313,28.5 Q73.0313,28.5 71.8281,27.9063 Q70.8594,27.4375 70.1719,26.4219 Q69.5,25.4063 69.5,24.2031 L69.5,23.1094 Q69.5,21.8594 70.0938,20.7656 Q70.7031,19.6719 71.75,19.0938 Q72.8125,18.5 74,18.5 Q74.7188,18.5 75.3438,18.75 Q75.9688,19 76.5,19.5 Z " fill="#000000"/><text fill="#000000" font-family="sans-serif" font-size="12" lengthAdjust="spacing" textLength="81" x="88.5" y="27.9102">TrafficManager</text><line style="stroke:#A80036;stroke-width:1.5;" x1="60.5" x2="171.5" y1="39" y2="39"/><line style="stroke:#A80036;stroke-width:1.5;" x1="60.5" x2="171.5" y1="47" y2="47"/><!--MD5=[02e4b9b7573f1156f41e60aa5b4e25a4]
class Company--><rect codeLine="6" fill="#FEFECE" filter="url(#f15gfv69sf6429)" height="48" id="Company" style="stroke:#A80036;stroke-width:1.5;" width="85" x="73.5" y="115"/><ellipse cx="88.5" cy="131" fill="#ADD1B2" rx="11" ry="11" style="stroke:#A80036;stroke-width:1.0;"/><path d="M90.5,127.5 Q90.7031,127 90.9375,126.75 Q91.1719,126.5 91.4375,126.5 Q91.9063,126.5 92.2031,126.7813 Q92.5,127.0625 92.5,127.7188 L92.5,129.2813 Q92.5,129.9375 92.2188,130.2188 Q91.9375,130.5 91.5,130.5 Q91.1094,130.5 90.8594,130.3281 Q90.6094,130.1563 90.5,129.7031 Q90.4531,129.3906 90.2813,129.2188 Q89.9688,128.8906 89.4063,128.7031 Q88.8438,128.5 88.2813,128.5 Q87.5781,128.5 86.9844,128.7813 Q86.4063,129.0625 85.9531,129.6875 Q85.5,130.3125 85.5,131.1719 L85.5,132.0938 Q85.5,133.125 86.3438,133.8125 Q87.1875,134.5 88.6875,134.5 Q89.5781,134.5 90.2031,134.2969 Q90.5625,134.1875 90.9688,133.8281 Q91.2344,133.625 91.375,133.5625 Q91.5156,133.5 91.6875,133.5 Q92.0156,133.5 92.25,133.7656 Q92.5,134.0156 92.5,134.375 Q92.5,134.7188 92.1563,135.125 Q91.6563,135.7188 90.8594,136.0469 Q89.8125,136.5 88.5313,136.5 Q87.0313,136.5 85.8281,135.9063 Q84.8594,135.4375 84.1719,134.4219 Q83.5,133.4063 83.5,132.2031 L83.5,131.1094 Q83.5,129.8594 84.0938,128.7656 Q84.7031,127.6719 85.75,127.0938 Q86.8125,126.5 88,126.5 Q88.7188,126.5 89.3438,126.75 Q89.9688,127 90.5,127.5 Z " fill="#000000"/><text fill="#000000" font-family="sans-serif" font-size="12" lengthAdjust="spacing" textLength="53" x="102.5" y="135.9102">Company</text><line style="stroke:#A80036;stroke-width:1.5;" x1="74.5" x2="157.5" y1="147" y2="147"/><line style="stroke:#A80036;stroke-width:1.5;" x1="74.5" x2="157.5" y1="155" y2="155"/><!--MD5=[029a9622b6334d2e15eb51038dca3aec]
class country--><rect codeLine="10" fill="#FEFECE" filter="url(#f15gfv69sf6429)" height="131.0156" id="country" style="stroke:#A80036;stroke-width:1.5;" width="110" x="7" y="223"/><ellipse cx="39.55" cy="239" fill="#ADD1B2" rx="11" ry="11" style="stroke:#A80036;stroke-width:1.0;"/><path d="M41.55,235.5 Q41.7531,235 41.9875,234.75 Q42.2219,234.5 42.4875,234.5 Q42.9563,234.5 43.2531,234.7813 Q43.55,235.0625 43.55,235.7188 L43.55,237.2813 Q43.55,237.9375 43.2688,238.2188 Q42.9875,238.5 42.55,238.5 Q42.1594,238.5 41.9094,238.3281 Q41.6594,238.1563 41.55,237.7031 Q41.5031,237.3906 41.3313,237.2188 Q41.0188,236.8906 40.4563,236.7031 Q39.8938,236.5 39.3313,236.5 Q38.6281,236.5 38.0344,236.7813 Q37.4563,237.0625 37.0031,237.6875 Q36.55,238.3125 36.55,239.1719 L36.55,240.0938 Q36.55,241.125 37.3938,241.8125 Q38.2375,242.5 39.7375,242.5 Q40.6281,242.5 41.2531,242.2969 Q41.6125,242.1875 42.0188,241.8281 Q42.2844,241.625 42.425,241.5625 Q42.5656,241.5 42.7375,241.5 Q43.0656,241.5 43.3,241.7656 Q43.55,242.0156 43.55,242.375 Q43.55,242.7188 43.2063,243.125 Q42.7063,243.7188 41.9094,244.0469 Q40.8625,244.5 39.5813,244.5 Q38.0813,244.5 36.8781,243.9063 Q35.9094,243.4375 35.2219,242.4219 Q34.55,241.4063 34.55,240.2031 L34.55,239.1094 Q34.55,237.8594 35.1438,236.7656 Q35.7531,235.6719 36.8,235.0938 Q37.8625,234.5 39.05,234.5 Q39.7688,234.5 40.3938,234.75 Q41.0188,235 41.55,235.5 Z " fill="#000000"/><text fill="#000000" font-family="sans-serif" font-size="12" lengthAdjust="spacing" textLength="39" x="57.45" y="243.9102">country</text><line style="stroke:#A80036;stroke-width:1.5;" x1="8" x2="116" y1="255" y2="255"/><rect fill="none" height="6" style="stroke:#C82930;stroke-width:1.0;" width="6" x="15" y="263"/><text fill="#000000" font-family="sans-serif" font-size="11" lengthAdjust="spacing" textLength="75" x="27" y="270.4189">String continent</text><rect fill="none" height="6" style="stroke:#C82930;stroke-width:1.0;" width="6" x="15" y="276.8359"/><text fill="#000000" font-family="sans-serif" font-size="11" lengthAdjust="spacing" textLength="63" x="27" y="284.2549">String alpha2</text><rect fill="none" height="6" style="stroke:#C82930;stroke-width:1.0;" width="6" x="15" y="290.6719"/><text fill="#000000" font-family="sans-serif" font-size="11" lengthAdjust="spacing" textLength="63" x="27" y="298.0908">String alpha3</text><rect fill="none" height="6" style="stroke:#C82930;stroke-width:1.0;" width="6" x="15" y="304.5078"/><text fill="#000000" font-family="sans-serif" font-size="11" lengthAdjust="spacing" textLength="57" x="27" y="311.9268">String name</text><rect fill="none" height="6" style="stroke:#C82930;stroke-width:1.0;" width="6" x="15" y="318.3438"/><text fill="#000000" font-family="sans-serif" font-size="11" lengthAdjust="spacing" textLength="84" x="27" y="325.7627">double population</text><rect fill="none" height="6" style="stroke:#C82930;stroke-width:1.0;" width="6" x="15" y="332.1797"/><text fill="#000000" font-family="sans-serif" font-size="11" lengthAdjust="spacing" textLength="44" x="27" y="339.5986">int colour</text><line style="stroke:#A80036;stroke-width:1.5;" x1="8" x2="116" y1="346.0156" y2="346.0156"/><!--MD5=[0bd9a5b41ad492f10fc077c50cb20c18]
class capital--><rect codeLine="19" fill="#FEFECE" filter="url(#f15gfv69sf6429)" height="89.5078" id="capital" style="stroke:#A80036;stroke-width:1.5;" width="107" x="62.5" y="414"/><ellipse cx="95.05" cy="430" fill="#ADD1B2" rx="11" ry="11" style="stroke:#A80036;stroke-width:1.0;"/><path d="M97.05,426.5 Q97.2531,426 97.4875,425.75 Q97.7219,425.5 97.9875,425.5 Q98.4563,425.5 98.7531,425.7813 Q99.05,426.0625 99.05,426.7188 L99.05,428.2813 Q99.05,428.9375 98.7688,429.2188 Q98.4875,429.5 98.05,429.5 Q97.6594,429.5 97.4094,429.3281 Q97.1594,429.1563 97.05,428.7031 Q97.0031,428.3906 96.8313,428.2188 Q96.5188,427.8906 95.9563,427.7031 Q95.3938,427.5 94.8313,427.5 Q94.1281,427.5 93.5344,427.7813 Q92.9563,428.0625 92.5031,428.6875 Q92.05,429.3125 92.05,430.1719 L92.05,431.0938 Q92.05,432.125 92.8938,432.8125 Q93.7375,433.5 95.2375,433.5 Q96.1281,433.5 96.7531,433.2969 Q97.1125,433.1875 97.5188,432.8281 Q97.7844,432.625 97.925,432.5625 Q98.0656,432.5 98.2375,432.5 Q98.5656,432.5 98.8,432.7656 Q99.05,433.0156 99.05,433.375 Q99.05,433.7188 98.7063,434.125 Q98.2063,434.7188 97.4094,435.0469 Q96.3625,435.5 95.0813,435.5 Q93.5813,435.5 92.3781,434.9063 Q91.4094,434.4375 90.7219,433.4219 Q90.05,432.4063 90.05,431.2031 L90.05,430.1094 Q90.05,428.8594 90.6438,427.7656 Q91.2531,426.6719 92.3,426.0938 Q93.3625,425.5 94.55,425.5 Q95.2688,425.5 95.8938,425.75 Q96.5188,426 97.05,426.5 Z " fill="#000000"/><text fill="#000000" font-family="sans-serif" font-size="12" lengthAdjust="spacing" textLength="36" x="112.95" y="434.9102">capital</text><line style="stroke:#A80036;stroke-width:1.5;" x1="63.5" x2="168.5" y1="446" y2="446"/><rect fill="none" height="6" style="stroke:#C82930;stroke-width:1.0;" width="6" x="70.5" y="454"/><text fill="#000000" font-family="sans-serif" font-size="11" lengthAdjust="spacing" textLength="60" x="82.5" y="461.4189">String name;</text><rect fill="none" height="6" style="stroke:#C82930;stroke-width:1.0;" width="6" x="70.5" y="467.8359"/><text fill="#000000" font-family="sans-serif" font-size="11" lengthAdjust="spacing" textLength="72" x="82.5" y="475.2549">double latitude;</text><rect fill="none" height="6" style="stroke:#C82930;stroke-width:1.0;" width="6" x="70.5" y="481.6719"/><text fill="#000000" font-family="sans-serif" font-size="11" lengthAdjust="spacing" textLength="81" x="82.5" y="489.0908">double longitude;</text><line style="stroke:#A80036;stroke-width:1.5;" x1="63.5" x2="168.5" y1="495.5078" y2="495.5078"/><!--MD5=[bc71c62128aaf75a155dd6adc8e1dfa9]
link TrafficManager to Company--><path codeLine="25" d="M116,55 C116,71 116,92.45 116,109.53 " fill="none" id="TrafficManager-to-Company" style="stroke:#A80036;stroke-width:1.0;"/><polygon fill="#A80036" points="116,114.68,120,105.68,116,109.68,112,105.68,116,114.68" style="stroke:#A80036;stroke-width:1.0;"/><!--MD5=[fba74a16e7d94703258f7ffe63bea93e]
link Company to country--><path codeLine="26" d="M107.56,163.05 C102.1,177.97 94.67,198.27 87.39,218.14 " fill="none" id="Company-to-country" style="stroke:#A80036;stroke-width:1.0;"/><polygon fill="#A80036" points="85.65,222.91,92.5107,215.8439,87.3759,218.2173,85.0024,213.0825,85.65,222.91" style="stroke:#A80036;stroke-width:1.0;"/><!--MD5=[453c8da28934c2bcbf8c6b2e448184d4]
link Company to capital--><path codeLine="27" d="M122.74,163.01 C127.21,179.54 132.68,202.44 135,223 C141.54,280.85 140.25,296.02 135,354 C133.37,371.97 130.19,391.48 126.89,408.7 " fill="none" id="Company-to-capital" style="stroke:#A80036;stroke-width:1.0;"/><polygon fill="#A80036" points="125.86,413.96,131.5068,405.8907,126.8159,409.0522,123.6544,404.3613,125.86,413.96" style="stroke:#A80036;stroke-width:1.0;"/><!--MD5=[162fc2f0e2ac8cee7d48e6d6c8a02401]
link country to capital--><path codeLine="28" d="M82.72,354.16 C88.57,372.4 94.83,391.94 100.33,409.09 " fill="none" id="country-to-capital" style="stroke:#A80036;stroke-width:1.0;"/><polygon fill="#A80036" points="101.85,413.86,102.905,404.0678,100.3204,409.0997,95.2885,406.5151,101.85,413.86" style="stroke:#A80036;stroke-width:1.0;"/><!--MD5=[9e1a3c6811cfd097ffbd1005de11dfd9]
@startuml
'https://plantuml.com/class-diagram

class TrafficManager{
}

class Company {

}

class country{
-String continent
-String alpha2
-String alpha3
-String name
-double population
-int colour
}

class capital{
-String name;
-double latitude;
-double longitude;
}

TrafficManager - -> Company
Company - -> country
Company - -> capital
country - -> capital




@enduml

@startuml

class TrafficManager{
}

class Company {

}

class country{
-String continent
-String alpha2
-String alpha3
-String name
-double population
-int colour
}

class capital{
-String name;
-double latitude;
-double longitude;
}

TrafficManager - -> Company
Company - -> country
Company - -> capital
country - -> capital




@enduml

PlantUML version 1.2021.11(Sat Oct 02 14:26:11 BST 2021)
(GPL source distribution)
Java Runtime: OpenJDK Runtime Environment
JVM: OpenJDK 64-Bit Server VM
Default Encoding: Cp1252
Language: pt
Country: PT
--></g></svg>