<?xml version="1.0" encoding="UTF-8" standalone="no"?><svg xmlns="http://www.w3.org/2000/svg" xmlns:xlink="http://www.w3.org/1999/xlink" contentScriptType="application/ecmascript" contentStyleType="text/css" height="684px" preserveAspectRatio="none" style="width:527px;height:684px;background:#FFFFFF;" version="1.1" viewBox="0 0 527 684" width="527px" zoomAndPan="magnify"><defs><filter height="300%" id="f1k32oh35hkcm8" width="300%" x="-1" y="-1"><feGaussianBlur result="blurOut" stdDeviation="2.0"/><feColorMatrix in="blurOut" result="blurOut2" type="matrix" values="0 0 0 0 0 0 0 0 0 0 0 0 0 0 0 0 0 0 .4 0"/><feOffset dx="4.0" dy="4.0" in="blurOut2" result="blurOut3"/><feBlend in="SourceGraphic" in2="blurOut3" mode="normal"/></filter></defs><g><!--MD5=[a0e14dc1c5f22798a4d68a7546a0e1d4]
class PortStaff--><rect codeLine="2" fill="#FEFECE" filter="url(#f1k32oh35hkcm8)" height="48" id="PortStaff" style="stroke:#A80036;stroke-width:1.5;" width="78" x="299.5" y="7"/><ellipse cx="314.5" cy="23" fill="#ADD1B2" rx="11" ry="11" style="stroke:#A80036;stroke-width:1.0;"/><path d="M316.5,19.5 Q316.7031,19 316.9375,18.75 Q317.1719,18.5 317.4375,18.5 Q317.9063,18.5 318.2031,18.7813 Q318.5,19.0625 318.5,19.7188 L318.5,21.2813 Q318.5,21.9375 318.2188,22.2188 Q317.9375,22.5 317.5,22.5 Q317.1094,22.5 316.8594,22.3281 Q316.6094,22.1563 316.5,21.7031 Q316.4531,21.3906 316.2813,21.2188 Q315.9688,20.8906 315.4063,20.7031 Q314.8438,20.5 314.2813,20.5 Q313.5781,20.5 312.9844,20.7813 Q312.4063,21.0625 311.9531,21.6875 Q311.5,22.3125 311.5,23.1719 L311.5,24.0938 Q311.5,25.125 312.3438,25.8125 Q313.1875,26.5 314.6875,26.5 Q315.5781,26.5 316.2031,26.2969 Q316.5625,26.1875 316.9688,25.8281 Q317.2344,25.625 317.375,25.5625 Q317.5156,25.5 317.6875,25.5 Q318.0156,25.5 318.25,25.7656 Q318.5,26.0156 318.5,26.375 Q318.5,26.7188 318.1563,27.125 Q317.6563,27.7188 316.8594,28.0469 Q315.8125,28.5 314.5313,28.5 Q313.0313,28.5 311.8281,27.9063 Q310.8594,27.4375 310.1719,26.4219 Q309.5,25.4063 309.5,24.2031 L309.5,23.1094 Q309.5,21.8594 310.0938,20.7656 Q310.7031,19.6719 311.75,19.0938 Q312.8125,18.5 314,18.5 Q314.7188,18.5 315.3438,18.75 Q315.9688,19 316.5,19.5 Z " fill="#000000"/><text fill="#000000" font-family="sans-serif" font-size="12" lengthAdjust="spacing" textLength="46" x="328.5" y="27.9102">PortStaff</text><line style="stroke:#A80036;stroke-width:1.5;" x1="300.5" x2="376.5" y1="39" y2="39"/><line style="stroke:#A80036;stroke-width:1.5;" x1="300.5" x2="376.5" y1="47" y2="47"/><!--MD5=[3fd616f346a44cd59a91eb10b19e157c]
class User--><rect codeLine="6" fill="#FEFECE" filter="url(#f1k32oh35hkcm8)" height="48" id="User" style="stroke:#A80036;stroke-width:1.5;" width="59" x="441" y="154"/><ellipse cx="456" cy="170" fill="#ADD1B2" rx="11" ry="11" style="stroke:#A80036;stroke-width:1.0;"/><path d="M458,166.5 Q458.2031,166 458.4375,165.75 Q458.6719,165.5 458.9375,165.5 Q459.4063,165.5 459.7031,165.7813 Q460,166.0625 460,166.7188 L460,168.2813 Q460,168.9375 459.7188,169.2188 Q459.4375,169.5 459,169.5 Q458.6094,169.5 458.3594,169.3281 Q458.1094,169.1563 458,168.7031 Q457.9531,168.3906 457.7813,168.2188 Q457.4688,167.8906 456.9063,167.7031 Q456.3438,167.5 455.7813,167.5 Q455.0781,167.5 454.4844,167.7813 Q453.9063,168.0625 453.4531,168.6875 Q453,169.3125 453,170.1719 L453,171.0938 Q453,172.125 453.8438,172.8125 Q454.6875,173.5 456.1875,173.5 Q457.0781,173.5 457.7031,173.2969 Q458.0625,173.1875 458.4688,172.8281 Q458.7344,172.625 458.875,172.5625 Q459.0156,172.5 459.1875,172.5 Q459.5156,172.5 459.75,172.7656 Q460,173.0156 460,173.375 Q460,173.7188 459.6563,174.125 Q459.1563,174.7188 458.3594,175.0469 Q457.3125,175.5 456.0313,175.5 Q454.5313,175.5 453.3281,174.9063 Q452.3594,174.4375 451.6719,173.4219 Q451,172.4063 451,171.2031 L451,170.1094 Q451,168.8594 451.5938,167.7656 Q452.2031,166.6719 453.25,166.0938 Q454.3125,165.5 455.5,165.5 Q456.2188,165.5 456.8438,165.75 Q457.4688,166 458,166.5 Z " fill="#000000"/><text fill="#000000" font-family="sans-serif" font-size="12" lengthAdjust="spacing" textLength="27" x="470" y="174.9102">User</text><line style="stroke:#A80036;stroke-width:1.5;" x1="442" x2="499" y1="186" y2="186"/><line style="stroke:#A80036;stroke-width:1.5;" x1="442" x2="499" y1="194" y2="194"/><!--MD5=[45d42ff7800d812d5f83c7d3273eb427]
class UserRole--><rect codeLine="10" fill="#FEFECE" filter="url(#f1k32oh35hkcm8)" height="48" id="UserRole" style="stroke:#A80036;stroke-width:1.5;" width="85" x="428" y="335.5"/><ellipse cx="443" cy="351.5" fill="#ADD1B2" rx="11" ry="11" style="stroke:#A80036;stroke-width:1.0;"/><path d="M445,348 Q445.2031,347.5 445.4375,347.25 Q445.6719,347 445.9375,347 Q446.4063,347 446.7031,347.2813 Q447,347.5625 447,348.2188 L447,349.7813 Q447,350.4375 446.7188,350.7188 Q446.4375,351 446,351 Q445.6094,351 445.3594,350.8281 Q445.1094,350.6563 445,350.2031 Q444.9531,349.8906 444.7813,349.7188 Q444.4688,349.3906 443.9063,349.2031 Q443.3438,349 442.7813,349 Q442.0781,349 441.4844,349.2813 Q440.9063,349.5625 440.4531,350.1875 Q440,350.8125 440,351.6719 L440,352.5938 Q440,353.625 440.8438,354.3125 Q441.6875,355 443.1875,355 Q444.0781,355 444.7031,354.7969 Q445.0625,354.6875 445.4688,354.3281 Q445.7344,354.125 445.875,354.0625 Q446.0156,354 446.1875,354 Q446.5156,354 446.75,354.2656 Q447,354.5156 447,354.875 Q447,355.2188 446.6563,355.625 Q446.1563,356.2188 445.3594,356.5469 Q444.3125,357 443.0313,357 Q441.5313,357 440.3281,356.4063 Q439.3594,355.9375 438.6719,354.9219 Q438,353.9063 438,352.7031 L438,351.6094 Q438,350.3594 438.5938,349.2656 Q439.2031,348.1719 440.25,347.5938 Q441.3125,347 442.5,347 Q443.2188,347 443.8438,347.25 Q444.4688,347.5 445,348 Z " fill="#000000"/><text fill="#000000" font-family="sans-serif" font-size="12" lengthAdjust="spacing" textLength="53" x="457" y="356.4102">UserRole</text><line style="stroke:#A80036;stroke-width:1.5;" x1="429" x2="512" y1="367.5" y2="367.5"/><line style="stroke:#A80036;stroke-width:1.5;" x1="429" x2="512" y1="375.5" y2="375.5"/><!--MD5=[02e4b9b7573f1156f41e60aa5b4e25a4]
class Company--><rect codeLine="14" fill="#FEFECE" filter="url(#f1k32oh35hkcm8)" height="48" id="Company" style="stroke:#A80036;stroke-width:1.5;" width="85" x="156" y="496"/><ellipse cx="171" cy="512" fill="#ADD1B2" rx="11" ry="11" style="stroke:#A80036;stroke-width:1.0;"/><path d="M173,508.5 Q173.2031,508 173.4375,507.75 Q173.6719,507.5 173.9375,507.5 Q174.4063,507.5 174.7031,507.7813 Q175,508.0625 175,508.7188 L175,510.2813 Q175,510.9375 174.7188,511.2188 Q174.4375,511.5 174,511.5 Q173.6094,511.5 173.3594,511.3281 Q173.1094,511.1563 173,510.7031 Q172.9531,510.3906 172.7813,510.2188 Q172.4688,509.8906 171.9063,509.7031 Q171.3438,509.5 170.7813,509.5 Q170.0781,509.5 169.4844,509.7813 Q168.9063,510.0625 168.4531,510.6875 Q168,511.3125 168,512.1719 L168,513.0938 Q168,514.125 168.8438,514.8125 Q169.6875,515.5 171.1875,515.5 Q172.0781,515.5 172.7031,515.2969 Q173.0625,515.1875 173.4688,514.8281 Q173.7344,514.625 173.875,514.5625 Q174.0156,514.5 174.1875,514.5 Q174.5156,514.5 174.75,514.7656 Q175,515.0156 175,515.375 Q175,515.7188 174.6563,516.125 Q174.1563,516.7188 173.3594,517.0469 Q172.3125,517.5 171.0313,517.5 Q169.5313,517.5 168.3281,516.9063 Q167.3594,516.4375 166.6719,515.4219 Q166,514.4063 166,513.2031 L166,512.1094 Q166,510.8594 166.5938,509.7656 Q167.2031,508.6719 168.25,508.0938 Q169.3125,507.5 170.5,507.5 Q171.2188,507.5 171.8438,507.75 Q172.4688,508 173,508.5 Z " fill="#000000"/><text fill="#000000" font-family="sans-serif" font-size="12" lengthAdjust="spacing" textLength="53" x="185" y="516.9102">Company</text><line style="stroke:#A80036;stroke-width:1.5;" x1="157" x2="240" y1="528" y2="528"/><line style="stroke:#A80036;stroke-width:1.5;" x1="157" x2="240" y1="536" y2="536"/><!--MD5=[36d8b17f24191f671af40f69698f0366]
class AllocateCargoManifestToPortUI--><rect codeLine="18" fill="#FEFECE" filter="url(#f1k32oh35hkcm8)" height="89.5078" id="AllocateCargoManifestToPortUI" style="stroke:#A80036;stroke-width:1.5;" width="399" x="7" y="133"/><ellipse cx="116.75" cy="149" fill="#ADD1B2" rx="11" ry="11" style="stroke:#A80036;stroke-width:1.0;"/><path d="M118.75,145.5 Q118.9531,145 119.1875,144.75 Q119.4219,144.5 119.6875,144.5 Q120.1563,144.5 120.4531,144.7813 Q120.75,145.0625 120.75,145.7188 L120.75,147.2813 Q120.75,147.9375 120.4688,148.2188 Q120.1875,148.5 119.75,148.5 Q119.3594,148.5 119.1094,148.3281 Q118.8594,148.1563 118.75,147.7031 Q118.7031,147.3906 118.5313,147.2188 Q118.2188,146.8906 117.6563,146.7031 Q117.0938,146.5 116.5313,146.5 Q115.8281,146.5 115.2344,146.7813 Q114.6563,147.0625 114.2031,147.6875 Q113.75,148.3125 113.75,149.1719 L113.75,150.0938 Q113.75,151.125 114.5938,151.8125 Q115.4375,152.5 116.9375,152.5 Q117.8281,152.5 118.4531,152.2969 Q118.8125,152.1875 119.2188,151.8281 Q119.4844,151.625 119.625,151.5625 Q119.7656,151.5 119.9375,151.5 Q120.2656,151.5 120.5,151.7656 Q120.75,152.0156 120.75,152.375 Q120.75,152.7188 120.4063,153.125 Q119.9063,153.7188 119.1094,154.0469 Q118.0625,154.5 116.7813,154.5 Q115.2813,154.5 114.0781,153.9063 Q113.1094,153.4375 112.4219,152.4219 Q111.75,151.4063 111.75,150.2031 L111.75,149.1094 Q111.75,147.8594 112.3438,146.7656 Q112.9531,145.6719 114,145.0938 Q115.0625,144.5 116.25,144.5 Q116.9688,144.5 117.5938,144.75 Q118.2188,145 118.75,145.5 Z " fill="#000000"/><text fill="#000000" font-family="sans-serif" font-size="12" lengthAdjust="spacing" textLength="171" x="137.25" y="153.9102">AllocateCargoManifestToPortUI</text><line style="stroke:#A80036;stroke-width:1.5;" x1="8" x2="405" y1="165" y2="165"/><rect fill="none" height="6" style="stroke:#C82930;stroke-width:1.0;" width="6" x="15" y="173"/><text fill="#000000" font-family="sans-serif" font-size="11" lengthAdjust="spacing" textLength="373" x="27" y="180.4189">AllocateCargoManifestToPortController allocateCargoManifestToPortController</text><line style="stroke:#A80036;stroke-width:1.5;" x1="8" x2="405" y1="186.8359" y2="186.8359"/><ellipse cx="18" cy="197.8359" fill="#84BE84" rx="3" ry="3" style="stroke:#038048;stroke-width:1.0;"/><text fill="#000000" font-family="sans-serif" font-size="11" lengthAdjust="spacing" textLength="157" x="27" y="202.2549">AllocateCargoManifestToPortUI()</text><ellipse cx="18" cy="211.6719" fill="#84BE84" rx="3" ry="3" style="stroke:#038048;stroke-width:1.0;"/><text fill="#000000" font-family="sans-serif" font-size="11" lengthAdjust="spacing" textLength="24" x="27" y="216.0908">run()</text><!--MD5=[1e58fccb524d391aaf72fd067bb3c54e]
class AllocateCargoManifestToPortController--><rect codeLine="24" fill="#FEFECE" filter="url(#f1k32oh35hkcm8)" height="117.1797" id="AllocateCargoManifestToPortController" style="stroke:#A80036;stroke-width:1.5;" width="312" x="42.5" y="301"/><ellipse cx="87.75" cy="317" fill="#ADD1B2" rx="11" ry="11" style="stroke:#A80036;stroke-width:1.0;"/><path d="M89.75,313.5 Q89.9531,313 90.1875,312.75 Q90.4219,312.5 90.6875,312.5 Q91.1563,312.5 91.4531,312.7813 Q91.75,313.0625 91.75,313.7188 L91.75,315.2813 Q91.75,315.9375 91.4688,316.2188 Q91.1875,316.5 90.75,316.5 Q90.3594,316.5 90.1094,316.3281 Q89.8594,316.1563 89.75,315.7031 Q89.7031,315.3906 89.5313,315.2188 Q89.2188,314.8906 88.6563,314.7031 Q88.0938,314.5 87.5313,314.5 Q86.8281,314.5 86.2344,314.7813 Q85.6563,315.0625 85.2031,315.6875 Q84.75,316.3125 84.75,317.1719 L84.75,318.0938 Q84.75,319.125 85.5938,319.8125 Q86.4375,320.5 87.9375,320.5 Q88.8281,320.5 89.4531,320.2969 Q89.8125,320.1875 90.2188,319.8281 Q90.4844,319.625 90.625,319.5625 Q90.7656,319.5 90.9375,319.5 Q91.2656,319.5 91.5,319.7656 Q91.75,320.0156 91.75,320.375 Q91.75,320.7188 91.4063,321.125 Q90.9063,321.7188 90.1094,322.0469 Q89.0625,322.5 87.7813,322.5 Q86.2813,322.5 85.0781,321.9063 Q84.1094,321.4375 83.4219,320.4219 Q82.75,319.4063 82.75,318.2031 L82.75,317.1094 Q82.75,315.8594 83.3438,314.7656 Q83.9531,313.6719 85,313.0938 Q86.0625,312.5 87.25,312.5 Q87.9688,312.5 88.5938,312.75 Q89.2188,313 89.75,313.5 Z " fill="#000000"/><text fill="#000000" font-family="sans-serif" font-size="12" lengthAdjust="spacing" textLength="213" x="108.25" y="321.9102">AllocateCargoManifestToPortController</text><line style="stroke:#A80036;stroke-width:1.5;" x1="43.5" x2="353.5" y1="333" y2="333"/><rect fill="none" height="6" style="stroke:#C82930;stroke-width:1.0;" width="6" x="50.5" y="341"/><text fill="#000000" font-family="sans-serif" font-size="11" lengthAdjust="spacing" textLength="92" x="62.5" y="348.4189">Company company</text><line style="stroke:#A80036;stroke-width:1.5;" x1="43.5" x2="353.5" y1="354.8359" y2="354.8359"/><ellipse cx="53.5" cy="365.8359" fill="#84BE84" rx="3" ry="3" style="stroke:#038048;stroke-width:1.0;"/><text fill="#000000" font-family="sans-serif" font-size="11" lengthAdjust="spacing" textLength="194" x="62.5" y="370.2549">AllocateCargoManifestToPortController()</text><ellipse cx="53.5" cy="379.6719" fill="#84BE84" rx="3" ry="3" style="stroke:#038048;stroke-width:1.0;"/><text fill="#000000" font-family="sans-serif" font-size="11" lengthAdjust="spacing" textLength="286" x="62.5" y="384.0908">AllocateCargoManifestToPortController(Company company)</text><ellipse cx="53.5" cy="393.5078" fill="#84BE84" rx="3" ry="3" style="stroke:#038048;stroke-width:1.0;"/><text fill="#000000" font-family="sans-serif" font-size="11" lengthAdjust="spacing" textLength="192" x="62.5" y="397.9268">allocateCargoManifestToPortController()</text><ellipse cx="53.5" cy="407.3438" fill="#84BE84" rx="3" ry="3" style="stroke:#038048;stroke-width:1.0;"/><text fill="#000000" font-family="sans-serif" font-size="11" lengthAdjust="spacing" textLength="68" x="62.5" y="411.7627">getCompany()</text><!--MD5=[837d3612090b426002fd1342fcbe6b88]
class DataBase--><rect fill="#FEFECE" filter="url(#f1k32oh35hkcm8)" height="48" id="DataBase" style="stroke:#A80036;stroke-width:1.5;" width="87" x="155" y="622"/><ellipse cx="170" cy="638" fill="#ADD1B2" rx="11" ry="11" style="stroke:#A80036;stroke-width:1.0;"/><path d="M172,634.5 Q172.2031,634 172.4375,633.75 Q172.6719,633.5 172.9375,633.5 Q173.4063,633.5 173.7031,633.7813 Q174,634.0625 174,634.7188 L174,636.2813 Q174,636.9375 173.7188,637.2188 Q173.4375,637.5 173,637.5 Q172.6094,637.5 172.3594,637.3281 Q172.1094,637.1563 172,636.7031 Q171.9531,636.3906 171.7813,636.2188 Q171.4688,635.8906 170.9063,635.7031 Q170.3438,635.5 169.7813,635.5 Q169.0781,635.5 168.4844,635.7813 Q167.9063,636.0625 167.4531,636.6875 Q167,637.3125 167,638.1719 L167,639.0938 Q167,640.125 167.8438,640.8125 Q168.6875,641.5 170.1875,641.5 Q171.0781,641.5 171.7031,641.2969 Q172.0625,641.1875 172.4688,640.8281 Q172.7344,640.625 172.875,640.5625 Q173.0156,640.5 173.1875,640.5 Q173.5156,640.5 173.75,640.7656 Q174,641.0156 174,641.375 Q174,641.7188 173.6563,642.125 Q173.1563,642.7188 172.3594,643.0469 Q171.3125,643.5 170.0313,643.5 Q168.5313,643.5 167.3281,642.9063 Q166.3594,642.4375 165.6719,641.4219 Q165,640.4063 165,639.2031 L165,638.1094 Q165,636.8594 165.5938,635.7656 Q166.2031,634.6719 167.25,634.0938 Q168.3125,633.5 169.5,633.5 Q170.2188,633.5 170.8438,633.75 Q171.4688,634 172,634.5 Z " fill="#000000"/><text fill="#000000" font-family="sans-serif" font-size="12" lengthAdjust="spacing" textLength="55" x="184" y="642.9102">DataBase</text><line style="stroke:#A80036;stroke-width:1.5;" x1="156" x2="241" y1="654" y2="654"/><line style="stroke:#A80036;stroke-width:1.5;" x1="156" x2="241" y1="662" y2="662"/><!--MD5=[6b57b42c29b0dcf89ae5a80f9c2ec1a6]
link PortStaff to AllocateCargoManifestToPortUI--><path codeLine="32" d="M317.29,55.3 C299.24,75.13 272.71,104.26 250.15,129.06 " fill="none" id="PortStaff-to-AllocateCargoManifestToPortUI" style="stroke:#A80036;stroke-width:1.0;"/><polygon fill="#A80036" points="246.56,133,255.5784,129.0416,249.9276,129.3042,249.6651,123.6534,246.56,133" style="stroke:#A80036;stroke-width:1.0;"/><text fill="#000000" font-family="sans-serif" font-size="13" lengthAdjust="spacing" textLength="44" x="289.5" y="99.4951">Access</text><!--MD5=[ffcff0c745355df6576dab6f96e11b59]
link AllocateCargoManifestToPortUI to AllocateCargoManifestToPortController--><path codeLine="33" d="M170.45,223.4 C164.71,232.68 159.63,242.77 156.5,253 C152.17,267.14 153.99,282.05 158.71,296.07 " fill="none" id="AllocateCargoManifestToPortUI-to-AllocateCargoManifestToPortController" style="stroke:#A80036;stroke-width:1.0;"/><polygon fill="#A80036" points="160.43,300.79,161.1039,290.9642,158.7167,296.0927,153.5882,293.7055,160.43,300.79" style="stroke:#A80036;stroke-width:1.0;"/><text fill="#000000" font-family="sans-serif" font-size="13" lengthAdjust="spacing" textLength="82" x="157.5" y="267.4951">Connects with</text><!--MD5=[f1f1827c9b7cb6489c215865d5b9479f]
reverse link AllocateCargoManifestToPortUI to AllocateCargoManifestToPortController--><path codeLine="36" d="M239.18,227.62 C244.92,241.37 248.07,256.53 244.5,271 C242.03,281 238.19,291.11 233.76,300.75 " fill="none" id="AllocateCargoManifestToPortUI-backto-AllocateCargoManifestToPortController" style="stroke:#A80036;stroke-width:1.0;"/><polygon fill="#A80036" points="237.14,223.02,237.1343,232.8689,239.168,227.5902,244.4467,229.624,237.14,223.02" style="stroke:#A80036;stroke-width:1.0;"/><text fill="#000000" font-family="sans-serif" font-size="13" lengthAdjust="spacing" textLength="69" x="247.5" y="267.4951">Returns Info</text><!--MD5=[a4cb8f6ae467b3a2c877c7f795d4946a]
link PortStaff to User--><path codeLine="34" d="M359.71,55.3 C383.19,81.09 420.98,122.61 445.78,149.85 " fill="none" id="PortStaff-to-User" style="stroke:#A80036;stroke-width:1.0;"/><polygon fill="#A80036" points="449.34,153.76,446.2547,144.4069,445.9802,150.0571,440.33,149.7826,449.34,153.76" style="stroke:#A80036;stroke-width:1.0;"/><text fill="#000000" font-family="sans-serif" font-size="13" lengthAdjust="spacing" textLength="21" x="402.5" y="99.4951">is a</text><!--MD5=[1f12d177c84922ed4f166f09ee62ceaa]
link User to UserRole--><path codeLine="35" d="M470.5,202.1 C470.5,234.95 470.5,295.09 470.5,330.46 " fill="none" id="User-to-UserRole" style="stroke:#A80036;stroke-width:1.0;"/><polygon fill="#A80036" points="470.5,335.49,474.5,326.49,470.5,330.49,466.5,326.49,470.5,335.49" style="stroke:#A80036;stroke-width:1.0;"/><text fill="#000000" font-family="sans-serif" font-size="13" lengthAdjust="spacing" textLength="21" x="471.5" y="267.4951">has</text><!--MD5=[1fdc73fae29f6fc182ad8b2dc4ba08a2]
link AllocateCargoManifestToPortController to Company--><path codeLine="37" d="M147.87,418.35 C141.99,427.74 136.89,437.76 133.5,448 C127.79,465.26 138.67,480.67 153.07,492.69 " fill="none" id="AllocateCargoManifestToPortController-to-Company" style="stroke:#A80036;stroke-width:1.0;"/><polygon fill="#A80036" points="157.21,495.98,152.6576,487.2464,153.2973,492.867,147.6767,493.5067,157.21,495.98" style="stroke:#A80036;stroke-width:1.0;"/><text fill="#000000" font-family="sans-serif" font-size="13" lengthAdjust="spacing" textLength="82" x="134.5" y="462.4951">Connects with</text><!--MD5=[c41a27d389c966a915094248bcc9740d]
link Company to AllocateCargoManifestToPortController--><path codeLine="38" d="M210.95,495.94 C215.19,486.88 219.38,476.21 221.5,466 C224.37,452.19 223.56,437.38 220.99,423.35 " fill="none" id="Company-to-AllocateCargoManifestToPortController" style="stroke:#A80036;stroke-width:1.0;"/><polygon fill="#A80036" points="219.97,418.22,217.8181,427.8309,220.9533,423.1224,225.6619,426.2576,219.97,418.22" style="stroke:#A80036;stroke-width:1.0;"/><text fill="#000000" font-family="sans-serif" font-size="13" lengthAdjust="spacing" textLength="69" x="224.5" y="462.4951">Returns Info</text><!--MD5=[28fa5ca211853e28b35503d2b875b2be]
link Company to DataBase--><path codeLine="39" d="M198.5,544.03 C198.5,564.52 198.5,594.56 198.5,616.55 " fill="none" id="Company-to-DataBase" style="stroke:#A80036;stroke-width:1.0;"/><polygon fill="#A80036" points="198.5,621.67,202.5,612.67,198.5,616.67,194.5,612.67,198.5,621.67" style="stroke:#A80036;stroke-width:1.0;"/><text fill="#000000" font-family="sans-serif" font-size="13" lengthAdjust="spacing" textLength="55" x="199.5" y="588.4951">Connects</text><!--MD5=[52a9e32ed2be4ba0ee2049f0f2fd2f54]
@startuml

class PortStaff{

}

class User{

}

class UserRole{

}

class Company{

}

class AllocateCargoManifestToPortUI{
    -AllocateCargoManifestToPortController allocateCargoManifestToPortController
    +AllocateCargoManifestToPortUI()
    +run()
}

class AllocateCargoManifestToPortController{
    -Company company
    +AllocateCargoManifestToPortController()
    +AllocateCargoManifestToPortController(Company company)
    +allocateCargoManifestToPortController()
    +getCompany()
}

PortStaff - -> AllocateCargoManifestToPortUI : Access
AllocateCargoManifestToPortUI -down-> AllocateCargoManifestToPortController : Connects with
PortStaff - -> User : is a
User - -> UserRole : has
AllocateCargoManifestToPortController -up-> AllocateCargoManifestToPortUI : Returns Info
AllocateCargoManifestToPortController - -> Company : Connects with
Company - -> AllocateCargoManifestToPortController : Returns Info
Company - -> DataBase : Connects

@enduml

PlantUML version 1.2021.11(Sat Oct 02 14:26:11 BST 2021)
(GPL source distribution)
Java Runtime: OpenJDK Runtime Environment
JVM: OpenJDK 64-Bit Server VM
Default Encoding: Cp1252
Language: pt
Country: PT
--></g></svg>