<?xml version="1.0" encoding="UTF-8" standalone="no"?><svg xmlns="http://www.w3.org/2000/svg" xmlns:xlink="http://www.w3.org/1999/xlink" contentScriptType="application/ecmascript" contentStyleType="text/css" height="481.6px" preserveAspectRatio="none" style="width:1170px;height:481px;background:#FFFFFF;" version="1.1" viewBox="0 0 1170 481" width="1170.4px" zoomAndPan="magnify"><defs><filter height="300%" id="fwf985sw6ibbm" width="300%" x="-1" y="-1"><feGaussianBlur result="blurOut" stdDeviation="1.6000000000000003"/><feColorMatrix in="blurOut" result="blurOut2" type="matrix" values="0 0 0 0 0 0 0 0 0 0 0 0 0 0 0 0 0 0 .4 0"/><feOffset dx="3.2000000000000006" dy="3.2000000000000006" in="blurOut2" result="blurOut3"/><feBlend in="SourceGraphic" in2="blurOut3" mode="normal"/></filter></defs><g><line style="stroke:#A80036;stroke-width:0.8000000000000002;stroke-dasharray:5.0,5.0;" x1="28" x2="28" y1="71.6875" y2="413.6688"/><line style="stroke:#A80036;stroke-width:0.8000000000000002;stroke-dasharray:5.0,5.0;" x1="210" x2="210" y1="71.6875" y2="413.6688"/><line style="stroke:#A80036;stroke-width:0.8000000000000002;stroke-dasharray:5.0,5.0;" x1="503.2" x2="503.2" y1="71.6875" y2="413.6688"/><line style="stroke:#A80036;stroke-width:0.8000000000000002;stroke-dasharray:5.0,5.0;" x1="631.2" x2="631.2" y1="71.6875" y2="413.6688"/><line style="stroke:#A80036;stroke-width:0.8000000000000002;stroke-dasharray:5.0,5.0;" x1="831.2" x2="831.2" y1="71.6875" y2="413.6688"/><line style="stroke:#A80036;stroke-width:0.8000000000000002;stroke-dasharray:5.0,5.0;" x1="1142.8" x2="1142.8" y1="311.3813" y2="413.6688"/><text fill="#000000" font-family="sans-serif" font-size="11.2" lengthAdjust="spacing" textLength="44" x="4" y="69.2266">PortStaff</text><ellipse cx="28.4" cy="12" fill="#FF0000" filter="url(#fwf985sw6ibbm)" rx="6.4" ry="6.4" style="stroke:#A80036;stroke-width:1.6000000000000003;"/><path d="M28.4,18.4 L28.4,40 M18,24.8 L38.8,24.8 M28.4,40 L18,52 M28.4,40 L38.8,52 " fill="none" filter="url(#fwf985sw6ibbm)" style="stroke:#A80036;stroke-width:1.6000000000000003;"/><text fill="#000000" font-family="sans-serif" font-size="11.2" lengthAdjust="spacing" textLength="44" x="4" y="424.4953">PortStaff</text><ellipse cx="28.4" cy="434.9563" fill="#FF0000" filter="url(#fwf985sw6ibbm)" rx="6.4" ry="6.4" style="stroke:#A80036;stroke-width:1.6000000000000003;"/><path d="M28.4,441.3563 L28.4,462.9563 M18,447.7563 L38.8,447.7563 M28.4,462.9563 L18,474.9563 M28.4,462.9563 L38.8,474.9563 " fill="none" filter="url(#fwf985sw6ibbm)" style="stroke:#A80036;stroke-width:1.6000000000000003;"/><rect fill="#FEFECE" filter="url(#fwf985sw6ibbm)" height="25.2875" style="stroke:#A80036;stroke-width:1.2000000000000002;" width="48" x="184.4" y="42.4"/><text fill="#000000" font-family="sans-serif" font-size="11.2" lengthAdjust="spacing" textLength="36.8" x="190" y="59.6266">System</text><rect fill="#FEFECE" filter="url(#fwf985sw6ibbm)" height="25.2875" style="stroke:#A80036;stroke-width:1.2000000000000002;" width="48" x="184.4" y="412.8688"/><text fill="#000000" font-family="sans-serif" font-size="11.2" lengthAdjust="spacing" textLength="36.8" x="190" y="430.0953">System</text><rect fill="#FEFECE" filter="url(#fwf985sw6ibbm)" height="25.2875" style="stroke:#A80036;stroke-width:1.2000000000000002;" width="64.8" x="469.6" y="42.4"/><text fill="#000000" font-family="sans-serif" font-size="11.2" lengthAdjust="spacing" textLength="53.6" x="475.2" y="59.6266">PortStaffUI</text><rect fill="#FEFECE" filter="url(#fwf985sw6ibbm)" height="25.2875" style="stroke:#A80036;stroke-width:1.2000000000000002;" width="64.8" x="469.6" y="412.8688"/><text fill="#000000" font-family="sans-serif" font-size="11.2" lengthAdjust="spacing" textLength="53.6" x="475.2" y="430.0953">PortStaffUI</text><rect fill="#FEFECE" filter="url(#fwf985sw6ibbm)" height="25.2875" style="stroke:#A80036;stroke-width:1.2000000000000002;" width="168.8" x="545.6" y="42.4"/><text fill="#000000" font-family="sans-serif" font-size="11.2" lengthAdjust="spacing" textLength="157.6" x="551.2" y="59.6266">AllocateCargoManifestToPortUI</text><rect fill="#FEFECE" filter="url(#fwf985sw6ibbm)" height="25.2875" style="stroke:#A80036;stroke-width:1.2000000000000002;" width="168.8" x="545.6" y="412.8688"/><text fill="#000000" font-family="sans-serif" font-size="11.2" lengthAdjust="spacing" textLength="157.6" x="551.2" y="430.0953">AllocateCargoManifestToPortUI</text><rect fill="#FEFECE" filter="url(#fwf985sw6ibbm)" height="25.2875" style="stroke:#A80036;stroke-width:1.2000000000000002;" width="208.8" x="725.6" y="42.4"/><text fill="#000000" font-family="sans-serif" font-size="11.2" lengthAdjust="spacing" textLength="197.6" x="731.2" y="59.6266">AllocateCargoManifestToPortController</text><rect fill="#FEFECE" filter="url(#fwf985sw6ibbm)" height="25.2875" style="stroke:#A80036;stroke-width:1.2000000000000002;" width="208.8" x="725.6" y="412.8688"/><text fill="#000000" font-family="sans-serif" font-size="11.2" lengthAdjust="spacing" textLength="197.6" x="731.2" y="430.0953">AllocateCargoManifestToPortController</text><text fill="#000000" font-family="sans-serif" font-size="11.2" lengthAdjust="spacing" textLength="49.6" x="1115.6" y="424.4953">DataBase</text><path d="M1128.4,434.9563 C1128.4,426.9563 1142.8,426.9563 1142.8,426.9563 C1142.8,426.9563 1157.2,426.9563 1157.2,434.9563 L1157.2,455.7563 C1157.2,463.7563 1142.8,463.7563 1142.8,463.7563 C1142.8,463.7563 1128.4,463.7563 1128.4,455.7563 L1128.4,434.9563 " fill="#FEFECE" filter="url(#fwf985sw6ibbm)" style="stroke:#000000;stroke-width:1.2000000000000002;"/><path d="M1128.4,434.9563 C1128.4,442.9563 1142.8,442.9563 1142.8,442.9563 C1142.8,442.9563 1157.2,442.9563 1157.2,434.9563 " fill="none" style="stroke:#000000;stroke-width:1.2000000000000002;"/><polygon fill="#A80036" points="37.2,94.3688,29.2,97.5688,37.2,100.7688,34,97.5688" style="stroke:#A80036;stroke-width:0.8000000000000002;"/><line style="stroke:#A80036;stroke-width:0.8000000000000002;stroke-dasharray:2.0,2.0;" x1="32.4" x2="209.2" y1="97.5688" y2="97.5688"/><text fill="#000000" font-family="sans-serif" font-size="10.4" font-weight="bold" lengthAdjust="spacing" textLength="5.6" x="42" y="93.6836">1</text><text fill="#000000" font-family="sans-serif" font-size="10.4" lengthAdjust="spacing" textLength="108" x="50.8" y="93.6836">Authentication Request</text><polygon fill="#A80036" points="200.4,118.65,208.4,121.85,200.4,125.05,203.6,121.85" style="stroke:#A80036;stroke-width:0.8000000000000002;"/><line style="stroke:#A80036;stroke-width:0.8000000000000002;" x1="28.4" x2="205.2" y1="121.85" y2="121.85"/><text fill="#000000" font-family="sans-serif" font-size="10.4" font-weight="bold" lengthAdjust="spacing" textLength="5.6" x="34" y="117.9648">2</text><text fill="#000000" font-family="sans-serif" font-size="10.4" lengthAdjust="spacing" textLength="153.6" x="42.8" y="117.9648">Another authentication Response</text><polygon fill="#A80036" points="37.2,142.9313,29.2,146.1313,37.2,149.3313,34,146.1313" style="stroke:#A80036;stroke-width:0.8000000000000002;"/><line style="stroke:#A80036;stroke-width:0.8000000000000002;stroke-dasharray:2.0,2.0;" x1="32.4" x2="209.2" y1="146.1313" y2="146.1313"/><text fill="#000000" font-family="sans-serif" font-size="10.4" font-weight="bold" lengthAdjust="spacing" textLength="5.6" x="42" y="142.2461">3</text><text fill="#000000" font-family="sans-serif" font-size="10.4" lengthAdjust="spacing" textLength="119.2" x="50.8" y="142.2461">Authentication successful</text><polygon fill="#A80036" points="494,167.2125,502,170.4125,494,173.6125,497.2,170.4125" style="stroke:#A80036;stroke-width:0.8000000000000002;"/><line style="stroke:#A80036;stroke-width:0.8000000000000002;stroke-dasharray:2.0,2.0;" x1="28.4" x2="498.8" y1="170.4125" y2="170.4125"/><text fill="#000000" font-family="sans-serif" font-size="10.4" font-weight="bold" lengthAdjust="spacing" textLength="5.6" x="34" y="166.5273">4</text><text fill="#000000" font-family="sans-serif" font-size="10.4" lengthAdjust="spacing" textLength="447.2" x="42.8" y="166.5273">Wish to fill a statically reserved matrix in memory with each container's ID in its respective place.</text><polygon fill="#A80036" points="622,191.4938,630,194.6938,622,197.8938,625.2,194.6938" style="stroke:#A80036;stroke-width:0.8000000000000002;"/><line style="stroke:#A80036;stroke-width:0.8000000000000002;stroke-dasharray:2.0,2.0;" x1="503.6" x2="626.8" y1="194.6938" y2="194.6938"/><text fill="#000000" font-family="sans-serif" font-size="10.4" font-weight="bold" lengthAdjust="spacing" textLength="5.6" x="509.2" y="190.8086">5</text><text fill="#000000" font-family="sans-serif" font-size="10.4" lengthAdjust="spacing" textLength="44" x="518" y="190.8086">Connects</text><polygon fill="#A80036" points="37.2,215.775,29.2,218.975,37.2,222.175,34,218.975" style="stroke:#A80036;stroke-width:0.8000000000000002;"/><line style="stroke:#A80036;stroke-width:0.8000000000000002;stroke-dasharray:2.0,2.0;" x1="32.4" x2="630.8" y1="218.975" y2="218.975"/><text fill="#000000" font-family="sans-serif" font-size="10.4" font-weight="bold" lengthAdjust="spacing" textLength="5.6" x="42" y="215.0898">6</text><text fill="#000000" font-family="sans-serif" font-size="10.4" lengthAdjust="spacing" textLength="124" x="50.8" y="215.0898">Asks for Cargo Manifest ID</text><polygon fill="#A80036" points="622,240.0563,630,243.2563,622,246.4563,625.2,243.2563" style="stroke:#A80036;stroke-width:0.8000000000000002;"/><line style="stroke:#A80036;stroke-width:0.8000000000000002;stroke-dasharray:2.0,2.0;" x1="28.4" x2="626.8" y1="243.2563" y2="243.2563"/><text fill="#000000" font-family="sans-serif" font-size="10.4" font-weight="bold" lengthAdjust="spacing" textLength="5.6" x="34" y="239.3711">7</text><text fill="#000000" font-family="sans-serif" font-size="10.4" lengthAdjust="spacing" textLength="116.8" x="42.8" y="239.3711">Inserts Cargo Manifest ID</text><polygon fill="#A80036" points="822,264.3375,830,267.5375,822,270.7375,825.2,267.5375" style="stroke:#A80036;stroke-width:0.8000000000000002;"/><line style="stroke:#A80036;stroke-width:0.8000000000000002;stroke-dasharray:2.0,2.0;" x1="631.6" x2="826.8" y1="267.5375" y2="267.5375"/><text fill="#000000" font-family="sans-serif" font-size="10.4" font-weight="bold" lengthAdjust="spacing" textLength="5.6" x="637.2" y="263.6523">8</text><text fill="#000000" font-family="sans-serif" font-size="10.4" lengthAdjust="spacing" textLength="73.6" x="646" y="263.6523">asks for the info</text><polygon fill="#A80036" points="1106,288.6188,1114,291.8188,1106,295.0188,1109.2,291.8188" style="stroke:#A80036;stroke-width:0.8000000000000002;"/><line style="stroke:#A80036;stroke-width:0.8000000000000002;stroke-dasharray:2.0,2.0;" x1="831.6" x2="1110.8" y1="291.8188" y2="291.8188"/><text fill="#000000" font-family="sans-serif" font-size="10.4" font-weight="bold" lengthAdjust="spacing" textLength="5.6" x="837.2" y="287.9336">9</text><text fill="#000000" font-family="sans-serif" font-size="10.4" lengthAdjust="spacing" textLength="256" x="846" y="287.9336">allocateCargoManifestToPortController(cargoManifestId)</text><text fill="#000000" font-family="sans-serif" font-size="11.2" lengthAdjust="spacing" textLength="49.6" x="1115.6" y="322.3641">DataBase</text><path d="M1128.4,281.9375 C1128.4,273.9375 1142.8,273.9375 1142.8,273.9375 C1142.8,273.9375 1157.2,273.9375 1157.2,281.9375 L1157.2,302.7375 C1157.2,310.7375 1142.8,310.7375 1142.8,310.7375 C1142.8,310.7375 1128.4,310.7375 1128.4,302.7375 L1128.4,281.9375 " fill="#FEFECE" filter="url(#fwf985sw6ibbm)" style="stroke:#000000;stroke-width:1.2000000000000002;"/><path d="M1128.4,281.9375 C1128.4,289.9375 1142.8,289.9375 1142.8,289.9375 C1142.8,289.9375 1157.2,289.9375 1157.2,281.9375 " fill="none" style="stroke:#000000;stroke-width:1.2000000000000002;"/><polygon fill="#A80036" points="840.4,347.5063,832.4,350.7063,840.4,353.9063,837.2,350.7063" style="stroke:#A80036;stroke-width:0.8000000000000002;"/><line style="stroke:#A80036;stroke-width:0.8000000000000002;stroke-dasharray:2.0,2.0;" x1="835.6" x2="1142" y1="350.7063" y2="350.7063"/><text fill="#000000" font-family="sans-serif" font-size="10.4" font-weight="bold" lengthAdjust="spacing" textLength="11.2" x="845.2" y="346.8211">10</text><text fill="#000000" font-family="sans-serif" font-size="10.4" lengthAdjust="spacing" textLength="36" x="859.6" y="346.8211">boolean</text><polygon fill="#A80036" points="640.4,371.7875,632.4,374.9875,640.4,378.1875,637.2,374.9875" style="stroke:#A80036;stroke-width:0.8000000000000002;"/><line style="stroke:#A80036;stroke-width:0.8000000000000002;stroke-dasharray:2.0,2.0;" x1="635.6" x2="830.8" y1="374.9875" y2="374.9875"/><text fill="#000000" font-family="sans-serif" font-size="10.4" font-weight="bold" lengthAdjust="spacing" textLength="11.2" x="645.2" y="371.1023">11</text><text fill="#000000" font-family="sans-serif" font-size="10.4" lengthAdjust="spacing" textLength="36" x="659.6" y="371.1023">boolean</text><polygon fill="#A80036" points="37.2,396.0688,29.2,399.2688,37.2,402.4688,34,399.2688" style="stroke:#A80036;stroke-width:0.8000000000000002;"/><line style="stroke:#A80036;stroke-width:0.8000000000000002;stroke-dasharray:2.0,2.0;" x1="32.4" x2="630.8" y1="399.2688" y2="399.2688"/><text fill="#000000" font-family="sans-serif" font-size="10.4" font-weight="bold" lengthAdjust="spacing" textLength="11.2" x="42" y="395.3836">12</text><text fill="#000000" font-family="sans-serif" font-size="10.4" lengthAdjust="spacing" textLength="228" x="56.4" y="395.3836">Warns of the successful/unsuccessful of the task</text><!--MD5=[52e7df7f1d784cedd7acc3b0170c7758]
@startuml

autonumber

actor PortStaff #red

System - -> PortStaff: Authentication Request
PortStaff -> System : Another authentication Response
System - -> PortStaff : Authentication successful
PortStaff - -> PortStaffUI : Wish to fill a statically reserved matrix in memory with each container's ID in its respective place.
PortStaffUI - -> AllocateCargoManifestToPortUI : Connects
AllocateCargoManifestToPortUI - -> PortStaff : Asks for Cargo Manifest ID
PortStaff - -> AllocateCargoManifestToPortUI : Inserts Cargo Manifest ID
AllocateCargoManifestToPortUI - -> AllocateCargoManifestToPortController : asks for the info
database       "DataBase"              as db
AllocateCargoManifestToPortController - -> db** : allocateCargoManifestToPortController(cargoManifestId)
db - -> AllocateCargoManifestToPortController : boolean
AllocateCargoManifestToPortController - -> AllocateCargoManifestToPortUI : boolean
AllocateCargoManifestToPortUI - -> PortStaff : Warns of the successful/unsuccessful of the task

@enduml

PlantUML version 1.2021.11(Sat Oct 02 14:26:11 BST 2021)
(GPL source distribution)
Java Runtime: OpenJDK Runtime Environment
JVM: OpenJDK 64-Bit Server VM
Default Encoding: Cp1252
Language: pt
Country: PT
--></g></svg>