<?xml version="1.0" encoding="UTF-8" standalone="no"?><svg xmlns="http://www.w3.org/2000/svg" xmlns:xlink="http://www.w3.org/1999/xlink" contentScriptType="application/ecmascript" contentStyleType="text/css" height="805px" preserveAspectRatio="none" style="width:452px;height:805px;" version="1.1" viewBox="0 0 452 805" width="452px" zoomAndPan="magnify"><defs><filter height="300%" id="f1s1js61mc6eyj" width="300%" x="-1" y="-1"><feGaussianBlur result="blurOut" stdDeviation="2.0"/><feColorMatrix in="blurOut" result="blurOut2" type="matrix" values="0 0 0 0 0 0 0 0 0 0 0 0 0 0 0 0 0 0 .4 0"/><feOffset dx="4.0" dy="4.0" in="blurOut2" result="blurOut3"/><feBlend in="SourceGraphic" in2="blurOut3" mode="normal"/></filter></defs><g><!--MD5=[e9a58730c562b34349daa605d1ed6662]
class Container--><rect fill="#FEFECE" filter="url(#f1s1js61mc6eyj)" height="158.6875" id="Container" style="stroke: #A80036; stroke-width: 1.5;" width="150" x="57.5" y="636"/><ellipse cx="101.3" cy="652" fill="#ADD1B2" rx="11" ry="11" style="stroke: #A80036; stroke-width: 1.0;"/><path d="M103.3,648.5 Q103.5031,648 103.7375,647.75 Q103.9719,647.5 104.2375,647.5 Q104.7063,647.5 105.0031,647.7813 Q105.3,648.0625 105.3,648.7188 L105.3,650.2813 Q105.3,650.9375 105.0188,651.2188 Q104.7375,651.5 104.3,651.5 Q103.9094,651.5 103.6594,651.3281 Q103.4094,651.1563 103.3,650.7031 Q103.2531,650.3906 103.0813,650.2188 Q102.7688,649.8906 102.2063,649.7031 Q101.6438,649.5 101.0813,649.5 Q100.3781,649.5 99.7844,649.7813 Q99.2063,650.0625 98.7531,650.6875 Q98.3,651.3125 98.3,652.1719 L98.3,653.0938 Q98.3,654.125 99.1438,654.8125 Q99.9875,655.5 101.4875,655.5 Q102.3781,655.5 103.0031,655.2969 Q103.3625,655.1875 103.7688,654.8281 Q104.0344,654.625 104.175,654.5625 Q104.3156,654.5 104.4875,654.5 Q104.8156,654.5 105.05,654.7656 Q105.3,655.0156 105.3,655.375 Q105.3,655.7188 104.9563,656.125 Q104.4563,656.7188 103.6594,657.0469 Q102.6125,657.5 101.3313,657.5 Q99.8313,657.5 98.6281,656.9063 Q97.6594,656.4375 96.9719,655.4219 Q96.3,654.4063 96.3,653.2031 L96.3,652.1094 Q96.3,650.8594 96.8938,649.7656 Q97.5031,648.6719 98.55,648.0938 Q99.6125,647.5 100.8,647.5 Q101.5188,647.5 102.1438,647.75 Q102.7688,648 103.3,648.5 Z "/><text fill="#000000" font-family="sans-serif" font-size="12" lengthAdjust="spacingAndGlyphs" textLength="54" x="121.7" y="656.9102">Container</text><line style="stroke: #A80036; stroke-width: 1.5;" x1="58.5" x2="206.5" y1="668" y2="668"/><rect fill="none" height="6" style="stroke: #C82930; stroke-width: 1.0;" width="6" x="65.5" y="676"/><text fill="#000000" font-family="sans-serif" font-size="11" lengthAdjust="spacingAndGlyphs" textLength="94" x="77.5" y="683.4189">String containerID &lt;</text><text fill="#000000" font-family="sans-serif" font-size="11" font-weight="bold" lengthAdjust="spacingAndGlyphs" textLength="20" x="171.5" y="683.4189">PK&gt;</text><rect fill="none" height="6" style="stroke: #C82930; stroke-width: 1.0;" width="6" x="65.5" y="689.8359"/><text fill="#000000" font-family="sans-serif" font-size="11" lengthAdjust="spacingAndGlyphs" textLength="63" x="77.5" y="697.2549">int checkDigit</text><rect fill="none" height="6" style="stroke: #C82930; stroke-width: 1.0;" width="6" x="65.5" y="703.6719"/><text fill="#000000" font-family="sans-serif" font-size="11" lengthAdjust="spacingAndGlyphs" textLength="48" x="77.5" y="711.0908">String ISO</text><rect fill="none" height="6" style="stroke: #C82930; stroke-width: 1.0;" width="6" x="65.5" y="717.5078"/><text fill="#000000" font-family="sans-serif" font-size="11" lengthAdjust="spacingAndGlyphs" textLength="42" x="77.5" y="724.9268">int gross</text><rect fill="none" height="6" style="stroke: #C82930; stroke-width: 1.0;" width="6" x="65.5" y="731.3438"/><text fill="#000000" font-family="sans-serif" font-size="11" lengthAdjust="spacingAndGlyphs" textLength="33" x="77.5" y="738.7627">int tare</text><rect fill="none" height="6" style="stroke: #C82930; stroke-width: 1.0;" width="6" x="65.5" y="745.1797"/><text fill="#000000" font-family="sans-serif" font-size="11" lengthAdjust="spacingAndGlyphs" textLength="52" x="77.5" y="752.5986">int payload</text><rect fill="none" height="6" style="stroke: #C82930; stroke-width: 1.0;" width="6" x="65.5" y="759.0156"/><text fill="#000000" font-family="sans-serif" font-size="11" lengthAdjust="spacingAndGlyphs" textLength="70" x="77.5" y="766.4346">int maxVolume</text><rect fill="none" height="6" style="stroke: #C82930; stroke-width: 1.0;" width="6" x="65.5" y="772.8516"/><text fill="#000000" font-family="sans-serif" font-size="11" lengthAdjust="spacingAndGlyphs" textLength="124" x="77.5" y="780.2705">int repairRecommendation</text><line style="stroke: #A80036; stroke-width: 1.5;" x1="58.5" x2="206.5" y1="786.6875" y2="786.6875"/><!--MD5=[ed6624c6556d5e7b1bd23032162d20b7]
class Client--><rect fill="#FEFECE" filter="url(#f1s1js61mc6eyj)" height="48" id="Client" style="stroke: #A80036; stroke-width: 1.5;" width="64" x="278.5" y="8"/><ellipse cx="293.5" cy="24" fill="#ADD1B2" rx="11" ry="11" style="stroke: #A80036; stroke-width: 1.0;"/><path d="M295.5,20.5 Q295.7031,20 295.9375,19.75 Q296.1719,19.5 296.4375,19.5 Q296.9063,19.5 297.2031,19.7813 Q297.5,20.0625 297.5,20.7188 L297.5,22.2813 Q297.5,22.9375 297.2188,23.2188 Q296.9375,23.5 296.5,23.5 Q296.1094,23.5 295.8594,23.3281 Q295.6094,23.1563 295.5,22.7031 Q295.4531,22.3906 295.2813,22.2188 Q294.9688,21.8906 294.4063,21.7031 Q293.8438,21.5 293.2813,21.5 Q292.5781,21.5 291.9844,21.7813 Q291.4063,22.0625 290.9531,22.6875 Q290.5,23.3125 290.5,24.1719 L290.5,25.0938 Q290.5,26.125 291.3438,26.8125 Q292.1875,27.5 293.6875,27.5 Q294.5781,27.5 295.2031,27.2969 Q295.5625,27.1875 295.9688,26.8281 Q296.2344,26.625 296.375,26.5625 Q296.5156,26.5 296.6875,26.5 Q297.0156,26.5 297.25,26.7656 Q297.5,27.0156 297.5,27.375 Q297.5,27.7188 297.1563,28.125 Q296.6563,28.7188 295.8594,29.0469 Q294.8125,29.5 293.5313,29.5 Q292.0313,29.5 290.8281,28.9063 Q289.8594,28.4375 289.1719,27.4219 Q288.5,26.4063 288.5,25.2031 L288.5,24.1094 Q288.5,22.8594 289.0938,21.7656 Q289.7031,20.6719 290.75,20.0938 Q291.8125,19.5 293,19.5 Q293.7188,19.5 294.3438,19.75 Q294.9688,20 295.5,20.5 Z "/><text fill="#000000" font-family="sans-serif" font-size="12" lengthAdjust="spacingAndGlyphs" textLength="32" x="307.5" y="28.9102">Client</text><line style="stroke: #A80036; stroke-width: 1.5;" x1="279.5" x2="341.5" y1="40" y2="40"/><line style="stroke: #A80036; stroke-width: 1.5;" x1="279.5" x2="341.5" y1="48" y2="48"/><!--MD5=[3fd616f346a44cd59a91eb10b19e157c]
class User--><rect fill="#FEFECE" filter="url(#f1s1js61mc6eyj)" height="48" id="User" style="stroke: #A80036; stroke-width: 1.5;" width="59" x="369" y="161.5"/><ellipse cx="384" cy="177.5" fill="#ADD1B2" rx="11" ry="11" style="stroke: #A80036; stroke-width: 1.0;"/><path d="M386,174 Q386.2031,173.5 386.4375,173.25 Q386.6719,173 386.9375,173 Q387.4063,173 387.7031,173.2813 Q388,173.5625 388,174.2188 L388,175.7813 Q388,176.4375 387.7188,176.7188 Q387.4375,177 387,177 Q386.6094,177 386.3594,176.8281 Q386.1094,176.6563 386,176.2031 Q385.9531,175.8906 385.7813,175.7188 Q385.4688,175.3906 384.9063,175.2031 Q384.3438,175 383.7813,175 Q383.0781,175 382.4844,175.2813 Q381.9063,175.5625 381.4531,176.1875 Q381,176.8125 381,177.6719 L381,178.5938 Q381,179.625 381.8438,180.3125 Q382.6875,181 384.1875,181 Q385.0781,181 385.7031,180.7969 Q386.0625,180.6875 386.4688,180.3281 Q386.7344,180.125 386.875,180.0625 Q387.0156,180 387.1875,180 Q387.5156,180 387.75,180.2656 Q388,180.5156 388,180.875 Q388,181.2188 387.6563,181.625 Q387.1563,182.2188 386.3594,182.5469 Q385.3125,183 384.0313,183 Q382.5313,183 381.3281,182.4063 Q380.3594,181.9375 379.6719,180.9219 Q379,179.9063 379,178.7031 L379,177.6094 Q379,176.3594 379.5938,175.2656 Q380.2031,174.1719 381.25,173.5938 Q382.3125,173 383.5,173 Q384.2188,173 384.8438,173.25 Q385.4688,173.5 386,174 Z "/><text fill="#000000" font-family="sans-serif" font-size="12" lengthAdjust="spacingAndGlyphs" textLength="27" x="398" y="182.4102">User</text><line style="stroke: #A80036; stroke-width: 1.5;" x1="370" x2="427" y1="193.5" y2="193.5"/><line style="stroke: #A80036; stroke-width: 1.5;" x1="370" x2="427" y1="201.5" y2="201.5"/><!--MD5=[45d42ff7800d812d5f83c7d3273eb427]
class UserRole--><rect fill="#FEFECE" filter="url(#f1s1js61mc6eyj)" height="48" id="UserRole" style="stroke: #A80036; stroke-width: 1.5;" width="85" x="356" y="349.5"/><ellipse cx="371" cy="365.5" fill="#ADD1B2" rx="11" ry="11" style="stroke: #A80036; stroke-width: 1.0;"/><path d="M373,362 Q373.2031,361.5 373.4375,361.25 Q373.6719,361 373.9375,361 Q374.4063,361 374.7031,361.2813 Q375,361.5625 375,362.2188 L375,363.7813 Q375,364.4375 374.7188,364.7188 Q374.4375,365 374,365 Q373.6094,365 373.3594,364.8281 Q373.1094,364.6563 373,364.2031 Q372.9531,363.8906 372.7813,363.7188 Q372.4688,363.3906 371.9063,363.2031 Q371.3438,363 370.7813,363 Q370.0781,363 369.4844,363.2813 Q368.9063,363.5625 368.4531,364.1875 Q368,364.8125 368,365.6719 L368,366.5938 Q368,367.625 368.8438,368.3125 Q369.6875,369 371.1875,369 Q372.0781,369 372.7031,368.7969 Q373.0625,368.6875 373.4688,368.3281 Q373.7344,368.125 373.875,368.0625 Q374.0156,368 374.1875,368 Q374.5156,368 374.75,368.2656 Q375,368.5156 375,368.875 Q375,369.2188 374.6563,369.625 Q374.1563,370.2188 373.3594,370.5469 Q372.3125,371 371.0313,371 Q369.5313,371 368.3281,370.4063 Q367.3594,369.9375 366.6719,368.9219 Q366,367.9063 366,366.7031 L366,365.6094 Q366,364.3594 366.5938,363.2656 Q367.2031,362.1719 368.25,361.5938 Q369.3125,361 370.5,361 Q371.2188,361 371.8438,361.25 Q372.4688,361.5 373,362 Z "/><text fill="#000000" font-family="sans-serif" font-size="12" lengthAdjust="spacingAndGlyphs" textLength="53" x="385" y="370.4102">UserRole</text><line style="stroke: #A80036; stroke-width: 1.5;" x1="357" x2="440" y1="381.5" y2="381.5"/><line style="stroke: #A80036; stroke-width: 1.5;" x1="357" x2="440" y1="389.5" y2="389.5"/><!--MD5=[02e4b9b7573f1156f41e60aa5b4e25a4]
class Company--><rect fill="#FEFECE" filter="url(#f1s1js61mc6eyj)" height="48" id="Company" style="stroke: #A80036; stroke-width: 1.5;" width="85" x="90" y="510"/><ellipse cx="105" cy="526" fill="#ADD1B2" rx="11" ry="11" style="stroke: #A80036; stroke-width: 1.0;"/><path d="M107,522.5 Q107.2031,522 107.4375,521.75 Q107.6719,521.5 107.9375,521.5 Q108.4063,521.5 108.7031,521.7813 Q109,522.0625 109,522.7188 L109,524.2813 Q109,524.9375 108.7188,525.2188 Q108.4375,525.5 108,525.5 Q107.6094,525.5 107.3594,525.3281 Q107.1094,525.1563 107,524.7031 Q106.9531,524.3906 106.7813,524.2188 Q106.4688,523.8906 105.9063,523.7031 Q105.3438,523.5 104.7813,523.5 Q104.0781,523.5 103.4844,523.7813 Q102.9063,524.0625 102.4531,524.6875 Q102,525.3125 102,526.1719 L102,527.0938 Q102,528.125 102.8438,528.8125 Q103.6875,529.5 105.1875,529.5 Q106.0781,529.5 106.7031,529.2969 Q107.0625,529.1875 107.4688,528.8281 Q107.7344,528.625 107.875,528.5625 Q108.0156,528.5 108.1875,528.5 Q108.5156,528.5 108.75,528.7656 Q109,529.0156 109,529.375 Q109,529.7188 108.6563,530.125 Q108.1563,530.7188 107.3594,531.0469 Q106.3125,531.5 105.0313,531.5 Q103.5313,531.5 102.3281,530.9063 Q101.3594,530.4375 100.6719,529.4219 Q100,528.4063 100,527.2031 L100,526.1094 Q100,524.8594 100.5938,523.7656 Q101.2031,522.6719 102.25,522.0938 Q103.3125,521.5 104.5,521.5 Q105.2188,521.5 105.8438,521.75 Q106.4688,522 107,522.5 Z "/><text fill="#000000" font-family="sans-serif" font-size="12" lengthAdjust="spacingAndGlyphs" textLength="53" x="119" y="530.9102">Company</text><line style="stroke: #A80036; stroke-width: 1.5;" x1="91" x2="174" y1="542" y2="542"/><line style="stroke: #A80036; stroke-width: 1.5;" x1="91" x2="174" y1="550" y2="550"/><!--MD5=[07193b318415a6fb9ecb10ba68dfd47e]
class GetInfoContainerUI--><rect fill="#FEFECE" filter="url(#f1s1js61mc6eyj)" height="103.3438" id="GetInfoContainerUI" style="stroke: #A80036; stroke-width: 1.5;" width="281" x="53" y="134"/><ellipse cx="136.75" cy="150" fill="#ADD1B2" rx="11" ry="11" style="stroke: #A80036; stroke-width: 1.0;"/><path d="M138.75,146.5 Q138.9531,146 139.1875,145.75 Q139.4219,145.5 139.6875,145.5 Q140.1563,145.5 140.4531,145.7813 Q140.75,146.0625 140.75,146.7188 L140.75,148.2813 Q140.75,148.9375 140.4688,149.2188 Q140.1875,149.5 139.75,149.5 Q139.3594,149.5 139.1094,149.3281 Q138.8594,149.1563 138.75,148.7031 Q138.7031,148.3906 138.5313,148.2188 Q138.2188,147.8906 137.6563,147.7031 Q137.0938,147.5 136.5313,147.5 Q135.8281,147.5 135.2344,147.7813 Q134.6563,148.0625 134.2031,148.6875 Q133.75,149.3125 133.75,150.1719 L133.75,151.0938 Q133.75,152.125 134.5938,152.8125 Q135.4375,153.5 136.9375,153.5 Q137.8281,153.5 138.4531,153.2969 Q138.8125,153.1875 139.2188,152.8281 Q139.4844,152.625 139.625,152.5625 Q139.7656,152.5 139.9375,152.5 Q140.2656,152.5 140.5,152.7656 Q140.75,153.0156 140.75,153.375 Q140.75,153.7188 140.4063,154.125 Q139.9063,154.7188 139.1094,155.0469 Q138.0625,155.5 136.7813,155.5 Q135.2813,155.5 134.0781,154.9063 Q133.1094,154.4375 132.4219,153.4219 Q131.75,152.4063 131.75,151.2031 L131.75,150.1094 Q131.75,148.8594 132.3438,147.7656 Q132.9531,146.6719 134,146.0938 Q135.0625,145.5 136.25,145.5 Q136.9688,145.5 137.5938,145.75 Q138.2188,146 138.75,146.5 Z "/><text fill="#000000" font-family="sans-serif" font-size="12" lengthAdjust="spacingAndGlyphs" textLength="105" x="157.25" y="154.9102">GetInfoContainerUI</text><line style="stroke: #A80036; stroke-width: 1.5;" x1="54" x2="333" y1="166" y2="166"/><rect fill="none" height="6" style="stroke: #C82930; stroke-width: 1.0;" width="6" x="61" y="174"/><text fill="#000000" font-family="sans-serif" font-size="11" lengthAdjust="spacingAndGlyphs" textLength="255" x="73" y="181.4189">GetInfoContainerController getInfoContainerController</text><rect fill="none" height="6" style="stroke: #C82930; stroke-width: 1.0;" width="6" x="61" y="187.8359"/><text fill="#000000" font-family="sans-serif" font-size="11" lengthAdjust="spacingAndGlyphs" textLength="52" x="73" y="195.2549">Scanner in</text><line style="stroke: #A80036; stroke-width: 1.5;" x1="54" x2="333" y1="201.6719" y2="201.6719"/><ellipse cx="64" cy="212.6719" fill="#84BE84" rx="3" ry="3" style="stroke: #038048; stroke-width: 1.0;"/><text fill="#000000" font-family="sans-serif" font-size="11" lengthAdjust="spacingAndGlyphs" textLength="98" x="73" y="217.0908">GetInfoContainerUI()</text><ellipse cx="64" cy="226.5078" fill="#84BE84" rx="3" ry="3" style="stroke: #038048; stroke-width: 1.0;"/><text fill="#000000" font-family="sans-serif" font-size="11" lengthAdjust="spacingAndGlyphs" textLength="24" x="73" y="230.9268">run()</text><!--MD5=[4b4a2e14d00155674e899171c71c9a82]
class GetInfoContainerController--><rect fill="#FEFECE" filter="url(#f1s1js61mc6eyj)" height="117.1797" id="GetInfoContainerController" style="stroke: #A80036; stroke-width: 1.5;" width="253" x="6" y="315"/><ellipse cx="54.75" cy="331" fill="#ADD1B2" rx="11" ry="11" style="stroke: #A80036; stroke-width: 1.0;"/><path d="M56.75,327.5 Q56.9531,327 57.1875,326.75 Q57.4219,326.5 57.6875,326.5 Q58.1563,326.5 58.4531,326.7813 Q58.75,327.0625 58.75,327.7188 L58.75,329.2813 Q58.75,329.9375 58.4688,330.2188 Q58.1875,330.5 57.75,330.5 Q57.3594,330.5 57.1094,330.3281 Q56.8594,330.1563 56.75,329.7031 Q56.7031,329.3906 56.5313,329.2188 Q56.2188,328.8906 55.6563,328.7031 Q55.0938,328.5 54.5313,328.5 Q53.8281,328.5 53.2344,328.7813 Q52.6563,329.0625 52.2031,329.6875 Q51.75,330.3125 51.75,331.1719 L51.75,332.0938 Q51.75,333.125 52.5938,333.8125 Q53.4375,334.5 54.9375,334.5 Q55.8281,334.5 56.4531,334.2969 Q56.8125,334.1875 57.2188,333.8281 Q57.4844,333.625 57.625,333.5625 Q57.7656,333.5 57.9375,333.5 Q58.2656,333.5 58.5,333.7656 Q58.75,334.0156 58.75,334.375 Q58.75,334.7188 58.4063,335.125 Q57.9063,335.7188 57.1094,336.0469 Q56.0625,336.5 54.7813,336.5 Q53.2813,336.5 52.0781,335.9063 Q51.1094,335.4375 50.4219,334.4219 Q49.75,333.4063 49.75,332.2031 L49.75,331.1094 Q49.75,329.8594 50.3438,328.7656 Q50.9531,327.6719 52,327.0938 Q53.0625,326.5 54.25,326.5 Q54.9688,326.5 55.5938,326.75 Q56.2188,327 56.75,327.5 Z "/><text fill="#000000" font-family="sans-serif" font-size="12" lengthAdjust="spacingAndGlyphs" textLength="147" x="75.25" y="335.9102">GetInfoContainerController</text><line style="stroke: #A80036; stroke-width: 1.5;" x1="7" x2="258" y1="347" y2="347"/><rect fill="none" height="6" style="stroke: #C82930; stroke-width: 1.0;" width="6" x="14" y="355"/><text fill="#000000" font-family="sans-serif" font-size="11" lengthAdjust="spacingAndGlyphs" textLength="92" x="26" y="362.4189">Company company</text><line style="stroke: #A80036; stroke-width: 1.5;" x1="7" x2="258" y1="368.8359" y2="368.8359"/><ellipse cx="17" cy="379.8359" fill="#84BE84" rx="3" ry="3" style="stroke: #038048; stroke-width: 1.0;"/><text fill="#000000" font-family="sans-serif" font-size="11" lengthAdjust="spacingAndGlyphs" textLength="135" x="26" y="384.2549">GetInfoContainerController()</text><ellipse cx="17" cy="393.6719" fill="#84BE84" rx="3" ry="3" style="stroke: #038048; stroke-width: 1.0;"/><text fill="#000000" font-family="sans-serif" font-size="11" lengthAdjust="spacingAndGlyphs" textLength="227" x="26" y="398.0908">GetInfoContainerController(Company company)</text><ellipse cx="17" cy="407.5078" fill="#84BE84" rx="3" ry="3" style="stroke: #038048; stroke-width: 1.0;"/><text fill="#000000" font-family="sans-serif" font-size="11" lengthAdjust="spacingAndGlyphs" textLength="218" x="26" y="411.9268">getInfoContainerController(String containerID)</text><ellipse cx="17" cy="421.3438" fill="#84BE84" rx="3" ry="3" style="stroke: #038048; stroke-width: 1.0;"/><text fill="#000000" font-family="sans-serif" font-size="11" lengthAdjust="spacingAndGlyphs" textLength="68" x="26" y="425.7627">getCompany()</text><!--MD5=[8030eb16960fb5a733dd5b4cc9053b1b]
link Client to GetInfoContainerUI--><path d="M292.73,56.01 C277.621,75.574 255.315,104.457 235.677,129.886 " fill="none" id="Client-&gt;GetInfoContainerUI" style="stroke: #A80036; stroke-width: 1.0;"/><polygon fill="#A80036" points="232.55,133.936,241.2166,129.2574,235.6059,129.9786,234.8847,124.3679,232.55,133.936" style="stroke: #A80036; stroke-width: 1.0;"/><text fill="#000000" font-family="sans-serif" font-size="13" lengthAdjust="spacingAndGlyphs" textLength="44" x="269.5" y="100.4951">Access</text><!--MD5=[d2dfe33cef6f8847420a5adeed5ceb82]
link GetInfoContainerUI to GetInfoContainerController--><path d="M117.47,237.301 C109.012,246.176 101.6163,256.105 96.5,267 C90.1068,280.614 90.9129,295.684 95.1364,310.073 " fill="none" id="GetInfoContainerUI-&gt;GetInfoContainerController" style="stroke: #A80036; stroke-width: 1.0;"/><polygon fill="#A80036" points="96.6942,314.923,97.7512,305.131,95.1656,310.1624,90.1342,307.5768,96.6942,314.923" style="stroke: #A80036; stroke-width: 1.0;"/><text fill="#000000" font-family="sans-serif" font-size="13" lengthAdjust="spacingAndGlyphs" textLength="82" x="97.5" y="281.4951">Connects with</text><!--MD5=[69fd37bbfd425ef3cecabfb2a2b9325d]
reverse link GetInfoContainerUI to GetInfoContainerController--><path d="M192.719,242.396 C191.353,256.547 188.865,271.544 184.5,285 C181.229,295.085 176.634,305.25 171.517,314.902 " fill="none" id="GetInfoContainerUI&lt;-GetInfoContainerController" style="stroke: #A80036; stroke-width: 1.0;"/><polygon fill="#A80036" points="193.173,237.224,188.4015,245.8399,192.7359,242.2049,196.3709,246.5392,193.173,237.224" style="stroke: #A80036; stroke-width: 1.0;"/><text fill="#000000" font-family="sans-serif" font-size="13" lengthAdjust="spacingAndGlyphs" textLength="104" x="190.5" y="281.4951">Returns Container</text><!--MD5=[9a8dc34b38f85b9f3fcdb440f4bffc6a]
link Client to User--><path d="M323.865,56.01 C339.565,83.039 365.596,127.853 382.395,156.774 " fill="none" id="Client-&gt;User" style="stroke: #A80036; stroke-width: 1.0;"/><polygon fill="#A80036" points="385.009,161.274,383.948,151.4825,382.4979,156.9503,377.0301,155.5002,385.009,161.274" style="stroke: #A80036; stroke-width: 1.0;"/><text fill="#000000" font-family="sans-serif" font-size="13" lengthAdjust="spacingAndGlyphs" textLength="21" x="349.5" y="100.4951">is a</text><!--MD5=[1f12d177c84922ed4f166f09ee62ceaa]
link User to UserRole--><path d="M398.5,209.681 C398.5,243.746 398.5,307.262 398.5,344.087 " fill="none" id="User-&gt;UserRole" style="stroke: #A80036; stroke-width: 1.0;"/><polygon fill="#A80036" points="398.5,349.32,402.5,340.32,398.5,344.32,394.5,340.32,398.5,349.32" style="stroke: #A80036; stroke-width: 1.0;"/><text fill="#000000" font-family="sans-serif" font-size="13" lengthAdjust="spacingAndGlyphs" textLength="21" x="399.5" y="281.4951">has</text><!--MD5=[926482257f2d6d17373301e679840fac]
link GetInfoContainerController to Company--><path d="M81.8732,432.354 C75.989,441.741 70.8875,451.759 67.5,462 C61.7912,479.258 72.6686,494.669 87.068,506.686 " fill="none" id="GetInfoContainerController-&gt;Company" style="stroke: #A80036; stroke-width: 1.0;"/><polygon fill="#A80036" points="91.2119,509.984,86.6602,501.25,87.2995,506.8706,81.6789,507.5099,91.2119,509.984" style="stroke: #A80036; stroke-width: 1.0;"/><text fill="#000000" font-family="sans-serif" font-size="13" lengthAdjust="spacingAndGlyphs" textLength="82" x="68.5" y="476.4951">Connects with</text><!--MD5=[5b066c7a6abb17d050743ff9c7165467]
link Company to GetInfoContainerController--><path d="M144.954,509.937 C149.186,500.876 153.379,490.214 155.5,480 C158.368,466.187 157.562,451.377 154.994,437.351 " fill="none" id="Company-&gt;GetInfoContainerController" style="stroke: #A80036; stroke-width: 1.0;"/><polygon fill="#A80036" points="153.972,432.223,151.8077,441.8311,154.949,437.1266,159.6535,440.2679,153.972,432.223" style="stroke: #A80036; stroke-width: 1.0;"/><text fill="#000000" font-family="sans-serif" font-size="13" lengthAdjust="spacingAndGlyphs" textLength="104" x="158.5" y="476.4951">Returns Container</text><!--MD5=[295d4b4de4cbb626f52b0a8946e3bb6c]
link Company to Container--><path d="M132.5,558.099 C132.5,576.652 132.5,603.91 132.5,630.493 " fill="none" id="Company-&gt;Container" style="stroke: #A80036; stroke-width: 1.0;"/><polygon fill="#A80036" points="132.5,635.798,136.5,626.798,132.5,630.798,128.5,626.798,132.5,635.798" style="stroke: #A80036; stroke-width: 1.0;"/><text fill="#000000" font-family="sans-serif" font-size="13" lengthAdjust="spacingAndGlyphs" textLength="21" x="133.5" y="602.4951">has</text><!--MD5=[9f02ae6a2efc7dcb02cc12a74b2f12b5]
@startuml

class Container {

    -String containerID <<b>PK>
    -int checkDigit
    -String ISO
    -int gross
    -int tare
    -int payload
    -int maxVolume
    -int repairRecommendation

}

class Client{

}

class User{

}

class UserRole{

}

class Company{

}

class GetInfoContainerUI{
    -GetInfoContainerController getInfoContainerController
    -Scanner in
    +GetInfoContainerUI()
    +run()
}

class GetInfoContainerController{
    -Company company
    +GetInfoContainerController()
    +GetInfoContainerController(Company company)
    +getInfoContainerController(String containerID)
    +getCompany()
}

Client - -> GetInfoContainerUI : Access
GetInfoContainerUI -down-> GetInfoContainerController : Connects with
Client - -> User : is a
User - -> UserRole : has
GetInfoContainerController -up-> GetInfoContainerUI : Returns Container
GetInfoContainerController - -> Company : Connects with
Company - -> GetInfoContainerController : Returns Container
Company - -> Container : has

@enduml

PlantUML version 1.2020.07(Sun Apr 19 12:42:40 BST 2020)
(GPL source distribution)
Java Runtime: OpenJDK Runtime Environment
JVM: OpenJDK 64-Bit Server VM
Java Version: 11.0.6+8-b765.40
Operating System: Windows 10
Default Encoding: Cp1252
Language: pt
Country: PT
--></g></svg>