<?xml version="1.0" encoding="UTF-8" standalone="no"?><svg xmlns="http://www.w3.org/2000/svg" xmlns:xlink="http://www.w3.org/1999/xlink" contentScriptType="application/ecmascript" contentStyleType="text/css" height="482px" preserveAspectRatio="none" style="width:673px;height:482px;" version="1.1" viewBox="0 0 673 482" width="673px" zoomAndPan="magnify"><defs><filter height="300%" id="f1a6b81ezqkjnw" width="300%" x="-1" y="-1"><feGaussianBlur result="blurOut" stdDeviation="2.0"/><feColorMatrix in="blurOut" result="blurOut2" type="matrix" values="0 0 0 0 0 0 0 0 0 0 0 0 0 0 0 0 0 0 .4 0"/><feOffset dx="4.0" dy="4.0" in="blurOut2" result="blurOut3"/><feBlend in="SourceGraphic" in2="blurOut3" mode="normal"/></filter></defs><g><line style="stroke: #A80036; stroke-width: 1.0; stroke-dasharray: 5.0,5.0;" x1="29" x2="29" y1="87.6094" y2="393.6797"/><line style="stroke: #A80036; stroke-width: 1.0; stroke-dasharray: 5.0,5.0;" x1="256" x2="256" y1="87.6094" y2="393.6797"/><line style="stroke: #A80036; stroke-width: 1.0; stroke-dasharray: 5.0,5.0;" x1="367" x2="367" y1="87.6094" y2="393.6797"/><line style="stroke: #A80036; stroke-width: 1.0; stroke-dasharray: 5.0,5.0;" x1="633" x2="633" y1="326.5234" y2="393.6797"/><text fill="#000000" font-family="sans-serif" font-size="14" lengthAdjust="spacingAndGlyphs" textLength="36" x="8" y="84.5332">Client</text><ellipse cx="29" cy="13" fill="#FF0000" filter="url(#f1a6b81ezqkjnw)" rx="8" ry="8" style="stroke: #A80036; stroke-width: 2.0;"/><path d="M29,21 L29,48 M16,29 L42,29 M29,48 L16,63 M29,48 L42,63 " fill="none" filter="url(#f1a6b81ezqkjnw)" style="stroke: #A80036; stroke-width: 2.0;"/><text fill="#000000" font-family="sans-serif" font-size="14" lengthAdjust="spacingAndGlyphs" textLength="36" x="8" y="407.2129">Client</text><ellipse cx="29" cy="420.2891" fill="#FF0000" filter="url(#f1a6b81ezqkjnw)" rx="8" ry="8" style="stroke: #A80036; stroke-width: 2.0;"/><path d="M29,428.2891 L29,455.2891 M16,436.2891 L42,436.2891 M29,455.2891 L16,470.2891 M29,455.2891 L42,470.2891 " fill="none" filter="url(#f1a6b81ezqkjnw)" style="stroke: #A80036; stroke-width: 2.0;"/><rect fill="#FEFECE" filter="url(#f1a6b81ezqkjnw)" height="31.6094" style="stroke: #A80036; stroke-width: 1.5;" width="60" x="224" y="51"/><text fill="#000000" font-family="sans-serif" font-size="14" lengthAdjust="spacingAndGlyphs" textLength="46" x="231" y="72.5332">System</text><rect fill="#FEFECE" filter="url(#f1a6b81ezqkjnw)" height="31.6094" style="stroke: #A80036; stroke-width: 1.5;" width="60" x="224" y="392.6797"/><text fill="#000000" font-family="sans-serif" font-size="14" lengthAdjust="spacingAndGlyphs" textLength="46" x="231" y="414.2129">System</text><rect fill="#FEFECE" filter="url(#f1a6b81ezqkjnw)" height="31.6094" style="stroke: #A80036; stroke-width: 1.5;" width="134" x="298" y="51"/><text fill="#000000" font-family="sans-serif" font-size="14" lengthAdjust="spacingAndGlyphs" textLength="120" x="305" y="72.5332">GetInfoContainerUI</text><rect fill="#FEFECE" filter="url(#f1a6b81ezqkjnw)" height="31.6094" style="stroke: #A80036; stroke-width: 1.5;" width="134" x="298" y="392.6797"/><text fill="#000000" font-family="sans-serif" font-size="14" lengthAdjust="spacingAndGlyphs" textLength="120" x="305" y="414.2129">GetInfoContainerUI</text><text fill="#000000" font-family="sans-serif" font-size="14" lengthAdjust="spacingAndGlyphs" textLength="62" x="599" y="407.2129">DataBase</text><path d="M615,420.2891 C615,410.2891 633,410.2891 633,410.2891 C633,410.2891 651,410.2891 651,420.2891 L651,446.2891 C651,456.2891 633,456.2891 633,456.2891 C633,456.2891 615,456.2891 615,446.2891 L615,420.2891 " fill="#FEFECE" filter="url(#f1a6b81ezqkjnw)" style="stroke: #000000; stroke-width: 1.5;"/><path d="M615,420.2891 C615,430.2891 633,430.2891 633,430.2891 C633,430.2891 651,430.2891 651,420.2891 " fill="none" style="stroke: #000000; stroke-width: 1.5;"/><polygon fill="#A80036" points="40,115.9609,30,119.9609,40,123.9609,36,119.9609" style="stroke: #A80036; stroke-width: 1.0;"/><line style="stroke: #A80036; stroke-width: 1.0; stroke-dasharray: 2.0,2.0;" x1="34" x2="255" y1="119.9609" y2="119.9609"/><text fill="#000000" font-family="sans-serif" font-size="13" font-weight="bold" lengthAdjust="spacingAndGlyphs" textLength="7" x="46" y="115.1045">1</text><text fill="#000000" font-family="sans-serif" font-size="13" lengthAdjust="spacingAndGlyphs" textLength="135" x="57" y="115.1045">Authentication Request</text><polygon fill="#A80036" points="244,146.3125,254,150.3125,244,154.3125,248,150.3125" style="stroke: #A80036; stroke-width: 1.0;"/><line style="stroke: #A80036; stroke-width: 1.0;" x1="29" x2="250" y1="150.3125" y2="150.3125"/><text fill="#000000" font-family="sans-serif" font-size="13" font-weight="bold" lengthAdjust="spacingAndGlyphs" textLength="7" x="36" y="145.4561">2</text><text fill="#000000" font-family="sans-serif" font-size="13" lengthAdjust="spacingAndGlyphs" textLength="192" x="47" y="145.4561">Another authentication Response</text><polygon fill="#A80036" points="40,176.6641,30,180.6641,40,184.6641,36,180.6641" style="stroke: #A80036; stroke-width: 1.0;"/><line style="stroke: #A80036; stroke-width: 1.0; stroke-dasharray: 2.0,2.0;" x1="34" x2="255" y1="180.6641" y2="180.6641"/><text fill="#000000" font-family="sans-serif" font-size="13" font-weight="bold" lengthAdjust="spacingAndGlyphs" textLength="7" x="46" y="175.8076">3</text><text fill="#000000" font-family="sans-serif" font-size="13" lengthAdjust="spacingAndGlyphs" textLength="149" x="57" y="175.8076">Authentication successful</text><polygon fill="#A80036" points="355,207.0156,365,211.0156,355,215.0156,359,211.0156" style="stroke: #A80036; stroke-width: 1.0;"/><line style="stroke: #A80036; stroke-width: 1.0; stroke-dasharray: 2.0,2.0;" x1="29" x2="361" y1="211.0156" y2="211.0156"/><text fill="#000000" font-family="sans-serif" font-size="13" font-weight="bold" lengthAdjust="spacingAndGlyphs" textLength="7" x="36" y="206.1592">4</text><text fill="#000000" font-family="sans-serif" font-size="13" lengthAdjust="spacingAndGlyphs" textLength="289" x="47" y="206.1592">Asking the current situation of a specific container</text><polygon fill="#A80036" points="40,237.3672,30,241.3672,40,245.3672,36,241.3672" style="stroke: #A80036; stroke-width: 1.0;"/><line style="stroke: #A80036; stroke-width: 1.0; stroke-dasharray: 2.0,2.0;" x1="34" x2="366" y1="241.3672" y2="241.3672"/><text fill="#000000" font-family="sans-serif" font-size="13" font-weight="bold" lengthAdjust="spacingAndGlyphs" textLength="7" x="46" y="236.5107">5</text><text fill="#000000" font-family="sans-serif" font-size="13" lengthAdjust="spacingAndGlyphs" textLength="139" x="57" y="236.5107">Asks for the containerID</text><polygon fill="#A80036" points="355,267.7188,365,271.7188,355,275.7188,359,271.7188" style="stroke: #A80036; stroke-width: 1.0;"/><line style="stroke: #A80036; stroke-width: 1.0; stroke-dasharray: 2.0,2.0;" x1="29" x2="361" y1="271.7188" y2="271.7188"/><text fill="#000000" font-family="sans-serif" font-size="13" font-weight="bold" lengthAdjust="spacingAndGlyphs" textLength="7" x="36" y="266.8623">6</text><text fill="#000000" font-family="sans-serif" font-size="13" lengthAdjust="spacingAndGlyphs" textLength="130" x="47" y="266.8623">Inserts the containerID</text><polygon fill="#A80036" points="587,298.0703,597,302.0703,587,306.0703,591,302.0703" style="stroke: #A80036; stroke-width: 1.0;"/><line style="stroke: #A80036; stroke-width: 1.0; stroke-dasharray: 2.0,2.0;" x1="367" x2="593" y1="302.0703" y2="302.0703"/><text fill="#000000" font-family="sans-serif" font-size="13" font-weight="bold" lengthAdjust="spacingAndGlyphs" textLength="7" x="374" y="297.2139">7</text><text fill="#000000" font-family="sans-serif" font-size="13" lengthAdjust="spacingAndGlyphs" textLength="197" x="385" y="297.2139">getInfoContainerController(answer)</text><text fill="#000000" font-family="sans-serif" font-size="14" lengthAdjust="spacingAndGlyphs" textLength="62" x="599" y="340.252">DataBase</text><path d="M615,289.7188 C615,279.7188 633,279.7188 633,279.7188 C633,279.7188 651,279.7188 651,289.7188 L651,315.7188 C651,325.7188 633,325.7188 633,325.7188 C633,325.7188 615,325.7188 615,315.7188 L615,289.7188 " fill="#FEFECE" filter="url(#f1a6b81ezqkjnw)" style="stroke: #000000; stroke-width: 1.5;"/><path d="M615,289.7188 C615,299.7188 633,299.7188 633,299.7188 C633,299.7188 651,299.7188 651,289.7188 " fill="none" style="stroke: #000000; stroke-width: 1.5;"/><polygon fill="#A80036" points="40,371.6797,30,375.6797,40,379.6797,36,375.6797" style="stroke: #A80036; stroke-width: 1.0;"/><line style="stroke: #A80036; stroke-width: 1.0; stroke-dasharray: 2.0,2.0;" x1="34" x2="366" y1="375.6797" y2="375.6797"/><text fill="#000000" font-family="sans-serif" font-size="13" font-weight="bold" lengthAdjust="spacingAndGlyphs" textLength="7" x="46" y="370.8232">8</text><text fill="#000000" font-family="sans-serif" font-size="13" lengthAdjust="spacingAndGlyphs" textLength="173" x="57" y="370.8232">Delivers the information asked</text><!--MD5=[8f398d48d343b96c553e0c9478da103b]
@startuml

autonumber

actor Client #red

System - -> Client: Authentication Request
Client -> System : Another authentication Response
System - -> Client : Authentication successful
Client - -> GetInfoContainerUI : Asking the current situation of a specific container
GetInfoContainerUI - -> Client : Asks for the containerID
Client - -> GetInfoContainerUI : Inserts the containerID
database       "DataBase"              as db
GetInfoContainerUI - -> db** : getInfoContainerController(answer)
GetInfoContainerUI - -> Client : Delivers the information asked

@enduml

PlantUML version 1.2020.07(Sun Apr 19 12:42:40 BST 2020)
(GPL source distribution)
Java Runtime: OpenJDK Runtime Environment
JVM: OpenJDK 64-Bit Server VM
Java Version: 11.0.6+8-b765.40
Operating System: Windows 10
Default Encoding: Cp1252
Language: pt
Country: PT
--></g></svg>