<?xml version="1.0" encoding="UTF-8" standalone="no"?><svg xmlns="http://www.w3.org/2000/svg" xmlns:xlink="http://www.w3.org/1999/xlink" contentScriptType="application/ecmascript" contentStyleType="text/css" height="408px" preserveAspectRatio="none" style="width:392px;height:408px;" version="1.1" viewBox="0 0 392 408" width="392px" zoomAndPan="magnify"><defs><filter height="300%" id="f62995e5k72w4" width="300%" x="-1" y="-1"><feGaussianBlur result="blurOut" stdDeviation="2.0"/><feColorMatrix in="blurOut" result="blurOut2" type="matrix" values="0 0 0 0 0 0 0 0 0 0 0 0 0 0 0 0 0 0 .4 0"/><feOffset dx="4.0" dy="4.0" in="blurOut2" result="blurOut3"/><feBlend in="SourceGraphic" in2="blurOut3" mode="normal"/></filter></defs><g><line style="stroke: #A80036; stroke-width: 1.0; stroke-dasharray: 5.0,5.0;" x1="29" x2="29" y1="87.6094" y2="320.0703"/><line style="stroke: #A80036; stroke-width: 1.0; stroke-dasharray: 5.0,5.0;" x1="353" x2="353" y1="87.6094" y2="320.0703"/><text fill="#000000" font-family="sans-serif" font-size="14" lengthAdjust="spacingAndGlyphs" textLength="36" x="8" y="84.5332">Client</text><ellipse cx="29" cy="13" fill="#FF0000" filter="url(#f62995e5k72w4)" rx="8" ry="8" style="stroke: #A80036; stroke-width: 2.0;"/><path d="M29,21 L29,48 M16,29 L42,29 M29,48 L16,63 M29,48 L42,63 " fill="none" filter="url(#f62995e5k72w4)" style="stroke: #A80036; stroke-width: 2.0;"/><text fill="#000000" font-family="sans-serif" font-size="14" lengthAdjust="spacingAndGlyphs" textLength="36" x="8" y="333.6035">Client</text><ellipse cx="29" cy="346.6797" fill="#FF0000" filter="url(#f62995e5k72w4)" rx="8" ry="8" style="stroke: #A80036; stroke-width: 2.0;"/><path d="M29,354.6797 L29,381.6797 M16,362.6797 L42,362.6797 M29,381.6797 L16,396.6797 M29,381.6797 L42,396.6797 " fill="none" filter="url(#f62995e5k72w4)" style="stroke: #A80036; stroke-width: 2.0;"/><rect fill="#FEFECE" filter="url(#f62995e5k72w4)" height="31.6094" style="stroke: #A80036; stroke-width: 1.5;" width="60" x="321" y="51"/><text fill="#000000" font-family="sans-serif" font-size="14" lengthAdjust="spacingAndGlyphs" textLength="46" x="328" y="72.5332">System</text><rect fill="#FEFECE" filter="url(#f62995e5k72w4)" height="31.6094" style="stroke: #A80036; stroke-width: 1.5;" width="60" x="321" y="319.0703"/><text fill="#000000" font-family="sans-serif" font-size="14" lengthAdjust="spacingAndGlyphs" textLength="46" x="328" y="340.6035">System</text><polygon fill="#A80036" points="40,115.9609,30,119.9609,40,123.9609,36,119.9609" style="stroke: #A80036; stroke-width: 1.0;"/><line style="stroke: #A80036; stroke-width: 1.0; stroke-dasharray: 2.0,2.0;" x1="34" x2="352" y1="119.9609" y2="119.9609"/><text fill="#000000" font-family="sans-serif" font-size="13" font-weight="bold" lengthAdjust="spacingAndGlyphs" textLength="7" x="46" y="115.1045">1</text><text fill="#000000" font-family="sans-serif" font-size="13" lengthAdjust="spacingAndGlyphs" textLength="135" x="57" y="115.1045">Authentication Request</text><polygon fill="#A80036" points="341,146.3125,351,150.3125,341,154.3125,345,150.3125" style="stroke: #A80036; stroke-width: 1.0;"/><line style="stroke: #A80036; stroke-width: 1.0;" x1="29" x2="347" y1="150.3125" y2="150.3125"/><text fill="#000000" font-family="sans-serif" font-size="13" font-weight="bold" lengthAdjust="spacingAndGlyphs" textLength="7" x="36" y="145.4561">2</text><text fill="#000000" font-family="sans-serif" font-size="13" lengthAdjust="spacingAndGlyphs" textLength="192" x="47" y="145.4561">Another authentication Response</text><polygon fill="#A80036" points="40,176.6641,30,180.6641,40,184.6641,36,180.6641" style="stroke: #A80036; stroke-width: 1.0;"/><line style="stroke: #A80036; stroke-width: 1.0; stroke-dasharray: 2.0,2.0;" x1="34" x2="352" y1="180.6641" y2="180.6641"/><text fill="#000000" font-family="sans-serif" font-size="13" font-weight="bold" lengthAdjust="spacingAndGlyphs" textLength="7" x="46" y="175.8076">3</text><text fill="#000000" font-family="sans-serif" font-size="13" lengthAdjust="spacingAndGlyphs" textLength="149" x="57" y="175.8076">Authentication successful</text><polygon fill="#A80036" points="341,207.0156,351,211.0156,341,215.0156,345,211.0156" style="stroke: #A80036; stroke-width: 1.0;"/><line style="stroke: #A80036; stroke-width: 1.0; stroke-dasharray: 2.0,2.0;" x1="29" x2="347" y1="211.0156" y2="211.0156"/><text fill="#000000" font-family="sans-serif" font-size="13" font-weight="bold" lengthAdjust="spacingAndGlyphs" textLength="7" x="36" y="206.1592">4</text><text fill="#000000" font-family="sans-serif" font-size="13" lengthAdjust="spacingAndGlyphs" textLength="289" x="47" y="206.1592">Asking the current situation of a specific container</text><polygon fill="#A80036" points="40,237.3672,30,241.3672,40,245.3672,36,241.3672" style="stroke: #A80036; stroke-width: 1.0;"/><line style="stroke: #A80036; stroke-width: 1.0; stroke-dasharray: 2.0,2.0;" x1="34" x2="352" y1="241.3672" y2="241.3672"/><text fill="#000000" font-family="sans-serif" font-size="13" font-weight="bold" lengthAdjust="spacingAndGlyphs" textLength="7" x="46" y="236.5107">5</text><text fill="#000000" font-family="sans-serif" font-size="13" lengthAdjust="spacingAndGlyphs" textLength="139" x="57" y="236.5107">Asks for the containerID</text><polygon fill="#A80036" points="341,267.7188,351,271.7188,341,275.7188,345,271.7188" style="stroke: #A80036; stroke-width: 1.0;"/><line style="stroke: #A80036; stroke-width: 1.0; stroke-dasharray: 2.0,2.0;" x1="29" x2="347" y1="271.7188" y2="271.7188"/><text fill="#000000" font-family="sans-serif" font-size="13" font-weight="bold" lengthAdjust="spacingAndGlyphs" textLength="7" x="36" y="266.8623">6</text><text fill="#000000" font-family="sans-serif" font-size="13" lengthAdjust="spacingAndGlyphs" textLength="130" x="47" y="266.8623">Inserts the containerID</text><polygon fill="#A80036" points="40,298.0703,30,302.0703,40,306.0703,36,302.0703" style="stroke: #A80036; stroke-width: 1.0;"/><line style="stroke: #A80036; stroke-width: 1.0; stroke-dasharray: 2.0,2.0;" x1="34" x2="352" y1="302.0703" y2="302.0703"/><text fill="#000000" font-family="sans-serif" font-size="13" font-weight="bold" lengthAdjust="spacingAndGlyphs" textLength="7" x="46" y="297.2139">7</text><text fill="#000000" font-family="sans-serif" font-size="13" lengthAdjust="spacingAndGlyphs" textLength="173" x="57" y="297.2139">Delivers the information asked</text><!--MD5=[0e6c91989e429ddfa779cfa866bafca4]
@startuml
autonumber

actor Client #red

System - -> Client: Authentication Request
Client -> System : Another authentication Response
System - -> Client : Authentication successful
Client - -> System : Asking the current situation of a specific container
System - -> Client : Asks for the containerID
Client - -> System : Inserts the containerID
System - -> Client : Delivers the information asked

@enduml

PlantUML version 1.2020.07(Sun Apr 19 12:42:40 BST 2020)
(GPL source distribution)
Java Runtime: OpenJDK Runtime Environment
JVM: OpenJDK 64-Bit Server VM
Java Version: 11.0.6+8-b765.40
Operating System: Windows 10
Default Encoding: Cp1252
Language: pt
Country: PT
--></g></svg>