<?xml version="1.0" encoding="UTF-8" standalone="no"?><svg xmlns="http://www.w3.org/2000/svg" xmlns:xlink="http://www.w3.org/1999/xlink" contentScriptType="application/ecmascript" contentStyleType="text/css" height="327px" preserveAspectRatio="none" style="width:176px;height:327px;" version="1.1" viewBox="0 0 176 327" width="176px" zoomAndPan="magnify"><defs><filter height="300%" id="f19bxb7wwmqpre" width="300%" x="-1" y="-1"><feGaussianBlur result="blurOut" stdDeviation="2.0"/><feColorMatrix in="blurOut" result="blurOut2" type="matrix" values="0 0 0 0 0 0 0 0 0 0 0 0 0 0 0 0 0 0 .4 0"/><feOffset dx="4.0" dy="4.0" in="blurOut2" result="blurOut3"/><feBlend in="SourceGraphic" in2="blurOut3" mode="normal"/></filter></defs><g><!--MD5=[0dc7f2ddb409b58bcf52b12238c25399]
class Ship--><rect fill="#FEFECE" filter="url(#f19bxb7wwmqpre)" height="200.1953" id="Ship" style="stroke: #A80036; stroke-width: 1.5;" width="159" x="6" y="116"/><ellipse cx="68.75" cy="132" fill="#ADD1B2" rx="11" ry="11" style="stroke: #A80036; stroke-width: 1.0;"/><path d="M70.75,128.5 Q70.9531,128 71.1875,127.75 Q71.4219,127.5 71.6875,127.5 Q72.1563,127.5 72.4531,127.7813 Q72.75,128.0625 72.75,128.7188 L72.75,130.2813 Q72.75,130.9375 72.4688,131.2188 Q72.1875,131.5 71.75,131.5 Q71.3594,131.5 71.1094,131.3281 Q70.8594,131.1563 70.75,130.7031 Q70.7031,130.3906 70.5313,130.2188 Q70.2188,129.8906 69.6563,129.7031 Q69.0938,129.5 68.5313,129.5 Q67.8281,129.5 67.2344,129.7813 Q66.6563,130.0625 66.2031,130.6875 Q65.75,131.3125 65.75,132.1719 L65.75,133.0938 Q65.75,134.125 66.5938,134.8125 Q67.4375,135.5 68.9375,135.5 Q69.8281,135.5 70.4531,135.2969 Q70.8125,135.1875 71.2188,134.8281 Q71.4844,134.625 71.625,134.5625 Q71.7656,134.5 71.9375,134.5 Q72.2656,134.5 72.5,134.7656 Q72.75,135.0156 72.75,135.375 Q72.75,135.7188 72.4063,136.125 Q71.9063,136.7188 71.1094,137.0469 Q70.0625,137.5 68.7813,137.5 Q67.2813,137.5 66.0781,136.9063 Q65.1094,136.4375 64.4219,135.4219 Q63.75,134.4063 63.75,133.2031 L63.75,132.1094 Q63.75,130.8594 64.3438,129.7656 Q64.9531,128.6719 66,128.0938 Q67.0625,127.5 68.25,127.5 Q68.9688,127.5 69.5938,127.75 Q70.2188,128 70.75,128.5 Z "/><text fill="#000000" font-family="sans-serif" font-size="12" lengthAdjust="spacingAndGlyphs" textLength="25" x="89.25" y="136.9102">Ship</text><line style="stroke: #A80036; stroke-width: 1.5;" x1="7" x2="164" y1="148" y2="148"/><rect fill="none" height="6" style="stroke: #C82930; stroke-width: 1.0;" width="6" x="14" y="156"/><text fill="#000000" font-family="sans-serif" font-size="11" lengthAdjust="spacingAndGlyphs" textLength="48" x="26" y="163.4189">int MMSI &lt;</text><text fill="#000000" font-family="sans-serif" font-size="11" font-weight="bold" lengthAdjust="spacingAndGlyphs" textLength="20" x="74" y="163.4189">PK&gt;</text><rect fill="none" height="6" style="stroke: #C82930; stroke-width: 1.0;" width="6" x="14" y="169.8359"/><text fill="#000000" font-family="sans-serif" font-size="11" lengthAdjust="spacingAndGlyphs" textLength="57" x="26" y="177.2549">String name</text><rect fill="none" height="6" style="stroke: #C82930; stroke-width: 1.0;" width="6" x="14" y="183.6719"/><text fill="#000000" font-family="sans-serif" font-size="11" lengthAdjust="spacingAndGlyphs" textLength="32" x="26" y="191.0908">int IMO</text><rect fill="none" height="6" style="stroke: #C82930; stroke-width: 1.0;" width="6" x="14" y="197.5078"/><text fill="#000000" font-family="sans-serif" font-size="11" lengthAdjust="spacingAndGlyphs" textLength="133" x="26" y="204.9268">int numberEnergyGenerator</text><rect fill="none" height="6" style="stroke: #C82930; stroke-width: 1.0;" width="6" x="14" y="211.3438"/><text fill="#000000" font-family="sans-serif" font-size="11" lengthAdjust="spacingAndGlyphs" textLength="78" x="26" y="218.7627">int powerOutput</text><rect fill="none" height="6" style="stroke: #C82930; stroke-width: 1.0;" width="6" x="14" y="225.1797"/><text fill="#000000" font-family="sans-serif" font-size="11" lengthAdjust="spacingAndGlyphs" textLength="68" x="26" y="232.5986">String callSign</text><rect fill="none" height="6" style="stroke: #C82930; stroke-width: 1.0;" width="6" x="14" y="239.0156"/><text fill="#000000" font-family="sans-serif" font-size="11" lengthAdjust="spacingAndGlyphs" textLength="70" x="26" y="246.4346">int vesselType</text><rect fill="none" height="6" style="stroke: #C82930; stroke-width: 1.0;" width="6" x="14" y="252.8516"/><text fill="#000000" font-family="sans-serif" font-size="11" lengthAdjust="spacingAndGlyphs" textLength="64" x="26" y="260.2705">double length</text><rect fill="none" height="6" style="stroke: #C82930; stroke-width: 1.0;" width="6" x="14" y="266.6875"/><text fill="#000000" font-family="sans-serif" font-size="11" lengthAdjust="spacingAndGlyphs" textLength="62" x="26" y="274.1064">double width</text><rect fill="none" height="6" style="stroke: #C82930; stroke-width: 1.0;" width="6" x="14" y="280.5234"/><text fill="#000000" font-family="sans-serif" font-size="11" lengthAdjust="spacingAndGlyphs" textLength="100" x="26" y="287.9424">int maximumCapacity</text><rect fill="none" height="6" style="stroke: #C82930; stroke-width: 1.0;" width="6" x="14" y="294.3594"/><text fill="#000000" font-family="sans-serif" font-size="11" lengthAdjust="spacingAndGlyphs" textLength="58" x="26" y="301.7783">double draft</text><line style="stroke: #A80036; stroke-width: 1.5;" x1="7" x2="164" y1="308.1953" y2="308.1953"/><!--MD5=[ddaf6f62b0bc30921877ec9fb9463c9f]
class TrafficManager--><rect fill="#FEFECE" filter="url(#f19bxb7wwmqpre)" height="48" id="TrafficManager" style="stroke: #A80036; stroke-width: 1.5;" width="113" x="29" y="8"/><ellipse cx="44" cy="24" fill="#ADD1B2" rx="11" ry="11" style="stroke: #A80036; stroke-width: 1.0;"/><path d="M46,20.5 Q46.2031,20 46.4375,19.75 Q46.6719,19.5 46.9375,19.5 Q47.4063,19.5 47.7031,19.7813 Q48,20.0625 48,20.7188 L48,22.2813 Q48,22.9375 47.7188,23.2188 Q47.4375,23.5 47,23.5 Q46.6094,23.5 46.3594,23.3281 Q46.1094,23.1563 46,22.7031 Q45.9531,22.3906 45.7813,22.2188 Q45.4688,21.8906 44.9063,21.7031 Q44.3438,21.5 43.7813,21.5 Q43.0781,21.5 42.4844,21.7813 Q41.9063,22.0625 41.4531,22.6875 Q41,23.3125 41,24.1719 L41,25.0938 Q41,26.125 41.8438,26.8125 Q42.6875,27.5 44.1875,27.5 Q45.0781,27.5 45.7031,27.2969 Q46.0625,27.1875 46.4688,26.8281 Q46.7344,26.625 46.875,26.5625 Q47.0156,26.5 47.1875,26.5 Q47.5156,26.5 47.75,26.7656 Q48,27.0156 48,27.375 Q48,27.7188 47.6563,28.125 Q47.1563,28.7188 46.3594,29.0469 Q45.3125,29.5 44.0313,29.5 Q42.5313,29.5 41.3281,28.9063 Q40.3594,28.4375 39.6719,27.4219 Q39,26.4063 39,25.2031 L39,24.1094 Q39,22.8594 39.5938,21.7656 Q40.2031,20.6719 41.25,20.0938 Q42.3125,19.5 43.5,19.5 Q44.2188,19.5 44.8438,19.75 Q45.4688,20 46,20.5 Z "/><text fill="#000000" font-family="sans-serif" font-size="12" lengthAdjust="spacingAndGlyphs" textLength="81" x="58" y="28.9102">TrafficManager</text><line style="stroke: #A80036; stroke-width: 1.5;" x1="30" x2="141" y1="40" y2="40"/><line style="stroke: #A80036; stroke-width: 1.5;" x1="30" x2="141" y1="48" y2="48"/><!--MD5=[40e2b5717560220ad35e84810a8f1b44]
link TrafficManager to Ship--><path d="M85.5,56.05 C85.5,70.424 85.5,90.051 85.5,110.611 " fill="none" id="TrafficManager-&gt;Ship" style="stroke: #A80036; stroke-width: 1.0;"/><polygon fill="#A80036" points="85.5,115.855,89.5,106.855,85.5,110.855,81.5,106.855,85.5,115.855" style="stroke: #A80036; stroke-width: 1.0;"/><!--MD5=[23d9a9127e0bc3bf7b5dccf4d37eafba]
@startuml

class Ship {

    -int MMSI <<b>PK>
    -String name
    -int IMO
    -int numberEnergyGenerator
    -int powerOutput
    -String callSign
    -int vesselType
    -double length
    -double width
    -int maximumCapacity
    -double draft
}

class TrafficManager{
}

TrafficManager - -> Ship

@enduml

PlantUML version 1.2020.07(Sun Apr 19 12:42:40 BST 2020)
(GPL source distribution)
Java Runtime: OpenJDK Runtime Environment
JVM: OpenJDK 64-Bit Server VM
Java Version: 11.0.6+8-b765.40
Operating System: Windows 10
Default Encoding: Cp1252
Language: pt
Country: PT
--></g></svg>