<?xml version="1.0" encoding="UTF-8" standalone="no"?><svg xmlns="http://www.w3.org/2000/svg" xmlns:xlink="http://www.w3.org/1999/xlink" contentScriptType="application/ecmascript" contentStyleType="text/css" height="221px" preserveAspectRatio="none" style="width:435px;height:221px;background:#FFFFFF;" version="1.1" viewBox="0 0 435 221" width="435px" zoomAndPan="magnify"><defs><filter height="300%" id="fxc0lyeo4f88g" width="300%" x="-1" y="-1"><feGaussianBlur result="blurOut" stdDeviation="2.0"/><feColorMatrix in="blurOut" result="blurOut2" type="matrix" values="0 0 0 0 0 0 0 0 0 0 0 0 0 0 0 0 0 0 .4 0"/><feOffset dx="4.0" dy="4.0" in="blurOut2" result="blurOut3"/><feBlend in="SourceGraphic" in2="blurOut3" mode="normal"/></filter></defs><g><!--MD5=[e6b394b930674b2255938b8afe6bb7b4]
class ShipCaptain--><rect codeLine="3" fill="#FEFECE" filter="url(#fxc0lyeo4f88g)" height="48" id="ShipCaptain" style="stroke:#A80036;stroke-width:1.5;" width="100" x="7" y="83"/><ellipse cx="22" cy="99" fill="#ADD1B2" rx="11" ry="11" style="stroke:#A80036;stroke-width:1.0;"/><path d="M24,95.5 Q24.2031,95 24.4375,94.75 Q24.6719,94.5 24.9375,94.5 Q25.4063,94.5 25.7031,94.7813 Q26,95.0625 26,95.7188 L26,97.2813 Q26,97.9375 25.7188,98.2188 Q25.4375,98.5 25,98.5 Q24.6094,98.5 24.3594,98.3281 Q24.1094,98.1563 24,97.7031 Q23.9531,97.3906 23.7813,97.2188 Q23.4688,96.8906 22.9063,96.7031 Q22.3438,96.5 21.7813,96.5 Q21.0781,96.5 20.4844,96.7813 Q19.9063,97.0625 19.4531,97.6875 Q19,98.3125 19,99.1719 L19,100.0938 Q19,101.125 19.8438,101.8125 Q20.6875,102.5 22.1875,102.5 Q23.0781,102.5 23.7031,102.2969 Q24.0625,102.1875 24.4688,101.8281 Q24.7344,101.625 24.875,101.5625 Q25.0156,101.5 25.1875,101.5 Q25.5156,101.5 25.75,101.7656 Q26,102.0156 26,102.375 Q26,102.7188 25.6563,103.125 Q25.1563,103.7188 24.3594,104.0469 Q23.3125,104.5 22.0313,104.5 Q20.5313,104.5 19.3281,103.9063 Q18.3594,103.4375 17.6719,102.4219 Q17,101.4063 17,100.2031 L17,99.1094 Q17,97.8594 17.5938,96.7656 Q18.2031,95.6719 19.25,95.0938 Q20.3125,94.5 21.5,94.5 Q22.2188,94.5 22.8438,94.75 Q23.4688,95 24,95.5 Z " fill="#000000"/><text fill="#000000" font-family="sans-serif" font-size="12" lengthAdjust="spacing" textLength="68" x="36" y="103.9102">ShipCaptain</text><line style="stroke:#A80036;stroke-width:1.5;" x1="8" x2="106" y1="115" y2="115"/><line style="stroke:#A80036;stroke-width:1.5;" x1="8" x2="106" y1="123" y2="123"/><!--MD5=[02e4b9b7573f1156f41e60aa5b4e25a4]
class Company--><rect codeLine="6" fill="#FEFECE" filter="url(#fxc0lyeo4f88g)" height="48" id="Company" style="stroke:#A80036;stroke-width:1.5;" width="85" x="142.5" y="83"/><ellipse cx="157.5" cy="99" fill="#ADD1B2" rx="11" ry="11" style="stroke:#A80036;stroke-width:1.0;"/><path d="M159.5,95.5 Q159.7031,95 159.9375,94.75 Q160.1719,94.5 160.4375,94.5 Q160.9063,94.5 161.2031,94.7813 Q161.5,95.0625 161.5,95.7188 L161.5,97.2813 Q161.5,97.9375 161.2188,98.2188 Q160.9375,98.5 160.5,98.5 Q160.1094,98.5 159.8594,98.3281 Q159.6094,98.1563 159.5,97.7031 Q159.4531,97.3906 159.2813,97.2188 Q158.9688,96.8906 158.4063,96.7031 Q157.8438,96.5 157.2813,96.5 Q156.5781,96.5 155.9844,96.7813 Q155.4063,97.0625 154.9531,97.6875 Q154.5,98.3125 154.5,99.1719 L154.5,100.0938 Q154.5,101.125 155.3438,101.8125 Q156.1875,102.5 157.6875,102.5 Q158.5781,102.5 159.2031,102.2969 Q159.5625,102.1875 159.9688,101.8281 Q160.2344,101.625 160.375,101.5625 Q160.5156,101.5 160.6875,101.5 Q161.0156,101.5 161.25,101.7656 Q161.5,102.0156 161.5,102.375 Q161.5,102.7188 161.1563,103.125 Q160.6563,103.7188 159.8594,104.0469 Q158.8125,104.5 157.5313,104.5 Q156.0313,104.5 154.8281,103.9063 Q153.8594,103.4375 153.1719,102.4219 Q152.5,101.4063 152.5,100.2031 L152.5,99.1094 Q152.5,97.8594 153.0938,96.7656 Q153.7031,95.6719 154.75,95.0938 Q155.8125,94.5 157,94.5 Q157.7188,94.5 158.3438,94.75 Q158.9688,95 159.5,95.5 Z " fill="#000000"/><text fill="#000000" font-family="sans-serif" font-size="12" lengthAdjust="spacing" textLength="53" x="171.5" y="103.9102">Company</text><line style="stroke:#A80036;stroke-width:1.5;" x1="143.5" x2="226.5" y1="115" y2="115"/><line style="stroke:#A80036;stroke-width:1.5;" x1="143.5" x2="226.5" y1="123" y2="123"/><!--MD5=[0dc7f2ddb409b58bcf52b12238c25399]
class Ship--><rect codeLine="10" fill="#FEFECE" filter="url(#fxc0lyeo4f88g)" height="200.1953" id="Ship" style="stroke:#A80036;stroke-width:1.5;" width="159" x="262.5" y="7"/><ellipse cx="325.25" cy="23" fill="#ADD1B2" rx="11" ry="11" style="stroke:#A80036;stroke-width:1.0;"/><path d="M327.25,19.5 Q327.4531,19 327.6875,18.75 Q327.9219,18.5 328.1875,18.5 Q328.6563,18.5 328.9531,18.7813 Q329.25,19.0625 329.25,19.7188 L329.25,21.2813 Q329.25,21.9375 328.9688,22.2188 Q328.6875,22.5 328.25,22.5 Q327.8594,22.5 327.6094,22.3281 Q327.3594,22.1563 327.25,21.7031 Q327.2031,21.3906 327.0313,21.2188 Q326.7188,20.8906 326.1563,20.7031 Q325.5938,20.5 325.0313,20.5 Q324.3281,20.5 323.7344,20.7813 Q323.1563,21.0625 322.7031,21.6875 Q322.25,22.3125 322.25,23.1719 L322.25,24.0938 Q322.25,25.125 323.0938,25.8125 Q323.9375,26.5 325.4375,26.5 Q326.3281,26.5 326.9531,26.2969 Q327.3125,26.1875 327.7188,25.8281 Q327.9844,25.625 328.125,25.5625 Q328.2656,25.5 328.4375,25.5 Q328.7656,25.5 329,25.7656 Q329.25,26.0156 329.25,26.375 Q329.25,26.7188 328.9063,27.125 Q328.4063,27.7188 327.6094,28.0469 Q326.5625,28.5 325.2813,28.5 Q323.7813,28.5 322.5781,27.9063 Q321.6094,27.4375 320.9219,26.4219 Q320.25,25.4063 320.25,24.2031 L320.25,23.1094 Q320.25,21.8594 320.8438,20.7656 Q321.4531,19.6719 322.5,19.0938 Q323.5625,18.5 324.75,18.5 Q325.4688,18.5 326.0938,18.75 Q326.7188,19 327.25,19.5 Z " fill="#000000"/><text fill="#000000" font-family="sans-serif" font-size="12" lengthAdjust="spacing" textLength="25" x="345.75" y="27.9102">Ship</text><line style="stroke:#A80036;stroke-width:1.5;" x1="263.5" x2="420.5" y1="39" y2="39"/><rect fill="none" height="6" style="stroke:#C82930;stroke-width:1.0;" width="6" x="270.5" y="47"/><text fill="#000000" font-family="sans-serif" font-size="11" lengthAdjust="spacing" textLength="48" x="282.5" y="54.4189">int MMSI &lt;</text><text fill="#000000" font-family="sans-serif" font-size="11" font-weight="bold" lengthAdjust="spacing" textLength="20" x="330.5" y="54.4189">PK&gt;</text><rect fill="none" height="6" style="stroke:#C82930;stroke-width:1.0;" width="6" x="270.5" y="60.8359"/><text fill="#000000" font-family="sans-serif" font-size="11" lengthAdjust="spacing" textLength="57" x="282.5" y="68.2549">String name</text><rect fill="none" height="6" style="stroke:#C82930;stroke-width:1.0;" width="6" x="270.5" y="74.6719"/><text fill="#000000" font-family="sans-serif" font-size="11" lengthAdjust="spacing" textLength="32" x="282.5" y="82.0908">int IMO</text><rect fill="none" height="6" style="stroke:#C82930;stroke-width:1.0;" width="6" x="270.5" y="88.5078"/><text fill="#000000" font-family="sans-serif" font-size="11" lengthAdjust="spacing" textLength="133" x="282.5" y="95.9268">int numberEnergyGenerator</text><rect fill="none" height="6" style="stroke:#C82930;stroke-width:1.0;" width="6" x="270.5" y="102.3438"/><text fill="#000000" font-family="sans-serif" font-size="11" lengthAdjust="spacing" textLength="78" x="282.5" y="109.7627">int powerOutput</text><rect fill="none" height="6" style="stroke:#C82930;stroke-width:1.0;" width="6" x="270.5" y="116.1797"/><text fill="#000000" font-family="sans-serif" font-size="11" lengthAdjust="spacing" textLength="68" x="282.5" y="123.5986">String callSign</text><rect fill="none" height="6" style="stroke:#C82930;stroke-width:1.0;" width="6" x="270.5" y="130.0156"/><text fill="#000000" font-family="sans-serif" font-size="11" lengthAdjust="spacing" textLength="70" x="282.5" y="137.4346">int vesselType</text><rect fill="none" height="6" style="stroke:#C82930;stroke-width:1.0;" width="6" x="270.5" y="143.8516"/><text fill="#000000" font-family="sans-serif" font-size="11" lengthAdjust="spacing" textLength="64" x="282.5" y="151.2705">double length</text><rect fill="none" height="6" style="stroke:#C82930;stroke-width:1.0;" width="6" x="270.5" y="157.6875"/><text fill="#000000" font-family="sans-serif" font-size="11" lengthAdjust="spacing" textLength="62" x="282.5" y="165.1064">double width</text><rect fill="none" height="6" style="stroke:#C82930;stroke-width:1.0;" width="6" x="270.5" y="171.5234"/><text fill="#000000" font-family="sans-serif" font-size="11" lengthAdjust="spacing" textLength="100" x="282.5" y="178.9424">int maximumCapacity</text><rect fill="none" height="6" style="stroke:#C82930;stroke-width:1.0;" width="6" x="270.5" y="185.3594"/><text fill="#000000" font-family="sans-serif" font-size="11" lengthAdjust="spacing" textLength="58" x="282.5" y="192.7783">double draft</text><line style="stroke:#A80036;stroke-width:1.5;" x1="263.5" x2="420.5" y1="199.1953" y2="199.1953"/><!--MD5=[9a31db71f2c3551e63ef1cc9b9b88927]
link ShipCaptain to Company--><path codeLine="24" d="M107.5,107 C117.38,107 127.26,107 137.15,107 " fill="none" id="ShipCaptain-to-Company" style="stroke:#A80036;stroke-width:1.0;"/><polygon fill="#A80036" points="142.31,107,133.31,103,137.31,107,133.31,111,142.31,107" style="stroke:#A80036;stroke-width:1.0;"/><!--MD5=[37a14a5de6d6fd738aee271300f4b5c8]
link Company to Ship--><path codeLine="25" d="M227.62,107 C237.52,107 247.41,107 257.3,107 " fill="none" id="Company-to-Ship" style="stroke:#A80036;stroke-width:1.0;"/><polygon fill="#A80036" points="262.47,107,253.47,103,257.47,107,253.47,111,262.47,107" style="stroke:#A80036;stroke-width:1.0;"/><!--MD5=[89b0dbf7c359425da02e80cce137bf2c]
@startuml
'https://plantuml.com/class-diagram

class ShipCaptain{
}

class Company {

}

class Ship {
    -int MMSI <<b>PK>
    -String name
    -int IMO
    -int numberEnergyGenerator
    -int powerOutput
    -String callSign
    -int vesselType
    -double length
    -double width
    -int maximumCapacity
    -double draft
}

ShipCaptain -> Company
Company -> Ship




@enduml

@startuml

class ShipCaptain{
}

class Company {

}

class Ship {
    -int MMSI <<b>PK>
    -String name
    -int IMO
    -int numberEnergyGenerator
    -int powerOutput
    -String callSign
    -int vesselType
    -double length
    -double width
    -int maximumCapacity
    -double draft
}

ShipCaptain -> Company
Company -> Ship




@enduml

PlantUML version 1.2022.0(Tue Jan 11 16:16:42 GMT 2022)
(GPL source distribution)
Java Runtime: OpenJDK Runtime Environment
JVM: OpenJDK 64-Bit Server VM
Default Encoding: Cp1252
Language: pt
Country: PT
--></g></svg>