<?xml version="1.0" encoding="UTF-8" standalone="no"?><svg xmlns="http://www.w3.org/2000/svg" xmlns:xlink="http://www.w3.org/1999/xlink" contentScriptType="application/ecmascript" contentStyleType="text/css" height="319px" preserveAspectRatio="none" style="width:298px;height:319px;" version="1.1" viewBox="0 0 298 319" width="298px" zoomAndPan="magnify"><defs><filter height="300%" id="f1aslh6tkevoi" width="300%" x="-1" y="-1"><feGaussianBlur result="blurOut" stdDeviation="2.0"/><feColorMatrix in="blurOut" result="blurOut2" type="matrix" values="0 0 0 0 0 0 0 0 0 0 0 0 0 0 0 0 0 0 .4 0"/><feOffset dx="4.0" dy="4.0" in="blurOut2" result="blurOut3"/><feBlend in="SourceGraphic" in2="blurOut3" mode="normal"/></filter></defs><g><!--MD5=[a0e14dc1c5f22798a4d68a7546a0e1d4]
class PortStaff--><rect fill="#FEFECE" filter="url(#f1aslh6tkevoi)" height="48" id="PortStaff" style="stroke: #A80036; stroke-width: 1.5;" width="78" x="29.5" y="8"/><ellipse cx="44.5" cy="24" fill="#ADD1B2" rx="11" ry="11" style="stroke: #A80036; stroke-width: 1.0;"/><path d="M46.5,20.5 Q46.7031,20 46.9375,19.75 Q47.1719,19.5 47.4375,19.5 Q47.9063,19.5 48.2031,19.7813 Q48.5,20.0625 48.5,20.7188 L48.5,22.2813 Q48.5,22.9375 48.2188,23.2188 Q47.9375,23.5 47.5,23.5 Q47.1094,23.5 46.8594,23.3281 Q46.6094,23.1563 46.5,22.7031 Q46.4531,22.3906 46.2813,22.2188 Q45.9688,21.8906 45.4063,21.7031 Q44.8438,21.5 44.2813,21.5 Q43.5781,21.5 42.9844,21.7813 Q42.4063,22.0625 41.9531,22.6875 Q41.5,23.3125 41.5,24.1719 L41.5,25.0938 Q41.5,26.125 42.3438,26.8125 Q43.1875,27.5 44.6875,27.5 Q45.5781,27.5 46.2031,27.2969 Q46.5625,27.1875 46.9688,26.8281 Q47.2344,26.625 47.375,26.5625 Q47.5156,26.5 47.6875,26.5 Q48.0156,26.5 48.25,26.7656 Q48.5,27.0156 48.5,27.375 Q48.5,27.7188 48.1563,28.125 Q47.6563,28.7188 46.8594,29.0469 Q45.8125,29.5 44.5313,29.5 Q43.0313,29.5 41.8281,28.9063 Q40.8594,28.4375 40.1719,27.4219 Q39.5,26.4063 39.5,25.2031 L39.5,24.1094 Q39.5,22.8594 40.0938,21.7656 Q40.7031,20.6719 41.75,20.0938 Q42.8125,19.5 44,19.5 Q44.7188,19.5 45.3438,19.75 Q45.9688,20 46.5,20.5 Z "/><text fill="#000000" font-family="sans-serif" font-size="12" lengthAdjust="spacingAndGlyphs" textLength="46" x="58.5" y="28.9102">PortStaff</text><line style="stroke: #A80036; stroke-width: 1.5;" x1="30.5" x2="106.5" y1="40" y2="40"/><line style="stroke: #A80036; stroke-width: 1.5;" x1="30.5" x2="106.5" y1="48" y2="48"/><!--MD5=[3a3389f545d269bca690f876a78b05af]
class TransportVehicle--><rect fill="#FEFECE" filter="url(#f1aslh6tkevoi)" height="48" id="TransportVehicle" style="stroke: #A80036; stroke-width: 1.5;" width="125" x="6" y="134"/><ellipse cx="21" cy="150" fill="#ADD1B2" rx="11" ry="11" style="stroke: #A80036; stroke-width: 1.0;"/><path d="M23,146.5 Q23.2031,146 23.4375,145.75 Q23.6719,145.5 23.9375,145.5 Q24.4063,145.5 24.7031,145.7813 Q25,146.0625 25,146.7188 L25,148.2813 Q25,148.9375 24.7188,149.2188 Q24.4375,149.5 24,149.5 Q23.6094,149.5 23.3594,149.3281 Q23.1094,149.1563 23,148.7031 Q22.9531,148.3906 22.7813,148.2188 Q22.4688,147.8906 21.9063,147.7031 Q21.3438,147.5 20.7813,147.5 Q20.0781,147.5 19.4844,147.7813 Q18.9063,148.0625 18.4531,148.6875 Q18,149.3125 18,150.1719 L18,151.0938 Q18,152.125 18.8438,152.8125 Q19.6875,153.5 21.1875,153.5 Q22.0781,153.5 22.7031,153.2969 Q23.0625,153.1875 23.4688,152.8281 Q23.7344,152.625 23.875,152.5625 Q24.0156,152.5 24.1875,152.5 Q24.5156,152.5 24.75,152.7656 Q25,153.0156 25,153.375 Q25,153.7188 24.6563,154.125 Q24.1563,154.7188 23.3594,155.0469 Q22.3125,155.5 21.0313,155.5 Q19.5313,155.5 18.3281,154.9063 Q17.3594,154.4375 16.6719,153.4219 Q16,152.4063 16,151.2031 L16,150.1094 Q16,148.8594 16.5938,147.7656 Q17.2031,146.6719 18.25,146.0938 Q19.3125,145.5 20.5,145.5 Q21.2188,145.5 21.8438,145.75 Q22.4688,146 23,146.5 Z "/><text fill="#000000" font-family="sans-serif" font-size="12" lengthAdjust="spacingAndGlyphs" textLength="93" x="35" y="154.9102">TransportVehicle</text><line style="stroke: #A80036; stroke-width: 1.5;" x1="7" x2="130" y1="166" y2="166"/><line style="stroke: #A80036; stroke-width: 1.5;" x1="7" x2="130" y1="174" y2="174"/><!--MD5=[e9a58730c562b34349daa605d1ed6662]
class Container--><rect fill="#FEFECE" filter="url(#f1aslh6tkevoi)" height="48" id="Container" style="stroke: #A80036; stroke-width: 1.5;" width="86" x="25.5" y="260"/><ellipse cx="40.5" cy="276" fill="#ADD1B2" rx="11" ry="11" style="stroke: #A80036; stroke-width: 1.0;"/><path d="M42.5,272.5 Q42.7031,272 42.9375,271.75 Q43.1719,271.5 43.4375,271.5 Q43.9063,271.5 44.2031,271.7813 Q44.5,272.0625 44.5,272.7188 L44.5,274.2813 Q44.5,274.9375 44.2188,275.2188 Q43.9375,275.5 43.5,275.5 Q43.1094,275.5 42.8594,275.3281 Q42.6094,275.1563 42.5,274.7031 Q42.4531,274.3906 42.2813,274.2188 Q41.9688,273.8906 41.4063,273.7031 Q40.8438,273.5 40.2813,273.5 Q39.5781,273.5 38.9844,273.7813 Q38.4063,274.0625 37.9531,274.6875 Q37.5,275.3125 37.5,276.1719 L37.5,277.0938 Q37.5,278.125 38.3438,278.8125 Q39.1875,279.5 40.6875,279.5 Q41.5781,279.5 42.2031,279.2969 Q42.5625,279.1875 42.9688,278.8281 Q43.2344,278.625 43.375,278.5625 Q43.5156,278.5 43.6875,278.5 Q44.0156,278.5 44.25,278.7656 Q44.5,279.0156 44.5,279.375 Q44.5,279.7188 44.1563,280.125 Q43.6563,280.7188 42.8594,281.0469 Q41.8125,281.5 40.5313,281.5 Q39.0313,281.5 37.8281,280.9063 Q36.8594,280.4375 36.1719,279.4219 Q35.5,278.4063 35.5,277.2031 L35.5,276.1094 Q35.5,274.8594 36.0938,273.7656 Q36.7031,272.6719 37.75,272.0938 Q38.8125,271.5 40,271.5 Q40.7188,271.5 41.3438,271.75 Q41.9688,272 42.5,272.5 Z "/><text fill="#000000" font-family="sans-serif" font-size="12" lengthAdjust="spacingAndGlyphs" textLength="54" x="54.5" y="280.9102">Container</text><line style="stroke: #A80036; stroke-width: 1.5;" x1="26.5" x2="110.5" y1="292" y2="292"/><line style="stroke: #A80036; stroke-width: 1.5;" x1="26.5" x2="110.5" y1="300" y2="300"/><!--MD5=[a921985cc81780f1707c875cec4463b2]
link PortStaff to TransportVehicle--><path d="M68.5,56.033 C68.5,76.522 68.5,106.561 68.5,128.546 " fill="none" id="PortStaff-&gt;TransportVehicle" style="stroke: #A80036; stroke-width: 1.0;"/><polygon fill="#A80036" points="68.5,133.67,72.5,124.67,68.5,128.67,64.5,124.67,68.5,133.67" style="stroke: #A80036; stroke-width: 1.0;"/><text fill="#000000" font-family="sans-serif" font-size="13" lengthAdjust="spacingAndGlyphs" textLength="217" x="69.5" y="100.4951">Get the number of free/occupied slots</text><!--MD5=[5b48281dc4169cde5a2f50db7864c211]
link TransportVehicle to Container--><path d="M68.5,182.033 C68.5,202.522 68.5,232.5607 68.5,254.5464 " fill="none" id="TransportVehicle-&gt;Container" style="stroke: #A80036; stroke-width: 1.0;"/><polygon fill="#A80036" points="68.5,259.6697,72.5,250.6697,68.5,254.6697,64.5,250.6697,68.5,259.6697" style="stroke: #A80036; stroke-width: 1.0;"/><text fill="#000000" font-family="sans-serif" font-size="13" lengthAdjust="spacingAndGlyphs" textLength="122" x="69.5" y="226.4951">has containers or not</text><!--MD5=[40ccf40ccce8b8d5beb1eb17488bc853]
@startuml

class PortStaff{

}

class TransportVehicle{

}

class Container{

}

PortStaff - -> TransportVehicle : Get the number of free/occupied slots
TransportVehicle - -> Container : has containers or not

@enduml

PlantUML version 1.2020.07(Sun Apr 19 12:42:40 BST 2020)
(GPL source distribution)
Java Runtime: OpenJDK Runtime Environment
JVM: OpenJDK 64-Bit Server VM
Java Version: 11.0.6+8-b765.40
Operating System: Windows 10
Default Encoding: Cp1252
Language: pt
Country: PT
--></g></svg>