<?xml version="1.0" encoding="UTF-8" standalone="no"?><svg xmlns="http://www.w3.org/2000/svg" xmlns:xlink="http://www.w3.org/1999/xlink" contentScriptType="application/ecmascript" contentStyleType="text/css" height="670px" preserveAspectRatio="none" style="width:555px;height:670px;background:#FFFFFF;" version="1.1" viewBox="0 0 555 670" width="555px" zoomAndPan="magnify"><defs><filter height="300%" id="fy4gglx1glgsm" width="300%" x="-1" y="-1"><feGaussianBlur result="blurOut" stdDeviation="2.0"/><feColorMatrix in="blurOut" result="blurOut2" type="matrix" values="0 0 0 0 0 0 0 0 0 0 0 0 0 0 0 0 0 0 .4 0"/><feOffset dx="4.0" dy="4.0" in="blurOut2" result="blurOut3"/><feBlend in="SourceGraphic" in2="blurOut3" mode="normal"/></filter></defs><g><!--MD5=[d14076b1fa5ff6fc34e7abc31c5e1daa]
class ShipChiefElectricalEngineer--><rect codeLine="2" fill="#FEFECE" filter="url(#fy4gglx1glgsm)" height="48" id="ShipChiefElectricalEngineer" style="stroke:#A80036;stroke-width:1.5;" width="186" x="266.5" y="7"/><ellipse cx="281.5" cy="23" fill="#ADD1B2" rx="11" ry="11" style="stroke:#A80036;stroke-width:1.0;"/><path d="M283.5,19.5 Q283.7031,19 283.9375,18.75 Q284.1719,18.5 284.4375,18.5 Q284.9063,18.5 285.2031,18.7813 Q285.5,19.0625 285.5,19.7188 L285.5,21.2813 Q285.5,21.9375 285.2188,22.2188 Q284.9375,22.5 284.5,22.5 Q284.1094,22.5 283.8594,22.3281 Q283.6094,22.1563 283.5,21.7031 Q283.4531,21.3906 283.2813,21.2188 Q282.9688,20.8906 282.4063,20.7031 Q281.8438,20.5 281.2813,20.5 Q280.5781,20.5 279.9844,20.7813 Q279.4063,21.0625 278.9531,21.6875 Q278.5,22.3125 278.5,23.1719 L278.5,24.0938 Q278.5,25.125 279.3438,25.8125 Q280.1875,26.5 281.6875,26.5 Q282.5781,26.5 283.2031,26.2969 Q283.5625,26.1875 283.9688,25.8281 Q284.2344,25.625 284.375,25.5625 Q284.5156,25.5 284.6875,25.5 Q285.0156,25.5 285.25,25.7656 Q285.5,26.0156 285.5,26.375 Q285.5,26.7188 285.1563,27.125 Q284.6563,27.7188 283.8594,28.0469 Q282.8125,28.5 281.5313,28.5 Q280.0313,28.5 278.8281,27.9063 Q277.8594,27.4375 277.1719,26.4219 Q276.5,25.4063 276.5,24.2031 L276.5,23.1094 Q276.5,21.8594 277.0938,20.7656 Q277.7031,19.6719 278.75,19.0938 Q279.8125,18.5 281,18.5 Q281.7188,18.5 282.3438,18.75 Q282.9688,19 283.5,19.5 Z " fill="#000000"/><text fill="#000000" font-family="sans-serif" font-size="12" lengthAdjust="spacing" textLength="154" x="295.5" y="27.9102">ShipChiefElectricalEngineer</text><line style="stroke:#A80036;stroke-width:1.5;" x1="267.5" x2="451.5" y1="39" y2="39"/><line style="stroke:#A80036;stroke-width:1.5;" x1="267.5" x2="451.5" y1="47" y2="47"/><!--MD5=[3fd616f346a44cd59a91eb10b19e157c]
class User--><rect codeLine="6" fill="#FEFECE" filter="url(#fy4gglx1glgsm)" height="48" id="User" style="stroke:#A80036;stroke-width:1.5;" width="59" x="469" y="154"/><ellipse cx="484" cy="170" fill="#ADD1B2" rx="11" ry="11" style="stroke:#A80036;stroke-width:1.0;"/><path d="M486,166.5 Q486.2031,166 486.4375,165.75 Q486.6719,165.5 486.9375,165.5 Q487.4063,165.5 487.7031,165.7813 Q488,166.0625 488,166.7188 L488,168.2813 Q488,168.9375 487.7188,169.2188 Q487.4375,169.5 487,169.5 Q486.6094,169.5 486.3594,169.3281 Q486.1094,169.1563 486,168.7031 Q485.9531,168.3906 485.7813,168.2188 Q485.4688,167.8906 484.9063,167.7031 Q484.3438,167.5 483.7813,167.5 Q483.0781,167.5 482.4844,167.7813 Q481.9063,168.0625 481.4531,168.6875 Q481,169.3125 481,170.1719 L481,171.0938 Q481,172.125 481.8438,172.8125 Q482.6875,173.5 484.1875,173.5 Q485.0781,173.5 485.7031,173.2969 Q486.0625,173.1875 486.4688,172.8281 Q486.7344,172.625 486.875,172.5625 Q487.0156,172.5 487.1875,172.5 Q487.5156,172.5 487.75,172.7656 Q488,173.0156 488,173.375 Q488,173.7188 487.6563,174.125 Q487.1563,174.7188 486.3594,175.0469 Q485.3125,175.5 484.0313,175.5 Q482.5313,175.5 481.3281,174.9063 Q480.3594,174.4375 479.6719,173.4219 Q479,172.4063 479,171.2031 L479,170.1094 Q479,168.8594 479.5938,167.7656 Q480.2031,166.6719 481.25,166.0938 Q482.3125,165.5 483.5,165.5 Q484.2188,165.5 484.8438,165.75 Q485.4688,166 486,166.5 Z " fill="#000000"/><text fill="#000000" font-family="sans-serif" font-size="12" lengthAdjust="spacing" textLength="27" x="498" y="174.9102">User</text><line style="stroke:#A80036;stroke-width:1.5;" x1="470" x2="527" y1="186" y2="186"/><line style="stroke:#A80036;stroke-width:1.5;" x1="470" x2="527" y1="194" y2="194"/><!--MD5=[45d42ff7800d812d5f83c7d3273eb427]
class UserRole--><rect codeLine="10" fill="#FEFECE" filter="url(#fy4gglx1glgsm)" height="48" id="UserRole" style="stroke:#A80036;stroke-width:1.5;" width="85" x="456" y="328.5"/><ellipse cx="471" cy="344.5" fill="#ADD1B2" rx="11" ry="11" style="stroke:#A80036;stroke-width:1.0;"/><path d="M473,341 Q473.2031,340.5 473.4375,340.25 Q473.6719,340 473.9375,340 Q474.4063,340 474.7031,340.2813 Q475,340.5625 475,341.2188 L475,342.7813 Q475,343.4375 474.7188,343.7188 Q474.4375,344 474,344 Q473.6094,344 473.3594,343.8281 Q473.1094,343.6563 473,343.2031 Q472.9531,342.8906 472.7813,342.7188 Q472.4688,342.3906 471.9063,342.2031 Q471.3438,342 470.7813,342 Q470.0781,342 469.4844,342.2813 Q468.9063,342.5625 468.4531,343.1875 Q468,343.8125 468,344.6719 L468,345.5938 Q468,346.625 468.8438,347.3125 Q469.6875,348 471.1875,348 Q472.0781,348 472.7031,347.7969 Q473.0625,347.6875 473.4688,347.3281 Q473.7344,347.125 473.875,347.0625 Q474.0156,347 474.1875,347 Q474.5156,347 474.75,347.2656 Q475,347.5156 475,347.875 Q475,348.2188 474.6563,348.625 Q474.1563,349.2188 473.3594,349.5469 Q472.3125,350 471.0313,350 Q469.5313,350 468.3281,349.4063 Q467.3594,348.9375 466.6719,347.9219 Q466,346.9063 466,345.7031 L466,344.6094 Q466,343.3594 466.5938,342.2656 Q467.2031,341.1719 468.25,340.5938 Q469.3125,340 470.5,340 Q471.2188,340 471.8438,340.25 Q472.4688,340.5 473,341 Z " fill="#000000"/><text fill="#000000" font-family="sans-serif" font-size="12" lengthAdjust="spacing" textLength="53" x="485" y="349.4102">UserRole</text><line style="stroke:#A80036;stroke-width:1.5;" x1="457" x2="540" y1="360.5" y2="360.5"/><line style="stroke:#A80036;stroke-width:1.5;" x1="457" x2="540" y1="368.5" y2="368.5"/><!--MD5=[02e4b9b7573f1156f41e60aa5b4e25a4]
class Company--><rect codeLine="14" fill="#FEFECE" filter="url(#fy4gglx1glgsm)" height="48" id="Company" style="stroke:#A80036;stroke-width:1.5;" width="85" x="159" y="482"/><ellipse cx="174" cy="498" fill="#ADD1B2" rx="11" ry="11" style="stroke:#A80036;stroke-width:1.0;"/><path d="M176,494.5 Q176.2031,494 176.4375,493.75 Q176.6719,493.5 176.9375,493.5 Q177.4063,493.5 177.7031,493.7813 Q178,494.0625 178,494.7188 L178,496.2813 Q178,496.9375 177.7188,497.2188 Q177.4375,497.5 177,497.5 Q176.6094,497.5 176.3594,497.3281 Q176.1094,497.1563 176,496.7031 Q175.9531,496.3906 175.7813,496.2188 Q175.4688,495.8906 174.9063,495.7031 Q174.3438,495.5 173.7813,495.5 Q173.0781,495.5 172.4844,495.7813 Q171.9063,496.0625 171.4531,496.6875 Q171,497.3125 171,498.1719 L171,499.0938 Q171,500.125 171.8438,500.8125 Q172.6875,501.5 174.1875,501.5 Q175.0781,501.5 175.7031,501.2969 Q176.0625,501.1875 176.4688,500.8281 Q176.7344,500.625 176.875,500.5625 Q177.0156,500.5 177.1875,500.5 Q177.5156,500.5 177.75,500.7656 Q178,501.0156 178,501.375 Q178,501.7188 177.6563,502.125 Q177.1563,502.7188 176.3594,503.0469 Q175.3125,503.5 174.0313,503.5 Q172.5313,503.5 171.3281,502.9063 Q170.3594,502.4375 169.6719,501.4219 Q169,500.4063 169,499.2031 L169,498.1094 Q169,496.8594 169.5938,495.7656 Q170.2031,494.6719 171.25,494.0938 Q172.3125,493.5 173.5,493.5 Q174.2188,493.5 174.8438,493.75 Q175.4688,494 176,494.5 Z " fill="#000000"/><text fill="#000000" font-family="sans-serif" font-size="12" lengthAdjust="spacing" textLength="53" x="188" y="502.9102">Company</text><line style="stroke:#A80036;stroke-width:1.5;" x1="160" x2="243" y1="514" y2="514"/><line style="stroke:#A80036;stroke-width:1.5;" x1="160" x2="243" y1="522" y2="522"/><!--MD5=[36ad38f5e19d44bc9fab057118bcb764]
class SetOfMaterialsMinus5cUI--><rect codeLine="18" fill="#FEFECE" filter="url(#fy4gglx1glgsm)" height="89.5078" id="SetOfMaterialsMinus5cUI" style="stroke:#A80036;stroke-width:1.5;" width="427" x="7" y="133"/><ellipse cx="147.25" cy="149" fill="#ADD1B2" rx="11" ry="11" style="stroke:#A80036;stroke-width:1.0;"/><path d="M149.25,145.5 Q149.4531,145 149.6875,144.75 Q149.9219,144.5 150.1875,144.5 Q150.6563,144.5 150.9531,144.7813 Q151.25,145.0625 151.25,145.7188 L151.25,147.2813 Q151.25,147.9375 150.9688,148.2188 Q150.6875,148.5 150.25,148.5 Q149.8594,148.5 149.6094,148.3281 Q149.3594,148.1563 149.25,147.7031 Q149.2031,147.3906 149.0313,147.2188 Q148.7188,146.8906 148.1563,146.7031 Q147.5938,146.5 147.0313,146.5 Q146.3281,146.5 145.7344,146.7813 Q145.1563,147.0625 144.7031,147.6875 Q144.25,148.3125 144.25,149.1719 L144.25,150.0938 Q144.25,151.125 145.0938,151.8125 Q145.9375,152.5 147.4375,152.5 Q148.3281,152.5 148.9531,152.2969 Q149.3125,152.1875 149.7188,151.8281 Q149.9844,151.625 150.125,151.5625 Q150.2656,151.5 150.4375,151.5 Q150.7656,151.5 151,151.7656 Q151.25,152.0156 151.25,152.375 Q151.25,152.7188 150.9063,153.125 Q150.4063,153.7188 149.6094,154.0469 Q148.5625,154.5 147.2813,154.5 Q145.7813,154.5 144.5781,153.9063 Q143.6094,153.4375 142.9219,152.4219 Q142.25,151.4063 142.25,150.2031 L142.25,149.1094 Q142.25,147.8594 142.8438,146.7656 Q143.4531,145.6719 144.5,145.0938 Q145.5625,144.5 146.75,144.5 Q147.4688,144.5 148.0938,144.75 Q148.7188,145 149.25,145.5 Z " fill="#000000"/><text fill="#000000" font-family="sans-serif" font-size="12" lengthAdjust="spacing" textLength="138" x="167.75" y="153.9102">SetOfMaterialsMinus5cUI</text><line style="stroke:#A80036;stroke-width:1.5;" x1="8" x2="433" y1="165" y2="165"/><rect fill="none" height="6" style="stroke:#C82930;stroke-width:1.0;" width="6" x="15" y="173"/><text fill="#000000" font-family="sans-serif" font-size="11" lengthAdjust="spacing" textLength="401" x="27" y="180.4189">SetOfMaterialsMinus5cController getSetOfMaterialsToContainerAtMinus5cController</text><line style="stroke:#A80036;stroke-width:1.5;" x1="8" x2="433" y1="186.8359" y2="186.8359"/><ellipse cx="18" cy="197.8359" fill="#84BE84" rx="3" ry="3" style="stroke:#038048;stroke-width:1.0;"/><text fill="#000000" font-family="sans-serif" font-size="11" lengthAdjust="spacing" textLength="214" x="27" y="202.2549">GetSetOfMaterialsToContainerAtMinus5cUI()</text><ellipse cx="18" cy="211.6719" fill="#84BE84" rx="3" ry="3" style="stroke:#038048;stroke-width:1.0;"/><text fill="#000000" font-family="sans-serif" font-size="11" lengthAdjust="spacing" textLength="24" x="27" y="216.0908">run()</text><!--MD5=[f8c9b21760b5ae93be6c6d5c8fb36036]
class SetOfMaterialsMinus5cController--><rect codeLine="24" fill="#FEFECE" filter="url(#fy4gglx1glgsm)" height="103.3438" id="SetOfMaterialsMinus5cController" style="stroke:#A80036;stroke-width:1.5;" width="369" x="17" y="301"/><ellipse cx="107.25" cy="317" fill="#ADD1B2" rx="11" ry="11" style="stroke:#A80036;stroke-width:1.0;"/><path d="M109.25,313.5 Q109.4531,313 109.6875,312.75 Q109.9219,312.5 110.1875,312.5 Q110.6563,312.5 110.9531,312.7813 Q111.25,313.0625 111.25,313.7188 L111.25,315.2813 Q111.25,315.9375 110.9688,316.2188 Q110.6875,316.5 110.25,316.5 Q109.8594,316.5 109.6094,316.3281 Q109.3594,316.1563 109.25,315.7031 Q109.2031,315.3906 109.0313,315.2188 Q108.7188,314.8906 108.1563,314.7031 Q107.5938,314.5 107.0313,314.5 Q106.3281,314.5 105.7344,314.7813 Q105.1563,315.0625 104.7031,315.6875 Q104.25,316.3125 104.25,317.1719 L104.25,318.0938 Q104.25,319.125 105.0938,319.8125 Q105.9375,320.5 107.4375,320.5 Q108.3281,320.5 108.9531,320.2969 Q109.3125,320.1875 109.7188,319.8281 Q109.9844,319.625 110.125,319.5625 Q110.2656,319.5 110.4375,319.5 Q110.7656,319.5 111,319.7656 Q111.25,320.0156 111.25,320.375 Q111.25,320.7188 110.9063,321.125 Q110.4063,321.7188 109.6094,322.0469 Q108.5625,322.5 107.2813,322.5 Q105.7813,322.5 104.5781,321.9063 Q103.6094,321.4375 102.9219,320.4219 Q102.25,319.4063 102.25,318.2031 L102.25,317.1094 Q102.25,315.8594 102.8438,314.7656 Q103.4531,313.6719 104.5,313.0938 Q105.5625,312.5 106.75,312.5 Q107.4688,312.5 108.0938,312.75 Q108.7188,313 109.25,313.5 Z " fill="#000000"/><text fill="#000000" font-family="sans-serif" font-size="12" lengthAdjust="spacing" textLength="180" x="127.75" y="321.9102">SetOfMaterialsMinus5cController</text><line style="stroke:#A80036;stroke-width:1.5;" x1="18" x2="385" y1="333" y2="333"/><rect fill="none" height="6" style="stroke:#C82930;stroke-width:1.0;" width="6" x="25" y="341"/><text fill="#000000" font-family="sans-serif" font-size="11" lengthAdjust="spacing" textLength="92" x="37" y="348.4189">Company company</text><line style="stroke:#A80036;stroke-width:1.5;" x1="18" x2="385" y1="354.8359" y2="354.8359"/><ellipse cx="28" cy="365.8359" fill="#84BE84" rx="3" ry="3" style="stroke:#038048;stroke-width:1.0;"/><text fill="#000000" font-family="sans-serif" font-size="11" lengthAdjust="spacing" textLength="249" x="37" y="370.2549">getSetOfMaterialsToContainerAtMinus5cController()</text><ellipse cx="28" cy="379.6719" fill="#84BE84" rx="3" ry="3" style="stroke:#038048;stroke-width:1.0;"/><text fill="#000000" font-family="sans-serif" font-size="11" lengthAdjust="spacing" textLength="343" x="37" y="384.0908">GetSetOfMaterialsToContainerAtMinus5cController(Company company)</text><ellipse cx="28" cy="393.5078" fill="#84BE84" rx="3" ry="3" style="stroke:#038048;stroke-width:1.0;"/><text fill="#000000" font-family="sans-serif" font-size="11" lengthAdjust="spacing" textLength="68" x="37" y="397.9268">getCompany()</text><!--MD5=[837d3612090b426002fd1342fcbe6b88]
class DataBase--><rect fill="#FEFECE" filter="url(#fy4gglx1glgsm)" height="48" id="DataBase" style="stroke:#A80036;stroke-width:1.5;" width="87" x="158" y="608"/><ellipse cx="173" cy="624" fill="#ADD1B2" rx="11" ry="11" style="stroke:#A80036;stroke-width:1.0;"/><path d="M175,620.5 Q175.2031,620 175.4375,619.75 Q175.6719,619.5 175.9375,619.5 Q176.4063,619.5 176.7031,619.7813 Q177,620.0625 177,620.7188 L177,622.2813 Q177,622.9375 176.7188,623.2188 Q176.4375,623.5 176,623.5 Q175.6094,623.5 175.3594,623.3281 Q175.1094,623.1563 175,622.7031 Q174.9531,622.3906 174.7813,622.2188 Q174.4688,621.8906 173.9063,621.7031 Q173.3438,621.5 172.7813,621.5 Q172.0781,621.5 171.4844,621.7813 Q170.9063,622.0625 170.4531,622.6875 Q170,623.3125 170,624.1719 L170,625.0938 Q170,626.125 170.8438,626.8125 Q171.6875,627.5 173.1875,627.5 Q174.0781,627.5 174.7031,627.2969 Q175.0625,627.1875 175.4688,626.8281 Q175.7344,626.625 175.875,626.5625 Q176.0156,626.5 176.1875,626.5 Q176.5156,626.5 176.75,626.7656 Q177,627.0156 177,627.375 Q177,627.7188 176.6563,628.125 Q176.1563,628.7188 175.3594,629.0469 Q174.3125,629.5 173.0313,629.5 Q171.5313,629.5 170.3281,628.9063 Q169.3594,628.4375 168.6719,627.4219 Q168,626.4063 168,625.2031 L168,624.1094 Q168,622.8594 168.5938,621.7656 Q169.2031,620.6719 170.25,620.0938 Q171.3125,619.5 172.5,619.5 Q173.2188,619.5 173.8438,619.75 Q174.4688,620 175,620.5 Z " fill="#000000"/><text fill="#000000" font-family="sans-serif" font-size="12" lengthAdjust="spacing" textLength="55" x="187" y="628.9102">DataBase</text><line style="stroke:#A80036;stroke-width:1.5;" x1="159" x2="244" y1="640" y2="640"/><line style="stroke:#A80036;stroke-width:1.5;" x1="159" x2="244" y1="648" y2="648"/><!--MD5=[bde51f9ea99b9d7e574c02e325f80702]
link ShipChiefElectricalEngineer to SetOfMaterialsMinus5cUI--><path codeLine="31" d="M337.17,55.3 C318.08,75.21 290,104.5 266.17,129.36 " fill="none" id="ShipChiefElectricalEngineer-to-SetOfMaterialsMinus5cUI" style="stroke:#A80036;stroke-width:1.0;"/><polygon fill="#A80036" points="262.68,133,271.7916,129.2611,266.1361,129.3868,266.0104,123.7313,262.68,133" style="stroke:#A80036;stroke-width:1.0;"/><text fill="#000000" font-family="sans-serif" font-size="13" lengthAdjust="spacing" textLength="44" x="307.5" y="99.4951">Access</text><!--MD5=[c04cc9e11d2f240c9d3718d485dab38b]
link SetOfMaterialsMinus5cUI to SetOfMaterialsMinus5cController--><path codeLine="32" d="M179.18,223.22 C172.74,232.45 167.05,242.56 163.5,253 C158.7,267.11 160.78,282.19 165.85,296.21 " fill="none" id="SetOfMaterialsMinus5cUI-to-SetOfMaterialsMinus5cController" style="stroke:#A80036;stroke-width:1.0;"/><polygon fill="#A80036" points="167.69,300.91,168.1502,291.0719,165.875,296.2511,160.6959,293.9759,167.69,300.91" style="stroke:#A80036;stroke-width:1.0;"/><text fill="#000000" font-family="sans-serif" font-size="13" lengthAdjust="spacing" textLength="82" x="164.5" y="267.4951">Connects with</text><!--MD5=[a6e960af5fd77f063b93d31375600e29]
reverse link SetOfMaterialsMinus5cUI to SetOfMaterialsMinus5cController--><path codeLine="35" d="M248.55,228.2 C253.26,241.97 255.49,257 251.5,271 C248.61,281.13 244.04,291.22 238.81,300.66 " fill="none" id="SetOfMaterialsMinus5cUI-backto-SetOfMaterialsMinus5cController" style="stroke:#A80036;stroke-width:1.0;"/><polygon fill="#A80036" points="246.71,223.19,246.0624,233.0175,248.4359,227.8827,253.5707,230.2561,246.71,223.19" style="stroke:#A80036;stroke-width:1.0;"/><text fill="#000000" font-family="sans-serif" font-size="13" lengthAdjust="spacing" textLength="69" x="255.5" y="267.4951">Returns Info</text><!--MD5=[68cfd519b9d01f4f9bfebe5bdfd7fcda]
link ShipChiefElectricalEngineer to User--><path codeLine="33" d="M381.83,55.3 C406.56,81.09 446.36,122.61 472.47,149.85 " fill="none" id="ShipChiefElectricalEngineer-to-User" style="stroke:#A80036;stroke-width:1.0;"/><polygon fill="#A80036" points="476.22,153.76,472.8896,144.4913,472.7639,150.1468,467.1084,150.0211,476.22,153.76" style="stroke:#A80036;stroke-width:1.0;"/><text fill="#000000" font-family="sans-serif" font-size="13" lengthAdjust="spacing" textLength="21" x="425.5" y="99.4951">is a</text><!--MD5=[1f12d177c84922ed4f166f09ee62ceaa]
link User to UserRole--><path codeLine="34" d="M498.5,202.26 C498.5,233.6 498.5,289.33 498.5,323.11 " fill="none" id="User-to-UserRole" style="stroke:#A80036;stroke-width:1.0;"/><polygon fill="#A80036" points="498.5,328.33,502.5,319.33,498.5,323.33,494.5,319.33,498.5,328.33" style="stroke:#A80036;stroke-width:1.0;"/><text fill="#000000" font-family="sans-serif" font-size="13" lengthAdjust="spacing" textLength="21" x="499.5" y="267.4951">has</text><!--MD5=[852dca4a10d302c1b648ddfe798e2e0d]
link SetOfMaterialsMinus5cController to Company--><path codeLine="36" d="M152.48,404.03 C145.94,413.36 140.21,423.5 136.5,434 C130.44,451.14 141.27,466.53 155.72,478.57 " fill="none" id="SetOfMaterialsMinus5cController-to-Company" style="stroke:#A80036;stroke-width:1.0;"/><polygon fill="#A80036" points="159.89,481.87,155.3376,473.1364,155.9773,478.757,150.3567,479.3967,159.89,481.87" style="stroke:#A80036;stroke-width:1.0;"/><text fill="#000000" font-family="sans-serif" font-size="13" lengthAdjust="spacing" textLength="82" x="137.5" y="448.4951">Connects with</text><!--MD5=[a108073a7c2ab5f15a1126896cf2b32f]
link Company to SetOfMaterialsMinus5cController--><path codeLine="37" d="M213.95,481.94 C218.19,472.88 222.38,462.21 224.5,452 C227.39,438.06 226.15,423.08 223.1,409.11 " fill="none" id="Company-to-SetOfMaterialsMinus5cController" style="stroke:#A80036;stroke-width:1.0;"/><polygon fill="#A80036" points="221.9,404.01,220.0614,413.6857,223.042,408.8778,227.8499,411.8585,221.9,404.01" style="stroke:#A80036;stroke-width:1.0;"/><text fill="#000000" font-family="sans-serif" font-size="13" lengthAdjust="spacing" textLength="69" x="227.5" y="448.4951">Returns Info</text><!--MD5=[28fa5ca211853e28b35503d2b875b2be]
link Company to DataBase--><path codeLine="38" d="M201.5,530.03 C201.5,550.52 201.5,580.56 201.5,602.55 " fill="none" id="Company-to-DataBase" style="stroke:#A80036;stroke-width:1.0;"/><polygon fill="#A80036" points="201.5,607.67,205.5,598.67,201.5,602.67,197.5,598.67,201.5,607.67" style="stroke:#A80036;stroke-width:1.0;"/><text fill="#000000" font-family="sans-serif" font-size="13" lengthAdjust="spacing" textLength="55" x="202.5" y="574.4951">Connects</text><!--MD5=[9a6be88f5979de5a6ee5844f9b3ee21e]
@startuml

class ShipChiefElectricalEngineer{

}

class User{

}

class UserRole{

}

class Company{

}

class SetOfMaterialsMinus5cUI{
    -SetOfMaterialsMinus5cController getSetOfMaterialsToContainerAtMinus5cController
    +GetSetOfMaterialsToContainerAtMinus5cUI()
    +run()
}

class SetOfMaterialsMinus5cController{
    -Company company
    +getSetOfMaterialsToContainerAtMinus5cController()
    +GetSetOfMaterialsToContainerAtMinus5cController(Company company)
    +getCompany()
}

ShipChiefElectricalEngineer - -> SetOfMaterialsMinus5cUI : Access
SetOfMaterialsMinus5cUI -down-> SetOfMaterialsMinus5cController : Connects with
ShipChiefElectricalEngineer - -> User : is a
User - -> UserRole : has
SetOfMaterialsMinus5cController -up-> SetOfMaterialsMinus5cUI : Returns Info
SetOfMaterialsMinus5cController - -> Company : Connects with
Company - -> SetOfMaterialsMinus5cController : Returns Info
Company - -> DataBase : Connects

@enduml

PlantUML version 1.2021.11(Sat Oct 02 14:26:11 BST 2021)
(GPL source distribution)
Java Runtime: OpenJDK Runtime Environment
JVM: OpenJDK 64-Bit Server VM
Default Encoding: Cp1252
Language: pt
Country: PT
--></g></svg>