<?xml version="1.0" encoding="UTF-8" standalone="no"?><svg xmlns="http://www.w3.org/2000/svg" xmlns:xlink="http://www.w3.org/1999/xlink" contentScriptType="application/ecmascript" contentStyleType="text/css" height="541px" preserveAspectRatio="none" style="width:1532px;height:541px;background:#FFFFFF;" version="1.1" viewBox="0 0 1532 541" width="1532px" zoomAndPan="magnify"><defs><filter height="300%" id="fcyacounf2775" width="300%" x="-1" y="-1"><feGaussianBlur result="blurOut" stdDeviation="2.0"/><feColorMatrix in="blurOut" result="blurOut2" type="matrix" values="0 0 0 0 0 0 0 0 0 0 0 0 0 0 0 0 0 0 .4 0"/><feOffset dx="4.0" dy="4.0" in="blurOut2" result="blurOut3"/><feBlend in="SourceGraphic" in2="blurOut3" mode="normal"/></filter></defs><g><line style="stroke:#A80036;stroke-width:1.0;stroke-dasharray:5.0,5.0;" x1="95" x2="95" y1="89.6094" y2="456.3828"/><line style="stroke:#A80036;stroke-width:1.0;stroke-dasharray:5.0,5.0;" x1="322.5" x2="322.5" y1="89.6094" y2="456.3828"/><line style="stroke:#A80036;stroke-width:1.0;stroke-dasharray:5.0,5.0;" x1="623" x2="623" y1="89.6094" y2="456.3828"/><line style="stroke:#A80036;stroke-width:1.0;stroke-dasharray:5.0,5.0;" x1="841" x2="841" y1="89.6094" y2="456.3828"/><line style="stroke:#A80036;stroke-width:1.0;stroke-dasharray:5.0,5.0;" x1="1127" x2="1127" y1="89.6094" y2="456.3828"/><line style="stroke:#A80036;stroke-width:1.0;stroke-dasharray:5.0,5.0;" x1="1497" x2="1497" y1="328.5234" y2="456.3828"/><text fill="#000000" font-family="sans-serif" font-size="14" lengthAdjust="spacing" textLength="175" x="5" y="86.5332">ShipChiefElectricalEngineer</text><ellipse cx="95.5" cy="15" fill="#FF0000" filter="url(#fcyacounf2775)" rx="8" ry="8" style="stroke:#A80036;stroke-width:2.0;"/><path d="M95.5,23 L95.5,50 M82.5,31 L108.5,31 M95.5,50 L82.5,65 M95.5,50 L108.5,65 " fill="none" filter="url(#fcyacounf2775)" style="stroke:#A80036;stroke-width:2.0;"/><text fill="#000000" font-family="sans-serif" font-size="14" lengthAdjust="spacing" textLength="175" x="5" y="469.916">ShipChiefElectricalEngineer</text><ellipse cx="95.5" cy="482.9922" fill="#FF0000" filter="url(#fcyacounf2775)" rx="8" ry="8" style="stroke:#A80036;stroke-width:2.0;"/><path d="M95.5,490.9922 L95.5,517.9922 M82.5,498.9922 L108.5,498.9922 M95.5,517.9922 L82.5,532.9922 M95.5,517.9922 L108.5,532.9922 " fill="none" filter="url(#fcyacounf2775)" style="stroke:#A80036;stroke-width:2.0;"/><rect fill="#FEFECE" filter="url(#fcyacounf2775)" height="31.6094" style="stroke:#A80036;stroke-width:1.5;" width="60" x="290.5" y="53"/><text fill="#000000" font-family="sans-serif" font-size="14" lengthAdjust="spacing" textLength="46" x="297.5" y="74.5332">System</text><rect fill="#FEFECE" filter="url(#fcyacounf2775)" height="31.6094" style="stroke:#A80036;stroke-width:1.5;" width="60" x="290.5" y="455.3828"/><text fill="#000000" font-family="sans-serif" font-size="14" lengthAdjust="spacing" textLength="46" x="297.5" y="476.916">System</text><rect fill="#FEFECE" filter="url(#fcyacounf2775)" height="31.6094" style="stroke:#A80036;stroke-width:1.5;" width="201" x="521" y="53"/><text fill="#000000" font-family="sans-serif" font-size="14" lengthAdjust="spacing" textLength="187" x="528" y="74.5332">ShipChiefElectricalEngineerUI</text><rect fill="#FEFECE" filter="url(#fcyacounf2775)" height="31.6094" style="stroke:#A80036;stroke-width:1.5;" width="201" x="521" y="455.3828"/><text fill="#000000" font-family="sans-serif" font-size="14" lengthAdjust="spacing" textLength="187" x="528" y="476.916">ShipChiefElectricalEngineerUI</text><rect fill="#FEFECE" filter="url(#fcyacounf2775)" height="31.6094" style="stroke:#A80036;stroke-width:1.5;" width="207" x="736" y="53"/><text fill="#000000" font-family="sans-serif" font-size="14" lengthAdjust="spacing" textLength="193" x="743" y="74.5332">GetSetOfMaterialsAtMinus5cUI</text><rect fill="#FEFECE" filter="url(#fcyacounf2775)" height="31.6094" style="stroke:#A80036;stroke-width:1.5;" width="207" x="736" y="455.3828"/><text fill="#000000" font-family="sans-serif" font-size="14" lengthAdjust="spacing" textLength="193" x="743" y="476.916">GetSetOfMaterialsAtMinus5cUI</text><rect fill="#FEFECE" filter="url(#fcyacounf2775)" height="31.6094" style="stroke:#A80036;stroke-width:1.5;" width="336" x="957" y="53"/><text fill="#000000" font-family="sans-serif" font-size="14" lengthAdjust="spacing" textLength="322" x="964" y="74.5332">GetSetOfMaterialsToContainerAtMinus5cController</text><rect fill="#FEFECE" filter="url(#fcyacounf2775)" height="31.6094" style="stroke:#A80036;stroke-width:1.5;" width="336" x="957" y="455.3828"/><text fill="#000000" font-family="sans-serif" font-size="14" lengthAdjust="spacing" textLength="322" x="964" y="476.916">GetSetOfMaterialsToContainerAtMinus5cController</text><text fill="#000000" font-family="sans-serif" font-size="14" lengthAdjust="spacing" textLength="62" x="1463" y="469.916">DataBase</text><path d="M1479,482.9922 C1479,472.9922 1497,472.9922 1497,472.9922 C1497,472.9922 1515,472.9922 1515,482.9922 L1515,508.9922 C1515,518.9922 1497,518.9922 1497,518.9922 C1497,518.9922 1479,518.9922 1479,508.9922 L1479,482.9922 " fill="#FEFECE" filter="url(#fcyacounf2775)" style="stroke:#000000;stroke-width:1.5;"/><path d="M1479,482.9922 C1479,492.9922 1497,492.9922 1497,492.9922 C1497,492.9922 1515,492.9922 1515,482.9922 " fill="none" style="stroke:#000000;stroke-width:1.5;"/><polygon fill="#A80036" points="106.5,117.9609,96.5,121.9609,106.5,125.9609,102.5,121.9609" style="stroke:#A80036;stroke-width:1.0;"/><line style="stroke:#A80036;stroke-width:1.0;stroke-dasharray:2.0,2.0;" x1="100.5" x2="321.5" y1="121.9609" y2="121.9609"/><text fill="#000000" font-family="sans-serif" font-size="13" font-weight="bold" lengthAdjust="spacing" textLength="7" x="112.5" y="117.1045">1</text><text fill="#000000" font-family="sans-serif" font-size="13" lengthAdjust="spacing" textLength="135" x="123.5" y="117.1045">Authentication Request</text><polygon fill="#A80036" points="310.5,148.3125,320.5,152.3125,310.5,156.3125,314.5,152.3125" style="stroke:#A80036;stroke-width:1.0;"/><line style="stroke:#A80036;stroke-width:1.0;" x1="95.5" x2="316.5" y1="152.3125" y2="152.3125"/><text fill="#000000" font-family="sans-serif" font-size="13" font-weight="bold" lengthAdjust="spacing" textLength="7" x="102.5" y="147.4561">2</text><text fill="#000000" font-family="sans-serif" font-size="13" lengthAdjust="spacing" textLength="192" x="113.5" y="147.4561">Another authentication Response</text><polygon fill="#A80036" points="106.5,178.6641,96.5,182.6641,106.5,186.6641,102.5,182.6641" style="stroke:#A80036;stroke-width:1.0;"/><line style="stroke:#A80036;stroke-width:1.0;stroke-dasharray:2.0,2.0;" x1="100.5" x2="321.5" y1="182.6641" y2="182.6641"/><text fill="#000000" font-family="sans-serif" font-size="13" font-weight="bold" lengthAdjust="spacing" textLength="7" x="112.5" y="177.8076">3</text><text fill="#000000" font-family="sans-serif" font-size="13" lengthAdjust="spacing" textLength="149" x="123.5" y="177.8076">Authentication successful</text><polygon fill="#A80036" points="611.5,209.0156,621.5,213.0156,611.5,217.0156,615.5,213.0156" style="stroke:#A80036;stroke-width:1.0;"/><line style="stroke:#A80036;stroke-width:1.0;stroke-dasharray:2.0,2.0;" x1="95.5" x2="617.5" y1="213.0156" y2="213.0156"/><text fill="#000000" font-family="sans-serif" font-size="13" font-weight="bold" lengthAdjust="spacing" textLength="7" x="102.5" y="208.1592">4</text><text fill="#000000" font-family="sans-serif" font-size="13" lengthAdjust="spacing" textLength="493" x="113.5" y="208.1592">Asks for the set of materials to use in a container, to operate at temperatures of -5°C.</text><polygon fill="#A80036" points="829.5,239.3672,839.5,243.3672,829.5,247.3672,833.5,243.3672" style="stroke:#A80036;stroke-width:1.0;"/><line style="stroke:#A80036;stroke-width:1.0;stroke-dasharray:2.0,2.0;" x1="623.5" x2="835.5" y1="243.3672" y2="243.3672"/><text fill="#000000" font-family="sans-serif" font-size="13" font-weight="bold" lengthAdjust="spacing" textLength="7" x="630.5" y="238.5107">5</text><text fill="#000000" font-family="sans-serif" font-size="13" lengthAdjust="spacing" textLength="55" x="641.5" y="238.5107">Connects</text><polygon fill="#A80036" points="1115,269.7188,1125,273.7188,1115,277.7188,1119,273.7188" style="stroke:#A80036;stroke-width:1.0;"/><line style="stroke:#A80036;stroke-width:1.0;stroke-dasharray:2.0,2.0;" x1="841.5" x2="1121" y1="273.7188" y2="273.7188"/><text fill="#000000" font-family="sans-serif" font-size="13" font-weight="bold" lengthAdjust="spacing" textLength="7" x="848.5" y="268.8623">6</text><text fill="#000000" font-family="sans-serif" font-size="13" lengthAdjust="spacing" textLength="92" x="859.5" y="268.8623">asks for the info</text><polygon fill="#A80036" points="1451,300.0703,1461,304.0703,1451,308.0703,1455,304.0703" style="stroke:#A80036;stroke-width:1.0;"/><line style="stroke:#A80036;stroke-width:1.0;stroke-dasharray:2.0,2.0;" x1="1127" x2="1457" y1="304.0703" y2="304.0703"/><text fill="#000000" font-family="sans-serif" font-size="13" font-weight="bold" lengthAdjust="spacing" textLength="7" x="1134" y="299.2139">7</text><text fill="#000000" font-family="sans-serif" font-size="13" lengthAdjust="spacing" textLength="301" x="1145" y="299.2139">GetSetOfMaterialsToContainerAtMinus5cController()</text><text fill="#000000" font-family="sans-serif" font-size="14" lengthAdjust="spacing" textLength="62" x="1463" y="342.252">DataBase</text><path d="M1479,291.7188 C1479,281.7188 1497,281.7188 1497,281.7188 C1497,281.7188 1515,281.7188 1515,291.7188 L1515,317.7188 C1515,327.7188 1497,327.7188 1497,327.7188 C1497,327.7188 1479,327.7188 1479,317.7188 L1479,291.7188 " fill="#FEFECE" filter="url(#fcyacounf2775)" style="stroke:#000000;stroke-width:1.5;"/><path d="M1479,291.7188 C1479,301.7188 1497,301.7188 1497,301.7188 C1497,301.7188 1515,301.7188 1515,291.7188 " fill="none" style="stroke:#000000;stroke-width:1.5;"/><polygon fill="#A80036" points="1138,373.6797,1128,377.6797,1138,381.6797,1134,377.6797" style="stroke:#A80036;stroke-width:1.0;"/><line style="stroke:#A80036;stroke-width:1.0;stroke-dasharray:2.0,2.0;" x1="1132" x2="1496" y1="377.6797" y2="377.6797"/><text fill="#000000" font-family="sans-serif" font-size="13" font-weight="bold" lengthAdjust="spacing" textLength="7" x="1144" y="372.8232">8</text><text fill="#000000" font-family="sans-serif" font-size="13" lengthAdjust="spacing" textLength="71" x="1155" y="372.8232">List&lt;String&gt;</text><polygon fill="#A80036" points="852.5,404.0313,842.5,408.0313,852.5,412.0313,848.5,408.0313" style="stroke:#A80036;stroke-width:1.0;"/><line style="stroke:#A80036;stroke-width:1.0;stroke-dasharray:2.0,2.0;" x1="846.5" x2="1126" y1="408.0313" y2="408.0313"/><text fill="#000000" font-family="sans-serif" font-size="13" font-weight="bold" lengthAdjust="spacing" textLength="7" x="858.5" y="403.1748">9</text><text fill="#000000" font-family="sans-serif" font-size="13" lengthAdjust="spacing" textLength="71" x="869.5" y="403.1748">List&lt;String&gt;</text><polygon fill="#A80036" points="106.5,434.3828,96.5,438.3828,106.5,442.3828,102.5,438.3828" style="stroke:#A80036;stroke-width:1.0;"/><line style="stroke:#A80036;stroke-width:1.0;stroke-dasharray:2.0,2.0;" x1="100.5" x2="840.5" y1="438.3828" y2="438.3828"/><text fill="#000000" font-family="sans-serif" font-size="13" font-weight="bold" lengthAdjust="spacing" textLength="14" x="112.5" y="433.5264">10</text><text fill="#000000" font-family="sans-serif" font-size="13" lengthAdjust="spacing" textLength="173" x="130.5" y="433.5264">Delivers the information asked</text><!--MD5=[dec59e82275516f737db315995a089f9]
@startuml
'https://plantuml.com/sequence-diagram

autonumber

autonumber

actor ShipChiefElectricalEngineer #red

System - -> ShipChiefElectricalEngineer: Authentication Request
ShipChiefElectricalEngineer -> System : Another authentication Response
System - -> ShipChiefElectricalEngineer : Authentication successful
ShipChiefElectricalEngineer - -> ShipChiefElectricalEngineerUI : Asks for the set of materials to use in a container, to operate at temperatures of -5°C.
ShipChiefElectricalEngineerUI - -> GetSetOfMaterialsAtMinus5cUI : Connects
GetSetOfMaterialsAtMinus5cUI - -> GetSetOfMaterialsToContainerAtMinus5cController : asks for the info
database       "DataBase"              as db
GetSetOfMaterialsToContainerAtMinus5cController - -> db** : GetSetOfMaterialsToContainerAtMinus5cController()
db - -> GetSetOfMaterialsToContainerAtMinus5cController : List<String>
GetSetOfMaterialsToContainerAtMinus5cController - -> GetSetOfMaterialsAtMinus5cUI : List<String>
GetSetOfMaterialsAtMinus5cUI - -> ShipChiefElectricalEngineer : Delivers the information asked

@enduml

@startuml

autonumber

autonumber

actor ShipChiefElectricalEngineer #red

System - -> ShipChiefElectricalEngineer: Authentication Request
ShipChiefElectricalEngineer -> System : Another authentication Response
System - -> ShipChiefElectricalEngineer : Authentication successful
ShipChiefElectricalEngineer - -> ShipChiefElectricalEngineerUI : Asks for the set of materials to use in a container, to operate at temperatures of -5°C.
ShipChiefElectricalEngineerUI - -> GetSetOfMaterialsAtMinus5cUI : Connects
GetSetOfMaterialsAtMinus5cUI - -> GetSetOfMaterialsToContainerAtMinus5cController : asks for the info
database       "DataBase"              as db
GetSetOfMaterialsToContainerAtMinus5cController - -> db** : GetSetOfMaterialsToContainerAtMinus5cController()
db - -> GetSetOfMaterialsToContainerAtMinus5cController : List<String>
GetSetOfMaterialsToContainerAtMinus5cController - -> GetSetOfMaterialsAtMinus5cUI : List<String>
GetSetOfMaterialsAtMinus5cUI - -> ShipChiefElectricalEngineer : Delivers the information asked

@enduml

PlantUML version 1.2021.11(Sat Oct 02 14:26:11 BST 2021)
(GPL source distribution)
Java Runtime: OpenJDK Runtime Environment
JVM: OpenJDK 64-Bit Server VM
Default Encoding: Cp1252
Language: pt
Country: PT
--></g></svg>