<?xml version="1.0" encoding="UTF-8" standalone="no"?><svg xmlns="http://www.w3.org/2000/svg" xmlns:xlink="http://www.w3.org/1999/xlink" contentScriptType="application/ecmascript" contentStyleType="text/css" height="684px" preserveAspectRatio="none" style="width:611px;height:684px;background:#FFFFFF;" version="1.1" viewBox="0 0 611 684" width="611px" zoomAndPan="magnify"><defs><filter height="300%" id="f1g4veve5rggpx" width="300%" x="-1" y="-1"><feGaussianBlur result="blurOut" stdDeviation="2.0"/><feColorMatrix in="blurOut" result="blurOut2" type="matrix" values="0 0 0 0 0 0 0 0 0 0 0 0 0 0 0 0 0 0 .4 0"/><feOffset dx="4.0" dy="4.0" in="blurOut2" result="blurOut3"/><feBlend in="SourceGraphic" in2="blurOut3" mode="normal"/></filter></defs><g><!--MD5=[99d8f1361a72f685c413d1fd21efef1c]
class PortManager--><rect codeLine="2" fill="#FEFECE" filter="url(#f1g4veve5rggpx)" height="48" id="PortManager" style="stroke:#A80036;stroke-width:1.5;" width="102" x="490.5" y="7"/><ellipse cx="505.5" cy="23" fill="#ADD1B2" rx="11" ry="11" style="stroke:#A80036;stroke-width:1.0;"/><path d="M507.5,19.5 Q507.7031,19 507.9375,18.75 Q508.1719,18.5 508.4375,18.5 Q508.9063,18.5 509.2031,18.7813 Q509.5,19.0625 509.5,19.7188 L509.5,21.2813 Q509.5,21.9375 509.2188,22.2188 Q508.9375,22.5 508.5,22.5 Q508.1094,22.5 507.8594,22.3281 Q507.6094,22.1563 507.5,21.7031 Q507.4531,21.3906 507.2813,21.2188 Q506.9688,20.8906 506.4063,20.7031 Q505.8438,20.5 505.2813,20.5 Q504.5781,20.5 503.9844,20.7813 Q503.4063,21.0625 502.9531,21.6875 Q502.5,22.3125 502.5,23.1719 L502.5,24.0938 Q502.5,25.125 503.3438,25.8125 Q504.1875,26.5 505.6875,26.5 Q506.5781,26.5 507.2031,26.2969 Q507.5625,26.1875 507.9688,25.8281 Q508.2344,25.625 508.375,25.5625 Q508.5156,25.5 508.6875,25.5 Q509.0156,25.5 509.25,25.7656 Q509.5,26.0156 509.5,26.375 Q509.5,26.7188 509.1563,27.125 Q508.6563,27.7188 507.8594,28.0469 Q506.8125,28.5 505.5313,28.5 Q504.0313,28.5 502.8281,27.9063 Q501.8594,27.4375 501.1719,26.4219 Q500.5,25.4063 500.5,24.2031 L500.5,23.1094 Q500.5,21.8594 501.0938,20.7656 Q501.7031,19.6719 502.75,19.0938 Q503.8125,18.5 505,18.5 Q505.7188,18.5 506.3438,18.75 Q506.9688,19 507.5,19.5 Z " fill="#000000"/><text fill="#000000" font-family="sans-serif" font-size="12" lengthAdjust="spacing" textLength="70" x="519.5" y="27.9102">PortManager</text><line style="stroke:#A80036;stroke-width:1.5;" x1="491.5" x2="591.5" y1="39" y2="39"/><line style="stroke:#A80036;stroke-width:1.5;" x1="491.5" x2="591.5" y1="47" y2="47"/><!--MD5=[3fd616f346a44cd59a91eb10b19e157c]
class User--><rect codeLine="6" fill="#FEFECE" filter="url(#f1g4veve5rggpx)" height="48" id="User" style="stroke:#A80036;stroke-width:1.5;" width="59" x="525" y="154"/><ellipse cx="540" cy="170" fill="#ADD1B2" rx="11" ry="11" style="stroke:#A80036;stroke-width:1.0;"/><path d="M542,166.5 Q542.2031,166 542.4375,165.75 Q542.6719,165.5 542.9375,165.5 Q543.4063,165.5 543.7031,165.7813 Q544,166.0625 544,166.7188 L544,168.2813 Q544,168.9375 543.7188,169.2188 Q543.4375,169.5 543,169.5 Q542.6094,169.5 542.3594,169.3281 Q542.1094,169.1563 542,168.7031 Q541.9531,168.3906 541.7813,168.2188 Q541.4688,167.8906 540.9063,167.7031 Q540.3438,167.5 539.7813,167.5 Q539.0781,167.5 538.4844,167.7813 Q537.9063,168.0625 537.4531,168.6875 Q537,169.3125 537,170.1719 L537,171.0938 Q537,172.125 537.8438,172.8125 Q538.6875,173.5 540.1875,173.5 Q541.0781,173.5 541.7031,173.2969 Q542.0625,173.1875 542.4688,172.8281 Q542.7344,172.625 542.875,172.5625 Q543.0156,172.5 543.1875,172.5 Q543.5156,172.5 543.75,172.7656 Q544,173.0156 544,173.375 Q544,173.7188 543.6563,174.125 Q543.1563,174.7188 542.3594,175.0469 Q541.3125,175.5 540.0313,175.5 Q538.5313,175.5 537.3281,174.9063 Q536.3594,174.4375 535.6719,173.4219 Q535,172.4063 535,171.2031 L535,170.1094 Q535,168.8594 535.5938,167.7656 Q536.2031,166.6719 537.25,166.0938 Q538.3125,165.5 539.5,165.5 Q540.2188,165.5 540.8438,165.75 Q541.4688,166 542,166.5 Z " fill="#000000"/><text fill="#000000" font-family="sans-serif" font-size="12" lengthAdjust="spacing" textLength="27" x="554" y="174.9102">User</text><line style="stroke:#A80036;stroke-width:1.5;" x1="526" x2="583" y1="186" y2="186"/><line style="stroke:#A80036;stroke-width:1.5;" x1="526" x2="583" y1="194" y2="194"/><!--MD5=[45d42ff7800d812d5f83c7d3273eb427]
class UserRole--><rect codeLine="10" fill="#FEFECE" filter="url(#f1g4veve5rggpx)" height="48" id="UserRole" style="stroke:#A80036;stroke-width:1.5;" width="85" x="512" y="335.5"/><ellipse cx="527" cy="351.5" fill="#ADD1B2" rx="11" ry="11" style="stroke:#A80036;stroke-width:1.0;"/><path d="M529,348 Q529.2031,347.5 529.4375,347.25 Q529.6719,347 529.9375,347 Q530.4063,347 530.7031,347.2813 Q531,347.5625 531,348.2188 L531,349.7813 Q531,350.4375 530.7188,350.7188 Q530.4375,351 530,351 Q529.6094,351 529.3594,350.8281 Q529.1094,350.6563 529,350.2031 Q528.9531,349.8906 528.7813,349.7188 Q528.4688,349.3906 527.9063,349.2031 Q527.3438,349 526.7813,349 Q526.0781,349 525.4844,349.2813 Q524.9063,349.5625 524.4531,350.1875 Q524,350.8125 524,351.6719 L524,352.5938 Q524,353.625 524.8438,354.3125 Q525.6875,355 527.1875,355 Q528.0781,355 528.7031,354.7969 Q529.0625,354.6875 529.4688,354.3281 Q529.7344,354.125 529.875,354.0625 Q530.0156,354 530.1875,354 Q530.5156,354 530.75,354.2656 Q531,354.5156 531,354.875 Q531,355.2188 530.6563,355.625 Q530.1563,356.2188 529.3594,356.5469 Q528.3125,357 527.0313,357 Q525.5313,357 524.3281,356.4063 Q523.3594,355.9375 522.6719,354.9219 Q522,353.9063 522,352.7031 L522,351.6094 Q522,350.3594 522.5938,349.2656 Q523.2031,348.1719 524.25,347.5938 Q525.3125,347 526.5,347 Q527.2188,347 527.8438,347.25 Q528.4688,347.5 529,348 Z " fill="#000000"/><text fill="#000000" font-family="sans-serif" font-size="12" lengthAdjust="spacing" textLength="53" x="541" y="356.4102">UserRole</text><line style="stroke:#A80036;stroke-width:1.5;" x1="513" x2="596" y1="367.5" y2="367.5"/><line style="stroke:#A80036;stroke-width:1.5;" x1="513" x2="596" y1="375.5" y2="375.5"/><!--MD5=[02e4b9b7573f1156f41e60aa5b4e25a4]
class Company--><rect codeLine="14" fill="#FEFECE" filter="url(#f1g4veve5rggpx)" height="48" id="Company" style="stroke:#A80036;stroke-width:1.5;" width="85" x="214" y="496"/><ellipse cx="229" cy="512" fill="#ADD1B2" rx="11" ry="11" style="stroke:#A80036;stroke-width:1.0;"/><path d="M231,508.5 Q231.2031,508 231.4375,507.75 Q231.6719,507.5 231.9375,507.5 Q232.4063,507.5 232.7031,507.7813 Q233,508.0625 233,508.7188 L233,510.2813 Q233,510.9375 232.7188,511.2188 Q232.4375,511.5 232,511.5 Q231.6094,511.5 231.3594,511.3281 Q231.1094,511.1563 231,510.7031 Q230.9531,510.3906 230.7813,510.2188 Q230.4688,509.8906 229.9063,509.7031 Q229.3438,509.5 228.7813,509.5 Q228.0781,509.5 227.4844,509.7813 Q226.9063,510.0625 226.4531,510.6875 Q226,511.3125 226,512.1719 L226,513.0938 Q226,514.125 226.8438,514.8125 Q227.6875,515.5 229.1875,515.5 Q230.0781,515.5 230.7031,515.2969 Q231.0625,515.1875 231.4688,514.8281 Q231.7344,514.625 231.875,514.5625 Q232.0156,514.5 232.1875,514.5 Q232.5156,514.5 232.75,514.7656 Q233,515.0156 233,515.375 Q233,515.7188 232.6563,516.125 Q232.1563,516.7188 231.3594,517.0469 Q230.3125,517.5 229.0313,517.5 Q227.5313,517.5 226.3281,516.9063 Q225.3594,516.4375 224.6719,515.4219 Q224,514.4063 224,513.2031 L224,512.1094 Q224,510.8594 224.5938,509.7656 Q225.2031,508.6719 226.25,508.0938 Q227.3125,507.5 228.5,507.5 Q229.2188,507.5 229.8438,507.75 Q230.4688,508 231,508.5 Z " fill="#000000"/><text fill="#000000" font-family="sans-serif" font-size="12" lengthAdjust="spacing" textLength="53" x="243" y="516.9102">Company</text><line style="stroke:#A80036;stroke-width:1.5;" x1="215" x2="298" y1="528" y2="528"/><line style="stroke:#A80036;stroke-width:1.5;" x1="215" x2="298" y1="536" y2="536"/><!--MD5=[a342bf45de083eb872f43ac304f2946a]
class GenerateLoadingSufficientResourcesUI--><rect codeLine="18" fill="#FEFECE" filter="url(#f1g4veve5rggpx)" height="89.5078" id="GenerateLoadingSufficientResourcesUI" style="stroke:#A80036;stroke-width:1.5;" width="483" x="7" y="133"/><ellipse cx="134.75" cy="149" fill="#ADD1B2" rx="11" ry="11" style="stroke:#A80036;stroke-width:1.0;"/><path d="M136.75,145.5 Q136.9531,145 137.1875,144.75 Q137.4219,144.5 137.6875,144.5 Q138.1563,144.5 138.4531,144.7813 Q138.75,145.0625 138.75,145.7188 L138.75,147.2813 Q138.75,147.9375 138.4688,148.2188 Q138.1875,148.5 137.75,148.5 Q137.3594,148.5 137.1094,148.3281 Q136.8594,148.1563 136.75,147.7031 Q136.7031,147.3906 136.5313,147.2188 Q136.2188,146.8906 135.6563,146.7031 Q135.0938,146.5 134.5313,146.5 Q133.8281,146.5 133.2344,146.7813 Q132.6563,147.0625 132.2031,147.6875 Q131.75,148.3125 131.75,149.1719 L131.75,150.0938 Q131.75,151.125 132.5938,151.8125 Q133.4375,152.5 134.9375,152.5 Q135.8281,152.5 136.4531,152.2969 Q136.8125,152.1875 137.2188,151.8281 Q137.4844,151.625 137.625,151.5625 Q137.7656,151.5 137.9375,151.5 Q138.2656,151.5 138.5,151.7656 Q138.75,152.0156 138.75,152.375 Q138.75,152.7188 138.4063,153.125 Q137.9063,153.7188 137.1094,154.0469 Q136.0625,154.5 134.7813,154.5 Q133.2813,154.5 132.0781,153.9063 Q131.1094,153.4375 130.4219,152.4219 Q129.75,151.4063 129.75,150.2031 L129.75,149.1094 Q129.75,147.8594 130.3438,146.7656 Q130.9531,145.6719 132,145.0938 Q133.0625,144.5 134.25,144.5 Q134.9688,144.5 135.5938,144.75 Q136.2188,145 136.75,145.5 Z " fill="#000000"/><text fill="#000000" font-family="sans-serif" font-size="12" lengthAdjust="spacing" textLength="219" x="155.25" y="153.9102">GenerateLoadingSufficientResourcesUI</text><line style="stroke:#A80036;stroke-width:1.5;" x1="8" x2="489" y1="165" y2="165"/><rect fill="none" height="6" style="stroke:#C82930;stroke-width:1.0;" width="6" x="15" y="173"/><text fill="#000000" font-family="sans-serif" font-size="11" lengthAdjust="spacing" textLength="457" x="27" y="180.4189">GenerateLoadingSufficientResourcesController generateLoadingSufficientResourcesController</text><line style="stroke:#A80036;stroke-width:1.5;" x1="8" x2="489" y1="186.8359" y2="186.8359"/><ellipse cx="18" cy="197.8359" fill="#84BE84" rx="3" ry="3" style="stroke:#038048;stroke-width:1.0;"/><text fill="#000000" font-family="sans-serif" font-size="11" lengthAdjust="spacing" textLength="199" x="27" y="202.2549">GenerateLoadingSufficientResourcesUI()</text><ellipse cx="18" cy="211.6719" fill="#84BE84" rx="3" ry="3" style="stroke:#038048;stroke-width:1.0;"/><text fill="#000000" font-family="sans-serif" font-size="11" lengthAdjust="spacing" textLength="24" x="27" y="216.0908">run()</text><!--MD5=[15e7f6faafbf36f45ac052a9a08b3db2]
class GenerateLoadingSufficientResourcesController--><rect codeLine="24" fill="#FEFECE" filter="url(#f1g4veve5rggpx)" height="117.1797" id="GenerateLoadingSufficientResourcesController" style="stroke:#A80036;stroke-width:1.5;" width="354" x="79.5" y="301"/><ellipse cx="121.95" cy="317" fill="#ADD1B2" rx="11" ry="11" style="stroke:#A80036;stroke-width:1.0;"/><path d="M123.95,313.5 Q124.1531,313 124.3875,312.75 Q124.6219,312.5 124.8875,312.5 Q125.3563,312.5 125.6531,312.7813 Q125.95,313.0625 125.95,313.7188 L125.95,315.2813 Q125.95,315.9375 125.6688,316.2188 Q125.3875,316.5 124.95,316.5 Q124.5594,316.5 124.3094,316.3281 Q124.0594,316.1563 123.95,315.7031 Q123.9031,315.3906 123.7313,315.2188 Q123.4188,314.8906 122.8563,314.7031 Q122.2938,314.5 121.7313,314.5 Q121.0281,314.5 120.4344,314.7813 Q119.8563,315.0625 119.4031,315.6875 Q118.95,316.3125 118.95,317.1719 L118.95,318.0938 Q118.95,319.125 119.7938,319.8125 Q120.6375,320.5 122.1375,320.5 Q123.0281,320.5 123.6531,320.2969 Q124.0125,320.1875 124.4188,319.8281 Q124.6844,319.625 124.825,319.5625 Q124.9656,319.5 125.1375,319.5 Q125.4656,319.5 125.7,319.7656 Q125.95,320.0156 125.95,320.375 Q125.95,320.7188 125.6063,321.125 Q125.1063,321.7188 124.3094,322.0469 Q123.2625,322.5 121.9813,322.5 Q120.4813,322.5 119.2781,321.9063 Q118.3094,321.4375 117.6219,320.4219 Q116.95,319.4063 116.95,318.2031 L116.95,317.1094 Q116.95,315.8594 117.5438,314.7656 Q118.1531,313.6719 119.2,313.0938 Q120.2625,312.5 121.45,312.5 Q122.1688,312.5 122.7938,312.75 Q123.4188,313 123.95,313.5 Z " fill="#000000"/><text fill="#000000" font-family="sans-serif" font-size="12" lengthAdjust="spacing" textLength="261" x="142.05" y="321.9102">GenerateLoadingSufficientResourcesController</text><line style="stroke:#A80036;stroke-width:1.5;" x1="80.5" x2="432.5" y1="333" y2="333"/><rect fill="none" height="6" style="stroke:#C82930;stroke-width:1.0;" width="6" x="87.5" y="341"/><text fill="#000000" font-family="sans-serif" font-size="11" lengthAdjust="spacing" textLength="92" x="99.5" y="348.4189">Company company</text><line style="stroke:#A80036;stroke-width:1.5;" x1="80.5" x2="432.5" y1="354.8359" y2="354.8359"/><ellipse cx="90.5" cy="365.8359" fill="#84BE84" rx="3" ry="3" style="stroke:#038048;stroke-width:1.0;"/><text fill="#000000" font-family="sans-serif" font-size="11" lengthAdjust="spacing" textLength="236" x="99.5" y="370.2549">GenerateLoadingSufficientResourcesController()</text><ellipse cx="90.5" cy="379.6719" fill="#84BE84" rx="3" ry="3" style="stroke:#038048;stroke-width:1.0;"/><text fill="#000000" font-family="sans-serif" font-size="11" lengthAdjust="spacing" textLength="328" x="99.5" y="384.0908">GenerateLoadingSufficientResourcesController(Company company)</text><ellipse cx="90.5" cy="393.5078" fill="#84BE84" rx="3" ry="3" style="stroke:#038048;stroke-width:1.0;"/><text fill="#000000" font-family="sans-serif" font-size="11" lengthAdjust="spacing" textLength="234" x="99.5" y="397.9268">generateLoadingSufficientResourcesController()</text><ellipse cx="90.5" cy="407.3438" fill="#84BE84" rx="3" ry="3" style="stroke:#038048;stroke-width:1.0;"/><text fill="#000000" font-family="sans-serif" font-size="11" lengthAdjust="spacing" textLength="68" x="99.5" y="411.7627">getCompany()</text><!--MD5=[019a73386217e12d5bb8e34bf0b46b9e]
class FleetManager--><rect fill="#FEFECE" filter="url(#f1g4veve5rggpx)" height="48" id="FleetManager" style="stroke:#A80036;stroke-width:1.5;" width="107" x="348" y="7"/><ellipse cx="363" cy="23" fill="#ADD1B2" rx="11" ry="11" style="stroke:#A80036;stroke-width:1.0;"/><path d="M365,19.5 Q365.2031,19 365.4375,18.75 Q365.6719,18.5 365.9375,18.5 Q366.4063,18.5 366.7031,18.7813 Q367,19.0625 367,19.7188 L367,21.2813 Q367,21.9375 366.7188,22.2188 Q366.4375,22.5 366,22.5 Q365.6094,22.5 365.3594,22.3281 Q365.1094,22.1563 365,21.7031 Q364.9531,21.3906 364.7813,21.2188 Q364.4688,20.8906 363.9063,20.7031 Q363.3438,20.5 362.7813,20.5 Q362.0781,20.5 361.4844,20.7813 Q360.9063,21.0625 360.4531,21.6875 Q360,22.3125 360,23.1719 L360,24.0938 Q360,25.125 360.8438,25.8125 Q361.6875,26.5 363.1875,26.5 Q364.0781,26.5 364.7031,26.2969 Q365.0625,26.1875 365.4688,25.8281 Q365.7344,25.625 365.875,25.5625 Q366.0156,25.5 366.1875,25.5 Q366.5156,25.5 366.75,25.7656 Q367,26.0156 367,26.375 Q367,26.7188 366.6563,27.125 Q366.1563,27.7188 365.3594,28.0469 Q364.3125,28.5 363.0313,28.5 Q361.5313,28.5 360.3281,27.9063 Q359.3594,27.4375 358.6719,26.4219 Q358,25.4063 358,24.2031 L358,23.1094 Q358,21.8594 358.5938,20.7656 Q359.2031,19.6719 360.25,19.0938 Q361.3125,18.5 362.5,18.5 Q363.2188,18.5 363.8438,18.75 Q364.4688,19 365,19.5 Z " fill="#000000"/><text fill="#000000" font-family="sans-serif" font-size="12" lengthAdjust="spacing" textLength="75" x="377" y="27.9102">FleetManager</text><line style="stroke:#A80036;stroke-width:1.5;" x1="349" x2="454" y1="39" y2="39"/><line style="stroke:#A80036;stroke-width:1.5;" x1="349" x2="454" y1="47" y2="47"/><!--MD5=[837d3612090b426002fd1342fcbe6b88]
class DataBase--><rect fill="#FEFECE" filter="url(#f1g4veve5rggpx)" height="48" id="DataBase" style="stroke:#A80036;stroke-width:1.5;" width="87" x="213" y="622"/><ellipse cx="228" cy="638" fill="#ADD1B2" rx="11" ry="11" style="stroke:#A80036;stroke-width:1.0;"/><path d="M230,634.5 Q230.2031,634 230.4375,633.75 Q230.6719,633.5 230.9375,633.5 Q231.4063,633.5 231.7031,633.7813 Q232,634.0625 232,634.7188 L232,636.2813 Q232,636.9375 231.7188,637.2188 Q231.4375,637.5 231,637.5 Q230.6094,637.5 230.3594,637.3281 Q230.1094,637.1563 230,636.7031 Q229.9531,636.3906 229.7813,636.2188 Q229.4688,635.8906 228.9063,635.7031 Q228.3438,635.5 227.7813,635.5 Q227.0781,635.5 226.4844,635.7813 Q225.9063,636.0625 225.4531,636.6875 Q225,637.3125 225,638.1719 L225,639.0938 Q225,640.125 225.8438,640.8125 Q226.6875,641.5 228.1875,641.5 Q229.0781,641.5 229.7031,641.2969 Q230.0625,641.1875 230.4688,640.8281 Q230.7344,640.625 230.875,640.5625 Q231.0156,640.5 231.1875,640.5 Q231.5156,640.5 231.75,640.7656 Q232,641.0156 232,641.375 Q232,641.7188 231.6563,642.125 Q231.1563,642.7188 230.3594,643.0469 Q229.3125,643.5 228.0313,643.5 Q226.5313,643.5 225.3281,642.9063 Q224.3594,642.4375 223.6719,641.4219 Q223,640.4063 223,639.2031 L223,638.1094 Q223,636.8594 223.5938,635.7656 Q224.2031,634.6719 225.25,634.0938 Q226.3125,633.5 227.5,633.5 Q228.2188,633.5 228.8438,633.75 Q229.4688,634 230,634.5 Z " fill="#000000"/><text fill="#000000" font-family="sans-serif" font-size="12" lengthAdjust="spacing" textLength="55" x="242" y="642.9102">DataBase</text><line style="stroke:#A80036;stroke-width:1.5;" x1="214" x2="299" y1="654" y2="654"/><line style="stroke:#A80036;stroke-width:1.5;" x1="214" x2="299" y1="662" y2="662"/><!--MD5=[b2d438e1aba8ae5f8cace23c0633a889]
link FleetManager to GenerateLoadingSufficientResourcesUI--><path codeLine="32" d="M376.92,55.3 C355.9,75.21 324.99,104.5 298.77,129.36 " fill="none" id="FleetManager-to-GenerateLoadingSufficientResourcesUI" style="stroke:#A80036;stroke-width:1.0;"/><polygon fill="#A80036" points="294.93,133,304.212,129.707,298.5571,129.5585,298.7056,123.9036,294.93,133" style="stroke:#A80036;stroke-width:1.0;"/><text fill="#000000" font-family="sans-serif" font-size="13" lengthAdjust="spacing" textLength="44" x="344.5" y="99.4951">Access</text><!--MD5=[1656a505da0a21d29e1b2e369bdcb6fa]
link GenerateLoadingSufficientResourcesUI to GenerateLoadingSufficientResourcesController--><path codeLine="33" d="M216.86,223.43 C209.81,238.23 205.48,255.02 209.5,271 C211.63,279.47 214.76,288.01 218.4,296.26 " fill="none" id="GenerateLoadingSufficientResourcesUI-to-GenerateLoadingSufficientResourcesController" style="stroke:#A80036;stroke-width:1.0;"/><polygon fill="#A80036" points="220.47,300.81,220.3756,290.9616,218.3956,296.2606,213.0966,294.2806,220.47,300.81" style="stroke:#A80036;stroke-width:1.0;"/><text fill="#000000" font-family="sans-serif" font-size="13" lengthAdjust="spacing" textLength="82" x="210.5" y="267.4951">Connects with</text><!--MD5=[52d6a97985683de61bdf3a1d19d7165b]
reverse link GenerateLoadingSufficientResourcesUI to GenerateLoadingSufficientResourcesController--><path codeLine="36" d="M286.22,227.53 C290.86,235.65 294.88,244.29 297.5,253 C302.23,268.71 299.51,285.4 293.7,300.75 " fill="none" id="GenerateLoadingSufficientResourcesUI-backto-GenerateLoadingSufficientResourcesController" style="stroke:#A80036;stroke-width:1.0;"/><polygon fill="#A80036" points="283.59,223.07,284.7139,232.8545,286.1288,227.3775,291.6059,228.7924,283.59,223.07" style="stroke:#A80036;stroke-width:1.0;"/><text fill="#000000" font-family="sans-serif" font-size="13" lengthAdjust="spacing" textLength="69" x="301.5" y="267.4951">Returns Info</text><!--MD5=[02b4be5268fe12dde2ec161c58bf6185]
link FleetManager to User--><path codeLine="34" d="M426.08,55.3 C453.41,81.19 497.46,122.95 526.2,150.18 " fill="none" id="FleetManager-to-User" style="stroke:#A80036;stroke-width:1.0;"/><polygon fill="#A80036" points="529.98,153.76,526.1855,144.6715,526.3457,150.326,520.6911,150.4863,529.98,153.76" style="stroke:#A80036;stroke-width:1.0;"/><text fill="#000000" font-family="sans-serif" font-size="13" lengthAdjust="spacing" textLength="21" x="474.5" y="99.4951">is a</text><!--MD5=[1f12d177c84922ed4f166f09ee62ceaa]
link User to UserRole--><path codeLine="35" d="M554.5,202.1 C554.5,234.95 554.5,295.09 554.5,330.46 " fill="none" id="User-to-UserRole" style="stroke:#A80036;stroke-width:1.0;"/><polygon fill="#A80036" points="554.5,335.49,558.5,326.49,554.5,330.49,550.5,326.49,554.5,335.49" style="stroke:#A80036;stroke-width:1.0;"/><text fill="#000000" font-family="sans-serif" font-size="13" lengthAdjust="spacing" textLength="21" x="555.5" y="267.4951">has</text><!--MD5=[ffaf67372f0a33be7b7c8f0fb6a547cd]
link GenerateLoadingSufficientResourcesController to Company--><path codeLine="37" d="M205.87,418.35 C199.99,427.74 194.89,437.76 191.5,448 C185.79,465.26 196.67,480.67 211.07,492.69 " fill="none" id="GenerateLoadingSufficientResourcesController-to-Company" style="stroke:#A80036;stroke-width:1.0;"/><polygon fill="#A80036" points="215.21,495.98,210.6576,487.2464,211.2973,492.867,205.6767,493.5067,215.21,495.98" style="stroke:#A80036;stroke-width:1.0;"/><text fill="#000000" font-family="sans-serif" font-size="13" lengthAdjust="spacing" textLength="82" x="192.5" y="462.4951">Connects with</text><!--MD5=[1e186539a57cd3f7d8fa2a4a719869a9]
link Company to GenerateLoadingSufficientResourcesController--><path codeLine="38" d="M268.95,495.94 C273.19,486.88 277.38,476.21 279.5,466 C282.37,452.19 281.56,437.38 278.99,423.35 " fill="none" id="Company-to-GenerateLoadingSufficientResourcesController" style="stroke:#A80036;stroke-width:1.0;"/><polygon fill="#A80036" points="277.97,418.22,275.8181,427.8309,278.9533,423.1224,283.6619,426.2576,277.97,418.22" style="stroke:#A80036;stroke-width:1.0;"/><text fill="#000000" font-family="sans-serif" font-size="13" lengthAdjust="spacing" textLength="69" x="282.5" y="462.4951">Returns Info</text><!--MD5=[28fa5ca211853e28b35503d2b875b2be]
link Company to DataBase--><path codeLine="39" d="M256.5,544.03 C256.5,564.52 256.5,594.56 256.5,616.55 " fill="none" id="Company-to-DataBase" style="stroke:#A80036;stroke-width:1.0;"/><polygon fill="#A80036" points="256.5,621.67,260.5,612.67,256.5,616.67,252.5,612.67,256.5,621.67" style="stroke:#A80036;stroke-width:1.0;"/><text fill="#000000" font-family="sans-serif" font-size="13" lengthAdjust="spacing" textLength="55" x="257.5" y="588.4951">Connects</text><!--MD5=[ead9939d8e14dd3c24a694cf41385d9b]
@startuml

class PortManager{

}

class User{

}

class UserRole{

}

class Company{

}

class GenerateLoadingSufficientResourcesUI{
    -GenerateLoadingSufficientResourcesController generateLoadingSufficientResourcesController
    +GenerateLoadingSufficientResourcesUI()
    +run()
}

class GenerateLoadingSufficientResourcesController{
    -Company company
    +GenerateLoadingSufficientResourcesController()
    +GenerateLoadingSufficientResourcesController(Company company)
    +generateLoadingSufficientResourcesController()
    +getCompany()
}

FleetManager - -> GenerateLoadingSufficientResourcesUI : Access
GenerateLoadingSufficientResourcesUI -down-> GenerateLoadingSufficientResourcesController : Connects with
FleetManager - -> User : is a
User - -> UserRole : has
GenerateLoadingSufficientResourcesController -up-> GenerateLoadingSufficientResourcesUI : Returns Info
GenerateLoadingSufficientResourcesController - -> Company : Connects with
Company - -> GenerateLoadingSufficientResourcesController : Returns Info
Company - -> DataBase : Connects

@enduml

PlantUML version 1.2021.11(Sat Oct 02 14:26:11 BST 2021)
(GPL source distribution)
Java Runtime: OpenJDK Runtime Environment
JVM: OpenJDK 64-Bit Server VM
Default Encoding: Cp1252
Language: pt
Country: PT
--></g></svg>