<?xml version="1.0" encoding="UTF-8" standalone="no"?><svg xmlns="http://www.w3.org/2000/svg" xmlns:xlink="http://www.w3.org/1999/xlink" contentScriptType="application/ecmascript" contentStyleType="text/css" height="541px" preserveAspectRatio="none" style="width:1795px;height:541px;background:#FFFFFF;" version="1.1" viewBox="0 0 1795 541" width="1795px" zoomAndPan="magnify"><defs><filter height="300%" id="fgwek0y5ilgs6" width="300%" x="-1" y="-1"><feGaussianBlur result="blurOut" stdDeviation="2.0"/><feColorMatrix in="blurOut" result="blurOut2" type="matrix" values="0 0 0 0 0 0 0 0 0 0 0 0 0 0 0 0 0 0 .4 0"/><feOffset dx="4.0" dy="4.0" in="blurOut2" result="blurOut3"/><feBlend in="SourceGraphic" in2="blurOut3" mode="normal"/></filter></defs><g><line style="stroke:#A80036;stroke-width:1.0;stroke-dasharray:5.0,5.0;" x1="49" x2="49" y1="89.6094" y2="456.3828"/><line style="stroke:#A80036;stroke-width:1.0;stroke-dasharray:5.0,5.0;" x1="276" x2="276" y1="89.6094" y2="456.3828"/><line style="stroke:#A80036;stroke-width:1.0;stroke-dasharray:5.0,5.0;" x1="917" x2="917" y1="89.6094" y2="456.3828"/><line style="stroke:#A80036;stroke-width:1.0;stroke-dasharray:5.0,5.0;" x1="1116" x2="1116" y1="89.6094" y2="456.3828"/><line style="stroke:#A80036;stroke-width:1.0;stroke-dasharray:5.0,5.0;" x1="1418" x2="1418" y1="89.6094" y2="456.3828"/><line style="stroke:#A80036;stroke-width:1.0;stroke-dasharray:5.0,5.0;" x1="1760.5" x2="1760.5" y1="328.5234" y2="456.3828"/><text fill="#000000" font-family="sans-serif" font-size="14" lengthAdjust="spacing" textLength="82" x="5" y="86.5332">PortManager</text><ellipse cx="49" cy="15" fill="#FF0000" filter="url(#fgwek0y5ilgs6)" rx="8" ry="8" style="stroke:#A80036;stroke-width:2.0;"/><path d="M49,23 L49,50 M36,31 L62,31 M49,50 L36,65 M49,50 L62,65 " fill="none" filter="url(#fgwek0y5ilgs6)" style="stroke:#A80036;stroke-width:2.0;"/><text fill="#000000" font-family="sans-serif" font-size="14" lengthAdjust="spacing" textLength="82" x="5" y="469.916">PortManager</text><ellipse cx="49" cy="482.9922" fill="#FF0000" filter="url(#fgwek0y5ilgs6)" rx="8" ry="8" style="stroke:#A80036;stroke-width:2.0;"/><path d="M49,490.9922 L49,517.9922 M36,498.9922 L62,498.9922 M49,517.9922 L36,532.9922 M49,517.9922 L62,532.9922 " fill="none" filter="url(#fgwek0y5ilgs6)" style="stroke:#A80036;stroke-width:2.0;"/><rect fill="#FEFECE" filter="url(#fgwek0y5ilgs6)" height="31.6094" style="stroke:#A80036;stroke-width:1.5;" width="60" x="244" y="53"/><text fill="#000000" font-family="sans-serif" font-size="14" lengthAdjust="spacing" textLength="46" x="251" y="74.5332">System</text><rect fill="#FEFECE" filter="url(#fgwek0y5ilgs6)" height="31.6094" style="stroke:#A80036;stroke-width:1.5;" width="60" x="244" y="455.3828"/><text fill="#000000" font-family="sans-serif" font-size="14" lengthAdjust="spacing" textLength="46" x="251" y="476.916">System</text><rect fill="#FEFECE" filter="url(#fgwek0y5ilgs6)" height="31.6094" style="stroke:#A80036;stroke-width:1.5;" width="108" x="861" y="53"/><text fill="#000000" font-family="sans-serif" font-size="14" lengthAdjust="spacing" textLength="94" x="868" y="74.5332">PortManagerUI</text><rect fill="#FEFECE" filter="url(#fgwek0y5ilgs6)" height="31.6094" style="stroke:#A80036;stroke-width:1.5;" width="108" x="861" y="455.3828"/><text fill="#000000" font-family="sans-serif" font-size="14" lengthAdjust="spacing" textLength="94" x="868" y="476.916">PortManagerUI</text><rect fill="#FEFECE" filter="url(#fgwek0y5ilgs6)" height="31.6094" style="stroke:#A80036;stroke-width:1.5;" width="263" x="983" y="53"/><text fill="#000000" font-family="sans-serif" font-size="14" lengthAdjust="spacing" textLength="249" x="990" y="74.5332">GenerateLoadingSufficientResourcesUI</text><rect fill="#FEFECE" filter="url(#fgwek0y5ilgs6)" height="31.6094" style="stroke:#A80036;stroke-width:1.5;" width="263" x="983" y="455.3828"/><text fill="#000000" font-family="sans-serif" font-size="14" lengthAdjust="spacing" textLength="249" x="990" y="476.916">GenerateLoadingSufficientResourcesUI</text><rect fill="#FEFECE" filter="url(#fgwek0y5ilgs6)" height="31.6094" style="stroke:#A80036;stroke-width:1.5;" width="313" x="1260" y="53"/><text fill="#000000" font-family="sans-serif" font-size="14" lengthAdjust="spacing" textLength="299" x="1267" y="74.5332">GenerateLoadingSufficientResourcesController</text><rect fill="#FEFECE" filter="url(#fgwek0y5ilgs6)" height="31.6094" style="stroke:#A80036;stroke-width:1.5;" width="313" x="1260" y="455.3828"/><text fill="#000000" font-family="sans-serif" font-size="14" lengthAdjust="spacing" textLength="299" x="1267" y="476.916">GenerateLoadingSufficientResourcesController</text><text fill="#000000" font-family="sans-serif" font-size="14" lengthAdjust="spacing" textLength="62" x="1726.5" y="469.916">DataBase</text><path d="M1742.5,482.9922 C1742.5,472.9922 1760.5,472.9922 1760.5,472.9922 C1760.5,472.9922 1778.5,472.9922 1778.5,482.9922 L1778.5,508.9922 C1778.5,518.9922 1760.5,518.9922 1760.5,518.9922 C1760.5,518.9922 1742.5,518.9922 1742.5,508.9922 L1742.5,482.9922 " fill="#FEFECE" filter="url(#fgwek0y5ilgs6)" style="stroke:#000000;stroke-width:1.5;"/><path d="M1742.5,482.9922 C1742.5,492.9922 1760.5,492.9922 1760.5,492.9922 C1760.5,492.9922 1778.5,492.9922 1778.5,482.9922 " fill="none" style="stroke:#000000;stroke-width:1.5;"/><polygon fill="#A80036" points="60,117.9609,50,121.9609,60,125.9609,56,121.9609" style="stroke:#A80036;stroke-width:1.0;"/><line style="stroke:#A80036;stroke-width:1.0;stroke-dasharray:2.0,2.0;" x1="54" x2="275" y1="121.9609" y2="121.9609"/><text fill="#000000" font-family="sans-serif" font-size="13" font-weight="bold" lengthAdjust="spacing" textLength="7" x="66" y="117.1045">1</text><text fill="#000000" font-family="sans-serif" font-size="13" lengthAdjust="spacing" textLength="135" x="77" y="117.1045">Authentication Request</text><polygon fill="#A80036" points="264,148.3125,274,152.3125,264,156.3125,268,152.3125" style="stroke:#A80036;stroke-width:1.0;"/><line style="stroke:#A80036;stroke-width:1.0;" x1="49" x2="270" y1="152.3125" y2="152.3125"/><text fill="#000000" font-family="sans-serif" font-size="13" font-weight="bold" lengthAdjust="spacing" textLength="7" x="56" y="147.4561">2</text><text fill="#000000" font-family="sans-serif" font-size="13" lengthAdjust="spacing" textLength="192" x="67" y="147.4561">Another authentication Response</text><polygon fill="#A80036" points="60,178.6641,50,182.6641,60,186.6641,56,182.6641" style="stroke:#A80036;stroke-width:1.0;"/><line style="stroke:#A80036;stroke-width:1.0;stroke-dasharray:2.0,2.0;" x1="54" x2="275" y1="182.6641" y2="182.6641"/><text fill="#000000" font-family="sans-serif" font-size="13" font-weight="bold" lengthAdjust="spacing" textLength="7" x="66" y="177.8076">3</text><text fill="#000000" font-family="sans-serif" font-size="13" lengthAdjust="spacing" textLength="149" x="77" y="177.8076">Authentication successful</text><polygon fill="#A80036" points="905,209.0156,915,213.0156,905,217.0156,909,213.0156" style="stroke:#A80036;stroke-width:1.0;"/><line style="stroke:#A80036;stroke-width:1.0;stroke-dasharray:2.0,2.0;" x1="49" x2="911" y1="213.0156" y2="213.0156"/><text fill="#000000" font-family="sans-serif" font-size="13" font-weight="bold" lengthAdjust="spacing" textLength="7" x="56" y="208.1592">4</text><text fill="#000000" font-family="sans-serif" font-size="13" lengthAdjust="spacing" textLength="833" x="67" y="208.1592">I intend to generate, a week in advance, the loading and unloading map based on ships and trucks load manifests and corresponding travel plans</text><polygon fill="#A80036" points="1104.5,239.3672,1114.5,243.3672,1104.5,247.3672,1108.5,243.3672" style="stroke:#A80036;stroke-width:1.0;"/><line style="stroke:#A80036;stroke-width:1.0;stroke-dasharray:2.0,2.0;" x1="917" x2="1110.5" y1="243.3672" y2="243.3672"/><text fill="#000000" font-family="sans-serif" font-size="13" font-weight="bold" lengthAdjust="spacing" textLength="7" x="924" y="238.5107">5</text><text fill="#000000" font-family="sans-serif" font-size="13" lengthAdjust="spacing" textLength="55" x="935" y="238.5107">Connects</text><polygon fill="#A80036" points="1406.5,269.7188,1416.5,273.7188,1406.5,277.7188,1410.5,273.7188" style="stroke:#A80036;stroke-width:1.0;"/><line style="stroke:#A80036;stroke-width:1.0;stroke-dasharray:2.0,2.0;" x1="1116.5" x2="1412.5" y1="273.7188" y2="273.7188"/><text fill="#000000" font-family="sans-serif" font-size="13" font-weight="bold" lengthAdjust="spacing" textLength="7" x="1123.5" y="268.8623">6</text><text fill="#000000" font-family="sans-serif" font-size="13" lengthAdjust="spacing" textLength="92" x="1134.5" y="268.8623">asks for the info</text><polygon fill="#A80036" points="1714.5,300.0703,1724.5,304.0703,1714.5,308.0703,1718.5,304.0703" style="stroke:#A80036;stroke-width:1.0;"/><line style="stroke:#A80036;stroke-width:1.0;stroke-dasharray:2.0,2.0;" x1="1418.5" x2="1720.5" y1="304.0703" y2="304.0703"/><text fill="#000000" font-family="sans-serif" font-size="13" font-weight="bold" lengthAdjust="spacing" textLength="7" x="1425.5" y="299.2139">7</text><text fill="#000000" font-family="sans-serif" font-size="13" lengthAdjust="spacing" textLength="273" x="1436.5" y="299.2139">generateLoadingSufficientResourcesController()</text><text fill="#000000" font-family="sans-serif" font-size="14" lengthAdjust="spacing" textLength="62" x="1726.5" y="342.252">DataBase</text><path d="M1742.5,291.7188 C1742.5,281.7188 1760.5,281.7188 1760.5,281.7188 C1760.5,281.7188 1778.5,281.7188 1778.5,291.7188 L1778.5,317.7188 C1778.5,327.7188 1760.5,327.7188 1760.5,327.7188 C1760.5,327.7188 1742.5,327.7188 1742.5,317.7188 L1742.5,291.7188 " fill="#FEFECE" filter="url(#fgwek0y5ilgs6)" style="stroke:#000000;stroke-width:1.5;"/><path d="M1742.5,291.7188 C1742.5,301.7188 1760.5,301.7188 1760.5,301.7188 C1760.5,301.7188 1778.5,301.7188 1778.5,291.7188 " fill="none" style="stroke:#000000;stroke-width:1.5;"/><polygon fill="#A80036" points="1429.5,373.6797,1419.5,377.6797,1429.5,381.6797,1425.5,377.6797" style="stroke:#A80036;stroke-width:1.0;"/><line style="stroke:#A80036;stroke-width:1.0;stroke-dasharray:2.0,2.0;" x1="1423.5" x2="1759.5" y1="377.6797" y2="377.6797"/><text fill="#000000" font-family="sans-serif" font-size="13" font-weight="bold" lengthAdjust="spacing" textLength="7" x="1435.5" y="372.8232">8</text><text fill="#000000" font-family="sans-serif" font-size="13" lengthAdjust="spacing" textLength="125" x="1446.5" y="372.8232">Map&lt;Object, Object&gt;</text><polygon fill="#A80036" points="1127.5,404.0313,1117.5,408.0313,1127.5,412.0313,1123.5,408.0313" style="stroke:#A80036;stroke-width:1.0;"/><line style="stroke:#A80036;stroke-width:1.0;stroke-dasharray:2.0,2.0;" x1="1121.5" x2="1417.5" y1="408.0313" y2="408.0313"/><text fill="#000000" font-family="sans-serif" font-size="13" font-weight="bold" lengthAdjust="spacing" textLength="7" x="1133.5" y="403.1748">9</text><text fill="#000000" font-family="sans-serif" font-size="13" lengthAdjust="spacing" textLength="125" x="1144.5" y="403.1748">Map&lt;Object, Object&gt;</text><polygon fill="#A80036" points="60,434.3828,50,438.3828,60,442.3828,56,438.3828" style="stroke:#A80036;stroke-width:1.0;"/><line style="stroke:#A80036;stroke-width:1.0;stroke-dasharray:2.0,2.0;" x1="54" x2="1115.5" y1="438.3828" y2="438.3828"/><text fill="#000000" font-family="sans-serif" font-size="13" font-weight="bold" lengthAdjust="spacing" textLength="14" x="66" y="433.5264">10</text><text fill="#000000" font-family="sans-serif" font-size="13" lengthAdjust="spacing" textLength="173" x="84" y="433.5264">Delivers the information asked</text><!--MD5=[94d2fe080f9f4763b660dd87ca5da53c]
@startuml

autonumber

actor PortManager #red

System - -> PortManager: Authentication Request
PortManager -> System : Another authentication Response
System - -> PortManager : Authentication successful
PortManager - -> PortManagerUI : I intend to generate, a week in advance, the loading and unloading map based on ships and trucks load manifests and corresponding travel plans
PortManagerUI - -> GenerateLoadingSufficientResourcesUI : Connects
GenerateLoadingSufficientResourcesUI - -> GenerateLoadingSufficientResourcesController : asks for the info
database       "DataBase"              as db
GenerateLoadingSufficientResourcesController - -> db** : generateLoadingSufficientResourcesController()
db - -> GenerateLoadingSufficientResourcesController : Map<Object, Object>
GenerateLoadingSufficientResourcesController - -> GenerateLoadingSufficientResourcesUI : Map<Object, Object>
GenerateLoadingSufficientResourcesUI - -> PortManager : Delivers the information asked

@enduml

PlantUML version 1.2021.11(Sat Oct 02 14:26:11 BST 2021)
(GPL source distribution)
Java Runtime: OpenJDK Runtime Environment
JVM: OpenJDK 64-Bit Server VM
Default Encoding: Cp1252
Language: pt
Country: PT
--></g></svg>