<?xml version="1.0" encoding="UTF-8" standalone="no"?><svg xmlns="http://www.w3.org/2000/svg" xmlns:xlink="http://www.w3.org/1999/xlink" contentScriptType="application/ecmascript" contentStyleType="text/css" height="346px" preserveAspectRatio="none" style="width:959px;height:346px;background:#FFFFFF;" version="1.1" viewBox="0 0 959 346" width="959px" zoomAndPan="magnify"><defs><filter height="300%" id="f1lixycwprytmv" width="300%" x="-1" y="-1"><feGaussianBlur result="blurOut" stdDeviation="2.0"/><feColorMatrix in="blurOut" result="blurOut2" type="matrix" values="0 0 0 0 0 0 0 0 0 0 0 0 0 0 0 0 0 0 .4 0"/><feOffset dx="4.0" dy="4.0" in="blurOut2" result="blurOut3"/><feBlend in="SourceGraphic" in2="blurOut3" mode="normal"/></filter></defs><g><line style="stroke:#A80036;stroke-width:1.0;stroke-dasharray:5.0,5.0;" x1="49" x2="49" y1="89.6094" y2="261.3672"/><line style="stroke:#A80036;stroke-width:1.0;stroke-dasharray:5.0,5.0;" x1="917" x2="917" y1="89.6094" y2="261.3672"/><text fill="#000000" font-family="sans-serif" font-size="14" lengthAdjust="spacing" textLength="82" x="5" y="86.5332">PortManager</text><ellipse cx="49" cy="15" fill="#FF0000" filter="url(#f1lixycwprytmv)" rx="8" ry="8" style="stroke:#A80036;stroke-width:2.0;"/><path d="M49,23 L49,50 M36,31 L62,31 M49,50 L36,65 M49,50 L62,65 " fill="none" filter="url(#f1lixycwprytmv)" style="stroke:#A80036;stroke-width:2.0;"/><text fill="#000000" font-family="sans-serif" font-size="14" lengthAdjust="spacing" textLength="82" x="5" y="274.9004">PortManager</text><ellipse cx="49" cy="287.9766" fill="#FF0000" filter="url(#f1lixycwprytmv)" rx="8" ry="8" style="stroke:#A80036;stroke-width:2.0;"/><path d="M49,295.9766 L49,322.9766 M36,303.9766 L62,303.9766 M49,322.9766 L36,337.9766 M49,322.9766 L62,337.9766 " fill="none" filter="url(#f1lixycwprytmv)" style="stroke:#A80036;stroke-width:2.0;"/><rect fill="#FEFECE" filter="url(#f1lixycwprytmv)" height="31.6094" style="stroke:#A80036;stroke-width:1.5;" width="60" x="885" y="53"/><text fill="#000000" font-family="sans-serif" font-size="14" lengthAdjust="spacing" textLength="46" x="892" y="74.5332">System</text><rect fill="#FEFECE" filter="url(#f1lixycwprytmv)" height="31.6094" style="stroke:#A80036;stroke-width:1.5;" width="60" x="885" y="260.3672"/><text fill="#000000" font-family="sans-serif" font-size="14" lengthAdjust="spacing" textLength="46" x="892" y="281.9004">System</text><polygon fill="#A80036" points="60,117.9609,50,121.9609,60,125.9609,56,121.9609" style="stroke:#A80036;stroke-width:1.0;"/><line style="stroke:#A80036;stroke-width:1.0;stroke-dasharray:2.0,2.0;" x1="54" x2="916" y1="121.9609" y2="121.9609"/><text fill="#000000" font-family="sans-serif" font-size="13" font-weight="bold" lengthAdjust="spacing" textLength="7" x="66" y="117.1045">1</text><text fill="#000000" font-family="sans-serif" font-size="13" lengthAdjust="spacing" textLength="135" x="77" y="117.1045">Authentication Request</text><polygon fill="#A80036" points="905,148.3125,915,152.3125,905,156.3125,909,152.3125" style="stroke:#A80036;stroke-width:1.0;"/><line style="stroke:#A80036;stroke-width:1.0;" x1="49" x2="911" y1="152.3125" y2="152.3125"/><text fill="#000000" font-family="sans-serif" font-size="13" font-weight="bold" lengthAdjust="spacing" textLength="7" x="56" y="147.4561">2</text><text fill="#000000" font-family="sans-serif" font-size="13" lengthAdjust="spacing" textLength="192" x="67" y="147.4561">Another authentication Response</text><polygon fill="#A80036" points="60,178.6641,50,182.6641,60,186.6641,56,182.6641" style="stroke:#A80036;stroke-width:1.0;"/><line style="stroke:#A80036;stroke-width:1.0;stroke-dasharray:2.0,2.0;" x1="54" x2="916" y1="182.6641" y2="182.6641"/><text fill="#000000" font-family="sans-serif" font-size="13" font-weight="bold" lengthAdjust="spacing" textLength="7" x="66" y="177.8076">3</text><text fill="#000000" font-family="sans-serif" font-size="13" lengthAdjust="spacing" textLength="149" x="77" y="177.8076">Authentication successful</text><polygon fill="#A80036" points="905,209.0156,915,213.0156,905,217.0156,909,213.0156" style="stroke:#A80036;stroke-width:1.0;"/><line style="stroke:#A80036;stroke-width:1.0;stroke-dasharray:2.0,2.0;" x1="49" x2="911" y1="213.0156" y2="213.0156"/><text fill="#000000" font-family="sans-serif" font-size="13" font-weight="bold" lengthAdjust="spacing" textLength="7" x="56" y="208.1592">4</text><text fill="#000000" font-family="sans-serif" font-size="13" lengthAdjust="spacing" textLength="833" x="67" y="208.1592">I intend to generate, a week in advance, the loading and unloading map based on ships and trucks load manifests and corresponding travel plans</text><polygon fill="#A80036" points="60,239.3672,50,243.3672,60,247.3672,56,243.3672" style="stroke:#A80036;stroke-width:1.0;"/><line style="stroke:#A80036;stroke-width:1.0;stroke-dasharray:2.0,2.0;" x1="54" x2="916" y1="243.3672" y2="243.3672"/><text fill="#000000" font-family="sans-serif" font-size="13" font-weight="bold" lengthAdjust="spacing" textLength="7" x="66" y="238.5107">5</text><text fill="#000000" font-family="sans-serif" font-size="13" lengthAdjust="spacing" textLength="173" x="77" y="238.5107">Delivers the information asked</text><!--MD5=[2615ac96a28d3c94ea948219887d1e97]
@startuml
autonumber

actor PortManager #red

System - -> PortManager: Authentication Request
PortManager -> System : Another authentication Response
System - -> PortManager : Authentication successful
PortManager - -> System : I intend to generate, a week in advance, the loading and unloading map based on ships and trucks load manifests and corresponding travel plans
System - -> PortManager : Delivers the information asked

@enduml

PlantUML version 1.2021.11(Sat Oct 02 14:26:11 BST 2021)
(GPL source distribution)
Java Runtime: OpenJDK Runtime Environment
JVM: OpenJDK 64-Bit Server VM
Default Encoding: Cp1252
Language: pt
Country: PT
--></g></svg>