<?xml version="1.0" encoding="UTF-8" standalone="no"?><svg xmlns="http://www.w3.org/2000/svg" xmlns:xlink="http://www.w3.org/1999/xlink" contentScriptType="application/ecmascript" contentStyleType="text/css" height="684px" preserveAspectRatio="none" style="width:623px;height:684px;background:#FFFFFF;" version="1.1" viewBox="0 0 623 684" width="623px" zoomAndPan="magnify"><defs><filter height="300%" id="f1wnvu4kt8j13m" width="300%" x="-1" y="-1"><feGaussianBlur result="blurOut" stdDeviation="2.0"/><feColorMatrix in="blurOut" result="blurOut2" type="matrix" values="0 0 0 0 0 0 0 0 0 0 0 0 0 0 0 0 0 0 .4 0"/><feOffset dx="4.0" dy="4.0" in="blurOut2" result="blurOut3"/><feBlend in="SourceGraphic" in2="blurOut3" mode="normal"/></filter></defs><g><!--MD5=[d14076b1fa5ff6fc34e7abc31c5e1daa]
class ShipChiefElectricalEngineer--><rect codeLine="2" fill="#FEFECE" filter="url(#f1wnvu4kt8j13m)" height="48" id="ShipChiefElectricalEngineer" style="stroke:#A80036;stroke-width:1.5;" width="186" x="317.5" y="7"/><ellipse cx="332.5" cy="23" fill="#ADD1B2" rx="11" ry="11" style="stroke:#A80036;stroke-width:1.0;"/><path d="M334.5,19.5 Q334.7031,19 334.9375,18.75 Q335.1719,18.5 335.4375,18.5 Q335.9063,18.5 336.2031,18.7813 Q336.5,19.0625 336.5,19.7188 L336.5,21.2813 Q336.5,21.9375 336.2188,22.2188 Q335.9375,22.5 335.5,22.5 Q335.1094,22.5 334.8594,22.3281 Q334.6094,22.1563 334.5,21.7031 Q334.4531,21.3906 334.2813,21.2188 Q333.9688,20.8906 333.4063,20.7031 Q332.8438,20.5 332.2813,20.5 Q331.5781,20.5 330.9844,20.7813 Q330.4063,21.0625 329.9531,21.6875 Q329.5,22.3125 329.5,23.1719 L329.5,24.0938 Q329.5,25.125 330.3438,25.8125 Q331.1875,26.5 332.6875,26.5 Q333.5781,26.5 334.2031,26.2969 Q334.5625,26.1875 334.9688,25.8281 Q335.2344,25.625 335.375,25.5625 Q335.5156,25.5 335.6875,25.5 Q336.0156,25.5 336.25,25.7656 Q336.5,26.0156 336.5,26.375 Q336.5,26.7188 336.1563,27.125 Q335.6563,27.7188 334.8594,28.0469 Q333.8125,28.5 332.5313,28.5 Q331.0313,28.5 329.8281,27.9063 Q328.8594,27.4375 328.1719,26.4219 Q327.5,25.4063 327.5,24.2031 L327.5,23.1094 Q327.5,21.8594 328.0938,20.7656 Q328.7031,19.6719 329.75,19.0938 Q330.8125,18.5 332,18.5 Q332.7188,18.5 333.3438,18.75 Q333.9688,19 334.5,19.5 Z " fill="#000000"/><text fill="#000000" font-family="sans-serif" font-size="12" lengthAdjust="spacing" textLength="154" x="346.5" y="27.9102">ShipChiefElectricalEngineer</text><line style="stroke:#A80036;stroke-width:1.5;" x1="318.5" x2="502.5" y1="39" y2="39"/><line style="stroke:#A80036;stroke-width:1.5;" x1="318.5" x2="502.5" y1="47" y2="47"/><!--MD5=[3fd616f346a44cd59a91eb10b19e157c]
class User--><rect codeLine="6" fill="#FEFECE" filter="url(#f1wnvu4kt8j13m)" height="48" id="User" style="stroke:#A80036;stroke-width:1.5;" width="59" x="537" y="154"/><ellipse cx="552" cy="170" fill="#ADD1B2" rx="11" ry="11" style="stroke:#A80036;stroke-width:1.0;"/><path d="M554,166.5 Q554.2031,166 554.4375,165.75 Q554.6719,165.5 554.9375,165.5 Q555.4063,165.5 555.7031,165.7813 Q556,166.0625 556,166.7188 L556,168.2813 Q556,168.9375 555.7188,169.2188 Q555.4375,169.5 555,169.5 Q554.6094,169.5 554.3594,169.3281 Q554.1094,169.1563 554,168.7031 Q553.9531,168.3906 553.7813,168.2188 Q553.4688,167.8906 552.9063,167.7031 Q552.3438,167.5 551.7813,167.5 Q551.0781,167.5 550.4844,167.7813 Q549.9063,168.0625 549.4531,168.6875 Q549,169.3125 549,170.1719 L549,171.0938 Q549,172.125 549.8438,172.8125 Q550.6875,173.5 552.1875,173.5 Q553.0781,173.5 553.7031,173.2969 Q554.0625,173.1875 554.4688,172.8281 Q554.7344,172.625 554.875,172.5625 Q555.0156,172.5 555.1875,172.5 Q555.5156,172.5 555.75,172.7656 Q556,173.0156 556,173.375 Q556,173.7188 555.6563,174.125 Q555.1563,174.7188 554.3594,175.0469 Q553.3125,175.5 552.0313,175.5 Q550.5313,175.5 549.3281,174.9063 Q548.3594,174.4375 547.6719,173.4219 Q547,172.4063 547,171.2031 L547,170.1094 Q547,168.8594 547.5938,167.7656 Q548.2031,166.6719 549.25,166.0938 Q550.3125,165.5 551.5,165.5 Q552.2188,165.5 552.8438,165.75 Q553.4688,166 554,166.5 Z " fill="#000000"/><text fill="#000000" font-family="sans-serif" font-size="12" lengthAdjust="spacing" textLength="27" x="566" y="174.9102">User</text><line style="stroke:#A80036;stroke-width:1.5;" x1="538" x2="595" y1="186" y2="186"/><line style="stroke:#A80036;stroke-width:1.5;" x1="538" x2="595" y1="194" y2="194"/><!--MD5=[45d42ff7800d812d5f83c7d3273eb427]
class UserRole--><rect codeLine="10" fill="#FEFECE" filter="url(#f1wnvu4kt8j13m)" height="48" id="UserRole" style="stroke:#A80036;stroke-width:1.5;" width="85" x="524" y="335.5"/><ellipse cx="539" cy="351.5" fill="#ADD1B2" rx="11" ry="11" style="stroke:#A80036;stroke-width:1.0;"/><path d="M541,348 Q541.2031,347.5 541.4375,347.25 Q541.6719,347 541.9375,347 Q542.4063,347 542.7031,347.2813 Q543,347.5625 543,348.2188 L543,349.7813 Q543,350.4375 542.7188,350.7188 Q542.4375,351 542,351 Q541.6094,351 541.3594,350.8281 Q541.1094,350.6563 541,350.2031 Q540.9531,349.8906 540.7813,349.7188 Q540.4688,349.3906 539.9063,349.2031 Q539.3438,349 538.7813,349 Q538.0781,349 537.4844,349.2813 Q536.9063,349.5625 536.4531,350.1875 Q536,350.8125 536,351.6719 L536,352.5938 Q536,353.625 536.8438,354.3125 Q537.6875,355 539.1875,355 Q540.0781,355 540.7031,354.7969 Q541.0625,354.6875 541.4688,354.3281 Q541.7344,354.125 541.875,354.0625 Q542.0156,354 542.1875,354 Q542.5156,354 542.75,354.2656 Q543,354.5156 543,354.875 Q543,355.2188 542.6563,355.625 Q542.1563,356.2188 541.3594,356.5469 Q540.3125,357 539.0313,357 Q537.5313,357 536.3281,356.4063 Q535.3594,355.9375 534.6719,354.9219 Q534,353.9063 534,352.7031 L534,351.6094 Q534,350.3594 534.5938,349.2656 Q535.2031,348.1719 536.25,347.5938 Q537.3125,347 538.5,347 Q539.2188,347 539.8438,347.25 Q540.4688,347.5 541,348 Z " fill="#000000"/><text fill="#000000" font-family="sans-serif" font-size="12" lengthAdjust="spacing" textLength="53" x="553" y="356.4102">UserRole</text><line style="stroke:#A80036;stroke-width:1.5;" x1="525" x2="608" y1="367.5" y2="367.5"/><line style="stroke:#A80036;stroke-width:1.5;" x1="525" x2="608" y1="375.5" y2="375.5"/><!--MD5=[02e4b9b7573f1156f41e60aa5b4e25a4]
class Company--><rect codeLine="14" fill="#FEFECE" filter="url(#f1wnvu4kt8j13m)" height="48" id="Company" style="stroke:#A80036;stroke-width:1.5;" width="85" x="222" y="496"/><ellipse cx="237" cy="512" fill="#ADD1B2" rx="11" ry="11" style="stroke:#A80036;stroke-width:1.0;"/><path d="M239,508.5 Q239.2031,508 239.4375,507.75 Q239.6719,507.5 239.9375,507.5 Q240.4063,507.5 240.7031,507.7813 Q241,508.0625 241,508.7188 L241,510.2813 Q241,510.9375 240.7188,511.2188 Q240.4375,511.5 240,511.5 Q239.6094,511.5 239.3594,511.3281 Q239.1094,511.1563 239,510.7031 Q238.9531,510.3906 238.7813,510.2188 Q238.4688,509.8906 237.9063,509.7031 Q237.3438,509.5 236.7813,509.5 Q236.0781,509.5 235.4844,509.7813 Q234.9063,510.0625 234.4531,510.6875 Q234,511.3125 234,512.1719 L234,513.0938 Q234,514.125 234.8438,514.8125 Q235.6875,515.5 237.1875,515.5 Q238.0781,515.5 238.7031,515.2969 Q239.0625,515.1875 239.4688,514.8281 Q239.7344,514.625 239.875,514.5625 Q240.0156,514.5 240.1875,514.5 Q240.5156,514.5 240.75,514.7656 Q241,515.0156 241,515.375 Q241,515.7188 240.6563,516.125 Q240.1563,516.7188 239.3594,517.0469 Q238.3125,517.5 237.0313,517.5 Q235.5313,517.5 234.3281,516.9063 Q233.3594,516.4375 232.6719,515.4219 Q232,514.4063 232,513.2031 L232,512.1094 Q232,510.8594 232.5938,509.7656 Q233.2031,508.6719 234.25,508.0938 Q235.3125,507.5 236.5,507.5 Q237.2188,507.5 237.8438,507.75 Q238.4688,508 239,508.5 Z " fill="#000000"/><text fill="#000000" font-family="sans-serif" font-size="12" lengthAdjust="spacing" textLength="53" x="251" y="516.9102">Company</text><line style="stroke:#A80036;stroke-width:1.5;" x1="223" x2="306" y1="528" y2="528"/><line style="stroke:#A80036;stroke-width:1.5;" x1="223" x2="306" y1="536" y2="536"/><!--MD5=[3b73e2b76a1aafc885c6f2a29e8984b6]
class GetSetOfMaterialsToContainerAtSevenUI--><rect codeLine="18" fill="#FEFECE" filter="url(#f1wnvu4kt8j13m)" height="89.5078" id="GetSetOfMaterialsToContainerAtSevenUI" style="stroke:#A80036;stroke-width:1.5;" width="495" x="7" y="133"/><ellipse cx="138.75" cy="149" fill="#ADD1B2" rx="11" ry="11" style="stroke:#A80036;stroke-width:1.0;"/><path d="M140.75,145.5 Q140.9531,145 141.1875,144.75 Q141.4219,144.5 141.6875,144.5 Q142.1563,144.5 142.4531,144.7813 Q142.75,145.0625 142.75,145.7188 L142.75,147.2813 Q142.75,147.9375 142.4688,148.2188 Q142.1875,148.5 141.75,148.5 Q141.3594,148.5 141.1094,148.3281 Q140.8594,148.1563 140.75,147.7031 Q140.7031,147.3906 140.5313,147.2188 Q140.2188,146.8906 139.6563,146.7031 Q139.0938,146.5 138.5313,146.5 Q137.8281,146.5 137.2344,146.7813 Q136.6563,147.0625 136.2031,147.6875 Q135.75,148.3125 135.75,149.1719 L135.75,150.0938 Q135.75,151.125 136.5938,151.8125 Q137.4375,152.5 138.9375,152.5 Q139.8281,152.5 140.4531,152.2969 Q140.8125,152.1875 141.2188,151.8281 Q141.4844,151.625 141.625,151.5625 Q141.7656,151.5 141.9375,151.5 Q142.2656,151.5 142.5,151.7656 Q142.75,152.0156 142.75,152.375 Q142.75,152.7188 142.4063,153.125 Q141.9063,153.7188 141.1094,154.0469 Q140.0625,154.5 138.7813,154.5 Q137.2813,154.5 136.0781,153.9063 Q135.1094,153.4375 134.4219,152.4219 Q133.75,151.4063 133.75,150.2031 L133.75,149.1094 Q133.75,147.8594 134.3438,146.7656 Q134.9531,145.6719 136,145.0938 Q137.0625,144.5 138.25,144.5 Q138.9688,144.5 139.5938,144.75 Q140.2188,145 140.75,145.5 Z " fill="#000000"/><text fill="#000000" font-family="sans-serif" font-size="12" lengthAdjust="spacing" textLength="223" x="159.25" y="153.9102">GetSetOfMaterialsToContainerAtSevenUI</text><line style="stroke:#A80036;stroke-width:1.5;" x1="8" x2="501" y1="165" y2="165"/><rect fill="none" height="6" style="stroke:#C82930;stroke-width:1.0;" width="6" x="15" y="173"/><text fill="#000000" font-family="sans-serif" font-size="11" lengthAdjust="spacing" textLength="469" x="27" y="180.4189">GetSetOfMaterialsToContainerAtSevenController getSetOfMaterialsToContainerAtSevenController</text><line style="stroke:#A80036;stroke-width:1.5;" x1="8" x2="501" y1="186.8359" y2="186.8359"/><ellipse cx="18" cy="197.8359" fill="#84BE84" rx="3" ry="3" style="stroke:#038048;stroke-width:1.0;"/><text fill="#000000" font-family="sans-serif" font-size="11" lengthAdjust="spacing" textLength="205" x="27" y="202.2549">GetSetOfMaterialsToContainerAtSevenUI()</text><ellipse cx="18" cy="211.6719" fill="#84BE84" rx="3" ry="3" style="stroke:#038048;stroke-width:1.0;"/><text fill="#000000" font-family="sans-serif" font-size="11" lengthAdjust="spacing" textLength="24" x="27" y="216.0908">run()</text><!--MD5=[bb81752cf1b4ba0d54d3e9c0dd4c54c6]
class GetSetOfMaterialsToContainerAtSevenController--><rect codeLine="24" fill="#FEFECE" filter="url(#f1wnvu4kt8j13m)" height="117.1797" id="GetSetOfMaterialsToContainerAtSevenController" style="stroke:#A80036;stroke-width:1.5;" width="360" x="84.5" y="301"/><ellipse cx="127.85" cy="317" fill="#ADD1B2" rx="11" ry="11" style="stroke:#A80036;stroke-width:1.0;"/><path d="M129.85,313.5 Q130.0531,313 130.2875,312.75 Q130.5219,312.5 130.7875,312.5 Q131.2563,312.5 131.5531,312.7813 Q131.85,313.0625 131.85,313.7188 L131.85,315.2813 Q131.85,315.9375 131.5688,316.2188 Q131.2875,316.5 130.85,316.5 Q130.4594,316.5 130.2094,316.3281 Q129.9594,316.1563 129.85,315.7031 Q129.8031,315.3906 129.6313,315.2188 Q129.3188,314.8906 128.7563,314.7031 Q128.1938,314.5 127.6313,314.5 Q126.9281,314.5 126.3344,314.7813 Q125.7563,315.0625 125.3031,315.6875 Q124.85,316.3125 124.85,317.1719 L124.85,318.0938 Q124.85,319.125 125.6938,319.8125 Q126.5375,320.5 128.0375,320.5 Q128.9281,320.5 129.5531,320.2969 Q129.9125,320.1875 130.3188,319.8281 Q130.5844,319.625 130.725,319.5625 Q130.8656,319.5 131.0375,319.5 Q131.3656,319.5 131.6,319.7656 Q131.85,320.0156 131.85,320.375 Q131.85,320.7188 131.5063,321.125 Q131.0063,321.7188 130.2094,322.0469 Q129.1625,322.5 127.8813,322.5 Q126.3813,322.5 125.1781,321.9063 Q124.2094,321.4375 123.5219,320.4219 Q122.85,319.4063 122.85,318.2031 L122.85,317.1094 Q122.85,315.8594 123.4438,314.7656 Q124.0531,313.6719 125.1,313.0938 Q126.1625,312.5 127.35,312.5 Q128.0688,312.5 128.6938,312.75 Q129.3188,313 129.85,313.5 Z " fill="#000000"/><text fill="#000000" font-family="sans-serif" font-size="12" lengthAdjust="spacing" textLength="265" x="148.15" y="321.9102">GetSetOfMaterialsToContainerAtSevenController</text><line style="stroke:#A80036;stroke-width:1.5;" x1="85.5" x2="443.5" y1="333" y2="333"/><rect fill="none" height="6" style="stroke:#C82930;stroke-width:1.0;" width="6" x="92.5" y="341"/><text fill="#000000" font-family="sans-serif" font-size="11" lengthAdjust="spacing" textLength="92" x="104.5" y="348.4189">Company company</text><line style="stroke:#A80036;stroke-width:1.5;" x1="85.5" x2="443.5" y1="354.8359" y2="354.8359"/><ellipse cx="95.5" cy="365.8359" fill="#84BE84" rx="3" ry="3" style="stroke:#038048;stroke-width:1.0;"/><text fill="#000000" font-family="sans-serif" font-size="11" lengthAdjust="spacing" textLength="242" x="104.5" y="370.2549">GetSetOfMaterialsToContainerAtSevenController()</text><ellipse cx="95.5" cy="379.6719" fill="#84BE84" rx="3" ry="3" style="stroke:#038048;stroke-width:1.0;"/><text fill="#000000" font-family="sans-serif" font-size="11" lengthAdjust="spacing" textLength="334" x="104.5" y="384.0908">GetSetOfMaterialsToContainerAtSevenController(Company company)</text><ellipse cx="95.5" cy="393.5078" fill="#84BE84" rx="3" ry="3" style="stroke:#038048;stroke-width:1.0;"/><text fill="#000000" font-family="sans-serif" font-size="11" lengthAdjust="spacing" textLength="240" x="104.5" y="397.9268">getSetOfMaterialsToContainerAtSevenController()</text><ellipse cx="95.5" cy="407.3438" fill="#84BE84" rx="3" ry="3" style="stroke:#038048;stroke-width:1.0;"/><text fill="#000000" font-family="sans-serif" font-size="11" lengthAdjust="spacing" textLength="68" x="104.5" y="411.7627">getCompany()</text><!--MD5=[837d3612090b426002fd1342fcbe6b88]
class DataBase--><rect fill="#FEFECE" filter="url(#f1wnvu4kt8j13m)" height="48" id="DataBase" style="stroke:#A80036;stroke-width:1.5;" width="87" x="221" y="622"/><ellipse cx="236" cy="638" fill="#ADD1B2" rx="11" ry="11" style="stroke:#A80036;stroke-width:1.0;"/><path d="M238,634.5 Q238.2031,634 238.4375,633.75 Q238.6719,633.5 238.9375,633.5 Q239.4063,633.5 239.7031,633.7813 Q240,634.0625 240,634.7188 L240,636.2813 Q240,636.9375 239.7188,637.2188 Q239.4375,637.5 239,637.5 Q238.6094,637.5 238.3594,637.3281 Q238.1094,637.1563 238,636.7031 Q237.9531,636.3906 237.7813,636.2188 Q237.4688,635.8906 236.9063,635.7031 Q236.3438,635.5 235.7813,635.5 Q235.0781,635.5 234.4844,635.7813 Q233.9063,636.0625 233.4531,636.6875 Q233,637.3125 233,638.1719 L233,639.0938 Q233,640.125 233.8438,640.8125 Q234.6875,641.5 236.1875,641.5 Q237.0781,641.5 237.7031,641.2969 Q238.0625,641.1875 238.4688,640.8281 Q238.7344,640.625 238.875,640.5625 Q239.0156,640.5 239.1875,640.5 Q239.5156,640.5 239.75,640.7656 Q240,641.0156 240,641.375 Q240,641.7188 239.6563,642.125 Q239.1563,642.7188 238.3594,643.0469 Q237.3125,643.5 236.0313,643.5 Q234.5313,643.5 233.3281,642.9063 Q232.3594,642.4375 231.6719,641.4219 Q231,640.4063 231,639.2031 L231,638.1094 Q231,636.8594 231.5938,635.7656 Q232.2031,634.6719 233.25,634.0938 Q234.3125,633.5 235.5,633.5 Q236.2188,633.5 236.8438,633.75 Q237.4688,634 238,634.5 Z " fill="#000000"/><text fill="#000000" font-family="sans-serif" font-size="12" lengthAdjust="spacing" textLength="55" x="250" y="642.9102">DataBase</text><line style="stroke:#A80036;stroke-width:1.5;" x1="222" x2="307" y1="654" y2="654"/><line style="stroke:#A80036;stroke-width:1.5;" x1="222" x2="307" y1="662" y2="662"/><!--MD5=[59cb43b63315624304f8cd8e2458850e]
link ShipChiefElectricalEngineer to GetSetOfMaterialsToContainerAtSevenUI--><path codeLine="32" d="M385.44,55.3 C364.01,75.21 332.49,104.5 305.75,129.36 " fill="none" id="ShipChiefElectricalEngineer-to-GetSetOfMaterialsToContainerAtSevenUI" style="stroke:#A80036;stroke-width:1.0;"/><polygon fill="#A80036" points="301.84,133,311.1483,129.7821,305.4948,129.5879,305.689,123.9344,301.84,133" style="stroke:#A80036;stroke-width:1.0;"/><text fill="#000000" font-family="sans-serif" font-size="13" lengthAdjust="spacing" textLength="44" x="352.5" y="99.4951">Access</text><!--MD5=[ac766fd98248982273d905ec01b7e247]
link GetSetOfMaterialsToContainerAtSevenUI to GetSetOfMaterialsToContainerAtSevenController--><path codeLine="33" d="M223.7,223.06 C216.7,237.97 212.38,254.93 216.5,271 C218.68,279.5 221.87,288.06 225.59,296.32 " fill="none" id="GetSetOfMaterialsToContainerAtSevenUI-to-GetSetOfMaterialsToContainerAtSevenController" style="stroke:#A80036;stroke-width:1.0;"/><polygon fill="#A80036" points="227.71,300.88,227.5271,291.0328,225.5948,296.3494,220.2782,294.4172,227.71,300.88" style="stroke:#A80036;stroke-width:1.0;"/><text fill="#000000" font-family="sans-serif" font-size="13" lengthAdjust="spacing" textLength="82" x="217.5" y="267.4951">Connects with</text><!--MD5=[bbfb4245c42400b8a2f8ad1c11b8cae9]
reverse link GetSetOfMaterialsToContainerAtSevenUI to GetSetOfMaterialsToContainerAtSevenController--><path codeLine="36" d="M293.19,227.8 C297.83,235.84 301.86,244.37 304.5,253 C309.32,268.73 306.67,285.5 300.93,300.93 " fill="none" id="GetSetOfMaterialsToContainerAtSevenUI-backto-GetSetOfMaterialsToContainerAtSevenController" style="stroke:#A80036;stroke-width:1.0;"/><polygon fill="#A80036" points="290.55,223.4,291.7122,233.18,293.1057,227.6975,298.5882,229.091,290.55,223.4" style="stroke:#A80036;stroke-width:1.0;"/><text fill="#000000" font-family="sans-serif" font-size="13" lengthAdjust="spacing" textLength="69" x="308.5" y="267.4951">Returns Info</text><!--MD5=[68cfd519b9d01f4f9bfebe5bdfd7fcda]
link ShipChiefElectricalEngineer to User--><path codeLine="34" d="M435.64,55.23 C457.76,75.68 490.8,106.27 519.5,133 C525.46,138.55 531.84,144.51 537.91,150.19 " fill="none" id="ShipChiefElectricalEngineer-to-User" style="stroke:#A80036;stroke-width:1.0;"/><polygon fill="#A80036" points="541.64,153.68,537.791,144.6144,537.9852,150.2679,532.3317,150.4621,541.64,153.68" style="stroke:#A80036;stroke-width:1.0;"/><text fill="#000000" font-family="sans-serif" font-size="13" lengthAdjust="spacing" textLength="21" x="488.5" y="99.4951">is a</text><!--MD5=[1f12d177c84922ed4f166f09ee62ceaa]
link User to UserRole--><path codeLine="35" d="M566.5,202.1 C566.5,234.95 566.5,295.09 566.5,330.46 " fill="none" id="User-to-UserRole" style="stroke:#A80036;stroke-width:1.0;"/><polygon fill="#A80036" points="566.5,335.49,570.5,326.49,566.5,330.49,562.5,326.49,566.5,335.49" style="stroke:#A80036;stroke-width:1.0;"/><text fill="#000000" font-family="sans-serif" font-size="13" lengthAdjust="spacing" textLength="21" x="567.5" y="267.4951">has</text><!--MD5=[116586d32cba69dae5843718e69ebeff]
link GetSetOfMaterialsToContainerAtSevenController to Company--><path codeLine="37" d="M213.87,418.35 C207.99,427.74 202.89,437.76 199.5,448 C193.79,465.26 204.67,480.67 219.07,492.69 " fill="none" id="GetSetOfMaterialsToContainerAtSevenController-to-Company" style="stroke:#A80036;stroke-width:1.0;"/><polygon fill="#A80036" points="223.21,495.98,218.6576,487.2464,219.2973,492.867,213.6767,493.5067,223.21,495.98" style="stroke:#A80036;stroke-width:1.0;"/><text fill="#000000" font-family="sans-serif" font-size="13" lengthAdjust="spacing" textLength="82" x="200.5" y="462.4951">Connects with</text><!--MD5=[30233166122dd95ffcb5eda30021d8af]
link Company to GetSetOfMaterialsToContainerAtSevenController--><path codeLine="38" d="M276.95,495.94 C281.19,486.88 285.38,476.21 287.5,466 C290.37,452.19 289.56,437.38 286.99,423.35 " fill="none" id="Company-to-GetSetOfMaterialsToContainerAtSevenController" style="stroke:#A80036;stroke-width:1.0;"/><polygon fill="#A80036" points="285.97,418.22,283.8181,427.8309,286.9533,423.1224,291.6619,426.2576,285.97,418.22" style="stroke:#A80036;stroke-width:1.0;"/><text fill="#000000" font-family="sans-serif" font-size="13" lengthAdjust="spacing" textLength="69" x="290.5" y="462.4951">Returns Info</text><!--MD5=[28fa5ca211853e28b35503d2b875b2be]
link Company to DataBase--><path codeLine="39" d="M264.5,544.03 C264.5,564.52 264.5,594.56 264.5,616.55 " fill="none" id="Company-to-DataBase" style="stroke:#A80036;stroke-width:1.0;"/><polygon fill="#A80036" points="264.5,621.67,268.5,612.67,264.5,616.67,260.5,612.67,264.5,621.67" style="stroke:#A80036;stroke-width:1.0;"/><text fill="#000000" font-family="sans-serif" font-size="13" lengthAdjust="spacing" textLength="55" x="265.5" y="588.4951">Connects</text><!--MD5=[98c710a0d4281f5328c6580f353bf3fd]
@startuml

class ShipChiefElectricalEngineer{

}

class User{

}

class UserRole{

}

class Company{

}

class GetSetOfMaterialsToContainerAtSevenUI{
    -GetSetOfMaterialsToContainerAtSevenController getSetOfMaterialsToContainerAtSevenController
    +GetSetOfMaterialsToContainerAtSevenUI()
    +run()
}

class GetSetOfMaterialsToContainerAtSevenController{
    -Company company
    +GetSetOfMaterialsToContainerAtSevenController()
    +GetSetOfMaterialsToContainerAtSevenController(Company company)
    +getSetOfMaterialsToContainerAtSevenController()
    +getCompany()
}

ShipChiefElectricalEngineer - -> GetSetOfMaterialsToContainerAtSevenUI : Access
GetSetOfMaterialsToContainerAtSevenUI -down-> GetSetOfMaterialsToContainerAtSevenController : Connects with
ShipChiefElectricalEngineer - -> User : is a
User - -> UserRole : has
GetSetOfMaterialsToContainerAtSevenController -up-> GetSetOfMaterialsToContainerAtSevenUI : Returns Info
GetSetOfMaterialsToContainerAtSevenController - -> Company : Connects with
Company - -> GetSetOfMaterialsToContainerAtSevenController : Returns Info
Company - -> DataBase : Connects

@enduml

PlantUML version 1.2021.11(Sat Oct 02 14:26:11 BST 2021)
(GPL source distribution)
Java Runtime: OpenJDK Runtime Environment
JVM: OpenJDK 64-Bit Server VM
Default Encoding: Cp1252
Language: pt
Country: PT
--></g></svg>