<?xml version="1.0" encoding="UTF-8" standalone="no"?><svg xmlns="http://www.w3.org/2000/svg" xmlns:xlink="http://www.w3.org/1999/xlink" contentScriptType="application/ecmascript" contentStyleType="text/css" height="541px" preserveAspectRatio="none" style="width:1572px;height:541px;background:#FFFFFF;" version="1.1" viewBox="0 0 1572 541" width="1572px" zoomAndPan="magnify"><defs><filter height="300%" id="f4dt5cbalqrb5" width="300%" x="-1" y="-1"><feGaussianBlur result="blurOut" stdDeviation="2.0"/><feColorMatrix in="blurOut" result="blurOut2" type="matrix" values="0 0 0 0 0 0 0 0 0 0 0 0 0 0 0 0 0 0 .4 0"/><feOffset dx="4.0" dy="4.0" in="blurOut2" result="blurOut3"/><feBlend in="SourceGraphic" in2="blurOut3" mode="normal"/></filter></defs><g><line style="stroke:#A80036;stroke-width:1.0;stroke-dasharray:5.0,5.0;" x1="95" x2="95" y1="89.6094" y2="456.3828"/><line style="stroke:#A80036;stroke-width:1.0;stroke-dasharray:5.0,5.0;" x1="322.5" x2="322.5" y1="89.6094" y2="456.3828"/><line style="stroke:#A80036;stroke-width:1.0;stroke-dasharray:5.0,5.0;" x1="619" x2="619" y1="89.6094" y2="456.3828"/><line style="stroke:#A80036;stroke-width:1.0;stroke-dasharray:5.0,5.0;" x1="871" x2="871" y1="89.6094" y2="456.3828"/><line style="stroke:#A80036;stroke-width:1.0;stroke-dasharray:5.0,5.0;" x1="1184" x2="1184" y1="89.6094" y2="456.3828"/><line style="stroke:#A80036;stroke-width:1.0;stroke-dasharray:5.0,5.0;" x1="1537" x2="1537" y1="328.5234" y2="456.3828"/><text fill="#000000" font-family="sans-serif" font-size="14" lengthAdjust="spacing" textLength="175" x="5" y="86.5332">ShipChiefElectricalEngineer</text><ellipse cx="95.5" cy="15" fill="#FF0000" filter="url(#f4dt5cbalqrb5)" rx="8" ry="8" style="stroke:#A80036;stroke-width:2.0;"/><path d="M95.5,23 L95.5,50 M82.5,31 L108.5,31 M95.5,50 L82.5,65 M95.5,50 L108.5,65 " fill="none" filter="url(#f4dt5cbalqrb5)" style="stroke:#A80036;stroke-width:2.0;"/><text fill="#000000" font-family="sans-serif" font-size="14" lengthAdjust="spacing" textLength="175" x="5" y="469.916">ShipChiefElectricalEngineer</text><ellipse cx="95.5" cy="482.9922" fill="#FF0000" filter="url(#f4dt5cbalqrb5)" rx="8" ry="8" style="stroke:#A80036;stroke-width:2.0;"/><path d="M95.5,490.9922 L95.5,517.9922 M82.5,498.9922 L108.5,498.9922 M95.5,517.9922 L82.5,532.9922 M95.5,517.9922 L108.5,532.9922 " fill="none" filter="url(#f4dt5cbalqrb5)" style="stroke:#A80036;stroke-width:2.0;"/><rect fill="#FEFECE" filter="url(#f4dt5cbalqrb5)" height="31.6094" style="stroke:#A80036;stroke-width:1.5;" width="60" x="290.5" y="53"/><text fill="#000000" font-family="sans-serif" font-size="14" lengthAdjust="spacing" textLength="46" x="297.5" y="74.5332">System</text><rect fill="#FEFECE" filter="url(#f4dt5cbalqrb5)" height="31.6094" style="stroke:#A80036;stroke-width:1.5;" width="60" x="290.5" y="455.3828"/><text fill="#000000" font-family="sans-serif" font-size="14" lengthAdjust="spacing" textLength="46" x="297.5" y="476.916">System</text><rect fill="#FEFECE" filter="url(#f4dt5cbalqrb5)" height="31.6094" style="stroke:#A80036;stroke-width:1.5;" width="201" x="517" y="53"/><text fill="#000000" font-family="sans-serif" font-size="14" lengthAdjust="spacing" textLength="187" x="524" y="74.5332">ShipChiefElectricalEngineerUI</text><rect fill="#FEFECE" filter="url(#f4dt5cbalqrb5)" height="31.6094" style="stroke:#A80036;stroke-width:1.5;" width="201" x="517" y="455.3828"/><text fill="#000000" font-family="sans-serif" font-size="14" lengthAdjust="spacing" textLength="187" x="524" y="476.916">ShipChiefElectricalEngineerUI</text><rect fill="#FEFECE" filter="url(#f4dt5cbalqrb5)" height="31.6094" style="stroke:#A80036;stroke-width:1.5;" width="274" x="732" y="53"/><text fill="#000000" font-family="sans-serif" font-size="14" lengthAdjust="spacing" textLength="260" x="739" y="74.5332">GetSetOfMaterialsToContainerAtSevenUI</text><rect fill="#FEFECE" filter="url(#f4dt5cbalqrb5)" height="31.6094" style="stroke:#A80036;stroke-width:1.5;" width="274" x="732" y="455.3828"/><text fill="#000000" font-family="sans-serif" font-size="14" lengthAdjust="spacing" textLength="260" x="739" y="476.916">GetSetOfMaterialsToContainerAtSevenUI</text><rect fill="#FEFECE" filter="url(#f4dt5cbalqrb5)" height="31.6094" style="stroke:#A80036;stroke-width:1.5;" width="324" x="1020" y="53"/><text fill="#000000" font-family="sans-serif" font-size="14" lengthAdjust="spacing" textLength="310" x="1027" y="74.5332">GetSetOfMaterialsToContainerAtSevenController</text><rect fill="#FEFECE" filter="url(#f4dt5cbalqrb5)" height="31.6094" style="stroke:#A80036;stroke-width:1.5;" width="324" x="1020" y="455.3828"/><text fill="#000000" font-family="sans-serif" font-size="14" lengthAdjust="spacing" textLength="310" x="1027" y="476.916">GetSetOfMaterialsToContainerAtSevenController</text><text fill="#000000" font-family="sans-serif" font-size="14" lengthAdjust="spacing" textLength="62" x="1503" y="469.916">DataBase</text><path d="M1519,482.9922 C1519,472.9922 1537,472.9922 1537,472.9922 C1537,472.9922 1555,472.9922 1555,482.9922 L1555,508.9922 C1555,518.9922 1537,518.9922 1537,518.9922 C1537,518.9922 1519,518.9922 1519,508.9922 L1519,482.9922 " fill="#FEFECE" filter="url(#f4dt5cbalqrb5)" style="stroke:#000000;stroke-width:1.5;"/><path d="M1519,482.9922 C1519,492.9922 1537,492.9922 1537,492.9922 C1537,492.9922 1555,492.9922 1555,482.9922 " fill="none" style="stroke:#000000;stroke-width:1.5;"/><polygon fill="#A80036" points="106.5,117.9609,96.5,121.9609,106.5,125.9609,102.5,121.9609" style="stroke:#A80036;stroke-width:1.0;"/><line style="stroke:#A80036;stroke-width:1.0;stroke-dasharray:2.0,2.0;" x1="100.5" x2="321.5" y1="121.9609" y2="121.9609"/><text fill="#000000" font-family="sans-serif" font-size="13" font-weight="bold" lengthAdjust="spacing" textLength="7" x="112.5" y="117.1045">1</text><text fill="#000000" font-family="sans-serif" font-size="13" lengthAdjust="spacing" textLength="135" x="123.5" y="117.1045">Authentication Request</text><polygon fill="#A80036" points="310.5,148.3125,320.5,152.3125,310.5,156.3125,314.5,152.3125" style="stroke:#A80036;stroke-width:1.0;"/><line style="stroke:#A80036;stroke-width:1.0;" x1="95.5" x2="316.5" y1="152.3125" y2="152.3125"/><text fill="#000000" font-family="sans-serif" font-size="13" font-weight="bold" lengthAdjust="spacing" textLength="7" x="102.5" y="147.4561">2</text><text fill="#000000" font-family="sans-serif" font-size="13" lengthAdjust="spacing" textLength="192" x="113.5" y="147.4561">Another authentication Response</text><polygon fill="#A80036" points="106.5,178.6641,96.5,182.6641,106.5,186.6641,102.5,182.6641" style="stroke:#A80036;stroke-width:1.0;"/><line style="stroke:#A80036;stroke-width:1.0;stroke-dasharray:2.0,2.0;" x1="100.5" x2="321.5" y1="182.6641" y2="182.6641"/><text fill="#000000" font-family="sans-serif" font-size="13" font-weight="bold" lengthAdjust="spacing" textLength="7" x="112.5" y="177.8076">3</text><text fill="#000000" font-family="sans-serif" font-size="13" lengthAdjust="spacing" textLength="149" x="123.5" y="177.8076">Authentication successful</text><polygon fill="#A80036" points="607.5,209.0156,617.5,213.0156,607.5,217.0156,611.5,213.0156" style="stroke:#A80036;stroke-width:1.0;"/><line style="stroke:#A80036;stroke-width:1.0;stroke-dasharray:2.0,2.0;" x1="95.5" x2="613.5" y1="213.0156" y2="213.0156"/><text fill="#000000" font-family="sans-serif" font-size="13" font-weight="bold" lengthAdjust="spacing" textLength="7" x="102.5" y="208.1592">4</text><text fill="#000000" font-family="sans-serif" font-size="13" lengthAdjust="spacing" textLength="489" x="113.5" y="208.1592">Asks for the set of materials to use in a container, to operate at temperatures of 7°C.</text><polygon fill="#A80036" points="859,239.3672,869,243.3672,859,247.3672,863,243.3672" style="stroke:#A80036;stroke-width:1.0;"/><line style="stroke:#A80036;stroke-width:1.0;stroke-dasharray:2.0,2.0;" x1="619.5" x2="865" y1="243.3672" y2="243.3672"/><text fill="#000000" font-family="sans-serif" font-size="13" font-weight="bold" lengthAdjust="spacing" textLength="7" x="626.5" y="238.5107">5</text><text fill="#000000" font-family="sans-serif" font-size="13" lengthAdjust="spacing" textLength="55" x="637.5" y="238.5107">Connects</text><polygon fill="#A80036" points="1172,269.7188,1182,273.7188,1172,277.7188,1176,273.7188" style="stroke:#A80036;stroke-width:1.0;"/><line style="stroke:#A80036;stroke-width:1.0;stroke-dasharray:2.0,2.0;" x1="871" x2="1178" y1="273.7188" y2="273.7188"/><text fill="#000000" font-family="sans-serif" font-size="13" font-weight="bold" lengthAdjust="spacing" textLength="7" x="878" y="268.8623">6</text><text fill="#000000" font-family="sans-serif" font-size="13" lengthAdjust="spacing" textLength="92" x="889" y="268.8623">asks for the info</text><polygon fill="#A80036" points="1491,300.0703,1501,304.0703,1491,308.0703,1495,304.0703" style="stroke:#A80036;stroke-width:1.0;"/><line style="stroke:#A80036;stroke-width:1.0;stroke-dasharray:2.0,2.0;" x1="1184" x2="1497" y1="304.0703" y2="304.0703"/><text fill="#000000" font-family="sans-serif" font-size="13" font-weight="bold" lengthAdjust="spacing" textLength="7" x="1191" y="299.2139">7</text><text fill="#000000" font-family="sans-serif" font-size="13" lengthAdjust="spacing" textLength="284" x="1202" y="299.2139">getSetOfMaterialsToContainerAtSevenController()</text><text fill="#000000" font-family="sans-serif" font-size="14" lengthAdjust="spacing" textLength="62" x="1503" y="342.252">DataBase</text><path d="M1519,291.7188 C1519,281.7188 1537,281.7188 1537,281.7188 C1537,281.7188 1555,281.7188 1555,291.7188 L1555,317.7188 C1555,327.7188 1537,327.7188 1537,327.7188 C1537,327.7188 1519,327.7188 1519,317.7188 L1519,291.7188 " fill="#FEFECE" filter="url(#f4dt5cbalqrb5)" style="stroke:#000000;stroke-width:1.5;"/><path d="M1519,291.7188 C1519,301.7188 1537,301.7188 1537,301.7188 C1537,301.7188 1555,301.7188 1555,291.7188 " fill="none" style="stroke:#000000;stroke-width:1.5;"/><polygon fill="#A80036" points="1195,373.6797,1185,377.6797,1195,381.6797,1191,377.6797" style="stroke:#A80036;stroke-width:1.0;"/><line style="stroke:#A80036;stroke-width:1.0;stroke-dasharray:2.0,2.0;" x1="1189" x2="1536" y1="377.6797" y2="377.6797"/><text fill="#000000" font-family="sans-serif" font-size="13" font-weight="bold" lengthAdjust="spacing" textLength="7" x="1201" y="372.8232">8</text><text fill="#000000" font-family="sans-serif" font-size="13" lengthAdjust="spacing" textLength="71" x="1212" y="372.8232">List&lt;String&gt;</text><polygon fill="#A80036" points="882,404.0313,872,408.0313,882,412.0313,878,408.0313" style="stroke:#A80036;stroke-width:1.0;"/><line style="stroke:#A80036;stroke-width:1.0;stroke-dasharray:2.0,2.0;" x1="876" x2="1183" y1="408.0313" y2="408.0313"/><text fill="#000000" font-family="sans-serif" font-size="13" font-weight="bold" lengthAdjust="spacing" textLength="7" x="888" y="403.1748">9</text><text fill="#000000" font-family="sans-serif" font-size="13" lengthAdjust="spacing" textLength="71" x="899" y="403.1748">List&lt;String&gt;</text><polygon fill="#A80036" points="106.5,434.3828,96.5,438.3828,106.5,442.3828,102.5,438.3828" style="stroke:#A80036;stroke-width:1.0;"/><line style="stroke:#A80036;stroke-width:1.0;stroke-dasharray:2.0,2.0;" x1="100.5" x2="870" y1="438.3828" y2="438.3828"/><text fill="#000000" font-family="sans-serif" font-size="13" font-weight="bold" lengthAdjust="spacing" textLength="14" x="112.5" y="433.5264">10</text><text fill="#000000" font-family="sans-serif" font-size="13" lengthAdjust="spacing" textLength="173" x="130.5" y="433.5264">Delivers the information asked</text><!--MD5=[5a67803834491c418733ff1a4d92956f]
@startuml

autonumber

actor ShipChiefElectricalEngineer #red

System - -> ShipChiefElectricalEngineer: Authentication Request
ShipChiefElectricalEngineer -> System : Another authentication Response
System - -> ShipChiefElectricalEngineer : Authentication successful
ShipChiefElectricalEngineer - -> ShipChiefElectricalEngineerUI : Asks for the set of materials to use in a container, to operate at temperatures of 7°C.
ShipChiefElectricalEngineerUI - -> GetSetOfMaterialsToContainerAtSevenUI : Connects
GetSetOfMaterialsToContainerAtSevenUI - -> GetSetOfMaterialsToContainerAtSevenController : asks for the info
database       "DataBase"              as db
GetSetOfMaterialsToContainerAtSevenController - -> db** : getSetOfMaterialsToContainerAtSevenController()
db - -> GetSetOfMaterialsToContainerAtSevenController : List<String>
GetSetOfMaterialsToContainerAtSevenController - -> GetSetOfMaterialsToContainerAtSevenUI : List<String>
GetSetOfMaterialsToContainerAtSevenUI - -> ShipChiefElectricalEngineer : Delivers the information asked

@enduml

PlantUML version 1.2021.11(Sat Oct 02 14:26:11 BST 2021)
(GPL source distribution)
Java Runtime: OpenJDK Runtime Environment
JVM: OpenJDK 64-Bit Server VM
Default Encoding: Cp1252
Language: pt
Country: PT
--></g></svg>