<?xml version="1.0" encoding="UTF-8" standalone="no"?><svg xmlns="http://www.w3.org/2000/svg" xmlns:xlink="http://www.w3.org/1999/xlink" contentScriptType="application/ecmascript" contentStyleType="text/css" height="629px" preserveAspectRatio="none" style="width:259px;height:629px;background:#FFFFFF;" version="1.1" viewBox="0 0 259 629" width="259px" zoomAndPan="magnify"><defs><filter height="300%" id="f1gggh9hxqo3x1" width="300%" x="-1" y="-1"><feGaussianBlur result="blurOut" stdDeviation="2.0"/><feColorMatrix in="blurOut" result="blurOut2" type="matrix" values="0 0 0 0 0 0 0 0 0 0 0 0 0 0 0 0 0 0 .4 0"/><feOffset dx="4.0" dy="4.0" in="blurOut2" result="blurOut3"/><feBlend in="SourceGraphic" in2="blurOut3" mode="normal"/></filter></defs><g><!--MD5=[0dc7f2ddb409b58bcf52b12238c25399]
class Ship--><rect codeLine="6" fill="#FEFECE" filter="url(#f1gggh9hxqo3x1)" height="200.1953" id="Ship" style="stroke:#A80036;stroke-width:1.5;" width="159" x="7" y="415"/><ellipse cx="69.75" cy="431" fill="#ADD1B2" rx="11" ry="11" style="stroke:#A80036;stroke-width:1.0;"/><path d="M71.75,427.5 Q71.9531,427 72.1875,426.75 Q72.4219,426.5 72.6875,426.5 Q73.1563,426.5 73.4531,426.7813 Q73.75,427.0625 73.75,427.7188 L73.75,429.2813 Q73.75,429.9375 73.4688,430.2188 Q73.1875,430.5 72.75,430.5 Q72.3594,430.5 72.1094,430.3281 Q71.8594,430.1563 71.75,429.7031 Q71.7031,429.3906 71.5313,429.2188 Q71.2188,428.8906 70.6563,428.7031 Q70.0938,428.5 69.5313,428.5 Q68.8281,428.5 68.2344,428.7813 Q67.6563,429.0625 67.2031,429.6875 Q66.75,430.3125 66.75,431.1719 L66.75,432.0938 Q66.75,433.125 67.5938,433.8125 Q68.4375,434.5 69.9375,434.5 Q70.8281,434.5 71.4531,434.2969 Q71.8125,434.1875 72.2188,433.8281 Q72.4844,433.625 72.625,433.5625 Q72.7656,433.5 72.9375,433.5 Q73.2656,433.5 73.5,433.7656 Q73.75,434.0156 73.75,434.375 Q73.75,434.7188 73.4063,435.125 Q72.9063,435.7188 72.1094,436.0469 Q71.0625,436.5 69.7813,436.5 Q68.2813,436.5 67.0781,435.9063 Q66.1094,435.4375 65.4219,434.4219 Q64.75,433.4063 64.75,432.2031 L64.75,431.1094 Q64.75,429.8594 65.3438,428.7656 Q65.9531,427.6719 67,427.0938 Q68.0625,426.5 69.25,426.5 Q69.9688,426.5 70.5938,426.75 Q71.2188,427 71.75,427.5 Z " fill="#000000"/><text fill="#000000" font-family="sans-serif" font-size="12" lengthAdjust="spacing" textLength="25" x="90.25" y="435.9102">Ship</text><line style="stroke:#A80036;stroke-width:1.5;" x1="8" x2="165" y1="447" y2="447"/><rect fill="none" height="6" style="stroke:#C82930;stroke-width:1.0;" width="6" x="15" y="455"/><text fill="#000000" font-family="sans-serif" font-size="11" lengthAdjust="spacing" textLength="48" x="27" y="462.4189">int MMSI &lt;</text><text fill="#000000" font-family="sans-serif" font-size="11" font-weight="bold" lengthAdjust="spacing" textLength="20" x="75" y="462.4189">PK&gt;</text><rect fill="none" height="6" style="stroke:#C82930;stroke-width:1.0;" width="6" x="15" y="468.8359"/><text fill="#000000" font-family="sans-serif" font-size="11" lengthAdjust="spacing" textLength="57" x="27" y="476.2549">String name</text><rect fill="none" height="6" style="stroke:#C82930;stroke-width:1.0;" width="6" x="15" y="482.6719"/><text fill="#000000" font-family="sans-serif" font-size="11" lengthAdjust="spacing" textLength="32" x="27" y="490.0908">int IMO</text><rect fill="none" height="6" style="stroke:#C82930;stroke-width:1.0;" width="6" x="15" y="496.5078"/><text fill="#000000" font-family="sans-serif" font-size="11" lengthAdjust="spacing" textLength="133" x="27" y="503.9268">int numberEnergyGenerator</text><rect fill="none" height="6" style="stroke:#C82930;stroke-width:1.0;" width="6" x="15" y="510.3438"/><text fill="#000000" font-family="sans-serif" font-size="11" lengthAdjust="spacing" textLength="78" x="27" y="517.7627">int powerOutput</text><rect fill="none" height="6" style="stroke:#C82930;stroke-width:1.0;" width="6" x="15" y="524.1797"/><text fill="#000000" font-family="sans-serif" font-size="11" lengthAdjust="spacing" textLength="68" x="27" y="531.5986">String callSign</text><rect fill="none" height="6" style="stroke:#C82930;stroke-width:1.0;" width="6" x="15" y="538.0156"/><text fill="#000000" font-family="sans-serif" font-size="11" lengthAdjust="spacing" textLength="70" x="27" y="545.4346">int vesselType</text><rect fill="none" height="6" style="stroke:#C82930;stroke-width:1.0;" width="6" x="15" y="551.8516"/><text fill="#000000" font-family="sans-serif" font-size="11" lengthAdjust="spacing" textLength="64" x="27" y="559.2705">double length</text><rect fill="none" height="6" style="stroke:#C82930;stroke-width:1.0;" width="6" x="15" y="565.6875"/><text fill="#000000" font-family="sans-serif" font-size="11" lengthAdjust="spacing" textLength="62" x="27" y="573.1064">double width</text><rect fill="none" height="6" style="stroke:#C82930;stroke-width:1.0;" width="6" x="15" y="579.5234"/><text fill="#000000" font-family="sans-serif" font-size="11" lengthAdjust="spacing" textLength="100" x="27" y="586.9424">int maximumCapacity</text><rect fill="none" height="6" style="stroke:#C82930;stroke-width:1.0;" width="6" x="15" y="593.3594"/><text fill="#000000" font-family="sans-serif" font-size="11" lengthAdjust="spacing" textLength="58" x="27" y="600.7783">double draft</text><line style="stroke:#A80036;stroke-width:1.5;" x1="8" x2="165" y1="607.1953" y2="607.1953"/><!--MD5=[02e4b9b7573f1156f41e60aa5b4e25a4]
class Company--><rect codeLine="21" fill="#FEFECE" filter="url(#f1gggh9hxqo3x1)" height="89.5078" id="Company" style="stroke:#A80036;stroke-width:1.5;" width="148" x="76.5" y="115"/><ellipse cx="119.85" cy="131" fill="#ADD1B2" rx="11" ry="11" style="stroke:#A80036;stroke-width:1.0;"/><path d="M121.85,127.5 Q122.0531,127 122.2875,126.75 Q122.5219,126.5 122.7875,126.5 Q123.2563,126.5 123.5531,126.7813 Q123.85,127.0625 123.85,127.7188 L123.85,129.2813 Q123.85,129.9375 123.5688,130.2188 Q123.2875,130.5 122.85,130.5 Q122.4594,130.5 122.2094,130.3281 Q121.9594,130.1563 121.85,129.7031 Q121.8031,129.3906 121.6313,129.2188 Q121.3188,128.8906 120.7563,128.7031 Q120.1938,128.5 119.6313,128.5 Q118.9281,128.5 118.3344,128.7813 Q117.7563,129.0625 117.3031,129.6875 Q116.85,130.3125 116.85,131.1719 L116.85,132.0938 Q116.85,133.125 117.6938,133.8125 Q118.5375,134.5 120.0375,134.5 Q120.9281,134.5 121.5531,134.2969 Q121.9125,134.1875 122.3188,133.8281 Q122.5844,133.625 122.725,133.5625 Q122.8656,133.5 123.0375,133.5 Q123.3656,133.5 123.6,133.7656 Q123.85,134.0156 123.85,134.375 Q123.85,134.7188 123.5063,135.125 Q123.0063,135.7188 122.2094,136.0469 Q121.1625,136.5 119.8813,136.5 Q118.3813,136.5 117.1781,135.9063 Q116.2094,135.4375 115.5219,134.4219 Q114.85,133.4063 114.85,132.2031 L114.85,131.1094 Q114.85,129.8594 115.4438,128.7656 Q116.0531,127.6719 117.1,127.0938 Q118.1625,126.5 119.35,126.5 Q120.0688,126.5 120.6938,126.75 Q121.3188,127 121.85,127.5 Z " fill="#000000"/><text fill="#000000" font-family="sans-serif" font-size="12" lengthAdjust="spacing" textLength="53" x="140.15" y="135.9102">Company</text><line style="stroke:#A80036;stroke-width:1.5;" x1="77.5" x2="223.5" y1="147" y2="147"/><line style="stroke:#A80036;stroke-width:1.5;" x1="77.5" x2="223.5" y1="155" y2="155"/><ellipse cx="87.5" cy="166" fill="#84BE84" rx="3" ry="3" style="stroke:#038048;stroke-width:1.0;"/><text fill="#000000" font-family="sans-serif" font-size="11" lengthAdjust="spacing" textLength="84" x="96.5" y="170.4189">getTreeOfShips()</text><ellipse cx="87.5" cy="179.8359" fill="#84BE84" rx="3" ry="3" style="stroke:#038048;stroke-width:1.0;"/><text fill="#000000" font-family="sans-serif" font-size="11" lengthAdjust="spacing" textLength="102" x="96.5" y="184.2549">getTreeOfShipsIMO()</text><ellipse cx="87.5" cy="193.6719" fill="#84BE84" rx="3" ry="3" style="stroke:#038048;stroke-width:1.0;"/><text fill="#000000" font-family="sans-serif" font-size="11" lengthAdjust="spacing" textLength="122" x="96.5" y="198.0908">getTreeOfShipsCallSign()</text><!--MD5=[070a92e7bdbd38b89b60547758ff16ef]
class TreeOfShips--><rect codeLine="29" fill="#FEFECE" filter="url(#f1gggh9hxqo3x1)" height="89.5078" id="TreeOfShips" style="stroke:#A80036;stroke-width:1.5;" width="176" x="69.5" y="265"/><ellipse cx="118.75" cy="281" fill="#ADD1B2" rx="11" ry="11" style="stroke:#A80036;stroke-width:1.0;"/><path d="M120.75,277.5 Q120.9531,277 121.1875,276.75 Q121.4219,276.5 121.6875,276.5 Q122.1563,276.5 122.4531,276.7813 Q122.75,277.0625 122.75,277.7188 L122.75,279.2813 Q122.75,279.9375 122.4688,280.2188 Q122.1875,280.5 121.75,280.5 Q121.3594,280.5 121.1094,280.3281 Q120.8594,280.1563 120.75,279.7031 Q120.7031,279.3906 120.5313,279.2188 Q120.2188,278.8906 119.6563,278.7031 Q119.0938,278.5 118.5313,278.5 Q117.8281,278.5 117.2344,278.7813 Q116.6563,279.0625 116.2031,279.6875 Q115.75,280.3125 115.75,281.1719 L115.75,282.0938 Q115.75,283.125 116.5938,283.8125 Q117.4375,284.5 118.9375,284.5 Q119.8281,284.5 120.4531,284.2969 Q120.8125,284.1875 121.2188,283.8281 Q121.4844,283.625 121.625,283.5625 Q121.7656,283.5 121.9375,283.5 Q122.2656,283.5 122.5,283.7656 Q122.75,284.0156 122.75,284.375 Q122.75,284.7188 122.4063,285.125 Q121.9063,285.7188 121.1094,286.0469 Q120.0625,286.5 118.7813,286.5 Q117.2813,286.5 116.0781,285.9063 Q115.1094,285.4375 114.4219,284.4219 Q113.75,283.4063 113.75,282.2031 L113.75,281.1094 Q113.75,279.8594 114.3438,278.7656 Q114.9531,277.6719 116,277.0938 Q117.0625,276.5 118.25,276.5 Q118.9688,276.5 119.5938,276.75 Q120.2188,277 120.75,277.5 Z " fill="#000000"/><text fill="#000000" font-family="sans-serif" font-size="12" lengthAdjust="spacing" textLength="69" x="139.25" y="285.9102">TreeOfShips</text><line style="stroke:#A80036;stroke-width:1.5;" x1="70.5" x2="244.5" y1="297" y2="297"/><line style="stroke:#A80036;stroke-width:1.5;" x1="70.5" x2="244.5" y1="305" y2="305"/><ellipse cx="80.5" cy="316" fill="#84BE84" rx="3" ry="3" style="stroke:#038048;stroke-width:1.0;"/><text fill="#000000" font-family="sans-serif" font-size="11" lengthAdjust="spacing" textLength="128" x="89.5" y="320.4189">getShipByImo(String code)</text><ellipse cx="80.5" cy="329.8359" fill="#84BE84" rx="3" ry="3" style="stroke:#038048;stroke-width:1.0;"/><text fill="#000000" font-family="sans-serif" font-size="11" lengthAdjust="spacing" textLength="120" x="89.5" y="334.2549">getShipByMMSI(int code)</text><ellipse cx="80.5" cy="343.6719" fill="#84BE84" rx="3" ry="3" style="stroke:#038048;stroke-width:1.0;"/><text fill="#000000" font-family="sans-serif" font-size="11" lengthAdjust="spacing" textLength="150" x="89.5" y="348.0908">getShipByCallSign(String code)</text><!--MD5=[ddaf6f62b0bc30921877ec9fb9463c9f]
class TrafficManager--><rect codeLine="35" fill="#FEFECE" filter="url(#f1gggh9hxqo3x1)" height="48" id="TrafficManager" style="stroke:#A80036;stroke-width:1.5;" width="113" x="23" y="7"/><ellipse cx="38" cy="23" fill="#ADD1B2" rx="11" ry="11" style="stroke:#A80036;stroke-width:1.0;"/><path d="M40,19.5 Q40.2031,19 40.4375,18.75 Q40.6719,18.5 40.9375,18.5 Q41.4063,18.5 41.7031,18.7813 Q42,19.0625 42,19.7188 L42,21.2813 Q42,21.9375 41.7188,22.2188 Q41.4375,22.5 41,22.5 Q40.6094,22.5 40.3594,22.3281 Q40.1094,22.1563 40,21.7031 Q39.9531,21.3906 39.7813,21.2188 Q39.4688,20.8906 38.9063,20.7031 Q38.3438,20.5 37.7813,20.5 Q37.0781,20.5 36.4844,20.7813 Q35.9063,21.0625 35.4531,21.6875 Q35,22.3125 35,23.1719 L35,24.0938 Q35,25.125 35.8438,25.8125 Q36.6875,26.5 38.1875,26.5 Q39.0781,26.5 39.7031,26.2969 Q40.0625,26.1875 40.4688,25.8281 Q40.7344,25.625 40.875,25.5625 Q41.0156,25.5 41.1875,25.5 Q41.5156,25.5 41.75,25.7656 Q42,26.0156 42,26.375 Q42,26.7188 41.6563,27.125 Q41.1563,27.7188 40.3594,28.0469 Q39.3125,28.5 38.0313,28.5 Q36.5313,28.5 35.3281,27.9063 Q34.3594,27.4375 33.6719,26.4219 Q33,25.4063 33,24.2031 L33,23.1094 Q33,21.8594 33.5938,20.7656 Q34.2031,19.6719 35.25,19.0938 Q36.3125,18.5 37.5,18.5 Q38.2188,18.5 38.8438,18.75 Q39.4688,19 40,19.5 Z " fill="#000000"/><text fill="#000000" font-family="sans-serif" font-size="12" lengthAdjust="spacing" textLength="81" x="52" y="27.9102">TrafficManager</text><line style="stroke:#A80036;stroke-width:1.5;" x1="24" x2="135" y1="39" y2="39"/><line style="stroke:#A80036;stroke-width:1.5;" x1="24" x2="135" y1="47" y2="47"/><!--MD5=[bc71c62128aaf75a155dd6adc8e1dfa9]
link TrafficManager to Company--><path codeLine="39" d="M92.52,55.29 C101.08,70.61 112.61,91.23 123.13,110.04 " fill="none" id="TrafficManager-to-Company" style="stroke:#A80036;stroke-width:1.0;"/><polygon fill="#A80036" points="125.78,114.78,124.8814,104.9722,123.3409,110.4153,117.8978,108.8748,125.78,114.78" style="stroke:#A80036;stroke-width:1.0;"/><!--MD5=[40e2b5717560220ad35e84810a8f1b44]
link TrafficManager to Ship--><path codeLine="40" d="M72.71,55.03 C68.13,71.56 62.43,94.46 59.5,115 C44.45,220.64 41.28,248.88 52.5,355 C54.39,372.83 57.43,391.61 60.94,409.76 " fill="none" id="TrafficManager-to-Ship" style="stroke:#A80036;stroke-width:1.0;"/><polygon fill="#A80036" points="61.94,414.86,64.1134,405.254,60.9677,409.9555,56.2662,406.8097,61.94,414.86" style="stroke:#A80036;stroke-width:1.0;"/><!--MD5=[9aca008fc33daef65cdd8d1cd801e858]
reverse link Company to TreeOfShips--><path codeLine="41" d="M153.21,218.27 C153.94,233.76 154.72,250.27 155.41,264.91 " fill="none" id="Company-backto-TreeOfShips" style="stroke:#A80036;stroke-width:1.0;"/><polygon fill="#FFFFFF" points="152.58,205,148.868,211.1823,153.147,216.9866,156.859,210.8043,152.58,205" style="stroke:#A80036;stroke-width:1.0;"/><!--MD5=[123f3027af9abb032a161debebca0e1e]
reverse link TreeOfShips to Ship--><path codeLine="42" d="M137.74,367.5 C132.6,382.19 126.92,398.44 121.25,414.63 " fill="none" id="TreeOfShips-backto-Ship" style="stroke:#A80036;stroke-width:1.0;"/><polygon fill="#FFFFFF" points="142.09,355.05,136.3354,359.3956,138.1334,366.379,143.888,362.0333,142.09,355.05" style="stroke:#A80036;stroke-width:1.0;"/><!--MD5=[981cac6ae8d16e85de51320ae61fb54f]
@startuml
'https://plantuml.com/class-diagram

abstract class Ship


class Ship {

    -int MMSI <<b>PK>
    -String name
    -int IMO
    -int numberEnergyGenerator
    -int powerOutput
    -String callSign
    -int vesselType
    -double length
    -double width
    -int maximumCapacity
    -double draft
}

class Company{

    +getTreeOfShips()
    +getTreeOfShipsIMO()
    +getTreeOfShipsCallSign()

}

class TreeOfShips{
    +getShipByImo(String code)
    +getShipByMMSI(int code)
    +getShipByCallSign(String code)
}

class TrafficManager{
}


TrafficManager - -> Company
TrafficManager - -> Ship
Company o- - TreeOfShips
TreeOfShips o- - Ship

@enduml

@startuml

abstract class Ship


class Ship {

    -int MMSI <<b>PK>
    -String name
    -int IMO
    -int numberEnergyGenerator
    -int powerOutput
    -String callSign
    -int vesselType
    -double length
    -double width
    -int maximumCapacity
    -double draft
}

class Company{

    +getTreeOfShips()
    +getTreeOfShipsIMO()
    +getTreeOfShipsCallSign()

}

class TreeOfShips{
    +getShipByImo(String code)
    +getShipByMMSI(int code)
    +getShipByCallSign(String code)
}

class TrafficManager{
}


TrafficManager - -> Company
TrafficManager - -> Ship
Company o- - TreeOfShips
TreeOfShips o- - Ship

@enduml

PlantUML version 1.2021.11(Sat Oct 02 14:26:11 BST 2021)
(GPL source distribution)
Java Runtime: OpenJDK Runtime Environment
JVM: OpenJDK 64-Bit Server VM
Default Encoding: Cp1252
Language: pt
Country: PT
--></g></svg>