<?xml version="1.0" encoding="UTF-8" standalone="no"?><svg xmlns="http://www.w3.org/2000/svg" xmlns:xlink="http://www.w3.org/1999/xlink" contentScriptType="application/ecmascript" contentStyleType="text/css" height="670px" preserveAspectRatio="none" style="width:427px;height:670px;background:#FFFFFF;" version="1.1" viewBox="0 0 427 670" width="427px" zoomAndPan="magnify"><defs><filter height="300%" id="f4h7aye06pmlu" width="300%" x="-1" y="-1"><feGaussianBlur result="blurOut" stdDeviation="2.0"/><feColorMatrix in="blurOut" result="blurOut2" type="matrix" values="0 0 0 0 0 0 0 0 0 0 0 0 0 0 0 0 0 0 .4 0"/><feOffset dx="4.0" dy="4.0" in="blurOut2" result="blurOut3"/><feBlend in="SourceGraphic" in2="blurOut3" mode="normal"/></filter></defs><g><!--MD5=[99d8f1361a72f685c413d1fd21efef1c]
class PortManager--><rect codeLine="3" fill="#FEFECE" filter="url(#f4h7aye06pmlu)" height="48" id="PortManager" style="stroke:#A80036;stroke-width:1.5;" width="102" x="228.5" y="7"/><ellipse cx="243.5" cy="23" fill="#ADD1B2" rx="11" ry="11" style="stroke:#A80036;stroke-width:1.0;"/><path d="M245.5,19.5 Q245.7031,19 245.9375,18.75 Q246.1719,18.5 246.4375,18.5 Q246.9063,18.5 247.2031,18.7813 Q247.5,19.0625 247.5,19.7188 L247.5,21.2813 Q247.5,21.9375 247.2188,22.2188 Q246.9375,22.5 246.5,22.5 Q246.1094,22.5 245.8594,22.3281 Q245.6094,22.1563 245.5,21.7031 Q245.4531,21.3906 245.2813,21.2188 Q244.9688,20.8906 244.4063,20.7031 Q243.8438,20.5 243.2813,20.5 Q242.5781,20.5 241.9844,20.7813 Q241.4063,21.0625 240.9531,21.6875 Q240.5,22.3125 240.5,23.1719 L240.5,24.0938 Q240.5,25.125 241.3438,25.8125 Q242.1875,26.5 243.6875,26.5 Q244.5781,26.5 245.2031,26.2969 Q245.5625,26.1875 245.9688,25.8281 Q246.2344,25.625 246.375,25.5625 Q246.5156,25.5 246.6875,25.5 Q247.0156,25.5 247.25,25.7656 Q247.5,26.0156 247.5,26.375 Q247.5,26.7188 247.1563,27.125 Q246.6563,27.7188 245.8594,28.0469 Q244.8125,28.5 243.5313,28.5 Q242.0313,28.5 240.8281,27.9063 Q239.8594,27.4375 239.1719,26.4219 Q238.5,25.4063 238.5,24.2031 L238.5,23.1094 Q238.5,21.8594 239.0938,20.7656 Q239.7031,19.6719 240.75,19.0938 Q241.8125,18.5 243,18.5 Q243.7188,18.5 244.3438,18.75 Q244.9688,19 245.5,19.5 Z " fill="#000000"/><text fill="#000000" font-family="sans-serif" font-size="12" lengthAdjust="spacing" textLength="70" x="257.5" y="27.9102">PortManager</text><line style="stroke:#A80036;stroke-width:1.5;" x1="229.5" x2="329.5" y1="39" y2="39"/><line style="stroke:#A80036;stroke-width:1.5;" x1="229.5" x2="329.5" y1="47" y2="47"/><!--MD5=[3fd616f346a44cd59a91eb10b19e157c]
class User--><rect codeLine="7" fill="#FEFECE" filter="url(#f4h7aye06pmlu)" height="48" id="User" style="stroke:#A80036;stroke-width:1.5;" width="59" x="341" y="154"/><ellipse cx="356" cy="170" fill="#ADD1B2" rx="11" ry="11" style="stroke:#A80036;stroke-width:1.0;"/><path d="M358,166.5 Q358.2031,166 358.4375,165.75 Q358.6719,165.5 358.9375,165.5 Q359.4063,165.5 359.7031,165.7813 Q360,166.0625 360,166.7188 L360,168.2813 Q360,168.9375 359.7188,169.2188 Q359.4375,169.5 359,169.5 Q358.6094,169.5 358.3594,169.3281 Q358.1094,169.1563 358,168.7031 Q357.9531,168.3906 357.7813,168.2188 Q357.4688,167.8906 356.9063,167.7031 Q356.3438,167.5 355.7813,167.5 Q355.0781,167.5 354.4844,167.7813 Q353.9063,168.0625 353.4531,168.6875 Q353,169.3125 353,170.1719 L353,171.0938 Q353,172.125 353.8438,172.8125 Q354.6875,173.5 356.1875,173.5 Q357.0781,173.5 357.7031,173.2969 Q358.0625,173.1875 358.4688,172.8281 Q358.7344,172.625 358.875,172.5625 Q359.0156,172.5 359.1875,172.5 Q359.5156,172.5 359.75,172.7656 Q360,173.0156 360,173.375 Q360,173.7188 359.6563,174.125 Q359.1563,174.7188 358.3594,175.0469 Q357.3125,175.5 356.0313,175.5 Q354.5313,175.5 353.3281,174.9063 Q352.3594,174.4375 351.6719,173.4219 Q351,172.4063 351,171.2031 L351,170.1094 Q351,168.8594 351.5938,167.7656 Q352.2031,166.6719 353.25,166.0938 Q354.3125,165.5 355.5,165.5 Q356.2188,165.5 356.8438,165.75 Q357.4688,166 358,166.5 Z " fill="#000000"/><text fill="#000000" font-family="sans-serif" font-size="12" lengthAdjust="spacing" textLength="27" x="370" y="174.9102">User</text><line style="stroke:#A80036;stroke-width:1.5;" x1="342" x2="399" y1="186" y2="186"/><line style="stroke:#A80036;stroke-width:1.5;" x1="342" x2="399" y1="194" y2="194"/><!--MD5=[45d42ff7800d812d5f83c7d3273eb427]
class UserRole--><rect codeLine="11" fill="#FEFECE" filter="url(#f4h7aye06pmlu)" height="48" id="UserRole" style="stroke:#A80036;stroke-width:1.5;" width="85" x="328" y="328.5"/><ellipse cx="343" cy="344.5" fill="#ADD1B2" rx="11" ry="11" style="stroke:#A80036;stroke-width:1.0;"/><path d="M345,341 Q345.2031,340.5 345.4375,340.25 Q345.6719,340 345.9375,340 Q346.4063,340 346.7031,340.2813 Q347,340.5625 347,341.2188 L347,342.7813 Q347,343.4375 346.7188,343.7188 Q346.4375,344 346,344 Q345.6094,344 345.3594,343.8281 Q345.1094,343.6563 345,343.2031 Q344.9531,342.8906 344.7813,342.7188 Q344.4688,342.3906 343.9063,342.2031 Q343.3438,342 342.7813,342 Q342.0781,342 341.4844,342.2813 Q340.9063,342.5625 340.4531,343.1875 Q340,343.8125 340,344.6719 L340,345.5938 Q340,346.625 340.8438,347.3125 Q341.6875,348 343.1875,348 Q344.0781,348 344.7031,347.7969 Q345.0625,347.6875 345.4688,347.3281 Q345.7344,347.125 345.875,347.0625 Q346.0156,347 346.1875,347 Q346.5156,347 346.75,347.2656 Q347,347.5156 347,347.875 Q347,348.2188 346.6563,348.625 Q346.1563,349.2188 345.3594,349.5469 Q344.3125,350 343.0313,350 Q341.5313,350 340.3281,349.4063 Q339.3594,348.9375 338.6719,347.9219 Q338,346.9063 338,345.7031 L338,344.6094 Q338,343.3594 338.5938,342.2656 Q339.2031,341.1719 340.25,340.5938 Q341.3125,340 342.5,340 Q343.2188,340 343.8438,340.25 Q344.4688,340.5 345,341 Z " fill="#000000"/><text fill="#000000" font-family="sans-serif" font-size="12" lengthAdjust="spacing" textLength="53" x="357" y="349.4102">UserRole</text><line style="stroke:#A80036;stroke-width:1.5;" x1="329" x2="412" y1="360.5" y2="360.5"/><line style="stroke:#A80036;stroke-width:1.5;" x1="329" x2="412" y1="368.5" y2="368.5"/><!--MD5=[02e4b9b7573f1156f41e60aa5b4e25a4]
class Company--><rect codeLine="15" fill="#FEFECE" filter="url(#f4h7aye06pmlu)" height="48" id="Company" style="stroke:#A80036;stroke-width:1.5;" width="85" x="79" y="482"/><ellipse cx="94" cy="498" fill="#ADD1B2" rx="11" ry="11" style="stroke:#A80036;stroke-width:1.0;"/><path d="M96,494.5 Q96.2031,494 96.4375,493.75 Q96.6719,493.5 96.9375,493.5 Q97.4063,493.5 97.7031,493.7813 Q98,494.0625 98,494.7188 L98,496.2813 Q98,496.9375 97.7188,497.2188 Q97.4375,497.5 97,497.5 Q96.6094,497.5 96.3594,497.3281 Q96.1094,497.1563 96,496.7031 Q95.9531,496.3906 95.7813,496.2188 Q95.4688,495.8906 94.9063,495.7031 Q94.3438,495.5 93.7813,495.5 Q93.0781,495.5 92.4844,495.7813 Q91.9063,496.0625 91.4531,496.6875 Q91,497.3125 91,498.1719 L91,499.0938 Q91,500.125 91.8438,500.8125 Q92.6875,501.5 94.1875,501.5 Q95.0781,501.5 95.7031,501.2969 Q96.0625,501.1875 96.4688,500.8281 Q96.7344,500.625 96.875,500.5625 Q97.0156,500.5 97.1875,500.5 Q97.5156,500.5 97.75,500.7656 Q98,501.0156 98,501.375 Q98,501.7188 97.6563,502.125 Q97.1563,502.7188 96.3594,503.0469 Q95.3125,503.5 94.0313,503.5 Q92.5313,503.5 91.3281,502.9063 Q90.3594,502.4375 89.6719,501.4219 Q89,500.4063 89,499.2031 L89,498.1094 Q89,496.8594 89.5938,495.7656 Q90.2031,494.6719 91.25,494.0938 Q92.3125,493.5 93.5,493.5 Q94.2188,493.5 94.8438,493.75 Q95.4688,494 96,494.5 Z " fill="#000000"/><text fill="#000000" font-family="sans-serif" font-size="12" lengthAdjust="spacing" textLength="53" x="108" y="502.9102">Company</text><line style="stroke:#A80036;stroke-width:1.5;" x1="80" x2="163" y1="514" y2="514"/><line style="stroke:#A80036;stroke-width:1.5;" x1="80" x2="163" y1="522" y2="522"/><!--MD5=[001d74bdd355d05e0059d6435f29e509]
class GetWarningUI--><rect codeLine="19" fill="#FEFECE" filter="url(#f4h7aye06pmlu)" height="89.5078" id="GetWarningUI" style="stroke:#A80036;stroke-width:1.5;" width="233" x="73" y="133"/><ellipse cx="146.75" cy="149" fill="#ADD1B2" rx="11" ry="11" style="stroke:#A80036;stroke-width:1.0;"/><path d="M148.75,145.5 Q148.9531,145 149.1875,144.75 Q149.4219,144.5 149.6875,144.5 Q150.1563,144.5 150.4531,144.7813 Q150.75,145.0625 150.75,145.7188 L150.75,147.2813 Q150.75,147.9375 150.4688,148.2188 Q150.1875,148.5 149.75,148.5 Q149.3594,148.5 149.1094,148.3281 Q148.8594,148.1563 148.75,147.7031 Q148.7031,147.3906 148.5313,147.2188 Q148.2188,146.8906 147.6563,146.7031 Q147.0938,146.5 146.5313,146.5 Q145.8281,146.5 145.2344,146.7813 Q144.6563,147.0625 144.2031,147.6875 Q143.75,148.3125 143.75,149.1719 L143.75,150.0938 Q143.75,151.125 144.5938,151.8125 Q145.4375,152.5 146.9375,152.5 Q147.8281,152.5 148.4531,152.2969 Q148.8125,152.1875 149.2188,151.8281 Q149.4844,151.625 149.625,151.5625 Q149.7656,151.5 149.9375,151.5 Q150.2656,151.5 150.5,151.7656 Q150.75,152.0156 150.75,152.375 Q150.75,152.7188 150.4063,153.125 Q149.9063,153.7188 149.1094,154.0469 Q148.0625,154.5 146.7813,154.5 Q145.2813,154.5 144.0781,153.9063 Q143.1094,153.4375 142.4219,152.4219 Q141.75,151.4063 141.75,150.2031 L141.75,149.1094 Q141.75,147.8594 142.3438,146.7656 Q142.9531,145.6719 144,145.0938 Q145.0625,144.5 146.25,144.5 Q146.9688,144.5 147.5938,144.75 Q148.2188,145 148.75,145.5 Z " fill="#000000"/><text fill="#000000" font-family="sans-serif" font-size="12" lengthAdjust="spacing" textLength="77" x="167.25" y="153.9102">GetWarningUI</text><line style="stroke:#A80036;stroke-width:1.5;" x1="74" x2="305" y1="165" y2="165"/><rect fill="none" height="6" style="stroke:#C82930;stroke-width:1.0;" width="6" x="81" y="173"/><text fill="#000000" font-family="sans-serif" font-size="11" lengthAdjust="spacing" textLength="207" x="93" y="180.4189">GetWarningController getWarningController</text><line style="stroke:#A80036;stroke-width:1.5;" x1="74" x2="305" y1="186.8359" y2="186.8359"/><ellipse cx="84" cy="197.8359" fill="#84BE84" rx="3" ry="3" style="stroke:#038048;stroke-width:1.0;"/><text fill="#000000" font-family="sans-serif" font-size="11" lengthAdjust="spacing" textLength="74" x="93" y="202.2549">GetWarningUI()</text><ellipse cx="84" cy="211.6719" fill="#84BE84" rx="3" ry="3" style="stroke:#038048;stroke-width:1.0;"/><text fill="#000000" font-family="sans-serif" font-size="11" lengthAdjust="spacing" textLength="24" x="93" y="216.0908">run()</text><!--MD5=[a572b9c37bae606faa8c2324d3033844]
class GetWarningController--><rect codeLine="25" fill="#FEFECE" filter="url(#f4h7aye06pmlu)" height="103.3438" id="GetWarningController" style="stroke:#A80036;stroke-width:1.5;" width="229" x="7" y="301"/><ellipse cx="57.75" cy="317" fill="#ADD1B2" rx="11" ry="11" style="stroke:#A80036;stroke-width:1.0;"/><path d="M59.75,313.5 Q59.9531,313 60.1875,312.75 Q60.4219,312.5 60.6875,312.5 Q61.1563,312.5 61.4531,312.7813 Q61.75,313.0625 61.75,313.7188 L61.75,315.2813 Q61.75,315.9375 61.4688,316.2188 Q61.1875,316.5 60.75,316.5 Q60.3594,316.5 60.1094,316.3281 Q59.8594,316.1563 59.75,315.7031 Q59.7031,315.3906 59.5313,315.2188 Q59.2188,314.8906 58.6563,314.7031 Q58.0938,314.5 57.5313,314.5 Q56.8281,314.5 56.2344,314.7813 Q55.6563,315.0625 55.2031,315.6875 Q54.75,316.3125 54.75,317.1719 L54.75,318.0938 Q54.75,319.125 55.5938,319.8125 Q56.4375,320.5 57.9375,320.5 Q58.8281,320.5 59.4531,320.2969 Q59.8125,320.1875 60.2188,319.8281 Q60.4844,319.625 60.625,319.5625 Q60.7656,319.5 60.9375,319.5 Q61.2656,319.5 61.5,319.7656 Q61.75,320.0156 61.75,320.375 Q61.75,320.7188 61.4063,321.125 Q60.9063,321.7188 60.1094,322.0469 Q59.0625,322.5 57.7813,322.5 Q56.2813,322.5 55.0781,321.9063 Q54.1094,321.4375 53.4219,320.4219 Q52.75,319.4063 52.75,318.2031 L52.75,317.1094 Q52.75,315.8594 53.3438,314.7656 Q53.9531,313.6719 55,313.0938 Q56.0625,312.5 57.25,312.5 Q57.9688,312.5 58.5938,312.75 Q59.2188,313 59.75,313.5 Z " fill="#000000"/><text fill="#000000" font-family="sans-serif" font-size="12" lengthAdjust="spacing" textLength="119" x="78.25" y="321.9102">GetWarningController</text><line style="stroke:#A80036;stroke-width:1.5;" x1="8" x2="235" y1="333" y2="333"/><rect fill="none" height="6" style="stroke:#C82930;stroke-width:1.0;" width="6" x="15" y="341"/><text fill="#000000" font-family="sans-serif" font-size="11" lengthAdjust="spacing" textLength="92" x="27" y="348.4189">Company company</text><line style="stroke:#A80036;stroke-width:1.5;" x1="8" x2="235" y1="354.8359" y2="354.8359"/><ellipse cx="18" cy="365.8359" fill="#84BE84" rx="3" ry="3" style="stroke:#038048;stroke-width:1.0;"/><text fill="#000000" font-family="sans-serif" font-size="11" lengthAdjust="spacing" textLength="111" x="27" y="370.2549">GetWarningController()</text><ellipse cx="18" cy="379.6719" fill="#84BE84" rx="3" ry="3" style="stroke:#038048;stroke-width:1.0;"/><text fill="#000000" font-family="sans-serif" font-size="11" lengthAdjust="spacing" textLength="203" x="27" y="384.0908">GetWarningController(Company company)</text><ellipse cx="18" cy="393.5078" fill="#84BE84" rx="3" ry="3" style="stroke:#038048;stroke-width:1.0;"/><text fill="#000000" font-family="sans-serif" font-size="11" lengthAdjust="spacing" textLength="68" x="27" y="397.9268">getCompany()</text><!--MD5=[837d3612090b426002fd1342fcbe6b88]
class DataBase--><rect fill="#FEFECE" filter="url(#f4h7aye06pmlu)" height="48" id="DataBase" style="stroke:#A80036;stroke-width:1.5;" width="87" x="78" y="608"/><ellipse cx="93" cy="624" fill="#ADD1B2" rx="11" ry="11" style="stroke:#A80036;stroke-width:1.0;"/><path d="M95,620.5 Q95.2031,620 95.4375,619.75 Q95.6719,619.5 95.9375,619.5 Q96.4063,619.5 96.7031,619.7813 Q97,620.0625 97,620.7188 L97,622.2813 Q97,622.9375 96.7188,623.2188 Q96.4375,623.5 96,623.5 Q95.6094,623.5 95.3594,623.3281 Q95.1094,623.1563 95,622.7031 Q94.9531,622.3906 94.7813,622.2188 Q94.4688,621.8906 93.9063,621.7031 Q93.3438,621.5 92.7813,621.5 Q92.0781,621.5 91.4844,621.7813 Q90.9063,622.0625 90.4531,622.6875 Q90,623.3125 90,624.1719 L90,625.0938 Q90,626.125 90.8438,626.8125 Q91.6875,627.5 93.1875,627.5 Q94.0781,627.5 94.7031,627.2969 Q95.0625,627.1875 95.4688,626.8281 Q95.7344,626.625 95.875,626.5625 Q96.0156,626.5 96.1875,626.5 Q96.5156,626.5 96.75,626.7656 Q97,627.0156 97,627.375 Q97,627.7188 96.6563,628.125 Q96.1563,628.7188 95.3594,629.0469 Q94.3125,629.5 93.0313,629.5 Q91.5313,629.5 90.3281,628.9063 Q89.3594,628.4375 88.6719,627.4219 Q88,626.4063 88,625.2031 L88,624.1094 Q88,622.8594 88.5938,621.7656 Q89.2031,620.6719 90.25,620.0938 Q91.3125,619.5 92.5,619.5 Q93.2188,619.5 93.8438,619.75 Q94.4688,620 95,620.5 Z " fill="#000000"/><text fill="#000000" font-family="sans-serif" font-size="12" lengthAdjust="spacing" textLength="55" x="107" y="628.9102">DataBase</text><line style="stroke:#A80036;stroke-width:1.5;" x1="79" x2="164" y1="640" y2="640"/><line style="stroke:#A80036;stroke-width:1.5;" x1="79" x2="164" y1="648" y2="648"/><!--MD5=[78c50dadd533449801bdc782f065ecfa]
link PortManager to GetWarningUI--><path codeLine="32" d="M265.04,55.3 C252.83,74.97 234.94,103.79 219.64,128.44 " fill="none" id="PortManager-to-GetWarningUI" style="stroke:#A80036;stroke-width:1.0;"/><polygon fill="#A80036" points="216.81,133,224.9553,127.4634,219.4472,128.752,218.1585,123.2439,216.81,133" style="stroke:#A80036;stroke-width:1.0;"/><text fill="#000000" font-family="sans-serif" font-size="13" lengthAdjust="spacing" textLength="44" x="245.5" y="99.4951">Access</text><!--MD5=[3c435a75323f243c00387100f5f92695]
link GetWarningUI to GetWarningController--><path codeLine="33" d="M119.64,223.2 C110.69,231.95 102.81,241.91 97.5,253 C91.11,266.33 91.5,281.52 94.91,295.92 " fill="none" id="GetWarningUI-to-GetWarningController" style="stroke:#A80036;stroke-width:1.0;"/><polygon fill="#A80036" points="96.17,300.76,97.7464,291.0381,94.8968,295.9248,90.0101,293.0752,96.17,300.76" style="stroke:#A80036;stroke-width:1.0;"/><text fill="#000000" font-family="sans-serif" font-size="13" lengthAdjust="spacing" textLength="82" x="98.5" y="267.4951">Connects with</text><!--MD5=[178acb9ea96c2d9d770de103d0284b10]
reverse link GetWarningUI to GetWarningController--><path codeLine="36" d="M192.97,228.33 C192.48,242.47 190.48,257.66 185.5,271 C181.63,281.37 175.87,291.44 169.38,300.74 " fill="none" id="GetWarningUI-backto-GetWarningController" style="stroke:#A80036;stroke-width:1.0;"/><polygon fill="#A80036" points="193.09,223.17,188.8854,232.0762,192.9757,228.1687,196.8833,232.2591,193.09,223.17" style="stroke:#A80036;stroke-width:1.0;"/><text fill="#000000" font-family="sans-serif" font-size="13" lengthAdjust="spacing" textLength="69" x="190.5" y="267.4951">Returns Info</text><!--MD5=[f6e70140202ab1101eb6b424775e2f43]
link PortManager to User--><path codeLine="34" d="M294.12,55.3 C310.24,80.98 336.15,122.27 353.25,149.51 " fill="none" id="PortManager-to-User" style="stroke:#A80036;stroke-width:1.0;"/><polygon fill="#A80036" points="355.92,153.76,354.5184,144.0114,353.2597,149.5264,347.7447,148.2678,355.92,153.76" style="stroke:#A80036;stroke-width:1.0;"/><text fill="#000000" font-family="sans-serif" font-size="13" lengthAdjust="spacing" textLength="21" x="322.5" y="99.4951">is a</text><!--MD5=[1f12d177c84922ed4f166f09ee62ceaa]
link User to UserRole--><path codeLine="35" d="M370.5,202.26 C370.5,233.6 370.5,289.33 370.5,323.11 " fill="none" id="User-to-UserRole" style="stroke:#A80036;stroke-width:1.0;"/><polygon fill="#A80036" points="370.5,328.33,374.5,319.33,370.5,323.33,366.5,319.33,370.5,328.33" style="stroke:#A80036;stroke-width:1.0;"/><text fill="#000000" font-family="sans-serif" font-size="13" lengthAdjust="spacing" textLength="21" x="371.5" y="267.4951">has</text><!--MD5=[c985a21a7df7d4de7f9a2218c08bc7a6]
link GetWarningController to Company--><path codeLine="37" d="M72.48,404.03 C65.94,413.36 60.21,423.5 56.5,434 C50.44,451.14 61.27,466.53 75.72,478.57 " fill="none" id="GetWarningController-to-Company" style="stroke:#A80036;stroke-width:1.0;"/><polygon fill="#A80036" points="79.89,481.87,75.3376,473.1364,75.9773,478.757,70.3567,479.3967,79.89,481.87" style="stroke:#A80036;stroke-width:1.0;"/><text fill="#000000" font-family="sans-serif" font-size="13" lengthAdjust="spacing" textLength="82" x="57.5" y="448.4951">Connects with</text><!--MD5=[cff2574ac4821673b210db5d73e88e82]
link Company to GetWarningController--><path codeLine="38" d="M133.95,481.94 C138.19,472.88 142.38,462.21 144.5,452 C147.39,438.06 146.15,423.08 143.1,409.11 " fill="none" id="Company-to-GetWarningController" style="stroke:#A80036;stroke-width:1.0;"/><polygon fill="#A80036" points="141.9,404.01,140.0614,413.6857,143.042,408.8778,147.8499,411.8585,141.9,404.01" style="stroke:#A80036;stroke-width:1.0;"/><text fill="#000000" font-family="sans-serif" font-size="13" lengthAdjust="spacing" textLength="69" x="147.5" y="448.4951">Returns Info</text><!--MD5=[28fa5ca211853e28b35503d2b875b2be]
link Company to DataBase--><path codeLine="39" d="M121.5,530.03 C121.5,550.52 121.5,580.56 121.5,602.55 " fill="none" id="Company-to-DataBase" style="stroke:#A80036;stroke-width:1.0;"/><polygon fill="#A80036" points="121.5,607.67,125.5,598.67,121.5,602.67,117.5,598.67,121.5,607.67" style="stroke:#A80036;stroke-width:1.0;"/><text fill="#000000" font-family="sans-serif" font-size="13" lengthAdjust="spacing" textLength="55" x="122.5" y="574.4951">Connects</text><!--MD5=[609848b6622834c0c57d90c2d3dcc091]
@startuml
'https://plantuml.com/class-diagram

class PortManager{

}

class User{

}

class UserRole{

}

class Company{

}

class GetWarningUI{
    -GetWarningController getWarningController
    +GetWarningUI()
    +run()
}

class GetWarningController{
    -Company company
    +GetWarningController()
    +GetWarningController(Company company)
    +getCompany()
}

PortManager - -> GetWarningUI : Access
GetWarningUI -down-> GetWarningController : Connects with
PortManager - -> User : is a
User - -> UserRole : has
GetWarningController -up-> GetWarningUI : Returns Info
GetWarningController - -> Company : Connects with
Company - -> GetWarningController : Returns Info
Company - -> DataBase : Connects

@enduml

@startuml

class PortManager{

}

class User{

}

class UserRole{

}

class Company{

}

class GetWarningUI{
    -GetWarningController getWarningController
    +GetWarningUI()
    +run()
}

class GetWarningController{
    -Company company
    +GetWarningController()
    +GetWarningController(Company company)
    +getCompany()
}

PortManager - -> GetWarningUI : Access
GetWarningUI -down-> GetWarningController : Connects with
PortManager - -> User : is a
User - -> UserRole : has
GetWarningController -up-> GetWarningUI : Returns Info
GetWarningController - -> Company : Connects with
Company - -> GetWarningController : Returns Info
Company - -> DataBase : Connects

@enduml

PlantUML version 1.2021.11(Sat Oct 02 14:26:11 BST 2021)
(GPL source distribution)
Java Runtime: OpenJDK Runtime Environment
JVM: OpenJDK 64-Bit Server VM
Default Encoding: Cp1252
Language: pt
Country: PT
--></g></svg>