<?xml version="1.0" encoding="UTF-8" standalone="no"?><svg xmlns="http://www.w3.org/2000/svg" xmlns:xlink="http://www.w3.org/1999/xlink" contentScriptType="application/ecmascript" contentStyleType="text/css" height="544px" preserveAspectRatio="none" style="width:931px;height:544px;background:#FFFFFF;" version="1.1" viewBox="0 0 931 544" width="931px" zoomAndPan="magnify"><defs><filter height="300%" id="fi1xsbap8kou0" width="300%" x="-1" y="-1"><feGaussianBlur result="blurOut" stdDeviation="2.0"/><feColorMatrix in="blurOut" result="blurOut2" type="matrix" values="0 0 0 0 0 0 0 0 0 0 0 0 0 0 0 0 0 0 .4 0"/><feOffset dx="4.0" dy="4.0" in="blurOut2" result="blurOut3"/><feBlend in="SourceGraphic" in2="blurOut3" mode="normal"/></filter></defs><g><line style="stroke:#A80036;stroke-width:1.0;stroke-dasharray:5.0,5.0;" x1="49" x2="49" y1="89.6094" y2="458.7344"/><line style="stroke:#A80036;stroke-width:1.0;stroke-dasharray:5.0,5.0;" x1="276" x2="276" y1="89.6094" y2="458.7344"/><line style="stroke:#A80036;stroke-width:1.0;stroke-dasharray:5.0,5.0;" x1="612" x2="612" y1="89.6094" y2="458.7344"/><line style="stroke:#A80036;stroke-width:1.0;stroke-dasharray:5.0,5.0;" x1="753" x2="753" y1="89.6094" y2="458.7344"/><line style="stroke:#A80036;stroke-width:1.0;stroke-dasharray:5.0,5.0;" x1="896" x2="896" y1="330.875" y2="458.7344"/><text fill="#000000" font-family="sans-serif" font-size="14" lengthAdjust="spacing" textLength="82" x="5" y="86.5332">PortManager</text><ellipse cx="49" cy="15" fill="#FF0000" filter="url(#fi1xsbap8kou0)" rx="8" ry="8" style="stroke:#A80036;stroke-width:2.0;"/><path d="M49,23 L49,50 M36,31 L62,31 M49,50 L36,65 M49,50 L62,65 " fill="none" filter="url(#fi1xsbap8kou0)" style="stroke:#A80036;stroke-width:2.0;"/><text fill="#000000" font-family="sans-serif" font-size="14" lengthAdjust="spacing" textLength="82" x="5" y="472.2676">PortManager</text><ellipse cx="49" cy="485.3438" fill="#FF0000" filter="url(#fi1xsbap8kou0)" rx="8" ry="8" style="stroke:#A80036;stroke-width:2.0;"/><path d="M49,493.3438 L49,520.3438 M36,501.3438 L62,501.3438 M49,520.3438 L36,535.3438 M49,520.3438 L62,535.3438 " fill="none" filter="url(#fi1xsbap8kou0)" style="stroke:#A80036;stroke-width:2.0;"/><rect fill="#FEFECE" filter="url(#fi1xsbap8kou0)" height="31.6094" style="stroke:#A80036;stroke-width:1.5;" width="60" x="244" y="53"/><text fill="#000000" font-family="sans-serif" font-size="14" lengthAdjust="spacing" textLength="46" x="251" y="74.5332">System</text><rect fill="#FEFECE" filter="url(#fi1xsbap8kou0)" height="31.6094" style="stroke:#A80036;stroke-width:1.5;" width="60" x="244" y="457.7344"/><text fill="#000000" font-family="sans-serif" font-size="14" lengthAdjust="spacing" textLength="46" x="251" y="479.2676">System</text><rect fill="#FEFECE" filter="url(#fi1xsbap8kou0)" height="31.6094" style="stroke:#A80036;stroke-width:1.5;" width="102" x="559" y="53"/><text fill="#000000" font-family="sans-serif" font-size="14" lengthAdjust="spacing" textLength="88" x="566" y="74.5332">GetWarningUI</text><rect fill="#FEFECE" filter="url(#fi1xsbap8kou0)" height="31.6094" style="stroke:#A80036;stroke-width:1.5;" width="102" x="559" y="457.7344"/><text fill="#000000" font-family="sans-serif" font-size="14" lengthAdjust="spacing" textLength="88" x="566" y="479.2676">GetWarningUI</text><rect fill="#FEFECE" filter="url(#fi1xsbap8kou0)" height="31.6094" style="stroke:#A80036;stroke-width:1.5;" width="152" x="675" y="53"/><text fill="#000000" font-family="sans-serif" font-size="14" lengthAdjust="spacing" textLength="138" x="682" y="74.5332">GetWarningController</text><rect fill="#FEFECE" filter="url(#fi1xsbap8kou0)" height="31.6094" style="stroke:#A80036;stroke-width:1.5;" width="152" x="675" y="457.7344"/><text fill="#000000" font-family="sans-serif" font-size="14" lengthAdjust="spacing" textLength="138" x="682" y="479.2676">GetWarningController</text><text fill="#000000" font-family="sans-serif" font-size="14" lengthAdjust="spacing" textLength="62" x="862" y="472.2676">DataBase</text><path d="M878,485.3438 C878,475.3438 896,475.3438 896,475.3438 C896,475.3438 914,475.3438 914,485.3438 L914,511.3438 C914,521.3438 896,521.3438 896,521.3438 C896,521.3438 878,521.3438 878,511.3438 L878,485.3438 " fill="#FEFECE" filter="url(#fi1xsbap8kou0)" style="stroke:#000000;stroke-width:1.5;"/><path d="M878,485.3438 C878,495.3438 896,495.3438 896,495.3438 C896,495.3438 914,495.3438 914,485.3438 " fill="none" style="stroke:#000000;stroke-width:1.5;"/><polygon fill="#A80036" points="60,117.9609,50,121.9609,60,125.9609,56,121.9609" style="stroke:#A80036;stroke-width:1.0;"/><line style="stroke:#A80036;stroke-width:1.0;stroke-dasharray:2.0,2.0;" x1="54" x2="275" y1="121.9609" y2="121.9609"/><text fill="#000000" font-family="sans-serif" font-size="13" font-weight="bold" lengthAdjust="spacing" textLength="7" x="66" y="117.1045">1</text><text fill="#000000" font-family="sans-serif" font-size="13" lengthAdjust="spacing" textLength="135" x="77" y="117.1045">Authentication Request</text><polygon fill="#A80036" points="264,148.3125,274,152.3125,264,156.3125,268,152.3125" style="stroke:#A80036;stroke-width:1.0;"/><line style="stroke:#A80036;stroke-width:1.0;" x1="49" x2="270" y1="152.3125" y2="152.3125"/><text fill="#000000" font-family="sans-serif" font-size="13" font-weight="bold" lengthAdjust="spacing" textLength="7" x="56" y="147.4561">2</text><text fill="#000000" font-family="sans-serif" font-size="13" lengthAdjust="spacing" textLength="192" x="67" y="147.4561">Another authentication Response</text><polygon fill="#A80036" points="60,178.6641,50,182.6641,60,186.6641,56,182.6641" style="stroke:#A80036;stroke-width:1.0;"/><line style="stroke:#A80036;stroke-width:1.0;stroke-dasharray:2.0,2.0;" x1="54" x2="275" y1="182.6641" y2="182.6641"/><text fill="#000000" font-family="sans-serif" font-size="13" font-weight="bold" lengthAdjust="spacing" textLength="7" x="66" y="177.8076">3</text><text fill="#000000" font-family="sans-serif" font-size="13" lengthAdjust="spacing" textLength="149" x="77" y="177.8076">Authentication successful</text><polygon fill="#A80036" points="600,241.7188,610,245.7188,600,249.7188,604,245.7188" style="stroke:#A80036;stroke-width:1.0;"/><line style="stroke:#A80036;stroke-width:1.0;stroke-dasharray:2.0,2.0;" x1="49" x2="606" y1="245.7188" y2="245.7188"/><text fill="#000000" font-family="sans-serif" font-size="13" font-weight="bold" lengthAdjust="spacing" textLength="7" x="56" y="224.5107">4</text><text fill="#000000" font-family="sans-serif" font-size="13" lengthAdjust="spacing" textLength="337" x="67" y="208.1592">I intend to get a warning whenever I issue a cargo manifest</text><text fill="#000000" font-family="sans-serif" font-size="13" lengthAdjust="spacing" textLength="520" x="71" y="224.5107">destined for a warehouse whose available capacity is insufficient to accommodate the new</text><text fill="#000000" font-family="sans-serif" font-size="13" lengthAdjust="spacing" textLength="53" x="71" y="240.8623">manifest.</text><polygon fill="#A80036" points="741,272.0703,751,276.0703,741,280.0703,745,276.0703" style="stroke:#A80036;stroke-width:1.0;"/><line style="stroke:#A80036;stroke-width:1.0;stroke-dasharray:2.0,2.0;" x1="612" x2="747" y1="276.0703" y2="276.0703"/><text fill="#000000" font-family="sans-serif" font-size="13" font-weight="bold" lengthAdjust="spacing" textLength="7" x="619" y="271.2139">5</text><text fill="#000000" font-family="sans-serif" font-size="13" lengthAdjust="spacing" textLength="74" x="630" y="271.2139">getWarning()</text><polygon fill="#A80036" points="850,302.4219,860,306.4219,850,310.4219,854,306.4219" style="stroke:#A80036;stroke-width:1.0;"/><line style="stroke:#A80036;stroke-width:1.0;stroke-dasharray:2.0,2.0;" x1="753" x2="856" y1="306.4219" y2="306.4219"/><text fill="#000000" font-family="sans-serif" font-size="13" font-weight="bold" lengthAdjust="spacing" textLength="7" x="760" y="301.5654">6</text><text fill="#000000" font-family="sans-serif" font-size="13" lengthAdjust="spacing" textLength="74" x="771" y="301.5654">getWarning()</text><text fill="#000000" font-family="sans-serif" font-size="14" lengthAdjust="spacing" textLength="62" x="862" y="344.6035">DataBase</text><path d="M878,294.0703 C878,284.0703 896,284.0703 896,284.0703 C896,284.0703 914,284.0703 914,294.0703 L914,320.0703 C914,330.0703 896,330.0703 896,330.0703 C896,330.0703 878,330.0703 878,320.0703 L878,294.0703 " fill="#FEFECE" filter="url(#fi1xsbap8kou0)" style="stroke:#000000;stroke-width:1.5;"/><path d="M878,294.0703 C878,304.0703 896,304.0703 896,304.0703 C896,304.0703 914,304.0703 914,294.0703 " fill="none" style="stroke:#000000;stroke-width:1.5;"/><polygon fill="#A80036" points="764,376.0313,754,380.0313,764,384.0313,760,380.0313" style="stroke:#A80036;stroke-width:1.0;"/><line style="stroke:#A80036;stroke-width:1.0;stroke-dasharray:2.0,2.0;" x1="758" x2="895" y1="380.0313" y2="380.0313"/><text fill="#000000" font-family="sans-serif" font-size="13" font-weight="bold" lengthAdjust="spacing" textLength="7" x="770" y="375.1748">7</text><text fill="#000000" font-family="sans-serif" font-size="13" lengthAdjust="spacing" textLength="44" x="781" y="375.1748">warning</text><polygon fill="#A80036" points="623,406.3828,613,410.3828,623,414.3828,619,410.3828" style="stroke:#A80036;stroke-width:1.0;"/><line style="stroke:#A80036;stroke-width:1.0;stroke-dasharray:2.0,2.0;" x1="617" x2="752" y1="410.3828" y2="410.3828"/><text fill="#000000" font-family="sans-serif" font-size="13" font-weight="bold" lengthAdjust="spacing" textLength="7" x="629" y="405.5264">8</text><text fill="#000000" font-family="sans-serif" font-size="13" lengthAdjust="spacing" textLength="44" x="640" y="405.5264">warning</text><polygon fill="#A80036" points="60,436.7344,50,440.7344,60,444.7344,56,440.7344" style="stroke:#A80036;stroke-width:1.0;"/><line style="stroke:#A80036;stroke-width:1.0;stroke-dasharray:2.0,2.0;" x1="54" x2="611" y1="440.7344" y2="440.7344"/><text fill="#000000" font-family="sans-serif" font-size="13" font-weight="bold" lengthAdjust="spacing" textLength="7" x="66" y="435.8779">9</text><text fill="#000000" font-family="sans-serif" font-size="13" lengthAdjust="spacing" textLength="98" x="77" y="435.8779">Displays warning</text><!--MD5=[32662582a4be0b811ff18f57098e9b2e]
@startuml
'https://plantuml.com/sequence-diagram

autonumber

actor PortManager #red

System - -> PortManager: Authentication Request
PortManager -> System : Another authentication Response
System - -> PortManager : Authentication successful
PortManager - -> GetWarningUI : I intend to get a warning whenever I issue a cargo manifest \n destined for a warehouse whose available capacity is insufficient to accommodate the new \n manifest.
GetWarningUI - -> GetWarningController : getWarning()
database       "DataBase"              as db
GetWarningController - -> db** :  getWarning()
db - -> GetWarningController : warning
GetWarningController - -> GetWarningUI : warning
GetWarningUI - -> PortManager : Displays warning
@enduml

@startuml

autonumber

actor PortManager #red

System - -> PortManager: Authentication Request
PortManager -> System : Another authentication Response
System - -> PortManager : Authentication successful
PortManager - -> GetWarningUI : I intend to get a warning whenever I issue a cargo manifest \n destined for a warehouse whose available capacity is insufficient to accommodate the new \n manifest.
GetWarningUI - -> GetWarningController : getWarning()
database       "DataBase"              as db
GetWarningController - -> db** :  getWarning()
db - -> GetWarningController : warning
GetWarningController - -> GetWarningUI : warning
GetWarningUI - -> PortManager : Displays warning
@enduml

PlantUML version 1.2021.11(Sat Oct 02 14:26:11 BST 2021)
(GPL source distribution)
Java Runtime: OpenJDK Runtime Environment
JVM: OpenJDK 64-Bit Server VM
Default Encoding: Cp1252
Language: pt
Country: PT
--></g></svg>