<?xml version="1.0" encoding="UTF-8" standalone="no"?><svg xmlns="http://www.w3.org/2000/svg" xmlns:xlink="http://www.w3.org/1999/xlink" contentScriptType="application/ecmascript" contentStyleType="text/css" height="318px" preserveAspectRatio="none" style="width:137px;height:318px;" version="1.1" viewBox="0 0 137 318" width="137px" zoomAndPan="magnify"><defs><filter height="300%" id="f1w035fyy4fxoo" width="300%" x="-1" y="-1"><feGaussianBlur result="blurOut" stdDeviation="2.0"/><feColorMatrix in="blurOut" result="blurOut2" type="matrix" values="0 0 0 0 0 0 0 0 0 0 0 0 0 0 0 0 0 0 .4 0"/><feOffset dx="4.0" dy="4.0" in="blurOut2" result="blurOut3"/><feBlend in="SourceGraphic" in2="blurOut3" mode="normal"/></filter></defs><g><!--MD5=[fa1e3283224feb76407c84b7e90ed808]
entity Database--><path d="M8.5,144 C8.5,134 49,134 49,134 C49,134 89.5,134 89.5,144 L89.5,170.6094 C89.5,180.6094 49,180.6094 49,180.6094 C49,180.6094 8.5,180.6094 8.5,170.6094 L8.5,144 " fill="#FFFFFF" filter="url(#f1w035fyy4fxoo)" style="stroke: #000000; stroke-width: 1.5;"/><path d="M8.5,144 C8.5,154 49,154 49,154 C49,154 89.5,154 89.5,144 " fill="none" style="stroke: #000000; stroke-width: 1.5;"/><text fill="#000000" font-family="sans-serif" font-size="14" lengthAdjust="spacingAndGlyphs" textLength="61" x="18.5" y="172.5332">Database</text><!--MD5=[ed6624c6556d5e7b1bd23032162d20b7]
class Client--><rect fill="#FEFECE" filter="url(#f1w035fyy4fxoo)" height="48" id="Client" style="stroke: #A80036; stroke-width: 1.5;" width="64" x="17" y="8"/><ellipse cx="32" cy="24" fill="#ADD1B2" rx="11" ry="11" style="stroke: #A80036; stroke-width: 1.0;"/><path d="M34,20.5 Q34.2031,20 34.4375,19.75 Q34.6719,19.5 34.9375,19.5 Q35.4063,19.5 35.7031,19.7813 Q36,20.0625 36,20.7188 L36,22.2813 Q36,22.9375 35.7188,23.2188 Q35.4375,23.5 35,23.5 Q34.6094,23.5 34.3594,23.3281 Q34.1094,23.1563 34,22.7031 Q33.9531,22.3906 33.7813,22.2188 Q33.4688,21.8906 32.9063,21.7031 Q32.3438,21.5 31.7813,21.5 Q31.0781,21.5 30.4844,21.7813 Q29.9063,22.0625 29.4531,22.6875 Q29,23.3125 29,24.1719 L29,25.0938 Q29,26.125 29.8438,26.8125 Q30.6875,27.5 32.1875,27.5 Q33.0781,27.5 33.7031,27.2969 Q34.0625,27.1875 34.4688,26.8281 Q34.7344,26.625 34.875,26.5625 Q35.0156,26.5 35.1875,26.5 Q35.5156,26.5 35.75,26.7656 Q36,27.0156 36,27.375 Q36,27.7188 35.6563,28.125 Q35.1563,28.7188 34.3594,29.0469 Q33.3125,29.5 32.0313,29.5 Q30.5313,29.5 29.3281,28.9063 Q28.3594,28.4375 27.6719,27.4219 Q27,26.4063 27,25.2031 L27,24.1094 Q27,22.8594 27.5938,21.7656 Q28.2031,20.6719 29.25,20.0938 Q30.3125,19.5 31.5,19.5 Q32.2188,19.5 32.8438,19.75 Q33.4688,20 34,20.5 Z "/><text fill="#000000" font-family="sans-serif" font-size="12" lengthAdjust="spacingAndGlyphs" textLength="32" x="46" y="28.9102">Client</text><line style="stroke: #A80036; stroke-width: 1.5;" x1="18" x2="80" y1="40" y2="40"/><line style="stroke: #A80036; stroke-width: 1.5;" x1="18" x2="80" y1="48" y2="48"/><!--MD5=[e9a58730c562b34349daa605d1ed6662]
class Container--><rect fill="#FEFECE" filter="url(#f1w035fyy4fxoo)" height="48" id="Container" style="stroke: #A80036; stroke-width: 1.5;" width="86" x="6" y="259"/><ellipse cx="21" cy="275" fill="#ADD1B2" rx="11" ry="11" style="stroke: #A80036; stroke-width: 1.0;"/><path d="M23,271.5 Q23.2031,271 23.4375,270.75 Q23.6719,270.5 23.9375,270.5 Q24.4063,270.5 24.7031,270.7813 Q25,271.0625 25,271.7188 L25,273.2813 Q25,273.9375 24.7188,274.2188 Q24.4375,274.5 24,274.5 Q23.6094,274.5 23.3594,274.3281 Q23.1094,274.1563 23,273.7031 Q22.9531,273.3906 22.7813,273.2188 Q22.4688,272.8906 21.9063,272.7031 Q21.3438,272.5 20.7813,272.5 Q20.0781,272.5 19.4844,272.7813 Q18.9063,273.0625 18.4531,273.6875 Q18,274.3125 18,275.1719 L18,276.0938 Q18,277.125 18.8438,277.8125 Q19.6875,278.5 21.1875,278.5 Q22.0781,278.5 22.7031,278.2969 Q23.0625,278.1875 23.4688,277.8281 Q23.7344,277.625 23.875,277.5625 Q24.0156,277.5 24.1875,277.5 Q24.5156,277.5 24.75,277.7656 Q25,278.0156 25,278.375 Q25,278.7188 24.6563,279.125 Q24.1563,279.7188 23.3594,280.0469 Q22.3125,280.5 21.0313,280.5 Q19.5313,280.5 18.3281,279.9063 Q17.3594,279.4375 16.6719,278.4219 Q16,277.4063 16,276.2031 L16,275.1094 Q16,273.8594 16.5938,272.7656 Q17.2031,271.6719 18.25,271.0938 Q19.3125,270.5 20.5,270.5 Q21.2188,270.5 21.8438,270.75 Q22.4688,271 23,271.5 Z "/><text fill="#000000" font-family="sans-serif" font-size="12" lengthAdjust="spacingAndGlyphs" textLength="54" x="35" y="279.9102">Container</text><line style="stroke: #A80036; stroke-width: 1.5;" x1="7" x2="91" y1="291" y2="291"/><line style="stroke: #A80036; stroke-width: 1.5;" x1="7" x2="91" y1="299" y2="299"/><!--MD5=[66589612968b6a958773a21cd0d82eeb]
link Client to Database--><path d="M49,56.229 C49,76.8 49,106.866 49,128.707 " fill="none" id="Client-&gt;Database" style="stroke: #A80036; stroke-width: 1.0;"/><polygon fill="#A80036" points="49,133.792,53,124.792,49,128.792,45,124.792,49,133.792" style="stroke: #A80036; stroke-width: 1.0;"/><text fill="#000000" font-family="sans-serif" font-size="13" lengthAdjust="spacingAndGlyphs" textLength="27" x="50" y="100.4951">login</text><!--MD5=[bb87a733690b9ebf81271097227ba745]
link Database to Container--><path d="M49,181.152 C49,201.523 49,231.5397 49,253.5282 " fill="none" id="Database-&gt;Container" style="stroke: #A80036; stroke-width: 1.0;"/><polygon fill="#A80036" points="49,258.6527,53,249.6527,49,253.6527,45,249.6527,49,258.6527" style="stroke: #A80036; stroke-width: 1.0;"/><text fill="#000000" font-family="sans-serif" font-size="13" lengthAdjust="spacingAndGlyphs" textLength="75" x="50" y="225.4951">get situtation</text><!--MD5=[310be5b091c4c52817d6c866c4a0795d]
@startuml

database Database{

}

Client - -> Database : login
Database - -> Container : get situtation


@enduml

PlantUML version 1.2020.07(Sun Apr 19 12:42:40 BST 2020)
(GPL source distribution)
Java Runtime: OpenJDK Runtime Environment
JVM: OpenJDK 64-Bit Server VM
Java Version: 11.0.6+8-b765.40
Operating System: Windows 10
Default Encoding: Cp1252
Language: pt
Country: PT
--></g></svg>