<?xml version="1.0" encoding="UTF-8" standalone="no"?><svg xmlns="http://www.w3.org/2000/svg" xmlns:xlink="http://www.w3.org/1999/xlink" contentScriptType="application/ecmascript" contentStyleType="text/css" height="330px" preserveAspectRatio="none" style="width:848px;height:330px;" version="1.1" viewBox="0 0 848 330" width="848px" zoomAndPan="magnify"><defs><filter height="300%" id="f1w4ac0t9jn8t6" width="300%" x="-1" y="-1"><feGaussianBlur result="blurOut" stdDeviation="2.0"/><feColorMatrix in="blurOut" result="blurOut2" type="matrix" values="0 0 0 0 0 0 0 0 0 0 0 0 0 0 0 0 0 0 .4 0"/><feOffset dx="4.0" dy="4.0" in="blurOut2" result="blurOut3"/><feBlend in="SourceGraphic" in2="blurOut3" mode="normal"/></filter></defs><g><rect fill="#FFFFFF" filter="url(#f1w4ac0t9jn8t6)" height="97.0547" style="stroke: #A80036; stroke-width: 1.0;" width="10" x="234" y="119.9609"/><rect fill="#FFFFFF" filter="url(#f1w4ac0t9jn8t6)" height="66.7031" style="stroke: #A80036; stroke-width: 1.0;" width="10" x="484" y="150.3125"/><rect fill="#FFFFFF" filter="url(#f1w4ac0t9jn8t6)" height="36.3516" style="stroke: #A80036; stroke-width: 1.0;" width="10" x="707" y="180.6641"/><line style="stroke: #A80036; stroke-width: 1.0; stroke-dasharray: 5.0,5.0;" x1="29" x2="29" y1="87.6094" y2="242.0156"/><line style="stroke: #A80036; stroke-width: 1.0; stroke-dasharray: 5.0,5.0;" x1="238.5" x2="238.5" y1="87.6094" y2="242.0156"/><line style="stroke: #A80036; stroke-width: 1.0; stroke-dasharray: 5.0,5.0;" x1="488.5" x2="488.5" y1="87.6094" y2="242.0156"/><line style="stroke: #A80036; stroke-width: 1.0; stroke-dasharray: 5.0,5.0;" x1="712" x2="712" y1="87.6094" y2="242.0156"/><text fill="#000000" font-family="sans-serif" font-size="14" lengthAdjust="spacingAndGlyphs" textLength="36" x="8" y="84.5332">Client</text><ellipse cx="29" cy="13" fill="#FEFECE" filter="url(#f1w4ac0t9jn8t6)" rx="8" ry="8" style="stroke: #A80036; stroke-width: 2.0;"/><path d="M29,21 L29,48 M16,29 L42,29 M29,48 L16,63 M29,48 L42,63 " fill="none" filter="url(#f1w4ac0t9jn8t6)" style="stroke: #A80036; stroke-width: 2.0;"/><text fill="#000000" font-family="sans-serif" font-size="14" lengthAdjust="spacingAndGlyphs" textLength="36" x="8" y="255.5488">Client</text><ellipse cx="29" cy="268.625" fill="#FEFECE" filter="url(#f1w4ac0t9jn8t6)" rx="8" ry="8" style="stroke: #A80036; stroke-width: 2.0;"/><path d="M29,276.625 L29,303.625 M16,284.625 L42,284.625 M29,303.625 L16,318.625 M29,303.625 L42,318.625 " fill="none" filter="url(#f1w4ac0t9jn8t6)" style="stroke: #A80036; stroke-width: 2.0;"/><rect fill="#FEFECE" filter="url(#f1w4ac0t9jn8t6)" height="31.6094" style="stroke: #A80036; stroke-width: 1.5;" width="211" x="131.5" y="51"/><text fill="#000000" font-family="sans-serif" font-size="14" lengthAdjust="spacingAndGlyphs" textLength="197" x="138.5" y="72.5332">:SituationOfSpecificContainerUI</text><rect fill="#FEFECE" filter="url(#f1w4ac0t9jn8t6)" height="31.6094" style="stroke: #A80036; stroke-width: 1.5;" width="211" x="131.5" y="241.0156"/><text fill="#000000" font-family="sans-serif" font-size="14" lengthAdjust="spacingAndGlyphs" textLength="197" x="138.5" y="262.5488">:SituationOfSpecificContainerUI</text><rect fill="#FEFECE" filter="url(#f1w4ac0t9jn8t6)" height="31.6094" style="stroke: #A80036; stroke-width: 1.5;" width="261" x="356.5" y="51"/><text fill="#000000" font-family="sans-serif" font-size="14" lengthAdjust="spacingAndGlyphs" textLength="247" x="363.5" y="72.5332">:SituationOfSpecificContainerController</text><rect fill="#FEFECE" filter="url(#f1w4ac0t9jn8t6)" height="31.6094" style="stroke: #A80036; stroke-width: 1.5;" width="261" x="356.5" y="241.0156"/><text fill="#000000" font-family="sans-serif" font-size="14" lengthAdjust="spacingAndGlyphs" textLength="247" x="363.5" y="262.5488">:SituationOfSpecificContainerController</text><text fill="#000000" font-family="sans-serif" font-size="14" lengthAdjust="spacingAndGlyphs" textLength="62" x="678" y="84.5332">DataBase</text><path d="M694,34 C694,24 712,24 712,24 C712,24 730,24 730,34 L730,60 C730,70 712,70 712,70 C712,70 694,70 694,60 L694,34 " fill="#FEFECE" filter="url(#f1w4ac0t9jn8t6)" style="stroke: #000000; stroke-width: 1.5;"/><path d="M694,34 C694,44 712,44 712,44 C712,44 730,44 730,34 " fill="none" style="stroke: #000000; stroke-width: 1.5;"/><text fill="#000000" font-family="sans-serif" font-size="14" lengthAdjust="spacingAndGlyphs" textLength="62" x="678" y="255.5488">DataBase</text><path d="M694,268.625 C694,258.625 712,258.625 712,258.625 C712,258.625 730,258.625 730,268.625 L730,294.625 C730,304.625 712,304.625 712,304.625 C712,304.625 694,304.625 694,294.625 L694,268.625 " fill="#FEFECE" filter="url(#f1w4ac0t9jn8t6)" style="stroke: #000000; stroke-width: 1.5;"/><path d="M694,268.625 C694,278.625 712,278.625 712,278.625 C712,278.625 730,278.625 730,268.625 " fill="none" style="stroke: #000000; stroke-width: 1.5;"/><rect fill="#FFFFFF" filter="url(#f1w4ac0t9jn8t6)" height="97.0547" style="stroke: #A80036; stroke-width: 1.0;" width="10" x="234" y="119.9609"/><rect fill="#FFFFFF" filter="url(#f1w4ac0t9jn8t6)" height="66.7031" style="stroke: #A80036; stroke-width: 1.0;" width="10" x="484" y="150.3125"/><rect fill="#FFFFFF" filter="url(#f1w4ac0t9jn8t6)" height="36.3516" style="stroke: #A80036; stroke-width: 1.0;" width="10" x="707" y="180.6641"/><polygon fill="#A80036" points="222,115.9609,232,119.9609,222,123.9609,226,119.9609" style="stroke: #A80036; stroke-width: 1.0;"/><line style="stroke: #A80036; stroke-width: 1.0;" x1="29" x2="228" y1="119.9609" y2="119.9609"/><text fill="#000000" font-family="sans-serif" font-size="13" font-weight="bold" lengthAdjust="spacingAndGlyphs" textLength="7" x="36" y="115.1045">1</text><text fill="#000000" font-family="sans-serif" font-size="13" lengthAdjust="spacingAndGlyphs" textLength="175" x="47" y="115.1045">Get info of a specific container</text><polygon fill="#A80036" points="472,146.3125,482,150.3125,472,154.3125,476,150.3125" style="stroke: #A80036; stroke-width: 1.0;"/><line style="stroke: #A80036; stroke-width: 1.0;" x1="244" x2="478" y1="150.3125" y2="150.3125"/><text fill="#000000" font-family="sans-serif" font-size="13" font-weight="bold" lengthAdjust="spacingAndGlyphs" textLength="7" x="251" y="145.4561">2</text><text fill="#000000" font-family="sans-serif" font-size="13" lengthAdjust="spacingAndGlyphs" textLength="183" x="262" y="145.4561">situationOfSpecificContainer(...)</text><polygon fill="#A80036" points="695,176.6641,705,180.6641,695,184.6641,699,180.6641" style="stroke: #A80036; stroke-width: 1.0;"/><line style="stroke: #A80036; stroke-width: 1.0;" x1="494" x2="701" y1="180.6641" y2="180.6641"/><text fill="#000000" font-family="sans-serif" font-size="13" font-weight="bold" lengthAdjust="spacingAndGlyphs" textLength="7" x="501" y="175.8076">3</text><text fill="#000000" font-family="sans-serif" font-size="13" lengthAdjust="spacingAndGlyphs" textLength="183" x="512" y="175.8076">situationOfSpecificContainer(...)</text><line style="stroke: #A80036; stroke-width: 1.0;" x1="717" x2="759" y1="216.0156" y2="216.0156"/><line style="stroke: #A80036; stroke-width: 1.0;" x1="759" x2="759" y1="216.0156" y2="229.0156"/><line style="stroke: #A80036; stroke-width: 1.0;" x1="712" x2="759" y1="229.0156" y2="229.0156"/><polygon fill="#A80036" points="722,225.0156,712,229.0156,722,233.0156,718,229.0156" style="stroke: #A80036; stroke-width: 1.0;"/><text fill="#000000" font-family="sans-serif" font-size="13" font-weight="bold" lengthAdjust="spacingAndGlyphs" textLength="7" x="724" y="211.1592">4</text><text fill="#000000" font-family="sans-serif" font-size="13" lengthAdjust="spacingAndGlyphs" textLength="101" x="735" y="211.1592">getContainerInfo()</text><!--MD5=[f587bde9a96704b75c629f821b5a49a7]
@startuml

autonumber

actor       Client             as Sc
participant    ":SituationOfSpecificContainerUI"         as UI
participant    ":SituationOfSpecificContainerController" as CTRL
database DataBase as db

Sc -> UI : Get info of a specific container
activate UI

UI -> CTRL : situationOfSpecificContainer(...)

activate CTRL

CTRL -> db : situationOfSpecificContainer(...)

activate db


db -> db : getContainerInfo()

deactivate db

deactivate CTRL

deactivate UI
@enduml

PlantUML version 1.2020.07(Sun Apr 19 12:42:40 BST 2020)
(GPL source distribution)
Java Runtime: OpenJDK Runtime Environment
JVM: OpenJDK 64-Bit Server VM
Java Version: 11.0.6+8-b765.40
Operating System: Windows 10
Default Encoding: Cp1252
Language: pt
Country: PT
--></g></svg>