<?xml version="1.0" encoding="UTF-8" standalone="no"?><svg xmlns="http://www.w3.org/2000/svg" xmlns:xlink="http://www.w3.org/1999/xlink" contentScriptType="application/ecmascript" contentStyleType="text/css" height="193px" preserveAspectRatio="none" style="width:286px;height:193px;" version="1.1" viewBox="0 0 286 193" width="286px" zoomAndPan="magnify"><defs><filter height="300%" id="f5oteyrvqtea1" width="300%" x="-1" y="-1"><feGaussianBlur result="blurOut" stdDeviation="2.0"/><feColorMatrix in="blurOut" result="blurOut2" type="matrix" values="0 0 0 0 0 0 0 0 0 0 0 0 0 0 0 0 0 0 .4 0"/><feOffset dx="4.0" dy="4.0" in="blurOut2" result="blurOut3"/><feBlend in="SourceGraphic" in2="blurOut3" mode="normal"/></filter></defs><g><!--MD5=[a0e14dc1c5f22798a4d68a7546a0e1d4]
class PortStaff--><rect fill="#FEFECE" filter="url(#f5oteyrvqtea1)" height="48" id="PortStaff" style="stroke: #A80036; stroke-width: 1.5;" width="78" x="17.5" y="8"/><ellipse cx="32.5" cy="24" fill="#ADD1B2" rx="11" ry="11" style="stroke: #A80036; stroke-width: 1.0;"/><path d="M34.5,20.5 Q34.7031,20 34.9375,19.75 Q35.1719,19.5 35.4375,19.5 Q35.9063,19.5 36.2031,19.7813 Q36.5,20.0625 36.5,20.7188 L36.5,22.2813 Q36.5,22.9375 36.2188,23.2188 Q35.9375,23.5 35.5,23.5 Q35.1094,23.5 34.8594,23.3281 Q34.6094,23.1563 34.5,22.7031 Q34.4531,22.3906 34.2813,22.2188 Q33.9688,21.8906 33.4063,21.7031 Q32.8438,21.5 32.2813,21.5 Q31.5781,21.5 30.9844,21.7813 Q30.4063,22.0625 29.9531,22.6875 Q29.5,23.3125 29.5,24.1719 L29.5,25.0938 Q29.5,26.125 30.3438,26.8125 Q31.1875,27.5 32.6875,27.5 Q33.5781,27.5 34.2031,27.2969 Q34.5625,27.1875 34.9688,26.8281 Q35.2344,26.625 35.375,26.5625 Q35.5156,26.5 35.6875,26.5 Q36.0156,26.5 36.25,26.7656 Q36.5,27.0156 36.5,27.375 Q36.5,27.7188 36.1563,28.125 Q35.6563,28.7188 34.8594,29.0469 Q33.8125,29.5 32.5313,29.5 Q31.0313,29.5 29.8281,28.9063 Q28.8594,28.4375 28.1719,27.4219 Q27.5,26.4063 27.5,25.2031 L27.5,24.1094 Q27.5,22.8594 28.0938,21.7656 Q28.7031,20.6719 29.75,20.0938 Q30.8125,19.5 32,19.5 Q32.7188,19.5 33.3438,19.75 Q33.9688,20 34.5,20.5 Z "/><text fill="#000000" font-family="sans-serif" font-size="12" lengthAdjust="spacingAndGlyphs" textLength="46" x="46.5" y="28.9102">PortStaff</text><line style="stroke: #A80036; stroke-width: 1.5;" x1="18.5" x2="94.5" y1="40" y2="40"/><line style="stroke: #A80036; stroke-width: 1.5;" x1="18.5" x2="94.5" y1="48" y2="48"/><!--MD5=[3a3389f545d269bca690f876a78b05af]
class TransportVehicle--><rect fill="#FEFECE" filter="url(#f5oteyrvqtea1)" height="48" id="TransportVehicle" style="stroke: #A80036; stroke-width: 1.5;" width="125" x="131" y="8"/><ellipse cx="146" cy="24" fill="#ADD1B2" rx="11" ry="11" style="stroke: #A80036; stroke-width: 1.0;"/><path d="M148,20.5 Q148.2031,20 148.4375,19.75 Q148.6719,19.5 148.9375,19.5 Q149.4063,19.5 149.7031,19.7813 Q150,20.0625 150,20.7188 L150,22.2813 Q150,22.9375 149.7188,23.2188 Q149.4375,23.5 149,23.5 Q148.6094,23.5 148.3594,23.3281 Q148.1094,23.1563 148,22.7031 Q147.9531,22.3906 147.7813,22.2188 Q147.4688,21.8906 146.9063,21.7031 Q146.3438,21.5 145.7813,21.5 Q145.0781,21.5 144.4844,21.7813 Q143.9063,22.0625 143.4531,22.6875 Q143,23.3125 143,24.1719 L143,25.0938 Q143,26.125 143.8438,26.8125 Q144.6875,27.5 146.1875,27.5 Q147.0781,27.5 147.7031,27.2969 Q148.0625,27.1875 148.4688,26.8281 Q148.7344,26.625 148.875,26.5625 Q149.0156,26.5 149.1875,26.5 Q149.5156,26.5 149.75,26.7656 Q150,27.0156 150,27.375 Q150,27.7188 149.6563,28.125 Q149.1563,28.7188 148.3594,29.0469 Q147.3125,29.5 146.0313,29.5 Q144.5313,29.5 143.3281,28.9063 Q142.3594,28.4375 141.6719,27.4219 Q141,26.4063 141,25.2031 L141,24.1094 Q141,22.8594 141.5938,21.7656 Q142.2031,20.6719 143.25,20.0938 Q144.3125,19.5 145.5,19.5 Q146.2188,19.5 146.8438,19.75 Q147.4688,20 148,20.5 Z "/><text fill="#000000" font-family="sans-serif" font-size="12" lengthAdjust="spacingAndGlyphs" textLength="93" x="160" y="28.9102">TransportVehicle</text><line style="stroke: #A80036; stroke-width: 1.5;" x1="132" x2="255" y1="40" y2="40"/><line style="stroke: #A80036; stroke-width: 1.5;" x1="132" x2="255" y1="48" y2="48"/><!--MD5=[070a92e7bdbd38b89b60547758ff16ef]
class TreeOfShips--><rect fill="#FEFECE" filter="url(#f5oteyrvqtea1)" height="48" id="TreeOfShips" style="stroke: #A80036; stroke-width: 1.5;" width="101" x="6" y="134"/><ellipse cx="21" cy="150" fill="#ADD1B2" rx="11" ry="11" style="stroke: #A80036; stroke-width: 1.0;"/><path d="M23,146.5 Q23.2031,146 23.4375,145.75 Q23.6719,145.5 23.9375,145.5 Q24.4063,145.5 24.7031,145.7813 Q25,146.0625 25,146.7188 L25,148.2813 Q25,148.9375 24.7188,149.2188 Q24.4375,149.5 24,149.5 Q23.6094,149.5 23.3594,149.3281 Q23.1094,149.1563 23,148.7031 Q22.9531,148.3906 22.7813,148.2188 Q22.4688,147.8906 21.9063,147.7031 Q21.3438,147.5 20.7813,147.5 Q20.0781,147.5 19.4844,147.7813 Q18.9063,148.0625 18.4531,148.6875 Q18,149.3125 18,150.1719 L18,151.0938 Q18,152.125 18.8438,152.8125 Q19.6875,153.5 21.1875,153.5 Q22.0781,153.5 22.7031,153.2969 Q23.0625,153.1875 23.4688,152.8281 Q23.7344,152.625 23.875,152.5625 Q24.0156,152.5 24.1875,152.5 Q24.5156,152.5 24.75,152.7656 Q25,153.0156 25,153.375 Q25,153.7188 24.6563,154.125 Q24.1563,154.7188 23.3594,155.0469 Q22.3125,155.5 21.0313,155.5 Q19.5313,155.5 18.3281,154.9063 Q17.3594,154.4375 16.6719,153.4219 Q16,152.4063 16,151.2031 L16,150.1094 Q16,148.8594 16.5938,147.7656 Q17.2031,146.6719 18.25,146.0938 Q19.3125,145.5 20.5,145.5 Q21.2188,145.5 21.8438,145.75 Q22.4688,146 23,146.5 Z "/><text fill="#000000" font-family="sans-serif" font-size="12" lengthAdjust="spacingAndGlyphs" textLength="69" x="35" y="154.9102">TreeOfShips</text><line style="stroke: #A80036; stroke-width: 1.5;" x1="7" x2="106" y1="166" y2="166"/><line style="stroke: #A80036; stroke-width: 1.5;" x1="7" x2="106" y1="174" y2="174"/><!--MD5=[e0868fb3767a36907298ea5aa00b0fe4]
link PortStaff to TreeOfShips--><path d="M56.5,56.033 C56.5,76.522 56.5,106.5607 56.5,128.5464 " fill="none" id="PortStaff-&gt;TreeOfShips" style="stroke: #A80036; stroke-width: 1.0;"/><polygon fill="#A80036" points="56.5,133.6697,60.5,124.6697,56.5,128.6697,52.5,124.6697,56.5,133.6697" style="stroke: #A80036; stroke-width: 1.0;"/><text fill="#000000" font-family="sans-serif" font-size="13" lengthAdjust="spacingAndGlyphs" textLength="217" x="57.5" y="100.4951">Get the number of free/occupied slots</text><!--MD5=[d16f87f9caa971994cee9aad89381ca6]
@startuml

class PortStaff{

}

class TransportVehicle{

}

PortStaff - -> TreeOfShips : Get the number of free/occupied slots

@enduml

PlantUML version 1.2020.07(Sun Apr 19 12:42:40 BST 2020)
(GPL source distribution)
Java Runtime: OpenJDK Runtime Environment
JVM: OpenJDK 64-Bit Server VM
Java Version: 11.0.6+8-b765.40
Operating System: Windows 10
Default Encoding: Cp1252
Language: pt
Country: PT
--></g></svg>