<?xml version="1.0" encoding="UTF-8" standalone="no"?><svg xmlns="http://www.w3.org/2000/svg" xmlns:xlink="http://www.w3.org/1999/xlink" contentScriptType="application/ecmascript" contentStyleType="text/css" height="684px" preserveAspectRatio="none" style="width:565px;height:684px;background:#FFFFFF;" version="1.1" viewBox="0 0 565 684" width="565px" zoomAndPan="magnify"><defs><filter height="300%" id="f1qkvpqqmv7q75" width="300%" x="-1" y="-1"><feGaussianBlur result="blurOut" stdDeviation="2.0"/><feColorMatrix in="blurOut" result="blurOut2" type="matrix" values="0 0 0 0 0 0 0 0 0 0 0 0 0 0 0 0 0 0 .4 0"/><feOffset dx="4.0" dy="4.0" in="blurOut2" result="blurOut3"/><feBlend in="SourceGraphic" in2="blurOut3" mode="normal"/></filter></defs><g><!--MD5=[a0e14dc1c5f22798a4d68a7546a0e1d4]
class PortStaff--><rect codeLine="2" fill="#FEFECE" filter="url(#f1qkvpqqmv7q75)" height="48" id="PortStaff" style="stroke:#A80036;stroke-width:1.5;" width="78" x="327.5" y="7"/><ellipse cx="342.5" cy="23" fill="#ADD1B2" rx="11" ry="11" style="stroke:#A80036;stroke-width:1.0;"/><path d="M344.5,19.5 Q344.7031,19 344.9375,18.75 Q345.1719,18.5 345.4375,18.5 Q345.9063,18.5 346.2031,18.7813 Q346.5,19.0625 346.5,19.7188 L346.5,21.2813 Q346.5,21.9375 346.2188,22.2188 Q345.9375,22.5 345.5,22.5 Q345.1094,22.5 344.8594,22.3281 Q344.6094,22.1563 344.5,21.7031 Q344.4531,21.3906 344.2813,21.2188 Q343.9688,20.8906 343.4063,20.7031 Q342.8438,20.5 342.2813,20.5 Q341.5781,20.5 340.9844,20.7813 Q340.4063,21.0625 339.9531,21.6875 Q339.5,22.3125 339.5,23.1719 L339.5,24.0938 Q339.5,25.125 340.3438,25.8125 Q341.1875,26.5 342.6875,26.5 Q343.5781,26.5 344.2031,26.2969 Q344.5625,26.1875 344.9688,25.8281 Q345.2344,25.625 345.375,25.5625 Q345.5156,25.5 345.6875,25.5 Q346.0156,25.5 346.25,25.7656 Q346.5,26.0156 346.5,26.375 Q346.5,26.7188 346.1563,27.125 Q345.6563,27.7188 344.8594,28.0469 Q343.8125,28.5 342.5313,28.5 Q341.0313,28.5 339.8281,27.9063 Q338.8594,27.4375 338.1719,26.4219 Q337.5,25.4063 337.5,24.2031 L337.5,23.1094 Q337.5,21.8594 338.0938,20.7656 Q338.7031,19.6719 339.75,19.0938 Q340.8125,18.5 342,18.5 Q342.7188,18.5 343.3438,18.75 Q343.9688,19 344.5,19.5 Z " fill="#000000"/><text fill="#000000" font-family="sans-serif" font-size="12" lengthAdjust="spacing" textLength="46" x="356.5" y="27.9102">PortStaff</text><line style="stroke:#A80036;stroke-width:1.5;" x1="328.5" x2="404.5" y1="39" y2="39"/><line style="stroke:#A80036;stroke-width:1.5;" x1="328.5" x2="404.5" y1="47" y2="47"/><!--MD5=[3fd616f346a44cd59a91eb10b19e157c]
class User--><rect codeLine="6" fill="#FEFECE" filter="url(#f1qkvpqqmv7q75)" height="48" id="User" style="stroke:#A80036;stroke-width:1.5;" width="59" x="479" y="154"/><ellipse cx="494" cy="170" fill="#ADD1B2" rx="11" ry="11" style="stroke:#A80036;stroke-width:1.0;"/><path d="M496,166.5 Q496.2031,166 496.4375,165.75 Q496.6719,165.5 496.9375,165.5 Q497.4063,165.5 497.7031,165.7813 Q498,166.0625 498,166.7188 L498,168.2813 Q498,168.9375 497.7188,169.2188 Q497.4375,169.5 497,169.5 Q496.6094,169.5 496.3594,169.3281 Q496.1094,169.1563 496,168.7031 Q495.9531,168.3906 495.7813,168.2188 Q495.4688,167.8906 494.9063,167.7031 Q494.3438,167.5 493.7813,167.5 Q493.0781,167.5 492.4844,167.7813 Q491.9063,168.0625 491.4531,168.6875 Q491,169.3125 491,170.1719 L491,171.0938 Q491,172.125 491.8438,172.8125 Q492.6875,173.5 494.1875,173.5 Q495.0781,173.5 495.7031,173.2969 Q496.0625,173.1875 496.4688,172.8281 Q496.7344,172.625 496.875,172.5625 Q497.0156,172.5 497.1875,172.5 Q497.5156,172.5 497.75,172.7656 Q498,173.0156 498,173.375 Q498,173.7188 497.6563,174.125 Q497.1563,174.7188 496.3594,175.0469 Q495.3125,175.5 494.0313,175.5 Q492.5313,175.5 491.3281,174.9063 Q490.3594,174.4375 489.6719,173.4219 Q489,172.4063 489,171.2031 L489,170.1094 Q489,168.8594 489.5938,167.7656 Q490.2031,166.6719 491.25,166.0938 Q492.3125,165.5 493.5,165.5 Q494.2188,165.5 494.8438,165.75 Q495.4688,166 496,166.5 Z " fill="#000000"/><text fill="#000000" font-family="sans-serif" font-size="12" lengthAdjust="spacing" textLength="27" x="508" y="174.9102">User</text><line style="stroke:#A80036;stroke-width:1.5;" x1="480" x2="537" y1="186" y2="186"/><line style="stroke:#A80036;stroke-width:1.5;" x1="480" x2="537" y1="194" y2="194"/><!--MD5=[45d42ff7800d812d5f83c7d3273eb427]
class UserRole--><rect codeLine="10" fill="#FEFECE" filter="url(#f1qkvpqqmv7q75)" height="48" id="UserRole" style="stroke:#A80036;stroke-width:1.5;" width="85" x="466" y="335.5"/><ellipse cx="481" cy="351.5" fill="#ADD1B2" rx="11" ry="11" style="stroke:#A80036;stroke-width:1.0;"/><path d="M483,348 Q483.2031,347.5 483.4375,347.25 Q483.6719,347 483.9375,347 Q484.4063,347 484.7031,347.2813 Q485,347.5625 485,348.2188 L485,349.7813 Q485,350.4375 484.7188,350.7188 Q484.4375,351 484,351 Q483.6094,351 483.3594,350.8281 Q483.1094,350.6563 483,350.2031 Q482.9531,349.8906 482.7813,349.7188 Q482.4688,349.3906 481.9063,349.2031 Q481.3438,349 480.7813,349 Q480.0781,349 479.4844,349.2813 Q478.9063,349.5625 478.4531,350.1875 Q478,350.8125 478,351.6719 L478,352.5938 Q478,353.625 478.8438,354.3125 Q479.6875,355 481.1875,355 Q482.0781,355 482.7031,354.7969 Q483.0625,354.6875 483.4688,354.3281 Q483.7344,354.125 483.875,354.0625 Q484.0156,354 484.1875,354 Q484.5156,354 484.75,354.2656 Q485,354.5156 485,354.875 Q485,355.2188 484.6563,355.625 Q484.1563,356.2188 483.3594,356.5469 Q482.3125,357 481.0313,357 Q479.5313,357 478.3281,356.4063 Q477.3594,355.9375 476.6719,354.9219 Q476,353.9063 476,352.7031 L476,351.6094 Q476,350.3594 476.5938,349.2656 Q477.2031,348.1719 478.25,347.5938 Q479.3125,347 480.5,347 Q481.2188,347 481.8438,347.25 Q482.4688,347.5 483,348 Z " fill="#000000"/><text fill="#000000" font-family="sans-serif" font-size="12" lengthAdjust="spacing" textLength="53" x="495" y="356.4102">UserRole</text><line style="stroke:#A80036;stroke-width:1.5;" x1="467" x2="550" y1="367.5" y2="367.5"/><line style="stroke:#A80036;stroke-width:1.5;" x1="467" x2="550" y1="375.5" y2="375.5"/><!--MD5=[02e4b9b7573f1156f41e60aa5b4e25a4]
class Company--><rect codeLine="14" fill="#FEFECE" filter="url(#f1qkvpqqmv7q75)" height="48" id="Company" style="stroke:#A80036;stroke-width:1.5;" width="85" x="182" y="496"/><ellipse cx="197" cy="512" fill="#ADD1B2" rx="11" ry="11" style="stroke:#A80036;stroke-width:1.0;"/><path d="M199,508.5 Q199.2031,508 199.4375,507.75 Q199.6719,507.5 199.9375,507.5 Q200.4063,507.5 200.7031,507.7813 Q201,508.0625 201,508.7188 L201,510.2813 Q201,510.9375 200.7188,511.2188 Q200.4375,511.5 200,511.5 Q199.6094,511.5 199.3594,511.3281 Q199.1094,511.1563 199,510.7031 Q198.9531,510.3906 198.7813,510.2188 Q198.4688,509.8906 197.9063,509.7031 Q197.3438,509.5 196.7813,509.5 Q196.0781,509.5 195.4844,509.7813 Q194.9063,510.0625 194.4531,510.6875 Q194,511.3125 194,512.1719 L194,513.0938 Q194,514.125 194.8438,514.8125 Q195.6875,515.5 197.1875,515.5 Q198.0781,515.5 198.7031,515.2969 Q199.0625,515.1875 199.4688,514.8281 Q199.7344,514.625 199.875,514.5625 Q200.0156,514.5 200.1875,514.5 Q200.5156,514.5 200.75,514.7656 Q201,515.0156 201,515.375 Q201,515.7188 200.6563,516.125 Q200.1563,516.7188 199.3594,517.0469 Q198.3125,517.5 197.0313,517.5 Q195.5313,517.5 194.3281,516.9063 Q193.3594,516.4375 192.6719,515.4219 Q192,514.4063 192,513.2031 L192,512.1094 Q192,510.8594 192.5938,509.7656 Q193.2031,508.6719 194.25,508.0938 Q195.3125,507.5 196.5,507.5 Q197.2188,507.5 197.8438,507.75 Q198.4688,508 199,508.5 Z " fill="#000000"/><text fill="#000000" font-family="sans-serif" font-size="12" lengthAdjust="spacing" textLength="53" x="211" y="516.9102">Company</text><line style="stroke:#A80036;stroke-width:1.5;" x1="183" x2="266" y1="528" y2="528"/><line style="stroke:#A80036;stroke-width:1.5;" x1="183" x2="266" y1="536" y2="536"/><!--MD5=[030571ada33a165052afa3445ec6c8fa]
class GetTotalNumberOfOccupiedSlotsUI--><rect codeLine="18" fill="#FEFECE" filter="url(#f1qkvpqqmv7q75)" height="89.5078" id="GetTotalNumberOfOccupiedSlotsUI" style="stroke:#A80036;stroke-width:1.5;" width="437" x="7" y="133"/><ellipse cx="123.75" cy="149" fill="#ADD1B2" rx="11" ry="11" style="stroke:#A80036;stroke-width:1.0;"/><path d="M125.75,145.5 Q125.9531,145 126.1875,144.75 Q126.4219,144.5 126.6875,144.5 Q127.1563,144.5 127.4531,144.7813 Q127.75,145.0625 127.75,145.7188 L127.75,147.2813 Q127.75,147.9375 127.4688,148.2188 Q127.1875,148.5 126.75,148.5 Q126.3594,148.5 126.1094,148.3281 Q125.8594,148.1563 125.75,147.7031 Q125.7031,147.3906 125.5313,147.2188 Q125.2188,146.8906 124.6563,146.7031 Q124.0938,146.5 123.5313,146.5 Q122.8281,146.5 122.2344,146.7813 Q121.6563,147.0625 121.2031,147.6875 Q120.75,148.3125 120.75,149.1719 L120.75,150.0938 Q120.75,151.125 121.5938,151.8125 Q122.4375,152.5 123.9375,152.5 Q124.8281,152.5 125.4531,152.2969 Q125.8125,152.1875 126.2188,151.8281 Q126.4844,151.625 126.625,151.5625 Q126.7656,151.5 126.9375,151.5 Q127.2656,151.5 127.5,151.7656 Q127.75,152.0156 127.75,152.375 Q127.75,152.7188 127.4063,153.125 Q126.9063,153.7188 126.1094,154.0469 Q125.0625,154.5 123.7813,154.5 Q122.2813,154.5 121.0781,153.9063 Q120.1094,153.4375 119.4219,152.4219 Q118.75,151.4063 118.75,150.2031 L118.75,149.1094 Q118.75,147.8594 119.3438,146.7656 Q119.9531,145.6719 121,145.0938 Q122.0625,144.5 123.25,144.5 Q123.9688,144.5 124.5938,144.75 Q125.2188,145 125.75,145.5 Z " fill="#000000"/><text fill="#000000" font-family="sans-serif" font-size="12" lengthAdjust="spacing" textLength="195" x="144.25" y="153.9102">GetTotalNumberOfOccupiedSlotsUI</text><line style="stroke:#A80036;stroke-width:1.5;" x1="8" x2="443" y1="165" y2="165"/><rect fill="none" height="6" style="stroke:#C82930;stroke-width:1.0;" width="6" x="15" y="173"/><text fill="#000000" font-family="sans-serif" font-size="11" lengthAdjust="spacing" textLength="411" x="27" y="180.4189">GetTotalNumberOfOccupiedSlotsController getTotalNumberOfOccupiedSlotsController</text><line style="stroke:#A80036;stroke-width:1.5;" x1="8" x2="443" y1="186.8359" y2="186.8359"/><ellipse cx="18" cy="197.8359" fill="#84BE84" rx="3" ry="3" style="stroke:#038048;stroke-width:1.0;"/><text fill="#000000" font-family="sans-serif" font-size="11" lengthAdjust="spacing" textLength="176" x="27" y="202.2549">GetTotalNumberOfOccupiedSlotsUI()</text><ellipse cx="18" cy="211.6719" fill="#84BE84" rx="3" ry="3" style="stroke:#038048;stroke-width:1.0;"/><text fill="#000000" font-family="sans-serif" font-size="11" lengthAdjust="spacing" textLength="24" x="27" y="216.0908">run()</text><!--MD5=[20c1f05c709002ea3d1c9966bd39cfd1]
class GetTotalNumberOfOccupiedSlotsController--><rect codeLine="24" fill="#FEFECE" filter="url(#f1qkvpqqmv7q75)" height="117.1797" id="GetTotalNumberOfOccupiedSlotsController" style="stroke:#A80036;stroke-width:1.5;" width="331" x="59" y="301"/><ellipse cx="101.9" cy="317" fill="#ADD1B2" rx="11" ry="11" style="stroke:#A80036;stroke-width:1.0;"/><path d="M103.9,313.5 Q104.1031,313 104.3375,312.75 Q104.5719,312.5 104.8375,312.5 Q105.3063,312.5 105.6031,312.7813 Q105.9,313.0625 105.9,313.7188 L105.9,315.2813 Q105.9,315.9375 105.6188,316.2188 Q105.3375,316.5 104.9,316.5 Q104.5094,316.5 104.2594,316.3281 Q104.0094,316.1563 103.9,315.7031 Q103.8531,315.3906 103.6813,315.2188 Q103.3688,314.8906 102.8063,314.7031 Q102.2438,314.5 101.6813,314.5 Q100.9781,314.5 100.3844,314.7813 Q99.8063,315.0625 99.3531,315.6875 Q98.9,316.3125 98.9,317.1719 L98.9,318.0938 Q98.9,319.125 99.7438,319.8125 Q100.5875,320.5 102.0875,320.5 Q102.9781,320.5 103.6031,320.2969 Q103.9625,320.1875 104.3688,319.8281 Q104.6344,319.625 104.775,319.5625 Q104.9156,319.5 105.0875,319.5 Q105.4156,319.5 105.65,319.7656 Q105.9,320.0156 105.9,320.375 Q105.9,320.7188 105.5563,321.125 Q105.0563,321.7188 104.2594,322.0469 Q103.2125,322.5 101.9313,322.5 Q100.4313,322.5 99.2281,321.9063 Q98.2594,321.4375 97.5719,320.4219 Q96.9,319.4063 96.9,318.2031 L96.9,317.1094 Q96.9,315.8594 97.4938,314.7656 Q98.1031,313.6719 99.15,313.0938 Q100.2125,312.5 101.4,312.5 Q102.1188,312.5 102.7438,312.75 Q103.3688,313 103.9,313.5 Z " fill="#000000"/><text fill="#000000" font-family="sans-serif" font-size="12" lengthAdjust="spacing" textLength="237" x="122.1" y="321.9102">GetTotalNumberOfOccupiedSlotsController</text><line style="stroke:#A80036;stroke-width:1.5;" x1="60" x2="389" y1="333" y2="333"/><rect fill="none" height="6" style="stroke:#C82930;stroke-width:1.0;" width="6" x="67" y="341"/><text fill="#000000" font-family="sans-serif" font-size="11" lengthAdjust="spacing" textLength="92" x="79" y="348.4189">Company company</text><line style="stroke:#A80036;stroke-width:1.5;" x1="60" x2="389" y1="354.8359" y2="354.8359"/><ellipse cx="70" cy="365.8359" fill="#84BE84" rx="3" ry="3" style="stroke:#038048;stroke-width:1.0;"/><text fill="#000000" font-family="sans-serif" font-size="11" lengthAdjust="spacing" textLength="213" x="79" y="370.2549">GetTotalNumberOfOccupiedSlotsController()</text><ellipse cx="70" cy="379.6719" fill="#84BE84" rx="3" ry="3" style="stroke:#038048;stroke-width:1.0;"/><text fill="#000000" font-family="sans-serif" font-size="11" lengthAdjust="spacing" textLength="305" x="79" y="384.0908">GetTotalNumberOfOccupiedSlotsController(Company company)</text><ellipse cx="70" cy="393.5078" fill="#84BE84" rx="3" ry="3" style="stroke:#038048;stroke-width:1.0;"/><text fill="#000000" font-family="sans-serif" font-size="11" lengthAdjust="spacing" textLength="211" x="79" y="397.9268">getTotalNumberOfOccupiedSlotsController()</text><ellipse cx="70" cy="407.3438" fill="#84BE84" rx="3" ry="3" style="stroke:#038048;stroke-width:1.0;"/><text fill="#000000" font-family="sans-serif" font-size="11" lengthAdjust="spacing" textLength="68" x="79" y="411.7627">getCompany()</text><!--MD5=[837d3612090b426002fd1342fcbe6b88]
class DataBase--><rect fill="#FEFECE" filter="url(#f1qkvpqqmv7q75)" height="48" id="DataBase" style="stroke:#A80036;stroke-width:1.5;" width="87" x="181" y="622"/><ellipse cx="196" cy="638" fill="#ADD1B2" rx="11" ry="11" style="stroke:#A80036;stroke-width:1.0;"/><path d="M198,634.5 Q198.2031,634 198.4375,633.75 Q198.6719,633.5 198.9375,633.5 Q199.4063,633.5 199.7031,633.7813 Q200,634.0625 200,634.7188 L200,636.2813 Q200,636.9375 199.7188,637.2188 Q199.4375,637.5 199,637.5 Q198.6094,637.5 198.3594,637.3281 Q198.1094,637.1563 198,636.7031 Q197.9531,636.3906 197.7813,636.2188 Q197.4688,635.8906 196.9063,635.7031 Q196.3438,635.5 195.7813,635.5 Q195.0781,635.5 194.4844,635.7813 Q193.9063,636.0625 193.4531,636.6875 Q193,637.3125 193,638.1719 L193,639.0938 Q193,640.125 193.8438,640.8125 Q194.6875,641.5 196.1875,641.5 Q197.0781,641.5 197.7031,641.2969 Q198.0625,641.1875 198.4688,640.8281 Q198.7344,640.625 198.875,640.5625 Q199.0156,640.5 199.1875,640.5 Q199.5156,640.5 199.75,640.7656 Q200,641.0156 200,641.375 Q200,641.7188 199.6563,642.125 Q199.1563,642.7188 198.3594,643.0469 Q197.3125,643.5 196.0313,643.5 Q194.5313,643.5 193.3281,642.9063 Q192.3594,642.4375 191.6719,641.4219 Q191,640.4063 191,639.2031 L191,638.1094 Q191,636.8594 191.5938,635.7656 Q192.2031,634.6719 193.25,634.0938 Q194.3125,633.5 195.5,633.5 Q196.2188,633.5 196.8438,633.75 Q197.4688,634 198,634.5 Z " fill="#000000"/><text fill="#000000" font-family="sans-serif" font-size="12" lengthAdjust="spacing" textLength="55" x="210" y="642.9102">DataBase</text><line style="stroke:#A80036;stroke-width:1.5;" x1="182" x2="267" y1="654" y2="654"/><line style="stroke:#A80036;stroke-width:1.5;" x1="182" x2="267" y1="662" y2="662"/><!--MD5=[7fb65b97d5d93b43f55c9079b62c6b59]
link PortStaff to GetTotalNumberOfOccupiedSlotsUI--><path codeLine="32" d="M343.85,55.3 C324.48,75.21 296,104.5 271.82,129.36 " fill="none" id="PortStaff-to-GetTotalNumberOfOccupiedSlotsUI" style="stroke:#A80036;stroke-width:1.0;"/><polygon fill="#A80036" points="268.29,133,277.4315,129.3348,271.7752,129.4148,271.6952,123.7585,268.29,133" style="stroke:#A80036;stroke-width:1.0;"/><text fill="#000000" font-family="sans-serif" font-size="13" lengthAdjust="spacing" textLength="44" x="313.5" y="99.4951">Access</text><!--MD5=[b23c67e6ce1061845f120e6a3a01a6e7]
link GetTotalNumberOfOccupiedSlotsUI to GetTotalNumberOfOccupiedSlotsController--><path codeLine="33" d="M193.25,223.38 C187.99,232.74 183.34,242.86 180.5,253 C176.51,267.25 178.57,282.15 183.51,296.11 " fill="none" id="GetTotalNumberOfOccupiedSlotsUI-to-GetTotalNumberOfOccupiedSlotsController" style="stroke:#A80036;stroke-width:1.0;"/><polygon fill="#A80036" points="185.29,300.81,185.839,290.9765,183.5172,296.1348,178.3588,293.813,185.29,300.81" style="stroke:#A80036;stroke-width:1.0;"/><text fill="#000000" font-family="sans-serif" font-size="13" lengthAdjust="spacing" textLength="82" x="181.5" y="267.4951">Connects with</text><!--MD5=[06d20b441f239019c8d5fbb416c8770d]
reverse link GetTotalNumberOfOccupiedSlotsUI to GetTotalNumberOfOccupiedSlotsController--><path codeLine="36" d="M258.46,227.61 C262.6,235.78 266.18,244.41 268.5,253 C272.79,268.9 269.67,285.59 263.49,300.87 " fill="none" id="GetTotalNumberOfOccupiedSlotsUI-backto-GetTotalNumberOfOccupiedSlotsController" style="stroke:#A80036;stroke-width:1.0;"/><polygon fill="#A80036" points="256.11,223.12,256.7333,232.9491,258.4258,227.5514,263.8235,229.2439,256.11,223.12" style="stroke:#A80036;stroke-width:1.0;"/><text fill="#000000" font-family="sans-serif" font-size="13" lengthAdjust="spacing" textLength="69" x="271.5" y="267.4951">Returns Info</text><!--MD5=[a4cb8f6ae467b3a2c877c7f795d4946a]
link PortStaff to User--><path codeLine="34" d="M389.31,55.3 C414.67,81.19 455.56,122.95 482.24,150.18 " fill="none" id="PortStaff-to-User" style="stroke:#A80036;stroke-width:1.0;"/><polygon fill="#A80036" points="485.74,153.76,482.2975,144.5324,482.2404,150.1889,476.5838,150.1318,485.74,153.76" style="stroke:#A80036;stroke-width:1.0;"/><text fill="#000000" font-family="sans-serif" font-size="13" lengthAdjust="spacing" textLength="21" x="433.5" y="99.4951">is a</text><!--MD5=[1f12d177c84922ed4f166f09ee62ceaa]
link User to UserRole--><path codeLine="35" d="M508.5,202.1 C508.5,234.95 508.5,295.09 508.5,330.46 " fill="none" id="User-to-UserRole" style="stroke:#A80036;stroke-width:1.0;"/><polygon fill="#A80036" points="508.5,335.49,512.5,326.49,508.5,330.49,504.5,326.49,508.5,335.49" style="stroke:#A80036;stroke-width:1.0;"/><text fill="#000000" font-family="sans-serif" font-size="13" lengthAdjust="spacing" textLength="21" x="509.5" y="267.4951">has</text><!--MD5=[af3d31f5d73b65f402c8f558e723478f]
link GetTotalNumberOfOccupiedSlotsController to Company--><path codeLine="37" d="M173.87,418.35 C167.99,427.74 162.89,437.76 159.5,448 C153.79,465.26 164.67,480.67 179.07,492.69 " fill="none" id="GetTotalNumberOfOccupiedSlotsController-to-Company" style="stroke:#A80036;stroke-width:1.0;"/><polygon fill="#A80036" points="183.21,495.98,178.6576,487.2464,179.2973,492.867,173.6767,493.5067,183.21,495.98" style="stroke:#A80036;stroke-width:1.0;"/><text fill="#000000" font-family="sans-serif" font-size="13" lengthAdjust="spacing" textLength="82" x="160.5" y="462.4951">Connects with</text><!--MD5=[fabc5f3f4de0d5ef926de52fd2c6996a]
link Company to GetTotalNumberOfOccupiedSlotsController--><path codeLine="38" d="M236.95,495.94 C241.19,486.88 245.38,476.21 247.5,466 C250.37,452.19 249.56,437.38 246.99,423.35 " fill="none" id="Company-to-GetTotalNumberOfOccupiedSlotsController" style="stroke:#A80036;stroke-width:1.0;"/><polygon fill="#A80036" points="245.97,418.22,243.8181,427.8309,246.9533,423.1224,251.6619,426.2576,245.97,418.22" style="stroke:#A80036;stroke-width:1.0;"/><text fill="#000000" font-family="sans-serif" font-size="13" lengthAdjust="spacing" textLength="69" x="250.5" y="462.4951">Returns Info</text><!--MD5=[28fa5ca211853e28b35503d2b875b2be]
link Company to DataBase--><path codeLine="39" d="M224.5,544.03 C224.5,564.52 224.5,594.56 224.5,616.55 " fill="none" id="Company-to-DataBase" style="stroke:#A80036;stroke-width:1.0;"/><polygon fill="#A80036" points="224.5,621.67,228.5,612.67,224.5,616.67,220.5,612.67,224.5,621.67" style="stroke:#A80036;stroke-width:1.0;"/><text fill="#000000" font-family="sans-serif" font-size="13" lengthAdjust="spacing" textLength="55" x="225.5" y="588.4951">Connects</text><!--MD5=[ec69b3c78f4ed25b6c0013f0a4eca7f2]
@startuml

class PortStaff{

}

class User{

}

class UserRole{

}

class Company{

}

class GetTotalNumberOfOccupiedSlotsUI{
    -GetTotalNumberOfOccupiedSlotsController getTotalNumberOfOccupiedSlotsController
    +GetTotalNumberOfOccupiedSlotsUI()
    +run()
}

class GetTotalNumberOfOccupiedSlotsController{
    -Company company
    +GetTotalNumberOfOccupiedSlotsController()
    +GetTotalNumberOfOccupiedSlotsController(Company company)
    +getTotalNumberOfOccupiedSlotsController()
    +getCompany()
}

PortStaff - -> GetTotalNumberOfOccupiedSlotsUI : Access
GetTotalNumberOfOccupiedSlotsUI -down-> GetTotalNumberOfOccupiedSlotsController : Connects with
PortStaff - -> User : is a
User - -> UserRole : has
GetTotalNumberOfOccupiedSlotsController -up-> GetTotalNumberOfOccupiedSlotsUI : Returns Info
GetTotalNumberOfOccupiedSlotsController - -> Company : Connects with
Company - -> GetTotalNumberOfOccupiedSlotsController : Returns Info
Company - -> DataBase : Connects

@enduml

PlantUML version 1.2021.11(Sat Oct 02 14:26:11 BST 2021)
(GPL source distribution)
Java Runtime: OpenJDK Runtime Environment
JVM: OpenJDK 64-Bit Server VM
Default Encoding: Cp1252
Language: pt
Country: PT
--></g></svg>