<?xml version="1.0" encoding="UTF-8" standalone="no"?><svg xmlns="http://www.w3.org/2000/svg" xmlns:xlink="http://www.w3.org/1999/xlink" contentScriptType="application/ecmascript" contentStyleType="text/css" height="541px" preserveAspectRatio="none" style="width:1194px;height:541px;background:#FFFFFF;" version="1.1" viewBox="0 0 1194 541" width="1194px" zoomAndPan="magnify"><defs><filter height="300%" id="f1k7wo0hyvjc43" width="300%" x="-1" y="-1"><feGaussianBlur result="blurOut" stdDeviation="2.0"/><feColorMatrix in="blurOut" result="blurOut2" type="matrix" values="0 0 0 0 0 0 0 0 0 0 0 0 0 0 0 0 0 0 .4 0"/><feOffset dx="4.0" dy="4.0" in="blurOut2" result="blurOut3"/><feBlend in="SourceGraphic" in2="blurOut3" mode="normal"/></filter></defs><g><line style="stroke:#A80036;stroke-width:1.0;stroke-dasharray:5.0,5.0;" x1="35" x2="35" y1="89.6094" y2="456.3828"/><line style="stroke:#A80036;stroke-width:1.0;stroke-dasharray:5.0,5.0;" x1="262.5" x2="262.5" y1="89.6094" y2="456.3828"/><line style="stroke:#A80036;stroke-width:1.0;stroke-dasharray:5.0,5.0;" x1="390" x2="390" y1="89.6094" y2="456.3828"/><line style="stroke:#A80036;stroke-width:1.0;stroke-dasharray:5.0,5.0;" x1="563" x2="563" y1="89.6094" y2="456.3828"/><line style="stroke:#A80036;stroke-width:1.0;stroke-dasharray:5.0,5.0;" x1="838" x2="838" y1="89.6094" y2="456.3828"/><line style="stroke:#A80036;stroke-width:1.0;stroke-dasharray:5.0,5.0;" x1="1159" x2="1159" y1="328.5234" y2="456.3828"/><text fill="#000000" font-family="sans-serif" font-size="14" lengthAdjust="spacing" textLength="55" x="5" y="86.5332">PortStaff</text><ellipse cx="35.5" cy="15" fill="#FF0000" filter="url(#f1k7wo0hyvjc43)" rx="8" ry="8" style="stroke:#A80036;stroke-width:2.0;"/><path d="M35.5,23 L35.5,50 M22.5,31 L48.5,31 M35.5,50 L22.5,65 M35.5,50 L48.5,65 " fill="none" filter="url(#f1k7wo0hyvjc43)" style="stroke:#A80036;stroke-width:2.0;"/><text fill="#000000" font-family="sans-serif" font-size="14" lengthAdjust="spacing" textLength="55" x="5" y="469.916">PortStaff</text><ellipse cx="35.5" cy="482.9922" fill="#FF0000" filter="url(#f1k7wo0hyvjc43)" rx="8" ry="8" style="stroke:#A80036;stroke-width:2.0;"/><path d="M35.5,490.9922 L35.5,517.9922 M22.5,498.9922 L48.5,498.9922 M35.5,517.9922 L22.5,532.9922 M35.5,517.9922 L48.5,532.9922 " fill="none" filter="url(#f1k7wo0hyvjc43)" style="stroke:#A80036;stroke-width:2.0;"/><rect fill="#FEFECE" filter="url(#f1k7wo0hyvjc43)" height="31.6094" style="stroke:#A80036;stroke-width:1.5;" width="60" x="230.5" y="53"/><text fill="#000000" font-family="sans-serif" font-size="14" lengthAdjust="spacing" textLength="46" x="237.5" y="74.5332">System</text><rect fill="#FEFECE" filter="url(#f1k7wo0hyvjc43)" height="31.6094" style="stroke:#A80036;stroke-width:1.5;" width="60" x="230.5" y="455.3828"/><text fill="#000000" font-family="sans-serif" font-size="14" lengthAdjust="spacing" textLength="46" x="237.5" y="476.916">System</text><rect fill="#FEFECE" filter="url(#f1k7wo0hyvjc43)" height="31.6094" style="stroke:#A80036;stroke-width:1.5;" width="81" x="348" y="53"/><text fill="#000000" font-family="sans-serif" font-size="14" lengthAdjust="spacing" textLength="67" x="355" y="74.5332">PortStaffUI</text><rect fill="#FEFECE" filter="url(#f1k7wo0hyvjc43)" height="31.6094" style="stroke:#A80036;stroke-width:1.5;" width="81" x="348" y="455.3828"/><text fill="#000000" font-family="sans-serif" font-size="14" lengthAdjust="spacing" textLength="67" x="355" y="476.916">PortStaffUI</text><rect fill="#FEFECE" filter="url(#f1k7wo0hyvjc43)" height="31.6094" style="stroke:#A80036;stroke-width:1.5;" width="236" x="443" y="53"/><text fill="#000000" font-family="sans-serif" font-size="14" lengthAdjust="spacing" textLength="222" x="450" y="74.5332">GetTotalNumberOfOccupiedSlotsUI</text><rect fill="#FEFECE" filter="url(#f1k7wo0hyvjc43)" height="31.6094" style="stroke:#A80036;stroke-width:1.5;" width="236" x="443" y="455.3828"/><text fill="#000000" font-family="sans-serif" font-size="14" lengthAdjust="spacing" textLength="222" x="450" y="476.916">GetTotalNumberOfOccupiedSlotsUI</text><rect fill="#FEFECE" filter="url(#f1k7wo0hyvjc43)" height="31.6094" style="stroke:#A80036;stroke-width:1.5;" width="286" x="693" y="53"/><text fill="#000000" font-family="sans-serif" font-size="14" lengthAdjust="spacing" textLength="272" x="700" y="74.5332">GetTotalNumberOfOccupiedSlotsController</text><rect fill="#FEFECE" filter="url(#f1k7wo0hyvjc43)" height="31.6094" style="stroke:#A80036;stroke-width:1.5;" width="286" x="693" y="455.3828"/><text fill="#000000" font-family="sans-serif" font-size="14" lengthAdjust="spacing" textLength="272" x="700" y="476.916">GetTotalNumberOfOccupiedSlotsController</text><text fill="#000000" font-family="sans-serif" font-size="14" lengthAdjust="spacing" textLength="62" x="1125" y="469.916">DataBase</text><path d="M1141,482.9922 C1141,472.9922 1159,472.9922 1159,472.9922 C1159,472.9922 1177,472.9922 1177,482.9922 L1177,508.9922 C1177,518.9922 1159,518.9922 1159,518.9922 C1159,518.9922 1141,518.9922 1141,508.9922 L1141,482.9922 " fill="#FEFECE" filter="url(#f1k7wo0hyvjc43)" style="stroke:#000000;stroke-width:1.5;"/><path d="M1141,482.9922 C1141,492.9922 1159,492.9922 1159,492.9922 C1159,492.9922 1177,492.9922 1177,482.9922 " fill="none" style="stroke:#000000;stroke-width:1.5;"/><polygon fill="#A80036" points="46.5,117.9609,36.5,121.9609,46.5,125.9609,42.5,121.9609" style="stroke:#A80036;stroke-width:1.0;"/><line style="stroke:#A80036;stroke-width:1.0;stroke-dasharray:2.0,2.0;" x1="40.5" x2="261.5" y1="121.9609" y2="121.9609"/><text fill="#000000" font-family="sans-serif" font-size="13" font-weight="bold" lengthAdjust="spacing" textLength="7" x="52.5" y="117.1045">1</text><text fill="#000000" font-family="sans-serif" font-size="13" lengthAdjust="spacing" textLength="135" x="63.5" y="117.1045">Authentication Request</text><polygon fill="#A80036" points="250.5,148.3125,260.5,152.3125,250.5,156.3125,254.5,152.3125" style="stroke:#A80036;stroke-width:1.0;"/><line style="stroke:#A80036;stroke-width:1.0;" x1="35.5" x2="256.5" y1="152.3125" y2="152.3125"/><text fill="#000000" font-family="sans-serif" font-size="13" font-weight="bold" lengthAdjust="spacing" textLength="7" x="42.5" y="147.4561">2</text><text fill="#000000" font-family="sans-serif" font-size="13" lengthAdjust="spacing" textLength="192" x="53.5" y="147.4561">Another authentication Response</text><polygon fill="#A80036" points="46.5,178.6641,36.5,182.6641,46.5,186.6641,42.5,182.6641" style="stroke:#A80036;stroke-width:1.0;"/><line style="stroke:#A80036;stroke-width:1.0;stroke-dasharray:2.0,2.0;" x1="40.5" x2="261.5" y1="182.6641" y2="182.6641"/><text fill="#000000" font-family="sans-serif" font-size="13" font-weight="bold" lengthAdjust="spacing" textLength="7" x="52.5" y="177.8076">3</text><text fill="#000000" font-family="sans-serif" font-size="13" lengthAdjust="spacing" textLength="149" x="63.5" y="177.8076">Authentication successful</text><polygon fill="#A80036" points="378.5,209.0156,388.5,213.0156,378.5,217.0156,382.5,213.0156" style="stroke:#A80036;stroke-width:1.0;"/><line style="stroke:#A80036;stroke-width:1.0;stroke-dasharray:2.0,2.0;" x1="35.5" x2="384.5" y1="213.0156" y2="213.0156"/><text fill="#000000" font-family="sans-serif" font-size="13" font-weight="bold" lengthAdjust="spacing" textLength="7" x="42.5" y="208.1592">4</text><text fill="#000000" font-family="sans-serif" font-size="13" lengthAdjust="spacing" textLength="320" x="53.5" y="208.1592">Asks for the total number of occupied slots on the Port.</text><polygon fill="#A80036" points="551,239.3672,561,243.3672,551,247.3672,555,243.3672" style="stroke:#A80036;stroke-width:1.0;"/><line style="stroke:#A80036;stroke-width:1.0;stroke-dasharray:2.0,2.0;" x1="390.5" x2="557" y1="243.3672" y2="243.3672"/><text fill="#000000" font-family="sans-serif" font-size="13" font-weight="bold" lengthAdjust="spacing" textLength="7" x="397.5" y="238.5107">5</text><text fill="#000000" font-family="sans-serif" font-size="13" lengthAdjust="spacing" textLength="55" x="408.5" y="238.5107">Connects</text><polygon fill="#A80036" points="826,269.7188,836,273.7188,826,277.7188,830,273.7188" style="stroke:#A80036;stroke-width:1.0;"/><line style="stroke:#A80036;stroke-width:1.0;stroke-dasharray:2.0,2.0;" x1="563" x2="832" y1="273.7188" y2="273.7188"/><text fill="#000000" font-family="sans-serif" font-size="13" font-weight="bold" lengthAdjust="spacing" textLength="7" x="570" y="268.8623">6</text><text fill="#000000" font-family="sans-serif" font-size="13" lengthAdjust="spacing" textLength="92" x="581" y="268.8623">asks for the info</text><polygon fill="#A80036" points="1113,300.0703,1123,304.0703,1113,308.0703,1117,304.0703" style="stroke:#A80036;stroke-width:1.0;"/><line style="stroke:#A80036;stroke-width:1.0;stroke-dasharray:2.0,2.0;" x1="838" x2="1119" y1="304.0703" y2="304.0703"/><text fill="#000000" font-family="sans-serif" font-size="13" font-weight="bold" lengthAdjust="spacing" textLength="7" x="845" y="299.2139">7</text><text fill="#000000" font-family="sans-serif" font-size="13" lengthAdjust="spacing" textLength="252" x="856" y="299.2139">getTotalNumberOfOccupiedSlotsController()</text><text fill="#000000" font-family="sans-serif" font-size="14" lengthAdjust="spacing" textLength="62" x="1125" y="342.252">DataBase</text><path d="M1141,291.7188 C1141,281.7188 1159,281.7188 1159,281.7188 C1159,281.7188 1177,281.7188 1177,291.7188 L1177,317.7188 C1177,327.7188 1159,327.7188 1159,327.7188 C1159,327.7188 1141,327.7188 1141,317.7188 L1141,291.7188 " fill="#FEFECE" filter="url(#f1k7wo0hyvjc43)" style="stroke:#000000;stroke-width:1.5;"/><path d="M1141,291.7188 C1141,301.7188 1159,301.7188 1159,301.7188 C1159,301.7188 1177,301.7188 1177,291.7188 " fill="none" style="stroke:#000000;stroke-width:1.5;"/><polygon fill="#A80036" points="849,373.6797,839,377.6797,849,381.6797,845,377.6797" style="stroke:#A80036;stroke-width:1.0;"/><line style="stroke:#A80036;stroke-width:1.0;stroke-dasharray:2.0,2.0;" x1="843" x2="1158" y1="377.6797" y2="377.6797"/><text fill="#000000" font-family="sans-serif" font-size="13" font-weight="bold" lengthAdjust="spacing" textLength="7" x="855" y="372.8232">8</text><text fill="#000000" font-family="sans-serif" font-size="13" lengthAdjust="spacing" textLength="32" x="866" y="372.8232">result</text><polygon fill="#A80036" points="574,404.0313,564,408.0313,574,412.0313,570,408.0313" style="stroke:#A80036;stroke-width:1.0;"/><line style="stroke:#A80036;stroke-width:1.0;stroke-dasharray:2.0,2.0;" x1="568" x2="837" y1="408.0313" y2="408.0313"/><text fill="#000000" font-family="sans-serif" font-size="13" font-weight="bold" lengthAdjust="spacing" textLength="7" x="580" y="403.1748">9</text><text fill="#000000" font-family="sans-serif" font-size="13" lengthAdjust="spacing" textLength="32" x="591" y="403.1748">result</text><polygon fill="#A80036" points="46.5,434.3828,36.5,438.3828,46.5,442.3828,42.5,438.3828" style="stroke:#A80036;stroke-width:1.0;"/><line style="stroke:#A80036;stroke-width:1.0;stroke-dasharray:2.0,2.0;" x1="40.5" x2="562" y1="438.3828" y2="438.3828"/><text fill="#000000" font-family="sans-serif" font-size="13" font-weight="bold" lengthAdjust="spacing" textLength="14" x="52.5" y="433.5264">10</text><text fill="#000000" font-family="sans-serif" font-size="13" lengthAdjust="spacing" textLength="173" x="70.5" y="433.5264">Delivers the information asked</text><!--MD5=[2055bf3633f9e9c9eb2f07697be8639c]
@startuml

autonumber

actor PortStaff #red

System - -> PortStaff: Authentication Request
PortStaff -> System : Another authentication Response
System - -> PortStaff : Authentication successful
PortStaff - -> PortStaffUI : Asks for the total number of occupied slots on the Port.
PortStaffUI - -> GetTotalNumberOfOccupiedSlotsUI : Connects
GetTotalNumberOfOccupiedSlotsUI - -> GetTotalNumberOfOccupiedSlotsController : asks for the info
database       "DataBase"              as db
GetTotalNumberOfOccupiedSlotsController - -> db** : getTotalNumberOfOccupiedSlotsController()
db - -> GetTotalNumberOfOccupiedSlotsController : result
GetTotalNumberOfOccupiedSlotsController - -> GetTotalNumberOfOccupiedSlotsUI : result
GetTotalNumberOfOccupiedSlotsUI - -> PortStaff : Delivers the information asked

@enduml

PlantUML version 1.2021.11(Sat Oct 02 14:26:11 BST 2021)
(GPL source distribution)
Java Runtime: OpenJDK Runtime Environment
JVM: OpenJDK 64-Bit Server VM
Default Encoding: Cp1252
Language: pt
Country: PT
--></g></svg>