<?xml version="1.0" encoding="UTF-8" standalone="no"?><svg xmlns="http://www.w3.org/2000/svg" xmlns:xlink="http://www.w3.org/1999/xlink" contentScriptType="application/ecmascript" contentStyleType="text/css" height="346px" preserveAspectRatio="none" style="width:432px;height:346px;background:#FFFFFF;" version="1.1" viewBox="0 0 432 346" width="432px" zoomAndPan="magnify"><defs><filter height="300%" id="fp0er11ufg5gf" width="300%" x="-1" y="-1"><feGaussianBlur result="blurOut" stdDeviation="2.0"/><feColorMatrix in="blurOut" result="blurOut2" type="matrix" values="0 0 0 0 0 0 0 0 0 0 0 0 0 0 0 0 0 0 .4 0"/><feOffset dx="4.0" dy="4.0" in="blurOut2" result="blurOut3"/><feBlend in="SourceGraphic" in2="blurOut3" mode="normal"/></filter></defs><g><line style="stroke:#A80036;stroke-width:1.0;stroke-dasharray:5.0,5.0;" x1="35" x2="35" y1="89.6094" y2="261.3672"/><line style="stroke:#A80036;stroke-width:1.0;stroke-dasharray:5.0,5.0;" x1="390.5" x2="390.5" y1="89.6094" y2="261.3672"/><text fill="#000000" font-family="sans-serif" font-size="14" lengthAdjust="spacing" textLength="55" x="5" y="86.5332">PortStaff</text><ellipse cx="35.5" cy="15" fill="#FF0000" filter="url(#fp0er11ufg5gf)" rx="8" ry="8" style="stroke:#A80036;stroke-width:2.0;"/><path d="M35.5,23 L35.5,50 M22.5,31 L48.5,31 M35.5,50 L22.5,65 M35.5,50 L48.5,65 " fill="none" filter="url(#fp0er11ufg5gf)" style="stroke:#A80036;stroke-width:2.0;"/><text fill="#000000" font-family="sans-serif" font-size="14" lengthAdjust="spacing" textLength="55" x="5" y="274.9004">PortStaff</text><ellipse cx="35.5" cy="287.9766" fill="#FF0000" filter="url(#fp0er11ufg5gf)" rx="8" ry="8" style="stroke:#A80036;stroke-width:2.0;"/><path d="M35.5,295.9766 L35.5,322.9766 M22.5,303.9766 L48.5,303.9766 M35.5,322.9766 L22.5,337.9766 M35.5,322.9766 L48.5,337.9766 " fill="none" filter="url(#fp0er11ufg5gf)" style="stroke:#A80036;stroke-width:2.0;"/><rect fill="#FEFECE" filter="url(#fp0er11ufg5gf)" height="31.6094" style="stroke:#A80036;stroke-width:1.5;" width="60" x="358.5" y="53"/><text fill="#000000" font-family="sans-serif" font-size="14" lengthAdjust="spacing" textLength="46" x="365.5" y="74.5332">System</text><rect fill="#FEFECE" filter="url(#fp0er11ufg5gf)" height="31.6094" style="stroke:#A80036;stroke-width:1.5;" width="60" x="358.5" y="260.3672"/><text fill="#000000" font-family="sans-serif" font-size="14" lengthAdjust="spacing" textLength="46" x="365.5" y="281.9004">System</text><polygon fill="#A80036" points="46.5,117.9609,36.5,121.9609,46.5,125.9609,42.5,121.9609" style="stroke:#A80036;stroke-width:1.0;"/><line style="stroke:#A80036;stroke-width:1.0;stroke-dasharray:2.0,2.0;" x1="40.5" x2="389.5" y1="121.9609" y2="121.9609"/><text fill="#000000" font-family="sans-serif" font-size="13" font-weight="bold" lengthAdjust="spacing" textLength="7" x="52.5" y="117.1045">1</text><text fill="#000000" font-family="sans-serif" font-size="13" lengthAdjust="spacing" textLength="135" x="63.5" y="117.1045">Authentication Request</text><polygon fill="#A80036" points="378.5,148.3125,388.5,152.3125,378.5,156.3125,382.5,152.3125" style="stroke:#A80036;stroke-width:1.0;"/><line style="stroke:#A80036;stroke-width:1.0;" x1="35.5" x2="384.5" y1="152.3125" y2="152.3125"/><text fill="#000000" font-family="sans-serif" font-size="13" font-weight="bold" lengthAdjust="spacing" textLength="7" x="42.5" y="147.4561">2</text><text fill="#000000" font-family="sans-serif" font-size="13" lengthAdjust="spacing" textLength="192" x="53.5" y="147.4561">Another authentication Response</text><polygon fill="#A80036" points="46.5,178.6641,36.5,182.6641,46.5,186.6641,42.5,182.6641" style="stroke:#A80036;stroke-width:1.0;"/><line style="stroke:#A80036;stroke-width:1.0;stroke-dasharray:2.0,2.0;" x1="40.5" x2="389.5" y1="182.6641" y2="182.6641"/><text fill="#000000" font-family="sans-serif" font-size="13" font-weight="bold" lengthAdjust="spacing" textLength="7" x="52.5" y="177.8076">3</text><text fill="#000000" font-family="sans-serif" font-size="13" lengthAdjust="spacing" textLength="149" x="63.5" y="177.8076">Authentication successful</text><polygon fill="#A80036" points="378.5,209.0156,388.5,213.0156,378.5,217.0156,382.5,213.0156" style="stroke:#A80036;stroke-width:1.0;"/><line style="stroke:#A80036;stroke-width:1.0;stroke-dasharray:2.0,2.0;" x1="35.5" x2="384.5" y1="213.0156" y2="213.0156"/><text fill="#000000" font-family="sans-serif" font-size="13" font-weight="bold" lengthAdjust="spacing" textLength="7" x="42.5" y="208.1592">4</text><text fill="#000000" font-family="sans-serif" font-size="13" lengthAdjust="spacing" textLength="320" x="53.5" y="208.1592">Asks for the total number of occupied slots on the Port.</text><polygon fill="#A80036" points="46.5,239.3672,36.5,243.3672,46.5,247.3672,42.5,243.3672" style="stroke:#A80036;stroke-width:1.0;"/><line style="stroke:#A80036;stroke-width:1.0;stroke-dasharray:2.0,2.0;" x1="40.5" x2="389.5" y1="243.3672" y2="243.3672"/><text fill="#000000" font-family="sans-serif" font-size="13" font-weight="bold" lengthAdjust="spacing" textLength="7" x="52.5" y="238.5107">5</text><text fill="#000000" font-family="sans-serif" font-size="13" lengthAdjust="spacing" textLength="173" x="63.5" y="238.5107">Delivers the information asked</text><!--MD5=[ce7faf37f2fc3609999790d052f76287]
@startuml
autonumber

actor PortStaff #red

System - -> PortStaff: Authentication Request
PortStaff -> System : Another authentication Response
System - -> PortStaff : Authentication successful
PortStaff - -> System : Asks for the total number of occupied slots on the Port.
System - -> PortStaff : Delivers the information asked

@enduml

PlantUML version 1.2021.11(Sat Oct 02 14:26:11 BST 2021)
(GPL source distribution)
Java Runtime: OpenJDK Runtime Environment
JVM: OpenJDK 64-Bit Server VM
Default Encoding: Cp1252
Language: pt
Country: PT
--></g></svg>