<?xml version="1.0" encoding="UTF-8" standalone="no"?><svg xmlns="http://www.w3.org/2000/svg" xmlns:xlink="http://www.w3.org/1999/xlink" contentScriptType="application/ecmascript" contentStyleType="text/css" height="684px" preserveAspectRatio="none" style="width:499px;height:684px;background:#FFFFFF;" version="1.1" viewBox="0 0 499 684" width="499px" zoomAndPan="magnify"><defs><filter height="300%" id="fdbi5d3zge1nv" width="300%" x="-1" y="-1"><feGaussianBlur result="blurOut" stdDeviation="2.0"/><feColorMatrix in="blurOut" result="blurOut2" type="matrix" values="0 0 0 0 0 0 0 0 0 0 0 0 0 0 0 0 0 0 .4 0"/><feOffset dx="4.0" dy="4.0" in="blurOut2" result="blurOut3"/><feBlend in="SourceGraphic" in2="blurOut3" mode="normal"/></filter></defs><g><!--MD5=[019a73386217e12d5bb8e34bf0b46b9e]
class FleetManager--><rect codeLine="2" fill="#FEFECE" filter="url(#fdbi5d3zge1nv)" height="48" id="FleetManager" style="stroke:#A80036;stroke-width:1.5;" width="107" x="269" y="7"/><ellipse cx="284" cy="23" fill="#ADD1B2" rx="11" ry="11" style="stroke:#A80036;stroke-width:1.0;"/><path d="M286,19.5 Q286.2031,19 286.4375,18.75 Q286.6719,18.5 286.9375,18.5 Q287.4063,18.5 287.7031,18.7813 Q288,19.0625 288,19.7188 L288,21.2813 Q288,21.9375 287.7188,22.2188 Q287.4375,22.5 287,22.5 Q286.6094,22.5 286.3594,22.3281 Q286.1094,22.1563 286,21.7031 Q285.9531,21.3906 285.7813,21.2188 Q285.4688,20.8906 284.9063,20.7031 Q284.3438,20.5 283.7813,20.5 Q283.0781,20.5 282.4844,20.7813 Q281.9063,21.0625 281.4531,21.6875 Q281,22.3125 281,23.1719 L281,24.0938 Q281,25.125 281.8438,25.8125 Q282.6875,26.5 284.1875,26.5 Q285.0781,26.5 285.7031,26.2969 Q286.0625,26.1875 286.4688,25.8281 Q286.7344,25.625 286.875,25.5625 Q287.0156,25.5 287.1875,25.5 Q287.5156,25.5 287.75,25.7656 Q288,26.0156 288,26.375 Q288,26.7188 287.6563,27.125 Q287.1563,27.7188 286.3594,28.0469 Q285.3125,28.5 284.0313,28.5 Q282.5313,28.5 281.3281,27.9063 Q280.3594,27.4375 279.6719,26.4219 Q279,25.4063 279,24.2031 L279,23.1094 Q279,21.8594 279.5938,20.7656 Q280.2031,19.6719 281.25,19.0938 Q282.3125,18.5 283.5,18.5 Q284.2188,18.5 284.8438,18.75 Q285.4688,19 286,19.5 Z " fill="#000000"/><text fill="#000000" font-family="sans-serif" font-size="12" lengthAdjust="spacing" textLength="75" x="298" y="27.9102">FleetManager</text><line style="stroke:#A80036;stroke-width:1.5;" x1="270" x2="375" y1="39" y2="39"/><line style="stroke:#A80036;stroke-width:1.5;" x1="270" x2="375" y1="47" y2="47"/><!--MD5=[3fd616f346a44cd59a91eb10b19e157c]
class User--><rect codeLine="6" fill="#FEFECE" filter="url(#fdbi5d3zge1nv)" height="48" id="User" style="stroke:#A80036;stroke-width:1.5;" width="59" x="413" y="154"/><ellipse cx="428" cy="170" fill="#ADD1B2" rx="11" ry="11" style="stroke:#A80036;stroke-width:1.0;"/><path d="M430,166.5 Q430.2031,166 430.4375,165.75 Q430.6719,165.5 430.9375,165.5 Q431.4063,165.5 431.7031,165.7813 Q432,166.0625 432,166.7188 L432,168.2813 Q432,168.9375 431.7188,169.2188 Q431.4375,169.5 431,169.5 Q430.6094,169.5 430.3594,169.3281 Q430.1094,169.1563 430,168.7031 Q429.9531,168.3906 429.7813,168.2188 Q429.4688,167.8906 428.9063,167.7031 Q428.3438,167.5 427.7813,167.5 Q427.0781,167.5 426.4844,167.7813 Q425.9063,168.0625 425.4531,168.6875 Q425,169.3125 425,170.1719 L425,171.0938 Q425,172.125 425.8438,172.8125 Q426.6875,173.5 428.1875,173.5 Q429.0781,173.5 429.7031,173.2969 Q430.0625,173.1875 430.4688,172.8281 Q430.7344,172.625 430.875,172.5625 Q431.0156,172.5 431.1875,172.5 Q431.5156,172.5 431.75,172.7656 Q432,173.0156 432,173.375 Q432,173.7188 431.6563,174.125 Q431.1563,174.7188 430.3594,175.0469 Q429.3125,175.5 428.0313,175.5 Q426.5313,175.5 425.3281,174.9063 Q424.3594,174.4375 423.6719,173.4219 Q423,172.4063 423,171.2031 L423,170.1094 Q423,168.8594 423.5938,167.7656 Q424.2031,166.6719 425.25,166.0938 Q426.3125,165.5 427.5,165.5 Q428.2188,165.5 428.8438,165.75 Q429.4688,166 430,166.5 Z " fill="#000000"/><text fill="#000000" font-family="sans-serif" font-size="12" lengthAdjust="spacing" textLength="27" x="442" y="174.9102">User</text><line style="stroke:#A80036;stroke-width:1.5;" x1="414" x2="471" y1="186" y2="186"/><line style="stroke:#A80036;stroke-width:1.5;" x1="414" x2="471" y1="194" y2="194"/><!--MD5=[45d42ff7800d812d5f83c7d3273eb427]
class UserRole--><rect codeLine="10" fill="#FEFECE" filter="url(#fdbi5d3zge1nv)" height="48" id="UserRole" style="stroke:#A80036;stroke-width:1.5;" width="85" x="400" y="335.5"/><ellipse cx="415" cy="351.5" fill="#ADD1B2" rx="11" ry="11" style="stroke:#A80036;stroke-width:1.0;"/><path d="M417,348 Q417.2031,347.5 417.4375,347.25 Q417.6719,347 417.9375,347 Q418.4063,347 418.7031,347.2813 Q419,347.5625 419,348.2188 L419,349.7813 Q419,350.4375 418.7188,350.7188 Q418.4375,351 418,351 Q417.6094,351 417.3594,350.8281 Q417.1094,350.6563 417,350.2031 Q416.9531,349.8906 416.7813,349.7188 Q416.4688,349.3906 415.9063,349.2031 Q415.3438,349 414.7813,349 Q414.0781,349 413.4844,349.2813 Q412.9063,349.5625 412.4531,350.1875 Q412,350.8125 412,351.6719 L412,352.5938 Q412,353.625 412.8438,354.3125 Q413.6875,355 415.1875,355 Q416.0781,355 416.7031,354.7969 Q417.0625,354.6875 417.4688,354.3281 Q417.7344,354.125 417.875,354.0625 Q418.0156,354 418.1875,354 Q418.5156,354 418.75,354.2656 Q419,354.5156 419,354.875 Q419,355.2188 418.6563,355.625 Q418.1563,356.2188 417.3594,356.5469 Q416.3125,357 415.0313,357 Q413.5313,357 412.3281,356.4063 Q411.3594,355.9375 410.6719,354.9219 Q410,353.9063 410,352.7031 L410,351.6094 Q410,350.3594 410.5938,349.2656 Q411.2031,348.1719 412.25,347.5938 Q413.3125,347 414.5,347 Q415.2188,347 415.8438,347.25 Q416.4688,347.5 417,348 Z " fill="#000000"/><text fill="#000000" font-family="sans-serif" font-size="12" lengthAdjust="spacing" textLength="53" x="429" y="356.4102">UserRole</text><line style="stroke:#A80036;stroke-width:1.5;" x1="401" x2="484" y1="367.5" y2="367.5"/><line style="stroke:#A80036;stroke-width:1.5;" x1="401" x2="484" y1="375.5" y2="375.5"/><!--MD5=[02e4b9b7573f1156f41e60aa5b4e25a4]
class Company--><rect codeLine="14" fill="#FEFECE" filter="url(#fdbi5d3zge1nv)" height="48" id="Company" style="stroke:#A80036;stroke-width:1.5;" width="85" x="108" y="496"/><ellipse cx="123" cy="512" fill="#ADD1B2" rx="11" ry="11" style="stroke:#A80036;stroke-width:1.0;"/><path d="M125,508.5 Q125.2031,508 125.4375,507.75 Q125.6719,507.5 125.9375,507.5 Q126.4063,507.5 126.7031,507.7813 Q127,508.0625 127,508.7188 L127,510.2813 Q127,510.9375 126.7188,511.2188 Q126.4375,511.5 126,511.5 Q125.6094,511.5 125.3594,511.3281 Q125.1094,511.1563 125,510.7031 Q124.9531,510.3906 124.7813,510.2188 Q124.4688,509.8906 123.9063,509.7031 Q123.3438,509.5 122.7813,509.5 Q122.0781,509.5 121.4844,509.7813 Q120.9063,510.0625 120.4531,510.6875 Q120,511.3125 120,512.1719 L120,513.0938 Q120,514.125 120.8438,514.8125 Q121.6875,515.5 123.1875,515.5 Q124.0781,515.5 124.7031,515.2969 Q125.0625,515.1875 125.4688,514.8281 Q125.7344,514.625 125.875,514.5625 Q126.0156,514.5 126.1875,514.5 Q126.5156,514.5 126.75,514.7656 Q127,515.0156 127,515.375 Q127,515.7188 126.6563,516.125 Q126.1563,516.7188 125.3594,517.0469 Q124.3125,517.5 123.0313,517.5 Q121.5313,517.5 120.3281,516.9063 Q119.3594,516.4375 118.6719,515.4219 Q118,514.4063 118,513.2031 L118,512.1094 Q118,510.8594 118.5938,509.7656 Q119.2031,508.6719 120.25,508.0938 Q121.3125,507.5 122.5,507.5 Q123.2188,507.5 123.8438,507.75 Q124.4688,508 125,508.5 Z " fill="#000000"/><text fill="#000000" font-family="sans-serif" font-size="12" lengthAdjust="spacing" textLength="53" x="137" y="516.9102">Company</text><line style="stroke:#A80036;stroke-width:1.5;" x1="109" x2="192" y1="528" y2="528"/><line style="stroke:#A80036;stroke-width:1.5;" x1="109" x2="192" y1="536" y2="536"/><!--MD5=[63f88b9a155926698070c38056c4c487]
class GetShipIdleDaysOfYearUI--><rect codeLine="18" fill="#FEFECE" filter="url(#fdbi5d3zge1nv)" height="89.5078" id="GetShipIdleDaysOfYearUI" style="stroke:#A80036;stroke-width:1.5;" width="349" x="29" y="133"/><ellipse cx="128.75" cy="149" fill="#ADD1B2" rx="11" ry="11" style="stroke:#A80036;stroke-width:1.0;"/><path d="M130.75,145.5 Q130.9531,145 131.1875,144.75 Q131.4219,144.5 131.6875,144.5 Q132.1563,144.5 132.4531,144.7813 Q132.75,145.0625 132.75,145.7188 L132.75,147.2813 Q132.75,147.9375 132.4688,148.2188 Q132.1875,148.5 131.75,148.5 Q131.3594,148.5 131.1094,148.3281 Q130.8594,148.1563 130.75,147.7031 Q130.7031,147.3906 130.5313,147.2188 Q130.2188,146.8906 129.6563,146.7031 Q129.0938,146.5 128.5313,146.5 Q127.8281,146.5 127.2344,146.7813 Q126.6563,147.0625 126.2031,147.6875 Q125.75,148.3125 125.75,149.1719 L125.75,150.0938 Q125.75,151.125 126.5938,151.8125 Q127.4375,152.5 128.9375,152.5 Q129.8281,152.5 130.4531,152.2969 Q130.8125,152.1875 131.2188,151.8281 Q131.4844,151.625 131.625,151.5625 Q131.7656,151.5 131.9375,151.5 Q132.2656,151.5 132.5,151.7656 Q132.75,152.0156 132.75,152.375 Q132.75,152.7188 132.4063,153.125 Q131.9063,153.7188 131.1094,154.0469 Q130.0625,154.5 128.7813,154.5 Q127.2813,154.5 126.0781,153.9063 Q125.1094,153.4375 124.4219,152.4219 Q123.75,151.4063 123.75,150.2031 L123.75,149.1094 Q123.75,147.8594 124.3438,146.7656 Q124.9531,145.6719 126,145.0938 Q127.0625,144.5 128.25,144.5 Q128.9688,144.5 129.5938,144.75 Q130.2188,145 130.75,145.5 Z " fill="#000000"/><text fill="#000000" font-family="sans-serif" font-size="12" lengthAdjust="spacing" textLength="141" x="149.25" y="153.9102">GetShipIdleDaysOfYearUI</text><line style="stroke:#A80036;stroke-width:1.5;" x1="30" x2="377" y1="165" y2="165"/><rect fill="none" height="6" style="stroke:#C82930;stroke-width:1.0;" width="6" x="37" y="173"/><text fill="#000000" font-family="sans-serif" font-size="11" lengthAdjust="spacing" textLength="323" x="49" y="180.4189">GetShipIdleDaysOfYearController getShipIdleDaysOfYearController</text><line style="stroke:#A80036;stroke-width:1.5;" x1="30" x2="377" y1="186.8359" y2="186.8359"/><ellipse cx="40" cy="197.8359" fill="#84BE84" rx="3" ry="3" style="stroke:#038048;stroke-width:1.0;"/><text fill="#000000" font-family="sans-serif" font-size="11" lengthAdjust="spacing" textLength="132" x="49" y="202.2549">GetShipIdleDaysOfYearUI()</text><ellipse cx="40" cy="211.6719" fill="#84BE84" rx="3" ry="3" style="stroke:#038048;stroke-width:1.0;"/><text fill="#000000" font-family="sans-serif" font-size="11" lengthAdjust="spacing" textLength="24" x="49" y="216.0908">run()</text><!--MD5=[2449a0fd142c34b71c6505d033b93d6a]
class GetShipIdleDaysOfYearController--><rect codeLine="24" fill="#FEFECE" filter="url(#fdbi5d3zge1nv)" height="117.1797" id="GetShipIdleDaysOfYearController" style="stroke:#A80036;stroke-width:1.5;" width="287" x="7" y="301"/><ellipse cx="54.75" cy="317" fill="#ADD1B2" rx="11" ry="11" style="stroke:#A80036;stroke-width:1.0;"/><path d="M56.75,313.5 Q56.9531,313 57.1875,312.75 Q57.4219,312.5 57.6875,312.5 Q58.1563,312.5 58.4531,312.7813 Q58.75,313.0625 58.75,313.7188 L58.75,315.2813 Q58.75,315.9375 58.4688,316.2188 Q58.1875,316.5 57.75,316.5 Q57.3594,316.5 57.1094,316.3281 Q56.8594,316.1563 56.75,315.7031 Q56.7031,315.3906 56.5313,315.2188 Q56.2188,314.8906 55.6563,314.7031 Q55.0938,314.5 54.5313,314.5 Q53.8281,314.5 53.2344,314.7813 Q52.6563,315.0625 52.2031,315.6875 Q51.75,316.3125 51.75,317.1719 L51.75,318.0938 Q51.75,319.125 52.5938,319.8125 Q53.4375,320.5 54.9375,320.5 Q55.8281,320.5 56.4531,320.2969 Q56.8125,320.1875 57.2188,319.8281 Q57.4844,319.625 57.625,319.5625 Q57.7656,319.5 57.9375,319.5 Q58.2656,319.5 58.5,319.7656 Q58.75,320.0156 58.75,320.375 Q58.75,320.7188 58.4063,321.125 Q57.9063,321.7188 57.1094,322.0469 Q56.0625,322.5 54.7813,322.5 Q53.2813,322.5 52.0781,321.9063 Q51.1094,321.4375 50.4219,320.4219 Q49.75,319.4063 49.75,318.2031 L49.75,317.1094 Q49.75,315.8594 50.3438,314.7656 Q50.9531,313.6719 52,313.0938 Q53.0625,312.5 54.25,312.5 Q54.9688,312.5 55.5938,312.75 Q56.2188,313 56.75,313.5 Z " fill="#000000"/><text fill="#000000" font-family="sans-serif" font-size="12" lengthAdjust="spacing" textLength="183" x="75.25" y="321.9102">GetShipIdleDaysOfYearController</text><line style="stroke:#A80036;stroke-width:1.5;" x1="8" x2="293" y1="333" y2="333"/><rect fill="none" height="6" style="stroke:#C82930;stroke-width:1.0;" width="6" x="15" y="341"/><text fill="#000000" font-family="sans-serif" font-size="11" lengthAdjust="spacing" textLength="92" x="27" y="348.4189">Company company</text><line style="stroke:#A80036;stroke-width:1.5;" x1="8" x2="293" y1="354.8359" y2="354.8359"/><ellipse cx="18" cy="365.8359" fill="#84BE84" rx="3" ry="3" style="stroke:#038048;stroke-width:1.0;"/><text fill="#000000" font-family="sans-serif" font-size="11" lengthAdjust="spacing" textLength="169" x="27" y="370.2549">GetShipIdleDaysOfYearController()</text><ellipse cx="18" cy="379.6719" fill="#84BE84" rx="3" ry="3" style="stroke:#038048;stroke-width:1.0;"/><text fill="#000000" font-family="sans-serif" font-size="11" lengthAdjust="spacing" textLength="261" x="27" y="384.0908">GetShipIdleDaysOfYearController(Company company)</text><ellipse cx="18" cy="393.5078" fill="#84BE84" rx="3" ry="3" style="stroke:#038048;stroke-width:1.0;"/><text fill="#000000" font-family="sans-serif" font-size="11" lengthAdjust="spacing" textLength="167" x="27" y="397.9268">getShipIdleDaysOfYearController()</text><ellipse cx="18" cy="407.3438" fill="#84BE84" rx="3" ry="3" style="stroke:#038048;stroke-width:1.0;"/><text fill="#000000" font-family="sans-serif" font-size="11" lengthAdjust="spacing" textLength="68" x="27" y="411.7627">getCompany()</text><!--MD5=[837d3612090b426002fd1342fcbe6b88]
class DataBase--><rect fill="#FEFECE" filter="url(#fdbi5d3zge1nv)" height="48" id="DataBase" style="stroke:#A80036;stroke-width:1.5;" width="87" x="107" y="622"/><ellipse cx="122" cy="638" fill="#ADD1B2" rx="11" ry="11" style="stroke:#A80036;stroke-width:1.0;"/><path d="M124,634.5 Q124.2031,634 124.4375,633.75 Q124.6719,633.5 124.9375,633.5 Q125.4063,633.5 125.7031,633.7813 Q126,634.0625 126,634.7188 L126,636.2813 Q126,636.9375 125.7188,637.2188 Q125.4375,637.5 125,637.5 Q124.6094,637.5 124.3594,637.3281 Q124.1094,637.1563 124,636.7031 Q123.9531,636.3906 123.7813,636.2188 Q123.4688,635.8906 122.9063,635.7031 Q122.3438,635.5 121.7813,635.5 Q121.0781,635.5 120.4844,635.7813 Q119.9063,636.0625 119.4531,636.6875 Q119,637.3125 119,638.1719 L119,639.0938 Q119,640.125 119.8438,640.8125 Q120.6875,641.5 122.1875,641.5 Q123.0781,641.5 123.7031,641.2969 Q124.0625,641.1875 124.4688,640.8281 Q124.7344,640.625 124.875,640.5625 Q125.0156,640.5 125.1875,640.5 Q125.5156,640.5 125.75,640.7656 Q126,641.0156 126,641.375 Q126,641.7188 125.6563,642.125 Q125.1563,642.7188 124.3594,643.0469 Q123.3125,643.5 122.0313,643.5 Q120.5313,643.5 119.3281,642.9063 Q118.3594,642.4375 117.6719,641.4219 Q117,640.4063 117,639.2031 L117,638.1094 Q117,636.8594 117.5938,635.7656 Q118.2031,634.6719 119.25,634.0938 Q120.3125,633.5 121.5,633.5 Q122.2188,633.5 122.8438,633.75 Q123.4688,634 124,634.5 Z " fill="#000000"/><text fill="#000000" font-family="sans-serif" font-size="12" lengthAdjust="spacing" textLength="55" x="136" y="642.9102">DataBase</text><line style="stroke:#A80036;stroke-width:1.5;" x1="108" x2="193" y1="654" y2="654"/><line style="stroke:#A80036;stroke-width:1.5;" x1="108" x2="193" y1="662" y2="662"/><!--MD5=[3a824de2bb1b9fedba0f4fa0e173b38b]
link FleetManager to GetShipIdleDaysOfYearUI--><path codeLine="32" d="M303.38,55.3 C287.1,75.13 263.19,104.26 242.85,129.06 " fill="none" id="FleetManager-to-GetShipIdleDaysOfYearUI" style="stroke:#A80036;stroke-width:1.0;"/><polygon fill="#A80036" points="239.61,133,248.4076,128.5726,242.7785,129.1321,242.219,123.503,239.61,133" style="stroke:#A80036;stroke-width:1.0;"/><text fill="#000000" font-family="sans-serif" font-size="13" lengthAdjust="spacing" textLength="44" x="277.5" y="99.4951">Access</text><!--MD5=[d8211884a028bb21cc5f65f290833023]
link GetShipIdleDaysOfYearUI to GetShipIdleDaysOfYearController--><path codeLine="33" d="M155.81,223.33 C148.73,232.41 142.48,242.44 138.5,253 C133.46,266.37 132.57,281.31 133.79,295.64 " fill="none" id="GetShipIdleDaysOfYearUI-to-GetShipIdleDaysOfYearController" style="stroke:#A80036;stroke-width:1.0;"/><polygon fill="#A80036" points="134.32,300.89,137.3727,291.5262,133.8055,295.9165,129.4151,292.3494,134.32,300.89" style="stroke:#A80036;stroke-width:1.0;"/><text fill="#000000" font-family="sans-serif" font-size="13" lengthAdjust="spacing" textLength="82" x="139.5" y="267.4951">Connects with</text><!--MD5=[9e15dc7403a22a239572da71f2184556]
reverse link GetShipIdleDaysOfYearUI to GetShipIdleDaysOfYearController--><path codeLine="36" d="M226.75,228.24 C230.43,242.26 231.58,257.4 226.5,271 C222.59,281.46 216.81,291.5 210.14,300.8 " fill="none" id="GetShipIdleDaysOfYearUI-backto-GetShipIdleDaysOfYearController" style="stroke:#A80036;stroke-width:1.0;"/><polygon fill="#A80036" points="225.28,223.14,223.9332,232.8963,226.6668,227.9438,231.6193,230.6774,225.28,223.14" style="stroke:#A80036;stroke-width:1.0;"/><text fill="#000000" font-family="sans-serif" font-size="13" lengthAdjust="spacing" textLength="69" x="230.5" y="267.4951">Returns Info</text><!--MD5=[02b4be5268fe12dde2ec161c58bf6185]
link FleetManager to User--><path codeLine="34" d="M341.78,55.3 C363.12,81.09 397.48,122.61 420.03,149.85 " fill="none" id="FleetManager-to-User" style="stroke:#A80036;stroke-width:1.0;"/><polygon fill="#A80036" points="423.27,153.76,420.6228,144.2736,420.086,149.9049,414.4546,149.368,423.27,153.76" style="stroke:#A80036;stroke-width:1.0;"/><text fill="#000000" font-family="sans-serif" font-size="13" lengthAdjust="spacing" textLength="21" x="379.5" y="99.4951">is a</text><!--MD5=[1f12d177c84922ed4f166f09ee62ceaa]
link User to UserRole--><path codeLine="35" d="M442.5,202.1 C442.5,234.95 442.5,295.09 442.5,330.46 " fill="none" id="User-to-UserRole" style="stroke:#A80036;stroke-width:1.0;"/><polygon fill="#A80036" points="442.5,335.49,446.5,326.49,442.5,330.49,438.5,326.49,442.5,335.49" style="stroke:#A80036;stroke-width:1.0;"/><text fill="#000000" font-family="sans-serif" font-size="13" lengthAdjust="spacing" textLength="21" x="443.5" y="267.4951">has</text><!--MD5=[7d78faa832640e9a2cad68b4be04d74a]
link GetShipIdleDaysOfYearController to Company--><path codeLine="37" d="M99.87,418.35 C93.99,427.74 88.89,437.76 85.5,448 C79.79,465.26 90.67,480.67 105.07,492.69 " fill="none" id="GetShipIdleDaysOfYearController-to-Company" style="stroke:#A80036;stroke-width:1.0;"/><polygon fill="#A80036" points="109.21,495.98,104.6576,487.2464,105.2973,492.867,99.6767,493.5067,109.21,495.98" style="stroke:#A80036;stroke-width:1.0;"/><text fill="#000000" font-family="sans-serif" font-size="13" lengthAdjust="spacing" textLength="82" x="86.5" y="462.4951">Connects with</text><!--MD5=[0356051a886fb4ecc763cbfd43f3153b]
link Company to GetShipIdleDaysOfYearController--><path codeLine="38" d="M162.95,495.94 C167.19,486.88 171.38,476.21 173.5,466 C176.37,452.19 175.56,437.38 172.99,423.35 " fill="none" id="Company-to-GetShipIdleDaysOfYearController" style="stroke:#A80036;stroke-width:1.0;"/><polygon fill="#A80036" points="171.97,418.22,169.8181,427.8309,172.9533,423.1224,177.6619,426.2576,171.97,418.22" style="stroke:#A80036;stroke-width:1.0;"/><text fill="#000000" font-family="sans-serif" font-size="13" lengthAdjust="spacing" textLength="69" x="176.5" y="462.4951">Returns Info</text><!--MD5=[28fa5ca211853e28b35503d2b875b2be]
link Company to DataBase--><path codeLine="39" d="M150.5,544.03 C150.5,564.52 150.5,594.56 150.5,616.55 " fill="none" id="Company-to-DataBase" style="stroke:#A80036;stroke-width:1.0;"/><polygon fill="#A80036" points="150.5,621.67,154.5,612.67,150.5,616.67,146.5,612.67,150.5,621.67" style="stroke:#A80036;stroke-width:1.0;"/><text fill="#000000" font-family="sans-serif" font-size="13" lengthAdjust="spacing" textLength="55" x="151.5" y="588.4951">Connects</text><!--MD5=[4bcce56aef555bd953d040126942060e]
@startuml

class FleetManager{

}

class User{

}

class UserRole{

}

class Company{

}

class GetShipIdleDaysOfYearUI{
    -GetShipIdleDaysOfYearController getShipIdleDaysOfYearController
    +GetShipIdleDaysOfYearUI()
    +run()
}

class GetShipIdleDaysOfYearController{
    -Company company
    +GetShipIdleDaysOfYearController()
    +GetShipIdleDaysOfYearController(Company company)
    +getShipIdleDaysOfYearController()
    +getCompany()
}

FleetManager - -> GetShipIdleDaysOfYearUI : Access
GetShipIdleDaysOfYearUI -down-> GetShipIdleDaysOfYearController : Connects with
FleetManager - -> User : is a
User - -> UserRole : has
GetShipIdleDaysOfYearController -up-> GetShipIdleDaysOfYearUI : Returns Info
GetShipIdleDaysOfYearController - -> Company : Connects with
Company - -> GetShipIdleDaysOfYearController : Returns Info
Company - -> DataBase : Connects

@enduml

PlantUML version 1.2021.11(Sat Oct 02 14:26:11 BST 2021)
(GPL source distribution)
Java Runtime: OpenJDK Runtime Environment
JVM: OpenJDK 64-Bit Server VM
Default Encoding: Cp1252
Language: pt
Country: PT
--></g></svg>