<?xml version="1.0" encoding="UTF-8" standalone="no"?><svg xmlns="http://www.w3.org/2000/svg" xmlns:xlink="http://www.w3.org/1999/xlink" contentScriptType="application/ecmascript" contentStyleType="text/css" height="541px" preserveAspectRatio="none" style="width:1375px;height:541px;background:#FFFFFF;" version="1.1" viewBox="0 0 1375 541" width="1375px" zoomAndPan="magnify"><defs><filter height="300%" id="f1bbel8ibp811e" width="300%" x="-1" y="-1"><feGaussianBlur result="blurOut" stdDeviation="2.0"/><feColorMatrix in="blurOut" result="blurOut2" type="matrix" values="0 0 0 0 0 0 0 0 0 0 0 0 0 0 0 0 0 0 .4 0"/><feOffset dx="4.0" dy="4.0" in="blurOut2" result="blurOut3"/><feBlend in="SourceGraphic" in2="blurOut3" mode="normal"/></filter></defs><g><line style="stroke:#A80036;stroke-width:1.0;stroke-dasharray:5.0,5.0;" x1="52" x2="52" y1="89.6094" y2="456.3828"/><line style="stroke:#A80036;stroke-width:1.0;stroke-dasharray:5.0,5.0;" x1="279" x2="279" y1="89.6094" y2="456.3828"/><line style="stroke:#A80036;stroke-width:1.0;stroke-dasharray:5.0,5.0;" x1="651" x2="651" y1="89.6094" y2="456.3828"/><line style="stroke:#A80036;stroke-width:1.0;stroke-dasharray:5.0,5.0;" x1="810" x2="810" y1="89.6094" y2="456.3828"/><line style="stroke:#A80036;stroke-width:1.0;stroke-dasharray:5.0,5.0;" x1="1074" x2="1074" y1="89.6094" y2="456.3828"/><line style="stroke:#A80036;stroke-width:1.0;stroke-dasharray:5.0,5.0;" x1="1340" x2="1340" y1="328.5234" y2="456.3828"/><text fill="#000000" font-family="sans-serif" font-size="14" lengthAdjust="spacing" textLength="88" x="5" y="86.5332">FleetManager</text><ellipse cx="52" cy="15" fill="#FF0000" filter="url(#f1bbel8ibp811e)" rx="8" ry="8" style="stroke:#A80036;stroke-width:2.0;"/><path d="M52,23 L52,50 M39,31 L65,31 M52,50 L39,65 M52,50 L65,65 " fill="none" filter="url(#f1bbel8ibp811e)" style="stroke:#A80036;stroke-width:2.0;"/><text fill="#000000" font-family="sans-serif" font-size="14" lengthAdjust="spacing" textLength="88" x="5" y="469.916">FleetManager</text><ellipse cx="52" cy="482.9922" fill="#FF0000" filter="url(#f1bbel8ibp811e)" rx="8" ry="8" style="stroke:#A80036;stroke-width:2.0;"/><path d="M52,490.9922 L52,517.9922 M39,498.9922 L65,498.9922 M52,517.9922 L39,532.9922 M52,517.9922 L65,532.9922 " fill="none" filter="url(#f1bbel8ibp811e)" style="stroke:#A80036;stroke-width:2.0;"/><rect fill="#FEFECE" filter="url(#f1bbel8ibp811e)" height="31.6094" style="stroke:#A80036;stroke-width:1.5;" width="60" x="247" y="53"/><text fill="#000000" font-family="sans-serif" font-size="14" lengthAdjust="spacing" textLength="46" x="254" y="74.5332">System</text><rect fill="#FEFECE" filter="url(#f1bbel8ibp811e)" height="31.6094" style="stroke:#A80036;stroke-width:1.5;" width="60" x="247" y="455.3828"/><text fill="#000000" font-family="sans-serif" font-size="14" lengthAdjust="spacing" textLength="46" x="254" y="476.916">System</text><rect fill="#FEFECE" filter="url(#f1bbel8ibp811e)" height="31.6094" style="stroke:#A80036;stroke-width:1.5;" width="114" x="592" y="53"/><text fill="#000000" font-family="sans-serif" font-size="14" lengthAdjust="spacing" textLength="100" x="599" y="74.5332">FleetManagerUI</text><rect fill="#FEFECE" filter="url(#f1bbel8ibp811e)" height="31.6094" style="stroke:#A80036;stroke-width:1.5;" width="114" x="592" y="455.3828"/><text fill="#000000" font-family="sans-serif" font-size="14" lengthAdjust="spacing" textLength="100" x="599" y="476.916">FleetManagerUI</text><rect fill="#FEFECE" filter="url(#f1bbel8ibp811e)" height="31.6094" style="stroke:#A80036;stroke-width:1.5;" width="176" x="720" y="53"/><text fill="#000000" font-family="sans-serif" font-size="14" lengthAdjust="spacing" textLength="162" x="727" y="74.5332">GetShipIdleDaysOfYearUI</text><rect fill="#FEFECE" filter="url(#f1bbel8ibp811e)" height="31.6094" style="stroke:#A80036;stroke-width:1.5;" width="176" x="720" y="455.3828"/><text fill="#000000" font-family="sans-serif" font-size="14" lengthAdjust="spacing" textLength="162" x="727" y="476.916">GetShipIdleDaysOfYearUI</text><rect fill="#FEFECE" filter="url(#f1bbel8ibp811e)" height="31.6094" style="stroke:#A80036;stroke-width:1.5;" width="324" x="910" y="53"/><text fill="#000000" font-family="sans-serif" font-size="14" lengthAdjust="spacing" textLength="310" x="917" y="74.5332">GetSetOfMaterialsToContainerAtSevenController</text><rect fill="#FEFECE" filter="url(#f1bbel8ibp811e)" height="31.6094" style="stroke:#A80036;stroke-width:1.5;" width="324" x="910" y="455.3828"/><text fill="#000000" font-family="sans-serif" font-size="14" lengthAdjust="spacing" textLength="310" x="917" y="476.916">GetSetOfMaterialsToContainerAtSevenController</text><text fill="#000000" font-family="sans-serif" font-size="14" lengthAdjust="spacing" textLength="62" x="1306" y="469.916">DataBase</text><path d="M1322,482.9922 C1322,472.9922 1340,472.9922 1340,472.9922 C1340,472.9922 1358,472.9922 1358,482.9922 L1358,508.9922 C1358,518.9922 1340,518.9922 1340,518.9922 C1340,518.9922 1322,518.9922 1322,508.9922 L1322,482.9922 " fill="#FEFECE" filter="url(#f1bbel8ibp811e)" style="stroke:#000000;stroke-width:1.5;"/><path d="M1322,482.9922 C1322,492.9922 1340,492.9922 1340,492.9922 C1340,492.9922 1358,492.9922 1358,482.9922 " fill="none" style="stroke:#000000;stroke-width:1.5;"/><polygon fill="#A80036" points="63,117.9609,53,121.9609,63,125.9609,59,121.9609" style="stroke:#A80036;stroke-width:1.0;"/><line style="stroke:#A80036;stroke-width:1.0;stroke-dasharray:2.0,2.0;" x1="57" x2="278" y1="121.9609" y2="121.9609"/><text fill="#000000" font-family="sans-serif" font-size="13" font-weight="bold" lengthAdjust="spacing" textLength="7" x="69" y="117.1045">1</text><text fill="#000000" font-family="sans-serif" font-size="13" lengthAdjust="spacing" textLength="135" x="80" y="117.1045">Authentication Request</text><polygon fill="#A80036" points="267,148.3125,277,152.3125,267,156.3125,271,152.3125" style="stroke:#A80036;stroke-width:1.0;"/><line style="stroke:#A80036;stroke-width:1.0;" x1="52" x2="273" y1="152.3125" y2="152.3125"/><text fill="#000000" font-family="sans-serif" font-size="13" font-weight="bold" lengthAdjust="spacing" textLength="7" x="59" y="147.4561">2</text><text fill="#000000" font-family="sans-serif" font-size="13" lengthAdjust="spacing" textLength="192" x="70" y="147.4561">Another authentication Response</text><polygon fill="#A80036" points="63,178.6641,53,182.6641,63,186.6641,59,182.6641" style="stroke:#A80036;stroke-width:1.0;"/><line style="stroke:#A80036;stroke-width:1.0;stroke-dasharray:2.0,2.0;" x1="57" x2="278" y1="182.6641" y2="182.6641"/><text fill="#000000" font-family="sans-serif" font-size="13" font-weight="bold" lengthAdjust="spacing" textLength="7" x="69" y="177.8076">3</text><text fill="#000000" font-family="sans-serif" font-size="13" lengthAdjust="spacing" textLength="149" x="80" y="177.8076">Authentication successful</text><polygon fill="#A80036" points="639,209.0156,649,213.0156,639,217.0156,643,213.0156" style="stroke:#A80036;stroke-width:1.0;"/><line style="stroke:#A80036;stroke-width:1.0;stroke-dasharray:2.0,2.0;" x1="52" x2="645" y1="213.0156" y2="213.0156"/><text fill="#000000" font-family="sans-serif" font-size="13" font-weight="bold" lengthAdjust="spacing" textLength="7" x="59" y="208.1592">4</text><text fill="#000000" font-family="sans-serif" font-size="13" lengthAdjust="spacing" textLength="564" x="70" y="208.1592">Asks to know the number of days each ship has been idle since the beginning of the current year.</text><polygon fill="#A80036" points="798,239.3672,808,243.3672,798,247.3672,802,243.3672" style="stroke:#A80036;stroke-width:1.0;"/><line style="stroke:#A80036;stroke-width:1.0;stroke-dasharray:2.0,2.0;" x1="651" x2="804" y1="243.3672" y2="243.3672"/><text fill="#000000" font-family="sans-serif" font-size="13" font-weight="bold" lengthAdjust="spacing" textLength="7" x="658" y="238.5107">5</text><text fill="#000000" font-family="sans-serif" font-size="13" lengthAdjust="spacing" textLength="55" x="669" y="238.5107">Connects</text><polygon fill="#A80036" points="1062,269.7188,1072,273.7188,1062,277.7188,1066,273.7188" style="stroke:#A80036;stroke-width:1.0;"/><line style="stroke:#A80036;stroke-width:1.0;stroke-dasharray:2.0,2.0;" x1="810" x2="1068" y1="273.7188" y2="273.7188"/><text fill="#000000" font-family="sans-serif" font-size="13" font-weight="bold" lengthAdjust="spacing" textLength="7" x="817" y="268.8623">6</text><text fill="#000000" font-family="sans-serif" font-size="13" lengthAdjust="spacing" textLength="92" x="828" y="268.8623">asks for the info</text><polygon fill="#A80036" points="1294,300.0703,1304,304.0703,1294,308.0703,1298,304.0703" style="stroke:#A80036;stroke-width:1.0;"/><line style="stroke:#A80036;stroke-width:1.0;stroke-dasharray:2.0,2.0;" x1="1074" x2="1300" y1="304.0703" y2="304.0703"/><text fill="#000000" font-family="sans-serif" font-size="13" font-weight="bold" lengthAdjust="spacing" textLength="7" x="1081" y="299.2139">7</text><text fill="#000000" font-family="sans-serif" font-size="13" lengthAdjust="spacing" textLength="197" x="1092" y="299.2139">getShipIdleDaysOfYearController()</text><text fill="#000000" font-family="sans-serif" font-size="14" lengthAdjust="spacing" textLength="62" x="1306" y="342.252">DataBase</text><path d="M1322,291.7188 C1322,281.7188 1340,281.7188 1340,281.7188 C1340,281.7188 1358,281.7188 1358,291.7188 L1358,317.7188 C1358,327.7188 1340,327.7188 1340,327.7188 C1340,327.7188 1322,327.7188 1322,317.7188 L1322,291.7188 " fill="#FEFECE" filter="url(#f1bbel8ibp811e)" style="stroke:#000000;stroke-width:1.5;"/><path d="M1322,291.7188 C1322,301.7188 1340,301.7188 1340,301.7188 C1340,301.7188 1358,301.7188 1358,291.7188 " fill="none" style="stroke:#000000;stroke-width:1.5;"/><polygon fill="#A80036" points="1085,373.6797,1075,377.6797,1085,381.6797,1081,377.6797" style="stroke:#A80036;stroke-width:1.0;"/><line style="stroke:#A80036;stroke-width:1.0;stroke-dasharray:2.0,2.0;" x1="1079" x2="1339" y1="377.6797" y2="377.6797"/><text fill="#000000" font-family="sans-serif" font-size="13" font-weight="bold" lengthAdjust="spacing" textLength="7" x="1091" y="372.8232">8</text><text fill="#000000" font-family="sans-serif" font-size="13" lengthAdjust="spacing" textLength="114" x="1102" y="372.8232">Map&lt;Ship, Integer&gt;</text><polygon fill="#A80036" points="821,404.0313,811,408.0313,821,412.0313,817,408.0313" style="stroke:#A80036;stroke-width:1.0;"/><line style="stroke:#A80036;stroke-width:1.0;stroke-dasharray:2.0,2.0;" x1="815" x2="1073" y1="408.0313" y2="408.0313"/><text fill="#000000" font-family="sans-serif" font-size="13" font-weight="bold" lengthAdjust="spacing" textLength="7" x="827" y="403.1748">9</text><text fill="#000000" font-family="sans-serif" font-size="13" lengthAdjust="spacing" textLength="114" x="838" y="403.1748">Map&lt;Ship, Integer&gt;</text><polygon fill="#A80036" points="63,434.3828,53,438.3828,63,442.3828,59,438.3828" style="stroke:#A80036;stroke-width:1.0;"/><line style="stroke:#A80036;stroke-width:1.0;stroke-dasharray:2.0,2.0;" x1="57" x2="809" y1="438.3828" y2="438.3828"/><text fill="#000000" font-family="sans-serif" font-size="13" font-weight="bold" lengthAdjust="spacing" textLength="14" x="69" y="433.5264">10</text><text fill="#000000" font-family="sans-serif" font-size="13" lengthAdjust="spacing" textLength="173" x="87" y="433.5264">Delivers the information asked</text><!--MD5=[9807822babd9751fe31deac7509f6e13]
@startuml

autonumber

actor FleetManager #red

System - -> FleetManager: Authentication Request
FleetManager -> System : Another authentication Response
System - -> FleetManager : Authentication successful
FleetManager - -> FleetManagerUI : Asks to know the number of days each ship has been idle since the beginning of the current year.
FleetManagerUI - -> GetShipIdleDaysOfYearUI : Connects
GetShipIdleDaysOfYearUI - -> GetSetOfMaterialsToContainerAtSevenController : asks for the info
database       "DataBase"              as db
GetSetOfMaterialsToContainerAtSevenController - -> db** : getShipIdleDaysOfYearController()
db - -> GetSetOfMaterialsToContainerAtSevenController : Map<Ship, Integer>
GetSetOfMaterialsToContainerAtSevenController - -> GetShipIdleDaysOfYearUI : Map<Ship, Integer>
GetShipIdleDaysOfYearUI - -> FleetManager : Delivers the information asked

@enduml

PlantUML version 1.2021.11(Sat Oct 02 14:26:11 BST 2021)
(GPL source distribution)
Java Runtime: OpenJDK Runtime Environment
JVM: OpenJDK 64-Bit Server VM
Default Encoding: Cp1252
Language: pt
Country: PT
--></g></svg>