<?xml version="1.0" encoding="UTF-8" standalone="no"?><svg xmlns="http://www.w3.org/2000/svg" xmlns:xlink="http://www.w3.org/1999/xlink" contentScriptType="application/ecmascript" contentStyleType="text/css" height="346px" preserveAspectRatio="none" style="width:693px;height:346px;background:#FFFFFF;" version="1.1" viewBox="0 0 693 346" width="693px" zoomAndPan="magnify"><defs><filter height="300%" id="f1lijyorpgrczo" width="300%" x="-1" y="-1"><feGaussianBlur result="blurOut" stdDeviation="2.0"/><feColorMatrix in="blurOut" result="blurOut2" type="matrix" values="0 0 0 0 0 0 0 0 0 0 0 0 0 0 0 0 0 0 .4 0"/><feOffset dx="4.0" dy="4.0" in="blurOut2" result="blurOut3"/><feBlend in="SourceGraphic" in2="blurOut3" mode="normal"/></filter></defs><g><line style="stroke:#A80036;stroke-width:1.0;stroke-dasharray:5.0,5.0;" x1="52" x2="52" y1="89.6094" y2="261.3672"/><line style="stroke:#A80036;stroke-width:1.0;stroke-dasharray:5.0,5.0;" x1="651" x2="651" y1="89.6094" y2="261.3672"/><text fill="#000000" font-family="sans-serif" font-size="14" lengthAdjust="spacing" textLength="88" x="5" y="86.5332">FleetManager</text><ellipse cx="52" cy="15" fill="#FF0000" filter="url(#f1lijyorpgrczo)" rx="8" ry="8" style="stroke:#A80036;stroke-width:2.0;"/><path d="M52,23 L52,50 M39,31 L65,31 M52,50 L39,65 M52,50 L65,65 " fill="none" filter="url(#f1lijyorpgrczo)" style="stroke:#A80036;stroke-width:2.0;"/><text fill="#000000" font-family="sans-serif" font-size="14" lengthAdjust="spacing" textLength="88" x="5" y="274.9004">FleetManager</text><ellipse cx="52" cy="287.9766" fill="#FF0000" filter="url(#f1lijyorpgrczo)" rx="8" ry="8" style="stroke:#A80036;stroke-width:2.0;"/><path d="M52,295.9766 L52,322.9766 M39,303.9766 L65,303.9766 M52,322.9766 L39,337.9766 M52,322.9766 L65,337.9766 " fill="none" filter="url(#f1lijyorpgrczo)" style="stroke:#A80036;stroke-width:2.0;"/><rect fill="#FEFECE" filter="url(#f1lijyorpgrczo)" height="31.6094" style="stroke:#A80036;stroke-width:1.5;" width="60" x="619" y="53"/><text fill="#000000" font-family="sans-serif" font-size="14" lengthAdjust="spacing" textLength="46" x="626" y="74.5332">System</text><rect fill="#FEFECE" filter="url(#f1lijyorpgrczo)" height="31.6094" style="stroke:#A80036;stroke-width:1.5;" width="60" x="619" y="260.3672"/><text fill="#000000" font-family="sans-serif" font-size="14" lengthAdjust="spacing" textLength="46" x="626" y="281.9004">System</text><polygon fill="#A80036" points="63,117.9609,53,121.9609,63,125.9609,59,121.9609" style="stroke:#A80036;stroke-width:1.0;"/><line style="stroke:#A80036;stroke-width:1.0;stroke-dasharray:2.0,2.0;" x1="57" x2="650" y1="121.9609" y2="121.9609"/><text fill="#000000" font-family="sans-serif" font-size="13" font-weight="bold" lengthAdjust="spacing" textLength="7" x="69" y="117.1045">1</text><text fill="#000000" font-family="sans-serif" font-size="13" lengthAdjust="spacing" textLength="135" x="80" y="117.1045">Authentication Request</text><polygon fill="#A80036" points="639,148.3125,649,152.3125,639,156.3125,643,152.3125" style="stroke:#A80036;stroke-width:1.0;"/><line style="stroke:#A80036;stroke-width:1.0;" x1="52" x2="645" y1="152.3125" y2="152.3125"/><text fill="#000000" font-family="sans-serif" font-size="13" font-weight="bold" lengthAdjust="spacing" textLength="7" x="59" y="147.4561">2</text><text fill="#000000" font-family="sans-serif" font-size="13" lengthAdjust="spacing" textLength="192" x="70" y="147.4561">Another authentication Response</text><polygon fill="#A80036" points="63,178.6641,53,182.6641,63,186.6641,59,182.6641" style="stroke:#A80036;stroke-width:1.0;"/><line style="stroke:#A80036;stroke-width:1.0;stroke-dasharray:2.0,2.0;" x1="57" x2="650" y1="182.6641" y2="182.6641"/><text fill="#000000" font-family="sans-serif" font-size="13" font-weight="bold" lengthAdjust="spacing" textLength="7" x="69" y="177.8076">3</text><text fill="#000000" font-family="sans-serif" font-size="13" lengthAdjust="spacing" textLength="149" x="80" y="177.8076">Authentication successful</text><polygon fill="#A80036" points="639,209.0156,649,213.0156,639,217.0156,643,213.0156" style="stroke:#A80036;stroke-width:1.0;"/><line style="stroke:#A80036;stroke-width:1.0;stroke-dasharray:2.0,2.0;" x1="52" x2="645" y1="213.0156" y2="213.0156"/><text fill="#000000" font-family="sans-serif" font-size="13" font-weight="bold" lengthAdjust="spacing" textLength="7" x="59" y="208.1592">4</text><text fill="#000000" font-family="sans-serif" font-size="13" lengthAdjust="spacing" textLength="564" x="70" y="208.1592">Asks to know the number of days each ship has been idle since the beginning of the current year.</text><polygon fill="#A80036" points="63,239.3672,53,243.3672,63,247.3672,59,243.3672" style="stroke:#A80036;stroke-width:1.0;"/><line style="stroke:#A80036;stroke-width:1.0;stroke-dasharray:2.0,2.0;" x1="57" x2="650" y1="243.3672" y2="243.3672"/><text fill="#000000" font-family="sans-serif" font-size="13" font-weight="bold" lengthAdjust="spacing" textLength="7" x="69" y="238.5107">5</text><text fill="#000000" font-family="sans-serif" font-size="13" lengthAdjust="spacing" textLength="173" x="80" y="238.5107">Delivers the information asked</text><!--MD5=[a3e56f1aeede79ad99d28aa7c4e3f4a7]
@startuml
autonumber

actor FleetManager #red

System - -> FleetManager: Authentication Request
FleetManager -> System : Another authentication Response
System - -> FleetManager : Authentication successful
FleetManager - -> System : Asks to know the number of days each ship has been idle since the beginning of the current year.
System - -> FleetManager : Delivers the information asked

@enduml

PlantUML version 1.2021.11(Sat Oct 02 14:26:11 BST 2021)
(GPL source distribution)
Java Runtime: OpenJDK Runtime Environment
JVM: OpenJDK 64-Bit Server VM
Default Encoding: Cp1252
Language: pt
Country: PT
--></g></svg>