<?xml version="1.0" encoding="UTF-8" standalone="no"?><svg xmlns="http://www.w3.org/2000/svg" xmlns:xlink="http://www.w3.org/1999/xlink" contentScriptType="application/ecmascript" contentStyleType="text/css" height="360px" preserveAspectRatio="none" style="width:1056px;height:360px;" version="1.1" viewBox="0 0 1056 360" width="1056px" zoomAndPan="magnify"><defs><filter height="300%" id="f1xbuf1hrhiuzu" width="300%" x="-1" y="-1"><feGaussianBlur result="blurOut" stdDeviation="2.0"/><feColorMatrix in="blurOut" result="blurOut2" type="matrix" values="0 0 0 0 0 0 0 0 0 0 0 0 0 0 0 0 0 0 .4 0"/><feOffset dx="4.0" dy="4.0" in="blurOut2" result="blurOut3"/><feBlend in="SourceGraphic" in2="blurOut3" mode="normal"/></filter></defs><g><rect fill="#FFFFFF" filter="url(#f1xbuf1hrhiuzu)" height="134.3125" style="stroke: #A80036; stroke-width: 1.0;" width="10" x="383" y="119.9609"/><rect fill="#FFFFFF" filter="url(#f1xbuf1hrhiuzu)" height="30.3516" style="stroke: #A80036; stroke-width: 1.0;" width="10" x="699" y="150.3125"/><line style="stroke: #A80036; stroke-width: 1.0; stroke-dasharray: 5.0,5.0;" x1="59" x2="59" y1="87.6094" y2="272.2734"/><line style="stroke: #A80036; stroke-width: 1.0; stroke-dasharray: 5.0,5.0;" x1="387.5" x2="387.5" y1="87.6094" y2="272.2734"/><line style="stroke: #A80036; stroke-width: 1.0; stroke-dasharray: 5.0,5.0;" x1="703.5" x2="703.5" y1="87.6094" y2="272.2734"/><line style="stroke: #A80036; stroke-width: 1.0; stroke-dasharray: 5.0,5.0;" x1="1016" x2="1016" y1="205.1172" y2="272.2734"/><text fill="#000000" font-family="sans-serif" font-size="14" lengthAdjust="spacingAndGlyphs" textLength="96" x="8" y="84.5332">TrafficManager</text><ellipse cx="59" cy="13" fill="#FEFECE" filter="url(#f1xbuf1hrhiuzu)" rx="8" ry="8" style="stroke: #A80036; stroke-width: 2.0;"/><path d="M59,21 L59,48 M46,29 L72,29 M59,48 L46,63 M59,48 L72,63 " fill="none" filter="url(#f1xbuf1hrhiuzu)" style="stroke: #A80036; stroke-width: 2.0;"/><text fill="#000000" font-family="sans-serif" font-size="14" lengthAdjust="spacingAndGlyphs" textLength="96" x="8" y="285.8066">TrafficManager</text><ellipse cx="59" cy="298.8828" fill="#FEFECE" filter="url(#f1xbuf1hrhiuzu)" rx="8" ry="8" style="stroke: #A80036; stroke-width: 2.0;"/><path d="M59,306.8828 L59,333.8828 M46,314.8828 L72,314.8828 M59,333.8828 L46,348.8828 M59,333.8828 L72,348.8828 " fill="none" filter="url(#f1xbuf1hrhiuzu)" style="stroke: #A80036; stroke-width: 2.0;"/><rect fill="#FEFECE" filter="url(#f1xbuf1hrhiuzu)" height="31.6094" style="stroke: #A80036; stroke-width: 1.5;" width="277" x="247.5" y="51"/><text fill="#000000" font-family="sans-serif" font-size="14" lengthAdjust="spacingAndGlyphs" textLength="263" x="254.5" y="72.5332">:getListShipsAvailableMondayNextWeekUI</text><rect fill="#FEFECE" filter="url(#f1xbuf1hrhiuzu)" height="31.6094" style="stroke: #A80036; stroke-width: 1.5;" width="277" x="247.5" y="271.2734"/><text fill="#000000" font-family="sans-serif" font-size="14" lengthAdjust="spacingAndGlyphs" textLength="263" x="254.5" y="292.8066">:getListShipsAvailableMondayNextWeekUI</text><rect fill="#FEFECE" filter="url(#f1xbuf1hrhiuzu)" height="31.6094" style="stroke: #A80036; stroke-width: 1.5;" width="327" x="538.5" y="51"/><text fill="#000000" font-family="sans-serif" font-size="14" lengthAdjust="spacingAndGlyphs" textLength="313" x="545.5" y="72.5332">:getListShipsAvailableMondayNextWeekController</text><rect fill="#FEFECE" filter="url(#f1xbuf1hrhiuzu)" height="31.6094" style="stroke: #A80036; stroke-width: 1.5;" width="327" x="538.5" y="271.2734"/><text fill="#000000" font-family="sans-serif" font-size="14" lengthAdjust="spacingAndGlyphs" textLength="313" x="545.5" y="292.8066">:getListShipsAvailableMondayNextWeekController</text><text fill="#000000" font-family="sans-serif" font-size="14" lengthAdjust="spacingAndGlyphs" textLength="62" x="982" y="285.8066">DataBase</text><path d="M998,298.8828 C998,288.8828 1016,288.8828 1016,288.8828 C1016,288.8828 1034,288.8828 1034,298.8828 L1034,324.8828 C1034,334.8828 1016,334.8828 1016,334.8828 C1016,334.8828 998,334.8828 998,324.8828 L998,298.8828 " fill="#FEFECE" filter="url(#f1xbuf1hrhiuzu)" style="stroke: #000000; stroke-width: 1.5;"/><path d="M998,298.8828 C998,308.8828 1016,308.8828 1016,308.8828 C1016,308.8828 1034,308.8828 1034,298.8828 " fill="none" style="stroke: #000000; stroke-width: 1.5;"/><rect fill="#FFFFFF" filter="url(#f1xbuf1hrhiuzu)" height="134.3125" style="stroke: #A80036; stroke-width: 1.0;" width="10" x="383" y="119.9609"/><rect fill="#FFFFFF" filter="url(#f1xbuf1hrhiuzu)" height="30.3516" style="stroke: #A80036; stroke-width: 1.0;" width="10" x="699" y="150.3125"/><polygon fill="#A80036" points="371,115.9609,381,119.9609,371,123.9609,375,119.9609" style="stroke: #A80036; stroke-width: 1.0;"/><line style="stroke: #A80036; stroke-width: 1.0;" x1="59" x2="377" y1="119.9609" y2="119.9609"/><text fill="#000000" font-family="sans-serif" font-size="13" font-weight="bold" lengthAdjust="spacingAndGlyphs" textLength="7" x="66" y="115.1045">1</text><text fill="#000000" font-family="sans-serif" font-size="13" lengthAdjust="spacingAndGlyphs" textLength="294" x="77" y="115.1045">List of ships will be available on Monday next week</text><polygon fill="#A80036" points="687,146.3125,697,150.3125,687,154.3125,691,150.3125" style="stroke: #A80036; stroke-width: 1.0;"/><line style="stroke: #A80036; stroke-width: 1.0;" x1="393" x2="693" y1="150.3125" y2="150.3125"/><text fill="#000000" font-family="sans-serif" font-size="13" font-weight="bold" lengthAdjust="spacingAndGlyphs" textLength="7" x="400" y="145.4561">2</text><text fill="#000000" font-family="sans-serif" font-size="13" lengthAdjust="spacingAndGlyphs" textLength="238" x="411" y="145.4561">getListShipsAvailableMondayNextWeek()</text><polygon fill="#A80036" points="970,176.6641,980,180.6641,970,184.6641,974,180.6641" style="stroke: #A80036; stroke-width: 1.0;"/><line style="stroke: #A80036; stroke-width: 1.0;" x1="704" x2="976" y1="180.6641" y2="180.6641"/><text fill="#000000" font-family="sans-serif" font-size="13" font-weight="bold" lengthAdjust="spacingAndGlyphs" textLength="7" x="711" y="175.8076">3</text><text fill="#000000" font-family="sans-serif" font-size="13" lengthAdjust="spacingAndGlyphs" textLength="238" x="722" y="175.8076">getListShipsAvailableMondayNextWeek()</text><text fill="#000000" font-family="sans-serif" font-size="14" lengthAdjust="spacingAndGlyphs" textLength="62" x="982" y="218.8457">DataBase</text><path d="M998,168.3125 C998,158.3125 1016,158.3125 1016,158.3125 C1016,158.3125 1034,158.3125 1034,168.3125 L1034,194.3125 C1034,204.3125 1016,204.3125 1016,204.3125 C1016,204.3125 998,204.3125 998,194.3125 L998,168.3125 " fill="#FEFECE" filter="url(#f1xbuf1hrhiuzu)" style="stroke: #000000; stroke-width: 1.5;"/><path d="M998,168.3125 C998,178.3125 1016,178.3125 1016,178.3125 C1016,178.3125 1034,178.3125 1034,168.3125 " fill="none" style="stroke: #000000; stroke-width: 1.5;"/><polygon fill="#A80036" points="70,250.2734,60,254.2734,70,258.2734,66,254.2734" style="stroke: #A80036; stroke-width: 1.0;"/><line style="stroke: #A80036; stroke-width: 1.0; stroke-dasharray: 2.0,2.0;" x1="64" x2="387" y1="254.2734" y2="254.2734"/><text fill="#000000" font-family="sans-serif" font-size="13" font-weight="bold" lengthAdjust="spacingAndGlyphs" textLength="7" x="76" y="249.417">4</text><text fill="#000000" font-family="sans-serif" font-size="13" lengthAdjust="spacingAndGlyphs" textLength="50" x="87" y="249.417">listShips</text><!--MD5=[2e0b9127cc4e169446be7b7ce35e2336]
@startuml

autonumber

actor       TrafficManager                as tm
participant    ":getListShipsAvailableMondayNextWeekUI"         as ui
participant    ":getListShipsAvailableMondayNextWeekController" as ctrl
database       "DataBase"              as db

tm -> ui : List of ships will be available on Monday next week

activate ui

    ui -> ctrl : getListShipsAvailableMondayNextWeek()

    activate ctrl

    ctrl -> db** : getListShipsAvailableMondayNextWeek()

    deactivate ctrl


ui - -> tm : listShips

deactivate ui

@enduml

PlantUML version 1.2020.07(Sun Apr 19 12:42:40 BST 2020)
(GPL source distribution)
Java Runtime: OpenJDK Runtime Environment
JVM: OpenJDK 64-Bit Server VM
Java Version: 11.0.6+8-b765.40
Operating System: Windows 10
Default Encoding: Cp1252
Language: pt
Country: PT
--></g></svg>