<?xml version="1.0" encoding="UTF-8" standalone="no"?><svg xmlns="http://www.w3.org/2000/svg" xmlns:xlink="http://www.w3.org/1999/xlink" contentScriptType="application/ecmascript" contentStyleType="text/css" height="588px" preserveAspectRatio="none" style="width:855px;height:588px;background:#FFFFFF;" version="1.1" viewBox="0 0 855 588" width="855px" zoomAndPan="magnify"><defs><filter height="300%" id="fmyok8by0fbop" width="300%" x="-1" y="-1"><feGaussianBlur result="blurOut" stdDeviation="2.0"/><feColorMatrix in="blurOut" result="blurOut2" type="matrix" values="0 0 0 0 0 0 0 0 0 0 0 0 0 0 0 0 0 0 .4 0"/><feOffset dx="4.0" dy="4.0" in="blurOut2" result="blurOut3"/><feBlend in="SourceGraphic" in2="blurOut3" mode="normal"/></filter></defs><g><line style="stroke:#A80036;stroke-width:1.0;stroke-dasharray:5.0,5.0;" x1="46" x2="46" y1="89.6094" y2="503.0859"/><line style="stroke:#A80036;stroke-width:1.0;stroke-dasharray:5.0,5.0;" x1="273.5" x2="273.5" y1="89.6094" y2="503.0859"/><line style="stroke:#A80036;stroke-width:1.0;stroke-dasharray:5.0,5.0;" x1="363.5" x2="363.5" y1="89.6094" y2="503.0859"/><line style="stroke:#A80036;stroke-width:1.0;stroke-dasharray:5.0,5.0;" x1="574.5" x2="574.5" y1="89.6094" y2="503.0859"/><line style="stroke:#A80036;stroke-width:1.0;stroke-dasharray:5.0,5.0;" x1="820" x2="820" y1="375.2266" y2="503.0859"/><text fill="#000000" font-family="sans-serif" font-size="14" lengthAdjust="spacing" textLength="77" x="5" y="86.5332">ShipCaptain</text><ellipse cx="46.5" cy="15" fill="#FF0000" filter="url(#fmyok8by0fbop)" rx="8" ry="8" style="stroke:#A80036;stroke-width:2.0;"/><path d="M46.5,23 L46.5,50 M33.5,31 L59.5,31 M46.5,50 L33.5,65 M46.5,50 L59.5,65 " fill="none" filter="url(#fmyok8by0fbop)" style="stroke:#A80036;stroke-width:2.0;"/><text fill="#000000" font-family="sans-serif" font-size="14" lengthAdjust="spacing" textLength="77" x="5" y="516.6191">ShipCaptain</text><ellipse cx="46.5" cy="529.6953" fill="#FF0000" filter="url(#fmyok8by0fbop)" rx="8" ry="8" style="stroke:#A80036;stroke-width:2.0;"/><path d="M46.5,537.6953 L46.5,564.6953 M33.5,545.6953 L59.5,545.6953 M46.5,564.6953 L33.5,579.6953 M46.5,564.6953 L59.5,579.6953 " fill="none" filter="url(#fmyok8by0fbop)" style="stroke:#A80036;stroke-width:2.0;"/><rect fill="#FEFECE" filter="url(#fmyok8by0fbop)" height="31.6094" style="stroke:#A80036;stroke-width:1.5;" width="60" x="241.5" y="53"/><text fill="#000000" font-family="sans-serif" font-size="14" lengthAdjust="spacing" textLength="46" x="248.5" y="74.5332">System</text><rect fill="#FEFECE" filter="url(#fmyok8by0fbop)" height="31.6094" style="stroke:#A80036;stroke-width:1.5;" width="60" x="241.5" y="502.0859"/><text fill="#000000" font-family="sans-serif" font-size="14" lengthAdjust="spacing" textLength="46" x="248.5" y="523.6191">System</text><rect fill="#FEFECE" filter="url(#fmyok8by0fbop)" height="31.6094" style="stroke:#A80036;stroke-width:1.5;" width="93" x="315.5" y="53"/><text fill="#000000" font-family="sans-serif" font-size="14" lengthAdjust="spacing" textLength="79" x="322.5" y="74.5332">AuditTrailsUI</text><rect fill="#FEFECE" filter="url(#fmyok8by0fbop)" height="31.6094" style="stroke:#A80036;stroke-width:1.5;" width="93" x="315.5" y="502.0859"/><text fill="#000000" font-family="sans-serif" font-size="14" lengthAdjust="spacing" textLength="79" x="322.5" y="523.6191">AuditTrailsUI</text><rect fill="#FEFECE" filter="url(#fmyok8by0fbop)" height="31.6094" style="stroke:#A80036;stroke-width:1.5;" width="143" x="501.5" y="53"/><text fill="#000000" font-family="sans-serif" font-size="14" lengthAdjust="spacing" textLength="129" x="508.5" y="74.5332">AuditTrailsController</text><rect fill="#FEFECE" filter="url(#fmyok8by0fbop)" height="31.6094" style="stroke:#A80036;stroke-width:1.5;" width="143" x="501.5" y="502.0859"/><text fill="#000000" font-family="sans-serif" font-size="14" lengthAdjust="spacing" textLength="129" x="508.5" y="523.6191">AuditTrailsController</text><text fill="#000000" font-family="sans-serif" font-size="14" lengthAdjust="spacing" textLength="62" x="786" y="516.6191">DataBase</text><path d="M802,529.6953 C802,519.6953 820,519.6953 820,519.6953 C820,519.6953 838,519.6953 838,529.6953 L838,555.6953 C838,565.6953 820,565.6953 820,565.6953 C820,565.6953 802,565.6953 802,555.6953 L802,529.6953 " fill="#FEFECE" filter="url(#fmyok8by0fbop)" style="stroke:#000000;stroke-width:1.5;"/><path d="M802,529.6953 C802,539.6953 820,539.6953 820,539.6953 C820,539.6953 838,539.6953 838,529.6953 " fill="none" style="stroke:#000000;stroke-width:1.5;"/><polygon fill="#A80036" points="57.5,117.9609,47.5,121.9609,57.5,125.9609,53.5,121.9609" style="stroke:#A80036;stroke-width:1.0;"/><line style="stroke:#A80036;stroke-width:1.0;stroke-dasharray:2.0,2.0;" x1="51.5" x2="272.5" y1="121.9609" y2="121.9609"/><text fill="#000000" font-family="sans-serif" font-size="13" font-weight="bold" lengthAdjust="spacing" textLength="7" x="63.5" y="117.1045">1</text><text fill="#000000" font-family="sans-serif" font-size="13" lengthAdjust="spacing" textLength="135" x="74.5" y="117.1045">Authentication Request</text><polygon fill="#A80036" points="261.5,148.3125,271.5,152.3125,261.5,156.3125,265.5,152.3125" style="stroke:#A80036;stroke-width:1.0;"/><line style="stroke:#A80036;stroke-width:1.0;" x1="46.5" x2="267.5" y1="152.3125" y2="152.3125"/><text fill="#000000" font-family="sans-serif" font-size="13" font-weight="bold" lengthAdjust="spacing" textLength="7" x="53.5" y="147.4561">2</text><text fill="#000000" font-family="sans-serif" font-size="13" lengthAdjust="spacing" textLength="192" x="64.5" y="147.4561">Another authentication Response</text><polygon fill="#A80036" points="57.5,178.6641,47.5,182.6641,57.5,186.6641,53.5,182.6641" style="stroke:#A80036;stroke-width:1.0;"/><line style="stroke:#A80036;stroke-width:1.0;stroke-dasharray:2.0,2.0;" x1="51.5" x2="272.5" y1="182.6641" y2="182.6641"/><text fill="#000000" font-family="sans-serif" font-size="13" font-weight="bold" lengthAdjust="spacing" textLength="7" x="63.5" y="177.8076">3</text><text fill="#000000" font-family="sans-serif" font-size="13" lengthAdjust="spacing" textLength="149" x="74.5" y="177.8076">Authentication successful</text><polygon fill="#A80036" points="352,225.3672,362,229.3672,352,233.3672,356,229.3672" style="stroke:#A80036;stroke-width:1.0;"/><line style="stroke:#A80036;stroke-width:1.0;stroke-dasharray:2.0,2.0;" x1="46.5" x2="358" y1="229.3672" y2="229.3672"/><text fill="#000000" font-family="sans-serif" font-size="13" font-weight="bold" lengthAdjust="spacing" textLength="7" x="53.5" y="216.335">4</text><text fill="#000000" font-family="sans-serif" font-size="13" lengthAdjust="spacing" textLength="233" x="64.5" y="208.1592">I want to have access to audit trails for a</text><text fill="#000000" font-family="sans-serif" font-size="13" lengthAdjust="spacing" textLength="233" x="68.5" y="224.5107">given container of a given cargo manifest</text><polygon fill="#A80036" points="57.5,255.7188,47.5,259.7188,57.5,263.7188,53.5,259.7188" style="stroke:#A80036;stroke-width:1.0;"/><line style="stroke:#A80036;stroke-width:1.0;stroke-dasharray:2.0,2.0;" x1="51.5" x2="363" y1="259.7188" y2="259.7188"/><text fill="#000000" font-family="sans-serif" font-size="13" font-weight="bold" lengthAdjust="spacing" textLength="7" x="63.5" y="254.8623">5</text><text fill="#000000" font-family="sans-serif" font-size="13" lengthAdjust="spacing" textLength="267" x="74.5" y="254.8623">Asks for the Cargo Manifest and the Container</text><polygon fill="#A80036" points="352,286.0703,362,290.0703,352,294.0703,356,290.0703" style="stroke:#A80036;stroke-width:1.0;"/><line style="stroke:#A80036;stroke-width:1.0;stroke-dasharray:2.0,2.0;" x1="46.5" x2="358" y1="290.0703" y2="290.0703"/><text fill="#000000" font-family="sans-serif" font-size="13" font-weight="bold" lengthAdjust="spacing" textLength="7" x="53.5" y="285.2139">6</text><text fill="#000000" font-family="sans-serif" font-size="13" lengthAdjust="spacing" textLength="135" x="64.5" y="285.2139">Inserts the wanted data</text><polygon fill="#A80036" points="563,316.4219,573,320.4219,563,324.4219,567,320.4219" style="stroke:#A80036;stroke-width:1.0;"/><line style="stroke:#A80036;stroke-width:1.0;stroke-dasharray:2.0,2.0;" x1="364" x2="569" y1="320.4219" y2="320.4219"/><text fill="#000000" font-family="sans-serif" font-size="13" font-weight="bold" lengthAdjust="spacing" textLength="7" x="371" y="315.5654">7</text><text fill="#000000" font-family="sans-serif" font-size="13" lengthAdjust="spacing" textLength="176" x="382" y="315.5654">getAuditTrails(container,cargo)</text><polygon fill="#A80036" points="774,346.7734,784,350.7734,774,354.7734,778,350.7734" style="stroke:#A80036;stroke-width:1.0;"/><line style="stroke:#A80036;stroke-width:1.0;stroke-dasharray:2.0,2.0;" x1="575" x2="780" y1="350.7734" y2="350.7734"/><text fill="#000000" font-family="sans-serif" font-size="13" font-weight="bold" lengthAdjust="spacing" textLength="7" x="582" y="345.917">8</text><text fill="#000000" font-family="sans-serif" font-size="13" lengthAdjust="spacing" textLength="176" x="593" y="345.917">getAuditTrails(container,cargo)</text><text fill="#000000" font-family="sans-serif" font-size="14" lengthAdjust="spacing" textLength="62" x="786" y="388.9551">DataBase</text><path d="M802,338.4219 C802,328.4219 820,328.4219 820,328.4219 C820,328.4219 838,328.4219 838,338.4219 L838,364.4219 C838,374.4219 820,374.4219 820,374.4219 C820,374.4219 802,374.4219 802,364.4219 L802,338.4219 " fill="#FEFECE" filter="url(#fmyok8by0fbop)" style="stroke:#000000;stroke-width:1.5;"/><path d="M802,338.4219 C802,348.4219 820,348.4219 820,348.4219 C820,348.4219 838,348.4219 838,338.4219 " fill="none" style="stroke:#000000;stroke-width:1.5;"/><polygon fill="#A80036" points="586,420.3828,576,424.3828,586,428.3828,582,424.3828" style="stroke:#A80036;stroke-width:1.0;"/><line style="stroke:#A80036;stroke-width:1.0;stroke-dasharray:2.0,2.0;" x1="580" x2="819" y1="424.3828" y2="424.3828"/><text fill="#000000" font-family="sans-serif" font-size="13" font-weight="bold" lengthAdjust="spacing" textLength="7" x="592" y="419.5264">9</text><text fill="#000000" font-family="sans-serif" font-size="13" lengthAdjust="spacing" textLength="95" x="603" y="419.5264">list of operations</text><polygon fill="#A80036" points="375,450.7344,365,454.7344,375,458.7344,371,454.7344" style="stroke:#A80036;stroke-width:1.0;"/><line style="stroke:#A80036;stroke-width:1.0;stroke-dasharray:2.0,2.0;" x1="369" x2="574" y1="454.7344" y2="454.7344"/><text fill="#000000" font-family="sans-serif" font-size="13" font-weight="bold" lengthAdjust="spacing" textLength="14" x="381" y="449.8779">10</text><text fill="#000000" font-family="sans-serif" font-size="13" lengthAdjust="spacing" textLength="95" x="399" y="449.8779">list of operations</text><polygon fill="#A80036" points="57.5,481.0859,47.5,485.0859,57.5,489.0859,53.5,485.0859" style="stroke:#A80036;stroke-width:1.0;"/><line style="stroke:#A80036;stroke-width:1.0;stroke-dasharray:2.0,2.0;" x1="51.5" x2="363" y1="485.0859" y2="485.0859"/><text fill="#000000" font-family="sans-serif" font-size="13" font-weight="bold" lengthAdjust="spacing" textLength="14" x="63.5" y="480.2295">11</text><text fill="#000000" font-family="sans-serif" font-size="13" lengthAdjust="spacing" textLength="149" x="81.5" y="480.2295">Displays list of operations</text><!--MD5=[fbf0deb58550e51f4fbf61e3651ad259]
@startuml
'https://plantuml.com/sequence-diagram

autonumber
actor ShipCaptain #red

System - -> ShipCaptain: Authentication Request
ShipCaptain -> System : Another authentication Response
System - -> ShipCaptain : Authentication successful
ShipCaptain - -> AuditTrailsUI : I want to have access to audit trails for a \n given container of a given cargo manifest
AuditTrailsUI - -> ShipCaptain : Asks for the Cargo Manifest and the Container
ShipCaptain - -> AuditTrailsUI : Inserts the wanted data
AuditTrailsUI - -> AuditTrailsController : getAuditTrails(container,cargo)
database       "DataBase"              as db
AuditTrailsController - -> db** :  getAuditTrails(container,cargo)
db - -> AuditTrailsController : list of operations
AuditTrailsController - -> AuditTrailsUI : list of operations
AuditTrailsUI - -> ShipCaptain : Displays list of operations
@enduml

@startuml

autonumber
actor ShipCaptain #red

System - -> ShipCaptain: Authentication Request
ShipCaptain -> System : Another authentication Response
System - -> ShipCaptain : Authentication successful
ShipCaptain - -> AuditTrailsUI : I want to have access to audit trails for a \n given container of a given cargo manifest
AuditTrailsUI - -> ShipCaptain : Asks for the Cargo Manifest and the Container
ShipCaptain - -> AuditTrailsUI : Inserts the wanted data
AuditTrailsUI - -> AuditTrailsController : getAuditTrails(container,cargo)
database       "DataBase"              as db
AuditTrailsController - -> db** :  getAuditTrails(container,cargo)
db - -> AuditTrailsController : list of operations
AuditTrailsController - -> AuditTrailsUI : list of operations
AuditTrailsUI - -> ShipCaptain : Displays list of operations
@enduml

PlantUML version 1.2021.11(Sat Oct 02 14:26:11 BST 2021)
(GPL source distribution)
Java Runtime: OpenJDK Runtime Environment
JVM: OpenJDK 64-Bit Server VM
Default Encoding: Cp1252
Language: pt
Country: PT
--></g></svg>