<?xml version="1.0" encoding="UTF-8" standalone="no"?><svg xmlns="http://www.w3.org/2000/svg" xmlns:xlink="http://www.w3.org/1999/xlink" contentScriptType="application/ecmascript" contentStyleType="text/css" height="101px" preserveAspectRatio="none" style="width:611px;height:101px;" version="1.1" viewBox="0 0 611 101" width="611px" zoomAndPan="magnify"><defs><filter height="300%" id="f1moz6c69memar" width="300%" x="-1" y="-1"><feGaussianBlur result="blurOut" stdDeviation="2.0"/><feColorMatrix in="blurOut" result="blurOut2" type="matrix" values="0 0 0 0 0 0 0 0 0 0 0 0 0 0 0 0 0 0 .4 0"/><feOffset dx="4.0" dy="4.0" in="blurOut2" result="blurOut3"/><feBlend in="SourceGraphic" in2="blurOut3" mode="normal"/></filter></defs><g><!--MD5=[97ab183161fd5d1db7fba7485cf76add]
entity Admin--><ellipse cx="42.5" cy="17.5" fill="#FEFECE" filter="url(#f1moz6c69memar)" rx="8" ry="8" style="stroke: #A80036; stroke-width: 1.5;"/><path d="M42.5,25.5 L42.5,52.5 M29.5,33.5 L55.5,33.5 M42.5,52.5 L29.5,67.5 M42.5,52.5 L55.5,67.5 " fill="none" filter="url(#f1moz6c69memar)" style="stroke: #A80036; stroke-width: 1.5;"/><text fill="#000000" font-family="sans-serif" font-size="14" lengthAdjust="spacingAndGlyphs" textLength="73" x="6" y="87.5332">Main Admin</text><!--MD5=[76e0c04a1766b72b0994a1178be1f4e5]
entity PortManager--><ellipse cx="333.5" cy="17.5" fill="#FEFECE" filter="url(#f1moz6c69memar)" rx="8" ry="8" style="stroke: #A80036; stroke-width: 1.5;"/><path d="M333.5,25.5 L333.5,52.5 M320.5,33.5 L346.5,33.5 M333.5,52.5 L320.5,67.5 M333.5,52.5 L346.5,67.5 " fill="none" filter="url(#f1moz6c69memar)" style="stroke: #A80036; stroke-width: 1.5;"/><text fill="#000000" font-family="sans-serif" font-size="14" lengthAdjust="spacingAndGlyphs" textLength="86" x="290.5" y="87.5332">Port Manager</text><ellipse cx="184.3726" cy="49.4745" fill="#FEFECE" filter="url(#f1moz6c69memar)" rx="70.3726" ry="16.4745" style="stroke: #A80036; stroke-width: 1.5;"/><text fill="#000000" font-family="sans-serif" font-size="14" lengthAdjust="spacingAndGlyphs" textLength="102" x="133.3726" y="54.7792">Regist new Staff</text><ellipse cx="506.313" cy="49.2626" fill="#FEFECE" filter="url(#f1moz6c69memar)" rx="94.313" ry="21.2626" style="stroke: #A80036; stroke-width: 1.5;"/><text fill="#000000" font-family="sans-serif" font-size="14" lengthAdjust="spacingAndGlyphs" textLength="160" x="426.313" y="54.5673">Import Ports from a txt file</text><!--MD5=[e7a0d0f4fa0cf58bcb7420c86b20f03c]
link Admin to Regist new Staff--><path d="M79.1094,49.5 C88.9254,49.5 98.7415,49.5 108.558,49.5 " fill="none" id="Admin-&gt;Regist new Staff" style="stroke: #A80036; stroke-width: 1.0;"/><polygon fill="#A80036" points="113.691,49.5,104.691,45.5,108.691,49.5,104.691,53.5,113.691,49.5" style="stroke: #A80036; stroke-width: 1.0;"/><!--MD5=[212105fd826ae578b9981057af971c28]
link PortManager to Import Ports from a txt file--><path d="M376.75,49.5 C386.749,49.5 396.748,49.5 406.746,49.5 " fill="none" id="PortManager-&gt;Import Ports from a txt file" style="stroke: #A80036; stroke-width: 1.0;"/><polygon fill="#A80036" points="411.975,49.5,402.975,45.5,406.975,49.5,402.975,53.5,411.975,49.5" style="stroke: #A80036; stroke-width: 1.0;"/><!--MD5=[e0de91a4003a5a694184dcf4997233b1]
@startuml

:Main Admin: as Admin
:Port Manager: as PortManager


Admin -> (Regist new Staff)
PortManager -> (Import Ports from a txt file)


@enduml

PlantUML version 1.2020.07(Sun Apr 19 12:42:40 BST 2020)
(GPL source distribution)
Java Runtime: OpenJDK Runtime Environment
JVM: OpenJDK 64-Bit Server VM
Java Version: 11.0.6+8-b765.40
Operating System: Windows 10
Default Encoding: Cp1252
Language: pt
Country: PT
--></g></svg>