<?xml version="1.0" encoding="UTF-8" standalone="no"?><svg xmlns="http://www.w3.org/2000/svg" xmlns:xlink="http://www.w3.org/1999/xlink" contentScriptType="application/ecmascript" contentStyleType="text/css" height="92px" preserveAspectRatio="none" style="width:632px;height:92px;background:#FFFFFF;" version="1.1" viewBox="0 0 632 92" width="632px" zoomAndPan="magnify"><defs><filter height="300%" id="f1moz6c69memar" width="300%" x="-1" y="-1"><feGaussianBlur result="blurOut" stdDeviation="2.0"/><feColorMatrix in="blurOut" result="blurOut2" type="matrix" values="0 0 0 0 0 0 0 0 0 0 0 0 0 0 0 0 0 0 .4 0"/><feOffset dx="4.0" dy="4.0" in="blurOut2" result="blurOut3"/><feBlend in="SourceGraphic" in2="blurOut3" mode="normal"/></filter></defs><g><!--MD5=[97ab183161fd5d1db7fba7485cf76add]
entity Admin--><ellipse cx="42.5" cy="14" fill="#FEFECE" filter="url(#f1moz6c69memar)" rx="8" ry="8" style="stroke:#A80036;stroke-width:1.5;"/><path d="M42.5,22 L42.5,49 M29.5,30 L55.5,30 M42.5,49 L29.5,64 M42.5,49 L55.5,64 " fill="none" filter="url(#f1moz6c69memar)" style="stroke:#A80036;stroke-width:1.5;"/><text fill="#000000" font-family="sans-serif" font-size="14" lengthAdjust="spacing" textLength="73" x="6" y="84.0332">Main Admin</text><!--MD5=[76e0c04a1766b72b0994a1178be1f4e5]
entity PortManager--><ellipse cx="342.5" cy="14" fill="#FEFECE" filter="url(#f1moz6c69memar)" rx="8" ry="8" style="stroke:#A80036;stroke-width:1.5;"/><path d="M342.5,22 L342.5,49 M329.5,30 L355.5,30 M342.5,49 L329.5,64 M342.5,49 L355.5,64 " fill="none" filter="url(#f1moz6c69memar)" style="stroke:#A80036;stroke-width:1.5;"/><text fill="#000000" font-family="sans-serif" font-size="14" lengthAdjust="spacing" textLength="86" x="299.5" y="84.0332">Port Manager</text><ellipse cx="189.7256" cy="45.9451" fill="#FEFECE" filter="url(#f1moz6c69memar)" rx="75.2256" ry="17.4451" style="stroke:#A80036;stroke-width:1.5;"/><text fill="#000000" font-family="sans-serif" font-size="14" lengthAdjust="spacing" textLength="102" x="135.7256" y="50.4617">Regist new Staff</text><ellipse cx="520.613" cy="45.8226" fill="#FEFECE" filter="url(#f1moz6c69memar)" rx="99.613" ry="22.3226" style="stroke:#A80036;stroke-width:1.5;"/><text fill="#000000" font-family="sans-serif" font-size="14" lengthAdjust="spacing" textLength="160" x="440.613" y="49.5511">Import Ports from a txt file</text><!--MD5=[e7a0d0f4fa0cf58bcb7420c86b20f03c]
link Admin to Regist new Staff--><path d="M79.25,46 C89.15,46 99.05,46 108.96,46 " fill="none" id="Admin-to-Regist new Staff" style="stroke:#A80036;stroke-width:1.0;"/><polygon fill="#A80036" points="114.13,46,105.13,42,109.13,46,105.13,50,114.13,46" style="stroke:#A80036;stroke-width:1.0;"/><!--MD5=[212105fd826ae578b9981057af971c28]
link PortManager to Import Ports from a txt file--><path d="M385.61,46 C395.63,46 405.65,46 415.67,46 " fill="none" id="PortManager-to-Import Ports from a txt file" style="stroke:#A80036;stroke-width:1.0;"/><polygon fill="#A80036" points="420.91,46,411.91,42,415.91,46,411.91,50,420.91,46" style="stroke:#A80036;stroke-width:1.0;"/><!--MD5=[510350982e1587a801ac9414d030b3b7]
@startuml
'https://plantuml.com/use-case-diagram

:Main Admin: as Admin
:Port Manager: as PortManager


Admin -> (Regist new Staff)
PortManager -> (Import Ports from a txt file)


@enduml

@startuml

:Main Admin: as Admin
:Port Manager: as PortManager


Admin -> (Regist new Staff)
PortManager -> (Import Ports from a txt file)


@enduml

PlantUML version 1.2021.11(Sat Oct 02 14:26:11 BST 2021)
(GPL source distribution)
Java Runtime: OpenJDK Runtime Environment
JVM: OpenJDK 64-Bit Server VM
Default Encoding: Cp1252
Language: pt
Country: PT
--></g></svg>