<?xml version="1.0" encoding="UTF-8" standalone="no"?><svg xmlns="http://www.w3.org/2000/svg" xmlns:xlink="http://www.w3.org/1999/xlink" contentScriptType="application/ecmascript" contentStyleType="text/css" height="276px" preserveAspectRatio="none" style="width:158px;height:276px;" version="1.1" viewBox="0 0 158 276" width="158px" zoomAndPan="magnify"><defs><filter height="300%" id="f1fllx3lru5nfe" width="300%" x="-1" y="-1"><feGaussianBlur result="blurOut" stdDeviation="2.0"/><feColorMatrix in="blurOut" result="blurOut2" type="matrix" values="0 0 0 0 0 0 0 0 0 0 0 0 0 0 0 0 0 0 .4 0"/><feOffset dx="4.0" dy="4.0" in="blurOut2" result="blurOut3"/><feBlend in="SourceGraphic" in2="blurOut3" mode="normal"/></filter></defs><g><!--MD5=[9ea295c6659471deb68b859ad42fbdcf]
class PortAndWareHouse--><rect fill="#FEFECE" filter="url(#f1fllx3lru5nfe)" height="131.0156" id="PortAndWareHouse" style="stroke: #A80036; stroke-width: 1.5;" width="141" x="6" y="134"/><ellipse cx="21" cy="150" fill="#ADD1B2" rx="11" ry="11" style="stroke: #A80036; stroke-width: 1.0;"/><path d="M23,146.5 Q23.2031,146 23.4375,145.75 Q23.6719,145.5 23.9375,145.5 Q24.4063,145.5 24.7031,145.7813 Q25,146.0625 25,146.7188 L25,148.2813 Q25,148.9375 24.7188,149.2188 Q24.4375,149.5 24,149.5 Q23.6094,149.5 23.3594,149.3281 Q23.1094,149.1563 23,148.7031 Q22.9531,148.3906 22.7813,148.2188 Q22.4688,147.8906 21.9063,147.7031 Q21.3438,147.5 20.7813,147.5 Q20.0781,147.5 19.4844,147.7813 Q18.9063,148.0625 18.4531,148.6875 Q18,149.3125 18,150.1719 L18,151.0938 Q18,152.125 18.8438,152.8125 Q19.6875,153.5 21.1875,153.5 Q22.0781,153.5 22.7031,153.2969 Q23.0625,153.1875 23.4688,152.8281 Q23.7344,152.625 23.875,152.5625 Q24.0156,152.5 24.1875,152.5 Q24.5156,152.5 24.75,152.7656 Q25,153.0156 25,153.375 Q25,153.7188 24.6563,154.125 Q24.1563,154.7188 23.3594,155.0469 Q22.3125,155.5 21.0313,155.5 Q19.5313,155.5 18.3281,154.9063 Q17.3594,154.4375 16.6719,153.4219 Q16,152.4063 16,151.2031 L16,150.1094 Q16,148.8594 16.5938,147.7656 Q17.2031,146.6719 18.25,146.0938 Q19.3125,145.5 20.5,145.5 Q21.2188,145.5 21.8438,145.75 Q22.4688,146 23,146.5 Z "/><text fill="#000000" font-family="sans-serif" font-size="12" lengthAdjust="spacingAndGlyphs" textLength="109" x="35" y="154.9102">PortAndWareHouse</text><line style="stroke: #A80036; stroke-width: 1.5;" x1="7" x2="146" y1="166" y2="166"/><rect fill="none" height="6" style="stroke: #C82930; stroke-width: 1.0;" width="6" x="14" y="174"/><text fill="#000000" font-family="sans-serif" font-size="11" lengthAdjust="spacingAndGlyphs" textLength="75" x="26" y="181.4189">String continent</text><rect fill="none" height="6" style="stroke: #C82930; stroke-width: 1.0;" width="6" x="14" y="187.8359"/><text fill="#000000" font-family="sans-serif" font-size="11" lengthAdjust="spacingAndGlyphs" textLength="68" x="26" y="195.2549">String country</text><rect fill="none" height="6" style="stroke: #C82930; stroke-width: 1.0;" width="6" x="14" y="201.6719"/><text fill="#000000" font-family="sans-serif" font-size="11" lengthAdjust="spacingAndGlyphs" textLength="47" x="26" y="209.0908">int code &lt;</text><text fill="#000000" font-family="sans-serif" font-size="11" font-weight="bold" lengthAdjust="spacingAndGlyphs" textLength="20" x="73" y="209.0908">PK&gt;</text><rect fill="none" height="6" style="stroke: #C82930; stroke-width: 1.0;" width="6" x="14" y="215.5078"/><text fill="#000000" font-family="sans-serif" font-size="11" lengthAdjust="spacingAndGlyphs" textLength="50" x="26" y="222.9268">String port</text><rect fill="none" height="6" style="stroke: #C82930; stroke-width: 1.0;" width="6" x="14" y="229.3438"/><text fill="#000000" font-family="sans-serif" font-size="11" lengthAdjust="spacingAndGlyphs" textLength="46" x="26" y="236.7627">double lat</text><rect fill="none" height="6" style="stroke: #C82930; stroke-width: 1.0;" width="6" x="14" y="243.1797"/><text fill="#000000" font-family="sans-serif" font-size="11" lengthAdjust="spacingAndGlyphs" textLength="49" x="26" y="250.5986">double log</text><line style="stroke: #A80036; stroke-width: 1.5;" x1="7" x2="146" y1="257.0156" y2="257.0156"/><!--MD5=[99d8f1361a72f685c413d1fd21efef1c]
class PortManager--><rect fill="#FEFECE" filter="url(#f1fllx3lru5nfe)" height="48" id="PortManager" style="stroke: #A80036; stroke-width: 1.5;" width="102" x="25.5" y="8"/><ellipse cx="40.5" cy="24" fill="#ADD1B2" rx="11" ry="11" style="stroke: #A80036; stroke-width: 1.0;"/><path d="M42.5,20.5 Q42.7031,20 42.9375,19.75 Q43.1719,19.5 43.4375,19.5 Q43.9063,19.5 44.2031,19.7813 Q44.5,20.0625 44.5,20.7188 L44.5,22.2813 Q44.5,22.9375 44.2188,23.2188 Q43.9375,23.5 43.5,23.5 Q43.1094,23.5 42.8594,23.3281 Q42.6094,23.1563 42.5,22.7031 Q42.4531,22.3906 42.2813,22.2188 Q41.9688,21.8906 41.4063,21.7031 Q40.8438,21.5 40.2813,21.5 Q39.5781,21.5 38.9844,21.7813 Q38.4063,22.0625 37.9531,22.6875 Q37.5,23.3125 37.5,24.1719 L37.5,25.0938 Q37.5,26.125 38.3438,26.8125 Q39.1875,27.5 40.6875,27.5 Q41.5781,27.5 42.2031,27.2969 Q42.5625,27.1875 42.9688,26.8281 Q43.2344,26.625 43.375,26.5625 Q43.5156,26.5 43.6875,26.5 Q44.0156,26.5 44.25,26.7656 Q44.5,27.0156 44.5,27.375 Q44.5,27.7188 44.1563,28.125 Q43.6563,28.7188 42.8594,29.0469 Q41.8125,29.5 40.5313,29.5 Q39.0313,29.5 37.8281,28.9063 Q36.8594,28.4375 36.1719,27.4219 Q35.5,26.4063 35.5,25.2031 L35.5,24.1094 Q35.5,22.8594 36.0938,21.7656 Q36.7031,20.6719 37.75,20.0938 Q38.8125,19.5 40,19.5 Q40.7188,19.5 41.3438,19.75 Q41.9688,20 42.5,20.5 Z "/><text fill="#000000" font-family="sans-serif" font-size="12" lengthAdjust="spacingAndGlyphs" textLength="70" x="54.5" y="28.9102">PortManager</text><line style="stroke: #A80036; stroke-width: 1.5;" x1="26.5" x2="126.5" y1="40" y2="40"/><line style="stroke: #A80036; stroke-width: 1.5;" x1="26.5" x2="126.5" y1="48" y2="48"/><!--MD5=[b06f6aa847c114051fba3825aeee7779]
link PortManager to PortAndWareHouse--><path d="M76.5,56.012 C76.5,74.914 76.5,102.719 76.5,128.761 " fill="none" id="PortManager-&gt;PortAndWareHouse" style="stroke: #A80036; stroke-width: 1.0;"/><polygon fill="#A80036" points="76.5,133.943,80.5,124.943,76.5,128.943,72.5,124.943,76.5,133.943" style="stroke: #A80036; stroke-width: 1.0;"/><text fill="#000000" font-family="sans-serif" font-size="13" lengthAdjust="spacingAndGlyphs" textLength="46" x="77.5" y="100.4951">controls</text><!--MD5=[cb246aa149be88be4d12bf1f345ff66a]
@startuml

class PortAndWareHouse{
    -String continent
    -String country
    -int code <<b>PK>
    -String port
    -double lat
    -double log
}

class PortManager



PortManager - -> PortAndWareHouse : controls

@enduml

PlantUML version 1.2020.07(Sun Apr 19 12:42:40 BST 2020)
(GPL source distribution)
Java Runtime: OpenJDK Runtime Environment
JVM: OpenJDK 64-Bit Server VM
Java Version: 11.0.6+8-b765.40
Operating System: Windows 10
Default Encoding: Cp1252
Language: pt
Country: PT
--></g></svg>