<?xml version="1.0" encoding="UTF-8" standalone="no"?><svg xmlns="http://www.w3.org/2000/svg" xmlns:xlink="http://www.w3.org/1999/xlink" contentScriptType="application/ecmascript" contentStyleType="text/css" height="278px" preserveAspectRatio="none" style="width:162px;height:278px;background:#FFFFFF;" version="1.1" viewBox="0 0 162 278" width="162px" zoomAndPan="magnify"><defs><filter height="300%" id="f1fllx3lru5nfe" width="300%" x="-1" y="-1"><feGaussianBlur result="blurOut" stdDeviation="2.0"/><feColorMatrix in="blurOut" result="blurOut2" type="matrix" values="0 0 0 0 0 0 0 0 0 0 0 0 0 0 0 0 0 0 .4 0"/><feOffset dx="4.0" dy="4.0" in="blurOut2" result="blurOut3"/><feBlend in="SourceGraphic" in2="blurOut3" mode="normal"/></filter></defs><g><!--MD5=[9ea295c6659471deb68b859ad42fbdcf]
class PortAndWareHouse--><rect codeLine="3" fill="#FEFECE" filter="url(#f1fllx3lru5nfe)" height="131.0156" id="PortAndWareHouse" style="stroke:#A80036;stroke-width:1.5;" width="141" x="7" y="133"/><ellipse cx="22" cy="149" fill="#ADD1B2" rx="11" ry="11" style="stroke:#A80036;stroke-width:1.0;"/><path d="M24,145.5 Q24.2031,145 24.4375,144.75 Q24.6719,144.5 24.9375,144.5 Q25.4063,144.5 25.7031,144.7813 Q26,145.0625 26,145.7188 L26,147.2813 Q26,147.9375 25.7188,148.2188 Q25.4375,148.5 25,148.5 Q24.6094,148.5 24.3594,148.3281 Q24.1094,148.1563 24,147.7031 Q23.9531,147.3906 23.7813,147.2188 Q23.4688,146.8906 22.9063,146.7031 Q22.3438,146.5 21.7813,146.5 Q21.0781,146.5 20.4844,146.7813 Q19.9063,147.0625 19.4531,147.6875 Q19,148.3125 19,149.1719 L19,150.0938 Q19,151.125 19.8438,151.8125 Q20.6875,152.5 22.1875,152.5 Q23.0781,152.5 23.7031,152.2969 Q24.0625,152.1875 24.4688,151.8281 Q24.7344,151.625 24.875,151.5625 Q25.0156,151.5 25.1875,151.5 Q25.5156,151.5 25.75,151.7656 Q26,152.0156 26,152.375 Q26,152.7188 25.6563,153.125 Q25.1563,153.7188 24.3594,154.0469 Q23.3125,154.5 22.0313,154.5 Q20.5313,154.5 19.3281,153.9063 Q18.3594,153.4375 17.6719,152.4219 Q17,151.4063 17,150.2031 L17,149.1094 Q17,147.8594 17.5938,146.7656 Q18.2031,145.6719 19.25,145.0938 Q20.3125,144.5 21.5,144.5 Q22.2188,144.5 22.8438,144.75 Q23.4688,145 24,145.5 Z " fill="#000000"/><text fill="#000000" font-family="sans-serif" font-size="12" lengthAdjust="spacing" textLength="109" x="36" y="153.9102">PortAndWareHouse</text><line style="stroke:#A80036;stroke-width:1.5;" x1="8" x2="147" y1="165" y2="165"/><rect fill="none" height="6" style="stroke:#C82930;stroke-width:1.0;" width="6" x="15" y="173"/><text fill="#000000" font-family="sans-serif" font-size="11" lengthAdjust="spacing" textLength="75" x="27" y="180.4189">String continent</text><rect fill="none" height="6" style="stroke:#C82930;stroke-width:1.0;" width="6" x="15" y="186.8359"/><text fill="#000000" font-family="sans-serif" font-size="11" lengthAdjust="spacing" textLength="68" x="27" y="194.2549">String country</text><rect fill="none" height="6" style="stroke:#C82930;stroke-width:1.0;" width="6" x="15" y="200.6719"/><text fill="#000000" font-family="sans-serif" font-size="11" lengthAdjust="spacing" textLength="47" x="27" y="208.0908">int code &lt;</text><text fill="#000000" font-family="sans-serif" font-size="11" font-weight="bold" lengthAdjust="spacing" textLength="20" x="74" y="208.0908">PK&gt;</text><rect fill="none" height="6" style="stroke:#C82930;stroke-width:1.0;" width="6" x="15" y="214.5078"/><text fill="#000000" font-family="sans-serif" font-size="11" lengthAdjust="spacing" textLength="50" x="27" y="221.9268">String port</text><rect fill="none" height="6" style="stroke:#C82930;stroke-width:1.0;" width="6" x="15" y="228.3438"/><text fill="#000000" font-family="sans-serif" font-size="11" lengthAdjust="spacing" textLength="46" x="27" y="235.7627">double lat</text><rect fill="none" height="6" style="stroke:#C82930;stroke-width:1.0;" width="6" x="15" y="242.1797"/><text fill="#000000" font-family="sans-serif" font-size="11" lengthAdjust="spacing" textLength="49" x="27" y="249.5986">double log</text><line style="stroke:#A80036;stroke-width:1.5;" x1="8" x2="147" y1="256.0156" y2="256.0156"/><!--MD5=[99d8f1361a72f685c413d1fd21efef1c]
class PortManager--><rect codeLine="12" fill="#FEFECE" filter="url(#f1fllx3lru5nfe)" height="48" id="PortManager" style="stroke:#A80036;stroke-width:1.5;" width="102" x="26.5" y="7"/><ellipse cx="41.5" cy="23" fill="#ADD1B2" rx="11" ry="11" style="stroke:#A80036;stroke-width:1.0;"/><path d="M43.5,19.5 Q43.7031,19 43.9375,18.75 Q44.1719,18.5 44.4375,18.5 Q44.9063,18.5 45.2031,18.7813 Q45.5,19.0625 45.5,19.7188 L45.5,21.2813 Q45.5,21.9375 45.2188,22.2188 Q44.9375,22.5 44.5,22.5 Q44.1094,22.5 43.8594,22.3281 Q43.6094,22.1563 43.5,21.7031 Q43.4531,21.3906 43.2813,21.2188 Q42.9688,20.8906 42.4063,20.7031 Q41.8438,20.5 41.2813,20.5 Q40.5781,20.5 39.9844,20.7813 Q39.4063,21.0625 38.9531,21.6875 Q38.5,22.3125 38.5,23.1719 L38.5,24.0938 Q38.5,25.125 39.3438,25.8125 Q40.1875,26.5 41.6875,26.5 Q42.5781,26.5 43.2031,26.2969 Q43.5625,26.1875 43.9688,25.8281 Q44.2344,25.625 44.375,25.5625 Q44.5156,25.5 44.6875,25.5 Q45.0156,25.5 45.25,25.7656 Q45.5,26.0156 45.5,26.375 Q45.5,26.7188 45.1563,27.125 Q44.6563,27.7188 43.8594,28.0469 Q42.8125,28.5 41.5313,28.5 Q40.0313,28.5 38.8281,27.9063 Q37.8594,27.4375 37.1719,26.4219 Q36.5,25.4063 36.5,24.2031 L36.5,23.1094 Q36.5,21.8594 37.0938,20.7656 Q37.7031,19.6719 38.75,19.0938 Q39.8125,18.5 41,18.5 Q41.7188,18.5 42.3438,18.75 Q42.9688,19 43.5,19.5 Z " fill="#000000"/><text fill="#000000" font-family="sans-serif" font-size="12" lengthAdjust="spacing" textLength="70" x="55.5" y="27.9102">PortManager</text><line style="stroke:#A80036;stroke-width:1.5;" x1="27.5" x2="127.5" y1="39" y2="39"/><line style="stroke:#A80036;stroke-width:1.5;" x1="27.5" x2="127.5" y1="47" y2="47"/><!--MD5=[b06f6aa847c114051fba3825aeee7779]
link PortManager to PortAndWareHouse--><path codeLine="16" d="M77.5,55.01 C77.5,73.91 77.5,101.72 77.5,127.76 " fill="none" id="PortManager-to-PortAndWareHouse" style="stroke:#A80036;stroke-width:1.0;"/><polygon fill="#A80036" points="77.5,132.94,81.5,123.94,77.5,127.94,73.5,123.94,77.5,132.94" style="stroke:#A80036;stroke-width:1.0;"/><text fill="#000000" font-family="sans-serif" font-size="13" lengthAdjust="spacing" textLength="46" x="78.5" y="99.4951">controls</text><!--MD5=[815fa7ce866593c0c91a2493d2597617]
@startuml
'https://plantuml.com/class-diagram

class PortAndWareHouse{
    -String continent
    -String country
    -int code <<b>PK>
    -String port
    -double lat
    -double log
}

class PortManager



PortManager - -> PortAndWareHouse : controls

@enduml

@startuml

class PortAndWareHouse{
    -String continent
    -String country
    -int code <<b>PK>
    -String port
    -double lat
    -double log
}

class PortManager



PortManager - -> PortAndWareHouse : controls

@enduml

PlantUML version 1.2021.11(Sat Oct 02 14:26:11 BST 2021)
(GPL source distribution)
Java Runtime: OpenJDK Runtime Environment
JVM: OpenJDK 64-Bit Server VM
Default Encoding: Cp1252
Language: pt
Country: PT
--></g></svg>