<?xml version="1.0" encoding="UTF-8" standalone="no"?><svg xmlns="http://www.w3.org/2000/svg" xmlns:xlink="http://www.w3.org/1999/xlink" contentScriptType="application/ecmascript" contentStyleType="text/css" height="738px" preserveAspectRatio="none" style="width:1119px;height:738px;" version="1.1" viewBox="0 0 1119 738" width="1119px" zoomAndPan="magnify"><defs><filter height="300%" id="fz7se9d4o74ux" width="300%" x="-1" y="-1"><feGaussianBlur result="blurOut" stdDeviation="2.0"/><feColorMatrix in="blurOut" result="blurOut2" type="matrix" values="0 0 0 0 0 0 0 0 0 0 0 0 0 0 0 0 0 0 .4 0"/><feOffset dx="4.0" dy="4.0" in="blurOut2" result="blurOut3"/><feBlend in="SourceGraphic" in2="blurOut3" mode="normal"/></filter></defs><g><rect fill="#FFFFFF" filter="url(#fz7se9d4o74ux)" height="30.3516" style="stroke: #A80036; stroke-width: 1.0;" width="10" x="224" y="119.9609"/><rect fill="#FFFFFF" filter="url(#fz7se9d4o74ux)" height="451.0313" style="stroke: #A80036; stroke-width: 1.0;" width="10" x="224" y="180.6641"/><rect fill="#FFFFFF" filter="url(#fz7se9d4o74ux)" height="197.6641" style="stroke: #A80036; stroke-width: 1.0;" width="10" x="442" y="236.3672"/><rect fill="#FFFFFF" filter="url(#fz7se9d4o74ux)" height="35.3516" style="stroke: #A80036; stroke-width: 1.0;" width="10" x="442" y="515.7344"/><rect fill="#FFFFFF" filter="url(#fz7se9d4o74ux)" height="30" style="stroke: #A80036; stroke-width: 1.0;" width="10" x="617" y="266.7188"/><rect fill="#FFFFFF" filter="url(#fz7se9d4o74ux)" height="30.3516" style="stroke: #A80036; stroke-width: 1.0;" width="10" x="731.5" y="327.0703"/><rect fill="#FFFFFF" filter="url(#fz7se9d4o74ux)" height="109.7031" style="stroke: #A80036; stroke-width: 1.0;" width="10" x="731.5" y="404.0313"/><rect fill="#FFFFFF" filter="url(#fz7se9d4o74ux)" height="406.6797" style="stroke: #000000; stroke-width: 2.0;" width="942.5" x="166" y="195.6641"/><line style="stroke: #A80036; stroke-width: 1.0; stroke-dasharray: 5.0,5.0;" x1="52" x2="52" y1="87.6094" y2="649.6953"/><line style="stroke: #A80036; stroke-width: 1.0; stroke-dasharray: 5.0,5.0;" x1="229" x2="229" y1="87.6094" y2="649.6953"/><line style="stroke: #A80036; stroke-width: 1.0; stroke-dasharray: 5.0,5.0;" x1="447" x2="447" y1="87.6094" y2="649.6953"/><line style="stroke: #A80036; stroke-width: 1.0; stroke-dasharray: 5.0,5.0;" x1="622" x2="622" y1="87.6094" y2="649.6953"/><line style="stroke: #A80036; stroke-width: 1.0; stroke-dasharray: 5.0,5.0;" x1="736" x2="736" y1="87.6094" y2="649.6953"/><line style="stroke: #A80036; stroke-width: 1.0; stroke-dasharray: 5.0,5.0;" x1="932.5" x2="932.5" y1="368.375" y2="649.6953"/><line style="stroke: #A80036; stroke-width: 1.0; stroke-dasharray: 5.0,5.0;" x1="1064.5" x2="1064.5" y1="575.5391" y2="649.6953"/><text fill="#000000" font-family="sans-serif" font-size="14" lengthAdjust="spacingAndGlyphs" textLength="82" x="8" y="84.5332">PortManager</text><ellipse cx="52" cy="13" fill="#FEFECE" filter="url(#fz7se9d4o74ux)" rx="8" ry="8" style="stroke: #A80036; stroke-width: 2.0;"/><path d="M52,21 L52,48 M39,29 L65,29 M52,48 L39,63 M52,48 L65,63 " fill="none" filter="url(#fz7se9d4o74ux)" style="stroke: #A80036; stroke-width: 2.0;"/><text fill="#000000" font-family="sans-serif" font-size="14" lengthAdjust="spacingAndGlyphs" textLength="82" x="8" y="663.2285">PortManager</text><ellipse cx="52" cy="676.3047" fill="#FEFECE" filter="url(#fz7se9d4o74ux)" rx="8" ry="8" style="stroke: #A80036; stroke-width: 2.0;"/><path d="M52,684.3047 L52,711.3047 M39,692.3047 L65,692.3047 M52,711.3047 L39,726.3047 M52,711.3047 L65,726.3047 " fill="none" filter="url(#fz7se9d4o74ux)" style="stroke: #A80036; stroke-width: 2.0;"/><rect fill="#FEFECE" filter="url(#fz7se9d4o74ux)" height="31.6094" style="stroke: #A80036; stroke-width: 1.5;" width="102" x="176" y="51"/><text fill="#000000" font-family="sans-serif" font-size="14" lengthAdjust="spacingAndGlyphs" textLength="88" x="183" y="72.5332">:importPortsUI</text><rect fill="#FEFECE" filter="url(#fz7se9d4o74ux)" height="31.6094" style="stroke: #A80036; stroke-width: 1.5;" width="102" x="176" y="648.6953"/><text fill="#000000" font-family="sans-serif" font-size="14" lengthAdjust="spacingAndGlyphs" textLength="88" x="183" y="670.2285">:importPortsUI</text><rect fill="#FEFECE" filter="url(#fz7se9d4o74ux)" height="31.6094" style="stroke: #A80036; stroke-width: 1.5;" width="152" x="369" y="51"/><text fill="#000000" font-family="sans-serif" font-size="14" lengthAdjust="spacingAndGlyphs" textLength="138" x="376" y="72.5332">:importPortsController</text><rect fill="#FEFECE" filter="url(#fz7se9d4o74ux)" height="31.6094" style="stroke: #A80036; stroke-width: 1.5;" width="152" x="369" y="648.6953"/><text fill="#000000" font-family="sans-serif" font-size="14" lengthAdjust="spacingAndGlyphs" textLength="138" x="376" y="670.2285">:importPortsController</text><rect fill="#FEFECE" filter="url(#fz7se9d4o74ux)" height="31.6094" style="stroke: #A80036; stroke-width: 1.5;" width="78" x="581" y="51"/><text fill="#000000" font-family="sans-serif" font-size="14" lengthAdjust="spacingAndGlyphs" textLength="64" x="588" y="72.5332">:Company</text><rect fill="#FEFECE" filter="url(#fz7se9d4o74ux)" height="31.6094" style="stroke: #A80036; stroke-width: 1.5;" width="78" x="581" y="648.6953"/><text fill="#000000" font-family="sans-serif" font-size="14" lengthAdjust="spacingAndGlyphs" textLength="64" x="588" y="670.2285">:Company</text><rect fill="#FEFECE" filter="url(#fz7se9d4o74ux)" height="31.6094" style="stroke: #A80036; stroke-width: 1.5;" width="123" x="673" y="51"/><text fill="#000000" font-family="sans-serif" font-size="14" lengthAdjust="spacingAndGlyphs" textLength="109" x="680" y="72.5332">import: importFile</text><rect fill="#FEFECE" filter="url(#fz7se9d4o74ux)" height="31.6094" style="stroke: #A80036; stroke-width: 1.5;" width="123" x="673" y="648.6953"/><text fill="#000000" font-family="sans-serif" font-size="14" lengthAdjust="spacingAndGlyphs" textLength="109" x="680" y="670.2285">import: importFile</text><rect fill="#FEFECE" filter="url(#fz7se9d4o74ux)" height="31.6094" style="stroke: #A80036; stroke-width: 1.5;" width="172" x="844.5" y="648.6953"/><text fill="#000000" font-family="sans-serif" font-size="14" lengthAdjust="spacingAndGlyphs" textLength="158" x="851.5" y="670.2285">port: PortAndWareHouse</text><text fill="#000000" font-family="sans-serif" font-size="14" lengthAdjust="spacingAndGlyphs" textLength="62" x="1030.5" y="663.2285">DataBase</text><path d="M1046.5,676.3047 C1046.5,666.3047 1064.5,666.3047 1064.5,666.3047 C1064.5,666.3047 1082.5,666.3047 1082.5,676.3047 L1082.5,702.3047 C1082.5,712.3047 1064.5,712.3047 1064.5,712.3047 C1064.5,712.3047 1046.5,712.3047 1046.5,702.3047 L1046.5,676.3047 " fill="#FEFECE" filter="url(#fz7se9d4o74ux)" style="stroke: #000000; stroke-width: 1.5;"/><path d="M1046.5,676.3047 C1046.5,686.3047 1064.5,686.3047 1064.5,686.3047 C1064.5,686.3047 1082.5,686.3047 1082.5,676.3047 " fill="none" style="stroke: #000000; stroke-width: 1.5;"/><rect fill="#FFFFFF" filter="url(#fz7se9d4o74ux)" height="30.3516" style="stroke: #A80036; stroke-width: 1.0;" width="10" x="224" y="119.9609"/><rect fill="#FFFFFF" filter="url(#fz7se9d4o74ux)" height="451.0313" style="stroke: #A80036; stroke-width: 1.0;" width="10" x="224" y="180.6641"/><rect fill="#FFFFFF" filter="url(#fz7se9d4o74ux)" height="197.6641" style="stroke: #A80036; stroke-width: 1.0;" width="10" x="442" y="236.3672"/><rect fill="#FFFFFF" filter="url(#fz7se9d4o74ux)" height="35.3516" style="stroke: #A80036; stroke-width: 1.0;" width="10" x="442" y="515.7344"/><rect fill="#FFFFFF" filter="url(#fz7se9d4o74ux)" height="30" style="stroke: #A80036; stroke-width: 1.0;" width="10" x="617" y="266.7188"/><rect fill="#FFFFFF" filter="url(#fz7se9d4o74ux)" height="30.3516" style="stroke: #A80036; stroke-width: 1.0;" width="10" x="731.5" y="327.0703"/><rect fill="#FFFFFF" filter="url(#fz7se9d4o74ux)" height="109.7031" style="stroke: #A80036; stroke-width: 1.0;" width="10" x="731.5" y="404.0313"/><polygon fill="#A80036" points="212,115.9609,222,119.9609,212,123.9609,216,119.9609" style="stroke: #A80036; stroke-width: 1.0;"/><line style="stroke: #A80036; stroke-width: 1.0;" x1="52" x2="218" y1="119.9609" y2="119.9609"/><text fill="#000000" font-family="sans-serif" font-size="13" font-weight="bold" lengthAdjust="spacingAndGlyphs" textLength="7" x="59" y="115.1045">1</text><text fill="#000000" font-family="sans-serif" font-size="13" lengthAdjust="spacingAndGlyphs" textLength="142" x="70" y="115.1045">Import text file with ports</text><polygon fill="#A80036" points="63,146.3125,53,150.3125,63,154.3125,59,150.3125" style="stroke: #A80036; stroke-width: 1.0;"/><line style="stroke: #A80036; stroke-width: 1.0; stroke-dasharray: 2.0,2.0;" x1="57" x2="228" y1="150.3125" y2="150.3125"/><text fill="#000000" font-family="sans-serif" font-size="13" font-weight="bold" lengthAdjust="spacingAndGlyphs" textLength="7" x="69" y="145.4561">2</text><text fill="#000000" font-family="sans-serif" font-size="13" lengthAdjust="spacingAndGlyphs" textLength="94" x="80" y="145.4561">Request text file</text><polygon fill="#A80036" points="212,176.6641,222,180.6641,212,184.6641,216,180.6641" style="stroke: #A80036; stroke-width: 1.0;"/><line style="stroke: #A80036; stroke-width: 1.0;" x1="52" x2="218" y1="180.6641" y2="180.6641"/><text fill="#000000" font-family="sans-serif" font-size="13" font-weight="bold" lengthAdjust="spacingAndGlyphs" textLength="7" x="59" y="175.8076">3</text><text fill="#000000" font-family="sans-serif" font-size="13" lengthAdjust="spacingAndGlyphs" textLength="90" x="70" y="175.8076">Choose text file</text><path d="M166,195.6641 L239,195.6641 L239,203.6641 L229,213.6641 L166,213.6641 L166,195.6641 " fill="#EEEEEE" style="stroke: #000000; stroke-width: 1.0;"/><rect fill="none" height="406.6797" style="stroke: #000000; stroke-width: 2.0;" width="942.5" x="166" y="195.6641"/><text fill="#000000" font-family="sans-serif" font-size="13" font-weight="bold" lengthAdjust="spacingAndGlyphs" textLength="28" x="181" y="210.1592">loop</text><text fill="#000000" font-family="sans-serif" font-size="11" font-weight="bold" lengthAdjust="spacingAndGlyphs" textLength="86" x="254" y="209.083">[txt_size times]</text><polygon fill="#A80036" points="430,232.3672,440,236.3672,430,240.3672,434,236.3672" style="stroke: #A80036; stroke-width: 1.0;"/><line style="stroke: #A80036; stroke-width: 1.0;" x1="234" x2="436" y1="236.3672" y2="236.3672"/><text fill="#000000" font-family="sans-serif" font-size="13" font-weight="bold" lengthAdjust="spacingAndGlyphs" textLength="7" x="241" y="231.5107">4</text><text fill="#000000" font-family="sans-serif" font-size="13" lengthAdjust="spacingAndGlyphs" textLength="178" x="252" y="231.5107">newPortAndWareHouse(........)</text><polygon fill="#A80036" points="605,262.7188,615,266.7188,605,270.7188,609,266.7188" style="stroke: #A80036; stroke-width: 1.0;"/><line style="stroke: #A80036; stroke-width: 1.0;" x1="452" x2="611" y1="266.7188" y2="266.7188"/><text fill="#000000" font-family="sans-serif" font-size="13" font-weight="bold" lengthAdjust="spacingAndGlyphs" textLength="7" x="459" y="261.8623">5</text><text fill="#000000" font-family="sans-serif" font-size="13" lengthAdjust="spacingAndGlyphs" textLength="135" x="470" y="261.8623">import = getImportFile()</text><polygon fill="#A80036" points="719.5,323.0703,729.5,327.0703,719.5,331.0703,723.5,327.0703" style="stroke: #A80036; stroke-width: 1.0;"/><line style="stroke: #A80036; stroke-width: 1.0;" x1="452" x2="725.5" y1="327.0703" y2="327.0703"/><text fill="#000000" font-family="sans-serif" font-size="13" font-weight="bold" lengthAdjust="spacingAndGlyphs" textLength="7" x="459" y="322.2139">6</text><text fill="#000000" font-family="sans-serif" font-size="13" lengthAdjust="spacingAndGlyphs" textLength="208" x="470" y="322.2139">port = newPortAndWareHouse(......)</text><polygon fill="#A80036" points="832.5,353.4219,842.5,357.4219,832.5,361.4219,836.5,357.4219" style="stroke: #A80036; stroke-width: 1.0;"/><line style="stroke: #A80036; stroke-width: 1.0;" x1="736.5" x2="838.5" y1="357.4219" y2="357.4219"/><text fill="#000000" font-family="sans-serif" font-size="13" font-weight="bold" lengthAdjust="spacingAndGlyphs" textLength="7" x="743.5" y="352.5654">7</text><text fill="#000000" font-family="sans-serif" font-size="13" lengthAdjust="spacingAndGlyphs" textLength="68" x="754.5" y="352.5654">create(......)</text><rect fill="#FEFECE" filter="url(#fz7se9d4o74ux)" height="31.6094" style="stroke: #A80036; stroke-width: 1.5;" width="172" x="844.5" y="335.0703"/><text fill="#000000" font-family="sans-serif" font-size="14" lengthAdjust="spacingAndGlyphs" textLength="158" x="851.5" y="356.6035">port: PortAndWareHouse</text><polygon fill="#A80036" points="719.5,400.0313,729.5,404.0313,719.5,408.0313,723.5,404.0313" style="stroke: #A80036; stroke-width: 1.0;"/><line style="stroke: #A80036; stroke-width: 1.0;" x1="452" x2="725.5" y1="404.0313" y2="404.0313"/><text fill="#000000" font-family="sans-serif" font-size="13" font-weight="bold" lengthAdjust="spacingAndGlyphs" textLength="7" x="459" y="399.1748">8</text><text fill="#000000" font-family="sans-serif" font-size="13" lengthAdjust="spacingAndGlyphs" textLength="86" x="470" y="399.1748">registPort(port)</text><line style="stroke: #A80036; stroke-width: 1.0;" x1="741.5" x2="783.5" y1="464.3828" y2="464.3828"/><line style="stroke: #A80036; stroke-width: 1.0;" x1="783.5" x2="783.5" y1="464.3828" y2="477.3828"/><line style="stroke: #A80036; stroke-width: 1.0;" x1="742.5" x2="783.5" y1="477.3828" y2="477.3828"/><polygon fill="#A80036" points="752.5,473.3828,742.5,477.3828,752.5,481.3828,748.5,477.3828" style="stroke: #A80036; stroke-width: 1.0;"/><text fill="#000000" font-family="sans-serif" font-size="13" font-weight="bold" lengthAdjust="spacingAndGlyphs" textLength="7" x="748.5" y="459.5264">9</text><text fill="#000000" font-family="sans-serif" font-size="13" lengthAdjust="spacingAndGlyphs" textLength="97" x="759.5" y="459.5264">validatePort(port)</text><line style="stroke: #A80036; stroke-width: 1.0;" x1="746.5" x2="788.5" y1="507.7344" y2="507.7344"/><line style="stroke: #A80036; stroke-width: 1.0;" x1="788.5" x2="788.5" y1="507.7344" y2="520.7344"/><line style="stroke: #A80036; stroke-width: 1.0;" x1="747.5" x2="788.5" y1="520.7344" y2="520.7344"/><polygon fill="#A80036" points="757.5,516.7344,747.5,520.7344,757.5,524.7344,753.5,520.7344" style="stroke: #A80036; stroke-width: 1.0;"/><text fill="#000000" font-family="sans-serif" font-size="13" font-weight="bold" lengthAdjust="spacingAndGlyphs" textLength="14" x="753.5" y="502.8779">10</text><text fill="#000000" font-family="sans-serif" font-size="13" lengthAdjust="spacingAndGlyphs" textLength="75" x="771.5" y="502.8779">addPort(port)</text><polygon fill="#A80036" points="1018.5,547.0859,1028.5,551.0859,1018.5,555.0859,1022.5,551.0859" style="stroke: #A80036; stroke-width: 1.0;"/><line style="stroke: #A80036; stroke-width: 1.0;" x1="447" x2="1024.5" y1="551.0859" y2="551.0859"/><text fill="#000000" font-family="sans-serif" font-size="13" font-weight="bold" lengthAdjust="spacingAndGlyphs" textLength="14" x="454" y="546.2295">11</text><text fill="#000000" font-family="sans-serif" font-size="13" lengthAdjust="spacingAndGlyphs" textLength="56" x="472" y="546.2295">save(port)</text><text fill="#000000" font-family="sans-serif" font-size="14" lengthAdjust="spacingAndGlyphs" textLength="62" x="1030.5" y="589.2676">DataBase</text><path d="M1046.5,538.7344 C1046.5,528.7344 1064.5,528.7344 1064.5,528.7344 C1064.5,528.7344 1082.5,528.7344 1082.5,538.7344 L1082.5,564.7344 C1082.5,574.7344 1064.5,574.7344 1064.5,574.7344 C1064.5,574.7344 1046.5,574.7344 1046.5,564.7344 L1046.5,538.7344 " fill="#FEFECE" filter="url(#fz7se9d4o74ux)" style="stroke: #000000; stroke-width: 1.5;"/><path d="M1046.5,538.7344 C1046.5,548.7344 1064.5,548.7344 1064.5,548.7344 C1064.5,548.7344 1082.5,548.7344 1082.5,538.7344 " fill="none" style="stroke: #000000; stroke-width: 1.5;"/><polygon fill="#A80036" points="63,627.6953,53,631.6953,63,635.6953,59,631.6953" style="stroke: #A80036; stroke-width: 1.0;"/><line style="stroke: #A80036; stroke-width: 1.0; stroke-dasharray: 2.0,2.0;" x1="57" x2="228" y1="631.6953" y2="631.6953"/><text fill="#000000" font-family="sans-serif" font-size="13" font-weight="bold" lengthAdjust="spacingAndGlyphs" textLength="14" x="69" y="626.8389">12</text><text fill="#000000" font-family="sans-serif" font-size="13" lengthAdjust="spacingAndGlyphs" textLength="122" x="87" y="626.8389">Operation successful</text><!--MD5=[981ecb2f3c3426c5c0df0efb8aa41044]
@startuml

autonumber

actor       PortManager             as PM
participant    ":importPortsUI"         as UI
participant    ":importPortsController" as CTRL
participant    ":Company"              as Company
participant    "import: importFile"    as Model
participant    "port: PortAndWareHouse"            as Port
database       "DataBase"              as db

PM -> UI : Import text file with ports
activate UI
UI - -> PM: Request text file
deactivate UI

PM -> UI : Choose text file
activate UI
loop txt_size times
    UI -> CTRL : newPortAndWareHouse(........)
    activate CTRL
    CTRL -> Company : import = getImportFile()
    activate Company
    deactivate Company

    CTRL -> Model : port = newPortAndWareHouse(......)
    activate Model
    Model -> Port ** : create(......)
    deactivate Model

    CTRL -> Model : registPort(port)
    activate Model

    deactivate CTRL

    Model -> Model : validatePort(port)
    Model -> Model : addPort(port)
    deactivate Model

    activate CTRL

    CTRL -> db ** : save(port)

    deactivate CTRL


end

UI - -> PM : Operation successful
deactivate UI


@enduml

PlantUML version 1.2020.07(Sun Apr 19 12:42:40 BST 2020)
(GPL source distribution)
Java Runtime: OpenJDK Runtime Environment
JVM: OpenJDK 64-Bit Server VM
Java Version: 11.0.6+8-b765.40
Operating System: Windows 10
Default Encoding: Cp1252
Language: pt
Country: PT
--></g></svg>