<?xml version="1.0" encoding="UTF-8" standalone="no"?><svg xmlns="http://www.w3.org/2000/svg" xmlns:xlink="http://www.w3.org/1999/xlink" contentScriptType="application/ecmascript" contentStyleType="text/css" height="655px" preserveAspectRatio="none" style="width:354px;height:655px;background:#FFFFFF;" version="1.1" viewBox="0 0 354 655" width="354px" zoomAndPan="magnify"><defs><filter height="300%" id="fvp3w1iw3v73f" width="300%" x="-1" y="-1"><feGaussianBlur result="blurOut" stdDeviation="2.0"/><feColorMatrix in="blurOut" result="blurOut2" type="matrix" values="0 0 0 0 0 0 0 0 0 0 0 0 0 0 0 0 0 0 .4 0"/><feOffset dx="4.0" dy="4.0" in="blurOut2" result="blurOut3"/><feBlend in="SourceGraphic" in2="blurOut3" mode="normal"/></filter></defs><g><!--MD5=[0dc7f2ddb409b58bcf52b12238c25399]
class Ship--><rect codeLine="3" fill="#FEFECE" filter="url(#fvp3w1iw3v73f)" height="200.1953" id="Ship" style="stroke:#A80036;stroke-width:1.5;" width="159" x="7" y="223"/><ellipse cx="69.75" cy="239" fill="#ADD1B2" rx="11" ry="11" style="stroke:#A80036;stroke-width:1.0;"/><path d="M71.75,235.5 Q71.9531,235 72.1875,234.75 Q72.4219,234.5 72.6875,234.5 Q73.1563,234.5 73.4531,234.7813 Q73.75,235.0625 73.75,235.7188 L73.75,237.2813 Q73.75,237.9375 73.4688,238.2188 Q73.1875,238.5 72.75,238.5 Q72.3594,238.5 72.1094,238.3281 Q71.8594,238.1563 71.75,237.7031 Q71.7031,237.3906 71.5313,237.2188 Q71.2188,236.8906 70.6563,236.7031 Q70.0938,236.5 69.5313,236.5 Q68.8281,236.5 68.2344,236.7813 Q67.6563,237.0625 67.2031,237.6875 Q66.75,238.3125 66.75,239.1719 L66.75,240.0938 Q66.75,241.125 67.5938,241.8125 Q68.4375,242.5 69.9375,242.5 Q70.8281,242.5 71.4531,242.2969 Q71.8125,242.1875 72.2188,241.8281 Q72.4844,241.625 72.625,241.5625 Q72.7656,241.5 72.9375,241.5 Q73.2656,241.5 73.5,241.7656 Q73.75,242.0156 73.75,242.375 Q73.75,242.7188 73.4063,243.125 Q72.9063,243.7188 72.1094,244.0469 Q71.0625,244.5 69.7813,244.5 Q68.2813,244.5 67.0781,243.9063 Q66.1094,243.4375 65.4219,242.4219 Q64.75,241.4063 64.75,240.2031 L64.75,239.1094 Q64.75,237.8594 65.3438,236.7656 Q65.9531,235.6719 67,235.0938 Q68.0625,234.5 69.25,234.5 Q69.9688,234.5 70.5938,234.75 Q71.2188,235 71.75,235.5 Z " fill="#000000"/><text fill="#000000" font-family="sans-serif" font-size="12" lengthAdjust="spacing" textLength="25" x="90.25" y="243.9102">Ship</text><line style="stroke:#A80036;stroke-width:1.5;" x1="8" x2="165" y1="255" y2="255"/><rect fill="none" height="6" style="stroke:#C82930;stroke-width:1.0;" width="6" x="15" y="263"/><text fill="#000000" font-family="sans-serif" font-size="11" lengthAdjust="spacing" textLength="48" x="27" y="270.4189">int MMSI &lt;</text><text fill="#000000" font-family="sans-serif" font-size="11" font-weight="bold" lengthAdjust="spacing" textLength="20" x="75" y="270.4189">PK&gt;</text><rect fill="none" height="6" style="stroke:#C82930;stroke-width:1.0;" width="6" x="15" y="276.8359"/><text fill="#000000" font-family="sans-serif" font-size="11" lengthAdjust="spacing" textLength="57" x="27" y="284.2549">String name</text><rect fill="none" height="6" style="stroke:#C82930;stroke-width:1.0;" width="6" x="15" y="290.6719"/><text fill="#000000" font-family="sans-serif" font-size="11" lengthAdjust="spacing" textLength="32" x="27" y="298.0908">int IMO</text><rect fill="none" height="6" style="stroke:#C82930;stroke-width:1.0;" width="6" x="15" y="304.5078"/><text fill="#000000" font-family="sans-serif" font-size="11" lengthAdjust="spacing" textLength="133" x="27" y="311.9268">int numberEnergyGenerator</text><rect fill="none" height="6" style="stroke:#C82930;stroke-width:1.0;" width="6" x="15" y="318.3438"/><text fill="#000000" font-family="sans-serif" font-size="11" lengthAdjust="spacing" textLength="78" x="27" y="325.7627">int powerOutput</text><rect fill="none" height="6" style="stroke:#C82930;stroke-width:1.0;" width="6" x="15" y="332.1797"/><text fill="#000000" font-family="sans-serif" font-size="11" lengthAdjust="spacing" textLength="68" x="27" y="339.5986">String callSign</text><rect fill="none" height="6" style="stroke:#C82930;stroke-width:1.0;" width="6" x="15" y="346.0156"/><text fill="#000000" font-family="sans-serif" font-size="11" lengthAdjust="spacing" textLength="70" x="27" y="353.4346">int vesselType</text><rect fill="none" height="6" style="stroke:#C82930;stroke-width:1.0;" width="6" x="15" y="359.8516"/><text fill="#000000" font-family="sans-serif" font-size="11" lengthAdjust="spacing" textLength="64" x="27" y="367.2705">double length</text><rect fill="none" height="6" style="stroke:#C82930;stroke-width:1.0;" width="6" x="15" y="373.6875"/><text fill="#000000" font-family="sans-serif" font-size="11" lengthAdjust="spacing" textLength="62" x="27" y="381.1064">double width</text><rect fill="none" height="6" style="stroke:#C82930;stroke-width:1.0;" width="6" x="15" y="387.5234"/><text fill="#000000" font-family="sans-serif" font-size="11" lengthAdjust="spacing" textLength="100" x="27" y="394.9424">int maximumCapacity</text><rect fill="none" height="6" style="stroke:#C82930;stroke-width:1.0;" width="6" x="15" y="401.3594"/><text fill="#000000" font-family="sans-serif" font-size="11" lengthAdjust="spacing" textLength="58" x="27" y="408.7783">double draft</text><line style="stroke:#A80036;stroke-width:1.5;" x1="8" x2="165" y1="415.1953" y2="415.1953"/><!--MD5=[4b872607f7837efd7ff30a896a8cdfbc]
class PortAndWarehouse--><rect codeLine="18" fill="#FEFECE" filter="url(#fvp3w1iw3v73f)" height="131.0156" id="PortAndWarehouse" style="stroke:#A80036;stroke-width:1.5;" width="139" x="201" y="257.5"/><ellipse cx="216" cy="273.5" fill="#ADD1B2" rx="11" ry="11" style="stroke:#A80036;stroke-width:1.0;"/><path d="M218,270 Q218.2031,269.5 218.4375,269.25 Q218.6719,269 218.9375,269 Q219.4063,269 219.7031,269.2813 Q220,269.5625 220,270.2188 L220,271.7813 Q220,272.4375 219.7188,272.7188 Q219.4375,273 219,273 Q218.6094,273 218.3594,272.8281 Q218.1094,272.6563 218,272.2031 Q217.9531,271.8906 217.7813,271.7188 Q217.4688,271.3906 216.9063,271.2031 Q216.3438,271 215.7813,271 Q215.0781,271 214.4844,271.2813 Q213.9063,271.5625 213.4531,272.1875 Q213,272.8125 213,273.6719 L213,274.5938 Q213,275.625 213.8438,276.3125 Q214.6875,277 216.1875,277 Q217.0781,277 217.7031,276.7969 Q218.0625,276.6875 218.4688,276.3281 Q218.7344,276.125 218.875,276.0625 Q219.0156,276 219.1875,276 Q219.5156,276 219.75,276.2656 Q220,276.5156 220,276.875 Q220,277.2188 219.6563,277.625 Q219.1563,278.2188 218.3594,278.5469 Q217.3125,279 216.0313,279 Q214.5313,279 213.3281,278.4063 Q212.3594,277.9375 211.6719,276.9219 Q211,275.9063 211,274.7031 L211,273.6094 Q211,272.3594 211.5938,271.2656 Q212.2031,270.1719 213.25,269.5938 Q214.3125,269 215.5,269 Q216.2188,269 216.8438,269.25 Q217.4688,269.5 218,270 Z " fill="#000000"/><text fill="#000000" font-family="sans-serif" font-size="12" lengthAdjust="spacing" textLength="107" x="230" y="278.4102">PortAndWarehouse</text><line style="stroke:#A80036;stroke-width:1.5;" x1="202" x2="339" y1="289.5" y2="289.5"/><rect fill="none" height="6" style="stroke:#C82930;stroke-width:1.0;" width="6" x="209" y="297.5"/><text fill="#000000" font-family="sans-serif" font-size="11" lengthAdjust="spacing" textLength="47" x="221" y="304.9189">int code &lt;</text><text fill="#000000" font-family="sans-serif" font-size="11" font-weight="bold" lengthAdjust="spacing" textLength="20" x="268" y="304.9189">PK&gt;</text><rect fill="none" height="6" style="stroke:#C82930;stroke-width:1.0;" width="6" x="209" y="311.3359"/><text fill="#000000" font-family="sans-serif" font-size="11" lengthAdjust="spacing" textLength="75" x="221" y="318.7549">String continent</text><rect fill="none" height="6" style="stroke:#C82930;stroke-width:1.0;" width="6" x="209" y="325.1719"/><text fill="#000000" font-family="sans-serif" font-size="11" lengthAdjust="spacing" textLength="68" x="221" y="332.5908">String country</text><rect fill="none" height="6" style="stroke:#C82930;stroke-width:1.0;" width="6" x="209" y="339.0078"/><text fill="#000000" font-family="sans-serif" font-size="11" lengthAdjust="spacing" textLength="50" x="221" y="346.4268">String port</text><rect fill="none" height="6" style="stroke:#C82930;stroke-width:1.0;" width="6" x="209" y="352.8438"/><text fill="#000000" font-family="sans-serif" font-size="11" lengthAdjust="spacing" textLength="69" x="221" y="360.2627">double latitude</text><rect fill="none" height="6" style="stroke:#C82930;stroke-width:1.0;" width="6" x="209" y="366.6797"/><text fill="#000000" font-family="sans-serif" font-size="11" lengthAdjust="spacing" textLength="78" x="221" y="374.0986">double longitude</text><line style="stroke:#A80036;stroke-width:1.5;" x1="202" x2="339" y1="380.5156" y2="380.5156"/><!--MD5=[ddaf6f62b0bc30921877ec9fb9463c9f]
class TrafficManager--><rect codeLine="27" fill="#FEFECE" filter="url(#fvp3w1iw3v73f)" height="48" id="TrafficManager" style="stroke:#A80036;stroke-width:1.5;" width="113" x="122" y="7"/><ellipse cx="137" cy="23" fill="#ADD1B2" rx="11" ry="11" style="stroke:#A80036;stroke-width:1.0;"/><path d="M139,19.5 Q139.2031,19 139.4375,18.75 Q139.6719,18.5 139.9375,18.5 Q140.4063,18.5 140.7031,18.7813 Q141,19.0625 141,19.7188 L141,21.2813 Q141,21.9375 140.7188,22.2188 Q140.4375,22.5 140,22.5 Q139.6094,22.5 139.3594,22.3281 Q139.1094,22.1563 139,21.7031 Q138.9531,21.3906 138.7813,21.2188 Q138.4688,20.8906 137.9063,20.7031 Q137.3438,20.5 136.7813,20.5 Q136.0781,20.5 135.4844,20.7813 Q134.9063,21.0625 134.4531,21.6875 Q134,22.3125 134,23.1719 L134,24.0938 Q134,25.125 134.8438,25.8125 Q135.6875,26.5 137.1875,26.5 Q138.0781,26.5 138.7031,26.2969 Q139.0625,26.1875 139.4688,25.8281 Q139.7344,25.625 139.875,25.5625 Q140.0156,25.5 140.1875,25.5 Q140.5156,25.5 140.75,25.7656 Q141,26.0156 141,26.375 Q141,26.7188 140.6563,27.125 Q140.1563,27.7188 139.3594,28.0469 Q138.3125,28.5 137.0313,28.5 Q135.5313,28.5 134.3281,27.9063 Q133.3594,27.4375 132.6719,26.4219 Q132,25.4063 132,24.2031 L132,23.1094 Q132,21.8594 132.5938,20.7656 Q133.2031,19.6719 134.25,19.0938 Q135.3125,18.5 136.5,18.5 Q137.2188,18.5 137.8438,18.75 Q138.4688,19 139,19.5 Z " fill="#000000"/><text fill="#000000" font-family="sans-serif" font-size="12" lengthAdjust="spacing" textLength="81" x="151" y="27.9102">TrafficManager</text><line style="stroke:#A80036;stroke-width:1.5;" x1="123" x2="234" y1="39" y2="39"/><line style="stroke:#A80036;stroke-width:1.5;" x1="123" x2="234" y1="47" y2="47"/><!--MD5=[02e4b9b7573f1156f41e60aa5b4e25a4]
class Company--><rect codeLine="30" fill="#FEFECE" filter="url(#fvp3w1iw3v73f)" height="48" id="Company" style="stroke:#A80036;stroke-width:1.5;" width="85" x="136" y="115"/><ellipse cx="151" cy="131" fill="#ADD1B2" rx="11" ry="11" style="stroke:#A80036;stroke-width:1.0;"/><path d="M153,127.5 Q153.2031,127 153.4375,126.75 Q153.6719,126.5 153.9375,126.5 Q154.4063,126.5 154.7031,126.7813 Q155,127.0625 155,127.7188 L155,129.2813 Q155,129.9375 154.7188,130.2188 Q154.4375,130.5 154,130.5 Q153.6094,130.5 153.3594,130.3281 Q153.1094,130.1563 153,129.7031 Q152.9531,129.3906 152.7813,129.2188 Q152.4688,128.8906 151.9063,128.7031 Q151.3438,128.5 150.7813,128.5 Q150.0781,128.5 149.4844,128.7813 Q148.9063,129.0625 148.4531,129.6875 Q148,130.3125 148,131.1719 L148,132.0938 Q148,133.125 148.8438,133.8125 Q149.6875,134.5 151.1875,134.5 Q152.0781,134.5 152.7031,134.2969 Q153.0625,134.1875 153.4688,133.8281 Q153.7344,133.625 153.875,133.5625 Q154.0156,133.5 154.1875,133.5 Q154.5156,133.5 154.75,133.7656 Q155,134.0156 155,134.375 Q155,134.7188 154.6563,135.125 Q154.1563,135.7188 153.3594,136.0469 Q152.3125,136.5 151.0313,136.5 Q149.5313,136.5 148.3281,135.9063 Q147.3594,135.4375 146.6719,134.4219 Q146,133.4063 146,132.2031 L146,131.1094 Q146,129.8594 146.5938,128.7656 Q147.2031,127.6719 148.25,127.0938 Q149.3125,126.5 150.5,126.5 Q151.2188,126.5 151.8438,126.75 Q152.4688,127 153,127.5 Z " fill="#000000"/><text fill="#000000" font-family="sans-serif" font-size="12" lengthAdjust="spacing" textLength="53" x="165" y="135.9102">Company</text><line style="stroke:#A80036;stroke-width:1.5;" x1="137" x2="220" y1="147" y2="147"/><line style="stroke:#A80036;stroke-width:1.5;" x1="137" x2="220" y1="155" y2="155"/><!--MD5=[42db3a3160cd97c2324f9fd4a6b0182a]
class PositionData--><rect codeLine="34" fill="#FEFECE" filter="url(#fvp3w1iw3v73f)" height="158.6875" id="PositionData" style="stroke:#A80036;stroke-width:1.5;" width="119" x="27" y="483"/><ellipse cx="49.2" cy="499" fill="#ADD1B2" rx="11" ry="11" style="stroke:#A80036;stroke-width:1.0;"/><path d="M51.2,495.5 Q51.4031,495 51.6375,494.75 Q51.8719,494.5 52.1375,494.5 Q52.6063,494.5 52.9031,494.7813 Q53.2,495.0625 53.2,495.7188 L53.2,497.2813 Q53.2,497.9375 52.9188,498.2188 Q52.6375,498.5 52.2,498.5 Q51.8094,498.5 51.5594,498.3281 Q51.3094,498.1563 51.2,497.7031 Q51.1531,497.3906 50.9813,497.2188 Q50.6688,496.8906 50.1063,496.7031 Q49.5438,496.5 48.9813,496.5 Q48.2781,496.5 47.6844,496.7813 Q47.1063,497.0625 46.6531,497.6875 Q46.2,498.3125 46.2,499.1719 L46.2,500.0938 Q46.2,501.125 47.0438,501.8125 Q47.8875,502.5 49.3875,502.5 Q50.2781,502.5 50.9031,502.2969 Q51.2625,502.1875 51.6688,501.8281 Q51.9344,501.625 52.075,501.5625 Q52.2156,501.5 52.3875,501.5 Q52.7156,501.5 52.95,501.7656 Q53.2,502.0156 53.2,502.375 Q53.2,502.7188 52.8563,503.125 Q52.3563,503.7188 51.5594,504.0469 Q50.5125,504.5 49.2313,504.5 Q47.7313,504.5 46.5281,503.9063 Q45.5594,503.4375 44.8719,502.4219 Q44.2,501.4063 44.2,500.2031 L44.2,499.1094 Q44.2,497.8594 44.7938,496.7656 Q45.4031,495.6719 46.45,495.0938 Q47.5125,494.5 48.7,494.5 Q49.4188,494.5 50.0438,494.75 Q50.6688,495 51.2,495.5 Z " fill="#000000"/><text fill="#000000" font-family="sans-serif" font-size="12" lengthAdjust="spacing" textLength="71" x="64.8" y="503.9102">PositionData</text><line style="stroke:#A80036;stroke-width:1.5;" x1="28" x2="145" y1="515" y2="515"/><rect fill="none" height="6" style="stroke:#C82930;stroke-width:1.0;" width="6" x="35" y="523"/><text fill="#000000" font-family="sans-serif" font-size="11" lengthAdjust="spacing" textLength="93" x="47" y="530.4189">Date baseDateTime</text><rect fill="none" height="6" style="stroke:#C82930;stroke-width:1.0;" width="6" x="35" y="536.8359"/><text fill="#000000" font-family="sans-serif" font-size="11" lengthAdjust="spacing" textLength="69" x="47" y="544.2549">double latitude</text><rect fill="none" height="6" style="stroke:#C82930;stroke-width:1.0;" width="6" x="35" y="550.6719"/><text fill="#000000" font-family="sans-serif" font-size="11" lengthAdjust="spacing" textLength="78" x="47" y="558.0908">double longitude</text><rect fill="none" height="6" style="stroke:#C82930;stroke-width:1.0;" width="6" x="35" y="564.5078"/><text fill="#000000" font-family="sans-serif" font-size="11" lengthAdjust="spacing" textLength="53" x="47" y="571.9268">double sog</text><rect fill="none" height="6" style="stroke:#C82930;stroke-width:1.0;" width="6" x="35" y="578.3438"/><text fill="#000000" font-family="sans-serif" font-size="11" lengthAdjust="spacing" textLength="53" x="47" y="585.7627">double cog</text><rect fill="none" height="6" style="stroke:#C82930;stroke-width:1.0;" width="6" x="35" y="592.1797"/><text fill="#000000" font-family="sans-serif" font-size="11" lengthAdjust="spacing" textLength="73" x="47" y="599.5986">double heading</text><rect fill="none" height="6" style="stroke:#C82930;stroke-width:1.0;" width="6" x="35" y="606.0156"/><text fill="#000000" font-family="sans-serif" font-size="11" lengthAdjust="spacing" textLength="51" x="47" y="613.4346">int position</text><rect fill="none" height="6" style="stroke:#C82930;stroke-width:1.0;" width="6" x="35" y="619.8516"/><text fill="#000000" font-family="sans-serif" font-size="11" lengthAdjust="spacing" textLength="86" x="47" y="627.2705">String transceiver</text><line style="stroke:#A80036;stroke-width:1.5;" x1="28" x2="145" y1="633.6875" y2="633.6875"/><!--MD5=[bc71c62128aaf75a155dd6adc8e1dfa9]
link TrafficManager to Company--><path codeLine="45" d="M178.5,55 C178.5,71 178.5,92.45 178.5,109.53 " fill="none" id="TrafficManager-to-Company" style="stroke:#A80036;stroke-width:1.0;"/><polygon fill="#A80036" points="178.5,114.68,182.5,105.68,178.5,109.68,174.5,105.68,178.5,114.68" style="stroke:#A80036;stroke-width:1.0;"/><!--MD5=[37a14a5de6d6fd738aee271300f4b5c8]
link Company to Ship--><path codeLine="46" d="M166.85,163.05 C159.52,177.55 149.49,197.38 139,218.13 " fill="none" id="Company-to-Ship" style="stroke:#A80036;stroke-width:1.0;"/><polygon fill="#A80036" points="136.62,222.86,144.2546,216.638,138.8789,218.3994,137.1175,213.0237,136.62,222.86" style="stroke:#A80036;stroke-width:1.0;"/><!--MD5=[95425788217bd59c85b124f5adf1e0d9]
link Company to PortAndWarehouse--><path codeLine="47" d="M190.15,163.05 C201.53,185.57 219.44,220.98 235.46,252.68 " fill="none" id="Company-to-PortAndWarehouse" style="stroke:#A80036;stroke-width:1.0;"/><polygon fill="#A80036" points="237.81,257.32,237.3125,247.4837,235.5511,252.8594,230.1754,251.098,237.81,257.32" style="stroke:#A80036;stroke-width:1.0;"/><!--MD5=[abcab1b1a0fb024acaf53861b5be44de]
link Ship to PositionData--><path codeLine="48" d="M86.5,423 C86.5,441.11 86.5,459.85 86.5,477.47 " fill="none" id="Ship-to-PositionData" style="stroke:#A80036;stroke-width:1.0;"/><polygon fill="#A80036" points="86.5,482.9,90.5,473.9,86.5,477.9,82.5,473.9,86.5,482.9" style="stroke:#A80036;stroke-width:1.0;"/><!--MD5=[33d0af44f5a34c7316d2910d2457ff0f]
link Ship to PortAndWarehouse--><path codeLine="49" d="M166.28,323 C176.1,323 185.93,323 195.75,323 " fill="none" id="Ship-to-PortAndWarehouse" style="stroke:#A80036;stroke-width:1.0;"/><polygon fill="#A80036" points="200.89,323,191.89,319,195.89,323,191.89,327,200.89,323" style="stroke:#A80036;stroke-width:1.0;"/><!--MD5=[8d49353a6dcaef23de3f36b96d9c06de]
@startuml
'https://plantuml.com/class-diagram

class Ship {

    -int MMSI <<b>PK>
    -String name
    -int IMO
    -int numberEnergyGenerator
    -int powerOutput
    -String callSign
    -int vesselType
    -double length
    -double width
    -int maximumCapacity
    -double draft
}

class PortAndWarehouse {
    -int code <<b>PK>
    -String continent
    -String country
    -String port
    -double latitude
    -double longitude
}

class TrafficManager{
}

class Company {

}

class PositionData{
    -Date baseDateTime
    -double latitude
    -double longitude
    -double sog
    -double cog
    -double heading
    -int position
    -String transceiver
}

TrafficManager - -> Company
Company - -> Ship
Company - -> PortAndWarehouse
Ship - -> PositionData
Ship -> PortAndWarehouse

@enduml

@startuml

class Ship {

    -int MMSI <<b>PK>
    -String name
    -int IMO
    -int numberEnergyGenerator
    -int powerOutput
    -String callSign
    -int vesselType
    -double length
    -double width
    -int maximumCapacity
    -double draft
}

class PortAndWarehouse {
    -int code <<b>PK>
    -String continent
    -String country
    -String port
    -double latitude
    -double longitude
}

class TrafficManager{
}

class Company {

}

class PositionData{
    -Date baseDateTime
    -double latitude
    -double longitude
    -double sog
    -double cog
    -double heading
    -int position
    -String transceiver
}

TrafficManager - -> Company
Company - -> Ship
Company - -> PortAndWarehouse
Ship - -> PositionData
Ship -> PortAndWarehouse

@enduml

PlantUML version 1.2021.11(Sat Oct 02 14:26:11 BST 2021)
(GPL source distribution)
Java Runtime: OpenJDK Runtime Environment
JVM: OpenJDK 64-Bit Server VM
Default Encoding: Cp1252
Language: pt
Country: PT
--></g></svg>