<?xml version="1.0" encoding="UTF-8" standalone="no"?><svg xmlns="http://www.w3.org/2000/svg" xmlns:xlink="http://www.w3.org/1999/xlink" contentScriptType="application/ecmascript" contentStyleType="text/css" height="653px" preserveAspectRatio="none" style="width:350px;height:653px;" version="1.1" viewBox="0 0 350 653" width="350px" zoomAndPan="magnify"><defs><filter height="300%" id="fvp3w1iw3v73f" width="300%" x="-1" y="-1"><feGaussianBlur result="blurOut" stdDeviation="2.0"/><feColorMatrix in="blurOut" result="blurOut2" type="matrix" values="0 0 0 0 0 0 0 0 0 0 0 0 0 0 0 0 0 0 .4 0"/><feOffset dx="4.0" dy="4.0" in="blurOut2" result="blurOut3"/><feBlend in="SourceGraphic" in2="blurOut3" mode="normal"/></filter></defs><g><!--MD5=[0dc7f2ddb409b58bcf52b12238c25399]
class Ship--><rect fill="#FEFECE" filter="url(#fvp3w1iw3v73f)" height="200.1953" id="Ship" style="stroke: #A80036; stroke-width: 1.5;" width="159" x="6" y="224"/><ellipse cx="68.75" cy="240" fill="#ADD1B2" rx="11" ry="11" style="stroke: #A80036; stroke-width: 1.0;"/><path d="M70.75,236.5 Q70.9531,236 71.1875,235.75 Q71.4219,235.5 71.6875,235.5 Q72.1563,235.5 72.4531,235.7813 Q72.75,236.0625 72.75,236.7188 L72.75,238.2813 Q72.75,238.9375 72.4688,239.2188 Q72.1875,239.5 71.75,239.5 Q71.3594,239.5 71.1094,239.3281 Q70.8594,239.1563 70.75,238.7031 Q70.7031,238.3906 70.5313,238.2188 Q70.2188,237.8906 69.6563,237.7031 Q69.0938,237.5 68.5313,237.5 Q67.8281,237.5 67.2344,237.7813 Q66.6563,238.0625 66.2031,238.6875 Q65.75,239.3125 65.75,240.1719 L65.75,241.0938 Q65.75,242.125 66.5938,242.8125 Q67.4375,243.5 68.9375,243.5 Q69.8281,243.5 70.4531,243.2969 Q70.8125,243.1875 71.2188,242.8281 Q71.4844,242.625 71.625,242.5625 Q71.7656,242.5 71.9375,242.5 Q72.2656,242.5 72.5,242.7656 Q72.75,243.0156 72.75,243.375 Q72.75,243.7188 72.4063,244.125 Q71.9063,244.7188 71.1094,245.0469 Q70.0625,245.5 68.7813,245.5 Q67.2813,245.5 66.0781,244.9063 Q65.1094,244.4375 64.4219,243.4219 Q63.75,242.4063 63.75,241.2031 L63.75,240.1094 Q63.75,238.8594 64.3438,237.7656 Q64.9531,236.6719 66,236.0938 Q67.0625,235.5 68.25,235.5 Q68.9688,235.5 69.5938,235.75 Q70.2188,236 70.75,236.5 Z "/><text fill="#000000" font-family="sans-serif" font-size="12" lengthAdjust="spacingAndGlyphs" textLength="25" x="89.25" y="244.9102">Ship</text><line style="stroke: #A80036; stroke-width: 1.5;" x1="7" x2="164" y1="256" y2="256"/><rect fill="none" height="6" style="stroke: #C82930; stroke-width: 1.0;" width="6" x="14" y="264"/><text fill="#000000" font-family="sans-serif" font-size="11" lengthAdjust="spacingAndGlyphs" textLength="48" x="26" y="271.4189">int MMSI &lt;</text><text fill="#000000" font-family="sans-serif" font-size="11" font-weight="bold" lengthAdjust="spacingAndGlyphs" textLength="20" x="74" y="271.4189">PK&gt;</text><rect fill="none" height="6" style="stroke: #C82930; stroke-width: 1.0;" width="6" x="14" y="277.8359"/><text fill="#000000" font-family="sans-serif" font-size="11" lengthAdjust="spacingAndGlyphs" textLength="57" x="26" y="285.2549">String name</text><rect fill="none" height="6" style="stroke: #C82930; stroke-width: 1.0;" width="6" x="14" y="291.6719"/><text fill="#000000" font-family="sans-serif" font-size="11" lengthAdjust="spacingAndGlyphs" textLength="32" x="26" y="299.0908">int IMO</text><rect fill="none" height="6" style="stroke: #C82930; stroke-width: 1.0;" width="6" x="14" y="305.5078"/><text fill="#000000" font-family="sans-serif" font-size="11" lengthAdjust="spacingAndGlyphs" textLength="133" x="26" y="312.9268">int numberEnergyGenerator</text><rect fill="none" height="6" style="stroke: #C82930; stroke-width: 1.0;" width="6" x="14" y="319.3438"/><text fill="#000000" font-family="sans-serif" font-size="11" lengthAdjust="spacingAndGlyphs" textLength="78" x="26" y="326.7627">int powerOutput</text><rect fill="none" height="6" style="stroke: #C82930; stroke-width: 1.0;" width="6" x="14" y="333.1797"/><text fill="#000000" font-family="sans-serif" font-size="11" lengthAdjust="spacingAndGlyphs" textLength="68" x="26" y="340.5986">String callSign</text><rect fill="none" height="6" style="stroke: #C82930; stroke-width: 1.0;" width="6" x="14" y="347.0156"/><text fill="#000000" font-family="sans-serif" font-size="11" lengthAdjust="spacingAndGlyphs" textLength="70" x="26" y="354.4346">int vesselType</text><rect fill="none" height="6" style="stroke: #C82930; stroke-width: 1.0;" width="6" x="14" y="360.8516"/><text fill="#000000" font-family="sans-serif" font-size="11" lengthAdjust="spacingAndGlyphs" textLength="64" x="26" y="368.2705">double length</text><rect fill="none" height="6" style="stroke: #C82930; stroke-width: 1.0;" width="6" x="14" y="374.6875"/><text fill="#000000" font-family="sans-serif" font-size="11" lengthAdjust="spacingAndGlyphs" textLength="62" x="26" y="382.1064">double width</text><rect fill="none" height="6" style="stroke: #C82930; stroke-width: 1.0;" width="6" x="14" y="388.5234"/><text fill="#000000" font-family="sans-serif" font-size="11" lengthAdjust="spacingAndGlyphs" textLength="100" x="26" y="395.9424">int maximumCapacity</text><rect fill="none" height="6" style="stroke: #C82930; stroke-width: 1.0;" width="6" x="14" y="402.3594"/><text fill="#000000" font-family="sans-serif" font-size="11" lengthAdjust="spacingAndGlyphs" textLength="58" x="26" y="409.7783">double draft</text><line style="stroke: #A80036; stroke-width: 1.5;" x1="7" x2="164" y1="416.1953" y2="416.1953"/><!--MD5=[4b872607f7837efd7ff30a896a8cdfbc]
class PortAndWarehouse--><rect fill="#FEFECE" filter="url(#fvp3w1iw3v73f)" height="131.0156" id="PortAndWarehouse" style="stroke: #A80036; stroke-width: 1.5;" width="139" x="200" y="258.5"/><ellipse cx="215" cy="274.5" fill="#ADD1B2" rx="11" ry="11" style="stroke: #A80036; stroke-width: 1.0;"/><path d="M217,271 Q217.2031,270.5 217.4375,270.25 Q217.6719,270 217.9375,270 Q218.4063,270 218.7031,270.2813 Q219,270.5625 219,271.2188 L219,272.7813 Q219,273.4375 218.7188,273.7188 Q218.4375,274 218,274 Q217.6094,274 217.3594,273.8281 Q217.1094,273.6563 217,273.2031 Q216.9531,272.8906 216.7813,272.7188 Q216.4688,272.3906 215.9063,272.2031 Q215.3438,272 214.7813,272 Q214.0781,272 213.4844,272.2813 Q212.9063,272.5625 212.4531,273.1875 Q212,273.8125 212,274.6719 L212,275.5938 Q212,276.625 212.8438,277.3125 Q213.6875,278 215.1875,278 Q216.0781,278 216.7031,277.7969 Q217.0625,277.6875 217.4688,277.3281 Q217.7344,277.125 217.875,277.0625 Q218.0156,277 218.1875,277 Q218.5156,277 218.75,277.2656 Q219,277.5156 219,277.875 Q219,278.2188 218.6563,278.625 Q218.1563,279.2188 217.3594,279.5469 Q216.3125,280 215.0313,280 Q213.5313,280 212.3281,279.4063 Q211.3594,278.9375 210.6719,277.9219 Q210,276.9063 210,275.7031 L210,274.6094 Q210,273.3594 210.5938,272.2656 Q211.2031,271.1719 212.25,270.5938 Q213.3125,270 214.5,270 Q215.2188,270 215.8438,270.25 Q216.4688,270.5 217,271 Z "/><text fill="#000000" font-family="sans-serif" font-size="12" lengthAdjust="spacingAndGlyphs" textLength="107" x="229" y="279.4102">PortAndWarehouse</text><line style="stroke: #A80036; stroke-width: 1.5;" x1="201" x2="338" y1="290.5" y2="290.5"/><rect fill="none" height="6" style="stroke: #C82930; stroke-width: 1.0;" width="6" x="208" y="298.5"/><text fill="#000000" font-family="sans-serif" font-size="11" lengthAdjust="spacingAndGlyphs" textLength="47" x="220" y="305.9189">int code &lt;</text><text fill="#000000" font-family="sans-serif" font-size="11" font-weight="bold" lengthAdjust="spacingAndGlyphs" textLength="20" x="267" y="305.9189">PK&gt;</text><rect fill="none" height="6" style="stroke: #C82930; stroke-width: 1.0;" width="6" x="208" y="312.3359"/><text fill="#000000" font-family="sans-serif" font-size="11" lengthAdjust="spacingAndGlyphs" textLength="75" x="220" y="319.7549">String continent</text><rect fill="none" height="6" style="stroke: #C82930; stroke-width: 1.0;" width="6" x="208" y="326.1719"/><text fill="#000000" font-family="sans-serif" font-size="11" lengthAdjust="spacingAndGlyphs" textLength="68" x="220" y="333.5908">String country</text><rect fill="none" height="6" style="stroke: #C82930; stroke-width: 1.0;" width="6" x="208" y="340.0078"/><text fill="#000000" font-family="sans-serif" font-size="11" lengthAdjust="spacingAndGlyphs" textLength="50" x="220" y="347.4268">String port</text><rect fill="none" height="6" style="stroke: #C82930; stroke-width: 1.0;" width="6" x="208" y="353.8438"/><text fill="#000000" font-family="sans-serif" font-size="11" lengthAdjust="spacingAndGlyphs" textLength="69" x="220" y="361.2627">double latitude</text><rect fill="none" height="6" style="stroke: #C82930; stroke-width: 1.0;" width="6" x="208" y="367.6797"/><text fill="#000000" font-family="sans-serif" font-size="11" lengthAdjust="spacingAndGlyphs" textLength="78" x="220" y="375.0986">double longitude</text><line style="stroke: #A80036; stroke-width: 1.5;" x1="201" x2="338" y1="381.5156" y2="381.5156"/><!--MD5=[ddaf6f62b0bc30921877ec9fb9463c9f]
class TrafficManager--><rect fill="#FEFECE" filter="url(#fvp3w1iw3v73f)" height="48" id="TrafficManager" style="stroke: #A80036; stroke-width: 1.5;" width="113" x="121" y="8"/><ellipse cx="136" cy="24" fill="#ADD1B2" rx="11" ry="11" style="stroke: #A80036; stroke-width: 1.0;"/><path d="M138,20.5 Q138.2031,20 138.4375,19.75 Q138.6719,19.5 138.9375,19.5 Q139.4063,19.5 139.7031,19.7813 Q140,20.0625 140,20.7188 L140,22.2813 Q140,22.9375 139.7188,23.2188 Q139.4375,23.5 139,23.5 Q138.6094,23.5 138.3594,23.3281 Q138.1094,23.1563 138,22.7031 Q137.9531,22.3906 137.7813,22.2188 Q137.4688,21.8906 136.9063,21.7031 Q136.3438,21.5 135.7813,21.5 Q135.0781,21.5 134.4844,21.7813 Q133.9063,22.0625 133.4531,22.6875 Q133,23.3125 133,24.1719 L133,25.0938 Q133,26.125 133.8438,26.8125 Q134.6875,27.5 136.1875,27.5 Q137.0781,27.5 137.7031,27.2969 Q138.0625,27.1875 138.4688,26.8281 Q138.7344,26.625 138.875,26.5625 Q139.0156,26.5 139.1875,26.5 Q139.5156,26.5 139.75,26.7656 Q140,27.0156 140,27.375 Q140,27.7188 139.6563,28.125 Q139.1563,28.7188 138.3594,29.0469 Q137.3125,29.5 136.0313,29.5 Q134.5313,29.5 133.3281,28.9063 Q132.3594,28.4375 131.6719,27.4219 Q131,26.4063 131,25.2031 L131,24.1094 Q131,22.8594 131.5938,21.7656 Q132.2031,20.6719 133.25,20.0938 Q134.3125,19.5 135.5,19.5 Q136.2188,19.5 136.8438,19.75 Q137.4688,20 138,20.5 Z "/><text fill="#000000" font-family="sans-serif" font-size="12" lengthAdjust="spacingAndGlyphs" textLength="81" x="150" y="28.9102">TrafficManager</text><line style="stroke: #A80036; stroke-width: 1.5;" x1="122" x2="233" y1="40" y2="40"/><line style="stroke: #A80036; stroke-width: 1.5;" x1="122" x2="233" y1="48" y2="48"/><!--MD5=[02e4b9b7573f1156f41e60aa5b4e25a4]
class Company--><rect fill="#FEFECE" filter="url(#fvp3w1iw3v73f)" height="48" id="Company" style="stroke: #A80036; stroke-width: 1.5;" width="85" x="135" y="116"/><ellipse cx="150" cy="132" fill="#ADD1B2" rx="11" ry="11" style="stroke: #A80036; stroke-width: 1.0;"/><path d="M152,128.5 Q152.2031,128 152.4375,127.75 Q152.6719,127.5 152.9375,127.5 Q153.4063,127.5 153.7031,127.7813 Q154,128.0625 154,128.7188 L154,130.2813 Q154,130.9375 153.7188,131.2188 Q153.4375,131.5 153,131.5 Q152.6094,131.5 152.3594,131.3281 Q152.1094,131.1563 152,130.7031 Q151.9531,130.3906 151.7813,130.2188 Q151.4688,129.8906 150.9063,129.7031 Q150.3438,129.5 149.7813,129.5 Q149.0781,129.5 148.4844,129.7813 Q147.9063,130.0625 147.4531,130.6875 Q147,131.3125 147,132.1719 L147,133.0938 Q147,134.125 147.8438,134.8125 Q148.6875,135.5 150.1875,135.5 Q151.0781,135.5 151.7031,135.2969 Q152.0625,135.1875 152.4688,134.8281 Q152.7344,134.625 152.875,134.5625 Q153.0156,134.5 153.1875,134.5 Q153.5156,134.5 153.75,134.7656 Q154,135.0156 154,135.375 Q154,135.7188 153.6563,136.125 Q153.1563,136.7188 152.3594,137.0469 Q151.3125,137.5 150.0313,137.5 Q148.5313,137.5 147.3281,136.9063 Q146.3594,136.4375 145.6719,135.4219 Q145,134.4063 145,133.2031 L145,132.1094 Q145,130.8594 145.5938,129.7656 Q146.2031,128.6719 147.25,128.0938 Q148.3125,127.5 149.5,127.5 Q150.2188,127.5 150.8438,127.75 Q151.4688,128 152,128.5 Z "/><text fill="#000000" font-family="sans-serif" font-size="12" lengthAdjust="spacingAndGlyphs" textLength="53" x="164" y="136.9102">Company</text><line style="stroke: #A80036; stroke-width: 1.5;" x1="136" x2="219" y1="148" y2="148"/><line style="stroke: #A80036; stroke-width: 1.5;" x1="136" x2="219" y1="156" y2="156"/><!--MD5=[42db3a3160cd97c2324f9fd4a6b0182a]
class PositionData--><rect fill="#FEFECE" filter="url(#fvp3w1iw3v73f)" height="158.6875" id="PositionData" style="stroke: #A80036; stroke-width: 1.5;" width="119" x="26" y="484"/><ellipse cx="48.2" cy="500" fill="#ADD1B2" rx="11" ry="11" style="stroke: #A80036; stroke-width: 1.0;"/><path d="M50.2,496.5 Q50.4031,496 50.6375,495.75 Q50.8719,495.5 51.1375,495.5 Q51.6063,495.5 51.9031,495.7813 Q52.2,496.0625 52.2,496.7188 L52.2,498.2813 Q52.2,498.9375 51.9188,499.2188 Q51.6375,499.5 51.2,499.5 Q50.8094,499.5 50.5594,499.3281 Q50.3094,499.1563 50.2,498.7031 Q50.1531,498.3906 49.9813,498.2188 Q49.6688,497.8906 49.1063,497.7031 Q48.5438,497.5 47.9813,497.5 Q47.2781,497.5 46.6844,497.7813 Q46.1063,498.0625 45.6531,498.6875 Q45.2,499.3125 45.2,500.1719 L45.2,501.0938 Q45.2,502.125 46.0438,502.8125 Q46.8875,503.5 48.3875,503.5 Q49.2781,503.5 49.9031,503.2969 Q50.2625,503.1875 50.6688,502.8281 Q50.9344,502.625 51.075,502.5625 Q51.2156,502.5 51.3875,502.5 Q51.7156,502.5 51.95,502.7656 Q52.2,503.0156 52.2,503.375 Q52.2,503.7188 51.8563,504.125 Q51.3563,504.7188 50.5594,505.0469 Q49.5125,505.5 48.2313,505.5 Q46.7313,505.5 45.5281,504.9063 Q44.5594,504.4375 43.8719,503.4219 Q43.2,502.4063 43.2,501.2031 L43.2,500.1094 Q43.2,498.8594 43.7938,497.7656 Q44.4031,496.6719 45.45,496.0938 Q46.5125,495.5 47.7,495.5 Q48.4188,495.5 49.0438,495.75 Q49.6688,496 50.2,496.5 Z "/><text fill="#000000" font-family="sans-serif" font-size="12" lengthAdjust="spacingAndGlyphs" textLength="71" x="63.8" y="504.9102">PositionData</text><line style="stroke: #A80036; stroke-width: 1.5;" x1="27" x2="144" y1="516" y2="516"/><rect fill="none" height="6" style="stroke: #C82930; stroke-width: 1.0;" width="6" x="34" y="524"/><text fill="#000000" font-family="sans-serif" font-size="11" lengthAdjust="spacingAndGlyphs" textLength="93" x="46" y="531.4189">Date baseDateTime</text><rect fill="none" height="6" style="stroke: #C82930; stroke-width: 1.0;" width="6" x="34" y="537.8359"/><text fill="#000000" font-family="sans-serif" font-size="11" lengthAdjust="spacingAndGlyphs" textLength="69" x="46" y="545.2549">double latitude</text><rect fill="none" height="6" style="stroke: #C82930; stroke-width: 1.0;" width="6" x="34" y="551.6719"/><text fill="#000000" font-family="sans-serif" font-size="11" lengthAdjust="spacingAndGlyphs" textLength="78" x="46" y="559.0908">double longitude</text><rect fill="none" height="6" style="stroke: #C82930; stroke-width: 1.0;" width="6" x="34" y="565.5078"/><text fill="#000000" font-family="sans-serif" font-size="11" lengthAdjust="spacingAndGlyphs" textLength="53" x="46" y="572.9268">double sog</text><rect fill="none" height="6" style="stroke: #C82930; stroke-width: 1.0;" width="6" x="34" y="579.3438"/><text fill="#000000" font-family="sans-serif" font-size="11" lengthAdjust="spacingAndGlyphs" textLength="53" x="46" y="586.7627">double cog</text><rect fill="none" height="6" style="stroke: #C82930; stroke-width: 1.0;" width="6" x="34" y="593.1797"/><text fill="#000000" font-family="sans-serif" font-size="11" lengthAdjust="spacingAndGlyphs" textLength="73" x="46" y="600.5986">double heading</text><rect fill="none" height="6" style="stroke: #C82930; stroke-width: 1.0;" width="6" x="34" y="607.0156"/><text fill="#000000" font-family="sans-serif" font-size="11" lengthAdjust="spacingAndGlyphs" textLength="51" x="46" y="614.4346">int position</text><rect fill="none" height="6" style="stroke: #C82930; stroke-width: 1.0;" width="6" x="34" y="620.8516"/><text fill="#000000" font-family="sans-serif" font-size="11" lengthAdjust="spacingAndGlyphs" textLength="86" x="46" y="628.2705">String transceiver</text><line style="stroke: #A80036; stroke-width: 1.5;" x1="27" x2="144" y1="634.6875" y2="634.6875"/><!--MD5=[bc71c62128aaf75a155dd6adc8e1dfa9]
link TrafficManager to Company--><path d="M177.5,56 C177.5,72.003 177.5,93.446 177.5,110.528 " fill="none" id="TrafficManager-&gt;Company" style="stroke: #A80036; stroke-width: 1.0;"/><polygon fill="#A80036" points="177.5,115.678,181.5,106.678,177.5,110.678,173.5,106.678,177.5,115.678" style="stroke: #A80036; stroke-width: 1.0;"/><!--MD5=[37a14a5de6d6fd738aee271300f4b5c8]
link Company to Ship--><path d="M165.848,164.05 C158.521,178.545 148.493,198.384 138.004,219.134 " fill="none" id="Company-&gt;Ship" style="stroke: #A80036; stroke-width: 1.0;"/><polygon fill="#A80036" points="135.617,223.855,143.2468,217.6271,137.8725,219.3926,136.1069,214.0183,135.617,223.855" style="stroke: #A80036; stroke-width: 1.0;"/><!--MD5=[95425788217bd59c85b124f5adf1e0d9]
link Company to PortAndWarehouse--><path d="M189.152,164.05 C200.535,186.569 218.437,221.985 234.457,253.676 " fill="none" id="Company-&gt;PortAndWarehouse" style="stroke: #A80036; stroke-width: 1.0;"/><polygon fill="#A80036" points="236.806,258.323,236.3148,248.4864,234.55,253.8609,229.1754,252.0961,236.806,258.323" style="stroke: #A80036; stroke-width: 1.0;"/><!--MD5=[abcab1b1a0fb024acaf53861b5be44de]
link Ship to PositionData--><path d="M85.5,424.002 C85.5,442.111 85.5,460.851 85.5,478.473 " fill="none" id="Ship-&gt;PositionData" style="stroke: #A80036; stroke-width: 1.0;"/><polygon fill="#A80036" points="85.5,483.904,89.5,474.904,85.5,478.904,81.5,474.904,85.5,483.904" style="stroke: #A80036; stroke-width: 1.0;"/><!--MD5=[33d0af44f5a34c7316d2910d2457ff0f]
link Ship to PortAndWarehouse--><path d="M165.281,324 C175.104,324 184.926,324 194.749,324 " fill="none" id="Ship-&gt;PortAndWarehouse" style="stroke: #A80036; stroke-width: 1.0;"/><polygon fill="#A80036" points="199.885,324,190.885,320,194.885,324,190.885,328,199.885,324" style="stroke: #A80036; stroke-width: 1.0;"/><!--MD5=[4455f33a8785e2ad0477f971c9eaa9a3]
@startuml

class Ship {

    -int MMSI <<b>PK>
    -String name
    -int IMO
    -int numberEnergyGenerator
    -int powerOutput
    -String callSign
    -int vesselType
    -double length
    -double width
    -int maximumCapacity
    -double draft
}

class PortAndWarehouse {
    -int code <<b>PK>
    -String continent
    -String country
    -String port
    -double latitude
    -double longitude
}

class TrafficManager{
}

class Company {

}

class PositionData{
    -Date baseDateTime
    -double latitude
    -double longitude
    -double sog
    -double cog
    -double heading
    -int position
    -String transceiver
}

TrafficManager - -> Company
Company - -> Ship
Company - -> PortAndWarehouse
Ship - -> PositionData
Ship -> PortAndWarehouse

@enduml

PlantUML version 1.2020.07(Sun Apr 19 12:42:40 BST 2020)
(GPL source distribution)
Java Runtime: OpenJDK Runtime Environment
JVM: OpenJDK 64-Bit Server VM
Java Version: 11.0.6+8-b765.40
Operating System: Windows 10
Default Encoding: Cp1252
Language: pt
Country: PT
--></g></svg>