<?xml version="1.0" encoding="UTF-8" standalone="no"?><svg xmlns="http://www.w3.org/2000/svg" xmlns:xlink="http://www.w3.org/1999/xlink" contentScriptType="application/ecmascript" contentStyleType="text/css" height="285px" preserveAspectRatio="none" style="width:167px;height:285px;" version="1.1" viewBox="0 0 167 285" width="167px" zoomAndPan="magnify"><defs><filter height="300%" id="f1g11mnw580ubp" width="300%" x="-1" y="-1"><feGaussianBlur result="blurOut" stdDeviation="2.0"/><feColorMatrix in="blurOut" result="blurOut2" type="matrix" values="0 0 0 0 0 0 0 0 0 0 0 0 0 0 0 0 0 0 .4 0"/><feOffset dx="4.0" dy="4.0" in="blurOut2" result="blurOut3"/><feBlend in="SourceGraphic" in2="blurOut3" mode="normal"/></filter></defs><g><!--MD5=[e6b394b930674b2255938b8afe6bb7b4]
class ShipCaptain--><rect fill="#FEFECE" filter="url(#f1g11mnw580ubp)" height="48" id="ShipCaptain" style="stroke: #A80036; stroke-width: 1.5;" width="100" x="31" y="8"/><ellipse cx="46" cy="24" fill="#ADD1B2" rx="11" ry="11" style="stroke: #A80036; stroke-width: 1.0;"/><path d="M48,20.5 Q48.2031,20 48.4375,19.75 Q48.6719,19.5 48.9375,19.5 Q49.4063,19.5 49.7031,19.7813 Q50,20.0625 50,20.7188 L50,22.2813 Q50,22.9375 49.7188,23.2188 Q49.4375,23.5 49,23.5 Q48.6094,23.5 48.3594,23.3281 Q48.1094,23.1563 48,22.7031 Q47.9531,22.3906 47.7813,22.2188 Q47.4688,21.8906 46.9063,21.7031 Q46.3438,21.5 45.7813,21.5 Q45.0781,21.5 44.4844,21.7813 Q43.9063,22.0625 43.4531,22.6875 Q43,23.3125 43,24.1719 L43,25.0938 Q43,26.125 43.8438,26.8125 Q44.6875,27.5 46.1875,27.5 Q47.0781,27.5 47.7031,27.2969 Q48.0625,27.1875 48.4688,26.8281 Q48.7344,26.625 48.875,26.5625 Q49.0156,26.5 49.1875,26.5 Q49.5156,26.5 49.75,26.7656 Q50,27.0156 50,27.375 Q50,27.7188 49.6563,28.125 Q49.1563,28.7188 48.3594,29.0469 Q47.3125,29.5 46.0313,29.5 Q44.5313,29.5 43.3281,28.9063 Q42.3594,28.4375 41.6719,27.4219 Q41,26.4063 41,25.2031 L41,24.1094 Q41,22.8594 41.5938,21.7656 Q42.2031,20.6719 43.25,20.0938 Q44.3125,19.5 45.5,19.5 Q46.2188,19.5 46.8438,19.75 Q47.4688,20 48,20.5 Z "/><text fill="#000000" font-family="sans-serif" font-size="12" lengthAdjust="spacingAndGlyphs" textLength="68" x="60" y="28.9102">ShipCaptain</text><line style="stroke: #A80036; stroke-width: 1.5;" x1="32" x2="130" y1="40" y2="40"/><line style="stroke: #A80036; stroke-width: 1.5;" x1="32" x2="130" y1="48" y2="48"/><!--MD5=[e9a58730c562b34349daa605d1ed6662]
class Container--><rect fill="#FEFECE" filter="url(#f1g11mnw580ubp)" height="158.6875" id="Container" style="stroke: #A80036; stroke-width: 1.5;" width="150" x="6" y="116"/><ellipse cx="49.8" cy="132" fill="#ADD1B2" rx="11" ry="11" style="stroke: #A80036; stroke-width: 1.0;"/><path d="M51.8,128.5 Q52.0031,128 52.2375,127.75 Q52.4719,127.5 52.7375,127.5 Q53.2063,127.5 53.5031,127.7813 Q53.8,128.0625 53.8,128.7188 L53.8,130.2813 Q53.8,130.9375 53.5188,131.2188 Q53.2375,131.5 52.8,131.5 Q52.4094,131.5 52.1594,131.3281 Q51.9094,131.1563 51.8,130.7031 Q51.7531,130.3906 51.5813,130.2188 Q51.2688,129.8906 50.7063,129.7031 Q50.1438,129.5 49.5813,129.5 Q48.8781,129.5 48.2844,129.7813 Q47.7063,130.0625 47.2531,130.6875 Q46.8,131.3125 46.8,132.1719 L46.8,133.0938 Q46.8,134.125 47.6438,134.8125 Q48.4875,135.5 49.9875,135.5 Q50.8781,135.5 51.5031,135.2969 Q51.8625,135.1875 52.2688,134.8281 Q52.5344,134.625 52.675,134.5625 Q52.8156,134.5 52.9875,134.5 Q53.3156,134.5 53.55,134.7656 Q53.8,135.0156 53.8,135.375 Q53.8,135.7188 53.4563,136.125 Q52.9563,136.7188 52.1594,137.0469 Q51.1125,137.5 49.8313,137.5 Q48.3313,137.5 47.1281,136.9063 Q46.1594,136.4375 45.4719,135.4219 Q44.8,134.4063 44.8,133.2031 L44.8,132.1094 Q44.8,130.8594 45.3938,129.7656 Q46.0031,128.6719 47.05,128.0938 Q48.1125,127.5 49.3,127.5 Q50.0188,127.5 50.6438,127.75 Q51.2688,128 51.8,128.5 Z "/><text fill="#000000" font-family="sans-serif" font-size="12" lengthAdjust="spacingAndGlyphs" textLength="54" x="70.2" y="136.9102">Container</text><line style="stroke: #A80036; stroke-width: 1.5;" x1="7" x2="155" y1="148" y2="148"/><rect fill="none" height="6" style="stroke: #C82930; stroke-width: 1.0;" width="6" x="14" y="156"/><text fill="#000000" font-family="sans-serif" font-size="11" lengthAdjust="spacingAndGlyphs" textLength="94" x="26" y="163.4189">String containerID &lt;</text><text fill="#000000" font-family="sans-serif" font-size="11" font-weight="bold" lengthAdjust="spacingAndGlyphs" textLength="20" x="120" y="163.4189">PK&gt;</text><rect fill="none" height="6" style="stroke: #C82930; stroke-width: 1.0;" width="6" x="14" y="169.8359"/><text fill="#000000" font-family="sans-serif" font-size="11" lengthAdjust="spacingAndGlyphs" textLength="63" x="26" y="177.2549">int checkDigit</text><rect fill="none" height="6" style="stroke: #C82930; stroke-width: 1.0;" width="6" x="14" y="183.6719"/><text fill="#000000" font-family="sans-serif" font-size="11" lengthAdjust="spacingAndGlyphs" textLength="48" x="26" y="191.0908">String ISO</text><rect fill="none" height="6" style="stroke: #C82930; stroke-width: 1.0;" width="6" x="14" y="197.5078"/><text fill="#000000" font-family="sans-serif" font-size="11" lengthAdjust="spacingAndGlyphs" textLength="42" x="26" y="204.9268">int gross</text><rect fill="none" height="6" style="stroke: #C82930; stroke-width: 1.0;" width="6" x="14" y="211.3438"/><text fill="#000000" font-family="sans-serif" font-size="11" lengthAdjust="spacingAndGlyphs" textLength="33" x="26" y="218.7627">int tare</text><rect fill="none" height="6" style="stroke: #C82930; stroke-width: 1.0;" width="6" x="14" y="225.1797"/><text fill="#000000" font-family="sans-serif" font-size="11" lengthAdjust="spacingAndGlyphs" textLength="52" x="26" y="232.5986">int payload</text><rect fill="none" height="6" style="stroke: #C82930; stroke-width: 1.0;" width="6" x="14" y="239.0156"/><text fill="#000000" font-family="sans-serif" font-size="11" lengthAdjust="spacingAndGlyphs" textLength="70" x="26" y="246.4346">int maxVolume</text><rect fill="none" height="6" style="stroke: #C82930; stroke-width: 1.0;" width="6" x="14" y="252.8516"/><text fill="#000000" font-family="sans-serif" font-size="11" lengthAdjust="spacingAndGlyphs" textLength="124" x="26" y="260.2705">int repairRecommendation</text><line style="stroke: #A80036; stroke-width: 1.5;" x1="7" x2="155" y1="266.6875" y2="266.6875"/><!--MD5=[d84d67203e7d83cdf89710d70aff3023]
link ShipCaptain to Container--><path d="M81,56.139 C81,70.773 81,90.674 81,110.818 " fill="none" id="ShipCaptain-&gt;Container" style="stroke: #A80036; stroke-width: 1.0;"/><polygon fill="#A80036" points="81,115.942,85,106.942,81,110.942,77,106.942,81,115.942" style="stroke: #A80036; stroke-width: 1.0;"/><!--MD5=[c6a9ebaf51d43aed02dbfbf82509838c]
@startuml

class ShipCaptain{

}

class Container {

    -String containerID <<b>PK>
    -int checkDigit
    -String ISO
    -int gross
    -int tare
    -int payload
    -int maxVolume
    -int repairRecommendation

}

ShipCaptain - -> Container

@enduml

PlantUML version 1.2020.07(Sun Apr 19 12:42:40 BST 2020)
(GPL source distribution)
Java Runtime: OpenJDK Runtime Environment
JVM: OpenJDK 64-Bit Server VM
Java Version: 11.0.6+8-b765.40
Operating System: Windows 10
Default Encoding: Cp1252
Language: pt
Country: PT
--></g></svg>