<?xml version="1.0" encoding="UTF-8" standalone="no"?><svg xmlns="http://www.w3.org/2000/svg" xmlns:xlink="http://www.w3.org/1999/xlink" contentScriptType="application/ecmascript" contentStyleType="text/css" height="464px" preserveAspectRatio="none" style="width:1190px;height:464px;" version="1.1" viewBox="0 0 1190 464" width="1190px" zoomAndPan="magnify"><defs><filter height="300%" id="f196cf7w8lmgm3" width="300%" x="-1" y="-1"><feGaussianBlur result="blurOut" stdDeviation="2.0"/><feColorMatrix in="blurOut" result="blurOut2" type="matrix" values="0 0 0 0 0 0 0 0 0 0 0 0 0 0 0 0 0 0 .4 0"/><feOffset dx="4.0" dy="4.0" in="blurOut2" result="blurOut3"/><feBlend in="SourceGraphic" in2="blurOut3" mode="normal"/></filter></defs><g><rect fill="#FFFFFF" filter="url(#f196cf7w8lmgm3)" height="238.3672" style="stroke: #A80036; stroke-width: 1.0;" width="10" x="357.5" y="119.9609"/><rect fill="#FFFFFF" filter="url(#f196cf7w8lmgm3)" height="170.6641" style="stroke: #A80036; stroke-width: 1.0;" width="10" x="626.5" y="150.3125"/><rect fill="#FFFFFF" filter="url(#f196cf7w8lmgm3)" height="140.3125" style="stroke: #A80036; stroke-width: 1.0;" width="10" x="852.5" y="180.6641"/><line style="stroke: #A80036; stroke-width: 1.0; stroke-dasharray: 5.0,5.0;" x1="49" x2="49" y1="87.6094" y2="376.3281"/><line style="stroke: #A80036; stroke-width: 1.0; stroke-dasharray: 5.0,5.0;" x1="362.5" x2="362.5" y1="87.6094" y2="376.3281"/><line style="stroke: #A80036; stroke-width: 1.0; stroke-dasharray: 5.0,5.0;" x1="631.5" x2="631.5" y1="87.6094" y2="376.3281"/><line style="stroke: #A80036; stroke-width: 1.0; stroke-dasharray: 5.0,5.0;" x1="857.5" x2="857.5" y1="87.6094" y2="376.3281"/><line style="stroke: #A80036; stroke-width: 1.0; stroke-dasharray: 5.0,5.0;" x1="1150.5" x2="1150.5" y1="235.4688" y2="376.3281"/><text fill="#000000" font-family="sans-serif" font-size="14" lengthAdjust="spacingAndGlyphs" textLength="77" x="8" y="84.5332">ShipCaptain</text><ellipse cx="49.5" cy="13" fill="#FEFECE" filter="url(#f196cf7w8lmgm3)" rx="8" ry="8" style="stroke: #A80036; stroke-width: 2.0;"/><path d="M49.5,21 L49.5,48 M36.5,29 L62.5,29 M49.5,48 L36.5,63 M49.5,48 L62.5,63 " fill="none" filter="url(#f196cf7w8lmgm3)" style="stroke: #A80036; stroke-width: 2.0;"/><text fill="#000000" font-family="sans-serif" font-size="14" lengthAdjust="spacingAndGlyphs" textLength="77" x="8" y="389.8613">ShipCaptain</text><ellipse cx="49.5" cy="402.9375" fill="#FEFECE" filter="url(#f196cf7w8lmgm3)" rx="8" ry="8" style="stroke: #A80036; stroke-width: 2.0;"/><path d="M49.5,410.9375 L49.5,437.9375 M36.5,418.9375 L62.5,418.9375 M49.5,437.9375 L36.5,452.9375 M49.5,437.9375 L62.5,452.9375 " fill="none" filter="url(#f196cf7w8lmgm3)" style="stroke: #A80036; stroke-width: 2.0;"/><rect fill="#FEFECE" filter="url(#f196cf7w8lmgm3)" height="31.6094" style="stroke: #A80036; stroke-width: 1.5;" width="230" x="245.5" y="51"/><text fill="#000000" font-family="sans-serif" font-size="14" lengthAdjust="spacingAndGlyphs" textLength="216" x="252.5" y="72.5332">:getListContainerToBeOffloadedUI</text><rect fill="#FEFECE" filter="url(#f196cf7w8lmgm3)" height="31.6094" style="stroke: #A80036; stroke-width: 1.5;" width="230" x="245.5" y="375.3281"/><text fill="#000000" font-family="sans-serif" font-size="14" lengthAdjust="spacingAndGlyphs" textLength="216" x="252.5" y="396.8613">:getListContainerToBeOffloadedUI</text><rect fill="#FEFECE" filter="url(#f196cf7w8lmgm3)" height="31.6094" style="stroke: #A80036; stroke-width: 1.5;" width="280" x="489.5" y="51"/><text fill="#000000" font-family="sans-serif" font-size="14" lengthAdjust="spacingAndGlyphs" textLength="266" x="496.5" y="72.5332">:getListContainerToBeOffloadedController</text><rect fill="#FEFECE" filter="url(#f196cf7w8lmgm3)" height="31.6094" style="stroke: #A80036; stroke-width: 1.5;" width="280" x="489.5" y="375.3281"/><text fill="#000000" font-family="sans-serif" font-size="14" lengthAdjust="spacingAndGlyphs" textLength="266" x="496.5" y="396.8613">:getListContainerToBeOffloadedController</text><rect fill="#FEFECE" filter="url(#f196cf7w8lmgm3)" height="31.6094" style="stroke: #A80036; stroke-width: 1.5;" width="78" x="816.5" y="51"/><text fill="#000000" font-family="sans-serif" font-size="14" lengthAdjust="spacingAndGlyphs" textLength="64" x="823.5" y="72.5332">:Company</text><rect fill="#FEFECE" filter="url(#f196cf7w8lmgm3)" height="31.6094" style="stroke: #A80036; stroke-width: 1.5;" width="78" x="816.5" y="375.3281"/><text fill="#000000" font-family="sans-serif" font-size="14" lengthAdjust="spacingAndGlyphs" textLength="64" x="823.5" y="396.8613">:Company</text><text fill="#000000" font-family="sans-serif" font-size="14" lengthAdjust="spacingAndGlyphs" textLength="62" x="1116.5" y="389.8613">DataBase</text><path d="M1132.5,402.9375 C1132.5,392.9375 1150.5,392.9375 1150.5,392.9375 C1150.5,392.9375 1168.5,392.9375 1168.5,402.9375 L1168.5,428.9375 C1168.5,438.9375 1150.5,438.9375 1150.5,438.9375 C1150.5,438.9375 1132.5,438.9375 1132.5,428.9375 L1132.5,402.9375 " fill="#FEFECE" filter="url(#f196cf7w8lmgm3)" style="stroke: #000000; stroke-width: 1.5;"/><path d="M1132.5,402.9375 C1132.5,412.9375 1150.5,412.9375 1150.5,412.9375 C1150.5,412.9375 1168.5,412.9375 1168.5,402.9375 " fill="none" style="stroke: #000000; stroke-width: 1.5;"/><rect fill="#FFFFFF" filter="url(#f196cf7w8lmgm3)" height="238.3672" style="stroke: #A80036; stroke-width: 1.0;" width="10" x="357.5" y="119.9609"/><rect fill="#FFFFFF" filter="url(#f196cf7w8lmgm3)" height="170.6641" style="stroke: #A80036; stroke-width: 1.0;" width="10" x="626.5" y="150.3125"/><rect fill="#FFFFFF" filter="url(#f196cf7w8lmgm3)" height="140.3125" style="stroke: #A80036; stroke-width: 1.0;" width="10" x="852.5" y="180.6641"/><polygon fill="#A80036" points="345.5,115.9609,355.5,119.9609,345.5,123.9609,349.5,119.9609" style="stroke: #A80036; stroke-width: 1.0;"/><line style="stroke: #A80036; stroke-width: 1.0;" x1="49.5" x2="351.5" y1="119.9609" y2="119.9609"/><text fill="#000000" font-family="sans-serif" font-size="13" font-weight="bold" lengthAdjust="spacingAndGlyphs" textLength="7" x="56.5" y="115.1045">1</text><text fill="#000000" font-family="sans-serif" font-size="13" lengthAdjust="spacingAndGlyphs" textLength="278" x="67.5" y="115.1045">List of containers to be offloaded in the next port</text><polygon fill="#A80036" points="614.5,146.3125,624.5,150.3125,614.5,154.3125,618.5,150.3125" style="stroke: #A80036; stroke-width: 1.0;"/><line style="stroke: #A80036; stroke-width: 1.0;" x1="367.5" x2="620.5" y1="150.3125" y2="150.3125"/><text fill="#000000" font-family="sans-serif" font-size="13" font-weight="bold" lengthAdjust="spacingAndGlyphs" textLength="7" x="374.5" y="145.4561">2</text><text fill="#000000" font-family="sans-serif" font-size="13" lengthAdjust="spacingAndGlyphs" textLength="186" x="385.5" y="145.4561">getListContainerToBeOffloaded()</text><polygon fill="#A80036" points="840.5,176.6641,850.5,180.6641,840.5,184.6641,844.5,180.6641" style="stroke: #A80036; stroke-width: 1.0;"/><line style="stroke: #A80036; stroke-width: 1.0;" x1="636.5" x2="846.5" y1="180.6641" y2="180.6641"/><text fill="#000000" font-family="sans-serif" font-size="13" font-weight="bold" lengthAdjust="spacingAndGlyphs" textLength="7" x="643.5" y="175.8076">3</text><text fill="#000000" font-family="sans-serif" font-size="13" lengthAdjust="spacingAndGlyphs" textLength="186" x="654.5" y="175.8076">getListContainerToBeOffloaded()</text><polygon fill="#A80036" points="1104.5,207.0156,1114.5,211.0156,1104.5,215.0156,1108.5,211.0156" style="stroke: #A80036; stroke-width: 1.0;"/><line style="stroke: #A80036; stroke-width: 1.0;" x1="862.5" x2="1110.5" y1="211.0156" y2="211.0156"/><text fill="#000000" font-family="sans-serif" font-size="13" font-weight="bold" lengthAdjust="spacingAndGlyphs" textLength="7" x="869.5" y="206.1592">4</text><text fill="#000000" font-family="sans-serif" font-size="13" lengthAdjust="spacingAndGlyphs" textLength="219" x="880.5" y="206.1592">getShipsListContainerToBeOffloaded()</text><text fill="#000000" font-family="sans-serif" font-size="14" lengthAdjust="spacingAndGlyphs" textLength="62" x="1116.5" y="249.1973">DataBase</text><path d="M1132.5,198.6641 C1132.5,188.6641 1150.5,188.6641 1150.5,188.6641 C1150.5,188.6641 1168.5,188.6641 1168.5,198.6641 L1168.5,224.6641 C1168.5,234.6641 1150.5,234.6641 1150.5,234.6641 C1150.5,234.6641 1132.5,234.6641 1132.5,224.6641 L1132.5,198.6641 " fill="#FEFECE" filter="url(#f196cf7w8lmgm3)" style="stroke: #000000; stroke-width: 1.5;"/><path d="M1132.5,198.6641 C1132.5,208.6641 1150.5,208.6641 1150.5,208.6641 C1150.5,208.6641 1168.5,208.6641 1168.5,198.6641 " fill="none" style="stroke: #000000; stroke-width: 1.5;"/><polygon fill="#A80036" points="1138.5,280.625,1148.5,284.625,1138.5,288.625,1142.5,284.625" style="stroke: #A80036; stroke-width: 1.0;"/><line style="stroke: #A80036; stroke-width: 1.0;" x1="862.5" x2="1144.5" y1="284.625" y2="284.625"/><text fill="#000000" font-family="sans-serif" font-size="13" font-weight="bold" lengthAdjust="spacingAndGlyphs" textLength="7" x="869.5" y="279.7686">5</text><text fill="#000000" font-family="sans-serif" font-size="13" lengthAdjust="spacingAndGlyphs" textLength="217" x="880.5" y="279.7686">getPortsListContainerToBeOffloaded()</text><line style="stroke: #A80036; stroke-width: 1.0;" x1="862.5" x2="904.5" y1="319.9766" y2="319.9766"/><line style="stroke: #A80036; stroke-width: 1.0;" x1="904.5" x2="904.5" y1="319.9766" y2="332.9766"/><line style="stroke: #A80036; stroke-width: 1.0;" x1="857.5" x2="904.5" y1="332.9766" y2="332.9766"/><polygon fill="#A80036" points="867.5,328.9766,857.5,332.9766,867.5,336.9766,863.5,332.9766" style="stroke: #A80036; stroke-width: 1.0;"/><text fill="#000000" font-family="sans-serif" font-size="13" font-weight="bold" lengthAdjust="spacingAndGlyphs" textLength="7" x="869.5" y="315.1201">6</text><text fill="#000000" font-family="sans-serif" font-size="13" lengthAdjust="spacingAndGlyphs" textLength="186" x="880.5" y="315.1201">getListContainerToBeOffloaded()</text><polygon fill="#A80036" points="60.5,354.3281,50.5,358.3281,60.5,362.3281,56.5,358.3281" style="stroke: #A80036; stroke-width: 1.0;"/><line style="stroke: #A80036; stroke-width: 1.0; stroke-dasharray: 2.0,2.0;" x1="54.5" x2="361.5" y1="358.3281" y2="358.3281"/><text fill="#000000" font-family="sans-serif" font-size="13" font-weight="bold" lengthAdjust="spacingAndGlyphs" textLength="7" x="66.5" y="353.4717">7</text><text fill="#000000" font-family="sans-serif" font-size="13" lengthAdjust="spacingAndGlyphs" textLength="79" x="77.5" y="353.4717">listContainers</text><!--MD5=[6fcc5a25d4ca37ad53fe6b227db0446c]
@startuml

autonumber

actor       ShipCaptain                as SC
participant    ":getListContainerToBeOffloadedUI"         as ui
participant    ":getListContainerToBeOffloadedController" as ctrl
participant    ":Company"                 as company
database       "DataBase"              as db

SC -> ui : List of containers to be offloaded in the next port

activate ui

    ui -> ctrl : getListContainerToBeOffloaded()

    activate ctrl

    ctrl -> company : getListContainerToBeOffloaded()

    activate company

    company -> db** : getShipsListContainerToBeOffloaded()

    company -> db : getPortsListContainerToBeOffloaded()

    company -> company : getListContainerToBeOffloaded()

    deactivate company

    deactivate ctrl


ui - -> SC : listContainers

deactivate ui

@enduml

PlantUML version 1.2020.07(Sun Apr 19 12:42:40 BST 2020)
(GPL source distribution)
Java Runtime: OpenJDK Runtime Environment
JVM: OpenJDK 64-Bit Server VM
Java Version: 11.0.6+8-b765.40
Operating System: Windows 10
Default Encoding: Cp1252
Language: pt
Country: PT
--></g></svg>