<?xml version="1.0" encoding="UTF-8" standalone="no"?><svg xmlns="http://www.w3.org/2000/svg" xmlns:xlink="http://www.w3.org/1999/xlink" contentScriptType="application/ecmascript" contentStyleType="text/css" height="684px" preserveAspectRatio="none" style="width:569px;height:684px;background:#FFFFFF;" version="1.1" viewBox="0 0 569 684" width="569px" zoomAndPan="magnify"><defs><filter height="300%" id="f17quehekf1xp4" width="300%" x="-1" y="-1"><feGaussianBlur result="blurOut" stdDeviation="2.0"/><feColorMatrix in="blurOut" result="blurOut2" type="matrix" values="0 0 0 0 0 0 0 0 0 0 0 0 0 0 0 0 0 0 .4 0"/><feOffset dx="4.0" dy="4.0" in="blurOut2" result="blurOut3"/><feBlend in="SourceGraphic" in2="blurOut3" mode="normal"/></filter></defs><g><!--MD5=[019a73386217e12d5bb8e34bf0b46b9e]
class FleetManager--><rect codeLine="2" fill="#FEFECE" filter="url(#f17quehekf1xp4)" height="48" id="FleetManager" style="stroke:#A80036;stroke-width:1.5;" width="107" x="316" y="7"/><ellipse cx="331" cy="23" fill="#ADD1B2" rx="11" ry="11" style="stroke:#A80036;stroke-width:1.0;"/><path d="M333,19.5 Q333.2031,19 333.4375,18.75 Q333.6719,18.5 333.9375,18.5 Q334.4063,18.5 334.7031,18.7813 Q335,19.0625 335,19.7188 L335,21.2813 Q335,21.9375 334.7188,22.2188 Q334.4375,22.5 334,22.5 Q333.6094,22.5 333.3594,22.3281 Q333.1094,22.1563 333,21.7031 Q332.9531,21.3906 332.7813,21.2188 Q332.4688,20.8906 331.9063,20.7031 Q331.3438,20.5 330.7813,20.5 Q330.0781,20.5 329.4844,20.7813 Q328.9063,21.0625 328.4531,21.6875 Q328,22.3125 328,23.1719 L328,24.0938 Q328,25.125 328.8438,25.8125 Q329.6875,26.5 331.1875,26.5 Q332.0781,26.5 332.7031,26.2969 Q333.0625,26.1875 333.4688,25.8281 Q333.7344,25.625 333.875,25.5625 Q334.0156,25.5 334.1875,25.5 Q334.5156,25.5 334.75,25.7656 Q335,26.0156 335,26.375 Q335,26.7188 334.6563,27.125 Q334.1563,27.7188 333.3594,28.0469 Q332.3125,28.5 331.0313,28.5 Q329.5313,28.5 328.3281,27.9063 Q327.3594,27.4375 326.6719,26.4219 Q326,25.4063 326,24.2031 L326,23.1094 Q326,21.8594 326.5938,20.7656 Q327.2031,19.6719 328.25,19.0938 Q329.3125,18.5 330.5,18.5 Q331.2188,18.5 331.8438,18.75 Q332.4688,19 333,19.5 Z " fill="#000000"/><text fill="#000000" font-family="sans-serif" font-size="12" lengthAdjust="spacing" textLength="75" x="345" y="27.9102">FleetManager</text><line style="stroke:#A80036;stroke-width:1.5;" x1="317" x2="422" y1="39" y2="39"/><line style="stroke:#A80036;stroke-width:1.5;" x1="317" x2="422" y1="47" y2="47"/><!--MD5=[3fd616f346a44cd59a91eb10b19e157c]
class User--><rect codeLine="6" fill="#FEFECE" filter="url(#f17quehekf1xp4)" height="48" id="User" style="stroke:#A80036;stroke-width:1.5;" width="59" x="483" y="154"/><ellipse cx="498" cy="170" fill="#ADD1B2" rx="11" ry="11" style="stroke:#A80036;stroke-width:1.0;"/><path d="M500,166.5 Q500.2031,166 500.4375,165.75 Q500.6719,165.5 500.9375,165.5 Q501.4063,165.5 501.7031,165.7813 Q502,166.0625 502,166.7188 L502,168.2813 Q502,168.9375 501.7188,169.2188 Q501.4375,169.5 501,169.5 Q500.6094,169.5 500.3594,169.3281 Q500.1094,169.1563 500,168.7031 Q499.9531,168.3906 499.7813,168.2188 Q499.4688,167.8906 498.9063,167.7031 Q498.3438,167.5 497.7813,167.5 Q497.0781,167.5 496.4844,167.7813 Q495.9063,168.0625 495.4531,168.6875 Q495,169.3125 495,170.1719 L495,171.0938 Q495,172.125 495.8438,172.8125 Q496.6875,173.5 498.1875,173.5 Q499.0781,173.5 499.7031,173.2969 Q500.0625,173.1875 500.4688,172.8281 Q500.7344,172.625 500.875,172.5625 Q501.0156,172.5 501.1875,172.5 Q501.5156,172.5 501.75,172.7656 Q502,173.0156 502,173.375 Q502,173.7188 501.6563,174.125 Q501.1563,174.7188 500.3594,175.0469 Q499.3125,175.5 498.0313,175.5 Q496.5313,175.5 495.3281,174.9063 Q494.3594,174.4375 493.6719,173.4219 Q493,172.4063 493,171.2031 L493,170.1094 Q493,168.8594 493.5938,167.7656 Q494.2031,166.6719 495.25,166.0938 Q496.3125,165.5 497.5,165.5 Q498.2188,165.5 498.8438,165.75 Q499.4688,166 500,166.5 Z " fill="#000000"/><text fill="#000000" font-family="sans-serif" font-size="12" lengthAdjust="spacing" textLength="27" x="512" y="174.9102">User</text><line style="stroke:#A80036;stroke-width:1.5;" x1="484" x2="541" y1="186" y2="186"/><line style="stroke:#A80036;stroke-width:1.5;" x1="484" x2="541" y1="194" y2="194"/><!--MD5=[45d42ff7800d812d5f83c7d3273eb427]
class UserRole--><rect codeLine="10" fill="#FEFECE" filter="url(#f17quehekf1xp4)" height="48" id="UserRole" style="stroke:#A80036;stroke-width:1.5;" width="85" x="470" y="335.5"/><ellipse cx="485" cy="351.5" fill="#ADD1B2" rx="11" ry="11" style="stroke:#A80036;stroke-width:1.0;"/><path d="M487,348 Q487.2031,347.5 487.4375,347.25 Q487.6719,347 487.9375,347 Q488.4063,347 488.7031,347.2813 Q489,347.5625 489,348.2188 L489,349.7813 Q489,350.4375 488.7188,350.7188 Q488.4375,351 488,351 Q487.6094,351 487.3594,350.8281 Q487.1094,350.6563 487,350.2031 Q486.9531,349.8906 486.7813,349.7188 Q486.4688,349.3906 485.9063,349.2031 Q485.3438,349 484.7813,349 Q484.0781,349 483.4844,349.2813 Q482.9063,349.5625 482.4531,350.1875 Q482,350.8125 482,351.6719 L482,352.5938 Q482,353.625 482.8438,354.3125 Q483.6875,355 485.1875,355 Q486.0781,355 486.7031,354.7969 Q487.0625,354.6875 487.4688,354.3281 Q487.7344,354.125 487.875,354.0625 Q488.0156,354 488.1875,354 Q488.5156,354 488.75,354.2656 Q489,354.5156 489,354.875 Q489,355.2188 488.6563,355.625 Q488.1563,356.2188 487.3594,356.5469 Q486.3125,357 485.0313,357 Q483.5313,357 482.3281,356.4063 Q481.3594,355.9375 480.6719,354.9219 Q480,353.9063 480,352.7031 L480,351.6094 Q480,350.3594 480.5938,349.2656 Q481.2031,348.1719 482.25,347.5938 Q483.3125,347 484.5,347 Q485.2188,347 485.8438,347.25 Q486.4688,347.5 487,348 Z " fill="#000000"/><text fill="#000000" font-family="sans-serif" font-size="12" lengthAdjust="spacing" textLength="53" x="499" y="356.4102">UserRole</text><line style="stroke:#A80036;stroke-width:1.5;" x1="471" x2="554" y1="367.5" y2="367.5"/><line style="stroke:#A80036;stroke-width:1.5;" x1="471" x2="554" y1="375.5" y2="375.5"/><!--MD5=[02e4b9b7573f1156f41e60aa5b4e25a4]
class Company--><rect codeLine="14" fill="#FEFECE" filter="url(#f17quehekf1xp4)" height="48" id="Company" style="stroke:#A80036;stroke-width:1.5;" width="85" x="185" y="496"/><ellipse cx="200" cy="512" fill="#ADD1B2" rx="11" ry="11" style="stroke:#A80036;stroke-width:1.0;"/><path d="M202,508.5 Q202.2031,508 202.4375,507.75 Q202.6719,507.5 202.9375,507.5 Q203.4063,507.5 203.7031,507.7813 Q204,508.0625 204,508.7188 L204,510.2813 Q204,510.9375 203.7188,511.2188 Q203.4375,511.5 203,511.5 Q202.6094,511.5 202.3594,511.3281 Q202.1094,511.1563 202,510.7031 Q201.9531,510.3906 201.7813,510.2188 Q201.4688,509.8906 200.9063,509.7031 Q200.3438,509.5 199.7813,509.5 Q199.0781,509.5 198.4844,509.7813 Q197.9063,510.0625 197.4531,510.6875 Q197,511.3125 197,512.1719 L197,513.0938 Q197,514.125 197.8438,514.8125 Q198.6875,515.5 200.1875,515.5 Q201.0781,515.5 201.7031,515.2969 Q202.0625,515.1875 202.4688,514.8281 Q202.7344,514.625 202.875,514.5625 Q203.0156,514.5 203.1875,514.5 Q203.5156,514.5 203.75,514.7656 Q204,515.0156 204,515.375 Q204,515.7188 203.6563,516.125 Q203.1563,516.7188 202.3594,517.0469 Q201.3125,517.5 200.0313,517.5 Q198.5313,517.5 197.3281,516.9063 Q196.3594,516.4375 195.6719,515.4219 Q195,514.4063 195,513.2031 L195,512.1094 Q195,510.8594 195.5938,509.7656 Q196.2031,508.6719 197.25,508.0938 Q198.3125,507.5 199.5,507.5 Q200.2188,507.5 200.8438,507.75 Q201.4688,508 202,508.5 Z " fill="#000000"/><text fill="#000000" font-family="sans-serif" font-size="12" lengthAdjust="spacing" textLength="53" x="214" y="516.9102">Company</text><line style="stroke:#A80036;stroke-width:1.5;" x1="186" x2="269" y1="528" y2="528"/><line style="stroke:#A80036;stroke-width:1.5;" x1="186" x2="269" y1="536" y2="536"/><!--MD5=[a3f4231e2246c74f82df9cbc62f9d762]
class GetShipVoyagesBelowThresholdUI--><rect codeLine="18" fill="#FEFECE" filter="url(#f17quehekf1xp4)" height="89.5078" id="GetShipVoyagesBelowThresholdUI" style="stroke:#A80036;stroke-width:1.5;" width="441" x="7" y="133"/><ellipse cx="126.75" cy="149" fill="#ADD1B2" rx="11" ry="11" style="stroke:#A80036;stroke-width:1.0;"/><path d="M128.75,145.5 Q128.9531,145 129.1875,144.75 Q129.4219,144.5 129.6875,144.5 Q130.1563,144.5 130.4531,144.7813 Q130.75,145.0625 130.75,145.7188 L130.75,147.2813 Q130.75,147.9375 130.4688,148.2188 Q130.1875,148.5 129.75,148.5 Q129.3594,148.5 129.1094,148.3281 Q128.8594,148.1563 128.75,147.7031 Q128.7031,147.3906 128.5313,147.2188 Q128.2188,146.8906 127.6563,146.7031 Q127.0938,146.5 126.5313,146.5 Q125.8281,146.5 125.2344,146.7813 Q124.6563,147.0625 124.2031,147.6875 Q123.75,148.3125 123.75,149.1719 L123.75,150.0938 Q123.75,151.125 124.5938,151.8125 Q125.4375,152.5 126.9375,152.5 Q127.8281,152.5 128.4531,152.2969 Q128.8125,152.1875 129.2188,151.8281 Q129.4844,151.625 129.625,151.5625 Q129.7656,151.5 129.9375,151.5 Q130.2656,151.5 130.5,151.7656 Q130.75,152.0156 130.75,152.375 Q130.75,152.7188 130.4063,153.125 Q129.9063,153.7188 129.1094,154.0469 Q128.0625,154.5 126.7813,154.5 Q125.2813,154.5 124.0781,153.9063 Q123.1094,153.4375 122.4219,152.4219 Q121.75,151.4063 121.75,150.2031 L121.75,149.1094 Q121.75,147.8594 122.3438,146.7656 Q122.9531,145.6719 124,145.0938 Q125.0625,144.5 126.25,144.5 Q126.9688,144.5 127.5938,144.75 Q128.2188,145 128.75,145.5 Z " fill="#000000"/><text fill="#000000" font-family="sans-serif" font-size="12" lengthAdjust="spacing" textLength="193" x="147.25" y="153.9102">GetShipVoyagesBelowThresholdUI</text><line style="stroke:#A80036;stroke-width:1.5;" x1="8" x2="447" y1="165" y2="165"/><rect fill="none" height="6" style="stroke:#C82930;stroke-width:1.0;" width="6" x="15" y="173"/><text fill="#000000" font-family="sans-serif" font-size="11" lengthAdjust="spacing" textLength="415" x="27" y="180.4189">GetShipVoyagesBelowThresholdController getShipVoyagesBelowThresholdController</text><line style="stroke:#A80036;stroke-width:1.5;" x1="8" x2="447" y1="186.8359" y2="186.8359"/><ellipse cx="18" cy="197.8359" fill="#84BE84" rx="3" ry="3" style="stroke:#038048;stroke-width:1.0;"/><text fill="#000000" font-family="sans-serif" font-size="11" lengthAdjust="spacing" textLength="178" x="27" y="202.2549">GetShipVoyagesBelowThresholdUI()</text><ellipse cx="18" cy="211.6719" fill="#84BE84" rx="3" ry="3" style="stroke:#038048;stroke-width:1.0;"/><text fill="#000000" font-family="sans-serif" font-size="11" lengthAdjust="spacing" textLength="24" x="27" y="216.0908">run()</text><!--MD5=[9360a36c2addbb1f93396d72c77c9349]
class GetShipVoyagesBelowThresholdController--><rect codeLine="24" fill="#FEFECE" filter="url(#f17quehekf1xp4)" height="117.1797" id="GetShipVoyagesBelowThresholdController" style="stroke:#A80036;stroke-width:1.5;" width="333" x="61" y="301"/><ellipse cx="105.75" cy="317" fill="#ADD1B2" rx="11" ry="11" style="stroke:#A80036;stroke-width:1.0;"/><path d="M107.75,313.5 Q107.9531,313 108.1875,312.75 Q108.4219,312.5 108.6875,312.5 Q109.1563,312.5 109.4531,312.7813 Q109.75,313.0625 109.75,313.7188 L109.75,315.2813 Q109.75,315.9375 109.4688,316.2188 Q109.1875,316.5 108.75,316.5 Q108.3594,316.5 108.1094,316.3281 Q107.8594,316.1563 107.75,315.7031 Q107.7031,315.3906 107.5313,315.2188 Q107.2188,314.8906 106.6563,314.7031 Q106.0938,314.5 105.5313,314.5 Q104.8281,314.5 104.2344,314.7813 Q103.6563,315.0625 103.2031,315.6875 Q102.75,316.3125 102.75,317.1719 L102.75,318.0938 Q102.75,319.125 103.5938,319.8125 Q104.4375,320.5 105.9375,320.5 Q106.8281,320.5 107.4531,320.2969 Q107.8125,320.1875 108.2188,319.8281 Q108.4844,319.625 108.625,319.5625 Q108.7656,319.5 108.9375,319.5 Q109.2656,319.5 109.5,319.7656 Q109.75,320.0156 109.75,320.375 Q109.75,320.7188 109.4063,321.125 Q108.9063,321.7188 108.1094,322.0469 Q107.0625,322.5 105.7813,322.5 Q104.2813,322.5 103.0781,321.9063 Q102.1094,321.4375 101.4219,320.4219 Q100.75,319.4063 100.75,318.2031 L100.75,317.1094 Q100.75,315.8594 101.3438,314.7656 Q101.9531,313.6719 103,313.0938 Q104.0625,312.5 105.25,312.5 Q105.9688,312.5 106.5938,312.75 Q107.2188,313 107.75,313.5 Z " fill="#000000"/><text fill="#000000" font-family="sans-serif" font-size="12" lengthAdjust="spacing" textLength="235" x="126.25" y="321.9102">GetShipVoyagesBelowThresholdController</text><line style="stroke:#A80036;stroke-width:1.5;" x1="62" x2="393" y1="333" y2="333"/><rect fill="none" height="6" style="stroke:#C82930;stroke-width:1.0;" width="6" x="69" y="341"/><text fill="#000000" font-family="sans-serif" font-size="11" lengthAdjust="spacing" textLength="92" x="81" y="348.4189">Company company</text><line style="stroke:#A80036;stroke-width:1.5;" x1="62" x2="393" y1="354.8359" y2="354.8359"/><ellipse cx="72" cy="365.8359" fill="#84BE84" rx="3" ry="3" style="stroke:#038048;stroke-width:1.0;"/><text fill="#000000" font-family="sans-serif" font-size="11" lengthAdjust="spacing" textLength="215" x="81" y="370.2549">GetShipVoyagesBelowThresholdController()</text><ellipse cx="72" cy="379.6719" fill="#84BE84" rx="3" ry="3" style="stroke:#038048;stroke-width:1.0;"/><text fill="#000000" font-family="sans-serif" font-size="11" lengthAdjust="spacing" textLength="307" x="81" y="384.0908">GetShipVoyagesBelowThresholdController(Company company)</text><ellipse cx="72" cy="393.5078" fill="#84BE84" rx="3" ry="3" style="stroke:#038048;stroke-width:1.0;"/><text fill="#000000" font-family="sans-serif" font-size="11" lengthAdjust="spacing" textLength="213" x="81" y="397.9268">getShipVoyagesBelowThresholdController()</text><ellipse cx="72" cy="407.3438" fill="#84BE84" rx="3" ry="3" style="stroke:#038048;stroke-width:1.0;"/><text fill="#000000" font-family="sans-serif" font-size="11" lengthAdjust="spacing" textLength="68" x="81" y="411.7627">getCompany()</text><!--MD5=[837d3612090b426002fd1342fcbe6b88]
class DataBase--><rect fill="#FEFECE" filter="url(#f17quehekf1xp4)" height="48" id="DataBase" style="stroke:#A80036;stroke-width:1.5;" width="87" x="184" y="622"/><ellipse cx="199" cy="638" fill="#ADD1B2" rx="11" ry="11" style="stroke:#A80036;stroke-width:1.0;"/><path d="M201,634.5 Q201.2031,634 201.4375,633.75 Q201.6719,633.5 201.9375,633.5 Q202.4063,633.5 202.7031,633.7813 Q203,634.0625 203,634.7188 L203,636.2813 Q203,636.9375 202.7188,637.2188 Q202.4375,637.5 202,637.5 Q201.6094,637.5 201.3594,637.3281 Q201.1094,637.1563 201,636.7031 Q200.9531,636.3906 200.7813,636.2188 Q200.4688,635.8906 199.9063,635.7031 Q199.3438,635.5 198.7813,635.5 Q198.0781,635.5 197.4844,635.7813 Q196.9063,636.0625 196.4531,636.6875 Q196,637.3125 196,638.1719 L196,639.0938 Q196,640.125 196.8438,640.8125 Q197.6875,641.5 199.1875,641.5 Q200.0781,641.5 200.7031,641.2969 Q201.0625,641.1875 201.4688,640.8281 Q201.7344,640.625 201.875,640.5625 Q202.0156,640.5 202.1875,640.5 Q202.5156,640.5 202.75,640.7656 Q203,641.0156 203,641.375 Q203,641.7188 202.6563,642.125 Q202.1563,642.7188 201.3594,643.0469 Q200.3125,643.5 199.0313,643.5 Q197.5313,643.5 196.3281,642.9063 Q195.3594,642.4375 194.6719,641.4219 Q194,640.4063 194,639.2031 L194,638.1094 Q194,636.8594 194.5938,635.7656 Q195.2031,634.6719 196.25,634.0938 Q197.3125,633.5 198.5,633.5 Q199.2188,633.5 199.8438,633.75 Q200.4688,634 201,634.5 Z " fill="#000000"/><text fill="#000000" font-family="sans-serif" font-size="12" lengthAdjust="spacing" textLength="55" x="213" y="642.9102">DataBase</text><line style="stroke:#A80036;stroke-width:1.5;" x1="185" x2="270" y1="654" y2="654"/><line style="stroke:#A80036;stroke-width:1.5;" x1="185" x2="270" y1="662" y2="662"/><!--MD5=[2eac63400a59ee63b509ff500c1735f5]
link FleetManager to GetShipVoyagesBelowThresholdUI--><path codeLine="32" d="M346.69,55.3 C327.18,75.21 298.5,104.5 274.15,129.36 " fill="none" id="FleetManager-to-GetShipVoyagesBelowThresholdUI" style="stroke:#A80036;stroke-width:1.0;"/><polygon fill="#A80036" points="270.59,133,279.7462,129.3718,274.0896,129.4289,274.0325,123.7724,270.59,133" style="stroke:#A80036;stroke-width:1.0;"/><text fill="#000000" font-family="sans-serif" font-size="13" lengthAdjust="spacing" textLength="44" x="315.5" y="99.4951">Access</text><!--MD5=[e9ca450f3b1be623d89321872bf5bb35]
link GetShipVoyagesBelowThresholdUI to GetShipVoyagesBelowThresholdController--><path codeLine="33" d="M196.18,223.05 C190.95,232.52 186.31,242.77 183.5,253 C179.58,267.27 181.67,282.18 186.62,296.14 " fill="none" id="GetShipVoyagesBelowThresholdUI-to-GetShipVoyagesBelowThresholdController" style="stroke:#A80036;stroke-width:1.0;"/><polygon fill="#A80036" points="188.4,300.84,188.949,291.0065,186.6272,296.1648,181.4688,293.843,188.4,300.84" style="stroke:#A80036;stroke-width:1.0;"/><text fill="#000000" font-family="sans-serif" font-size="13" lengthAdjust="spacing" textLength="82" x="184.5" y="267.4951">Connects with</text><!--MD5=[bfec4df14192e2d02098302eb31388ea]
reverse link GetShipVoyagesBelowThresholdUI to GetShipVoyagesBelowThresholdController--><path codeLine="36" d="M261.22,227.54 C265.46,235.72 269.13,244.37 271.5,253 C275.87,268.88 272.77,285.56 266.6,300.84 " fill="none" id="GetShipVoyagesBelowThresholdUI-backto-GetShipVoyagesBelowThresholdController" style="stroke:#A80036;stroke-width:1.0;"/><polygon fill="#A80036" points="258.82,223.05,259.5308,232.8732,261.1752,227.4606,266.5878,229.1049,258.82,223.05" style="stroke:#A80036;stroke-width:1.0;"/><text fill="#000000" font-family="sans-serif" font-size="13" lengthAdjust="spacing" textLength="69" x="275.5" y="267.4951">Returns Info</text><!--MD5=[02b4be5268fe12dde2ec161c58bf6185]
link FleetManager to User--><path codeLine="34" d="M392.48,55.3 C418.01,81.19 459.19,122.95 486.05,150.18 " fill="none" id="FleetManager-to-User" style="stroke:#A80036;stroke-width:1.0;"/><polygon fill="#A80036" points="489.58,153.76,486.1187,144.5394,486.0731,150.1961,480.4164,150.1505,489.58,153.76" style="stroke:#A80036;stroke-width:1.0;"/><text fill="#000000" font-family="sans-serif" font-size="13" lengthAdjust="spacing" textLength="21" x="437.5" y="99.4951">is a</text><!--MD5=[1f12d177c84922ed4f166f09ee62ceaa]
link User to UserRole--><path codeLine="35" d="M512.5,202.1 C512.5,234.95 512.5,295.09 512.5,330.46 " fill="none" id="User-to-UserRole" style="stroke:#A80036;stroke-width:1.0;"/><polygon fill="#A80036" points="512.5,335.49,516.5,326.49,512.5,330.49,508.5,326.49,512.5,335.49" style="stroke:#A80036;stroke-width:1.0;"/><text fill="#000000" font-family="sans-serif" font-size="13" lengthAdjust="spacing" textLength="21" x="513.5" y="267.4951">has</text><!--MD5=[a90cc8523f09abd25fefcc69bfd398db]
link GetShipVoyagesBelowThresholdController to Company--><path codeLine="37" d="M176.87,418.35 C170.99,427.74 165.89,437.76 162.5,448 C156.79,465.26 167.67,480.67 182.07,492.69 " fill="none" id="GetShipVoyagesBelowThresholdController-to-Company" style="stroke:#A80036;stroke-width:1.0;"/><polygon fill="#A80036" points="186.21,495.98,181.6576,487.2464,182.2973,492.867,176.6767,493.5067,186.21,495.98" style="stroke:#A80036;stroke-width:1.0;"/><text fill="#000000" font-family="sans-serif" font-size="13" lengthAdjust="spacing" textLength="82" x="163.5" y="462.4951">Connects with</text><!--MD5=[77da0def98f18b323812fc0f73359a11]
link Company to GetShipVoyagesBelowThresholdController--><path codeLine="38" d="M239.95,495.94 C244.19,486.88 248.38,476.21 250.5,466 C253.37,452.19 252.56,437.38 249.99,423.35 " fill="none" id="Company-to-GetShipVoyagesBelowThresholdController" style="stroke:#A80036;stroke-width:1.0;"/><polygon fill="#A80036" points="248.97,418.22,246.8181,427.8309,249.9533,423.1224,254.6619,426.2576,248.97,418.22" style="stroke:#A80036;stroke-width:1.0;"/><text fill="#000000" font-family="sans-serif" font-size="13" lengthAdjust="spacing" textLength="69" x="253.5" y="462.4951">Returns Info</text><!--MD5=[28fa5ca211853e28b35503d2b875b2be]
link Company to DataBase--><path codeLine="39" d="M227.5,544.03 C227.5,564.52 227.5,594.56 227.5,616.55 " fill="none" id="Company-to-DataBase" style="stroke:#A80036;stroke-width:1.0;"/><polygon fill="#A80036" points="227.5,621.67,231.5,612.67,227.5,616.67,223.5,612.67,227.5,621.67" style="stroke:#A80036;stroke-width:1.0;"/><text fill="#000000" font-family="sans-serif" font-size="13" lengthAdjust="spacing" textLength="55" x="228.5" y="588.4951">Connects</text><!--MD5=[67759730d457237abe3715f54b669289]
@startuml

class FleetManager{

}

class User{

}

class UserRole{

}

class Company{

}

class GetShipVoyagesBelowThresholdUI{
    -GetShipVoyagesBelowThresholdController getShipVoyagesBelowThresholdController
    +GetShipVoyagesBelowThresholdUI()
    +run()
}

class GetShipVoyagesBelowThresholdController{
    -Company company
    +GetShipVoyagesBelowThresholdController()
    +GetShipVoyagesBelowThresholdController(Company company)
    +getShipVoyagesBelowThresholdController()
    +getCompany()
}

FleetManager - -> GetShipVoyagesBelowThresholdUI : Access
GetShipVoyagesBelowThresholdUI -down-> GetShipVoyagesBelowThresholdController : Connects with
FleetManager - -> User : is a
User - -> UserRole : has
GetShipVoyagesBelowThresholdController -up-> GetShipVoyagesBelowThresholdUI : Returns Info
GetShipVoyagesBelowThresholdController - -> Company : Connects with
Company - -> GetShipVoyagesBelowThresholdController : Returns Info
Company - -> DataBase : Connects

@enduml

PlantUML version 1.2021.11(Sat Oct 02 14:26:11 BST 2021)
(GPL source distribution)
Java Runtime: OpenJDK Runtime Environment
JVM: OpenJDK 64-Bit Server VM
Default Encoding: Cp1252
Language: pt
Country: PT
--></g></svg>