<?xml version="1.0" encoding="UTF-8" standalone="no"?><svg xmlns="http://www.w3.org/2000/svg" xmlns:xlink="http://www.w3.org/1999/xlink" contentScriptType="application/ecmascript" contentStyleType="text/css" height="541px" preserveAspectRatio="none" style="width:1446px;height:541px;background:#FFFFFF;" version="1.1" viewBox="0 0 1446 541" width="1446px" zoomAndPan="magnify"><defs><filter height="300%" id="fifdt4hy760fe" width="300%" x="-1" y="-1"><feGaussianBlur result="blurOut" stdDeviation="2.0"/><feColorMatrix in="blurOut" result="blurOut2" type="matrix" values="0 0 0 0 0 0 0 0 0 0 0 0 0 0 0 0 0 0 .4 0"/><feOffset dx="4.0" dy="4.0" in="blurOut2" result="blurOut3"/><feBlend in="SourceGraphic" in2="blurOut3" mode="normal"/></filter></defs><g><line style="stroke:#A80036;stroke-width:1.0;stroke-dasharray:5.0,5.0;" x1="52" x2="52" y1="89.6094" y2="456.3828"/><line style="stroke:#A80036;stroke-width:1.0;stroke-dasharray:5.0,5.0;" x1="279" x2="279" y1="89.6094" y2="456.3828"/><line style="stroke:#A80036;stroke-width:1.0;stroke-dasharray:5.0,5.0;" x1="570" x2="570" y1="89.6094" y2="456.3828"/><line style="stroke:#A80036;stroke-width:1.0;stroke-dasharray:5.0,5.0;" x1="757" x2="757" y1="89.6094" y2="456.3828"/><line style="stroke:#A80036;stroke-width:1.0;stroke-dasharray:5.0,5.0;" x1="1084" x2="1084" y1="89.6094" y2="456.3828"/><line style="stroke:#A80036;stroke-width:1.0;stroke-dasharray:5.0,5.0;" x1="1411.5" x2="1411.5" y1="328.5234" y2="456.3828"/><text fill="#000000" font-family="sans-serif" font-size="14" lengthAdjust="spacing" textLength="88" x="5" y="86.5332">FleetManager</text><ellipse cx="52" cy="15" fill="#FF0000" filter="url(#fifdt4hy760fe)" rx="8" ry="8" style="stroke:#A80036;stroke-width:2.0;"/><path d="M52,23 L52,50 M39,31 L65,31 M52,50 L39,65 M52,50 L65,65 " fill="none" filter="url(#fifdt4hy760fe)" style="stroke:#A80036;stroke-width:2.0;"/><text fill="#000000" font-family="sans-serif" font-size="14" lengthAdjust="spacing" textLength="88" x="5" y="469.916">FleetManager</text><ellipse cx="52" cy="482.9922" fill="#FF0000" filter="url(#fifdt4hy760fe)" rx="8" ry="8" style="stroke:#A80036;stroke-width:2.0;"/><path d="M52,490.9922 L52,517.9922 M39,498.9922 L65,498.9922 M52,517.9922 L39,532.9922 M52,517.9922 L65,532.9922 " fill="none" filter="url(#fifdt4hy760fe)" style="stroke:#A80036;stroke-width:2.0;"/><rect fill="#FEFECE" filter="url(#fifdt4hy760fe)" height="31.6094" style="stroke:#A80036;stroke-width:1.5;" width="60" x="247" y="53"/><text fill="#000000" font-family="sans-serif" font-size="14" lengthAdjust="spacing" textLength="46" x="254" y="74.5332">System</text><rect fill="#FEFECE" filter="url(#fifdt4hy760fe)" height="31.6094" style="stroke:#A80036;stroke-width:1.5;" width="60" x="247" y="455.3828"/><text fill="#000000" font-family="sans-serif" font-size="14" lengthAdjust="spacing" textLength="46" x="254" y="476.916">System</text><rect fill="#FEFECE" filter="url(#fifdt4hy760fe)" height="31.6094" style="stroke:#A80036;stroke-width:1.5;" width="114" x="511" y="53"/><text fill="#000000" font-family="sans-serif" font-size="14" lengthAdjust="spacing" textLength="100" x="518" y="74.5332">FleetManagerUI</text><rect fill="#FEFECE" filter="url(#fifdt4hy760fe)" height="31.6094" style="stroke:#A80036;stroke-width:1.5;" width="114" x="511" y="455.3828"/><text fill="#000000" font-family="sans-serif" font-size="14" lengthAdjust="spacing" textLength="100" x="518" y="476.916">FleetManagerUI</text><rect fill="#FEFECE" filter="url(#fifdt4hy760fe)" height="31.6094" style="stroke:#A80036;stroke-width:1.5;" width="233" x="639" y="53"/><text fill="#000000" font-family="sans-serif" font-size="14" lengthAdjust="spacing" textLength="219" x="646" y="74.5332">GetShipVoyagesBelowThresholdUI</text><rect fill="#FEFECE" filter="url(#fifdt4hy760fe)" height="31.6094" style="stroke:#A80036;stroke-width:1.5;" width="233" x="639" y="455.3828"/><text fill="#000000" font-family="sans-serif" font-size="14" lengthAdjust="spacing" textLength="219" x="646" y="476.916">GetShipVoyagesBelowThresholdUI</text><rect fill="#FEFECE" filter="url(#fifdt4hy760fe)" height="31.6094" style="stroke:#A80036;stroke-width:1.5;" width="283" x="941" y="53"/><text fill="#000000" font-family="sans-serif" font-size="14" lengthAdjust="spacing" textLength="269" x="948" y="74.5332">GetShipVoyagesBelowThresholdController</text><rect fill="#FEFECE" filter="url(#fifdt4hy760fe)" height="31.6094" style="stroke:#A80036;stroke-width:1.5;" width="283" x="941" y="455.3828"/><text fill="#000000" font-family="sans-serif" font-size="14" lengthAdjust="spacing" textLength="269" x="948" y="476.916">GetShipVoyagesBelowThresholdController</text><text fill="#000000" font-family="sans-serif" font-size="14" lengthAdjust="spacing" textLength="62" x="1377.5" y="469.916">DataBase</text><path d="M1393.5,482.9922 C1393.5,472.9922 1411.5,472.9922 1411.5,472.9922 C1411.5,472.9922 1429.5,472.9922 1429.5,482.9922 L1429.5,508.9922 C1429.5,518.9922 1411.5,518.9922 1411.5,518.9922 C1411.5,518.9922 1393.5,518.9922 1393.5,508.9922 L1393.5,482.9922 " fill="#FEFECE" filter="url(#fifdt4hy760fe)" style="stroke:#000000;stroke-width:1.5;"/><path d="M1393.5,482.9922 C1393.5,492.9922 1411.5,492.9922 1411.5,492.9922 C1411.5,492.9922 1429.5,492.9922 1429.5,482.9922 " fill="none" style="stroke:#000000;stroke-width:1.5;"/><polygon fill="#A80036" points="63,117.9609,53,121.9609,63,125.9609,59,121.9609" style="stroke:#A80036;stroke-width:1.0;"/><line style="stroke:#A80036;stroke-width:1.0;stroke-dasharray:2.0,2.0;" x1="57" x2="278" y1="121.9609" y2="121.9609"/><text fill="#000000" font-family="sans-serif" font-size="13" font-weight="bold" lengthAdjust="spacing" textLength="7" x="69" y="117.1045">1</text><text fill="#000000" font-family="sans-serif" font-size="13" lengthAdjust="spacing" textLength="135" x="80" y="117.1045">Authentication Request</text><polygon fill="#A80036" points="267,148.3125,277,152.3125,267,156.3125,271,152.3125" style="stroke:#A80036;stroke-width:1.0;"/><line style="stroke:#A80036;stroke-width:1.0;" x1="52" x2="273" y1="152.3125" y2="152.3125"/><text fill="#000000" font-family="sans-serif" font-size="13" font-weight="bold" lengthAdjust="spacing" textLength="7" x="59" y="147.4561">2</text><text fill="#000000" font-family="sans-serif" font-size="13" lengthAdjust="spacing" textLength="192" x="70" y="147.4561">Another authentication Response</text><polygon fill="#A80036" points="63,178.6641,53,182.6641,63,186.6641,59,182.6641" style="stroke:#A80036;stroke-width:1.0;"/><line style="stroke:#A80036;stroke-width:1.0;stroke-dasharray:2.0,2.0;" x1="57" x2="278" y1="182.6641" y2="182.6641"/><text fill="#000000" font-family="sans-serif" font-size="13" font-weight="bold" lengthAdjust="spacing" textLength="7" x="69" y="177.8076">3</text><text fill="#000000" font-family="sans-serif" font-size="13" lengthAdjust="spacing" textLength="149" x="80" y="177.8076">Authentication successful</text><polygon fill="#A80036" points="558,209.0156,568,213.0156,558,217.0156,562,213.0156" style="stroke:#A80036;stroke-width:1.0;"/><line style="stroke:#A80036;stroke-width:1.0;stroke-dasharray:2.0,2.0;" x1="52" x2="564" y1="213.0156" y2="213.0156"/><text fill="#000000" font-family="sans-serif" font-size="13" font-weight="bold" lengthAdjust="spacing" textLength="7" x="59" y="208.1592">4</text><text fill="#000000" font-family="sans-serif" font-size="13" lengthAdjust="spacing" textLength="483" x="70" y="208.1592">I want to know which ship voyages had an occupancy rate below a certain threshold</text><polygon fill="#A80036" points="745.5,239.3672,755.5,243.3672,745.5,247.3672,749.5,243.3672" style="stroke:#A80036;stroke-width:1.0;"/><line style="stroke:#A80036;stroke-width:1.0;stroke-dasharray:2.0,2.0;" x1="570" x2="751.5" y1="243.3672" y2="243.3672"/><text fill="#000000" font-family="sans-serif" font-size="13" font-weight="bold" lengthAdjust="spacing" textLength="7" x="577" y="238.5107">5</text><text fill="#000000" font-family="sans-serif" font-size="13" lengthAdjust="spacing" textLength="55" x="588" y="238.5107">Connects</text><polygon fill="#A80036" points="1072.5,269.7188,1082.5,273.7188,1072.5,277.7188,1076.5,273.7188" style="stroke:#A80036;stroke-width:1.0;"/><line style="stroke:#A80036;stroke-width:1.0;stroke-dasharray:2.0,2.0;" x1="757.5" x2="1078.5" y1="273.7188" y2="273.7188"/><text fill="#000000" font-family="sans-serif" font-size="13" font-weight="bold" lengthAdjust="spacing" textLength="7" x="764.5" y="268.8623">6</text><text fill="#000000" font-family="sans-serif" font-size="13" lengthAdjust="spacing" textLength="92" x="775.5" y="268.8623">asks for the info</text><polygon fill="#A80036" points="1365.5,300.0703,1375.5,304.0703,1365.5,308.0703,1369.5,304.0703" style="stroke:#A80036;stroke-width:1.0;"/><line style="stroke:#A80036;stroke-width:1.0;stroke-dasharray:2.0,2.0;" x1="1084.5" x2="1371.5" y1="304.0703" y2="304.0703"/><text fill="#000000" font-family="sans-serif" font-size="13" font-weight="bold" lengthAdjust="spacing" textLength="7" x="1091.5" y="299.2139">7</text><text fill="#000000" font-family="sans-serif" font-size="13" lengthAdjust="spacing" textLength="249" x="1102.5" y="299.2139">getShipVoyagesBelowThresholdController()</text><text fill="#000000" font-family="sans-serif" font-size="14" lengthAdjust="spacing" textLength="62" x="1377.5" y="342.252">DataBase</text><path d="M1393.5,291.7188 C1393.5,281.7188 1411.5,281.7188 1411.5,281.7188 C1411.5,281.7188 1429.5,281.7188 1429.5,291.7188 L1429.5,317.7188 C1429.5,327.7188 1411.5,327.7188 1411.5,327.7188 C1411.5,327.7188 1393.5,327.7188 1393.5,317.7188 L1393.5,291.7188 " fill="#FEFECE" filter="url(#fifdt4hy760fe)" style="stroke:#000000;stroke-width:1.5;"/><path d="M1393.5,291.7188 C1393.5,301.7188 1411.5,301.7188 1411.5,301.7188 C1411.5,301.7188 1429.5,301.7188 1429.5,291.7188 " fill="none" style="stroke:#000000;stroke-width:1.5;"/><polygon fill="#A80036" points="1095.5,373.6797,1085.5,377.6797,1095.5,381.6797,1091.5,377.6797" style="stroke:#A80036;stroke-width:1.0;"/><line style="stroke:#A80036;stroke-width:1.0;stroke-dasharray:2.0,2.0;" x1="1089.5" x2="1410.5" y1="377.6797" y2="377.6797"/><text fill="#000000" font-family="sans-serif" font-size="13" font-weight="bold" lengthAdjust="spacing" textLength="7" x="1101.5" y="372.8232">8</text><text fill="#000000" font-family="sans-serif" font-size="13" lengthAdjust="spacing" textLength="292" x="1112.5" y="372.8232">Map&lt;List&lt;PortAndCapital&gt;,List&lt;LocalDateTime&gt;&gt;</text><polygon fill="#A80036" points="768.5,404.0313,758.5,408.0313,768.5,412.0313,764.5,408.0313" style="stroke:#A80036;stroke-width:1.0;"/><line style="stroke:#A80036;stroke-width:1.0;stroke-dasharray:2.0,2.0;" x1="762.5" x2="1083.5" y1="408.0313" y2="408.0313"/><text fill="#000000" font-family="sans-serif" font-size="13" font-weight="bold" lengthAdjust="spacing" textLength="7" x="774.5" y="403.1748">9</text><text fill="#000000" font-family="sans-serif" font-size="13" lengthAdjust="spacing" textLength="292" x="785.5" y="403.1748">Map&lt;List&lt;PortAndCapital&gt;,List&lt;LocalDateTime&gt;&gt;</text><polygon fill="#A80036" points="63,434.3828,53,438.3828,63,442.3828,59,438.3828" style="stroke:#A80036;stroke-width:1.0;"/><line style="stroke:#A80036;stroke-width:1.0;stroke-dasharray:2.0,2.0;" x1="57" x2="756.5" y1="438.3828" y2="438.3828"/><text fill="#000000" font-family="sans-serif" font-size="13" font-weight="bold" lengthAdjust="spacing" textLength="14" x="69" y="433.5264">10</text><text fill="#000000" font-family="sans-serif" font-size="13" lengthAdjust="spacing" textLength="173" x="87" y="433.5264">Delivers the information asked</text><!--MD5=[1cc244b836a11b46cf87a11e31835371]
@startuml

autonumber

actor FleetManager #red

System - -> FleetManager: Authentication Request
FleetManager -> System : Another authentication Response
System - -> FleetManager : Authentication successful
FleetManager - -> FleetManagerUI : I want to know which ship voyages had an occupancy rate below a certain threshold
FleetManagerUI - -> GetShipVoyagesBelowThresholdUI : Connects
GetShipVoyagesBelowThresholdUI - -> GetShipVoyagesBelowThresholdController : asks for the info
database       "DataBase"              as db
GetShipVoyagesBelowThresholdController - -> db** : getShipVoyagesBelowThresholdController()
db - -> GetShipVoyagesBelowThresholdController : Map<List<PortAndCapital>,List<LocalDateTime>>
GetShipVoyagesBelowThresholdController - -> GetShipVoyagesBelowThresholdUI : Map<List<PortAndCapital>,List<LocalDateTime>>
GetShipVoyagesBelowThresholdUI - -> FleetManager : Delivers the information asked

@enduml

PlantUML version 1.2021.11(Sat Oct 02 14:26:11 BST 2021)
(GPL source distribution)
Java Runtime: OpenJDK Runtime Environment
JVM: OpenJDK 64-Bit Server VM
Default Encoding: Cp1252
Language: pt
Country: PT
--></g></svg>