<?xml version="1.0" encoding="UTF-8" standalone="no"?><svg xmlns="http://www.w3.org/2000/svg" xmlns:xlink="http://www.w3.org/1999/xlink" contentScriptType="application/ecmascript" contentStyleType="text/css" height="697px" preserveAspectRatio="none" style="width:424px;height:697px;background:#FFFFFF;" version="1.1" viewBox="0 0 424 697" width="424px" zoomAndPan="magnify"><defs><filter height="300%" id="fjnk9052imk2m" width="300%" x="-1" y="-1"><feGaussianBlur result="blurOut" stdDeviation="2.0"/><feColorMatrix in="blurOut" result="blurOut2" type="matrix" values="0 0 0 0 0 0 0 0 0 0 0 0 0 0 0 0 0 0 .4 0"/><feOffset dx="4.0" dy="4.0" in="blurOut2" result="blurOut3"/><feBlend in="SourceGraphic" in2="blurOut3" mode="normal"/></filter></defs><g><!--MD5=[4a4be67e9f0cb57c34989a64583ea874]
class GraphGenerator--><rect codeLine="2" fill="#FEFECE" filter="url(#fjnk9052imk2m)" height="75.6719" id="GraphGenerator" style="stroke:#A80036;stroke-width:1.5;" width="264" x="113.5" y="608"/><ellipse cx="196.75" cy="624" fill="#ADD1B2" rx="11" ry="11" style="stroke:#A80036;stroke-width:1.0;"/><path d="M198.75,620.5 Q198.9531,620 199.1875,619.75 Q199.4219,619.5 199.6875,619.5 Q200.1563,619.5 200.4531,619.7813 Q200.75,620.0625 200.75,620.7188 L200.75,622.2813 Q200.75,622.9375 200.4688,623.2188 Q200.1875,623.5 199.75,623.5 Q199.3594,623.5 199.1094,623.3281 Q198.8594,623.1563 198.75,622.7031 Q198.7031,622.3906 198.5313,622.2188 Q198.2188,621.8906 197.6563,621.7031 Q197.0938,621.5 196.5313,621.5 Q195.8281,621.5 195.2344,621.7813 Q194.6563,622.0625 194.2031,622.6875 Q193.75,623.3125 193.75,624.1719 L193.75,625.0938 Q193.75,626.125 194.5938,626.8125 Q195.4375,627.5 196.9375,627.5 Q197.8281,627.5 198.4531,627.2969 Q198.8125,627.1875 199.2188,626.8281 Q199.4844,626.625 199.625,626.5625 Q199.7656,626.5 199.9375,626.5 Q200.2656,626.5 200.5,626.7656 Q200.75,627.0156 200.75,627.375 Q200.75,627.7188 200.4063,628.125 Q199.9063,628.7188 199.1094,629.0469 Q198.0625,629.5 196.7813,629.5 Q195.2813,629.5 194.0781,628.9063 Q193.1094,628.4375 192.4219,627.4219 Q191.75,626.4063 191.75,625.2031 L191.75,624.1094 Q191.75,622.8594 192.3438,621.7656 Q192.9531,620.6719 194,620.0938 Q195.0625,619.5 196.25,619.5 Q196.9688,619.5 197.5938,619.75 Q198.2188,620 198.75,620.5 Z " fill="#000000"/><text fill="#000000" font-family="sans-serif" font-size="12" lengthAdjust="spacing" textLength="89" x="217.25" y="628.9102">GraphGenerator</text><line style="stroke:#A80036;stroke-width:1.5;" x1="114.5" x2="376.5" y1="640" y2="640"/><rect fill="none" height="6" style="stroke:#C82930;stroke-width:1.0;" width="6" x="121.5" y="648"/><text fill="#000000" font-family="sans-serif" font-size="11" lengthAdjust="spacing" textLength="186" x="133.5" y="655.4189">Graph&lt;PortAndCapital, Double&gt; graph;</text><line style="stroke:#A80036;stroke-width:1.5;" x1="114.5" x2="376.5" y1="661.8359" y2="661.8359"/><ellipse cx="124.5" cy="672.8359" fill="#84BE84" rx="3" ry="3" style="stroke:#038048;stroke-width:1.0;"/><text fill="#000000" font-family="sans-serif" font-size="11" lengthAdjust="spacing" textLength="238" x="133.5" y="677.2549">calculateTotalEnergy(trip,operating_temperature);</text><!--MD5=[02e4b9b7573f1156f41e60aa5b4e25a4]
class Company--><rect codeLine="7" fill="#FEFECE" filter="url(#fjnk9052imk2m)" height="117.1797" id="Company" style="stroke:#A80036;stroke-width:1.5;" width="330" x="80.5" y="413"/><ellipse cx="214.75" cy="429" fill="#ADD1B2" rx="11" ry="11" style="stroke:#A80036;stroke-width:1.0;"/><path d="M216.75,425.5 Q216.9531,425 217.1875,424.75 Q217.4219,424.5 217.6875,424.5 Q218.1563,424.5 218.4531,424.7813 Q218.75,425.0625 218.75,425.7188 L218.75,427.2813 Q218.75,427.9375 218.4688,428.2188 Q218.1875,428.5 217.75,428.5 Q217.3594,428.5 217.1094,428.3281 Q216.8594,428.1563 216.75,427.7031 Q216.7031,427.3906 216.5313,427.2188 Q216.2188,426.8906 215.6563,426.7031 Q215.0938,426.5 214.5313,426.5 Q213.8281,426.5 213.2344,426.7813 Q212.6563,427.0625 212.2031,427.6875 Q211.75,428.3125 211.75,429.1719 L211.75,430.0938 Q211.75,431.125 212.5938,431.8125 Q213.4375,432.5 214.9375,432.5 Q215.8281,432.5 216.4531,432.2969 Q216.8125,432.1875 217.2188,431.8281 Q217.4844,431.625 217.625,431.5625 Q217.7656,431.5 217.9375,431.5 Q218.2656,431.5 218.5,431.7656 Q218.75,432.0156 218.75,432.375 Q218.75,432.7188 218.4063,433.125 Q217.9063,433.7188 217.1094,434.0469 Q216.0625,434.5 214.7813,434.5 Q213.2813,434.5 212.0781,433.9063 Q211.1094,433.4375 210.4219,432.4219 Q209.75,431.4063 209.75,430.2031 L209.75,429.1094 Q209.75,427.8594 210.3438,426.7656 Q210.9531,425.6719 212,425.0938 Q213.0625,424.5 214.25,424.5 Q214.9688,424.5 215.5938,424.75 Q216.2188,425 216.75,425.5 Z " fill="#000000"/><text fill="#000000" font-family="sans-serif" font-size="12" lengthAdjust="spacing" textLength="53" x="235.25" y="433.9102">Company</text><line style="stroke:#A80036;stroke-width:1.5;" x1="81.5" x2="409.5" y1="445" y2="445"/><rect fill="none" height="6" style="stroke:#C82930;stroke-width:1.0;" width="6" x="88.5" y="453"/><text fill="#000000" font-family="sans-serif" font-size="11" lengthAdjust="spacing" textLength="121" x="100.5" y="460.4189">TreeOfPorts treeOfPorts;</text><rect fill="none" height="6" style="stroke:#C82930;stroke-width:1.0;" width="6" x="88.5" y="466.8359"/><text fill="#000000" font-family="sans-serif" font-size="11" lengthAdjust="spacing" textLength="127" x="100.5" y="474.2549">List&lt;Country&gt; countryList;</text><rect fill="none" height="6" style="stroke:#C82930;stroke-width:1.0;" width="6" x="88.5" y="480.6719"/><text fill="#000000" font-family="sans-serif" font-size="11" lengthAdjust="spacing" textLength="162" x="100.5" y="488.0908">GraphGenerator graphGenerator;</text><line style="stroke:#A80036;stroke-width:1.5;" x1="81.5" x2="409.5" y1="494.5078" y2="494.5078"/><ellipse cx="91.5" cy="505.5078" fill="#84BE84" rx="3" ry="3" style="stroke:#038048;stroke-width:1.0;"/><text fill="#000000" font-family="sans-serif" font-size="11" lengthAdjust="spacing" textLength="304" x="100.5" y="509.9268">generateGraph(File countries, File borders, File seaDists, int n);</text><ellipse cx="91.5" cy="519.3438" fill="#84BE84" rx="3" ry="3" style="stroke:#038048;stroke-width:1.0;"/><text fill="#000000" font-family="sans-serif" font-size="11" lengthAdjust="spacing" textLength="105" x="100.5" y="523.7627">getGraphGenerator();</text><!--MD5=[3fd616f346a44cd59a91eb10b19e157c]
class User--><rect codeLine="15" fill="#FEFECE" filter="url(#fjnk9052imk2m)" height="48" id="User" style="stroke:#A80036;stroke-width:1.5;" width="59" x="33" y="140"/><ellipse cx="48" cy="156" fill="#ADD1B2" rx="11" ry="11" style="stroke:#A80036;stroke-width:1.0;"/><path d="M50,152.5 Q50.2031,152 50.4375,151.75 Q50.6719,151.5 50.9375,151.5 Q51.4063,151.5 51.7031,151.7813 Q52,152.0625 52,152.7188 L52,154.2813 Q52,154.9375 51.7188,155.2188 Q51.4375,155.5 51,155.5 Q50.6094,155.5 50.3594,155.3281 Q50.1094,155.1563 50,154.7031 Q49.9531,154.3906 49.7813,154.2188 Q49.4688,153.8906 48.9063,153.7031 Q48.3438,153.5 47.7813,153.5 Q47.0781,153.5 46.4844,153.7813 Q45.9063,154.0625 45.4531,154.6875 Q45,155.3125 45,156.1719 L45,157.0938 Q45,158.125 45.8438,158.8125 Q46.6875,159.5 48.1875,159.5 Q49.0781,159.5 49.7031,159.2969 Q50.0625,159.1875 50.4688,158.8281 Q50.7344,158.625 50.875,158.5625 Q51.0156,158.5 51.1875,158.5 Q51.5156,158.5 51.75,158.7656 Q52,159.0156 52,159.375 Q52,159.7188 51.6563,160.125 Q51.1563,160.7188 50.3594,161.0469 Q49.3125,161.5 48.0313,161.5 Q46.5313,161.5 45.3281,160.9063 Q44.3594,160.4375 43.6719,159.4219 Q43,158.4063 43,157.2031 L43,156.1094 Q43,154.8594 43.5938,153.7656 Q44.2031,152.6719 45.25,152.0938 Q46.3125,151.5 47.5,151.5 Q48.2188,151.5 48.8438,151.75 Q49.4688,152 50,152.5 Z " fill="#000000"/><text fill="#000000" font-family="sans-serif" font-size="12" lengthAdjust="spacing" textLength="27" x="62" y="160.9102">User</text><line style="stroke:#A80036;stroke-width:1.5;" x1="34" x2="91" y1="172" y2="172"/><line style="stroke:#A80036;stroke-width:1.5;" x1="34" x2="91" y1="180" y2="180"/><!--MD5=[45d42ff7800d812d5f83c7d3273eb427]
class UserRole--><rect codeLine="17" fill="#FEFECE" filter="url(#fjnk9052imk2m)" height="48" id="UserRole" style="stroke:#A80036;stroke-width:1.5;" width="85" x="7" y="280"/><ellipse cx="22" cy="296" fill="#ADD1B2" rx="11" ry="11" style="stroke:#A80036;stroke-width:1.0;"/><path d="M24,292.5 Q24.2031,292 24.4375,291.75 Q24.6719,291.5 24.9375,291.5 Q25.4063,291.5 25.7031,291.7813 Q26,292.0625 26,292.7188 L26,294.2813 Q26,294.9375 25.7188,295.2188 Q25.4375,295.5 25,295.5 Q24.6094,295.5 24.3594,295.3281 Q24.1094,295.1563 24,294.7031 Q23.9531,294.3906 23.7813,294.2188 Q23.4688,293.8906 22.9063,293.7031 Q22.3438,293.5 21.7813,293.5 Q21.0781,293.5 20.4844,293.7813 Q19.9063,294.0625 19.4531,294.6875 Q19,295.3125 19,296.1719 L19,297.0938 Q19,298.125 19.8438,298.8125 Q20.6875,299.5 22.1875,299.5 Q23.0781,299.5 23.7031,299.2969 Q24.0625,299.1875 24.4688,298.8281 Q24.7344,298.625 24.875,298.5625 Q25.0156,298.5 25.1875,298.5 Q25.5156,298.5 25.75,298.7656 Q26,299.0156 26,299.375 Q26,299.7188 25.6563,300.125 Q25.1563,300.7188 24.3594,301.0469 Q23.3125,301.5 22.0313,301.5 Q20.5313,301.5 19.3281,300.9063 Q18.3594,300.4375 17.6719,299.4219 Q17,298.4063 17,297.2031 L17,296.1094 Q17,294.8594 17.5938,293.7656 Q18.2031,292.6719 19.25,292.0938 Q20.3125,291.5 21.5,291.5 Q22.2188,291.5 22.8438,291.75 Q23.4688,292 24,292.5 Z " fill="#000000"/><text fill="#000000" font-family="sans-serif" font-size="12" lengthAdjust="spacing" textLength="53" x="36" y="300.9102">UserRole</text><line style="stroke:#A80036;stroke-width:1.5;" x1="8" x2="91" y1="312" y2="312"/><line style="stroke:#A80036;stroke-width:1.5;" x1="8" x2="91" y1="320" y2="320"/><!--MD5=[c32b27647351a8b350962acb79042284]
class AmountEnergyUI--><rect codeLine="19" fill="#FEFECE" filter="url(#fjnk9052imk2m)" height="61.8359" id="AmountEnergyUI" style="stroke:#A80036;stroke-width:1.5;" width="208" x="134.5" y="133"/><ellipse cx="188.25" cy="149" fill="#ADD1B2" rx="11" ry="11" style="stroke:#A80036;stroke-width:1.0;"/><path d="M190.25,145.5 Q190.4531,145 190.6875,144.75 Q190.9219,144.5 191.1875,144.5 Q191.6563,144.5 191.9531,144.7813 Q192.25,145.0625 192.25,145.7188 L192.25,147.2813 Q192.25,147.9375 191.9688,148.2188 Q191.6875,148.5 191.25,148.5 Q190.8594,148.5 190.6094,148.3281 Q190.3594,148.1563 190.25,147.7031 Q190.2031,147.3906 190.0313,147.2188 Q189.7188,146.8906 189.1563,146.7031 Q188.5938,146.5 188.0313,146.5 Q187.3281,146.5 186.7344,146.7813 Q186.1563,147.0625 185.7031,147.6875 Q185.25,148.3125 185.25,149.1719 L185.25,150.0938 Q185.25,151.125 186.0938,151.8125 Q186.9375,152.5 188.4375,152.5 Q189.3281,152.5 189.9531,152.2969 Q190.3125,152.1875 190.7188,151.8281 Q190.9844,151.625 191.125,151.5625 Q191.2656,151.5 191.4375,151.5 Q191.7656,151.5 192,151.7656 Q192.25,152.0156 192.25,152.375 Q192.25,152.7188 191.9063,153.125 Q191.4063,153.7188 190.6094,154.0469 Q189.5625,154.5 188.2813,154.5 Q186.7813,154.5 185.5781,153.9063 Q184.6094,153.4375 183.9219,152.4219 Q183.25,151.4063 183.25,150.2031 L183.25,149.1094 Q183.25,147.8594 183.8438,146.7656 Q184.4531,145.6719 185.5,145.0938 Q186.5625,144.5 187.75,144.5 Q188.4688,144.5 189.0938,144.75 Q189.7188,145 190.25,145.5 Z " fill="#000000"/><text fill="#000000" font-family="sans-serif" font-size="12" lengthAdjust="spacing" textLength="92" x="208.75" y="153.9102">AmountEnergyUI</text><line style="stroke:#A80036;stroke-width:1.5;" x1="135.5" x2="341.5" y1="165" y2="165"/><rect fill="none" height="6" style="stroke:#C82930;stroke-width:1.0;" width="6" x="142.5" y="173"/><text fill="#000000" font-family="sans-serif" font-size="11" lengthAdjust="spacing" textLength="182" x="154.5" y="180.4189">ShipChiefElectricalEngineer controller;</text><line style="stroke:#A80036;stroke-width:1.5;" x1="135.5" x2="341.5" y1="186.8359" y2="186.8359"/><!--MD5=[d14076b1fa5ff6fc34e7abc31c5e1daa]
class ShipChiefElectricalEngineer--><rect codeLine="23" fill="#FEFECE" filter="url(#fjnk9052imk2m)" height="48" id="ShipChiefElectricalEngineer" style="stroke:#A80036;stroke-width:1.5;" width="186" x="53.5" y="7"/><ellipse cx="68.5" cy="23" fill="#ADD1B2" rx="11" ry="11" style="stroke:#A80036;stroke-width:1.0;"/><path d="M70.5,19.5 Q70.7031,19 70.9375,18.75 Q71.1719,18.5 71.4375,18.5 Q71.9063,18.5 72.2031,18.7813 Q72.5,19.0625 72.5,19.7188 L72.5,21.2813 Q72.5,21.9375 72.2188,22.2188 Q71.9375,22.5 71.5,22.5 Q71.1094,22.5 70.8594,22.3281 Q70.6094,22.1563 70.5,21.7031 Q70.4531,21.3906 70.2813,21.2188 Q69.9688,20.8906 69.4063,20.7031 Q68.8438,20.5 68.2813,20.5 Q67.5781,20.5 66.9844,20.7813 Q66.4063,21.0625 65.9531,21.6875 Q65.5,22.3125 65.5,23.1719 L65.5,24.0938 Q65.5,25.125 66.3438,25.8125 Q67.1875,26.5 68.6875,26.5 Q69.5781,26.5 70.2031,26.2969 Q70.5625,26.1875 70.9688,25.8281 Q71.2344,25.625 71.375,25.5625 Q71.5156,25.5 71.6875,25.5 Q72.0156,25.5 72.25,25.7656 Q72.5,26.0156 72.5,26.375 Q72.5,26.7188 72.1563,27.125 Q71.6563,27.7188 70.8594,28.0469 Q69.8125,28.5 68.5313,28.5 Q67.0313,28.5 65.8281,27.9063 Q64.8594,27.4375 64.1719,26.4219 Q63.5,25.4063 63.5,24.2031 L63.5,23.1094 Q63.5,21.8594 64.0938,20.7656 Q64.7031,19.6719 65.75,19.0938 Q66.8125,18.5 68,18.5 Q68.7188,18.5 69.3438,18.75 Q69.9688,19 70.5,19.5 Z " fill="#000000"/><text fill="#000000" font-family="sans-serif" font-size="12" lengthAdjust="spacing" textLength="154" x="82.5" y="27.9102">ShipChiefElectricalEngineer</text><line style="stroke:#A80036;stroke-width:1.5;" x1="54.5" x2="238.5" y1="39" y2="39"/><line style="stroke:#A80036;stroke-width:1.5;" x1="54.5" x2="238.5" y1="47" y2="47"/><!--MD5=[dfbd4bc052740281836857810961b5b2]
class AmountEnergyController--><rect codeLine="25" fill="#FEFECE" filter="url(#fjnk9052imk2m)" height="61.8359" id="AmountEnergyController" style="stroke:#A80036;stroke-width:1.5;" width="236" x="127.5" y="273"/><ellipse cx="174.25" cy="289" fill="#ADD1B2" rx="11" ry="11" style="stroke:#A80036;stroke-width:1.0;"/><path d="M176.25,285.5 Q176.4531,285 176.6875,284.75 Q176.9219,284.5 177.1875,284.5 Q177.6563,284.5 177.9531,284.7813 Q178.25,285.0625 178.25,285.7188 L178.25,287.2813 Q178.25,287.9375 177.9688,288.2188 Q177.6875,288.5 177.25,288.5 Q176.8594,288.5 176.6094,288.3281 Q176.3594,288.1563 176.25,287.7031 Q176.2031,287.3906 176.0313,287.2188 Q175.7188,286.8906 175.1563,286.7031 Q174.5938,286.5 174.0313,286.5 Q173.3281,286.5 172.7344,286.7813 Q172.1563,287.0625 171.7031,287.6875 Q171.25,288.3125 171.25,289.1719 L171.25,290.0938 Q171.25,291.125 172.0938,291.8125 Q172.9375,292.5 174.4375,292.5 Q175.3281,292.5 175.9531,292.2969 Q176.3125,292.1875 176.7188,291.8281 Q176.9844,291.625 177.125,291.5625 Q177.2656,291.5 177.4375,291.5 Q177.7656,291.5 178,291.7656 Q178.25,292.0156 178.25,292.375 Q178.25,292.7188 177.9063,293.125 Q177.4063,293.7188 176.6094,294.0469 Q175.5625,294.5 174.2813,294.5 Q172.7813,294.5 171.5781,293.9063 Q170.6094,293.4375 169.9219,292.4219 Q169.25,291.4063 169.25,290.2031 L169.25,289.1094 Q169.25,287.8594 169.8438,286.7656 Q170.4531,285.6719 171.5,285.0938 Q172.5625,284.5 173.75,284.5 Q174.4688,284.5 175.0938,284.75 Q175.7188,285 176.25,285.5 Z " fill="#000000"/><text fill="#000000" font-family="sans-serif" font-size="12" lengthAdjust="spacing" textLength="134" x="194.75" y="293.9102">AmountEnergyController</text><line style="stroke:#A80036;stroke-width:1.5;" x1="128.5" x2="362.5" y1="305" y2="305"/><line style="stroke:#A80036;stroke-width:1.5;" x1="128.5" x2="362.5" y1="313" y2="313"/><rect fill="#F24D5C" height="6" style="stroke:#C82930;stroke-width:1.0;" width="6" x="135.5" y="321"/><text fill="#000000" font-family="sans-serif" font-size="11" lengthAdjust="spacing" textLength="210" x="147.5" y="328.4189">getTotalEnergy(trip,operating_temperature);</text><!--MD5=[68cfd519b9d01f4f9bfebe5bdfd7fcda]
link ShipChiefElectricalEngineer to User--><path codeLine="29" d="M131.68,55.12 C117.31,77.52 95.51,111.52 80.23,135.35 " fill="none" id="ShipChiefElectricalEngineer-to-User" style="stroke:#A80036;stroke-width:1.0;"/><polygon fill="#A80036" points="77.46,139.67,85.6832,134.2497,80.1573,135.4599,78.9471,129.9341,77.46,139.67" style="stroke:#A80036;stroke-width:1.0;"/><text fill="#000000" font-family="sans-serif" font-size="13" lengthAdjust="spacing" textLength="21" x="112.5" y="99.4951">is a</text><!--MD5=[1f12d177c84922ed4f166f09ee62ceaa]
link User to UserRole--><path codeLine="31" d="M60.32,188.1 C58.08,211.88 54.59,248.98 52.18,274.55 " fill="none" id="User-to-UserRole" style="stroke:#A80036;stroke-width:1.0;"/><polygon fill="#A80036" points="51.68,279.83,56.5118,271.2478,52.152,274.8523,48.5475,270.4926,51.68,279.83" style="stroke:#A80036;stroke-width:1.0;"/><text fill="#000000" font-family="sans-serif" font-size="13" lengthAdjust="spacing" textLength="32" x="58.5" y="239.4951">has a</text><!--MD5=[aa21123679c3f7574e026226cc065e21]
link ShipChiefElectricalEngineer to AmountEnergyUI--><path codeLine="33" d="M162.74,55.12 C177.01,75.45 197.99,105.32 214.26,128.48 " fill="none" id="ShipChiefElectricalEngineer-to-AmountEnergyUI" style="stroke:#A80036;stroke-width:1.0;"/><polygon fill="#A80036" points="217.24,132.73,215.3535,123.0635,214.3717,128.6345,208.8007,127.6527,217.24,132.73" style="stroke:#A80036;stroke-width:1.0;"/><text fill="#000000" font-family="sans-serif" font-size="13" lengthAdjust="spacing" textLength="42" x="195.5" y="99.4951">access</text><!--MD5=[4a49f058897f74c0064c93f9175df3b4]
link AmountEnergyUI to AmountEnergyController--><path codeLine="35" d="M240.04,195.28 C241.12,216.59 242.57,245.17 243.7,267.53 " fill="none" id="AmountEnergyUI-to-AmountEnergyController" style="stroke:#A80036;stroke-width:1.0;"/><polygon fill="#A80036" points="243.97,272.79,247.5011,263.5959,243.7125,267.7966,239.5117,264.008,243.97,272.79" style="stroke:#A80036;stroke-width:1.0;"/><text fill="#000000" font-family="sans-serif" font-size="13" lengthAdjust="spacing" textLength="80" x="242.5" y="239.4951">connects with</text><!--MD5=[0a722b0628837306b0f230860252ce3f]
link AmountEnergyController to Company--><path codeLine="37" d="M245.5,335.36 C245.5,355.57 245.5,382.86 245.5,407.63 " fill="none" id="AmountEnergyController-to-Company" style="stroke:#A80036;stroke-width:1.0;"/><polygon fill="#A80036" points="245.5,412.88,249.5,403.88,245.5,407.88,241.5,403.88,245.5,412.88" style="stroke:#A80036;stroke-width:1.0;"/><text fill="#000000" font-family="sans-serif" font-size="13" lengthAdjust="spacing" textLength="74" x="246.5" y="379.4951">calls method</text><!--MD5=[35c8e59b1ea7335c6def1d8c5c8dc4f1]
link Company to GraphGenerator--><path codeLine="39" d="M245.5,530.42 C245.5,554.07 245.5,580.92 245.5,602.68 " fill="none" id="Company-to-GraphGenerator" style="stroke:#A80036;stroke-width:1.0;"/><polygon fill="#A80036" points="245.5,607.81,249.5,598.81,245.5,602.81,241.5,598.81,245.5,607.81" style="stroke:#A80036;stroke-width:1.0;"/><text fill="#000000" font-family="sans-serif" font-size="13" lengthAdjust="spacing" textLength="108" x="246.5" y="574.4951">gets methods from</text><!--MD5=[d6b9b8617c0a40f7857e385d27a93e6c]
@startuml

class GraphGenerator{
- Graph<PortAndCapital, Double> graph;
+ calculateTotalEnergy(trip,operating_temperature);
}

class Company{
- TreeOfPorts treeOfPorts;
- List<Country> countryList;
- GraphGenerator graphGenerator;
+ generateGraph(File countries, File borders, File seaDists, int n);
+ getGraphGenerator();
}

class User

class UserRole

class AmountEnergyUI{
-ShipChiefElectricalEngineer controller;
}

class ShipChiefElectricalEngineer

class AmountEnergyController{
- getTotalEnergy(trip,operating_temperature);
}

ShipChiefElectricalEngineer -down-> User : is a

User -down-> UserRole : has a

ShipChiefElectricalEngineer -down-> AmountEnergyUI : access

AmountEnergyUI -down-> AmountEnergyController : connects with

AmountEnergyController -down-> Company : calls method

Company -down-> GraphGenerator : gets methods from


@enduml

PlantUML version 1.2021.16(Wed Dec 08 17:25:22 GMT 2021)
(GPL source distribution)
Java Runtime: OpenJDK Runtime Environment
JVM: OpenJDK 64-Bit Server VM
Default Encoding: Cp1252
Language: pt
Country: PT
--></g></svg>