<?xml version="1.0" encoding="UTF-8" standalone="no"?><svg xmlns="http://www.w3.org/2000/svg" xmlns:xlink="http://www.w3.org/1999/xlink" contentScriptType="application/ecmascript" contentStyleType="text/css" height="377px" preserveAspectRatio="none" style="width:670px;height:377px;background:#FFFFFF;" version="1.1" viewBox="0 0 670 377" width="670px" zoomAndPan="magnify"><defs><filter height="300%" id="f56kbijzlc1zv" width="300%" x="-1" y="-1"><feGaussianBlur result="blurOut" stdDeviation="2.0"/><feColorMatrix in="blurOut" result="blurOut2" type="matrix" values="0 0 0 0 0 0 0 0 0 0 0 0 0 0 0 0 0 0 .4 0"/><feOffset dx="4.0" dy="4.0" in="blurOut2" result="blurOut3"/><feBlend in="SourceGraphic" in2="blurOut3" mode="normal"/></filter></defs><g><rect fill="#FFFFFF" filter="url(#f56kbijzlc1zv)" height="183.1094" style="stroke:#A80036;stroke-width:1.0;" width="10" x="96.5" y="99.6094"/><line style="stroke:#A80036;stroke-width:1.0;stroke-dasharray:5.0,5.0;" x1="101" x2="101" y1="89.6094" y2="291.7188"/><line style="stroke:#A80036;stroke-width:1.0;stroke-dasharray:5.0,5.0;" x1="628.5" x2="628.5" y1="89.6094" y2="291.7188"/><text fill="#000000" font-family="sans-serif" font-size="14" lengthAdjust="spacing" textLength="187" x="5" y="86.5332">Ship Chief Electrical Engineer</text><ellipse cx="101.5" cy="15" fill="#FEFECE" filter="url(#f56kbijzlc1zv)" rx="8" ry="8" style="stroke:#A80036;stroke-width:2.0;"/><path d="M101.5,23 L101.5,50 M88.5,31 L114.5,31 M101.5,50 L88.5,65 M101.5,50 L114.5,65 " fill="none" filter="url(#f56kbijzlc1zv)" style="stroke:#A80036;stroke-width:2.0;"/><text fill="#000000" font-family="sans-serif" font-size="14" lengthAdjust="spacing" textLength="187" x="5" y="305.252">Ship Chief Electrical Engineer</text><ellipse cx="101.5" cy="318.3281" fill="#FEFECE" filter="url(#f56kbijzlc1zv)" rx="8" ry="8" style="stroke:#A80036;stroke-width:2.0;"/><path d="M101.5,326.3281 L101.5,353.3281 M88.5,334.3281 L114.5,334.3281 M101.5,353.3281 L88.5,368.3281 M101.5,353.3281 L114.5,368.3281 " fill="none" filter="url(#f56kbijzlc1zv)" style="stroke:#A80036;stroke-width:2.0;"/><rect fill="#FEFECE" filter="url(#f56kbijzlc1zv)" height="31.6094" style="stroke:#A80036;stroke-width:1.5;" width="60" x="596.5" y="53"/><text fill="#000000" font-family="sans-serif" font-size="14" lengthAdjust="spacing" textLength="46" x="603.5" y="74.5332">System</text><rect fill="#FEFECE" filter="url(#f56kbijzlc1zv)" height="31.6094" style="stroke:#A80036;stroke-width:1.5;" width="60" x="596.5" y="290.7188"/><text fill="#000000" font-family="sans-serif" font-size="14" lengthAdjust="spacing" textLength="46" x="603.5" y="312.252">System</text><rect fill="#FFFFFF" filter="url(#f56kbijzlc1zv)" height="183.1094" style="stroke:#A80036;stroke-width:1.0;" width="10" x="96.5" y="99.6094"/><polygon fill="#A80036" points="616.5,117.9609,626.5,121.9609,616.5,125.9609,620.5,121.9609" style="stroke:#A80036;stroke-width:1.0;"/><line style="stroke:#A80036;stroke-width:1.0;" x1="106.5" x2="622.5" y1="121.9609" y2="121.9609"/><text fill="#000000" font-family="sans-serif" font-size="13" font-weight="bold" lengthAdjust="spacing" textLength="7" x="294.5" y="117.1045">1</text><text fill="#000000" font-family="sans-serif" font-size="13" lengthAdjust="spacing" textLength="135" x="305.5" y="117.1045">Authentication Request</text><polygon fill="#A80036" points="117.5,148.3125,107.5,152.3125,117.5,156.3125,113.5,152.3125" style="stroke:#A80036;stroke-width:1.0;"/><line style="stroke:#A80036;stroke-width:1.0;stroke-dasharray:2.0,2.0;" x1="111.5" x2="627.5" y1="152.3125" y2="152.3125"/><text fill="#000000" font-family="sans-serif" font-size="13" font-weight="bold" lengthAdjust="spacing" textLength="7" x="289.5" y="147.4561">2</text><text fill="#000000" font-family="sans-serif" font-size="13" lengthAdjust="spacing" textLength="145" x="300.5" y="147.4561">Authentication Response</text><polygon fill="#A80036" points="616.5,178.6641,626.5,182.6641,616.5,186.6641,620.5,182.6641" style="stroke:#A80036;stroke-width:1.0;"/><line style="stroke:#A80036;stroke-width:1.0;" x1="106.5" x2="622.5" y1="182.6641" y2="182.6641"/><text fill="#000000" font-family="sans-serif" font-size="13" font-weight="bold" lengthAdjust="spacing" textLength="7" x="118.5" y="177.8076">3</text><text fill="#000000" font-family="sans-serif" font-size="13" lengthAdjust="spacing" textLength="487" x="129.5" y="177.8076">I want to see the amount of how much energy is needed to supply for each container</text><polygon fill="#A80036" points="117.5,209.0156,107.5,213.0156,117.5,217.0156,113.5,213.0156" style="stroke:#A80036;stroke-width:1.0;"/><line style="stroke:#A80036;stroke-width:1.0;stroke-dasharray:2.0,2.0;" x1="111.5" x2="627.5" y1="213.0156" y2="213.0156"/><text fill="#000000" font-family="sans-serif" font-size="13" font-weight="bold" lengthAdjust="spacing" textLength="7" x="207.5" y="208.1592">4</text><text fill="#000000" font-family="sans-serif" font-size="13" lengthAdjust="spacing" textLength="309" x="218.5" y="208.1592">Please insert the operating temperature(7 째C or -5 째C)</text><polygon fill="#A80036" points="616.5,239.3672,626.5,243.3672,616.5,247.3672,620.5,243.3672" style="stroke:#A80036;stroke-width:1.0;"/><line style="stroke:#A80036;stroke-width:1.0;" x1="106.5" x2="622.5" y1="243.3672" y2="243.3672"/><text fill="#000000" font-family="sans-serif" font-size="13" font-weight="bold" lengthAdjust="spacing" textLength="7" x="270" y="238.5107">5</text><text fill="#000000" font-family="sans-serif" font-size="13" lengthAdjust="spacing" textLength="184" x="281" y="238.5107">Insert the operating temperature</text><polygon fill="#A80036" points="117.5,269.7188,107.5,273.7188,117.5,277.7188,113.5,273.7188" style="stroke:#A80036;stroke-width:1.0;"/><line style="stroke:#A80036;stroke-width:1.0;stroke-dasharray:2.0,2.0;" x1="111.5" x2="627.5" y1="273.7188" y2="273.7188"/><text fill="#000000" font-family="sans-serif" font-size="13" font-weight="bold" lengthAdjust="spacing" textLength="7" x="280" y="268.8623">6</text><text fill="#000000" font-family="sans-serif" font-size="13" lengthAdjust="spacing" textLength="164" x="291" y="268.8623">Return the amount of energy</text><!--MD5=[d9089482fe65faa203045aaedeeebf74]
@startuml

autonumber
skinparam sequenceMessageAlign center

actor "Ship Chief Electrical Engineer" as SC

activate SC

SC -> System : Authentication Request
System - -> SC : Authentication Response

SC -> System: I want to see the amount of how much energy is needed to supply for each container
SC <- - System: Please insert the operating temperature(7 째C or -5 째C)

SC -> System: Insert the operating temperature
SC <- - System: Return the amount of energy

@enduml

PlantUML version 1.2021.16(Wed Dec 08 17:25:22 GMT 2021)
(GPL source distribution)
Java Runtime: OpenJDK Runtime Environment
JVM: OpenJDK 64-Bit Server VM
Default Encoding: Cp1252
Language: pt
Country: PT
--></g></svg>