<?xml version="1.0" encoding="UTF-8" standalone="no"?><svg xmlns="http://www.w3.org/2000/svg" xmlns:xlink="http://www.w3.org/1999/xlink" contentScriptType="application/ecmascript" contentStyleType="text/css" height="498px" preserveAspectRatio="none" style="width:1360px;height:498px;background:#FFFFFF;" version="1.1" viewBox="0 0 1360 498" width="1360px" zoomAndPan="magnify"><defs><filter height="300%" id="f156ovuclaz1b7" width="300%" x="-1" y="-1"><feGaussianBlur result="blurOut" stdDeviation="2.0"/><feColorMatrix in="blurOut" result="blurOut2" type="matrix" values="0 0 0 0 0 0 0 0 0 0 0 0 0 0 0 0 0 0 .4 0"/><feOffset dx="4.0" dy="4.0" in="blurOut2" result="blurOut3"/><feBlend in="SourceGraphic" in2="blurOut3" mode="normal"/></filter></defs><g><rect fill="#FFFFFF" filter="url(#f156ovuclaz1b7)" height="30.3516" style="stroke:#A80036;stroke-width:1.0;" width="10" x="517.5" y="121.9609"/><rect fill="#FFFFFF" filter="url(#f156ovuclaz1b7)" height="221.4609" style="stroke:#A80036;stroke-width:1.0;" width="10" x="517.5" y="182.6641"/><rect fill="#FFFFFF" filter="url(#f156ovuclaz1b7)" height="151.7578" style="stroke:#A80036;stroke-width:1.0;" width="10" x="803.5" y="213.0156"/><rect fill="#FFFFFF" filter="url(#f156ovuclaz1b7)" height="91.0547" style="stroke:#A80036;stroke-width:1.0;" width="10" x="961.5" y="243.3672"/><rect fill="#FFFFFF" filter="url(#f156ovuclaz1b7)" height="30.3516" style="stroke:#A80036;stroke-width:1.0;" width="10" x="1281.5" y="273.7188"/><line style="stroke:#A80036;stroke-width:1.0;stroke-dasharray:5.0,5.0;" x1="101" x2="101" y1="89.6094" y2="413.125"/><line style="stroke:#A80036;stroke-width:1.0;stroke-dasharray:5.0,5.0;" x1="522" x2="522" y1="89.6094" y2="413.125"/><line style="stroke:#A80036;stroke-width:1.0;stroke-dasharray:5.0,5.0;" x1="808" x2="808" y1="89.6094" y2="413.125"/><line style="stroke:#A80036;stroke-width:1.0;stroke-dasharray:5.0,5.0;" x1="966.5" x2="966.5" y1="89.6094" y2="413.125"/><line style="stroke:#A80036;stroke-width:1.0;stroke-dasharray:5.0,5.0;" x1="1286" x2="1286" y1="89.6094" y2="413.125"/><text fill="#000000" font-family="sans-serif" font-size="14" lengthAdjust="spacing" textLength="187" x="5" y="86.5332">Ship Chief Electrical Engineer</text><ellipse cx="101.5" cy="15" fill="#FEFECE" filter="url(#f156ovuclaz1b7)" rx="8" ry="8" style="stroke:#A80036;stroke-width:2.0;"/><path d="M101.5,23 L101.5,50 M88.5,31 L114.5,31 M101.5,50 L88.5,65 M101.5,50 L114.5,65 " fill="none" filter="url(#f156ovuclaz1b7)" style="stroke:#A80036;stroke-width:2.0;"/><text fill="#000000" font-family="sans-serif" font-size="14" lengthAdjust="spacing" textLength="187" x="5" y="426.6582">Ship Chief Electrical Engineer</text><ellipse cx="101.5" cy="439.7344" fill="#FEFECE" filter="url(#f156ovuclaz1b7)" rx="8" ry="8" style="stroke:#A80036;stroke-width:2.0;"/><path d="M101.5,447.7344 L101.5,474.7344 M88.5,455.7344 L114.5,455.7344 M101.5,474.7344 L88.5,489.7344 M101.5,474.7344 L114.5,489.7344 " fill="none" filter="url(#f156ovuclaz1b7)" style="stroke:#A80036;stroke-width:2.0;"/><rect fill="#FEFECE" filter="url(#f156ovuclaz1b7)" height="31.6094" style="stroke:#A80036;stroke-width:1.5;" width="123" x="459" y="53"/><text fill="#000000" font-family="sans-serif" font-size="14" lengthAdjust="spacing" textLength="109" x="466" y="74.5332">:AmountEnergyUI</text><rect fill="#FEFECE" filter="url(#f156ovuclaz1b7)" height="31.6094" style="stroke:#A80036;stroke-width:1.5;" width="123" x="459" y="412.125"/><text fill="#000000" font-family="sans-serif" font-size="14" lengthAdjust="spacing" textLength="109" x="466" y="433.6582">:AmountEnergyUI</text><rect fill="#FEFECE" filter="url(#f156ovuclaz1b7)" height="31.6094" style="stroke:#A80036;stroke-width:1.5;" width="173" x="720" y="53"/><text fill="#000000" font-family="sans-serif" font-size="14" lengthAdjust="spacing" textLength="159" x="727" y="74.5332">:AmountEnergyController</text><rect fill="#FEFECE" filter="url(#f156ovuclaz1b7)" height="31.6094" style="stroke:#A80036;stroke-width:1.5;" width="173" x="720" y="412.125"/><text fill="#000000" font-family="sans-serif" font-size="14" lengthAdjust="spacing" textLength="159" x="727" y="433.6582">:AmountEnergyController</text><rect fill="#FEFECE" filter="url(#f156ovuclaz1b7)" height="31.6094" style="stroke:#A80036;stroke-width:1.5;" width="78" x="925.5" y="53"/><text fill="#000000" font-family="sans-serif" font-size="14" lengthAdjust="spacing" textLength="64" x="932.5" y="74.5332">:Company</text><rect fill="#FEFECE" filter="url(#f156ovuclaz1b7)" height="31.6094" style="stroke:#A80036;stroke-width:1.5;" width="78" x="925.5" y="412.125"/><text fill="#000000" font-family="sans-serif" font-size="14" lengthAdjust="spacing" textLength="64" x="932.5" y="433.6582">:Company</text><rect fill="#FEFECE" filter="url(#f156ovuclaz1b7)" height="31.6094" style="stroke:#A80036;stroke-width:1.5;" width="123" x="1223" y="53"/><text fill="#000000" font-family="sans-serif" font-size="14" lengthAdjust="spacing" textLength="109" x="1230" y="74.5332">:GraphGenerator</text><rect fill="#FEFECE" filter="url(#f156ovuclaz1b7)" height="31.6094" style="stroke:#A80036;stroke-width:1.5;" width="123" x="1223" y="412.125"/><text fill="#000000" font-family="sans-serif" font-size="14" lengthAdjust="spacing" textLength="109" x="1230" y="433.6582">:GraphGenerator</text><rect fill="#FFFFFF" filter="url(#f156ovuclaz1b7)" height="30.3516" style="stroke:#A80036;stroke-width:1.0;" width="10" x="517.5" y="121.9609"/><rect fill="#FFFFFF" filter="url(#f156ovuclaz1b7)" height="221.4609" style="stroke:#A80036;stroke-width:1.0;" width="10" x="517.5" y="182.6641"/><rect fill="#FFFFFF" filter="url(#f156ovuclaz1b7)" height="151.7578" style="stroke:#A80036;stroke-width:1.0;" width="10" x="803.5" y="213.0156"/><rect fill="#FFFFFF" filter="url(#f156ovuclaz1b7)" height="91.0547" style="stroke:#A80036;stroke-width:1.0;" width="10" x="961.5" y="243.3672"/><rect fill="#FFFFFF" filter="url(#f156ovuclaz1b7)" height="30.3516" style="stroke:#A80036;stroke-width:1.0;" width="10" x="1281.5" y="273.7188"/><polygon fill="#A80036" points="505.5,117.9609,515.5,121.9609,505.5,125.9609,509.5,121.9609" style="stroke:#A80036;stroke-width:1.0;"/><line style="stroke:#A80036;stroke-width:1.0;" x1="101.5" x2="511.5" y1="121.9609" y2="121.9609"/><text fill="#000000" font-family="sans-serif" font-size="13" font-weight="bold" lengthAdjust="spacing" textLength="7" x="108.5" y="117.1045">1</text><text fill="#000000" font-family="sans-serif" font-size="13" lengthAdjust="spacing" textLength="255" x="119.5" y="117.1045">I want to know the amount of energy needed</text><polygon fill="#A80036" points="112.5,148.3125,102.5,152.3125,112.5,156.3125,108.5,152.3125" style="stroke:#A80036;stroke-width:1.0;"/><line style="stroke:#A80036;stroke-width:1.0;stroke-dasharray:2.0,2.0;" x1="106.5" x2="521.5" y1="152.3125" y2="152.3125"/><text fill="#000000" font-family="sans-serif" font-size="13" font-weight="bold" lengthAdjust="spacing" textLength="7" x="118.5" y="147.4561">2</text><text fill="#000000" font-family="sans-serif" font-size="13" lengthAdjust="spacing" textLength="297" x="129.5" y="147.4561">Please insert the trip and the operating temperature</text><polygon fill="#A80036" points="505.5,178.6641,515.5,182.6641,505.5,186.6641,509.5,182.6641" style="stroke:#A80036;stroke-width:1.0;"/><line style="stroke:#A80036;stroke-width:1.0;" x1="101.5" x2="511.5" y1="182.6641" y2="182.6641"/><text fill="#000000" font-family="sans-serif" font-size="13" font-weight="bold" lengthAdjust="spacing" textLength="7" x="108.5" y="177.8076">3</text><text fill="#000000" font-family="sans-serif" font-size="13" lengthAdjust="spacing" textLength="140" x="119.5" y="177.8076">Inserts the data required</text><polygon fill="#A80036" points="791.5,209.0156,801.5,213.0156,791.5,217.0156,795.5,213.0156" style="stroke:#A80036;stroke-width:1.0;"/><line style="stroke:#A80036;stroke-width:1.0;" x1="527.5" x2="797.5" y1="213.0156" y2="213.0156"/><text fill="#000000" font-family="sans-serif" font-size="13" font-weight="bold" lengthAdjust="spacing" textLength="7" x="534.5" y="208.1592">4</text><text fill="#000000" font-family="sans-serif" font-size="13" lengthAdjust="spacing" textLength="246" x="545.5" y="208.1592">getTotalEnergy(trip,operating_temperature)</text><polygon fill="#A80036" points="949.5,239.3672,959.5,243.3672,949.5,247.3672,953.5,243.3672" style="stroke:#A80036;stroke-width:1.0;"/><line style="stroke:#A80036;stroke-width:1.0;" x1="813.5" x2="955.5" y1="243.3672" y2="243.3672"/><text fill="#000000" font-family="sans-serif" font-size="13" font-weight="bold" lengthAdjust="spacing" textLength="7" x="820.5" y="238.5107">5</text><text fill="#000000" font-family="sans-serif" font-size="13" lengthAdjust="spacing" textLength="118" x="831.5" y="238.5107">getGraphGenerator()</text><polygon fill="#A80036" points="1269.5,269.7188,1279.5,273.7188,1269.5,277.7188,1273.5,273.7188" style="stroke:#A80036;stroke-width:1.0;"/><line style="stroke:#A80036;stroke-width:1.0;" x1="971.5" x2="1275.5" y1="273.7188" y2="273.7188"/><text fill="#000000" font-family="sans-serif" font-size="13" font-weight="bold" lengthAdjust="spacing" textLength="7" x="978.5" y="268.8623">6</text><text fill="#000000" font-family="sans-serif" font-size="13" lengthAdjust="spacing" textLength="280" x="989.5" y="268.8623">calculateTotalEnergy(trip,operating_temperature)</text><polygon fill="#A80036" points="982.5,300.0703,972.5,304.0703,982.5,308.0703,978.5,304.0703" style="stroke:#A80036;stroke-width:1.0;"/><line style="stroke:#A80036;stroke-width:1.0;" x1="976.5" x2="1285.5" y1="304.0703" y2="304.0703"/><text fill="#000000" font-family="sans-serif" font-size="13" font-weight="bold" lengthAdjust="spacing" textLength="7" x="988.5" y="299.2139">7</text><text fill="#000000" font-family="sans-serif" font-size="13" lengthAdjust="spacing" textLength="71" x="999.5" y="299.2139">total_energy</text><polygon fill="#A80036" points="824.5,330.4219,814.5,334.4219,824.5,338.4219,820.5,334.4219" style="stroke:#A80036;stroke-width:1.0;"/><line style="stroke:#A80036;stroke-width:1.0;" x1="818.5" x2="965.5" y1="334.4219" y2="334.4219"/><text fill="#000000" font-family="sans-serif" font-size="13" font-weight="bold" lengthAdjust="spacing" textLength="7" x="830.5" y="329.5654">8</text><text fill="#000000" font-family="sans-serif" font-size="13" lengthAdjust="spacing" textLength="71" x="841.5" y="329.5654">total_energy</text><polygon fill="#A80036" points="538.5,360.7734,528.5,364.7734,538.5,368.7734,534.5,364.7734" style="stroke:#A80036;stroke-width:1.0;"/><line style="stroke:#A80036;stroke-width:1.0;" x1="532.5" x2="807.5" y1="364.7734" y2="364.7734"/><text fill="#000000" font-family="sans-serif" font-size="13" font-weight="bold" lengthAdjust="spacing" textLength="7" x="544.5" y="359.917">9</text><text fill="#000000" font-family="sans-serif" font-size="13" lengthAdjust="spacing" textLength="71" x="555.5" y="359.917">total_energy</text><polygon fill="#A80036" points="112.5,391.125,102.5,395.125,112.5,399.125,108.5,395.125" style="stroke:#A80036;stroke-width:1.0;"/><line style="stroke:#A80036;stroke-width:1.0;" x1="106.5" x2="516.5" y1="395.125" y2="395.125"/><text fill="#000000" font-family="sans-serif" font-size="13" font-weight="bold" lengthAdjust="spacing" textLength="14" x="118.5" y="390.2686">10</text><text fill="#000000" font-family="sans-serif" font-size="13" lengthAdjust="spacing" textLength="374" x="136.5" y="390.2686">return total_energy needed for the inserted operating temperature</text><!--MD5=[d461f992679d34d5d409ebbcc800952c]
@startuml

autonumber

actor       "Ship Chief Electrical Engineer"             as SC
participant    ":AmountEnergyUI"         as UI
participant    ":AmountEnergyController" as CTRL
participant    ":Company"              as Company
participant    ":GraphGenerator"              as GG


SC -> UI : I want to know the amount of energy needed
activate UI
UI - -> SC : Please insert the trip and the operating temperature
deactivate UI

SC -> UI : Inserts the data required
activate UI

UI -> CTRL : getTotalEnergy(trip,operating_temperature)
activate CTRL

CTRL -> Company : getGraphGenerator()
activate Company

Company -> GG : calculateTotalEnergy(trip,operating_temperature)
activate GG

GG -> Company : total_energy
deactivate GG

Company -> CTRL : total_energy
deactivate Company

CTRL -> UI : total_energy
deactivate CTRL

UI -> SC : return total_energy needed for the inserted operating temperature

@enduml

PlantUML version 1.2021.16(Wed Dec 08 17:25:22 GMT 2021)
(GPL source distribution)
Java Runtime: OpenJDK Runtime Environment
JVM: OpenJDK 64-Bit Server VM
Default Encoding: Cp1252
Language: pt
Country: PT
--></g></svg>