<?xml version="1.0" encoding="UTF-8" standalone="no"?><svg xmlns="http://www.w3.org/2000/svg" xmlns:xlink="http://www.w3.org/1999/xlink" contentScriptType="application/ecmascript" contentStyleType="text/css" height="684px" preserveAspectRatio="none" style="width:623px;height:684px;background:#FFFFFF;" version="1.1" viewBox="0 0 623 684" width="623px" zoomAndPan="magnify"><defs><filter height="300%" id="fppamaixhemaa" width="300%" x="-1" y="-1"><feGaussianBlur result="blurOut" stdDeviation="2.0"/><feColorMatrix in="blurOut" result="blurOut2" type="matrix" values="0 0 0 0 0 0 0 0 0 0 0 0 0 0 0 0 0 0 .4 0"/><feOffset dx="4.0" dy="4.0" in="blurOut2" result="blurOut3"/><feBlend in="SourceGraphic" in2="blurOut3" mode="normal"/></filter></defs><g><!--MD5=[d14076b1fa5ff6fc34e7abc31c5e1daa]
class ShipChiefElectricalEngineer--><rect codeLine="2" fill="#FEFECE" filter="url(#fppamaixhemaa)" height="48" id="ShipChiefElectricalEngineer" style="stroke:#A80036;stroke-width:1.5;" width="186" x="317.5" y="7"/><ellipse cx="332.5" cy="23" fill="#ADD1B2" rx="11" ry="11" style="stroke:#A80036;stroke-width:1.0;"/><path d="M334.5,19.5 Q334.7031,19 334.9375,18.75 Q335.1719,18.5 335.4375,18.5 Q335.9063,18.5 336.2031,18.7813 Q336.5,19.0625 336.5,19.7188 L336.5,21.2813 Q336.5,21.9375 336.2188,22.2188 Q335.9375,22.5 335.5,22.5 Q335.1094,22.5 334.8594,22.3281 Q334.6094,22.1563 334.5,21.7031 Q334.4531,21.3906 334.2813,21.2188 Q333.9688,20.8906 333.4063,20.7031 Q332.8438,20.5 332.2813,20.5 Q331.5781,20.5 330.9844,20.7813 Q330.4063,21.0625 329.9531,21.6875 Q329.5,22.3125 329.5,23.1719 L329.5,24.0938 Q329.5,25.125 330.3438,25.8125 Q331.1875,26.5 332.6875,26.5 Q333.5781,26.5 334.2031,26.2969 Q334.5625,26.1875 334.9688,25.8281 Q335.2344,25.625 335.375,25.5625 Q335.5156,25.5 335.6875,25.5 Q336.0156,25.5 336.25,25.7656 Q336.5,26.0156 336.5,26.375 Q336.5,26.7188 336.1563,27.125 Q335.6563,27.7188 334.8594,28.0469 Q333.8125,28.5 332.5313,28.5 Q331.0313,28.5 329.8281,27.9063 Q328.8594,27.4375 328.1719,26.4219 Q327.5,25.4063 327.5,24.2031 L327.5,23.1094 Q327.5,21.8594 328.0938,20.7656 Q328.7031,19.6719 329.75,19.0938 Q330.8125,18.5 332,18.5 Q332.7188,18.5 333.3438,18.75 Q333.9688,19 334.5,19.5 Z " fill="#000000"/><text fill="#000000" font-family="sans-serif" font-size="12" lengthAdjust="spacing" textLength="154" x="346.5" y="27.9102">ShipChiefElectricalEngineer</text><line style="stroke:#A80036;stroke-width:1.5;" x1="318.5" x2="502.5" y1="39" y2="39"/><line style="stroke:#A80036;stroke-width:1.5;" x1="318.5" x2="502.5" y1="47" y2="47"/><!--MD5=[3fd616f346a44cd59a91eb10b19e157c]
class User--><rect codeLine="6" fill="#FEFECE" filter="url(#fppamaixhemaa)" height="48" id="User" style="stroke:#A80036;stroke-width:1.5;" width="59" x="537" y="154"/><ellipse cx="552" cy="170" fill="#ADD1B2" rx="11" ry="11" style="stroke:#A80036;stroke-width:1.0;"/><path d="M554,166.5 Q554.2031,166 554.4375,165.75 Q554.6719,165.5 554.9375,165.5 Q555.4063,165.5 555.7031,165.7813 Q556,166.0625 556,166.7188 L556,168.2813 Q556,168.9375 555.7188,169.2188 Q555.4375,169.5 555,169.5 Q554.6094,169.5 554.3594,169.3281 Q554.1094,169.1563 554,168.7031 Q553.9531,168.3906 553.7813,168.2188 Q553.4688,167.8906 552.9063,167.7031 Q552.3438,167.5 551.7813,167.5 Q551.0781,167.5 550.4844,167.7813 Q549.9063,168.0625 549.4531,168.6875 Q549,169.3125 549,170.1719 L549,171.0938 Q549,172.125 549.8438,172.8125 Q550.6875,173.5 552.1875,173.5 Q553.0781,173.5 553.7031,173.2969 Q554.0625,173.1875 554.4688,172.8281 Q554.7344,172.625 554.875,172.5625 Q555.0156,172.5 555.1875,172.5 Q555.5156,172.5 555.75,172.7656 Q556,173.0156 556,173.375 Q556,173.7188 555.6563,174.125 Q555.1563,174.7188 554.3594,175.0469 Q553.3125,175.5 552.0313,175.5 Q550.5313,175.5 549.3281,174.9063 Q548.3594,174.4375 547.6719,173.4219 Q547,172.4063 547,171.2031 L547,170.1094 Q547,168.8594 547.5938,167.7656 Q548.2031,166.6719 549.25,166.0938 Q550.3125,165.5 551.5,165.5 Q552.2188,165.5 552.8438,165.75 Q553.4688,166 554,166.5 Z " fill="#000000"/><text fill="#000000" font-family="sans-serif" font-size="12" lengthAdjust="spacing" textLength="27" x="566" y="174.9102">User</text><line style="stroke:#A80036;stroke-width:1.5;" x1="538" x2="595" y1="186" y2="186"/><line style="stroke:#A80036;stroke-width:1.5;" x1="538" x2="595" y1="194" y2="194"/><!--MD5=[45d42ff7800d812d5f83c7d3273eb427]
class UserRole--><rect codeLine="10" fill="#FEFECE" filter="url(#fppamaixhemaa)" height="48" id="UserRole" style="stroke:#A80036;stroke-width:1.5;" width="85" x="524" y="335.5"/><ellipse cx="539" cy="351.5" fill="#ADD1B2" rx="11" ry="11" style="stroke:#A80036;stroke-width:1.0;"/><path d="M541,348 Q541.2031,347.5 541.4375,347.25 Q541.6719,347 541.9375,347 Q542.4063,347 542.7031,347.2813 Q543,347.5625 543,348.2188 L543,349.7813 Q543,350.4375 542.7188,350.7188 Q542.4375,351 542,351 Q541.6094,351 541.3594,350.8281 Q541.1094,350.6563 541,350.2031 Q540.9531,349.8906 540.7813,349.7188 Q540.4688,349.3906 539.9063,349.2031 Q539.3438,349 538.7813,349 Q538.0781,349 537.4844,349.2813 Q536.9063,349.5625 536.4531,350.1875 Q536,350.8125 536,351.6719 L536,352.5938 Q536,353.625 536.8438,354.3125 Q537.6875,355 539.1875,355 Q540.0781,355 540.7031,354.7969 Q541.0625,354.6875 541.4688,354.3281 Q541.7344,354.125 541.875,354.0625 Q542.0156,354 542.1875,354 Q542.5156,354 542.75,354.2656 Q543,354.5156 543,354.875 Q543,355.2188 542.6563,355.625 Q542.1563,356.2188 541.3594,356.5469 Q540.3125,357 539.0313,357 Q537.5313,357 536.3281,356.4063 Q535.3594,355.9375 534.6719,354.9219 Q534,353.9063 534,352.7031 L534,351.6094 Q534,350.3594 534.5938,349.2656 Q535.2031,348.1719 536.25,347.5938 Q537.3125,347 538.5,347 Q539.2188,347 539.8438,347.25 Q540.4688,347.5 541,348 Z " fill="#000000"/><text fill="#000000" font-family="sans-serif" font-size="12" lengthAdjust="spacing" textLength="53" x="553" y="356.4102">UserRole</text><line style="stroke:#A80036;stroke-width:1.5;" x1="525" x2="608" y1="367.5" y2="367.5"/><line style="stroke:#A80036;stroke-width:1.5;" x1="525" x2="608" y1="375.5" y2="375.5"/><!--MD5=[02e4b9b7573f1156f41e60aa5b4e25a4]
class Company--><rect codeLine="14" fill="#FEFECE" filter="url(#fppamaixhemaa)" height="48" id="Company" style="stroke:#A80036;stroke-width:1.5;" width="85" x="235" y="496"/><ellipse cx="250" cy="512" fill="#ADD1B2" rx="11" ry="11" style="stroke:#A80036;stroke-width:1.0;"/><path d="M252,508.5 Q252.2031,508 252.4375,507.75 Q252.6719,507.5 252.9375,507.5 Q253.4063,507.5 253.7031,507.7813 Q254,508.0625 254,508.7188 L254,510.2813 Q254,510.9375 253.7188,511.2188 Q253.4375,511.5 253,511.5 Q252.6094,511.5 252.3594,511.3281 Q252.1094,511.1563 252,510.7031 Q251.9531,510.3906 251.7813,510.2188 Q251.4688,509.8906 250.9063,509.7031 Q250.3438,509.5 249.7813,509.5 Q249.0781,509.5 248.4844,509.7813 Q247.9063,510.0625 247.4531,510.6875 Q247,511.3125 247,512.1719 L247,513.0938 Q247,514.125 247.8438,514.8125 Q248.6875,515.5 250.1875,515.5 Q251.0781,515.5 251.7031,515.2969 Q252.0625,515.1875 252.4688,514.8281 Q252.7344,514.625 252.875,514.5625 Q253.0156,514.5 253.1875,514.5 Q253.5156,514.5 253.75,514.7656 Q254,515.0156 254,515.375 Q254,515.7188 253.6563,516.125 Q253.1563,516.7188 252.3594,517.0469 Q251.3125,517.5 250.0313,517.5 Q248.5313,517.5 247.3281,516.9063 Q246.3594,516.4375 245.6719,515.4219 Q245,514.4063 245,513.2031 L245,512.1094 Q245,510.8594 245.5938,509.7656 Q246.2031,508.6719 247.25,508.0938 Q248.3125,507.5 249.5,507.5 Q250.2188,507.5 250.8438,507.75 Q251.4688,508 252,508.5 Z " fill="#000000"/><text fill="#000000" font-family="sans-serif" font-size="12" lengthAdjust="spacing" textLength="53" x="264" y="516.9102">Company</text><line style="stroke:#A80036;stroke-width:1.5;" x1="236" x2="319" y1="528" y2="528"/><line style="stroke:#A80036;stroke-width:1.5;" x1="236" x2="319" y1="536" y2="536"/><!--MD5=[d8bd91cb57f2efb22bfd9dcbdb0c81ad]
class GetSummaryDocumentMaterialsUI--><rect codeLine="18" fill="#FEFECE" filter="url(#fppamaixhemaa)" height="89.5078" id="GetSummaryDocumentMaterialsUI" style="stroke:#A80036;stroke-width:1.5;" width="495" x="7" y="133"/><ellipse cx="154.75" cy="149" fill="#ADD1B2" rx="11" ry="11" style="stroke:#A80036;stroke-width:1.0;"/><path d="M156.75,145.5 Q156.9531,145 157.1875,144.75 Q157.4219,144.5 157.6875,144.5 Q158.1563,144.5 158.4531,144.7813 Q158.75,145.0625 158.75,145.7188 L158.75,147.2813 Q158.75,147.9375 158.4688,148.2188 Q158.1875,148.5 157.75,148.5 Q157.3594,148.5 157.1094,148.3281 Q156.8594,148.1563 156.75,147.7031 Q156.7031,147.3906 156.5313,147.2188 Q156.2188,146.8906 155.6563,146.7031 Q155.0938,146.5 154.5313,146.5 Q153.8281,146.5 153.2344,146.7813 Q152.6563,147.0625 152.2031,147.6875 Q151.75,148.3125 151.75,149.1719 L151.75,150.0938 Q151.75,151.125 152.5938,151.8125 Q153.4375,152.5 154.9375,152.5 Q155.8281,152.5 156.4531,152.2969 Q156.8125,152.1875 157.2188,151.8281 Q157.4844,151.625 157.625,151.5625 Q157.7656,151.5 157.9375,151.5 Q158.2656,151.5 158.5,151.7656 Q158.75,152.0156 158.75,152.375 Q158.75,152.7188 158.4063,153.125 Q157.9063,153.7188 157.1094,154.0469 Q156.0625,154.5 154.7813,154.5 Q153.2813,154.5 152.0781,153.9063 Q151.1094,153.4375 150.4219,152.4219 Q149.75,151.4063 149.75,150.2031 L149.75,149.1094 Q149.75,147.8594 150.3438,146.7656 Q150.9531,145.6719 152,145.0938 Q153.0625,144.5 154.25,144.5 Q154.9688,144.5 155.5938,144.75 Q156.2188,145 156.75,145.5 Z " fill="#000000"/><text fill="#000000" font-family="sans-serif" font-size="12" lengthAdjust="spacing" textLength="191" x="175.25" y="153.9102">GetSummaryDocumentMaterialsUI</text><line style="stroke:#A80036;stroke-width:1.5;" x1="8" x2="501" y1="165" y2="165"/><rect fill="none" height="6" style="stroke:#C82930;stroke-width:1.0;" width="6" x="15" y="173"/><text fill="#000000" font-family="sans-serif" font-size="11" lengthAdjust="spacing" textLength="469" x="27" y="180.4189">GetSetOfMaterialsToContainerAtSevenController getSetOfMaterialsToContainerAtSevenController</text><line style="stroke:#A80036;stroke-width:1.5;" x1="8" x2="501" y1="186.8359" y2="186.8359"/><ellipse cx="18" cy="197.8359" fill="#84BE84" rx="3" ry="3" style="stroke:#038048;stroke-width:1.0;"/><text fill="#000000" font-family="sans-serif" font-size="11" lengthAdjust="spacing" textLength="170" x="27" y="202.2549">GetSummaryDocumentMaterialsUI()</text><ellipse cx="18" cy="211.6719" fill="#84BE84" rx="3" ry="3" style="stroke:#038048;stroke-width:1.0;"/><text fill="#000000" font-family="sans-serif" font-size="11" lengthAdjust="spacing" textLength="24" x="27" y="216.0908">run()</text><!--MD5=[f61d852341b66677d757f4621ff00693]
class GetSummaryDocumentMaterialsController--><rect codeLine="24" fill="#FEFECE" filter="url(#fppamaixhemaa)" height="117.1797" id="GetSummaryDocumentMaterialsController" style="stroke:#A80036;stroke-width:1.5;" width="325" x="115" y="301"/><ellipse cx="157" cy="317" fill="#ADD1B2" rx="11" ry="11" style="stroke:#A80036;stroke-width:1.0;"/><path d="M159,313.5 Q159.2031,313 159.4375,312.75 Q159.6719,312.5 159.9375,312.5 Q160.4063,312.5 160.7031,312.7813 Q161,313.0625 161,313.7188 L161,315.2813 Q161,315.9375 160.7188,316.2188 Q160.4375,316.5 160,316.5 Q159.6094,316.5 159.3594,316.3281 Q159.1094,316.1563 159,315.7031 Q158.9531,315.3906 158.7813,315.2188 Q158.4688,314.8906 157.9063,314.7031 Q157.3438,314.5 156.7813,314.5 Q156.0781,314.5 155.4844,314.7813 Q154.9063,315.0625 154.4531,315.6875 Q154,316.3125 154,317.1719 L154,318.0938 Q154,319.125 154.8438,319.8125 Q155.6875,320.5 157.1875,320.5 Q158.0781,320.5 158.7031,320.2969 Q159.0625,320.1875 159.4688,319.8281 Q159.7344,319.625 159.875,319.5625 Q160.0156,319.5 160.1875,319.5 Q160.5156,319.5 160.75,319.7656 Q161,320.0156 161,320.375 Q161,320.7188 160.6563,321.125 Q160.1563,321.7188 159.3594,322.0469 Q158.3125,322.5 157.0313,322.5 Q155.5313,322.5 154.3281,321.9063 Q153.3594,321.4375 152.6719,320.4219 Q152,319.4063 152,318.2031 L152,317.1094 Q152,315.8594 152.5938,314.7656 Q153.2031,313.6719 154.25,313.0938 Q155.3125,312.5 156.5,312.5 Q157.2188,312.5 157.8438,312.75 Q158.4688,313 159,313.5 Z " fill="#000000"/><text fill="#000000" font-family="sans-serif" font-size="12" lengthAdjust="spacing" textLength="233" x="177" y="321.9102">GetSummaryDocumentMaterialsController</text><line style="stroke:#A80036;stroke-width:1.5;" x1="116" x2="439" y1="333" y2="333"/><rect fill="none" height="6" style="stroke:#C82930;stroke-width:1.0;" width="6" x="123" y="341"/><text fill="#000000" font-family="sans-serif" font-size="11" lengthAdjust="spacing" textLength="92" x="135" y="348.4189">Company company</text><line style="stroke:#A80036;stroke-width:1.5;" x1="116" x2="439" y1="354.8359" y2="354.8359"/><ellipse cx="126" cy="365.8359" fill="#84BE84" rx="3" ry="3" style="stroke:#038048;stroke-width:1.0;"/><text fill="#000000" font-family="sans-serif" font-size="11" lengthAdjust="spacing" textLength="207" x="135" y="370.2549">GetSummaryDocumentMaterialsController()</text><ellipse cx="126" cy="379.6719" fill="#84BE84" rx="3" ry="3" style="stroke:#038048;stroke-width:1.0;"/><text fill="#000000" font-family="sans-serif" font-size="11" lengthAdjust="spacing" textLength="299" x="135" y="384.0908">GetSummaryDocumentMaterialsController(Company company)</text><ellipse cx="126" cy="393.5078" fill="#84BE84" rx="3" ry="3" style="stroke:#038048;stroke-width:1.0;"/><text fill="#000000" font-family="sans-serif" font-size="11" lengthAdjust="spacing" textLength="205" x="135" y="397.9268">getSummaryDocumentMaterialsController()</text><ellipse cx="126" cy="407.3438" fill="#84BE84" rx="3" ry="3" style="stroke:#038048;stroke-width:1.0;"/><text fill="#000000" font-family="sans-serif" font-size="11" lengthAdjust="spacing" textLength="68" x="135" y="411.7627">getCompany()</text><!--MD5=[837d3612090b426002fd1342fcbe6b88]
class DataBase--><rect fill="#FEFECE" filter="url(#fppamaixhemaa)" height="48" id="DataBase" style="stroke:#A80036;stroke-width:1.5;" width="87" x="234" y="622"/><ellipse cx="249" cy="638" fill="#ADD1B2" rx="11" ry="11" style="stroke:#A80036;stroke-width:1.0;"/><path d="M251,634.5 Q251.2031,634 251.4375,633.75 Q251.6719,633.5 251.9375,633.5 Q252.4063,633.5 252.7031,633.7813 Q253,634.0625 253,634.7188 L253,636.2813 Q253,636.9375 252.7188,637.2188 Q252.4375,637.5 252,637.5 Q251.6094,637.5 251.3594,637.3281 Q251.1094,637.1563 251,636.7031 Q250.9531,636.3906 250.7813,636.2188 Q250.4688,635.8906 249.9063,635.7031 Q249.3438,635.5 248.7813,635.5 Q248.0781,635.5 247.4844,635.7813 Q246.9063,636.0625 246.4531,636.6875 Q246,637.3125 246,638.1719 L246,639.0938 Q246,640.125 246.8438,640.8125 Q247.6875,641.5 249.1875,641.5 Q250.0781,641.5 250.7031,641.2969 Q251.0625,641.1875 251.4688,640.8281 Q251.7344,640.625 251.875,640.5625 Q252.0156,640.5 252.1875,640.5 Q252.5156,640.5 252.75,640.7656 Q253,641.0156 253,641.375 Q253,641.7188 252.6563,642.125 Q252.1563,642.7188 251.3594,643.0469 Q250.3125,643.5 249.0313,643.5 Q247.5313,643.5 246.3281,642.9063 Q245.3594,642.4375 244.6719,641.4219 Q244,640.4063 244,639.2031 L244,638.1094 Q244,636.8594 244.5938,635.7656 Q245.2031,634.6719 246.25,634.0938 Q247.3125,633.5 248.5,633.5 Q249.2188,633.5 249.8438,633.75 Q250.4688,634 251,634.5 Z " fill="#000000"/><text fill="#000000" font-family="sans-serif" font-size="12" lengthAdjust="spacing" textLength="55" x="263" y="642.9102">DataBase</text><line style="stroke:#A80036;stroke-width:1.5;" x1="235" x2="320" y1="654" y2="654"/><line style="stroke:#A80036;stroke-width:1.5;" x1="235" x2="320" y1="662" y2="662"/><!--MD5=[24a1e0c58afb6280f28da5c142a66454]
link ShipChiefElectricalEngineer to GetSummaryDocumentMaterialsUI--><path codeLine="32" d="M385.44,55.3 C364.01,75.21 332.49,104.5 305.75,129.36 " fill="none" id="ShipChiefElectricalEngineer-to-GetSummaryDocumentMaterialsUI" style="stroke:#A80036;stroke-width:1.0;"/><polygon fill="#A80036" points="301.84,133,311.1483,129.7821,305.4948,129.5879,305.689,123.9344,301.84,133" style="stroke:#A80036;stroke-width:1.0;"/><text fill="#000000" font-family="sans-serif" font-size="13" lengthAdjust="spacing" textLength="44" x="351.5" y="99.4951">Access</text><!--MD5=[ba8a4e546cec8edbfa9ef79c6149406f]
link GetSummaryDocumentMaterialsUI to GetSummaryDocumentMaterialsController--><path codeLine="33" d="M229.86,223.26 C224.32,238.33 221.2,255.34 225.5,271 C227.83,279.48 231.22,287.97 235.17,296.15 " fill="none" id="GetSummaryDocumentMaterialsUI-to-GetSummaryDocumentMaterialsController" style="stroke:#A80036;stroke-width:1.0;"/><polygon fill="#A80036" points="237.42,300.66,236.9854,290.8207,235.1897,296.185,229.8254,294.3893,237.42,300.66" style="stroke:#A80036;stroke-width:1.0;"/><text fill="#000000" font-family="sans-serif" font-size="13" lengthAdjust="spacing" textLength="82" x="226.5" y="267.4951">Connects with</text><!--MD5=[6d1ebe07c8a6ec538be02cba5ea67cfe]
reverse link GetSummaryDocumentMaterialsUI to GetSummaryDocumentMaterialsController--><path codeLine="36" d="M300.32,227.44 C305.71,235.47 310.39,244.1 313.5,253 C318.93,268.53 316.79,285.37 311.5,300.95 " fill="none" id="GetSummaryDocumentMaterialsUI-backto-GetSummaryDocumentMaterialsController" style="stroke:#A80036;stroke-width:1.0;"/><polygon fill="#A80036" points="297.25,223.05,299.0981,232.7239,300.102,227.1568,305.669,228.1607,297.25,223.05" style="stroke:#A80036;stroke-width:1.0;"/><text fill="#000000" font-family="sans-serif" font-size="13" lengthAdjust="spacing" textLength="69" x="318.5" y="267.4951">Returns Info</text><!--MD5=[68cfd519b9d01f4f9bfebe5bdfd7fcda]
link ShipChiefElectricalEngineer to User--><path codeLine="34" d="M435.64,55.23 C457.76,75.68 490.8,106.27 519.5,133 C525.46,138.55 531.84,144.51 537.91,150.19 " fill="none" id="ShipChiefElectricalEngineer-to-User" style="stroke:#A80036;stroke-width:1.0;"/><polygon fill="#A80036" points="541.64,153.68,537.791,144.6144,537.9852,150.2679,532.3317,150.4621,541.64,153.68" style="stroke:#A80036;stroke-width:1.0;"/><text fill="#000000" font-family="sans-serif" font-size="13" lengthAdjust="spacing" textLength="21" x="487.5" y="99.4951">is a</text><!--MD5=[1f12d177c84922ed4f166f09ee62ceaa]
link User to UserRole--><path codeLine="35" d="M566.5,202.1 C566.5,234.95 566.5,295.09 566.5,330.46 " fill="none" id="User-to-UserRole" style="stroke:#A80036;stroke-width:1.0;"/><polygon fill="#A80036" points="566.5,335.49,570.5,326.49,566.5,330.49,562.5,326.49,566.5,335.49" style="stroke:#A80036;stroke-width:1.0;"/><text fill="#000000" font-family="sans-serif" font-size="13" lengthAdjust="spacing" textLength="21" x="567.5" y="267.4951">has</text><!--MD5=[e760017e674e35f33451e9aa0691ebe2]
link GetSummaryDocumentMaterialsController to Company--><path codeLine="37" d="M226.87,418.35 C220.99,427.74 215.89,437.76 212.5,448 C206.79,465.26 217.67,480.67 232.07,492.69 " fill="none" id="GetSummaryDocumentMaterialsController-to-Company" style="stroke:#A80036;stroke-width:1.0;"/><polygon fill="#A80036" points="236.21,495.98,231.6576,487.2464,232.2973,492.867,226.6767,493.5067,236.21,495.98" style="stroke:#A80036;stroke-width:1.0;"/><text fill="#000000" font-family="sans-serif" font-size="13" lengthAdjust="spacing" textLength="82" x="213.5" y="462.4951">Connects with</text><!--MD5=[85579afb91064cd0c30484c89f27eaf3]
link Company to GetSummaryDocumentMaterialsController--><path codeLine="38" d="M289.95,495.94 C294.19,486.88 298.38,476.21 300.5,466 C303.37,452.19 302.56,437.38 299.99,423.35 " fill="none" id="Company-to-GetSummaryDocumentMaterialsController" style="stroke:#A80036;stroke-width:1.0;"/><polygon fill="#A80036" points="298.97,418.22,296.8181,427.8309,299.9533,423.1224,304.6619,426.2576,298.97,418.22" style="stroke:#A80036;stroke-width:1.0;"/><text fill="#000000" font-family="sans-serif" font-size="13" lengthAdjust="spacing" textLength="69" x="303.5" y="462.4951">Returns Info</text><!--MD5=[28fa5ca211853e28b35503d2b875b2be]
link Company to DataBase--><path codeLine="39" d="M277.5,544.03 C277.5,564.52 277.5,594.56 277.5,616.55 " fill="none" id="Company-to-DataBase" style="stroke:#A80036;stroke-width:1.0;"/><polygon fill="#A80036" points="277.5,621.67,281.5,612.67,277.5,616.67,273.5,612.67,277.5,621.67" style="stroke:#A80036;stroke-width:1.0;"/><text fill="#000000" font-family="sans-serif" font-size="13" lengthAdjust="spacing" textLength="55" x="278.5" y="588.4951">Connects</text><!--MD5=[9b9be04a7fe11a775cbf2259d1487e4a]
@startuml

class ShipChiefElectricalEngineer{

}

class User{

}

class UserRole{

}

class Company{

}

class GetSummaryDocumentMaterialsUI{
    -GetSetOfMaterialsToContainerAtSevenController getSetOfMaterialsToContainerAtSevenController
    +GetSummaryDocumentMaterialsUI()
    +run()
}

class GetSummaryDocumentMaterialsController{
    -Company company
    +GetSummaryDocumentMaterialsController()
    +GetSummaryDocumentMaterialsController(Company company)
    +getSummaryDocumentMaterialsController()
    +getCompany()
}

ShipChiefElectricalEngineer - -> GetSummaryDocumentMaterialsUI : Access
GetSummaryDocumentMaterialsUI -down-> GetSummaryDocumentMaterialsController : Connects with
ShipChiefElectricalEngineer - -> User : is a
User - -> UserRole : has
GetSummaryDocumentMaterialsController -up-> GetSummaryDocumentMaterialsUI : Returns Info
GetSummaryDocumentMaterialsController - -> Company : Connects with
Company - -> GetSummaryDocumentMaterialsController : Returns Info
Company - -> DataBase : Connects

@enduml

PlantUML version 1.2021.11(Sat Oct 02 14:26:11 BST 2021)
(GPL source distribution)
Java Runtime: OpenJDK Runtime Environment
JVM: OpenJDK 64-Bit Server VM
Default Encoding: Cp1252
Language: pt
Country: PT
--></g></svg>