<?xml version="1.0" encoding="UTF-8" standalone="no"?><svg xmlns="http://www.w3.org/2000/svg" xmlns:xlink="http://www.w3.org/1999/xlink" contentScriptType="application/ecmascript" contentStyleType="text/css" height="541px" preserveAspectRatio="none" style="width:1722px;height:541px;background:#FFFFFF;" version="1.1" viewBox="0 0 1722 541" width="1722px" zoomAndPan="magnify"><defs><filter height="300%" id="fhe4pfaottiiw" width="300%" x="-1" y="-1"><feGaussianBlur result="blurOut" stdDeviation="2.0"/><feColorMatrix in="blurOut" result="blurOut2" type="matrix" values="0 0 0 0 0 0 0 0 0 0 0 0 0 0 0 0 0 0 .4 0"/><feOffset dx="4.0" dy="4.0" in="blurOut2" result="blurOut3"/><feBlend in="SourceGraphic" in2="blurOut3" mode="normal"/></filter></defs><g><line style="stroke:#A80036;stroke-width:1.0;stroke-dasharray:5.0,5.0;" x1="95" x2="95" y1="89.6094" y2="456.3828"/><line style="stroke:#A80036;stroke-width:1.0;stroke-dasharray:5.0,5.0;" x1="727.5" x2="727.5" y1="89.6094" y2="456.3828"/><line style="stroke:#A80036;stroke-width:1.0;stroke-dasharray:5.0,5.0;" x1="871.5" x2="871.5" y1="89.6094" y2="456.3828"/><line style="stroke:#A80036;stroke-width:1.0;stroke-dasharray:5.0,5.0;" x1="1100.5" x2="1100.5" y1="89.6094" y2="456.3828"/><line style="stroke:#A80036;stroke-width:1.0;stroke-dasharray:5.0,5.0;" x1="1368.5" x2="1368.5" y1="89.6094" y2="456.3828"/><line style="stroke:#A80036;stroke-width:1.0;stroke-dasharray:5.0,5.0;" x1="1687" x2="1687" y1="328.5234" y2="456.3828"/><text fill="#000000" font-family="sans-serif" font-size="14" lengthAdjust="spacing" textLength="175" x="5" y="86.5332">ShipChiefElectricalEngineer</text><ellipse cx="95.5" cy="15" fill="#FF0000" filter="url(#fhe4pfaottiiw)" rx="8" ry="8" style="stroke:#A80036;stroke-width:2.0;"/><path d="M95.5,23 L95.5,50 M82.5,31 L108.5,31 M95.5,50 L82.5,65 M95.5,50 L108.5,65 " fill="none" filter="url(#fhe4pfaottiiw)" style="stroke:#A80036;stroke-width:2.0;"/><text fill="#000000" font-family="sans-serif" font-size="14" lengthAdjust="spacing" textLength="175" x="5" y="469.916">ShipChiefElectricalEngineer</text><ellipse cx="95.5" cy="482.9922" fill="#FF0000" filter="url(#fhe4pfaottiiw)" rx="8" ry="8" style="stroke:#A80036;stroke-width:2.0;"/><path d="M95.5,490.9922 L95.5,517.9922 M82.5,498.9922 L108.5,498.9922 M95.5,517.9922 L82.5,532.9922 M95.5,517.9922 L108.5,532.9922 " fill="none" filter="url(#fhe4pfaottiiw)" style="stroke:#A80036;stroke-width:2.0;"/><rect fill="#FEFECE" filter="url(#fhe4pfaottiiw)" height="31.6094" style="stroke:#A80036;stroke-width:1.5;" width="60" x="695.5" y="53"/><text fill="#000000" font-family="sans-serif" font-size="14" lengthAdjust="spacing" textLength="46" x="702.5" y="74.5332">System</text><rect fill="#FEFECE" filter="url(#fhe4pfaottiiw)" height="31.6094" style="stroke:#A80036;stroke-width:1.5;" width="60" x="695.5" y="455.3828"/><text fill="#000000" font-family="sans-serif" font-size="14" lengthAdjust="spacing" textLength="46" x="702.5" y="476.916">System</text><rect fill="#FEFECE" filter="url(#fhe4pfaottiiw)" height="31.6094" style="stroke:#A80036;stroke-width:1.5;" width="201" x="769.5" y="53"/><text fill="#000000" font-family="sans-serif" font-size="14" lengthAdjust="spacing" textLength="187" x="776.5" y="74.5332">ShipChiefElectricalEngineerUI</text><rect fill="#FEFECE" filter="url(#fhe4pfaottiiw)" height="31.6094" style="stroke:#A80036;stroke-width:1.5;" width="201" x="769.5" y="455.3828"/><text fill="#000000" font-family="sans-serif" font-size="14" lengthAdjust="spacing" textLength="187" x="776.5" y="476.916">ShipChiefElectricalEngineerUI</text><rect fill="#FEFECE" filter="url(#fhe4pfaottiiw)" height="31.6094" style="stroke:#A80036;stroke-width:1.5;" width="229" x="984.5" y="53"/><text fill="#000000" font-family="sans-serif" font-size="14" lengthAdjust="spacing" textLength="215" x="991.5" y="74.5332">GetSummaryDocumentMaterialsUI</text><rect fill="#FEFECE" filter="url(#fhe4pfaottiiw)" height="31.6094" style="stroke:#A80036;stroke-width:1.5;" width="229" x="984.5" y="455.3828"/><text fill="#000000" font-family="sans-serif" font-size="14" lengthAdjust="spacing" textLength="215" x="991.5" y="476.916">GetSummaryDocumentMaterialsUI</text><rect fill="#FEFECE" filter="url(#fhe4pfaottiiw)" height="31.6094" style="stroke:#A80036;stroke-width:1.5;" width="279" x="1227.5" y="53"/><text fill="#000000" font-family="sans-serif" font-size="14" lengthAdjust="spacing" textLength="265" x="1234.5" y="74.5332">GetSummaryDocumentMaterialsController</text><rect fill="#FEFECE" filter="url(#fhe4pfaottiiw)" height="31.6094" style="stroke:#A80036;stroke-width:1.5;" width="279" x="1227.5" y="455.3828"/><text fill="#000000" font-family="sans-serif" font-size="14" lengthAdjust="spacing" textLength="265" x="1234.5" y="476.916">GetSummaryDocumentMaterialsController</text><text fill="#000000" font-family="sans-serif" font-size="14" lengthAdjust="spacing" textLength="62" x="1653" y="469.916">DataBase</text><path d="M1669,482.9922 C1669,472.9922 1687,472.9922 1687,472.9922 C1687,472.9922 1705,472.9922 1705,482.9922 L1705,508.9922 C1705,518.9922 1687,518.9922 1687,518.9922 C1687,518.9922 1669,518.9922 1669,508.9922 L1669,482.9922 " fill="#FEFECE" filter="url(#fhe4pfaottiiw)" style="stroke:#000000;stroke-width:1.5;"/><path d="M1669,482.9922 C1669,492.9922 1687,492.9922 1687,492.9922 C1687,492.9922 1705,492.9922 1705,482.9922 " fill="none" style="stroke:#000000;stroke-width:1.5;"/><polygon fill="#A80036" points="106.5,117.9609,96.5,121.9609,106.5,125.9609,102.5,121.9609" style="stroke:#A80036;stroke-width:1.0;"/><line style="stroke:#A80036;stroke-width:1.0;stroke-dasharray:2.0,2.0;" x1="100.5" x2="726.5" y1="121.9609" y2="121.9609"/><text fill="#000000" font-family="sans-serif" font-size="13" font-weight="bold" lengthAdjust="spacing" textLength="7" x="112.5" y="117.1045">1</text><text fill="#000000" font-family="sans-serif" font-size="13" lengthAdjust="spacing" textLength="135" x="123.5" y="117.1045">Authentication Request</text><polygon fill="#A80036" points="715.5,148.3125,725.5,152.3125,715.5,156.3125,719.5,152.3125" style="stroke:#A80036;stroke-width:1.0;"/><line style="stroke:#A80036;stroke-width:1.0;" x1="95.5" x2="721.5" y1="152.3125" y2="152.3125"/><text fill="#000000" font-family="sans-serif" font-size="13" font-weight="bold" lengthAdjust="spacing" textLength="7" x="102.5" y="147.4561">2</text><text fill="#000000" font-family="sans-serif" font-size="13" lengthAdjust="spacing" textLength="192" x="113.5" y="147.4561">Another authentication Response</text><polygon fill="#A80036" points="106.5,178.6641,96.5,182.6641,106.5,186.6641,102.5,182.6641" style="stroke:#A80036;stroke-width:1.0;"/><line style="stroke:#A80036;stroke-width:1.0;stroke-dasharray:2.0,2.0;" x1="100.5" x2="726.5" y1="182.6641" y2="182.6641"/><text fill="#000000" font-family="sans-serif" font-size="13" font-weight="bold" lengthAdjust="spacing" textLength="7" x="112.5" y="177.8076">3</text><text fill="#000000" font-family="sans-serif" font-size="13" lengthAdjust="spacing" textLength="149" x="123.5" y="177.8076">Authentication successful</text><polygon fill="#A80036" points="715.5,209.0156,725.5,213.0156,715.5,217.0156,719.5,213.0156" style="stroke:#A80036;stroke-width:1.0;"/><line style="stroke:#A80036;stroke-width:1.0;stroke-dasharray:2.0,2.0;" x1="95.5" x2="721.5" y1="213.0156" y2="213.0156"/><text fill="#000000" font-family="sans-serif" font-size="13" font-weight="bold" lengthAdjust="spacing" textLength="7" x="102.5" y="208.1592">4</text><text fill="#000000" font-family="sans-serif" font-size="13" lengthAdjust="spacing" textLength="597" x="113.5" y="208.1592">Asks for the summary document about materials and thermal resistances about refrigerated containers.</text><polygon fill="#A80036" points="1089,239.3672,1099,243.3672,1089,247.3672,1093,243.3672" style="stroke:#A80036;stroke-width:1.0;"/><line style="stroke:#A80036;stroke-width:1.0;stroke-dasharray:2.0,2.0;" x1="872" x2="1095" y1="243.3672" y2="243.3672"/><text fill="#000000" font-family="sans-serif" font-size="13" font-weight="bold" lengthAdjust="spacing" textLength="7" x="879" y="238.5107">5</text><text fill="#000000" font-family="sans-serif" font-size="13" lengthAdjust="spacing" textLength="55" x="890" y="238.5107">Connects</text><polygon fill="#A80036" points="1357,269.7188,1367,273.7188,1357,277.7188,1361,273.7188" style="stroke:#A80036;stroke-width:1.0;"/><line style="stroke:#A80036;stroke-width:1.0;stroke-dasharray:2.0,2.0;" x1="1101" x2="1363" y1="273.7188" y2="273.7188"/><text fill="#000000" font-family="sans-serif" font-size="13" font-weight="bold" lengthAdjust="spacing" textLength="7" x="1108" y="268.8623">6</text><text fill="#000000" font-family="sans-serif" font-size="13" lengthAdjust="spacing" textLength="92" x="1119" y="268.8623">asks for the info</text><polygon fill="#A80036" points="1641,300.0703,1651,304.0703,1641,308.0703,1645,304.0703" style="stroke:#A80036;stroke-width:1.0;"/><line style="stroke:#A80036;stroke-width:1.0;stroke-dasharray:2.0,2.0;" x1="1369" x2="1647" y1="304.0703" y2="304.0703"/><text fill="#000000" font-family="sans-serif" font-size="13" font-weight="bold" lengthAdjust="spacing" textLength="7" x="1376" y="299.2139">7</text><text fill="#000000" font-family="sans-serif" font-size="13" lengthAdjust="spacing" textLength="249" x="1387" y="299.2139">getSummaryDocumentMaterialsController()</text><text fill="#000000" font-family="sans-serif" font-size="14" lengthAdjust="spacing" textLength="62" x="1653" y="342.252">DataBase</text><path d="M1669,291.7188 C1669,281.7188 1687,281.7188 1687,281.7188 C1687,281.7188 1705,281.7188 1705,291.7188 L1705,317.7188 C1705,327.7188 1687,327.7188 1687,327.7188 C1687,327.7188 1669,327.7188 1669,317.7188 L1669,291.7188 " fill="#FEFECE" filter="url(#fhe4pfaottiiw)" style="stroke:#000000;stroke-width:1.5;"/><path d="M1669,291.7188 C1669,301.7188 1687,301.7188 1687,301.7188 C1687,301.7188 1705,301.7188 1705,291.7188 " fill="none" style="stroke:#000000;stroke-width:1.5;"/><polygon fill="#A80036" points="1380,373.6797,1370,377.6797,1380,381.6797,1376,377.6797" style="stroke:#A80036;stroke-width:1.0;"/><line style="stroke:#A80036;stroke-width:1.0;stroke-dasharray:2.0,2.0;" x1="1374" x2="1686" y1="377.6797" y2="377.6797"/><text fill="#000000" font-family="sans-serif" font-size="13" font-weight="bold" lengthAdjust="spacing" textLength="7" x="1386" y="372.8232">8</text><text fill="#000000" font-family="sans-serif" font-size="13" lengthAdjust="spacing" textLength="71" x="1397" y="372.8232">List&lt;String&gt;</text><polygon fill="#A80036" points="1112,404.0313,1102,408.0313,1112,412.0313,1108,408.0313" style="stroke:#A80036;stroke-width:1.0;"/><line style="stroke:#A80036;stroke-width:1.0;stroke-dasharray:2.0,2.0;" x1="1106" x2="1368" y1="408.0313" y2="408.0313"/><text fill="#000000" font-family="sans-serif" font-size="13" font-weight="bold" lengthAdjust="spacing" textLength="7" x="1118" y="403.1748">9</text><text fill="#000000" font-family="sans-serif" font-size="13" lengthAdjust="spacing" textLength="71" x="1129" y="403.1748">List&lt;String&gt;</text><polygon fill="#A80036" points="106.5,434.3828,96.5,438.3828,106.5,442.3828,102.5,438.3828" style="stroke:#A80036;stroke-width:1.0;"/><line style="stroke:#A80036;stroke-width:1.0;stroke-dasharray:2.0,2.0;" x1="100.5" x2="1100" y1="438.3828" y2="438.3828"/><text fill="#000000" font-family="sans-serif" font-size="13" font-weight="bold" lengthAdjust="spacing" textLength="14" x="112.5" y="433.5264">10</text><text fill="#000000" font-family="sans-serif" font-size="13" lengthAdjust="spacing" textLength="186" x="130.5" y="433.5264">Delivers the summary document</text><!--MD5=[fcdfac72288af90d906e994301c5ee3d]
@startuml

autonumber

actor ShipChiefElectricalEngineer #red

System - -> ShipChiefElectricalEngineer: Authentication Request
ShipChiefElectricalEngineer -> System : Another authentication Response
System - -> ShipChiefElectricalEngineer : Authentication successful
ShipChiefElectricalEngineer - -> System : Asks for the summary document about materials and thermal resistances about refrigerated containers.
ShipChiefElectricalEngineerUI - -> GetSummaryDocumentMaterialsUI : Connects
GetSummaryDocumentMaterialsUI - -> GetSummaryDocumentMaterialsController : asks for the info
database       "DataBase"              as db
GetSummaryDocumentMaterialsController - -> db** : getSummaryDocumentMaterialsController()
db - -> GetSummaryDocumentMaterialsController : List<String>
GetSummaryDocumentMaterialsController - -> GetSummaryDocumentMaterialsUI : List<String>
GetSummaryDocumentMaterialsUI - -> ShipChiefElectricalEngineer : Delivers the summary document

@enduml

PlantUML version 1.2021.11(Sat Oct 02 14:26:11 BST 2021)
(GPL source distribution)
Java Runtime: OpenJDK Runtime Environment
JVM: OpenJDK 64-Bit Server VM
Default Encoding: Cp1252
Language: pt
Country: PT
--></g></svg>