<?xml version="1.0" encoding="UTF-8" standalone="no"?><svg xmlns="http://www.w3.org/2000/svg" xmlns:xlink="http://www.w3.org/1999/xlink" contentScriptType="application/ecmascript" contentStyleType="text/css" height="572px" preserveAspectRatio="none" style="width:904px;height:572px;background:#FFFFFF;" version="1.1" viewBox="0 0 904 572" width="904px" zoomAndPan="magnify"><defs><filter height="300%" id="f6e8fslo7fbn1" width="300%" x="-1" y="-1"><feGaussianBlur result="blurOut" stdDeviation="2.0"/><feColorMatrix in="blurOut" result="blurOut2" type="matrix" values="0 0 0 0 0 0 0 0 0 0 0 0 0 0 0 0 0 0 .4 0"/><feOffset dx="4.0" dy="4.0" in="blurOut2" result="blurOut3"/><feBlend in="SourceGraphic" in2="blurOut3" mode="normal"/></filter></defs><g><line style="stroke:#A80036;stroke-width:1.0;stroke-dasharray:5.0,5.0;" x1="26" x2="26" y1="89.6094" y2="486.7344"/><line style="stroke:#A80036;stroke-width:1.0;stroke-dasharray:5.0,5.0;" x1="253" x2="253" y1="89.6094" y2="486.7344"/><line style="stroke:#A80036;stroke-width:1.0;stroke-dasharray:5.0,5.0;" x1="402.5" x2="402.5" y1="89.6094" y2="486.7344"/><line style="stroke:#A80036;stroke-width:1.0;stroke-dasharray:5.0,5.0;" x1="618.5" x2="618.5" y1="89.6094" y2="486.7344"/><line style="stroke:#A80036;stroke-width:1.0;stroke-dasharray:5.0,5.0;" x1="869" x2="869" y1="358.875" y2="486.7344"/><text fill="#000000" font-family="sans-serif" font-size="14" lengthAdjust="spacing" textLength="36" x="5" y="86.5332">Client</text><ellipse cx="26" cy="15" fill="#FF0000" filter="url(#f6e8fslo7fbn1)" rx="8" ry="8" style="stroke:#A80036;stroke-width:2.0;"/><path d="M26,23 L26,50 M13,31 L39,31 M26,50 L13,65 M26,50 L39,65 " fill="none" filter="url(#f6e8fslo7fbn1)" style="stroke:#A80036;stroke-width:2.0;"/><text fill="#000000" font-family="sans-serif" font-size="14" lengthAdjust="spacing" textLength="36" x="5" y="500.2676">Client</text><ellipse cx="26" cy="513.3438" fill="#FF0000" filter="url(#f6e8fslo7fbn1)" rx="8" ry="8" style="stroke:#A80036;stroke-width:2.0;"/><path d="M26,521.3438 L26,548.3438 M13,529.3438 L39,529.3438 M26,548.3438 L13,563.3438 M26,548.3438 L39,563.3438 " fill="none" filter="url(#f6e8fslo7fbn1)" style="stroke:#A80036;stroke-width:2.0;"/><rect fill="#FEFECE" filter="url(#f6e8fslo7fbn1)" height="31.6094" style="stroke:#A80036;stroke-width:1.5;" width="60" x="221" y="53"/><text fill="#000000" font-family="sans-serif" font-size="14" lengthAdjust="spacing" textLength="46" x="228" y="74.5332">System</text><rect fill="#FEFECE" filter="url(#f6e8fslo7fbn1)" height="31.6094" style="stroke:#A80036;stroke-width:1.5;" width="60" x="221" y="485.7344"/><text fill="#000000" font-family="sans-serif" font-size="14" lengthAdjust="spacing" textLength="46" x="228" y="507.2676">System</text><rect fill="#FEFECE" filter="url(#f6e8fslo7fbn1)" height="31.6094" style="stroke:#A80036;stroke-width:1.5;" width="141" x="330.5" y="53"/><text fill="#000000" font-family="sans-serif" font-size="14" lengthAdjust="spacing" textLength="127" x="337.5" y="74.5332">RouteOfContainerUI</text><rect fill="#FEFECE" filter="url(#f6e8fslo7fbn1)" height="31.6094" style="stroke:#A80036;stroke-width:1.5;" width="141" x="330.5" y="485.7344"/><text fill="#000000" font-family="sans-serif" font-size="14" lengthAdjust="spacing" textLength="127" x="337.5" y="507.2676">RouteOfContainerUI</text><rect fill="#FEFECE" filter="url(#f6e8fslo7fbn1)" height="31.6094" style="stroke:#A80036;stroke-width:1.5;" width="191" x="521.5" y="53"/><text fill="#000000" font-family="sans-serif" font-size="14" lengthAdjust="spacing" textLength="177" x="528.5" y="74.5332">RouteOfContainerController</text><rect fill="#FEFECE" filter="url(#f6e8fslo7fbn1)" height="31.6094" style="stroke:#A80036;stroke-width:1.5;" width="191" x="521.5" y="485.7344"/><text fill="#000000" font-family="sans-serif" font-size="14" lengthAdjust="spacing" textLength="177" x="528.5" y="507.2676">RouteOfContainerController</text><text fill="#000000" font-family="sans-serif" font-size="14" lengthAdjust="spacing" textLength="62" x="835" y="500.2676">DataBase</text><path d="M851,513.3438 C851,503.3438 869,503.3438 869,503.3438 C869,503.3438 887,503.3438 887,513.3438 L887,539.3438 C887,549.3438 869,549.3438 869,549.3438 C869,549.3438 851,549.3438 851,539.3438 L851,513.3438 " fill="#FEFECE" filter="url(#f6e8fslo7fbn1)" style="stroke:#000000;stroke-width:1.5;"/><path d="M851,513.3438 C851,523.3438 869,523.3438 869,523.3438 C869,523.3438 887,523.3438 887,513.3438 " fill="none" style="stroke:#000000;stroke-width:1.5;"/><polygon fill="#A80036" points="37,117.9609,27,121.9609,37,125.9609,33,121.9609" style="stroke:#A80036;stroke-width:1.0;"/><line style="stroke:#A80036;stroke-width:1.0;stroke-dasharray:2.0,2.0;" x1="31" x2="252" y1="121.9609" y2="121.9609"/><text fill="#000000" font-family="sans-serif" font-size="13" font-weight="bold" lengthAdjust="spacing" textLength="7" x="43" y="117.1045">1</text><text fill="#000000" font-family="sans-serif" font-size="13" lengthAdjust="spacing" textLength="135" x="54" y="117.1045">Authentication Request</text><polygon fill="#A80036" points="241,148.3125,251,152.3125,241,156.3125,245,152.3125" style="stroke:#A80036;stroke-width:1.0;"/><line style="stroke:#A80036;stroke-width:1.0;" x1="26" x2="247" y1="152.3125" y2="152.3125"/><text fill="#000000" font-family="sans-serif" font-size="13" font-weight="bold" lengthAdjust="spacing" textLength="7" x="33" y="147.4561">2</text><text fill="#000000" font-family="sans-serif" font-size="13" lengthAdjust="spacing" textLength="192" x="44" y="147.4561">Another authentication Response</text><polygon fill="#A80036" points="37,178.6641,27,182.6641,37,186.6641,33,182.6641" style="stroke:#A80036;stroke-width:1.0;"/><line style="stroke:#A80036;stroke-width:1.0;stroke-dasharray:2.0,2.0;" x1="31" x2="252" y1="182.6641" y2="182.6641"/><text fill="#000000" font-family="sans-serif" font-size="13" font-weight="bold" lengthAdjust="spacing" textLength="7" x="43" y="177.8076">3</text><text fill="#000000" font-family="sans-serif" font-size="13" lengthAdjust="spacing" textLength="149" x="54" y="177.8076">Authentication successful</text><polygon fill="#A80036" points="391,209.0156,401,213.0156,391,217.0156,395,213.0156" style="stroke:#A80036;stroke-width:1.0;"/><line style="stroke:#A80036;stroke-width:1.0;stroke-dasharray:2.0,2.0;" x1="26" x2="397" y1="213.0156" y2="213.0156"/><text fill="#000000" font-family="sans-serif" font-size="13" font-weight="bold" lengthAdjust="spacing" textLength="7" x="33" y="208.1592">4</text><text fill="#000000" font-family="sans-serif" font-size="13" lengthAdjust="spacing" textLength="342" x="44" y="208.1592">I want to know the route of a specific container I am leasing</text><polygon fill="#A80036" points="37,239.3672,27,243.3672,37,247.3672,33,243.3672" style="stroke:#A80036;stroke-width:1.0;"/><line style="stroke:#A80036;stroke-width:1.0;stroke-dasharray:2.0,2.0;" x1="31" x2="402" y1="243.3672" y2="243.3672"/><text fill="#000000" font-family="sans-serif" font-size="13" font-weight="bold" lengthAdjust="spacing" textLength="7" x="43" y="238.5107">5</text><text fill="#000000" font-family="sans-serif" font-size="13" lengthAdjust="spacing" textLength="129" x="54" y="238.5107">Asks for the Container</text><polygon fill="#A80036" points="391,269.7188,401,273.7188,391,277.7188,395,273.7188" style="stroke:#A80036;stroke-width:1.0;"/><line style="stroke:#A80036;stroke-width:1.0;stroke-dasharray:2.0,2.0;" x1="26" x2="397" y1="273.7188" y2="273.7188"/><text fill="#000000" font-family="sans-serif" font-size="13" font-weight="bold" lengthAdjust="spacing" textLength="7" x="33" y="268.8623">6</text><text fill="#000000" font-family="sans-serif" font-size="13" lengthAdjust="spacing" textLength="135" x="44" y="268.8623">Inserts the wanted data</text><polygon fill="#A80036" points="607,300.0703,617,304.0703,607,308.0703,611,304.0703" style="stroke:#A80036;stroke-width:1.0;"/><line style="stroke:#A80036;stroke-width:1.0;stroke-dasharray:2.0,2.0;" x1="403" x2="613" y1="304.0703" y2="304.0703"/><text fill="#000000" font-family="sans-serif" font-size="13" font-weight="bold" lengthAdjust="spacing" textLength="7" x="410" y="299.2139">7</text><text fill="#000000" font-family="sans-serif" font-size="13" lengthAdjust="spacing" textLength="181" x="421" y="299.2139">getRouteOfContainer(container)</text><polygon fill="#A80036" points="823,330.4219,833,334.4219,823,338.4219,827,334.4219" style="stroke:#A80036;stroke-width:1.0;"/><line style="stroke:#A80036;stroke-width:1.0;stroke-dasharray:2.0,2.0;" x1="619" x2="829" y1="334.4219" y2="334.4219"/><text fill="#000000" font-family="sans-serif" font-size="13" font-weight="bold" lengthAdjust="spacing" textLength="7" x="626" y="329.5654">8</text><text fill="#000000" font-family="sans-serif" font-size="13" lengthAdjust="spacing" textLength="181" x="637" y="329.5654">getRouteOfContainer(container)</text><text fill="#000000" font-family="sans-serif" font-size="14" lengthAdjust="spacing" textLength="62" x="835" y="372.6035">DataBase</text><path d="M851,322.0703 C851,312.0703 869,312.0703 869,312.0703 C869,312.0703 887,312.0703 887,322.0703 L887,348.0703 C887,358.0703 869,358.0703 869,358.0703 C869,358.0703 851,358.0703 851,348.0703 L851,322.0703 " fill="#FEFECE" filter="url(#f6e8fslo7fbn1)" style="stroke:#000000;stroke-width:1.5;"/><path d="M851,322.0703 C851,332.0703 869,332.0703 869,332.0703 C869,332.0703 887,332.0703 887,322.0703 " fill="none" style="stroke:#000000;stroke-width:1.5;"/><polygon fill="#A80036" points="630,404.0313,620,408.0313,630,412.0313,626,408.0313" style="stroke:#A80036;stroke-width:1.0;"/><line style="stroke:#A80036;stroke-width:1.0;stroke-dasharray:2.0,2.0;" x1="624" x2="868" y1="408.0313" y2="408.0313"/><text fill="#000000" font-family="sans-serif" font-size="13" font-weight="bold" lengthAdjust="spacing" textLength="7" x="636" y="403.1748">9</text><text fill="#000000" font-family="sans-serif" font-size="13" lengthAdjust="spacing" textLength="70" x="647" y="403.1748">wanted data</text><polygon fill="#A80036" points="414,434.3828,404,438.3828,414,442.3828,410,438.3828" style="stroke:#A80036;stroke-width:1.0;"/><line style="stroke:#A80036;stroke-width:1.0;stroke-dasharray:2.0,2.0;" x1="408" x2="618" y1="438.3828" y2="438.3828"/><text fill="#000000" font-family="sans-serif" font-size="13" font-weight="bold" lengthAdjust="spacing" textLength="14" x="420" y="433.5264">10</text><text fill="#000000" font-family="sans-serif" font-size="13" lengthAdjust="spacing" textLength="70" x="438" y="433.5264">wanted data</text><polygon fill="#A80036" points="37,464.7344,27,468.7344,37,472.7344,33,468.7344" style="stroke:#A80036;stroke-width:1.0;"/><line style="stroke:#A80036;stroke-width:1.0;stroke-dasharray:2.0,2.0;" x1="31" x2="402" y1="468.7344" y2="468.7344"/><text fill="#000000" font-family="sans-serif" font-size="13" font-weight="bold" lengthAdjust="spacing" textLength="14" x="43" y="463.8779">11</text><text fill="#000000" font-family="sans-serif" font-size="13" lengthAdjust="spacing" textLength="146" x="61" y="463.8779">Displays the wanted data</text><!--MD5=[07fd24ca9dc1c31a51307e2f9d6d84f5]
@startuml
'https://plantuml.com/sequence-diagram

autonumber

actor Client #red

System - -> Client: Authentication Request
Client -> System : Another authentication Response
System - -> Client : Authentication successful
Client - -> RouteOfContainerUI : I want to know the route of a specific container I am leasing
RouteOfContainerUI - -> Client : Asks for the Container
Client - -> RouteOfContainerUI : Inserts the wanted data
RouteOfContainerUI - -> RouteOfContainerController : getRouteOfContainer(container)
database       "DataBase"              as db
RouteOfContainerController - -> db** :  getRouteOfContainer(container)
db - -> RouteOfContainerController : wanted data
RouteOfContainerController - -> RouteOfContainerUI : wanted data
RouteOfContainerUI - -> Client : Displays the wanted data


@enduml

@startuml

autonumber

actor Client #red

System - -> Client: Authentication Request
Client -> System : Another authentication Response
System - -> Client : Authentication successful
Client - -> RouteOfContainerUI : I want to know the route of a specific container I am leasing
RouteOfContainerUI - -> Client : Asks for the Container
Client - -> RouteOfContainerUI : Inserts the wanted data
RouteOfContainerUI - -> RouteOfContainerController : getRouteOfContainer(container)
database       "DataBase"              as db
RouteOfContainerController - -> db** :  getRouteOfContainer(container)
db - -> RouteOfContainerController : wanted data
RouteOfContainerController - -> RouteOfContainerUI : wanted data
RouteOfContainerUI - -> Client : Displays the wanted data


@enduml

PlantUML version 1.2021.11(Sat Oct 02 14:26:11 BST 2021)
(GPL source distribution)
Java Runtime: OpenJDK Runtime Environment
JVM: OpenJDK 64-Bit Server VM
Default Encoding: Cp1252
Language: pt
Country: PT
--></g></svg>