<?xml version="1.0" encoding="UTF-8" standalone="no"?><svg xmlns="http://www.w3.org/2000/svg" xmlns:xlink="http://www.w3.org/1999/xlink" contentScriptType="application/ecmascript" contentStyleType="text/css" height="670px" preserveAspectRatio="none" style="width:418px;height:670px;background:#FFFFFF;" version="1.1" viewBox="0 0 418 670" width="418px" zoomAndPan="magnify"><defs><filter height="300%" id="fq02lyhummltx" width="300%" x="-1" y="-1"><feGaussianBlur result="blurOut" stdDeviation="2.0"/><feColorMatrix in="blurOut" result="blurOut2" type="matrix" values="0 0 0 0 0 0 0 0 0 0 0 0 0 0 0 0 0 0 .4 0"/><feOffset dx="4.0" dy="4.0" in="blurOut2" result="blurOut3"/><feBlend in="SourceGraphic" in2="blurOut3" mode="normal"/></filter></defs><g><!--MD5=[ed6624c6556d5e7b1bd23032162d20b7]
class Client--><rect codeLine="3" fill="#FEFECE" filter="url(#fq02lyhummltx)" height="48" id="Client" style="stroke:#A80036;stroke-width:1.5;" width="64" x="225" y="7"/><ellipse cx="240" cy="23" fill="#ADD1B2" rx="11" ry="11" style="stroke:#A80036;stroke-width:1.0;"/><path d="M242,19.5 Q242.2031,19 242.4375,18.75 Q242.6719,18.5 242.9375,18.5 Q243.4063,18.5 243.7031,18.7813 Q244,19.0625 244,19.7188 L244,21.2813 Q244,21.9375 243.7188,22.2188 Q243.4375,22.5 243,22.5 Q242.6094,22.5 242.3594,22.3281 Q242.1094,22.1563 242,21.7031 Q241.9531,21.3906 241.7813,21.2188 Q241.4688,20.8906 240.9063,20.7031 Q240.3438,20.5 239.7813,20.5 Q239.0781,20.5 238.4844,20.7813 Q237.9063,21.0625 237.4531,21.6875 Q237,22.3125 237,23.1719 L237,24.0938 Q237,25.125 237.8438,25.8125 Q238.6875,26.5 240.1875,26.5 Q241.0781,26.5 241.7031,26.2969 Q242.0625,26.1875 242.4688,25.8281 Q242.7344,25.625 242.875,25.5625 Q243.0156,25.5 243.1875,25.5 Q243.5156,25.5 243.75,25.7656 Q244,26.0156 244,26.375 Q244,26.7188 243.6563,27.125 Q243.1563,27.7188 242.3594,28.0469 Q241.3125,28.5 240.0313,28.5 Q238.5313,28.5 237.3281,27.9063 Q236.3594,27.4375 235.6719,26.4219 Q235,25.4063 235,24.2031 L235,23.1094 Q235,21.8594 235.5938,20.7656 Q236.2031,19.6719 237.25,19.0938 Q238.3125,18.5 239.5,18.5 Q240.2188,18.5 240.8438,18.75 Q241.4688,19 242,19.5 Z " fill="#000000"/><text fill="#000000" font-family="sans-serif" font-size="12" lengthAdjust="spacing" textLength="32" x="254" y="27.9102">Client</text><line style="stroke:#A80036;stroke-width:1.5;" x1="226" x2="288" y1="39" y2="39"/><line style="stroke:#A80036;stroke-width:1.5;" x1="226" x2="288" y1="47" y2="47"/><!--MD5=[3fd616f346a44cd59a91eb10b19e157c]
class User--><rect codeLine="7" fill="#FEFECE" filter="url(#fq02lyhummltx)" height="48" id="User" style="stroke:#A80036;stroke-width:1.5;" width="59" x="332.5" y="154"/><ellipse cx="347.5" cy="170" fill="#ADD1B2" rx="11" ry="11" style="stroke:#A80036;stroke-width:1.0;"/><path d="M349.5,166.5 Q349.7031,166 349.9375,165.75 Q350.1719,165.5 350.4375,165.5 Q350.9063,165.5 351.2031,165.7813 Q351.5,166.0625 351.5,166.7188 L351.5,168.2813 Q351.5,168.9375 351.2188,169.2188 Q350.9375,169.5 350.5,169.5 Q350.1094,169.5 349.8594,169.3281 Q349.6094,169.1563 349.5,168.7031 Q349.4531,168.3906 349.2813,168.2188 Q348.9688,167.8906 348.4063,167.7031 Q347.8438,167.5 347.2813,167.5 Q346.5781,167.5 345.9844,167.7813 Q345.4063,168.0625 344.9531,168.6875 Q344.5,169.3125 344.5,170.1719 L344.5,171.0938 Q344.5,172.125 345.3438,172.8125 Q346.1875,173.5 347.6875,173.5 Q348.5781,173.5 349.2031,173.2969 Q349.5625,173.1875 349.9688,172.8281 Q350.2344,172.625 350.375,172.5625 Q350.5156,172.5 350.6875,172.5 Q351.0156,172.5 351.25,172.7656 Q351.5,173.0156 351.5,173.375 Q351.5,173.7188 351.1563,174.125 Q350.6563,174.7188 349.8594,175.0469 Q348.8125,175.5 347.5313,175.5 Q346.0313,175.5 344.8281,174.9063 Q343.8594,174.4375 343.1719,173.4219 Q342.5,172.4063 342.5,171.2031 L342.5,170.1094 Q342.5,168.8594 343.0938,167.7656 Q343.7031,166.6719 344.75,166.0938 Q345.8125,165.5 347,165.5 Q347.7188,165.5 348.3438,165.75 Q348.9688,166 349.5,166.5 Z " fill="#000000"/><text fill="#000000" font-family="sans-serif" font-size="12" lengthAdjust="spacing" textLength="27" x="361.5" y="174.9102">User</text><line style="stroke:#A80036;stroke-width:1.5;" x1="333.5" x2="390.5" y1="186" y2="186"/><line style="stroke:#A80036;stroke-width:1.5;" x1="333.5" x2="390.5" y1="194" y2="194"/><!--MD5=[45d42ff7800d812d5f83c7d3273eb427]
class UserRole--><rect codeLine="11" fill="#FEFECE" filter="url(#fq02lyhummltx)" height="48" id="UserRole" style="stroke:#A80036;stroke-width:1.5;" width="85" x="319.5" y="328.5"/><ellipse cx="334.5" cy="344.5" fill="#ADD1B2" rx="11" ry="11" style="stroke:#A80036;stroke-width:1.0;"/><path d="M336.5,341 Q336.7031,340.5 336.9375,340.25 Q337.1719,340 337.4375,340 Q337.9063,340 338.2031,340.2813 Q338.5,340.5625 338.5,341.2188 L338.5,342.7813 Q338.5,343.4375 338.2188,343.7188 Q337.9375,344 337.5,344 Q337.1094,344 336.8594,343.8281 Q336.6094,343.6563 336.5,343.2031 Q336.4531,342.8906 336.2813,342.7188 Q335.9688,342.3906 335.4063,342.2031 Q334.8438,342 334.2813,342 Q333.5781,342 332.9844,342.2813 Q332.4063,342.5625 331.9531,343.1875 Q331.5,343.8125 331.5,344.6719 L331.5,345.5938 Q331.5,346.625 332.3438,347.3125 Q333.1875,348 334.6875,348 Q335.5781,348 336.2031,347.7969 Q336.5625,347.6875 336.9688,347.3281 Q337.2344,347.125 337.375,347.0625 Q337.5156,347 337.6875,347 Q338.0156,347 338.25,347.2656 Q338.5,347.5156 338.5,347.875 Q338.5,348.2188 338.1563,348.625 Q337.6563,349.2188 336.8594,349.5469 Q335.8125,350 334.5313,350 Q333.0313,350 331.8281,349.4063 Q330.8594,348.9375 330.1719,347.9219 Q329.5,346.9063 329.5,345.7031 L329.5,344.6094 Q329.5,343.3594 330.0938,342.2656 Q330.7031,341.1719 331.75,340.5938 Q332.8125,340 334,340 Q334.7188,340 335.3438,340.25 Q335.9688,340.5 336.5,341 Z " fill="#000000"/><text fill="#000000" font-family="sans-serif" font-size="12" lengthAdjust="spacing" textLength="53" x="348.5" y="349.4102">UserRole</text><line style="stroke:#A80036;stroke-width:1.5;" x1="320.5" x2="403.5" y1="360.5" y2="360.5"/><line style="stroke:#A80036;stroke-width:1.5;" x1="320.5" x2="403.5" y1="368.5" y2="368.5"/><!--MD5=[02e4b9b7573f1156f41e60aa5b4e25a4]
class Company--><rect codeLine="15" fill="#FEFECE" filter="url(#fq02lyhummltx)" height="48" id="Company" style="stroke:#A80036;stroke-width:1.5;" width="85" x="98.5" y="482"/><ellipse cx="113.5" cy="498" fill="#ADD1B2" rx="11" ry="11" style="stroke:#A80036;stroke-width:1.0;"/><path d="M115.5,494.5 Q115.7031,494 115.9375,493.75 Q116.1719,493.5 116.4375,493.5 Q116.9063,493.5 117.2031,493.7813 Q117.5,494.0625 117.5,494.7188 L117.5,496.2813 Q117.5,496.9375 117.2188,497.2188 Q116.9375,497.5 116.5,497.5 Q116.1094,497.5 115.8594,497.3281 Q115.6094,497.1563 115.5,496.7031 Q115.4531,496.3906 115.2813,496.2188 Q114.9688,495.8906 114.4063,495.7031 Q113.8438,495.5 113.2813,495.5 Q112.5781,495.5 111.9844,495.7813 Q111.4063,496.0625 110.9531,496.6875 Q110.5,497.3125 110.5,498.1719 L110.5,499.0938 Q110.5,500.125 111.3438,500.8125 Q112.1875,501.5 113.6875,501.5 Q114.5781,501.5 115.2031,501.2969 Q115.5625,501.1875 115.9688,500.8281 Q116.2344,500.625 116.375,500.5625 Q116.5156,500.5 116.6875,500.5 Q117.0156,500.5 117.25,500.7656 Q117.5,501.0156 117.5,501.375 Q117.5,501.7188 117.1563,502.125 Q116.6563,502.7188 115.8594,503.0469 Q114.8125,503.5 113.5313,503.5 Q112.0313,503.5 110.8281,502.9063 Q109.8594,502.4375 109.1719,501.4219 Q108.5,500.4063 108.5,499.2031 L108.5,498.1094 Q108.5,496.8594 109.0938,495.7656 Q109.7031,494.6719 110.75,494.0938 Q111.8125,493.5 113,493.5 Q113.7188,493.5 114.3438,493.75 Q114.9688,494 115.5,494.5 Z " fill="#000000"/><text fill="#000000" font-family="sans-serif" font-size="12" lengthAdjust="spacing" textLength="53" x="127.5" y="502.9102">Company</text><line style="stroke:#A80036;stroke-width:1.5;" x1="99.5" x2="182.5" y1="514" y2="514"/><line style="stroke:#A80036;stroke-width:1.5;" x1="99.5" x2="182.5" y1="522" y2="522"/><!--MD5=[a7f59980d172bff981d587cfd3d813d6]
class RouteOfContainerUI--><rect codeLine="19" fill="#FEFECE" filter="url(#fq02lyhummltx)" height="89.5078" id="RouteOfContainerUI" style="stroke:#A80036;stroke-width:1.5;" width="290" x="7" y="133"/><ellipse cx="92.25" cy="149" fill="#ADD1B2" rx="11" ry="11" style="stroke:#A80036;stroke-width:1.0;"/><path d="M94.25,145.5 Q94.4531,145 94.6875,144.75 Q94.9219,144.5 95.1875,144.5 Q95.6563,144.5 95.9531,144.7813 Q96.25,145.0625 96.25,145.7188 L96.25,147.2813 Q96.25,147.9375 95.9688,148.2188 Q95.6875,148.5 95.25,148.5 Q94.8594,148.5 94.6094,148.3281 Q94.3594,148.1563 94.25,147.7031 Q94.2031,147.3906 94.0313,147.2188 Q93.7188,146.8906 93.1563,146.7031 Q92.5938,146.5 92.0313,146.5 Q91.3281,146.5 90.7344,146.7813 Q90.1563,147.0625 89.7031,147.6875 Q89.25,148.3125 89.25,149.1719 L89.25,150.0938 Q89.25,151.125 90.0938,151.8125 Q90.9375,152.5 92.4375,152.5 Q93.3281,152.5 93.9531,152.2969 Q94.3125,152.1875 94.7188,151.8281 Q94.9844,151.625 95.125,151.5625 Q95.2656,151.5 95.4375,151.5 Q95.7656,151.5 96,151.7656 Q96.25,152.0156 96.25,152.375 Q96.25,152.7188 95.9063,153.125 Q95.4063,153.7188 94.6094,154.0469 Q93.5625,154.5 92.2813,154.5 Q90.7813,154.5 89.5781,153.9063 Q88.6094,153.4375 87.9219,152.4219 Q87.25,151.4063 87.25,150.2031 L87.25,149.1094 Q87.25,147.8594 87.8438,146.7656 Q88.4531,145.6719 89.5,145.0938 Q90.5625,144.5 91.75,144.5 Q92.4688,144.5 93.0938,144.75 Q93.7188,145 94.25,145.5 Z " fill="#000000"/><text fill="#000000" font-family="sans-serif" font-size="12" lengthAdjust="spacing" textLength="111" x="112.75" y="153.9102">RouteOfContainerUI</text><line style="stroke:#A80036;stroke-width:1.5;" x1="8" x2="296" y1="165" y2="165"/><rect fill="none" height="6" style="stroke:#C82930;stroke-width:1.0;" width="6" x="15" y="173"/><text fill="#000000" font-family="sans-serif" font-size="11" lengthAdjust="spacing" textLength="264" x="27" y="180.4189">RouteOfContainerController routeOfContainerController</text><line style="stroke:#A80036;stroke-width:1.5;" x1="8" x2="296" y1="186.8359" y2="186.8359"/><ellipse cx="18" cy="197.8359" fill="#84BE84" rx="3" ry="3" style="stroke:#038048;stroke-width:1.0;"/><text fill="#000000" font-family="sans-serif" font-size="11" lengthAdjust="spacing" textLength="103" x="27" y="202.2549">RouteOfContainerUI()</text><ellipse cx="18" cy="211.6719" fill="#84BE84" rx="3" ry="3" style="stroke:#038048;stroke-width:1.0;"/><text fill="#000000" font-family="sans-serif" font-size="11" lengthAdjust="spacing" textLength="24" x="27" y="216.0908">run()</text><!--MD5=[081c329cbcbabc4995d1413cb67002c2]
class RouteOfContainerController--><rect codeLine="25" fill="#FEFECE" filter="url(#fq02lyhummltx)" height="103.3438" id="RouteOfContainerController" style="stroke:#A80036;stroke-width:1.5;" width="258" x="12" y="301"/><ellipse cx="60.25" cy="317" fill="#ADD1B2" rx="11" ry="11" style="stroke:#A80036;stroke-width:1.0;"/><path d="M62.25,313.5 Q62.4531,313 62.6875,312.75 Q62.9219,312.5 63.1875,312.5 Q63.6563,312.5 63.9531,312.7813 Q64.25,313.0625 64.25,313.7188 L64.25,315.2813 Q64.25,315.9375 63.9688,316.2188 Q63.6875,316.5 63.25,316.5 Q62.8594,316.5 62.6094,316.3281 Q62.3594,316.1563 62.25,315.7031 Q62.2031,315.3906 62.0313,315.2188 Q61.7188,314.8906 61.1563,314.7031 Q60.5938,314.5 60.0313,314.5 Q59.3281,314.5 58.7344,314.7813 Q58.1563,315.0625 57.7031,315.6875 Q57.25,316.3125 57.25,317.1719 L57.25,318.0938 Q57.25,319.125 58.0938,319.8125 Q58.9375,320.5 60.4375,320.5 Q61.3281,320.5 61.9531,320.2969 Q62.3125,320.1875 62.7188,319.8281 Q62.9844,319.625 63.125,319.5625 Q63.2656,319.5 63.4375,319.5 Q63.7656,319.5 64,319.7656 Q64.25,320.0156 64.25,320.375 Q64.25,320.7188 63.9063,321.125 Q63.4063,321.7188 62.6094,322.0469 Q61.5625,322.5 60.2813,322.5 Q58.7813,322.5 57.5781,321.9063 Q56.6094,321.4375 55.9219,320.4219 Q55.25,319.4063 55.25,318.2031 L55.25,317.1094 Q55.25,315.8594 55.8438,314.7656 Q56.4531,313.6719 57.5,313.0938 Q58.5625,312.5 59.75,312.5 Q60.4688,312.5 61.0938,312.75 Q61.7188,313 62.25,313.5 Z " fill="#000000"/><text fill="#000000" font-family="sans-serif" font-size="12" lengthAdjust="spacing" textLength="153" x="80.75" y="321.9102">RouteOfContainerController</text><line style="stroke:#A80036;stroke-width:1.5;" x1="13" x2="269" y1="333" y2="333"/><rect fill="none" height="6" style="stroke:#C82930;stroke-width:1.0;" width="6" x="20" y="341"/><text fill="#000000" font-family="sans-serif" font-size="11" lengthAdjust="spacing" textLength="92" x="32" y="348.4189">Company company</text><line style="stroke:#A80036;stroke-width:1.5;" x1="13" x2="269" y1="354.8359" y2="354.8359"/><ellipse cx="23" cy="365.8359" fill="#84BE84" rx="3" ry="3" style="stroke:#038048;stroke-width:1.0;"/><text fill="#000000" font-family="sans-serif" font-size="11" lengthAdjust="spacing" textLength="140" x="32" y="370.2549">RouteOfContainerController()</text><ellipse cx="23" cy="379.6719" fill="#84BE84" rx="3" ry="3" style="stroke:#038048;stroke-width:1.0;"/><text fill="#000000" font-family="sans-serif" font-size="11" lengthAdjust="spacing" textLength="232" x="32" y="384.0908">RouteOfContainerController(Company company)</text><ellipse cx="23" cy="393.5078" fill="#84BE84" rx="3" ry="3" style="stroke:#038048;stroke-width:1.0;"/><text fill="#000000" font-family="sans-serif" font-size="11" lengthAdjust="spacing" textLength="68" x="32" y="397.9268">getCompany()</text><!--MD5=[837d3612090b426002fd1342fcbe6b88]
class DataBase--><rect fill="#FEFECE" filter="url(#fq02lyhummltx)" height="48" id="DataBase" style="stroke:#A80036;stroke-width:1.5;" width="87" x="97.5" y="608"/><ellipse cx="112.5" cy="624" fill="#ADD1B2" rx="11" ry="11" style="stroke:#A80036;stroke-width:1.0;"/><path d="M114.5,620.5 Q114.7031,620 114.9375,619.75 Q115.1719,619.5 115.4375,619.5 Q115.9063,619.5 116.2031,619.7813 Q116.5,620.0625 116.5,620.7188 L116.5,622.2813 Q116.5,622.9375 116.2188,623.2188 Q115.9375,623.5 115.5,623.5 Q115.1094,623.5 114.8594,623.3281 Q114.6094,623.1563 114.5,622.7031 Q114.4531,622.3906 114.2813,622.2188 Q113.9688,621.8906 113.4063,621.7031 Q112.8438,621.5 112.2813,621.5 Q111.5781,621.5 110.9844,621.7813 Q110.4063,622.0625 109.9531,622.6875 Q109.5,623.3125 109.5,624.1719 L109.5,625.0938 Q109.5,626.125 110.3438,626.8125 Q111.1875,627.5 112.6875,627.5 Q113.5781,627.5 114.2031,627.2969 Q114.5625,627.1875 114.9688,626.8281 Q115.2344,626.625 115.375,626.5625 Q115.5156,626.5 115.6875,626.5 Q116.0156,626.5 116.25,626.7656 Q116.5,627.0156 116.5,627.375 Q116.5,627.7188 116.1563,628.125 Q115.6563,628.7188 114.8594,629.0469 Q113.8125,629.5 112.5313,629.5 Q111.0313,629.5 109.8281,628.9063 Q108.8594,628.4375 108.1719,627.4219 Q107.5,626.4063 107.5,625.2031 L107.5,624.1094 Q107.5,622.8594 108.0938,621.7656 Q108.7031,620.6719 109.75,620.0938 Q110.8125,619.5 112,619.5 Q112.7188,619.5 113.3438,619.75 Q113.9688,620 114.5,620.5 Z " fill="#000000"/><text fill="#000000" font-family="sans-serif" font-size="12" lengthAdjust="spacing" textLength="55" x="126.5" y="628.9102">DataBase</text><line style="stroke:#A80036;stroke-width:1.5;" x1="98.5" x2="183.5" y1="640" y2="640"/><line style="stroke:#A80036;stroke-width:1.5;" x1="98.5" x2="183.5" y1="648" y2="648"/><!--MD5=[e045e7e00d2e49d478c05e359c0f8855]
link Client to RouteOfContainerUI--><path codeLine="32" d="M240.13,55.3 C225.83,75.05 204.84,104.03 186.94,128.75 " fill="none" id="Client-to-RouteOfContainerUI" style="stroke:#A80036;stroke-width:1.0;"/><polygon fill="#A80036" points="183.87,133,192.3809,128.0437,186.7964,128.9459,185.8942,123.3614,183.87,133" style="stroke:#A80036;stroke-width:1.0;"/><text fill="#000000" font-family="sans-serif" font-size="13" lengthAdjust="spacing" textLength="44" x="218" y="99.4951">Access</text><!--MD5=[98f6f2bf3d9407e8844cbc0679c2e338]
link RouteOfContainerUI to RouteOfContainerController--><path codeLine="33" d="M94.88,223.01 C86.79,232 79.65,242.08 75,253 C68.64,267.93 72.46,283.01 80.79,296.73 " fill="none" id="RouteOfContainerUI-to-RouteOfContainerController" style="stroke:#A80036;stroke-width:1.0;"/><polygon fill="#A80036" points="83.51,300.94,81.9845,291.21,80.7961,296.7406,75.2655,295.5522,83.51,300.94" style="stroke:#A80036;stroke-width:1.0;"/><text fill="#000000" font-family="sans-serif" font-size="13" lengthAdjust="spacing" textLength="82" x="76" y="267.4951">Connects with</text><!--MD5=[3d1d32d4e169c75cd070d50d02b30679]
reverse link RouteOfContainerUI to RouteOfContainerController--><path codeLine="36" d="M162.47,228.08 C164.18,241.96 164.87,257.08 163,271 C161.69,280.76 159.52,291.02 157.05,300.82 " fill="none" id="RouteOfContainerUI-backto-RouteOfContainerController" style="stroke:#A80036;stroke-width:1.0;"/><polygon fill="#A80036" points="161.79,223.02,159.0074,232.4676,162.4471,227.9766,166.938,231.4163,161.79,223.02" style="stroke:#A80036;stroke-width:1.0;"/><text fill="#000000" font-family="sans-serif" font-size="13" lengthAdjust="spacing" textLength="69" x="166" y="267.4951">Returns Info</text><!--MD5=[9a8dc34b38f85b9f3fcdb440f4bffc6a]
link Client to User--><path codeLine="34" d="M273.87,55.3 C292.47,80.98 322.36,122.27 342.1,149.51 " fill="none" id="Client-to-User" style="stroke:#A80036;stroke-width:1.0;"/><polygon fill="#A80036" points="345.17,153.76,343.1235,144.1261,342.2342,149.7126,336.6477,148.8233,345.17,153.76" style="stroke:#A80036;stroke-width:1.0;"/><text fill="#000000" font-family="sans-serif" font-size="13" lengthAdjust="spacing" textLength="21" x="308" y="99.4951">is a</text><!--MD5=[1f12d177c84922ed4f166f09ee62ceaa]
link User to UserRole--><path codeLine="35" d="M362,202.26 C362,233.6 362,289.33 362,323.11 " fill="none" id="User-to-UserRole" style="stroke:#A80036;stroke-width:1.0;"/><polygon fill="#A80036" points="362,328.33,366,319.33,362,323.33,358,319.33,362,328.33" style="stroke:#A80036;stroke-width:1.0;"/><text fill="#000000" font-family="sans-serif" font-size="13" lengthAdjust="spacing" textLength="21" x="363" y="267.4951">has</text><!--MD5=[f7d1d49406899f5b03de5ea1361b5ecd]
link RouteOfContainerController to Company--><path codeLine="37" d="M91.98,404.03 C85.44,413.36 79.71,423.5 76,434 C69.94,451.14 80.77,466.53 95.22,478.57 " fill="none" id="RouteOfContainerController-to-Company" style="stroke:#A80036;stroke-width:1.0;"/><polygon fill="#A80036" points="99.39,481.87,94.8376,473.1364,95.4773,478.757,89.8567,479.3967,99.39,481.87" style="stroke:#A80036;stroke-width:1.0;"/><text fill="#000000" font-family="sans-serif" font-size="13" lengthAdjust="spacing" textLength="82" x="77" y="448.4951">Connects with</text><!--MD5=[d40da0408aebccc380f91dcde75ba6f6]
link Company to RouteOfContainerController--><path codeLine="38" d="M153.45,481.94 C157.69,472.88 161.88,462.21 164,452 C166.89,438.06 165.65,423.08 162.6,409.11 " fill="none" id="Company-to-RouteOfContainerController" style="stroke:#A80036;stroke-width:1.0;"/><polygon fill="#A80036" points="161.4,404.01,159.5614,413.6857,162.542,408.8778,167.3499,411.8585,161.4,404.01" style="stroke:#A80036;stroke-width:1.0;"/><text fill="#000000" font-family="sans-serif" font-size="13" lengthAdjust="spacing" textLength="69" x="167" y="448.4951">Returns Info</text><!--MD5=[28fa5ca211853e28b35503d2b875b2be]
link Company to DataBase--><path codeLine="39" d="M141,530.03 C141,550.52 141,580.56 141,602.55 " fill="none" id="Company-to-DataBase" style="stroke:#A80036;stroke-width:1.0;"/><polygon fill="#A80036" points="141,607.67,145,598.67,141,602.67,137,598.67,141,607.67" style="stroke:#A80036;stroke-width:1.0;"/><text fill="#000000" font-family="sans-serif" font-size="13" lengthAdjust="spacing" textLength="55" x="142" y="574.4951">Connects</text><!--MD5=[0a015626a9564a2b160f4d05e4085c01]
@startuml
'https://plantuml.com/class-diagram

class Client{

}

class User{

}

class UserRole{

}

class Company{

}

class RouteOfContainerUI{
    -RouteOfContainerController routeOfContainerController
    +RouteOfContainerUI()
    +run()
}

class RouteOfContainerController{
    -Company company
    +RouteOfContainerController()
    +RouteOfContainerController(Company company)
    +getCompany()
}

Client - -> RouteOfContainerUI : Access
RouteOfContainerUI -down-> RouteOfContainerController : Connects with
Client - -> User : is a
User - -> UserRole : has
RouteOfContainerController -up-> RouteOfContainerUI : Returns Info
RouteOfContainerController - -> Company : Connects with
Company - -> RouteOfContainerController : Returns Info
Company - -> DataBase : Connects

@enduml

@startuml

class Client{

}

class User{

}

class UserRole{

}

class Company{

}

class RouteOfContainerUI{
    -RouteOfContainerController routeOfContainerController
    +RouteOfContainerUI()
    +run()
}

class RouteOfContainerController{
    -Company company
    +RouteOfContainerController()
    +RouteOfContainerController(Company company)
    +getCompany()
}

Client - -> RouteOfContainerUI : Access
RouteOfContainerUI -down-> RouteOfContainerController : Connects with
Client - -> User : is a
User - -> UserRole : has
RouteOfContainerController -up-> RouteOfContainerUI : Returns Info
RouteOfContainerController - -> Company : Connects with
Company - -> RouteOfContainerController : Returns Info
Company - -> DataBase : Connects

@enduml

PlantUML version 1.2021.11(Sat Oct 02 14:26:11 BST 2021)
(GPL source distribution)
Java Runtime: OpenJDK Runtime Environment
JVM: OpenJDK 64-Bit Server VM
Default Encoding: Cp1252
Language: pt
Country: PT
--></g></svg>