<?xml version="1.0" encoding="UTF-8" standalone="no"?><svg xmlns="http://www.w3.org/2000/svg" xmlns:xlink="http://www.w3.org/1999/xlink" contentScriptType="application/ecmascript" contentStyleType="text/css" height="387px" preserveAspectRatio="none" style="width:618px;height:387px;background:#FFFFFF;" version="1.1" viewBox="0 0 618 387" width="618px" zoomAndPan="magnify"><defs><filter height="300%" id="f9yz815vpshyg" width="300%" x="-1" y="-1"><feGaussianBlur result="blurOut" stdDeviation="2.0"/><feColorMatrix in="blurOut" result="blurOut2" type="matrix" values="0 0 0 0 0 0 0 0 0 0 0 0 0 0 0 0 0 0 .4 0"/><feOffset dx="4.0" dy="4.0" in="blurOut2" result="blurOut3"/><feBlend in="SourceGraphic" in2="blurOut3" mode="normal"/></filter></defs><g><!--MD5=[c6ddddda358f072e4f19aa798de5fbe9]
entity TM--><ellipse cx="298.5" cy="157" fill="#FEFECE" filter="url(#f9yz815vpshyg)" rx="8" ry="8" style="stroke:#A80036;stroke-width:1.5;"/><path d="M298.5,165 L298.5,192 M285.5,173 L311.5,173 M298.5,192 L285.5,207 M298.5,192 L311.5,207 " fill="none" filter="url(#f9yz815vpshyg)" style="stroke:#A80036;stroke-width:1.5;"/><text fill="#000000" font-family="sans-serif" font-size="14" lengthAdjust="spacing" textLength="100" x="248.5" y="227.0332">Traffic Manager</text><ellipse cx="88.3351" cy="332.867" fill="#FEFECE" filter="url(#f9yz815vpshyg)" rx="82.3351" ry="18.867" style="stroke:#A80036;stroke-width:1.5;"/><text fill="#000000" font-family="sans-serif" font-size="14" lengthAdjust="spacing" textLength="120" x="28.3351" y="336.5955">Use the application</text><ellipse cx="416.6985" cy="188.9517" fill="#FEFECE" filter="url(#f9yz815vpshyg)" rx="32.6985" ry="15.4517" style="stroke:#A80036;stroke-width:1.5;"/><text fill="#000000" font-family="sans-serif" font-size="14" lengthAdjust="spacing" textLength="30" x="401.6985" y="192.6802">Start</text><ellipse cx="406.4824" cy="332.8965" fill="#FEFECE" filter="url(#f9yz815vpshyg)" rx="199.9824" ry="42.3965" style="stroke:#A80036;stroke-width:1.5;"/><text fill="#000000" font-family="sans-serif" font-size="14" lengthAdjust="spacing" textLength="372" x="220.4824" y="336.625">See the n ports with greater centrality in the freight network</text><!--MD5=[97ab183161fd5d1db7fba7485cf76add]
entity Admin--><ellipse cx="88.5" cy="14" fill="#FEFECE" filter="url(#f9yz815vpshyg)" rx="8" ry="8" style="stroke:#A80036;stroke-width:1.5;"/><path d="M88.5,22 L88.5,49 M75.5,30 L101.5,30 M88.5,49 L75.5,64 M88.5,49 L101.5,64 " fill="none" filter="url(#f9yz815vpshyg)" style="stroke:#A80036;stroke-width:1.5;"/><text fill="#000000" font-family="sans-serif" font-size="14" lengthAdjust="spacing" textLength="39" x="69" y="84.0332">Admin</text><ellipse cx="218.7256" cy="45.9451" fill="#FEFECE" filter="url(#f9yz815vpshyg)" rx="75.2256" ry="17.4451" style="stroke:#A80036;stroke-width:1.5;"/><text fill="#000000" font-family="sans-serif" font-size="14" lengthAdjust="spacing" textLength="102" x="164.7256" y="50.4617">Regist new Staff</text><!--MD5=[4ed5c9ed286af3dad982c9d63704cd86]
link TM to Start--><path d="M348.74,189 C358.73,189 368.73,189 378.72,189 " fill="none" id="TM-to-Start" style="stroke:#A80036;stroke-width:1.0;"/><polygon fill="#A80036" points="383.94,189,374.94,185,378.94,189,374.94,193,383.94,189" style="stroke:#A80036;stroke-width:1.0;"/><!--MD5=[e96b729b963beef67941650a20dbe6bb]
link TM to Use--><path d="M248.47,223.83 C207.95,251.23 152.22,288.91 118.37,311.8 " fill="none" id="TM-to-Use" style="stroke:#A80036;stroke-width:1.0;"/><polygon fill="#A80036" points="113.94,314.8,123.6337,313.0589,118.0781,311.9935,119.1434,306.4379,113.94,314.8" style="stroke:#A80036;stroke-width:1.0;"/><!--MD5=[08e11ab5eaa7774010e9c42ee5388c1b]
link TM to See the n ports with greater centrality in the freight network--><path d="M329.45,230.69 C342.78,248.22 358.41,268.77 372.1,286.77 " fill="none" id="TM-to-See the n ports with greater centrality in the freight network" style="stroke:#A80036;stroke-width:1.0;"/><polygon fill="#A80036" points="375.17,290.81,372.9098,281.224,372.1449,286.8289,366.54,286.0641,375.17,290.81" style="stroke:#A80036;stroke-width:1.0;"/><!--MD5=[eedd4bf29063d6184eb2b121c1f53f26]
link Admin to Use--><path d="M88.5,87.53 C88.5,148.18 88.5,260.56 88.5,308.91 " fill="none" id="Admin-to-Use" style="stroke:#A80036;stroke-width:1.0;"/><polygon fill="#A80036" points="88.5,313.93,92.5,304.93,88.5,308.93,84.5,304.93,88.5,313.93" style="stroke:#A80036;stroke-width:1.0;"/><!--MD5=[e7a0d0f4fa0cf58bcb7420c86b20f03c]
link Admin to Regist new Staff--><path d="M108.05,46 C118.09,46 128.14,46 138.18,46 " fill="none" id="Admin-to-Regist new Staff" style="stroke:#A80036;stroke-width:1.0;"/><polygon fill="#A80036" points="143.43,46,134.43,42,138.43,46,134.43,50,143.43,46" style="stroke:#A80036;stroke-width:1.0;"/><!--MD5=[9ed0fef97d595283c06cecaf5059f342]
@startuml
'https://plantuml.com/use-case-diagram

:Traffic Manager: as TM
(Use the application) as (Use)

TM -> (Start)
TM - -> (Use)
TM - -> (See the n ports with greater centrality in the freight network)

Admin - - -> (Use)
Admin -> (Regist new Staff)

@enduml

@startuml

:Traffic Manager: as TM
(Use the application) as (Use)

TM -> (Start)
TM - -> (Use)
TM - -> (See the n ports with greater centrality in the freight network)

Admin - - -> (Use)
Admin -> (Regist new Staff)

@enduml

PlantUML version 1.2021.16(Wed Dec 08 17:25:22 GMT 2021)
(GPL source distribution)
Java Runtime: OpenJDK Runtime Environment
JVM: OpenJDK 64-Bit Server VM
Default Encoding: Cp1252
Language: pt
Country: PT
--></g></svg>