<?xml version="1.0" encoding="UTF-8" standalone="no"?><svg xmlns="http://www.w3.org/2000/svg" xmlns:xlink="http://www.w3.org/1999/xlink" contentScriptType="application/ecmascript" contentStyleType="text/css" height="498px" preserveAspectRatio="none" style="width:1111px;height:498px;background:#FFFFFF;" version="1.1" viewBox="0 0 1111 498" width="1111px" zoomAndPan="magnify"><defs><filter height="300%" id="fbdhumnzwgclb" width="300%" x="-1" y="-1"><feGaussianBlur result="blurOut" stdDeviation="2.0"/><feColorMatrix in="blurOut" result="blurOut2" type="matrix" values="0 0 0 0 0 0 0 0 0 0 0 0 0 0 0 0 0 0 .4 0"/><feOffset dx="4.0" dy="4.0" in="blurOut2" result="blurOut3"/><feBlend in="SourceGraphic" in2="blurOut3" mode="normal"/></filter></defs><g><rect fill="#FFFFFF" filter="url(#fbdhumnzwgclb)" height="30.3516" style="stroke:#A80036;stroke-width:1.0;" width="10" x="502" y="121.9609"/><rect fill="#FFFFFF" filter="url(#fbdhumnzwgclb)" height="221.4609" style="stroke:#A80036;stroke-width:1.0;" width="10" x="502" y="182.6641"/><rect fill="#FFFFFF" filter="url(#fbdhumnzwgclb)" height="151.7578" style="stroke:#A80036;stroke-width:1.0;" width="10" x="695" y="213.0156"/><rect fill="#FFFFFF" filter="url(#fbdhumnzwgclb)" height="91.0547" style="stroke:#A80036;stroke-width:1.0;" width="10" x="853" y="243.3672"/><rect fill="#FFFFFF" filter="url(#fbdhumnzwgclb)" height="30.3516" style="stroke:#A80036;stroke-width:1.0;" width="10" x="1033" y="273.7188"/><line style="stroke:#A80036;stroke-width:1.0;stroke-dasharray:5.0,5.0;" x1="56" x2="56" y1="89.6094" y2="413.125"/><line style="stroke:#A80036;stroke-width:1.0;stroke-dasharray:5.0,5.0;" x1="507" x2="507" y1="89.6094" y2="413.125"/><line style="stroke:#A80036;stroke-width:1.0;stroke-dasharray:5.0,5.0;" x1="700" x2="700" y1="89.6094" y2="413.125"/><line style="stroke:#A80036;stroke-width:1.0;stroke-dasharray:5.0,5.0;" x1="858" x2="858" y1="89.6094" y2="413.125"/><line style="stroke:#A80036;stroke-width:1.0;stroke-dasharray:5.0,5.0;" x1="1037.5" x2="1037.5" y1="89.6094" y2="413.125"/><text fill="#000000" font-family="sans-serif" font-size="14" lengthAdjust="spacing" textLength="96" x="5" y="86.5332">TrafficManager</text><ellipse cx="56" cy="15" fill="#FEFECE" filter="url(#fbdhumnzwgclb)" rx="8" ry="8" style="stroke:#A80036;stroke-width:2.0;"/><path d="M56,23 L56,50 M43,31 L69,31 M56,50 L43,65 M56,50 L69,65 " fill="none" filter="url(#fbdhumnzwgclb)" style="stroke:#A80036;stroke-width:2.0;"/><text fill="#000000" font-family="sans-serif" font-size="14" lengthAdjust="spacing" textLength="96" x="5" y="426.6582">TrafficManager</text><ellipse cx="56" cy="439.7344" fill="#FEFECE" filter="url(#fbdhumnzwgclb)" rx="8" ry="8" style="stroke:#A80036;stroke-width:2.0;"/><path d="M56,447.7344 L56,474.7344 M43,455.7344 L69,455.7344 M56,474.7344 L43,489.7344 M56,474.7344 L69,489.7344 " fill="none" filter="url(#fbdhumnzwgclb)" style="stroke:#A80036;stroke-width:2.0;"/><rect fill="#FEFECE" filter="url(#fbdhumnzwgclb)" height="31.6094" style="stroke:#A80036;stroke-width:1.5;" width="154" x="428" y="53"/><text fill="#000000" font-family="sans-serif" font-size="14" lengthAdjust="spacing" textLength="140" x="435" y="74.5332">:ListNCentralityPortsUI</text><rect fill="#FEFECE" filter="url(#fbdhumnzwgclb)" height="31.6094" style="stroke:#A80036;stroke-width:1.5;" width="154" x="428" y="412.125"/><text fill="#000000" font-family="sans-serif" font-size="14" lengthAdjust="spacing" textLength="140" x="435" y="433.6582">:ListNCentralityPortsUI</text><rect fill="#FEFECE" filter="url(#fbdhumnzwgclb)" height="31.6094" style="stroke:#A80036;stroke-width:1.5;" width="204" x="596" y="53"/><text fill="#000000" font-family="sans-serif" font-size="14" lengthAdjust="spacing" textLength="190" x="603" y="74.5332">:ListNCentralityPortsController</text><rect fill="#FEFECE" filter="url(#fbdhumnzwgclb)" height="31.6094" style="stroke:#A80036;stroke-width:1.5;" width="204" x="596" y="412.125"/><text fill="#000000" font-family="sans-serif" font-size="14" lengthAdjust="spacing" textLength="190" x="603" y="433.6582">:ListNCentralityPortsController</text><rect fill="#FEFECE" filter="url(#fbdhumnzwgclb)" height="31.6094" style="stroke:#A80036;stroke-width:1.5;" width="78" x="817" y="53"/><text fill="#000000" font-family="sans-serif" font-size="14" lengthAdjust="spacing" textLength="64" x="824" y="74.5332">:Company</text><rect fill="#FEFECE" filter="url(#fbdhumnzwgclb)" height="31.6094" style="stroke:#A80036;stroke-width:1.5;" width="78" x="817" y="412.125"/><text fill="#000000" font-family="sans-serif" font-size="14" lengthAdjust="spacing" textLength="64" x="824" y="433.6582">:Company</text><rect fill="#FEFECE" filter="url(#fbdhumnzwgclb)" height="31.6094" style="stroke:#A80036;stroke-width:1.5;" width="123" x="974.5" y="53"/><text fill="#000000" font-family="sans-serif" font-size="14" lengthAdjust="spacing" textLength="109" x="981.5" y="74.5332">:GraphGenerator</text><rect fill="#FEFECE" filter="url(#fbdhumnzwgclb)" height="31.6094" style="stroke:#A80036;stroke-width:1.5;" width="123" x="974.5" y="412.125"/><text fill="#000000" font-family="sans-serif" font-size="14" lengthAdjust="spacing" textLength="109" x="981.5" y="433.6582">:GraphGenerator</text><rect fill="#FFFFFF" filter="url(#fbdhumnzwgclb)" height="30.3516" style="stroke:#A80036;stroke-width:1.0;" width="10" x="502" y="121.9609"/><rect fill="#FFFFFF" filter="url(#fbdhumnzwgclb)" height="221.4609" style="stroke:#A80036;stroke-width:1.0;" width="10" x="502" y="182.6641"/><rect fill="#FFFFFF" filter="url(#fbdhumnzwgclb)" height="151.7578" style="stroke:#A80036;stroke-width:1.0;" width="10" x="695" y="213.0156"/><rect fill="#FFFFFF" filter="url(#fbdhumnzwgclb)" height="91.0547" style="stroke:#A80036;stroke-width:1.0;" width="10" x="853" y="243.3672"/><rect fill="#FFFFFF" filter="url(#fbdhumnzwgclb)" height="30.3516" style="stroke:#A80036;stroke-width:1.0;" width="10" x="1033" y="273.7188"/><polygon fill="#A80036" points="490,117.9609,500,121.9609,490,125.9609,494,121.9609" style="stroke:#A80036;stroke-width:1.0;"/><line style="stroke:#A80036;stroke-width:1.0;" x1="56" x2="496" y1="121.9609" y2="121.9609"/><text fill="#000000" font-family="sans-serif" font-size="13" font-weight="bold" lengthAdjust="spacing" textLength="7" x="63" y="117.1045">1</text><text fill="#000000" font-family="sans-serif" font-size="13" lengthAdjust="spacing" textLength="416" x="74" y="117.1045">I want to know the n ports with greater centrality from the freight network</text><polygon fill="#A80036" points="67,148.3125,57,152.3125,67,156.3125,63,152.3125" style="stroke:#A80036;stroke-width:1.0;"/><line style="stroke:#A80036;stroke-width:1.0;stroke-dasharray:2.0,2.0;" x1="61" x2="506" y1="152.3125" y2="152.3125"/><text fill="#000000" font-family="sans-serif" font-size="13" font-weight="bold" lengthAdjust="spacing" textLength="7" x="73" y="147.4561">2</text><text fill="#000000" font-family="sans-serif" font-size="13" lengthAdjust="spacing" textLength="178" x="84" y="147.4561">Please insert the value of the n</text><polygon fill="#A80036" points="490,178.6641,500,182.6641,490,186.6641,494,182.6641" style="stroke:#A80036;stroke-width:1.0;"/><line style="stroke:#A80036;stroke-width:1.0;" x1="56" x2="496" y1="182.6641" y2="182.6641"/><text fill="#000000" font-family="sans-serif" font-size="13" font-weight="bold" lengthAdjust="spacing" textLength="7" x="63" y="177.8076">3</text><text fill="#000000" font-family="sans-serif" font-size="13" lengthAdjust="spacing" textLength="119" x="74" y="177.8076">Inserts the value of n</text><polygon fill="#A80036" points="683,209.0156,693,213.0156,683,217.0156,687,213.0156" style="stroke:#A80036;stroke-width:1.0;"/><line style="stroke:#A80036;stroke-width:1.0;" x1="512" x2="689" y1="213.0156" y2="213.0156"/><text fill="#000000" font-family="sans-serif" font-size="13" font-weight="bold" lengthAdjust="spacing" textLength="7" x="519" y="208.1592">4</text><text fill="#000000" font-family="sans-serif" font-size="13" lengthAdjust="spacing" textLength="91" x="530" y="208.1592">getNPorts(int n)</text><polygon fill="#A80036" points="841,239.3672,851,243.3672,841,247.3672,845,243.3672" style="stroke:#A80036;stroke-width:1.0;"/><line style="stroke:#A80036;stroke-width:1.0;" x1="705" x2="847" y1="243.3672" y2="243.3672"/><text fill="#000000" font-family="sans-serif" font-size="13" font-weight="bold" lengthAdjust="spacing" textLength="7" x="712" y="238.5107">5</text><text fill="#000000" font-family="sans-serif" font-size="13" lengthAdjust="spacing" textLength="118" x="723" y="238.5107">getGraphGenerator()</text><polygon fill="#A80036" points="1021,269.7188,1031,273.7188,1021,277.7188,1025,273.7188" style="stroke:#A80036;stroke-width:1.0;"/><line style="stroke:#A80036;stroke-width:1.0;" x1="863" x2="1027" y1="273.7188" y2="273.7188"/><text fill="#000000" font-family="sans-serif" font-size="13" font-weight="bold" lengthAdjust="spacing" textLength="7" x="870" y="268.8623">6</text><text fill="#000000" font-family="sans-serif" font-size="13" lengthAdjust="spacing" textLength="140" x="881" y="268.8623">listOfNPortsCentrality(n)</text><polygon fill="#A80036" points="874,300.0703,864,304.0703,874,308.0703,870,304.0703" style="stroke:#A80036;stroke-width:1.0;"/><line style="stroke:#A80036;stroke-width:1.0;" x1="868" x2="1037" y1="304.0703" y2="304.0703"/><text fill="#000000" font-family="sans-serif" font-size="13" font-weight="bold" lengthAdjust="spacing" textLength="7" x="880" y="299.2139">7</text><text fill="#000000" font-family="sans-serif" font-size="13" lengthAdjust="spacing" textLength="68" x="891" y="299.2139">listOfNports</text><polygon fill="#A80036" points="716,330.4219,706,334.4219,716,338.4219,712,334.4219" style="stroke:#A80036;stroke-width:1.0;"/><line style="stroke:#A80036;stroke-width:1.0;" x1="710" x2="857" y1="334.4219" y2="334.4219"/><text fill="#000000" font-family="sans-serif" font-size="13" font-weight="bold" lengthAdjust="spacing" textLength="7" x="722" y="329.5654">8</text><text fill="#000000" font-family="sans-serif" font-size="13" lengthAdjust="spacing" textLength="68" x="733" y="329.5654">listOfNports</text><polygon fill="#A80036" points="523,360.7734,513,364.7734,523,368.7734,519,364.7734" style="stroke:#A80036;stroke-width:1.0;"/><line style="stroke:#A80036;stroke-width:1.0;" x1="517" x2="699" y1="364.7734" y2="364.7734"/><text fill="#000000" font-family="sans-serif" font-size="13" font-weight="bold" lengthAdjust="spacing" textLength="7" x="529" y="359.917">9</text><text fill="#000000" font-family="sans-serif" font-size="13" lengthAdjust="spacing" textLength="68" x="540" y="359.917">listOfNports</text><polygon fill="#A80036" points="67,391.125,57,395.125,67,399.125,63,395.125" style="stroke:#A80036;stroke-width:1.0;"/><line style="stroke:#A80036;stroke-width:1.0;" x1="61" x2="501" y1="395.125" y2="395.125"/><text fill="#000000" font-family="sans-serif" font-size="13" font-weight="bold" lengthAdjust="spacing" textLength="14" x="73" y="390.2686">10</text><text fill="#000000" font-family="sans-serif" font-size="13" lengthAdjust="spacing" textLength="240" x="91" y="390.2686">return list of n ports with greater centrality</text><!--MD5=[d1bea062c54ef8797e1965fd2b3f74ce]
@startuml

autonumber

actor       TrafficManager             as TM
participant    ":ListNCentralityPortsUI"         as UI
participant    ":ListNCentralityPortsController" as CTRL
participant    ":Company"              as Company
participant    ":GraphGenerator"              as GG


TM -> UI : I want to know the n ports with greater centrality from the freight network
activate UI
UI - -> TM : Please insert the value of the n
deactivate UI

TM -> UI : Inserts the value of n
activate UI

UI -> CTRL : getNPorts(int n)
activate CTRL

CTRL -> Company : getGraphGenerator()
activate Company

Company -> GG : listOfNPortsCentrality(n)
activate GG

GG -> Company : listOfNports
deactivate GG

Company -> CTRL : listOfNports
deactivate Company

CTRL -> UI : listOfNports
deactivate CTRL

UI -> TM : return list of n ports with greater centrality

@enduml

PlantUML version 1.2021.16(Wed Dec 08 17:25:22 GMT 2021)
(GPL source distribution)
Java Runtime: OpenJDK Runtime Environment
JVM: OpenJDK 64-Bit Server VM
Default Encoding: Cp1252
Language: pt
Country: PT
--></g></svg>