<?xml version="1.0" encoding="UTF-8" standalone="no"?><svg xmlns="http://www.w3.org/2000/svg" xmlns:xlink="http://www.w3.org/1999/xlink" contentScriptType="application/ecmascript" contentStyleType="text/css" height="683px" preserveAspectRatio="none" style="width:403px;height:683px;background:#FFFFFF;" version="1.1" viewBox="0 0 403 683" width="403px" zoomAndPan="magnify"><defs><filter height="300%" id="f15m8gk1r0l8d5" width="300%" x="-1" y="-1"><feGaussianBlur result="blurOut" stdDeviation="2.0"/><feColorMatrix in="blurOut" result="blurOut2" type="matrix" values="0 0 0 0 0 0 0 0 0 0 0 0 0 0 0 0 0 0 .4 0"/><feOffset dx="4.0" dy="4.0" in="blurOut2" result="blurOut3"/><feBlend in="SourceGraphic" in2="blurOut3" mode="normal"/></filter></defs><g><!--MD5=[4a4be67e9f0cb57c34989a64583ea874]
class GraphGenerator--><rect codeLine="2" fill="#FEFECE" filter="url(#f15m8gk1r0l8d5)" height="89.5078" id="GraphGenerator" style="stroke:#A80036;stroke-width:1.5;" width="212" x="118.5" y="580"/><ellipse cx="175.75" cy="596" fill="#ADD1B2" rx="11" ry="11" style="stroke:#A80036;stroke-width:1.0;"/><path d="M177.75,592.5 Q177.9531,592 178.1875,591.75 Q178.4219,591.5 178.6875,591.5 Q179.1563,591.5 179.4531,591.7813 Q179.75,592.0625 179.75,592.7188 L179.75,594.2813 Q179.75,594.9375 179.4688,595.2188 Q179.1875,595.5 178.75,595.5 Q178.3594,595.5 178.1094,595.3281 Q177.8594,595.1563 177.75,594.7031 Q177.7031,594.3906 177.5313,594.2188 Q177.2188,593.8906 176.6563,593.7031 Q176.0938,593.5 175.5313,593.5 Q174.8281,593.5 174.2344,593.7813 Q173.6563,594.0625 173.2031,594.6875 Q172.75,595.3125 172.75,596.1719 L172.75,597.0938 Q172.75,598.125 173.5938,598.8125 Q174.4375,599.5 175.9375,599.5 Q176.8281,599.5 177.4531,599.2969 Q177.8125,599.1875 178.2188,598.8281 Q178.4844,598.625 178.625,598.5625 Q178.7656,598.5 178.9375,598.5 Q179.2656,598.5 179.5,598.7656 Q179.75,599.0156 179.75,599.375 Q179.75,599.7188 179.4063,600.125 Q178.9063,600.7188 178.1094,601.0469 Q177.0625,601.5 175.7813,601.5 Q174.2813,601.5 173.0781,600.9063 Q172.1094,600.4375 171.4219,599.4219 Q170.75,598.4063 170.75,597.2031 L170.75,596.1094 Q170.75,594.8594 171.3438,593.7656 Q171.9531,592.6719 173,592.0938 Q174.0625,591.5 175.25,591.5 Q175.9688,591.5 176.5938,591.75 Q177.2188,592 177.75,592.5 Z " fill="#000000"/><text fill="#000000" font-family="sans-serif" font-size="12" lengthAdjust="spacing" textLength="89" x="196.25" y="600.9102">GraphGenerator</text><line style="stroke:#A80036;stroke-width:1.5;" x1="119.5" x2="329.5" y1="612" y2="612"/><rect fill="none" height="6" style="stroke:#C82930;stroke-width:1.0;" width="6" x="126.5" y="620"/><text fill="#000000" font-family="sans-serif" font-size="11" lengthAdjust="spacing" textLength="186" x="138.5" y="627.4189">Graph&lt;PortAndCapital, Double&gt; graph;</text><line style="stroke:#A80036;stroke-width:1.5;" x1="119.5" x2="329.5" y1="633.8359" y2="633.8359"/><ellipse cx="129.5" cy="644.8359" fill="#84BE84" rx="3" ry="3" style="stroke:#038048;stroke-width:1.0;"/><text fill="#000000" font-family="sans-serif" font-size="11" lengthAdjust="spacing" textLength="77" x="138.5" y="649.2549">getCentralitys();</text><ellipse cx="129.5" cy="658.6719" fill="#84BE84" rx="3" ry="3" style="stroke:#038048;stroke-width:1.0;"/><text fill="#000000" font-family="sans-serif" font-size="11" lengthAdjust="spacing" textLength="133" x="138.5" y="663.0908">listOfNPortsCentrality(int n);</text><!--MD5=[02e4b9b7573f1156f41e60aa5b4e25a4]
class Company--><rect codeLine="8" fill="#FEFECE" filter="url(#f15m8gk1r0l8d5)" height="117.1797" id="Company" style="stroke:#A80036;stroke-width:1.5;" width="330" x="59.5" y="385"/><ellipse cx="193.75" cy="401" fill="#ADD1B2" rx="11" ry="11" style="stroke:#A80036;stroke-width:1.0;"/><path d="M195.75,397.5 Q195.9531,397 196.1875,396.75 Q196.4219,396.5 196.6875,396.5 Q197.1563,396.5 197.4531,396.7813 Q197.75,397.0625 197.75,397.7188 L197.75,399.2813 Q197.75,399.9375 197.4688,400.2188 Q197.1875,400.5 196.75,400.5 Q196.3594,400.5 196.1094,400.3281 Q195.8594,400.1563 195.75,399.7031 Q195.7031,399.3906 195.5313,399.2188 Q195.2188,398.8906 194.6563,398.7031 Q194.0938,398.5 193.5313,398.5 Q192.8281,398.5 192.2344,398.7813 Q191.6563,399.0625 191.2031,399.6875 Q190.75,400.3125 190.75,401.1719 L190.75,402.0938 Q190.75,403.125 191.5938,403.8125 Q192.4375,404.5 193.9375,404.5 Q194.8281,404.5 195.4531,404.2969 Q195.8125,404.1875 196.2188,403.8281 Q196.4844,403.625 196.625,403.5625 Q196.7656,403.5 196.9375,403.5 Q197.2656,403.5 197.5,403.7656 Q197.75,404.0156 197.75,404.375 Q197.75,404.7188 197.4063,405.125 Q196.9063,405.7188 196.1094,406.0469 Q195.0625,406.5 193.7813,406.5 Q192.2813,406.5 191.0781,405.9063 Q190.1094,405.4375 189.4219,404.4219 Q188.75,403.4063 188.75,402.2031 L188.75,401.1094 Q188.75,399.8594 189.3438,398.7656 Q189.9531,397.6719 191,397.0938 Q192.0625,396.5 193.25,396.5 Q193.9688,396.5 194.5938,396.75 Q195.2188,397 195.75,397.5 Z " fill="#000000"/><text fill="#000000" font-family="sans-serif" font-size="12" lengthAdjust="spacing" textLength="53" x="214.25" y="405.9102">Company</text><line style="stroke:#A80036;stroke-width:1.5;" x1="60.5" x2="388.5" y1="417" y2="417"/><rect fill="none" height="6" style="stroke:#C82930;stroke-width:1.0;" width="6" x="67.5" y="425"/><text fill="#000000" font-family="sans-serif" font-size="11" lengthAdjust="spacing" textLength="121" x="79.5" y="432.4189">TreeOfPorts treeOfPorts;</text><rect fill="none" height="6" style="stroke:#C82930;stroke-width:1.0;" width="6" x="67.5" y="438.8359"/><text fill="#000000" font-family="sans-serif" font-size="11" lengthAdjust="spacing" textLength="127" x="79.5" y="446.2549">List&lt;Country&gt; countryList;</text><rect fill="none" height="6" style="stroke:#C82930;stroke-width:1.0;" width="6" x="67.5" y="452.6719"/><text fill="#000000" font-family="sans-serif" font-size="11" lengthAdjust="spacing" textLength="162" x="79.5" y="460.0908">GraphGenerator graphGenerator;</text><line style="stroke:#A80036;stroke-width:1.5;" x1="60.5" x2="388.5" y1="466.5078" y2="466.5078"/><ellipse cx="70.5" cy="477.5078" fill="#84BE84" rx="3" ry="3" style="stroke:#038048;stroke-width:1.0;"/><text fill="#000000" font-family="sans-serif" font-size="11" lengthAdjust="spacing" textLength="304" x="79.5" y="481.9268">generateGraph(File countries, File borders, File seaDists, int n);</text><ellipse cx="70.5" cy="491.3438" fill="#84BE84" rx="3" ry="3" style="stroke:#038048;stroke-width:1.0;"/><text fill="#000000" font-family="sans-serif" font-size="11" lengthAdjust="spacing" textLength="105" x="79.5" y="495.7627">getGraphGenerator();</text><!--MD5=[3fd616f346a44cd59a91eb10b19e157c]
class User--><rect codeLine="16" fill="#FEFECE" filter="url(#f15m8gk1r0l8d5)" height="48" id="User" style="stroke:#A80036;stroke-width:1.5;" width="59" x="37" y="133"/><ellipse cx="52" cy="149" fill="#ADD1B2" rx="11" ry="11" style="stroke:#A80036;stroke-width:1.0;"/><path d="M54,145.5 Q54.2031,145 54.4375,144.75 Q54.6719,144.5 54.9375,144.5 Q55.4063,144.5 55.7031,144.7813 Q56,145.0625 56,145.7188 L56,147.2813 Q56,147.9375 55.7188,148.2188 Q55.4375,148.5 55,148.5 Q54.6094,148.5 54.3594,148.3281 Q54.1094,148.1563 54,147.7031 Q53.9531,147.3906 53.7813,147.2188 Q53.4688,146.8906 52.9063,146.7031 Q52.3438,146.5 51.7813,146.5 Q51.0781,146.5 50.4844,146.7813 Q49.9063,147.0625 49.4531,147.6875 Q49,148.3125 49,149.1719 L49,150.0938 Q49,151.125 49.8438,151.8125 Q50.6875,152.5 52.1875,152.5 Q53.0781,152.5 53.7031,152.2969 Q54.0625,152.1875 54.4688,151.8281 Q54.7344,151.625 54.875,151.5625 Q55.0156,151.5 55.1875,151.5 Q55.5156,151.5 55.75,151.7656 Q56,152.0156 56,152.375 Q56,152.7188 55.6563,153.125 Q55.1563,153.7188 54.3594,154.0469 Q53.3125,154.5 52.0313,154.5 Q50.5313,154.5 49.3281,153.9063 Q48.3594,153.4375 47.6719,152.4219 Q47,151.4063 47,150.2031 L47,149.1094 Q47,147.8594 47.5938,146.7656 Q48.2031,145.6719 49.25,145.0938 Q50.3125,144.5 51.5,144.5 Q52.2188,144.5 52.8438,144.75 Q53.4688,145 54,145.5 Z " fill="#000000"/><text fill="#000000" font-family="sans-serif" font-size="12" lengthAdjust="spacing" textLength="27" x="66" y="153.9102">User</text><line style="stroke:#A80036;stroke-width:1.5;" x1="38" x2="95" y1="165" y2="165"/><line style="stroke:#A80036;stroke-width:1.5;" x1="38" x2="95" y1="173" y2="173"/><!--MD5=[45d42ff7800d812d5f83c7d3273eb427]
class UserRole--><rect codeLine="18" fill="#FEFECE" filter="url(#f15m8gk1r0l8d5)" height="48" id="UserRole" style="stroke:#A80036;stroke-width:1.5;" width="85" x="7" y="259"/><ellipse cx="22" cy="275" fill="#ADD1B2" rx="11" ry="11" style="stroke:#A80036;stroke-width:1.0;"/><path d="M24,271.5 Q24.2031,271 24.4375,270.75 Q24.6719,270.5 24.9375,270.5 Q25.4063,270.5 25.7031,270.7813 Q26,271.0625 26,271.7188 L26,273.2813 Q26,273.9375 25.7188,274.2188 Q25.4375,274.5 25,274.5 Q24.6094,274.5 24.3594,274.3281 Q24.1094,274.1563 24,273.7031 Q23.9531,273.3906 23.7813,273.2188 Q23.4688,272.8906 22.9063,272.7031 Q22.3438,272.5 21.7813,272.5 Q21.0781,272.5 20.4844,272.7813 Q19.9063,273.0625 19.4531,273.6875 Q19,274.3125 19,275.1719 L19,276.0938 Q19,277.125 19.8438,277.8125 Q20.6875,278.5 22.1875,278.5 Q23.0781,278.5 23.7031,278.2969 Q24.0625,278.1875 24.4688,277.8281 Q24.7344,277.625 24.875,277.5625 Q25.0156,277.5 25.1875,277.5 Q25.5156,277.5 25.75,277.7656 Q26,278.0156 26,278.375 Q26,278.7188 25.6563,279.125 Q25.1563,279.7188 24.3594,280.0469 Q23.3125,280.5 22.0313,280.5 Q20.5313,280.5 19.3281,279.9063 Q18.3594,279.4375 17.6719,278.4219 Q17,277.4063 17,276.2031 L17,275.1094 Q17,273.8594 17.5938,272.7656 Q18.2031,271.6719 19.25,271.0938 Q20.3125,270.5 21.5,270.5 Q22.2188,270.5 22.8438,270.75 Q23.4688,271 24,271.5 Z " fill="#000000"/><text fill="#000000" font-family="sans-serif" font-size="12" lengthAdjust="spacing" textLength="53" x="36" y="279.9102">UserRole</text><line style="stroke:#A80036;stroke-width:1.5;" x1="8" x2="91" y1="291" y2="291"/><line style="stroke:#A80036;stroke-width:1.5;" x1="8" x2="91" y1="299" y2="299"/><!--MD5=[f9f226db646901faff0f09626832c566]
class ListNCentralityPortsUI--><rect codeLine="20" fill="#FEFECE" filter="url(#f15m8gk1r0l8d5)" height="48" id="ListNCentralityPortsUI" style="stroke:#A80036;stroke-width:1.5;" width="153" x="139" y="133"/><ellipse cx="154" cy="149" fill="#ADD1B2" rx="11" ry="11" style="stroke:#A80036;stroke-width:1.0;"/><path d="M156,145.5 Q156.2031,145 156.4375,144.75 Q156.6719,144.5 156.9375,144.5 Q157.4063,144.5 157.7031,144.7813 Q158,145.0625 158,145.7188 L158,147.2813 Q158,147.9375 157.7188,148.2188 Q157.4375,148.5 157,148.5 Q156.6094,148.5 156.3594,148.3281 Q156.1094,148.1563 156,147.7031 Q155.9531,147.3906 155.7813,147.2188 Q155.4688,146.8906 154.9063,146.7031 Q154.3438,146.5 153.7813,146.5 Q153.0781,146.5 152.4844,146.7813 Q151.9063,147.0625 151.4531,147.6875 Q151,148.3125 151,149.1719 L151,150.0938 Q151,151.125 151.8438,151.8125 Q152.6875,152.5 154.1875,152.5 Q155.0781,152.5 155.7031,152.2969 Q156.0625,152.1875 156.4688,151.8281 Q156.7344,151.625 156.875,151.5625 Q157.0156,151.5 157.1875,151.5 Q157.5156,151.5 157.75,151.7656 Q158,152.0156 158,152.375 Q158,152.7188 157.6563,153.125 Q157.1563,153.7188 156.3594,154.0469 Q155.3125,154.5 154.0313,154.5 Q152.5313,154.5 151.3281,153.9063 Q150.3594,153.4375 149.6719,152.4219 Q149,151.4063 149,150.2031 L149,149.1094 Q149,147.8594 149.5938,146.7656 Q150.2031,145.6719 151.25,145.0938 Q152.3125,144.5 153.5,144.5 Q154.2188,144.5 154.8438,144.75 Q155.4688,145 156,145.5 Z " fill="#000000"/><text fill="#000000" font-family="sans-serif" font-size="12" lengthAdjust="spacing" textLength="121" x="168" y="153.9102">ListNCentralityPortsUI</text><line style="stroke:#A80036;stroke-width:1.5;" x1="140" x2="291" y1="165" y2="165"/><line style="stroke:#A80036;stroke-width:1.5;" x1="140" x2="291" y1="173" y2="173"/><!--MD5=[ddaf6f62b0bc30921877ec9fb9463c9f]
class TrafficManager--><rect codeLine="22" fill="#FEFECE" filter="url(#f15m8gk1r0l8d5)" height="48" id="TrafficManager" style="stroke:#A80036;stroke-width:1.5;" width="113" x="80" y="7"/><ellipse cx="95" cy="23" fill="#ADD1B2" rx="11" ry="11" style="stroke:#A80036;stroke-width:1.0;"/><path d="M97,19.5 Q97.2031,19 97.4375,18.75 Q97.6719,18.5 97.9375,18.5 Q98.4063,18.5 98.7031,18.7813 Q99,19.0625 99,19.7188 L99,21.2813 Q99,21.9375 98.7188,22.2188 Q98.4375,22.5 98,22.5 Q97.6094,22.5 97.3594,22.3281 Q97.1094,22.1563 97,21.7031 Q96.9531,21.3906 96.7813,21.2188 Q96.4688,20.8906 95.9063,20.7031 Q95.3438,20.5 94.7813,20.5 Q94.0781,20.5 93.4844,20.7813 Q92.9063,21.0625 92.4531,21.6875 Q92,22.3125 92,23.1719 L92,24.0938 Q92,25.125 92.8438,25.8125 Q93.6875,26.5 95.1875,26.5 Q96.0781,26.5 96.7031,26.2969 Q97.0625,26.1875 97.4688,25.8281 Q97.7344,25.625 97.875,25.5625 Q98.0156,25.5 98.1875,25.5 Q98.5156,25.5 98.75,25.7656 Q99,26.0156 99,26.375 Q99,26.7188 98.6563,27.125 Q98.1563,27.7188 97.3594,28.0469 Q96.3125,28.5 95.0313,28.5 Q93.5313,28.5 92.3281,27.9063 Q91.3594,27.4375 90.6719,26.4219 Q90,25.4063 90,24.2031 L90,23.1094 Q90,21.8594 90.5938,20.7656 Q91.2031,19.6719 92.25,19.0938 Q93.3125,18.5 94.5,18.5 Q95.2188,18.5 95.8438,18.75 Q96.4688,19 97,19.5 Z " fill="#000000"/><text fill="#000000" font-family="sans-serif" font-size="12" lengthAdjust="spacing" textLength="81" x="109" y="27.9102">TrafficManager</text><line style="stroke:#A80036;stroke-width:1.5;" x1="81" x2="192" y1="39" y2="39"/><line style="stroke:#A80036;stroke-width:1.5;" x1="81" x2="192" y1="47" y2="47"/><!--MD5=[04325aa3aeb6c9c99ee724e710d5594a]
class ListNCentralityPortsController--><rect codeLine="24" fill="#FEFECE" filter="url(#f15m8gk1r0l8d5)" height="48" id="ListNCentralityPortsController" style="stroke:#A80036;stroke-width:1.5;" width="195" x="127" y="259"/><ellipse cx="142" cy="275" fill="#ADD1B2" rx="11" ry="11" style="stroke:#A80036;stroke-width:1.0;"/><path d="M144,271.5 Q144.2031,271 144.4375,270.75 Q144.6719,270.5 144.9375,270.5 Q145.4063,270.5 145.7031,270.7813 Q146,271.0625 146,271.7188 L146,273.2813 Q146,273.9375 145.7188,274.2188 Q145.4375,274.5 145,274.5 Q144.6094,274.5 144.3594,274.3281 Q144.1094,274.1563 144,273.7031 Q143.9531,273.3906 143.7813,273.2188 Q143.4688,272.8906 142.9063,272.7031 Q142.3438,272.5 141.7813,272.5 Q141.0781,272.5 140.4844,272.7813 Q139.9063,273.0625 139.4531,273.6875 Q139,274.3125 139,275.1719 L139,276.0938 Q139,277.125 139.8438,277.8125 Q140.6875,278.5 142.1875,278.5 Q143.0781,278.5 143.7031,278.2969 Q144.0625,278.1875 144.4688,277.8281 Q144.7344,277.625 144.875,277.5625 Q145.0156,277.5 145.1875,277.5 Q145.5156,277.5 145.75,277.7656 Q146,278.0156 146,278.375 Q146,278.7188 145.6563,279.125 Q145.1563,279.7188 144.3594,280.0469 Q143.3125,280.5 142.0313,280.5 Q140.5313,280.5 139.3281,279.9063 Q138.3594,279.4375 137.6719,278.4219 Q137,277.4063 137,276.2031 L137,275.1094 Q137,273.8594 137.5938,272.7656 Q138.2031,271.6719 139.25,271.0938 Q140.3125,270.5 141.5,270.5 Q142.2188,270.5 142.8438,270.75 Q143.4688,271 144,271.5 Z " fill="#000000"/><text fill="#000000" font-family="sans-serif" font-size="12" lengthAdjust="spacing" textLength="163" x="156" y="279.9102">ListNCentralityPortsController</text><line style="stroke:#A80036;stroke-width:1.5;" x1="128" x2="321" y1="291" y2="291"/><line style="stroke:#A80036;stroke-width:1.5;" x1="128" x2="321" y1="299" y2="299"/><!--MD5=[d09fe284dff54f56f1e17acf5f33d2d7]
link TrafficManager to User--><path codeLine="26" d="M123.5,55.03 C111.83,75.7 94.69,106.07 82.25,128.1 " fill="none" id="TrafficManager-to-User" style="stroke:#A80036;stroke-width:1.0;"/><polygon fill="#A80036" points="79.67,132.67,87.5751,126.7955,82.1261,128.3148,80.6067,122.8658,79.67,132.67" style="stroke:#A80036;stroke-width:1.0;"/><text fill="#000000" font-family="sans-serif" font-size="13" lengthAdjust="spacing" textLength="21" x="107.5" y="99.4951">is a</text><!--MD5=[1f12d177c84922ed4f166f09ee62ceaa]
link User to UserRole--><path codeLine="28" d="M63.34,181.03 C60.53,201.52 56.42,231.56 53.4,253.55 " fill="none" id="User-to-UserRole" style="stroke:#A80036;stroke-width:1.0;"/><polygon fill="#A80036" points="52.7,258.67,57.8718,250.2883,53.3711,253.7152,49.9442,249.2146,52.7,258.67" style="stroke:#A80036;stroke-width:1.0;"/><text fill="#000000" font-family="sans-serif" font-size="13" lengthAdjust="spacing" textLength="21" x="60.5" y="225.4951">has</text><!--MD5=[bebb0dd10fdc83499d1efbb3b66e08d4]
link TrafficManager to ListNCentralityPortsUI--><path codeLine="30" d="M151.17,55.03 C164.39,75.78 183.85,106.32 197.9,128.38 " fill="none" id="TrafficManager-to-ListNCentralityPortsUI" style="stroke:#A80036;stroke-width:1.0;"/><polygon fill="#A80036" points="200.64,132.67,199.1913,122.9283,197.9593,128.4493,192.4382,127.2174,200.64,132.67" style="stroke:#A80036;stroke-width:1.0;"/><text fill="#000000" font-family="sans-serif" font-size="13" lengthAdjust="spacing" textLength="42" x="182.5" y="99.4951">access</text><!--MD5=[d6a4c0bae7bd92012cd4e80d6279aacb]
link ListNCentralityPortsUI to ListNCentralityPortsController--><path codeLine="32" d="M217.17,181.03 C218.66,201.52 220.84,231.56 222.43,253.55 " fill="none" id="ListNCentralityPortsUI-to-ListNCentralityPortsController" style="stroke:#A80036;stroke-width:1.0;"/><polygon fill="#A80036" points="222.81,258.67,226.1567,249.4072,222.4527,253.6828,218.1772,249.9788,222.81,258.67" style="stroke:#A80036;stroke-width:1.0;"/><text fill="#000000" font-family="sans-serif" font-size="13" lengthAdjust="spacing" textLength="80" x="222.5" y="225.4951">connects with</text><!--MD5=[8d00c89234dd373532517eea6558ab01]
link ListNCentralityPortsController to Company--><path codeLine="34" d="M224.5,307.05 C224.5,326.12 224.5,354.15 224.5,379.77 " fill="none" id="ListNCentralityPortsController-to-Company" style="stroke:#A80036;stroke-width:1.0;"/><polygon fill="#A80036" points="224.5,384.86,228.5,375.86,224.5,379.86,220.5,375.86,224.5,384.86" style="stroke:#A80036;stroke-width:1.0;"/><text fill="#000000" font-family="sans-serif" font-size="13" lengthAdjust="spacing" textLength="74" x="225.5" y="351.4951">calls method</text><!--MD5=[35c8e59b1ea7335c6def1d8c5c8dc4f1]
link Company to GraphGenerator--><path codeLine="36" d="M224.5,502.28 C224.5,525.72 224.5,552.51 224.5,574.97 " fill="none" id="Company-to-GraphGenerator" style="stroke:#A80036;stroke-width:1.0;"/><polygon fill="#A80036" points="224.5,579.99,228.5,570.99,224.5,574.99,220.5,570.99,224.5,579.99" style="stroke:#A80036;stroke-width:1.0;"/><text fill="#000000" font-family="sans-serif" font-size="13" lengthAdjust="spacing" textLength="108" x="225.5" y="546.4951">gets methods from</text><!--MD5=[12a204dac09d5f752636ae9147fc54a8]
@startuml

class GraphGenerator{
- Graph<PortAndCapital, Double> graph;
+ getCentralitys();
+ listOfNPortsCentrality(int n);
}

class Company{
- TreeOfPorts treeOfPorts;
- List<Country> countryList;
- GraphGenerator graphGenerator;
+ generateGraph(File countries, File borders, File seaDists, int n);
+ getGraphGenerator();
}

class User

class UserRole

class ListNCentralityPortsUI

class TrafficManager

class ListNCentralityPortsController

TrafficManager -down-> User : is a

User -down-> UserRole : has

TrafficManager -down-> ListNCentralityPortsUI : access

ListNCentralityPortsUI -down-> ListNCentralityPortsController : connects with

ListNCentralityPortsController -down-> Company : calls method

Company -down-> GraphGenerator : gets methods from


@enduml

PlantUML version 1.2021.16(Wed Dec 08 17:25:22 GMT 2021)
(GPL source distribution)
Java Runtime: OpenJDK Runtime Environment
JVM: OpenJDK 64-Bit Server VM
Default Encoding: Cp1252
Language: pt
Country: PT
--></g></svg>